<?xml version="1.0" encoding="UTF-8" standalone="no"?>
<!DOCTYPE svg PUBLIC "-//W3C//DTD SVG 1.0//EN" "http://www.w3.org/TR/2001/REC-SVG-20010904/DTD/svg10.dtd">
<!-- Generiert durch Microsoft Visio 11.0, SVG Export, v1.0 v2-fc-mcs2.svg Functional Components for Messaging and Communications Server -->
<svg xmlns="http://www.w3.org/2000/svg" xmlns:v="http://schemas.microsoft.com/visio/2003/SVGExtensions/" width="7.29167in"
		height="4.375in" viewBox="0 0 525 315" xml:space="preserve" color-interpolation-filters="sRGB" class="st13">
	<v:documentProperties v:langID="1033" v:metric="true" v:viewMarkup="false"/>

	<style type="text/css">
	<![CDATA[
		.st1 {fill:none;stroke:none;stroke-linecap:butt;stroke-width:0.75}
		.st2 {fill:#000000;font-family:Verdana;font-size:0.625008em}
		.st3 {fill:#ffff99;stroke:#fafd00;stroke-linecap:butt;stroke-width:0.75}
		.st4 {fill:#000000;font-family:Verdana;font-size:0.874992em}
		.st5 {fill:none;stroke:#000000;stroke-dasharray:3,1.5;stroke-linecap:butt;stroke-width:0.75}
		.st6 {fill:#e7ffff;stroke:#000000;stroke-linecap:butt;stroke-width:0.75}
		.st7 {fill:#e6a4c6;stroke:#000000;stroke-linecap:butt;stroke-width:0.75}
		.st8 {fill:#b4dafe;stroke:#000000;stroke-linecap:butt;stroke-width:0.75}
		.st9 {fill:#ffc0c0;stroke:#000000;stroke-linecap:butt;stroke-width:0.75}
		.st10 {fill:#ffff00;stroke:#000000;stroke-linecap:butt;stroke-width:0.75}
		.st11 {fill:none;stroke:#000000;stroke-linecap:butt;stroke-width:0.75}
		.st12 {fill:#fafd00;stroke:#000000;stroke-linecap:butt;stroke-width:0.75}
		.st13 {fill:none;fill-rule:evenodd;font-size:12;overflow:visible;stroke-linecap:square;stroke-miterlimit:3}
	]]>
	</style>

	<g v:mID="0" v:index="1" v:groupContext="foregroundPage">
		<v:userDefs/>
		<title>Functional Components for Messaging and Communications Server</title>
		<v:pageProperties v:drawingScale="1" v:pageScale="1" v:drawingUnits="19" v:shadowOffsetX="9" v:shadowOffsetY="-9"/>
		<g id="shape1-1" v:mID="1" v:groupContext="shape" transform="translate(26.25,-245.25)">
			<title>Tabelle.1</title>
			<desc>Common</desc>
			<v:textBlock v:margins="rect(0,0,0,0)"/>
			<v:textRect cx="22.5" cy="313.125" width="45" height="3.75"/>
			<rect x="0" y="311.25" width="45" height="3.75" class="st1"/>
			<text x="0" y="315.37" class="st2" v:langID="1033"><v:paragraph/><v:tabList/>Common</text>		</g>
		<g id="shape2-4" v:mID="2" v:groupContext="shape" transform="translate(26.25,-234)">
			<title>Tabelle.2</title>
			<desc>support</desc>
			<v:textBlock v:margins="rect(0,0,0,0)"/>
			<v:textRect cx="26.25" cy="313.125" width="52.51" height="3.75"/>
			<rect x="0" y="311.25" width="52.5" height="3.75" class="st1"/>
			<text x="0" y="315.37" class="st2" v:langID="1033"><v:paragraph/><v:tabList/>support</text>		</g>
		<g id="shape3-7" v:mID="3" v:groupContext="shape" transform="translate(26.25,-222.75)">
			<title>Tabelle.3</title>
			<desc>application</desc>
			<v:textBlock v:margins="rect(0,0,0,0)"/>
			<v:textRect cx="41.25" cy="313.125" width="82.5" height="3.75"/>
			<rect x="0" y="311.25" width="82.5" height="3.75" class="st1"/>
			<text x="0" y="315.37" class="st2" v:langID="1033"><v:paragraph/><v:tabList/>application</text>		</g>
		<g id="shape4-10" v:mID="4" v:groupContext="shape" transform="translate(26.25,-212.25)">
			<title>Tabelle.4</title>
			<desc>services</desc>
			<v:textBlock v:margins="rect(0,0,0,0)"/>
			<v:textRect cx="30" cy="313.125" width="60" height="3.75"/>
			<rect x="0" y="311.25" width="60" height="3.75" class="st1"/>
			<text x="0" y="315.37" class="st2" v:langID="1033"><v:paragraph/><v:tabList/>services</text>		</g>
		<g id="shape5-13" v:mID="5" v:groupContext="shape" transform="translate(26.25,-194.25)">
			<title>Tabelle.5</title>
			<desc>Infra-</desc>
			<v:textBlock v:margins="rect(0,0,0,0)"/>
			<v:textRect cx="22.5" cy="313.125" width="45" height="3.75"/>
			<rect x="0" y="311.25" width="45" height="3.75" class="st1"/>
			<text x="0" y="315.37" class="st2" v:langID="1033"><v:paragraph/><v:tabList/>Infra-</text>		</g>
		<g id="shape6-16" v:mID="6" v:groupContext="shape" transform="translate(26.25,-183.75)">
			<title>Tabelle.6</title>
			<desc>structure</desc>
			<v:textBlock v:margins="rect(0,0,0,0)"/>
			<v:textRect cx="33.75" cy="313.125" width="67.5" height="3.75"/>
			<rect x="0" y="311.25" width="67.5" height="3.75" class="st1"/>
			<text x="0" y="315.37" class="st2" v:langID="1033"><v:paragraph/><v:tabList/>structure</text>		</g>
		<g id="shape7-19" v:mID="7" v:groupContext="shape" transform="translate(26.25,-172.5)">
			<title>Tabelle.7</title>
			<desc>services</desc>
			<v:textBlock v:margins="rect(0,0,0,0)"/>
			<v:textRect cx="30" cy="313.125" width="60" height="3.75"/>
			<rect x="0" y="311.25" width="60" height="3.75" class="st1"/>
			<text x="0" y="315.37" class="st2" v:langID="1033"><v:paragraph/><v:tabList/>services</text>		</g>
		<g id="shape8-22" v:mID="8" v:groupContext="shape" transform="translate(27,-146.25)">
			<title>Tabelle.8</title>
			<desc>Kernel</desc>
			<v:textBlock v:margins="rect(0,0,0,0)"/>
			<v:textRect cx="22.5" cy="313.125" width="45" height="3.75"/>
			<rect x="0" y="311.25" width="45" height="3.75" class="st1"/>
			<text x="0" y="315.37" class="st2" v:langID="1033"><v:paragraph/><v:tabList/>Kernel</text>		</g>
		<g id="shape9-25" v:mID="9" v:groupContext="shape" transform="translate(27,-135.75)">
			<title>Tabelle.9</title>
			<desc>services</desc>
			<v:textBlock v:margins="rect(0,0,0,0)"/>
			<v:textRect cx="30" cy="313.125" width="60" height="3.75"/>
			<rect x="0" y="311.25" width="60" height="3.75" class="st1"/>
			<text x="0" y="315.37" class="st2" v:langID="1033"><v:paragraph/><v:tabList/>services</text>		</g>
		<g id="shape10-28" v:mID="10" v:groupContext="shape" transform="translate(25.5,-103.5)">
			<title>Tabelle.10</title>
			<desc>Network</desc>
			<v:textBlock v:margins="rect(0,0,0,0)"/>
			<v:textRect cx="26.25" cy="313.125" width="52.5" height="3.75"/>
			<rect x="0" y="311.25" width="52.5" height="3.75" class="st1"/>
			<text x="0" y="315.37" class="st2" v:langID="1033"><v:paragraph/><v:tabList/>Network</text>		</g>
		<g id="shape11-31" v:mID="11" v:groupContext="shape" transform="translate(26.25,-93)">
			<title>Tabelle.11</title>
			<desc>services</desc>
			<v:textBlock v:margins="rect(0,0,0,0)"/>
			<v:textRect cx="30" cy="313.125" width="60" height="3.75"/>
			<rect x="0" y="311.25" width="60" height="3.75" class="st1"/>
			<text x="0" y="315.37" class="st2" v:langID="1033"><v:paragraph/><v:tabList/>services</text>		</g>
		<g id="shape12-34" v:mID="12" v:groupContext="shape" transform="translate(27.75,-282.75)">
			<title>Tabelle.12</title>
			<desc>Specific</desc>
			<v:textBlock v:margins="rect(0,0,0,0)"/>
			<v:textRect cx="30" cy="313.125" width="60" height="3.75"/>
			<rect x="0" y="311.25" width="60" height="3.75" class="st1"/>
			<text x="0" y="315.37" class="st2" v:langID="1033"><v:paragraph/><v:tabList/>Specific</text>		</g>
		<g id="shape13-37" v:mID="13" v:groupContext="shape" transform="translate(27,-272.25)">
			<title>Tabelle.13</title>
			<desc>mission</desc>
			<v:textBlock v:margins="rect(0,0,0,0)"/>
			<v:textRect cx="26.25" cy="313.125" width="52.5" height="3.75"/>
			<rect x="0" y="311.25" width="52.5" height="3.75" class="st1"/>
			<text x="0" y="315.37" class="st2" v:langID="1033"><v:paragraph/><v:tabList/>mission</text>		</g>
		<g id="shape14-40" v:mID="14" v:groupContext="shape" transform="translate(27.75,-261)">
			<title>Tabelle.14</title>
			<desc>applications</desc>
			<v:textBlock v:margins="rect(0,0,0,0)"/>
			<v:textRect cx="45" cy="313.125" width="90" height="3.75"/>
			<rect x="0" y="311.25" width="90" height="3.75" class="st1"/>
			<text x="0" y="315.37" class="st2" v:langID="1033"><v:paragraph/><v:tabList/>applications</text>		</g>
		<g id="shape15-43" v:mID="15" v:groupContext="shape" transform="translate(77.25,-84.75)">
			<title>Tabelle.15</title>
			<rect x="0" y="282" width="409.5" height="33" class="st3"/>
		</g>
		<g id="shape16-45" v:mID="16" v:groupContext="shape" transform="translate(21,-55.5)">
			<title>Tabelle.16</title>
			<desc>Legend:</desc>
			<v:textBlock v:margins="rect(0,0,0,0)"/>
			<v:textRect cx="36.75" cy="312.375" width="73.51" height="5.25"/>
			<rect x="0" y="309.75" width="73.5" height="5.25" class="st1"/>
			<text x="0" y="315.52" class="st4" v:langID="1033"><v:paragraph/><v:tabList/>Legend:</text>		</g>
		<g id="shape17-48" v:mID="17" v:groupContext="shape" transform="translate(73.5,-80.25)">
			<title>Tabelle.17</title>
			<path d="M0 315 L416.25 315 L416.25 101.25 L0 101.25 L0 315 Z" class="st5"/>
		</g>
		<g id="shape18-50" v:mID="18" v:groupContext="shape" transform="translate(77.25,-209.25)">
			<title>Tabelle.18</title>
			<rect x="0" y="271.5" width="52.5" height="43.5" class="st6"/>
		</g>
		<g id="shape19-52" v:mID="19" v:groupContext="shape" transform="translate(77.25,-258)">
			<title>Tabelle.19</title>
			<rect x="0" y="284.25" width="129" height="30.75" class="st7"/>
		</g>
		<g id="shape20-54" v:mID="20" v:groupContext="shape" transform="translate(261.75,-209.25)">
			<title>Tabelle.20</title>
			<rect x="0" y="271.5" width="43.5" height="43.5" class="st6"/>
		</g>
		<g id="shape21-56" v:mID="21" v:groupContext="shape" transform="translate(282.75,-168)">
			<title>Tabelle.21</title>
			<rect x="0" y="279" width="55.5" height="36" class="st8"/>
		</g>
		<g id="shape22-58" v:mID="22" v:groupContext="shape" transform="translate(422.25,-168)">
			<title>Tabelle.22</title>
			<rect x="0" y="279" width="28.5" height="36" class="st9"/>
		</g>
		<g id="shape23-60" v:mID="23" v:groupContext="shape" transform="translate(290.25,-123.75)">
			<title>Tabelle.23</title>
			<rect x="0" y="277.5" width="86.25" height="37.5" class="st6"/>
		</g>
		<g id="shape24-62" v:mID="24" v:groupContext="shape" transform="translate(441,-88.5)">
			<title>Tabelle.24</title>
			<rect x="0" y="288" width="42" height="27" class="st9"/>
		</g>
		<g id="shape25-64" v:mID="25" v:groupContext="shape" transform="translate(245.25,-88.5)">
			<title>Tabelle.25</title>
			<rect x="0" y="288" width="45.75" height="27" class="st10"/>
		</g>
		<g id="shape26-66" v:mID="26" v:groupContext="shape" transform="translate(112.5,-37.5)">
			<title>Tabelle.26</title>
			<path d="M0 315 L39 315 L39 279.75 L0 279.75 L0 315 Z" class="st5"/>
		</g>
		<g id="shape27-68" v:mID="27" v:groupContext="shape" transform="translate(427.5,-189)">
			<title>Tabelle.27</title>
			<desc>PKI</desc>
			<v:textBlock v:margins="rect(0,0,0,0)"/>
			<v:textRect cx="11.25" cy="313.125" width="22.5" height="3.75"/>
			<rect x="0" y="311.25" width="22.5" height="3.75" class="st1"/>
			<text x="0" y="315.37" class="st2" v:langID="1033"><v:paragraph/><v:tabList/>PKI</text>		</g>
		<g id="shape28-71" v:mID="28" v:groupContext="shape" transform="translate(426,-177.75)">
			<title>Tabelle.28</title>
			<desc>client</desc>
			<v:textBlock v:margins="rect(0,0,0,0)"/>
			<v:textRect cx="22.5" cy="313.125" width="45" height="3.75"/>
			<rect x="0" y="311.25" width="45" height="3.75" class="st1"/>
			<text x="0" y="315.37" class="st2" v:langID="1033"><v:paragraph/><v:tabList/>client</text>		</g>
		<g id="shape29-74" v:mID="29" v:groupContext="shape" transform="translate(93,-270)">
			<title>Tabelle.29</title>
			<desc>ACP 127 gateway.</desc>
			<v:textBlock v:margins="rect(0,0,0,0)"/>
			<v:textRect cx="60" cy="313.125" width="120.01" height="3.75"/>
			<rect x="0" y="311.25" width="120" height="3.75" class="st1"/>
			<text x="0" y="315.37" class="st2" v:langID="1033"><v:paragraph/><v:tabList/>ACP 127 gateway.</text>		</g>
		<g id="shape30-77" v:mID="30" v:groupContext="shape" transform="translate(135.75,-209.25)">
			<title>Tabelle.30</title>
			<rect x="0" y="271.5" width="51.75" height="43.5" class="st8"/>
		</g>
		<g id="shape31-79" v:mID="31" v:groupContext="shape" transform="translate(272.25,-233.25)">
			<title>Tabelle.31</title>
			<desc>FAX</desc>
			<v:textBlock v:margins="rect(0,0,0,0)"/>
			<v:textRect cx="11.25" cy="313.125" width="22.5" height="3.75"/>
			<rect x="0" y="311.25" width="22.5" height="3.75" class="st1"/>
			<text x="0" y="315.37" class="st2" v:langID="1033"><v:paragraph/><v:tabList/>FAX</text>		</g>
		<g id="shape32-82" v:mID="32" v:groupContext="shape" transform="translate(267,-221.25)">
			<title>Tabelle.32</title>
			<desc>gateway</desc>
			<v:textBlock v:margins="rect(0,0,0,0)"/>
			<v:textRect cx="26.25" cy="313.125" width="52.51" height="3.75"/>
			<rect x="0" y="311.25" width="52.5" height="3.75" class="st1"/>
			<text x="0" y="315.37" class="st2" v:langID="1033"><v:paragraph/><v:tabList/>gateway</text>		</g>
		<g id="shape33-85" v:mID="33" v:groupContext="shape" transform="translate(92.25,-233.25)">
			<title>Tabelle.33</title>
			<desc>TARE</desc>
			<v:textBlock v:margins="rect(0,0,0,0)"/>
			<v:textRect cx="15" cy="313.125" width="30" height="3.75"/>
			<rect x="0" y="311.25" width="30" height="3.75" class="st1"/>
			<text x="0" y="315.37" class="st2" v:langID="1033"><v:paragraph/><v:tabList/>TARE</text>		</g>
		<g id="shape34-88" v:mID="34" v:groupContext="shape" transform="translate(87.75,-220.5)">
			<title>Tabelle.34</title>
			<desc>interface</desc>
			<v:textBlock v:margins="rect(0,0,0,0)"/>
			<v:textRect cx="33.75" cy="313.125" width="67.5" height="3.75"/>
			<rect x="0" y="311.25" width="67.5" height="3.75" class="st1"/>
			<text x="0" y="315.37" class="st2" v:langID="1033"><v:paragraph/><v:tabList/>interface</text>		</g>
		<g id="shape35-91" v:mID="35" v:groupContext="shape" transform="translate(300.75,-188.25)">
			<title>Tabelle.35</title>
			<desc>WEB</desc>
			<v:textBlock v:margins="rect(0,0,0,0)"/>
			<v:textRect cx="11.25" cy="313.125" width="22.5" height="3.75"/>
			<rect x="0" y="311.25" width="22.5" height="3.75" class="st1"/>
			<text x="0" y="315.37" class="st2" v:langID="1033"><v:paragraph/><v:tabList/>WEB</text>		</g>
		<g id="shape36-94" v:mID="36" v:groupContext="shape" transform="translate(288.75,-177)">
			<title>Tabelle.36</title>
			<desc>middleware</desc>
			<v:textBlock v:margins="rect(0,0,0,0)"/>
			<v:textRect cx="37.5" cy="313.125" width="75" height="3.75"/>
			<rect x="0" y="311.25" width="75" height="3.75" class="st1"/>
			<text x="0" y="315.37" class="st2" v:langID="1033"><v:paragraph/><v:tabList/>middleware</text>		</g>
		<g id="shape37-97" v:mID="37" v:groupContext="shape" transform="translate(308.25,-145.5)">
			<title>Tabelle.37</title>
			<desc>Windowing</desc>
			<v:textBlock v:margins="rect(0,0,0,0)"/>
			<v:textRect cx="33.75" cy="313.125" width="67.5" height="3.75"/>
			<rect x="0" y="311.25" width="67.5" height="3.75" class="st1"/>
			<text x="0" y="315.37" class="st2" v:langID="1033"><v:paragraph/><v:tabList/>Windowing</text>		</g>
		<g id="shape38-100" v:mID="38" v:groupContext="shape" transform="translate(315,-132.75)">
			<title>Tabelle.38</title>
			<desc>software</desc>
			<v:textBlock v:margins="rect(0,0,0,0)"/>
			<v:textRect cx="30" cy="313.125" width="60" height="3.75"/>
			<rect x="0" y="311.25" width="60" height="3.75" class="st1"/>
			<text x="0" y="315.37" class="st2" v:langID="1033"><v:paragraph/><v:tabList/>software</text>		</g>
		<g id="shape39-103" v:mID="39" v:groupContext="shape" transform="translate(255,-105)">
			<title>Tabelle.39</title>
			<desc>IP load</desc>
			<v:textBlock v:margins="rect(0,0,0,0)"/>
			<v:textRect cx="26.25" cy="313.125" width="52.5" height="3.75"/>
			<rect x="0" y="311.25" width="52.5" height="3.75" class="st1"/>
			<text x="0" y="315.37" class="st2" v:langID="1033"><v:paragraph/><v:tabList/>IP load</text>		</g>
		<g id="shape40-106" v:mID="40" v:groupContext="shape" transform="translate(249.75,-94.5)">
			<title>Tabelle.40</title>
			<desc>balancing</desc>
			<v:textBlock v:margins="rect(0,0,0,0)"/>
			<v:textRect cx="33.75" cy="313.125" width="67.5" height="3.75"/>
			<rect x="0" y="311.25" width="67.5" height="3.75" class="st1"/>
			<text x="0" y="315.37" class="st2" v:langID="1033"><v:paragraph/><v:tabList/>balancing</text>		</g>
		<g id="shape41-109" v:mID="41" v:groupContext="shape" transform="translate(450.75,-99.75)">
			<title>Tabelle.41</title>
			<desc>VPN</desc>
			<v:textBlock v:margins="rect(0,0,0,0)"/>
			<v:textRect cx="11.25" cy="313.125" width="22.5" height="3.75"/>
			<rect x="0" y="311.25" width="22.5" height="3.75" class="st1"/>
			<text x="0" y="315.37" class="st2" v:langID="1033"><v:paragraph/><v:tabList/>VPN</text>		</g>
		<g id="shape42-112" v:mID="42" v:groupContext="shape" transform="translate(192.75,-209.25)">
			<title>Tabelle.42</title>
			<rect x="0" y="271.5" width="63.75" height="43.5" class="st8"/>
		</g>
		<g id="shape43-114" v:mID="43" v:groupContext="shape" transform="translate(309,-209.25)">
			<title>Tabelle.43</title>
			<rect x="0" y="271.5" width="45.75" height="43.5" class="st8"/>
		</g>
		<g id="shape44-116" v:mID="44" v:groupContext="shape" transform="translate(358.5,-209.25)">
			<title>Tabelle.44</title>
			<rect x="0" y="271.5" width="66.75" height="43.5" class="st8"/>
		</g>
		<g id="shape45-118" v:mID="45" v:groupContext="shape" transform="translate(343.5,-168)">
			<title>Tabelle.45</title>
			<rect x="0" y="279" width="33.75" height="36" class="st8"/>
		</g>
		<g id="shape46-120" v:mID="46" v:groupContext="shape" transform="translate(158.25,-168)">
			<title>Tabelle.46</title>
			<rect x="0" y="279" width="57.75" height="36" class="st8"/>
		</g>
		<g id="shape47-122" v:mID="47" v:groupContext="shape" transform="translate(220.5,-168)">
			<title>Tabelle.47</title>
			<rect x="0" y="278.25" width="57" height="36.75" class="st8"/>
		</g>
		<g id="shape48-124" v:mID="48" v:groupContext="shape" transform="translate(337.5,-37.5)">
			<title>Tabelle.48</title>
			<rect x="0" y="279.75" width="64.5" height="35.25" class="st8"/>
		</g>
		<g id="shape49-126" v:mID="49" v:groupContext="shape" transform="translate(427.5,-209.25)">
			<title>Tabelle.49</title>
			<rect x="0" y="271.5" width="55.5" height="43.5" class="st9"/>
		</g>
		<g id="shape50-128" v:mID="50" v:groupContext="shape" transform="translate(381,-168)">
			<title>Tabelle.50</title>
			<rect x="0" y="279" width="37.5" height="36" class="st9"/>
		</g>
		<g id="shape51-130" v:mID="51" v:groupContext="shape" transform="translate(453.75,-168)">
			<title>Tabelle.51</title>
			<rect x="0" y="279" width="32.25" height="36" class="st9"/>
		</g>
		<g id="shape52-132" v:mID="52" v:groupContext="shape" transform="translate(381,-123.75)">
			<title>Tabelle.52</title>
			<rect x="0" y="277.5" width="50.25" height="37.5" class="st9"/>
		</g>
		<g id="shape53-134" v:mID="53" v:groupContext="shape" transform="translate(436.5,-123.75)">
			<title>Tabelle.53</title>
			<rect x="0" y="277.5" width="48.75" height="37.5" class="st9"/>
		</g>
		<g id="shape54-136" v:mID="54" v:groupContext="shape" transform="translate(158.25,-123.75)">
			<title>Tabelle.54</title>
			<rect x="0" y="277.5" width="126.75" height="37.5" class="st6"/>
		</g>
		<g id="shape55-138" v:mID="55" v:groupContext="shape" transform="translate(77.25,-123.75)">
			<title>Tabelle.55</title>
			<rect x="0" y="277.5" width="75" height="37.5" class="st11"/>
		</g>
		<g id="shape56-140" v:mID="56" v:groupContext="shape" transform="translate(76.5,-168)">
			<title>Tabelle.56</title>
			<rect x="0" y="279" width="33" height="36" class="st11"/>
		</g>
		<g id="shape57-142" v:mID="57" v:groupContext="shape" transform="translate(112.5,-168)">
			<title>Tabelle.57</title>
			<rect x="0" y="279" width="42.75" height="36" class="st11"/>
		</g>
		<g id="shape58-144" v:mID="58" v:groupContext="shape" transform="translate(156.75,-37.5)">
			<title>Tabelle.58</title>
			<rect x="0" y="279.75" width="57.75" height="35.25" class="st7"/>
		</g>
		<g id="shape59-146" v:mID="59" v:groupContext="shape" transform="translate(405.75,-37.5)">
			<title>Tabelle.59</title>
			<rect x="0" y="279.75" width="56.25" height="35.25" class="st6"/>
		</g>
		<g id="shape60-148" v:mID="60" v:groupContext="shape" transform="translate(465.75,-37.5)">
			<title>Tabelle.60</title>
			<rect x="0" y="279.75" width="51.75" height="35.25" class="st9"/>
		</g>
		<g id="shape61-150" v:mID="61" v:groupContext="shape" transform="translate(276.75,-37.5)">
			<title>Tabelle.61</title>
			<rect x="0" y="279.75" width="56.25" height="35.25" class="st11"/>
		</g>
		<g id="shape62-152" v:mID="62" v:groupContext="shape" transform="translate(90,-150)">
			<title>Tabelle.62</title>
			<desc>Configuration</desc>
			<v:textBlock v:margins="rect(0,0,0,0)"/>
			<v:textRect cx="48.75" cy="313.125" width="97.51" height="3.75"/>
			<rect x="0" y="311.25" width="97.5" height="3.75" class="st1"/>
			<text x="0" y="315.37" class="st2" v:langID="1033"><v:paragraph/><v:tabList/>Configuration</text>		</g>
		<g id="shape63-155" v:mID="63" v:groupContext="shape" transform="translate(86.25,-139.5)">
			<title>Tabelle.63</title>
			<desc>control/remote</desc>
			<v:textBlock v:margins="rect(0,0,0,0)"/>
			<v:textRect cx="52.5" cy="313.125" width="105.01" height="3.75"/>
			<rect x="0" y="311.25" width="105" height="3.75" class="st1"/>
			<text x="0" y="315.37" class="st2" v:langID="1033"><v:paragraph/><v:tabList/>control/remote</text>		</g>
		<g id="shape64-158" v:mID="64" v:groupContext="shape" transform="translate(95.25,-128.25)">
			<title>Tabelle.64</title>
			<desc>installation</desc>
			<v:textBlock v:margins="rect(0,0,0,0)"/>
			<v:textRect cx="45" cy="313.125" width="90" height="3.75"/>
			<rect x="0" y="311.25" width="90" height="3.75" class="st1"/>
			<text x="0" y="315.37" class="st2" v:langID="1033"><v:paragraph/><v:tabList/>installation</text>		</g>
		<g id="shape65-161" v:mID="65" v:groupContext="shape" transform="translate(177,-145.5)">
			<title>Tabelle.65</title>
			<desc>Base operating system</desc>
			<v:textBlock v:margins="rect(0,0,0,0)"/>
			<v:textRect cx="78.75" cy="313.125" width="157.5" height="3.75"/>
			<rect x="0" y="311.25" width="157.5" height="3.75" class="st1"/>
			<text x="0" y="315.37" class="st2" v:langID="1033"><v:paragraph/><v:tabList/>Base operating system</text>		</g>
		<g id="shape66-164" v:mID="66" v:groupContext="shape" transform="translate(181.5,-132.75)">
			<title>Tabelle.66</title>
			<desc>(&#38; server clustering)</desc>
			<v:textBlock v:margins="rect(0,0,0,0)"/>
			<v:textRect cx="78.75" cy="313.125" width="157.5" height="3.75"/>
			<rect x="0" y="311.25" width="157.5" height="3.75" class="st1"/>
			<text x="0" y="315.37" class="st2" v:langID="1033"><v:paragraph/><v:tabList/>(&#38; server clustering)</text>		</g>
		<g id="shape67-167" v:mID="67" v:groupContext="shape" transform="translate(114.75,-189)">
			<title>Tabelle.67</title>
			<desc>Messaging</desc>
			<v:textBlock v:margins="rect(0,0,0,0)"/>
			<v:textRect cx="33.75" cy="313.125" width="67.5" height="3.75"/>
			<rect x="0" y="311.25" width="67.5" height="3.75" class="st1"/>
			<text x="0" y="315.37" class="st2" v:langID="1033"><v:paragraph/><v:tabList/>Messaging</text>		</g>
		<g id="shape68-170" v:mID="68" v:groupContext="shape" transform="translate(117.75,-177.75)">
			<title>Tabelle.68</title>
			<desc>directory</desc>
			<v:textBlock v:margins="rect(0,0,0,0)"/>
			<v:textRect cx="33.75" cy="313.125" width="67.5" height="3.75"/>
			<rect x="0" y="311.25" width="67.5" height="3.75" class="st1"/>
			<text x="0" y="315.37" class="st2" v:langID="1033"><v:paragraph/><v:tabList/>directory</text>		</g>
		<g id="shape69-173" v:mID="69" v:groupContext="shape" transform="translate(78,-189)">
			<title>Tabelle.69</title>
			<desc>Managt</desc>
			<v:textBlock v:margins="rect(0,0,0,0)"/>
			<v:textRect cx="22.5" cy="313.125" width="45" height="3.75"/>
			<rect x="0" y="311.25" width="45" height="3.75" class="st1"/>
			<text x="0" y="315.37" class="st2" v:langID="1033"><v:paragraph/><v:tabList/>Managt</text>		</g>
		<g id="shape70-176" v:mID="70" v:groupContext="shape" transform="translate(81.75,-177.75)">
			<title>Tabelle.70</title>
			<desc>Agent</desc>
			<v:textBlock v:margins="rect(0,0,0,0)"/>
			<v:textRect cx="18.75" cy="313.125" width="37.5" height="3.75"/>
			<rect x="0" y="311.25" width="37.5" height="3.75" class="st1"/>
			<text x="0" y="315.37" class="st2" v:langID="1033"><v:paragraph/><v:tabList/>Agent</text>		</g>
		<g id="shape71-179" v:mID="71" v:groupContext="shape" transform="translate(199.5,-234.75)">
			<title>Tabelle.71</title>
			<desc>Message</desc>
			<v:textBlock v:margins="rect(0,0,0,0)"/>
			<v:textRect cx="26.25" cy="313.125" width="52.5" height="3.75"/>
			<rect x="0" y="311.25" width="52.5" height="3.75" class="st1"/>
			<text x="0" y="315.37" class="st2" v:langID="1033"><v:paragraph/><v:tabList/>Message</text>		</g>
		<g id="shape72-182" v:mID="72" v:groupContext="shape" transform="translate(210.75,-219)">
			<title>Tabelle.72</title>
			<desc>Store</desc>
			<v:textBlock v:margins="rect(0,0,0,0)"/>
			<v:textRect cx="18.75" cy="313.125" width="37.5" height="3.75"/>
			<rect x="0" y="311.25" width="37.5" height="3.75" class="st1"/>
			<text x="0" y="315.37" class="st2" v:langID="1033"><v:paragraph/><v:tabList/>Store</text>		</g>
		<g id="shape73-185" v:mID="73" v:groupContext="shape" transform="translate(171,-193.5)">
			<title>Tabelle.73</title>
			<desc>database</desc>
			<v:textBlock v:margins="rect(0,0,0,0)"/>
			<v:textRect cx="30" cy="313.125" width="60" height="3.75"/>
			<rect x="0" y="311.25" width="60" height="3.75" class="st1"/>
			<text x="0" y="315.37" class="st2" v:langID="1033"><v:paragraph/><v:tabList/>database</text>		</g>
		<g id="shape74-188" v:mID="74" v:groupContext="shape" transform="translate(164.25,-182.25)">
			<title>Tabelle.74</title>
			<desc>middleware</desc>
			<v:textBlock v:margins="rect(0,0,0,0)"/>
			<v:textRect cx="37.5" cy="313.125" width="75.01" height="3.75"/>
			<rect x="0" y="311.25" width="75" height="3.75" class="st1"/>
			<text x="0" y="315.37" class="st2" v:langID="1033"><v:paragraph/><v:tabList/>middleware</text>		</g>
		<g id="shape75-191" v:mID="75" v:groupContext="shape" transform="translate(162.75,-171.75)">
			<title>Tabelle.75</title>
			<desc>&#38; file sharing</desc>
			<v:textBlock v:margins="rect(0,0,0,0)"/>
			<v:textRect cx="52.5" cy="313.125" width="105.01" height="3.75"/>
			<rect x="0" y="311.25" width="105" height="3.75" class="st1"/>
			<text x="0" y="315.37" class="st2" v:langID="1033"><v:paragraph/><v:tabList/>&#38; file sharing</text>		</g>
		<g id="shape76-194" v:mID="76" v:groupContext="shape" transform="translate(231,-187.5)">
			<title>Tabelle.76</title>
			<desc>COMMS</desc>
			<v:textBlock v:margins="rect(0,0,0,0)"/>
			<v:textRect cx="18.75" cy="313.125" width="37.5" height="3.75"/>
			<rect x="0" y="311.25" width="37.5" height="3.75" class="st1"/>
			<text x="0" y="315.37" class="st2" v:langID="1033"><v:paragraph/><v:tabList/>COMMS</text>		</g>
		<g id="shape77-197" v:mID="77" v:groupContext="shape" transform="translate(233.25,-176.25)">
			<title>Tabelle.77</title>
			<desc>services</desc>
			<v:textBlock v:margins="rect(0,0,0,0)"/>
			<v:textRect cx="30" cy="313.125" width="60" height="3.75"/>
			<rect x="0" y="311.25" width="60" height="3.75" class="st1"/>
			<text x="0" y="315.37" class="st2" v:langID="1033"><v:paragraph/><v:tabList/>services</text>		</g>
		<g id="shape78-200" v:mID="78" v:groupContext="shape" transform="translate(349.5,-188.25)">
			<title>Tabelle.78</title>
			<desc>Index</desc>
			<v:textBlock v:margins="rect(0,0,0,0)"/>
			<v:textRect cx="18.75" cy="313.125" width="37.5" height="3.75"/>
			<rect x="0" y="311.25" width="37.5" height="3.75" class="st1"/>
			<text x="0" y="315.37" class="st2" v:langID="1033"><v:paragraph/><v:tabList/>Index</text>		</g>
		<g id="shape79-203" v:mID="79" v:groupContext="shape" transform="translate(348.75,-177)">
			<title>Tabelle.79</title>
			<desc>server</desc>
			<v:textBlock v:margins="rect(0,0,0,0)"/>
			<v:textRect cx="22.5" cy="313.125" width="45" height="3.75"/>
			<rect x="0" y="311.25" width="45" height="3.75" class="st1"/>
			<text x="0" y="315.37" class="st2" v:langID="1033"><v:paragraph/><v:tabList/>server</text>		</g>
		<g id="shape80-206" v:mID="80" v:groupContext="shape" transform="translate(459.75,-188.25)">
			<title>Tabelle.80</title>
			<desc>Virus</desc>
			<v:textBlock v:margins="rect(0,0,0,0)"/>
			<v:textRect cx="18.75" cy="313.125" width="37.5" height="3.75"/>
			<rect x="0" y="311.25" width="37.5" height="3.75" class="st1"/>
			<text x="0" y="315.37" class="st2" v:langID="1033"><v:paragraph/><v:tabList/>Virus</text>		</g>
		<g id="shape81-209" v:mID="81" v:groupContext="shape" transform="translate(456,-177.75)">
			<title>Tabelle.81</title>
			<desc>checker</desc>
			<v:textBlock v:margins="rect(0,0,0,0)"/>
			<v:textRect cx="26.25" cy="313.125" width="52.51" height="3.75"/>
			<rect x="0" y="311.25" width="52.5" height="3.75" class="st1"/>
			<text x="0" y="315.37" class="st2" v:langID="1033"><v:paragraph/><v:tabList/>checker</text>		</g>
		<g id="shape82-212" v:mID="82" v:groupContext="shape" transform="translate(391.5,-189)">
			<title>Tabelle.82</title>
			<desc>SEC.</desc>
			<v:textBlock v:margins="rect(0,0,0,0)"/>
			<v:textRect cx="15" cy="313.125" width="30.01" height="3.75"/>
			<rect x="0" y="311.25" width="30" height="3.75" class="st1"/>
			<text x="0" y="315.37" class="st2" v:langID="1033"><v:paragraph/><v:tabList/>SEC.</text>		</g>
		<g id="shape83-215" v:mID="83" v:groupContext="shape" transform="translate(383.25,-177.75)">
			<title>Tabelle.83</title>
			<desc>protocols</desc>
			<v:textBlock v:margins="rect(0,0,0,0)"/>
			<v:textRect cx="33.75" cy="313.125" width="67.5" height="3.75"/>
			<rect x="0" y="311.25" width="67.5" height="3.75" class="st1"/>
			<text x="0" y="315.37" class="st2" v:langID="1033"><v:paragraph/><v:tabList/>protocols</text>		</g>
		<g id="shape84-218" v:mID="84" v:groupContext="shape" transform="translate(389.25,-150.75)">
			<title>Tabelle.84</title>
			<desc>file access</desc>
			<v:textBlock v:margins="rect(0,0,0,0)"/>
			<v:textRect cx="41.25" cy="313.125" width="82.5" height="3.75"/>
			<rect x="0" y="311.25" width="82.5" height="3.75" class="st1"/>
			<text x="0" y="315.37" class="st2" v:langID="1033"><v:paragraph/><v:tabList/>file access</text>		</g>
		<g id="shape85-221" v:mID="85" v:groupContext="shape" transform="translate(388.5,-140.25)">
			<title>Tabelle.85</title>
			<desc>control &#38;</desc>
			<v:textBlock v:margins="rect(0,0,0,0)"/>
			<v:textRect cx="33.75" cy="313.125" width="67.5" height="3.75"/>
			<rect x="0" y="311.25" width="67.5" height="3.75" class="st1"/>
			<text x="0" y="315.37" class="st2" v:langID="1033"><v:paragraph/><v:tabList/>control &#38;</text>		</g>
		<g id="shape86-224" v:mID="86" v:groupContext="shape" transform="translate(387,-129)">
			<title>Tabelle.86</title>
			<desc>accounting</desc>
			<v:textBlock v:margins="rect(0,0,0,0)"/>
			<v:textRect cx="37.5" cy="313.125" width="75" height="3.75"/>
			<rect x="0" y="311.25" width="75" height="3.75" class="st1"/>
			<text x="0" y="315.37" class="st2" v:langID="1033"><v:paragraph/><v:tabList/>accounting</text>		</g>
		<g id="shape87-227" v:mID="87" v:groupContext="shape" transform="translate(434.25,-232.5)">
			<title>Tabelle.87</title>
			<desc>Distributed</desc>
			<v:textBlock v:margins="rect(0,0,0,0)"/>
			<v:textRect cx="41.25" cy="313.125" width="82.5" height="3.75"/>
			<rect x="0" y="311.25" width="82.5" height="3.75" class="st1"/>
			<text x="0" y="315.37" class="st2" v:langID="1033"><v:paragraph/><v:tabList/>Distributed</text>		</g>
		<g id="shape88-230" v:mID="88" v:groupContext="shape" transform="translate(429,-222)">
			<title>Tabelle.88</title>
			<desc>authentication</desc>
			<v:textBlock v:margins="rect(0,0,0,0)"/>
			<v:textRect cx="52.5" cy="313.125" width="105" height="3.75"/>
			<rect x="0" y="311.25" width="105" height="3.75" class="st1"/>
			<text x="0" y="315.37" class="st2" v:langID="1033"><v:paragraph/><v:tabList/>authentication</text>		</g>
		<g id="shape89-233" v:mID="89" v:groupContext="shape" transform="translate(446.25,-145.5)">
			<title>Tabelle.89</title>
			<desc>Security</desc>
			<v:textBlock v:margins="rect(0,0,0,0)"/>
			<v:textRect cx="30" cy="313.125" width="60" height="3.75"/>
			<rect x="0" y="311.25" width="60" height="3.75" class="st1"/>
			<text x="0" y="315.37" class="st2" v:langID="1033"><v:paragraph/><v:tabList/>Security</text>		</g>
		<g id="shape90-236" v:mID="90" v:groupContext="shape" transform="translate(448.5,-135)">
			<title>Tabelle.90</title>
			<desc>library</desc>
			<v:textBlock v:margins="rect(0,0,0,0)"/>
			<v:textRect cx="26.25" cy="313.125" width="52.51" height="3.75"/>
			<rect x="0" y="311.25" width="52.5" height="3.75" class="st1"/>
			<text x="0" y="315.37" class="st2" v:langID="1033"><v:paragraph/><v:tabList/>library</text>		</g>
		<g id="shape91-239" v:mID="91" v:groupContext="shape" transform="translate(144.75,-226.5)">
			<title>Tabelle.91</title>
			<desc>M.T.A</desc>
			<v:textBlock v:margins="rect(0,0,0,0)"/>
			<v:textRect cx="18.75" cy="313.125" width="37.51" height="3.75"/>
			<rect x="0" y="311.25" width="37.5" height="3.75" class="st1"/>
			<text x="0" y="315.37" class="st2" v:langID="1033"><v:paragraph/><v:tabList/>M.T.A</text>		</g>
		<g id="shape92-242" v:mID="92" v:groupContext="shape" transform="translate(117,-52.5)">
			<title>Tabelle.92</title>
			<desc>optional</desc>
			<v:textBlock v:margins="rect(0,0,0,0)"/>
			<v:textRect cx="30" cy="313.125" width="60" height="3.75"/>
			<rect x="0" y="311.25" width="60" height="3.75" class="st1"/>
			<text x="0" y="315.37" class="st2" v:langID="1033"><v:paragraph/><v:tabList/>optional</text>		</g>
		<g id="shape93-245" v:mID="93" v:groupContext="shape" transform="translate(63.75,-37.5)">
			<title>Tabelle.93</title>
			<rect x="0" y="279.75" width="45" height="35.25" class="st11"/>
		</g>
		<g id="shape94-247" v:mID="94" v:groupContext="shape" transform="translate(69,-53.25)">
			<title>Tabelle.94</title>
			<desc>required</desc>
			<v:textBlock v:margins="rect(0,0,0,0)"/>
			<v:textRect cx="30" cy="313.125" width="60" height="3.75"/>
			<rect x="0" y="311.25" width="60" height="3.75" class="st1"/>
			<text x="0" y="315.37" class="st2" v:langID="1033"><v:paragraph/><v:tabList/>required</text>		</g>
		<g id="shape95-250" v:mID="95" v:groupContext="shape" transform="translate(172.5,-57.75)">
			<title>Tabelle.95</title>
			<desc>mission</desc>
			<v:textBlock v:margins="rect(0,0,0,0)"/>
			<v:textRect cx="26.25" cy="313.125" width="52.5" height="3.75"/>
			<rect x="0" y="311.25" width="52.5" height="3.75" class="st1"/>
			<text x="0" y="315.37" class="st2" v:langID="1033"><v:paragraph/><v:tabList/>mission</text>		</g>
		<g id="shape96-253" v:mID="96" v:groupContext="shape" transform="translate(162.75,-47.25)">
			<title>Tabelle.96</title>
			<desc>components</desc>
			<v:textBlock v:margins="rect(0,0,0,0)"/>
			<v:textRect cx="37.5" cy="313.125" width="75.01" height="3.75"/>
			<rect x="0" y="311.25" width="75" height="3.75" class="st1"/>
			<text x="0" y="315.37" class="st2" v:langID="1033"><v:paragraph/><v:tabList/>components</text>		</g>
		<g id="shape97-256" v:mID="97" v:groupContext="shape" transform="translate(478.5,-57.75)">
			<title>Tabelle.97</title>
			<desc>security</desc>
			<v:textBlock v:margins="rect(0,0,0,0)"/>
			<v:textRect cx="30" cy="313.125" width="60" height="3.75"/>
			<rect x="0" y="311.25" width="60" height="3.75" class="st1"/>
			<text x="0" y="315.37" class="st2" v:langID="1033"><v:paragraph/><v:tabList/>security</text>		</g>
		<g id="shape98-259" v:mID="98" v:groupContext="shape" transform="translate(469.5,-47.25)">
			<title>Tabelle.98</title>
			<desc>components</desc>
			<v:textBlock v:margins="rect(0,0,0,0)"/>
			<v:textRect cx="37.5" cy="313.125" width="75.01" height="3.75"/>
			<rect x="0" y="311.25" width="75" height="3.75" class="st1"/>
			<text x="0" y="315.37" class="st2" v:langID="1033"><v:paragraph/><v:tabList/>components</text>		</g>
		<g id="shape99-262" v:mID="99" v:groupContext="shape" transform="translate(282.75,-57.75)">
			<title>Tabelle.99</title>
			<desc>management</desc>
			<v:textBlock v:margins="rect(0,0,0,0)"/>
			<v:textRect cx="37.5" cy="313.125" width="75.01" height="3.75"/>
			<rect x="0" y="311.25" width="75" height="3.75" class="st1"/>
			<text x="0" y="315.37" class="st2" v:langID="1033"><v:paragraph/><v:tabList/>management</text>		</g>
		<g id="shape100-265" v:mID="100" v:groupContext="shape" transform="translate(283.5,-47.25)">
			<title>Tabelle.100</title>
			<desc>components</desc>
			<v:textBlock v:margins="rect(0,0,0,0)"/>
			<v:textRect cx="37.5" cy="313.125" width="75" height="3.75"/>
			<rect x="0" y="311.25" width="75" height="3.75" class="st1"/>
			<text x="0" y="315.37" class="st2" v:langID="1033"><v:paragraph/><v:tabList/>components</text>		</g>
		<g id="shape101-268" v:mID="101" v:groupContext="shape" transform="translate(342.75,-57.75)">
			<title>Tabelle.101</title>
			<desc>interoperability</desc>
			<v:textBlock v:margins="rect(0,0,0,0)"/>
			<v:textRect cx="60" cy="313.125" width="120" height="3.75"/>
			<rect x="0" y="311.25" width="120" height="3.75" class="st1"/>
			<text x="0" y="315.37" class="st2" v:langID="1033"><v:paragraph/><v:tabList/>interoperability</text>		</g>
		<g id="shape102-271" v:mID="102" v:groupContext="shape" transform="translate(348.75,-47.25)">
			<title>Tabelle.102</title>
			<desc>components</desc>
			<v:textBlock v:margins="rect(0,0,0,0)"/>
			<v:textRect cx="37.5" cy="313.125" width="75" height="3.75"/>
			<rect x="0" y="311.25" width="75" height="3.75" class="st1"/>
			<text x="0" y="315.37" class="st2" v:langID="1033"><v:paragraph/><v:tabList/>components</text>		</g>
		<g id="shape103-274" v:mID="103" v:groupContext="shape" transform="translate(219.75,-37.5)">
			<title>Tabelle.103</title>
			<rect x="0" y="279.75" width="53.25" height="35.25" class="st12"/>
		</g>
		<g id="shape104-276" v:mID="104" v:groupContext="shape" transform="translate(230.25,-57.75)">
			<title>Tabelle.104</title>
			<desc>network</desc>
			<v:textBlock v:margins="rect(0,0,0,0)"/>
			<v:textRect cx="26.25" cy="313.125" width="52.5" height="3.75"/>
			<rect x="0" y="311.25" width="52.5" height="3.75" class="st1"/>
			<text x="0" y="315.37" class="st2" v:langID="1033"><v:paragraph/><v:tabList/>network</text>		</g>
		<g id="shape105-279" v:mID="105" v:groupContext="shape" transform="translate(223.5,-47.25)">
			<title>Tabelle.105</title>
			<desc>components</desc>
			<v:textBlock v:margins="rect(0,0,0,0)"/>
			<v:textRect cx="37.5" cy="313.125" width="75.01" height="3.75"/>
			<rect x="0" y="311.25" width="75" height="3.75" class="st1"/>
			<text x="0" y="315.37" class="st2" v:langID="1033"><v:paragraph/><v:tabList/>components</text>		</g>
		<g id="shape106-282" v:mID="106" v:groupContext="shape" transform="translate(363.75,-237.75)">
			<title>Tabelle.106</title>
			<desc>collaborative</desc>
			<v:textBlock v:margins="rect(0,0,0,0)"/>
			<v:textRect cx="48.75" cy="313.125" width="97.51" height="3.75"/>
			<rect x="0" y="311.25" width="97.5" height="3.75" class="st1"/>
			<text x="0" y="315.37" class="st2" v:langID="1033"><v:paragraph/><v:tabList/>collaborative</text>		</g>
		<g id="shape107-285" v:mID="107" v:groupContext="shape" transform="translate(370.5,-225)">
			<title>Tabelle.107</title>
			<desc>services</desc>
			<v:textBlock v:margins="rect(0,0,0,0)"/>
			<v:textRect cx="30" cy="313.125" width="60" height="3.75"/>
			<rect x="0" y="311.25" width="60" height="3.75" class="st1"/>
			<text x="0" y="315.37" class="st2" v:langID="1033"><v:paragraph/><v:tabList/>services</text>		</g>
		<g id="shape108-288" v:mID="108" v:groupContext="shape" transform="translate(371.25,-213)">
			<title>Tabelle.108</title>
			<desc>(server)</desc>
			<v:textBlock v:margins="rect(0,0,0,0)"/>
			<v:textRect cx="30" cy="313.125" width="60" height="3.75"/>
			<rect x="0" y="311.25" width="60" height="3.75" class="st1"/>
			<text x="0" y="315.37" class="st2" v:langID="1033"><v:paragraph/><v:tabList/>(server)</text>		</g>
		<g id="shape109-291" v:mID="109" v:groupContext="shape" transform="translate(323.25,-233.25)">
			<title>Tabelle.109</title>
			<desc>WEB</desc>
			<v:textBlock v:margins="rect(0,0,0,0)"/>
			<v:textRect cx="11.25" cy="313.125" width="22.5" height="3.75"/>
			<rect x="0" y="311.25" width="22.5" height="3.75" class="st1"/>
			<text x="0" y="315.37" class="st2" v:langID="1033"><v:paragraph/><v:tabList/>WEB</text>		</g>
		<g id="shape110-294" v:mID="110" v:groupContext="shape" transform="translate(315.75,-222)">
			<title>Tabelle.110</title>
			<desc>front-end</desc>
			<v:textBlock v:margins="rect(0,0,0,0)"/>
			<v:textRect cx="33.75" cy="313.125" width="67.5" height="3.75"/>
			<rect x="0" y="311.25" width="67.5" height="3.75" class="st1"/>
			<text x="0" y="315.37" class="st2" v:langID="1033"><v:paragraph/><v:tabList/>front-end</text>		</g>
		<g id="shape111-297" v:mID="111" v:groupContext="shape" transform="translate(422.25,-57.75)">
			<title>Tabelle.111</title>
			<desc>&#34;base&#34;</desc>
			<v:textBlock v:margins="rect(0,0,0,0)"/>
			<v:textRect cx="22.5" cy="313.125" width="45" height="3.75"/>
			<rect x="0" y="311.25" width="45" height="3.75" class="st1"/>
			<text x="0" y="315.37" class="st2" v:langID="1033"><v:paragraph/><v:tabList/>&#34;base&#34;</text>		</g>
		<g id="shape112-300" v:mID="112" v:groupContext="shape" transform="translate(411.75,-46.5)">
			<title>Tabelle.112</title>
			<desc>components</desc>
			<v:textBlock v:margins="rect(0,0,0,0)"/>
			<v:textRect cx="37.5" cy="313.125" width="75" height="3.75"/>
			<rect x="0" y="311.25" width="75" height="3.75" class="st1"/>
			<text x="0" y="315.37" class="st2" v:langID="1033"><v:paragraph/><v:tabList/>components</text>		</g>
	</g>
</svg>
