<?xml version="1.0" encoding="UTF-8" standalone="no"?>
<!DOCTYPE svg PUBLIC "-//W3C//DTD SVG 1.0//EN" "http://www.w3.org/TR/2001/REC-SVG-20010904/DTD/svg10.dtd">
<!-- Generiert durch Microsoft Visio 11.0, SVG Export, v1.0 v2-fc-wpas2.svg Functional Components for Web Portal/Application Server -->
<svg xmlns="http://www.w3.org/2000/svg" xmlns:v="http://schemas.microsoft.com/visio/2003/SVGExtensions/" width="7.29167in"
		height="4.375in" viewBox="0 0 525 315" xml:space="preserve" color-interpolation-filters="sRGB" class="st13">
	<v:documentProperties v:langID="1033" v:metric="true" v:viewMarkup="false"/>

	<style type="text/css">
	<![CDATA[
		.st1 {fill:none;stroke:none;stroke-linecap:butt;stroke-width:0.75}
		.st2 {fill:#000000;font-family:Verdana;font-size:0.625008em}
		.st3 {fill:#ffff99;stroke:#fafd00;stroke-linecap:butt;stroke-width:0.75}
		.st4 {fill:#000000;font-family:Verdana;font-size:0.874992em}
		.st5 {fill:none;stroke:#000000;stroke-linecap:butt;stroke-width:0.75}
		.st6 {fill:#fafd00;stroke:#000000;stroke-linecap:butt;stroke-width:0.75}
		.st7 {fill:none;stroke:#000000;stroke-dasharray:3,1.5;stroke-linecap:butt;stroke-width:0.75}
		.st8 {fill:#e6a4c6;stroke:#000000;stroke-linecap:butt;stroke-width:0.75}
		.st9 {fill:#e7ffff;stroke:#000000;stroke-linecap:butt;stroke-width:0.75}
		.st10 {fill:#b4dafe;stroke:#000000;stroke-linecap:butt;stroke-width:0.75}
		.st11 {fill:#ffc0c0;stroke:#000000;stroke-linecap:butt;stroke-width:0.75}
		.st12 {fill:#ffff00;stroke:#000000;stroke-linecap:butt;stroke-width:0.75}
		.st13 {fill:none;fill-rule:evenodd;font-size:12;overflow:visible;stroke-linecap:square;stroke-miterlimit:3}
	]]>
	</style>

	<g v:mID="0" v:index="1" v:groupContext="foregroundPage">
		<v:userDefs/>
		<title>Functional Components for Web Portal/Application Server</title>
		<v:pageProperties v:drawingScale="1" v:pageScale="1" v:drawingUnits="19" v:shadowOffsetX="9" v:shadowOffsetY="-9"/>
		<g id="shape1-1" v:mID="1" v:groupContext="shape" transform="translate(79.5,-243)">
			<title>Tabelle.1</title>
			<desc>* Servlets: SERVerappLETS</desc>
			<v:textBlock v:margins="rect(0,0,0,0)"/>
			<v:textRect cx="93.75" cy="313.125" width="187.51" height="3.75"/>
			<rect x="0" y="311.25" width="187.5" height="3.75" class="st1"/>
			<text x="0" y="315.37" class="st2" v:langID="1033"><v:paragraph/><v:tabList/>* Servlets: SERVerappLETS</text>		</g>
		<g id="shape2-4" v:mID="2" v:groupContext="shape" transform="translate(30,-242.25)">
			<title>Tabelle.2</title>
			<desc>Common</desc>
			<v:textBlock v:margins="rect(0,0,0,0)"/>
			<v:textRect cx="22.5" cy="313.125" width="45" height="3.75"/>
			<rect x="0" y="311.25" width="45" height="3.75" class="st1"/>
			<text x="0" y="315.37" class="st2" v:langID="1033"><v:paragraph/><v:tabList/>Common</text>		</g>
		<g id="shape3-7" v:mID="3" v:groupContext="shape" transform="translate(30,-231.75)">
			<title>Tabelle.3</title>
			<desc>support</desc>
			<v:textBlock v:margins="rect(0,0,0,0)"/>
			<v:textRect cx="26.25" cy="313.125" width="52.5" height="3.75"/>
			<rect x="0" y="311.25" width="52.5" height="3.75" class="st1"/>
			<text x="0" y="315.37" class="st2" v:langID="1033"><v:paragraph/><v:tabList/>support</text>		</g>
		<g id="shape4-10" v:mID="4" v:groupContext="shape" transform="translate(30,-220.5)">
			<title>Tabelle.4</title>
			<desc>application</desc>
			<v:textBlock v:margins="rect(0,0,0,0)"/>
			<v:textRect cx="41.25" cy="313.125" width="82.51" height="3.75"/>
			<rect x="0" y="311.25" width="82.5" height="3.75" class="st1"/>
			<text x="0" y="315.37" class="st2" v:langID="1033"><v:paragraph/><v:tabList/>application</text>		</g>
		<g id="shape5-13" v:mID="5" v:groupContext="shape" transform="translate(30,-210)">
			<title>Tabelle.5</title>
			<desc>services</desc>
			<v:textBlock v:margins="rect(0,0,0,0)"/>
			<v:textRect cx="30" cy="313.125" width="60" height="3.75"/>
			<rect x="0" y="311.25" width="60" height="3.75" class="st1"/>
			<text x="0" y="315.37" class="st2" v:langID="1033"><v:paragraph/><v:tabList/>services</text>		</g>
		<g id="shape6-16" v:mID="6" v:groupContext="shape" transform="translate(29.25,-195.75)">
			<title>Tabelle.6</title>
			<desc>Infra-</desc>
			<v:textBlock v:margins="rect(0,0,0,0)"/>
			<v:textRect cx="22.5" cy="313.125" width="45" height="3.75"/>
			<rect x="0" y="311.25" width="45" height="3.75" class="st1"/>
			<text x="0" y="315.37" class="st2" v:langID="1033"><v:paragraph/><v:tabList/>Infra-</text>		</g>
		<g id="shape7-19" v:mID="7" v:groupContext="shape" transform="translate(29.25,-185.25)">
			<title>Tabelle.7</title>
			<desc>structure</desc>
			<v:textBlock v:margins="rect(0,0,0,0)"/>
			<v:textRect cx="33.75" cy="313.125" width="67.5" height="3.75"/>
			<rect x="0" y="311.25" width="67.5" height="3.75" class="st1"/>
			<text x="0" y="315.37" class="st2" v:langID="1033"><v:paragraph/><v:tabList/>structure</text>		</g>
		<g id="shape8-22" v:mID="8" v:groupContext="shape" transform="translate(28.5,-174.75)">
			<title>Tabelle.8</title>
			<desc>services</desc>
			<v:textBlock v:margins="rect(0,0,0,0)"/>
			<v:textRect cx="30" cy="313.125" width="60" height="3.75"/>
			<rect x="0" y="311.25" width="60" height="3.75" class="st1"/>
			<text x="0" y="315.37" class="st2" v:langID="1033"><v:paragraph/><v:tabList/>services</text>		</g>
		<g id="shape9-25" v:mID="9" v:groupContext="shape" transform="translate(30.75,-150.75)">
			<title>Tabelle.9</title>
			<desc>Kernel</desc>
			<v:textBlock v:margins="rect(0,0,0,0)"/>
			<v:textRect cx="22.5" cy="313.125" width="45" height="3.75"/>
			<rect x="0" y="311.25" width="45" height="3.75" class="st1"/>
			<text x="0" y="315.37" class="st2" v:langID="1033"><v:paragraph/><v:tabList/>Kernel</text>		</g>
		<g id="shape10-28" v:mID="10" v:groupContext="shape" transform="translate(30,-140.25)">
			<title>Tabelle.10</title>
			<desc>services</desc>
			<v:textBlock v:margins="rect(0,0,0,0)"/>
			<v:textRect cx="30" cy="313.125" width="60" height="3.75"/>
			<rect x="0" y="311.25" width="60" height="3.75" class="st1"/>
			<text x="0" y="315.37" class="st2" v:langID="1033"><v:paragraph/><v:tabList/>services</text>		</g>
		<g id="shape11-31" v:mID="11" v:groupContext="shape" transform="translate(29.25,-109.5)">
			<title>Tabelle.11</title>
			<desc>Network</desc>
			<v:textBlock v:margins="rect(0,0,0,0)"/>
			<v:textRect cx="26.25" cy="313.125" width="52.5" height="3.75"/>
			<rect x="0" y="311.25" width="52.5" height="3.75" class="st1"/>
			<text x="0" y="315.37" class="st2" v:langID="1033"><v:paragraph/><v:tabList/>Network</text>		</g>
		<g id="shape12-34" v:mID="12" v:groupContext="shape" transform="translate(29.25,-98.25)">
			<title>Tabelle.12</title>
			<desc>services</desc>
			<v:textBlock v:margins="rect(0,0,0,0)"/>
			<v:textRect cx="30" cy="313.125" width="60" height="3.75"/>
			<rect x="0" y="311.25" width="60" height="3.75" class="st1"/>
			<text x="0" y="315.37" class="st2" v:langID="1033"><v:paragraph/><v:tabList/>services</text>		</g>
		<g id="shape13-37" v:mID="13" v:groupContext="shape" transform="translate(32.25,-283.5)">
			<title>Tabelle.13</title>
			<desc>Specific</desc>
			<v:textBlock v:margins="rect(0,0,0,0)"/>
			<v:textRect cx="30" cy="313.125" width="60" height="3.75"/>
			<rect x="0" y="311.25" width="60" height="3.75" class="st1"/>
			<text x="0" y="315.37" class="st2" v:langID="1033"><v:paragraph/><v:tabList/>Specific</text>		</g>
		<g id="shape14-40" v:mID="14" v:groupContext="shape" transform="translate(32.25,-273)">
			<title>Tabelle.14</title>
			<desc>mission</desc>
			<v:textBlock v:margins="rect(0,0,0,0)"/>
			<v:textRect cx="26.25" cy="313.125" width="52.5" height="3.75"/>
			<rect x="0" y="311.25" width="52.5" height="3.75" class="st1"/>
			<text x="0" y="315.37" class="st2" v:langID="1033"><v:paragraph/><v:tabList/>mission</text>		</g>
		<g id="shape15-43" v:mID="15" v:groupContext="shape" transform="translate(32.25,-262.5)">
			<title>Tabelle.15</title>
			<desc>applications</desc>
			<v:textBlock v:margins="rect(0,0,0,0)"/>
			<v:textRect cx="45" cy="313.125" width="90" height="3.75"/>
			<rect x="0" y="311.25" width="90" height="3.75" class="st1"/>
			<text x="0" y="315.37" class="st2" v:langID="1033"><v:paragraph/><v:tabList/>applications</text>		</g>
		<g id="shape16-46" v:mID="16" v:groupContext="shape" transform="translate(79.5,-90)">
			<title>Tabelle.16</title>
			<rect x="0" y="282.75" width="398.25" height="32.25" class="st3"/>
		</g>
		<g id="shape17-48" v:mID="17" v:groupContext="shape" transform="translate(87,-154.5)">
			<title>Tabelle.17</title>
			<desc>Configuration</desc>
			<v:textBlock v:margins="rect(0,0,0,0)"/>
			<v:textRect cx="48.75" cy="313.125" width="97.51" height="3.75"/>
			<rect x="0" y="311.25" width="97.5" height="3.75" class="st1"/>
			<text x="0" y="315.37" class="st2" v:langID="1033"><v:paragraph/><v:tabList/>Configuration</text>		</g>
		<g id="shape18-51" v:mID="18" v:groupContext="shape" transform="translate(84,-144)">
			<title>Tabelle.18</title>
			<desc>control/remote</desc>
			<v:textBlock v:margins="rect(0,0,0,0)"/>
			<v:textRect cx="52.5" cy="313.125" width="105.01" height="3.75"/>
			<rect x="0" y="311.25" width="105" height="3.75" class="st1"/>
			<text x="0" y="315.37" class="st2" v:langID="1033"><v:paragraph/><v:tabList/>control/remote</text>		</g>
		<g id="shape19-54" v:mID="19" v:groupContext="shape" transform="translate(93,-132.75)">
			<title>Tabelle.19</title>
			<desc>installation</desc>
			<v:textBlock v:margins="rect(0,0,0,0)"/>
			<v:textRect cx="45" cy="313.125" width="90" height="3.75"/>
			<rect x="0" y="311.25" width="90" height="3.75" class="st1"/>
			<text x="0" y="315.37" class="st2" v:langID="1033"><v:paragraph/><v:tabList/>installation</text>		</g>
		<g id="shape20-57" v:mID="20" v:groupContext="shape" transform="translate(27,-58.5)">
			<title>Tabelle.20</title>
			<desc>Legend:</desc>
			<v:textBlock v:margins="rect(0,0,0,0)"/>
			<v:textRect cx="36.75" cy="312.375" width="73.5" height="5.25"/>
			<rect x="0" y="309.75" width="73.5" height="5.25" class="st1"/>
			<text x="0" y="315.52" class="st4" v:langID="1033"><v:paragraph/><v:tabList/>Legend:</text>		</g>
		<g id="shape21-60" v:mID="21" v:groupContext="shape" transform="translate(119.25,-56.25)">
			<title>Tabelle.21</title>
			<desc>optional</desc>
			<v:textBlock v:margins="rect(0,0,0,0)"/>
			<v:textRect cx="30" cy="313.125" width="60" height="3.75"/>
			<rect x="0" y="311.25" width="60" height="3.75" class="st1"/>
			<text x="0" y="315.37" class="st2" v:langID="1033"><v:paragraph/><v:tabList/>optional</text>		</g>
		<g id="shape22-63" v:mID="22" v:groupContext="shape" transform="translate(66.75,-40.5)">
			<title>Tabelle.22</title>
			<rect x="0" y="280.5" width="43.5" height="34.5" class="st5"/>
		</g>
		<g id="shape23-65" v:mID="23" v:groupContext="shape" transform="translate(72,-57)">
			<title>Tabelle.23</title>
			<desc>required</desc>
			<v:textBlock v:margins="rect(0,0,0,0)"/>
			<v:textRect cx="30" cy="313.125" width="60" height="3.75"/>
			<rect x="0" y="311.25" width="60" height="3.75" class="st1"/>
			<text x="0" y="315.37" class="st2" v:langID="1033"><v:paragraph/><v:tabList/>required</text>		</g>
		<g id="shape24-68" v:mID="24" v:groupContext="shape" transform="translate(218.25,-40.5)">
			<title>Tabelle.24</title>
			<rect x="0" y="279.75" width="51.75" height="35.25" class="st6"/>
		</g>
		<g id="shape25-70" v:mID="25" v:groupContext="shape" transform="translate(76.5,-86.25)">
			<title>Tabelle.25</title>
			<path d="M0 315 L405 315 L405 106.5 L0 106.5 L0 315 Z" class="st7"/>
		</g>
		<g id="shape26-72" v:mID="26" v:groupContext="shape" transform="translate(80.25,-256.5)">
			<title>Tabelle.26</title>
			<rect x="0" y="281.25" width="69.75" height="33.75" class="st8"/>
		</g>
		<g id="shape27-74" v:mID="27" v:groupContext="shape" transform="translate(153.75,-256.5)">
			<title>Tabelle.27</title>
			<rect x="0" y="281.25" width="71.25" height="33.75" class="st8"/>
		</g>
		<g id="shape28-76" v:mID="28" v:groupContext="shape" transform="translate(250.5,-212.25)">
			<title>Tabelle.28</title>
			<rect x="0" y="278.25" width="28.5" height="36.75" class="st9"/>
		</g>
		<g id="shape29-78" v:mID="29" v:groupContext="shape" transform="translate(327.75,-212.25)">
			<title>Tabelle.29</title>
			<rect x="0" y="278.25" width="47.25" height="36.75" class="st9"/>
		</g>
		<g id="shape30-80" v:mID="30" v:groupContext="shape" transform="translate(288,-130.5)">
			<title>Tabelle.30</title>
			<rect x="0" y="280.5" width="87" height="34.5" class="st9"/>
		</g>
		<g id="shape31-82" v:mID="31" v:groupContext="shape" transform="translate(149.25,-170.25)">
			<title>Tabelle.31</title>
			<rect x="0" y="277.5" width="44.25" height="37.5" class="st10"/>
		</g>
		<g id="shape32-84" v:mID="32" v:groupContext="shape" transform="translate(414.75,-170.25)">
			<title>Tabelle.32</title>
			<rect x="0" y="277.5" width="28.5" height="37.5" class="st11"/>
		</g>
		<g id="shape33-86" v:mID="33" v:groupContext="shape" transform="translate(243,-93.75)">
			<title>Tabelle.33</title>
			<rect x="0" y="288" width="43.5" height="27" class="st12"/>
		</g>
		<g id="shape34-88" v:mID="34" v:groupContext="shape" transform="translate(113.25,-40.5)">
			<title>Tabelle.34</title>
			<path d="M0 315 L40.5 315 L40.5 279.75 L0 279.75 L0 315 Z" class="st7"/>
		</g>
		<g id="shape35-90" v:mID="35" v:groupContext="shape" transform="translate(258,-234)">
			<title>Tabelle.35</title>
			<desc>GIS</desc>
			<v:textBlock v:margins="rect(0,0,0,0)"/>
			<v:textRect cx="11.25" cy="313.125" width="22.5" height="3.75"/>
			<rect x="0" y="311.25" width="22.5" height="3.75" class="st1"/>
			<text x="0" y="315.37" class="st2" v:langID="1033"><v:paragraph/><v:tabList/>GIS</text>		</g>
		<g id="shape36-93" v:mID="36" v:groupContext="shape" transform="translate(256.5,-223.5)">
			<title>Tabelle.36</title>
			<desc>SRV</desc>
			<v:textBlock v:margins="rect(0,0,0,0)"/>
			<v:textRect cx="11.25" cy="313.125" width="22.5" height="3.75"/>
			<rect x="0" y="311.25" width="22.5" height="3.75" class="st1"/>
			<text x="0" y="315.37" class="st2" v:langID="1033"><v:paragraph/><v:tabList/>SRV</text>		</g>
		<g id="shape37-96" v:mID="37" v:groupContext="shape" transform="translate(88.5,-275.25)">
			<title>Tabelle.37</title>
			<desc>application</desc>
			<v:textBlock v:margins="rect(0,0,0,0)"/>
			<v:textRect cx="41.25" cy="313.125" width="82.51" height="3.75"/>
			<rect x="0" y="311.25" width="82.5" height="3.75" class="st1"/>
			<text x="0" y="315.37" class="st2" v:langID="1033"><v:paragraph/><v:tabList/>application</text>		</g>
		<g id="shape38-99" v:mID="38" v:groupContext="shape" transform="translate(83.25,-261.75)">
			<title>Tabelle.38</title>
			<desc>SERVLETS*</desc>
			<v:textBlock v:margins="rect(0,0,0,0)"/>
			<v:textRect cx="33.75" cy="313.125" width="67.5" height="3.75"/>
			<rect x="0" y="311.25" width="67.5" height="3.75" class="st1"/>
			<text x="0" y="315.37" class="st2" v:langID="1033"><v:paragraph/><v:tabList/>SERVLETS*</text>		</g>
		<g id="shape39-102" v:mID="39" v:groupContext="shape" transform="translate(158.25,-276.75)">
			<title>Tabelle.39</title>
			<desc>mobile code</desc>
			<v:textBlock v:margins="rect(0,0,0,0)"/>
			<v:textRect cx="41.25" cy="313.125" width="82.51" height="3.75"/>
			<rect x="0" y="311.25" width="82.5" height="3.75" class="st1"/>
			<text x="0" y="315.37" class="st2" v:langID="1033"><v:paragraph/><v:tabList/>mobile code</text>		</g>
		<g id="shape40-105" v:mID="40" v:groupContext="shape" transform="translate(173.25,-261)">
			<title>Tabelle.40</title>
			<desc>server</desc>
			<v:textBlock v:margins="rect(0,0,0,0)"/>
			<v:textRect cx="22.5" cy="313.125" width="45" height="3.75"/>
			<rect x="0" y="311.25" width="45" height="3.75" class="st1"/>
			<text x="0" y="315.37" class="st2" v:langID="1033"><v:paragraph/><v:tabList/>server</text>		</g>
		<g id="shape41-108" v:mID="41" v:groupContext="shape" transform="translate(306,-149.25)">
			<title>Tabelle.41</title>
			<desc>Windowing</desc>
			<v:textBlock v:margins="rect(0,0,0,0)"/>
			<v:textRect cx="47.25" cy="312.375" width="94.5" height="5.25"/>
			<rect x="0" y="309.75" width="94.5" height="5.25" class="st1"/>
			<text x="0" y="314.62" class="st2" v:langID="1033"><v:paragraph/><v:tabList/>Windowing</text>		</g>
		<g id="shape42-111" v:mID="42" v:groupContext="shape" transform="translate(312,-137.25)">
			<title>Tabelle.42</title>
			<desc>software</desc>
			<v:textBlock v:margins="rect(0,0,0,0)"/>
			<v:textRect cx="42" cy="312.375" width="84.01" height="5.25"/>
			<rect x="0" y="309.75" width="84" height="5.25" class="st1"/>
			<text x="0" y="314.62" class="st2" v:langID="1033"><v:paragraph/><v:tabList/>software</text>		</g>
		<g id="shape43-114" v:mID="43" v:groupContext="shape" transform="translate(420.75,-192)">
			<title>Tabelle.43</title>
			<desc>PKI</desc>
			<v:textBlock v:margins="rect(0,0,0,0)"/>
			<v:textRect cx="11.25" cy="313.125" width="22.5" height="3.75"/>
			<rect x="0" y="311.25" width="22.5" height="3.75" class="st1"/>
			<text x="0" y="315.37" class="st2" v:langID="1033"><v:paragraph/><v:tabList/>PKI</text>		</g>
		<g id="shape44-117" v:mID="44" v:groupContext="shape" transform="translate(419.25,-181.5)">
			<title>Tabelle.44</title>
			<desc>client</desc>
			<v:textBlock v:margins="rect(0,0,0,0)"/>
			<v:textRect cx="22.5" cy="313.125" width="45" height="3.75"/>
			<rect x="0" y="311.25" width="45" height="3.75" class="st1"/>
			<text x="0" y="315.37" class="st2" v:langID="1033"><v:paragraph/><v:tabList/>client</text>		</g>
		<g id="shape45-120" v:mID="45" v:groupContext="shape" transform="translate(336.75,-237.75)">
			<title>Tabelle.45</title>
			<desc>Message</desc>
			<v:textBlock v:margins="rect(0,0,0,0)"/>
			<v:textRect cx="26.25" cy="313.125" width="52.51" height="3.75"/>
			<rect x="0" y="311.25" width="52.5" height="3.75" class="st1"/>
			<text x="0" y="315.37" class="st2" v:langID="1033"><v:paragraph/><v:tabList/>Message</text>		</g>
		<g id="shape46-123" v:mID="46" v:groupContext="shape" transform="translate(334.5,-227.25)">
			<title>Tabelle.46</title>
			<desc>Handling</desc>
			<v:textBlock v:margins="rect(0,0,0,0)"/>
			<v:textRect cx="30" cy="313.125" width="60" height="3.75"/>
			<rect x="0" y="311.25" width="60" height="3.75" class="st1"/>
			<text x="0" y="315.37" class="st2" v:langID="1033"><v:paragraph/><v:tabList/>Handling</text>		</g>
		<g id="shape47-126" v:mID="47" v:groupContext="shape" transform="translate(336,-216.75)">
			<title>Tabelle.47</title>
			<desc>interface</desc>
			<v:textBlock v:margins="rect(0,0,0,0)"/>
			<v:textRect cx="33.75" cy="313.125" width="67.5" height="3.75"/>
			<rect x="0" y="311.25" width="67.5" height="3.75" class="st1"/>
			<text x="0" y="315.37" class="st2" v:langID="1033"><v:paragraph/><v:tabList/>interface</text>		</g>
		<g id="shape48-129" v:mID="48" v:groupContext="shape" transform="translate(253.5,-111)">
			<title>Tabelle.48</title>
			<desc>IPload</desc>
			<v:textBlock v:margins="rect(0,0,0,0)"/>
			<v:textRect cx="22.5" cy="313.125" width="45" height="3.75"/>
			<rect x="0" y="311.25" width="45" height="3.75" class="st1"/>
			<text x="0" y="315.37" class="st2" v:langID="1033"><v:paragraph/><v:tabList/>IPload</text>		</g>
		<g id="shape49-132" v:mID="49" v:groupContext="shape" transform="translate(248.25,-100.5)">
			<title>Tabelle.49</title>
			<desc>balancing</desc>
			<v:textBlock v:margins="rect(0,0,0,0)"/>
			<v:textRect cx="33.75" cy="313.125" width="67.5" height="3.75"/>
			<rect x="0" y="311.25" width="67.5" height="3.75" class="st1"/>
			<text x="0" y="315.37" class="st2" v:langID="1033"><v:paragraph/><v:tabList/>balancing</text>		</g>
		<g id="shape50-135" v:mID="50" v:groupContext="shape" transform="translate(158.25,-196.5)">
			<title>Tabelle.50</title>
			<desc>Object</desc>
			<v:textBlock v:margins="rect(0,0,0,0)"/>
			<v:textRect cx="22.5" cy="313.125" width="45" height="3.75"/>
			<rect x="0" y="311.25" width="45" height="3.75" class="st1"/>
			<text x="0" y="315.37" class="st2" v:langID="1033"><v:paragraph/><v:tabList/>Object</text>		</g>
		<g id="shape51-138" v:mID="51" v:groupContext="shape" transform="translate(154.5,-186)">
			<title>Tabelle.51</title>
			<desc>library &#38;</desc>
			<v:textBlock v:margins="rect(0,0,0,0)"/>
			<v:textRect cx="33.75" cy="313.125" width="67.5" height="3.75"/>
			<rect x="0" y="311.25" width="67.5" height="3.75" class="st1"/>
			<text x="0" y="315.37" class="st2" v:langID="1033"><v:paragraph/><v:tabList/>library &#38;</text>		</g>
		<g id="shape52-141" v:mID="52" v:groupContext="shape" transform="translate(150,-175.5)">
			<title>Tabelle.52</title>
			<desc>middleware</desc>
			<v:textBlock v:margins="rect(0,0,0,0)"/>
			<v:textRect cx="37.5" cy="313.125" width="75.01" height="3.75"/>
			<rect x="0" y="311.25" width="75" height="3.75" class="st1"/>
			<text x="0" y="315.37" class="st2" v:langID="1033"><v:paragraph/><v:tabList/>middleware</text>		</g>
		<g id="shape53-144" v:mID="53" v:groupContext="shape" transform="translate(228.75,-256.5)">
			<title>Tabelle.53</title>
			<rect x="0" y="281.25" width="54" height="33.75" class="st8"/>
		</g>
		<g id="shape54-146" v:mID="54" v:groupContext="shape" transform="translate(287.25,-256.5)">
			<title>Tabelle.54</title>
			<rect x="0" y="281.25" width="39" height="33.75" class="st8"/>
		</g>
		<g id="shape55-148" v:mID="55" v:groupContext="shape" transform="translate(330.75,-256.5)">
			<title>Tabelle.55</title>
			<rect x="0" y="281.25" width="40.5" height="33.75" class="st8"/>
		</g>
		<g id="shape56-150" v:mID="56" v:groupContext="shape" transform="translate(210.75,-212.25)">
			<title>Tabelle.56</title>
			<rect x="0" y="278.25" width="36" height="36.75" class="st10"/>
		</g>
		<g id="shape57-152" v:mID="57" v:groupContext="shape" transform="translate(195.75,-170.25)">
			<title>Tabelle.57</title>
			<rect x="0" y="277.5" width="51" height="37.5" class="st10"/>
		</g>
		<g id="shape58-154" v:mID="58" v:groupContext="shape" transform="translate(249,-170.25)">
			<title>Tabelle.58</title>
			<rect x="0" y="277.5" width="36.75" height="37.5" class="st10"/>
		</g>
		<g id="shape59-156" v:mID="59" v:groupContext="shape" transform="translate(288,-170.25)">
			<title>Tabelle.59</title>
			<rect x="0" y="277.5" width="44.25" height="37.5" class="st10"/>
		</g>
		<g id="shape60-158" v:mID="60" v:groupContext="shape" transform="translate(335.25,-170.25)">
			<title>Tabelle.60</title>
			<rect x="0" y="277.5" width="39" height="37.5" class="st10"/>
		</g>
		<g id="shape61-160" v:mID="61" v:groupContext="shape" transform="translate(332.25,-40.5)">
			<title>Tabelle.61</title>
			<rect x="0" y="279.75" width="66" height="35.25" class="st10"/>
		</g>
		<g id="shape62-162" v:mID="62" v:groupContext="shape" transform="translate(376.5,-170.25)">
			<title>Tabelle.62</title>
			<rect x="0" y="277.5" width="35.25" height="37.5" class="st11"/>
		</g>
		<g id="shape63-164" v:mID="63" v:groupContext="shape" transform="translate(445.5,-170.25)">
			<title>Tabelle.63</title>
			<rect x="0" y="277.5" width="33" height="37.5" class="st11"/>
		</g>
		<g id="shape64-166" v:mID="64" v:groupContext="shape" transform="translate(419.25,-212.25)">
			<title>Tabelle.64</title>
			<rect x="0" y="278.25" width="58.5" height="36.75" class="st11"/>
		</g>
		<g id="shape65-168" v:mID="65" v:groupContext="shape" transform="translate(430.5,-130.5)">
			<title>Tabelle.65</title>
			<rect x="0" y="280.5" width="47.25" height="34.5" class="st11"/>
		</g>
		<g id="shape66-170" v:mID="66" v:groupContext="shape" transform="translate(459,-40.5)">
			<title>Tabelle.66</title>
			<rect x="0" y="279.75" width="51" height="35.25" class="st11"/>
		</g>
		<g id="shape67-172" v:mID="67" v:groupContext="shape" transform="translate(110.25,-170.25)">
			<title>Tabelle.67</title>
			<rect x="0" y="277.5" width="36" height="37.5" class="st5"/>
		</g>
		<g id="shape68-174" v:mID="68" v:groupContext="shape" transform="translate(78.75,-170.25)">
			<title>Tabelle.68</title>
			<rect x="0" y="277.5" width="29.25" height="37.5" class="st5"/>
		</g>
		<g id="shape69-176" v:mID="69" v:groupContext="shape" transform="translate(78,-130.5)">
			<title>Tabelle.69</title>
			<rect x="0" y="280.5" width="68.25" height="34.5" class="st5"/>
		</g>
		<g id="shape70-178" v:mID="70" v:groupContext="shape" transform="translate(272.25,-40.5)">
			<title>Tabelle.70</title>
			<rect x="0" y="279.75" width="56.25" height="35.25" class="st5"/>
		</g>
		<g id="shape71-180" v:mID="71" v:groupContext="shape" transform="translate(402,-40.5)">
			<title>Tabelle.71</title>
			<rect x="0" y="279.75" width="53.25" height="35.25" class="st9"/>
		</g>
		<g id="shape72-182" v:mID="72" v:groupContext="shape" transform="translate(149.25,-130.5)">
			<title>Tabelle.72</title>
			<rect x="0" y="280.5" width="135" height="34.5" class="st9"/>
		</g>
		<g id="shape73-184" v:mID="73" v:groupContext="shape" transform="translate(156.75,-40.5)">
			<title>Tabelle.73</title>
			<rect x="0" y="279.75" width="57" height="35.25" class="st8"/>
		</g>
		<g id="shape74-186" v:mID="74" v:groupContext="shape" transform="translate(231.75,-268.5)">
			<title>Tabelle.74</title>
			<desc>Dynamic</desc>
			<v:textBlock v:margins="rect(0,0,0,0)"/>
			<v:textRect cx="26.25" cy="313.125" width="52.5" height="3.75"/>
			<rect x="0" y="311.25" width="52.5" height="3.75" class="st1"/>
			<text x="0" y="315.37" class="st2" v:langID="1033"><v:paragraph/><v:tabList/>Dynamic</text>		</g>
		<g id="shape75-189" v:mID="75" v:groupContext="shape" transform="translate(291.75,-268.5)">
			<title>Tabelle.75</title>
			<desc>WEB</desc>
			<v:textBlock v:margins="rect(0,0,0,0)"/>
			<v:textRect cx="11.25" cy="313.125" width="22.5" height="3.75"/>
			<rect x="0" y="311.25" width="22.5" height="3.75" class="st1"/>
			<text x="0" y="315.37" class="st2" v:langID="1033"><v:paragraph/><v:tabList/>WEB</text>		</g>
		<g id="shape76-192" v:mID="76" v:groupContext="shape" transform="translate(336.75,-268.5)">
			<title>Tabelle.76</title>
			<desc>pages</desc>
			<v:textBlock v:margins="rect(0,0,0,0)"/>
			<v:textRect cx="18.75" cy="313.125" width="37.5" height="3.75"/>
			<rect x="0" y="311.25" width="37.5" height="3.75" class="st1"/>
			<text x="0" y="315.37" class="st2" v:langID="1033"><v:paragraph/><v:tabList/>pages</text>		</g>
		<g id="shape77-195" v:mID="77" v:groupContext="shape" transform="translate(221.25,-238.5)">
			<title>Tabelle.77</title>
			<desc>Data</desc>
			<v:textBlock v:margins="rect(0,0,0,0)"/>
			<v:textRect cx="15" cy="313.125" width="30" height="3.75"/>
			<rect x="0" y="311.25" width="30" height="3.75" class="st1"/>
			<text x="0" y="315.37" class="st2" v:langID="1033"><v:paragraph/><v:tabList/>Data</text>		</g>
		<g id="shape78-198" v:mID="78" v:groupContext="shape" transform="translate(219,-228)">
			<title>Tabelle.78</title>
			<desc>access</desc>
			<v:textBlock v:margins="rect(0,0,0,0)"/>
			<v:textRect cx="22.5" cy="313.125" width="45" height="3.75"/>
			<rect x="0" y="311.25" width="45" height="3.75" class="st1"/>
			<text x="0" y="315.37" class="st2" v:langID="1033"><v:paragraph/><v:tabList/>access</text>		</g>
		<g id="shape79-201" v:mID="79" v:groupContext="shape" transform="translate(215.25,-217.5)">
			<title>Tabelle.79</title>
			<desc>services</desc>
			<v:textBlock v:margins="rect(0,0,0,0)"/>
			<v:textRect cx="30" cy="313.125" width="60" height="3.75"/>
			<rect x="0" y="311.25" width="60" height="3.75" class="st1"/>
			<text x="0" y="315.37" class="st2" v:langID="1033"><v:paragraph/><v:tabList/>services</text>		</g>
		<g id="shape80-204" v:mID="80" v:groupContext="shape" transform="translate(155.25,-149.25)">
			<title>Tabelle.80</title>
			<desc>Base operating system</desc>
			<v:textBlock v:margins="rect(0,0,0,0)"/>
			<v:textRect cx="110.25" cy="312.375" width="220.5" height="5.25"/>
			<rect x="0" y="309.75" width="220.5" height="5.25" class="st1"/>
			<text x="0" y="314.62" class="st2" v:langID="1033"><v:paragraph/><v:tabList/>Base operating system</text>		</g>
		<g id="shape81-207" v:mID="81" v:groupContext="shape" transform="translate(159,-137.25)">
			<title>Tabelle.81</title>
			<desc>(&#38; server clustering)</desc>
			<v:textBlock v:margins="rect(0,0,0,0)"/>
			<v:textRect cx="110.25" cy="312.375" width="220.5" height="5.25"/>
			<rect x="0" y="309.75" width="220.5" height="5.25" class="st1"/>
			<text x="0" y="314.62" class="st2" v:langID="1033"><v:paragraph/><v:tabList/>(&#38; server clustering)</text>		</g>
		<g id="shape82-210" v:mID="82" v:groupContext="shape" transform="translate(451.5,-191.25)">
			<title>Tabelle.82</title>
			<desc>Virus</desc>
			<v:textBlock v:margins="rect(0,0,0,0)"/>
			<v:textRect cx="18.75" cy="313.125" width="37.5" height="3.75"/>
			<rect x="0" y="311.25" width="37.5" height="3.75" class="st1"/>
			<text x="0" y="315.37" class="st2" v:langID="1033"><v:paragraph/><v:tabList/>Virus</text>		</g>
		<g id="shape83-213" v:mID="83" v:groupContext="shape" transform="translate(447,-180.75)">
			<title>Tabelle.83</title>
			<desc>checker</desc>
			<v:textBlock v:margins="rect(0,0,0,0)"/>
			<v:textRect cx="26.25" cy="313.125" width="52.51" height="3.75"/>
			<rect x="0" y="311.25" width="52.5" height="3.75" class="st1"/>
			<text x="0" y="315.37" class="st2" v:langID="1033"><v:paragraph/><v:tabList/>checker</text>		</g>
		<g id="shape84-216" v:mID="84" v:groupContext="shape" transform="translate(384.75,-192)">
			<title>Tabelle.84</title>
			<desc>SEC.</desc>
			<v:textBlock v:margins="rect(0,0,0,0)"/>
			<v:textRect cx="15" cy="313.125" width="30.01" height="3.75"/>
			<rect x="0" y="311.25" width="30" height="3.75" class="st1"/>
			<text x="0" y="315.37" class="st2" v:langID="1033"><v:paragraph/><v:tabList/>SEC.</text>		</g>
		<g id="shape85-219" v:mID="85" v:groupContext="shape" transform="translate(378,-181.5)">
			<title>Tabelle.85</title>
			<desc>protocols</desc>
			<v:textBlock v:margins="rect(0,0,0,0)"/>
			<v:textRect cx="33.75" cy="313.125" width="67.5" height="3.75"/>
			<rect x="0" y="311.25" width="67.5" height="3.75" class="st1"/>
			<text x="0" y="315.37" class="st2" v:langID="1033"><v:paragraph/><v:tabList/>protocols</text>		</g>
		<g id="shape86-222" v:mID="86" v:groupContext="shape" transform="translate(204.75,-197.25)">
			<title>Tabelle.86</title>
			<desc>database</desc>
			<v:textBlock v:margins="rect(0,0,0,0)"/>
			<v:textRect cx="30" cy="313.125" width="60" height="3.75"/>
			<rect x="0" y="311.25" width="60" height="3.75" class="st1"/>
			<text x="0" y="315.37" class="st2" v:langID="1033"><v:paragraph/><v:tabList/>database</text>		</g>
		<g id="shape87-225" v:mID="87" v:groupContext="shape" transform="translate(197.25,-186.75)">
			<title>Tabelle.87</title>
			<desc>middleware</desc>
			<v:textBlock v:margins="rect(0,0,0,0)"/>
			<v:textRect cx="37.5" cy="313.125" width="75.01" height="3.75"/>
			<rect x="0" y="311.25" width="75" height="3.75" class="st1"/>
			<text x="0" y="315.37" class="st2" v:langID="1033"><v:paragraph/><v:tabList/>middleware</text>		</g>
		<g id="shape88-228" v:mID="88" v:groupContext="shape" transform="translate(195.75,-175.5)">
			<title>Tabelle.88</title>
			<desc>&#38; file sharing</desc>
			<v:textBlock v:margins="rect(0,0,0,0)"/>
			<v:textRect cx="52.5" cy="313.125" width="105" height="3.75"/>
			<rect x="0" y="311.25" width="105" height="3.75" class="st1"/>
			<text x="0" y="315.37" class="st2" v:langID="1033"><v:paragraph/><v:tabList/>&#38; file sharing</text>		</g>
		<g id="shape89-231" v:mID="89" v:groupContext="shape" transform="translate(249.75,-191.25)">
			<title>Tabelle.89</title>
			<desc>COMMS</desc>
			<v:textBlock v:margins="rect(0,0,0,0)"/>
			<v:textRect cx="18.75" cy="313.125" width="37.5" height="3.75"/>
			<rect x="0" y="311.25" width="37.5" height="3.75" class="st1"/>
			<text x="0" y="315.37" class="st2" v:langID="1033"><v:paragraph/><v:tabList/>COMMS</text>		</g>
		<g id="shape90-234" v:mID="90" v:groupContext="shape" transform="translate(252,-180.75)">
			<title>Tabelle.90</title>
			<desc>services</desc>
			<v:textBlock v:margins="rect(0,0,0,0)"/>
			<v:textRect cx="30" cy="313.125" width="60" height="3.75"/>
			<rect x="0" y="311.25" width="60" height="3.75" class="st1"/>
			<text x="0" y="315.37" class="st2" v:langID="1033"><v:paragraph/><v:tabList/>services</text>		</g>
		<g id="shape91-237" v:mID="91" v:groupContext="shape" transform="translate(113.25,-197.25)">
			<title>Tabelle.91</title>
			<desc>Network</desc>
			<v:textBlock v:margins="rect(0,0,0,0)"/>
			<v:textRect cx="26.25" cy="313.125" width="52.5" height="3.75"/>
			<rect x="0" y="311.25" width="52.5" height="3.75" class="st1"/>
			<text x="0" y="315.37" class="st2" v:langID="1033"><v:paragraph/><v:tabList/>Network</text>		</g>
		<g id="shape92-240" v:mID="92" v:groupContext="shape" transform="translate(112.5,-186.75)">
			<title>Tabelle.92</title>
			<desc>directory</desc>
			<v:textBlock v:margins="rect(0,0,0,0)"/>
			<v:textRect cx="33.75" cy="313.125" width="67.5" height="3.75"/>
			<rect x="0" y="311.25" width="67.5" height="3.75" class="st1"/>
			<text x="0" y="315.37" class="st2" v:langID="1033"><v:paragraph/><v:tabList/>directory</text>		</g>
		<g id="shape93-243" v:mID="93" v:groupContext="shape" transform="translate(113.25,-176.25)">
			<title>Tabelle.93</title>
			<desc>interface</desc>
			<v:textBlock v:margins="rect(0,0,0,0)"/>
			<v:textRect cx="33.75" cy="313.125" width="67.5" height="3.75"/>
			<rect x="0" y="311.25" width="67.5" height="3.75" class="st1"/>
			<text x="0" y="315.37" class="st2" v:langID="1033"><v:paragraph/><v:tabList/>interface</text>		</g>
		<g id="shape94-246" v:mID="94" v:groupContext="shape" transform="translate(80.25,-192)">
			<title>Tabelle.94</title>
			<desc>Managt</desc>
			<v:textBlock v:margins="rect(0,0,0,0)"/>
			<v:textRect cx="22.5" cy="313.125" width="45" height="3.75"/>
			<rect x="0" y="311.25" width="45" height="3.75" class="st1"/>
			<text x="0" y="315.37" class="st2" v:langID="1033"><v:paragraph/><v:tabList/>Managt</text>		</g>
		<g id="shape95-249" v:mID="95" v:groupContext="shape" transform="translate(84,-181.5)">
			<title>Tabelle.95</title>
			<desc>Agent</desc>
			<v:textBlock v:margins="rect(0,0,0,0)"/>
			<v:textRect cx="18.75" cy="313.125" width="37.5" height="3.75"/>
			<rect x="0" y="311.25" width="37.5" height="3.75" class="st1"/>
			<text x="0" y="315.37" class="st2" v:langID="1033"><v:paragraph/><v:tabList/>Agent</text>		</g>
		<g id="shape96-252" v:mID="96" v:groupContext="shape" transform="translate(300.75,-191.25)">
			<title>Tabelle.96</title>
			<desc>WEB</desc>
			<v:textBlock v:margins="rect(0,0,0,0)"/>
			<v:textRect cx="11.25" cy="313.125" width="22.5" height="3.75"/>
			<rect x="0" y="311.25" width="22.5" height="3.75" class="st1"/>
			<text x="0" y="315.37" class="st2" v:langID="1033"><v:paragraph/><v:tabList/>WEB</text>		</g>
		<g id="shape97-255" v:mID="97" v:groupContext="shape" transform="translate(288.75,-180.75)">
			<title>Tabelle.97</title>
			<desc>middleware</desc>
			<v:textBlock v:margins="rect(0,0,0,0)"/>
			<v:textRect cx="37.5" cy="313.125" width="75" height="3.75"/>
			<rect x="0" y="311.25" width="75" height="3.75" class="st1"/>
			<text x="0" y="315.37" class="st2" v:langID="1033"><v:paragraph/><v:tabList/>middleware</text>		</g>
		<g id="shape98-258" v:mID="98" v:groupContext="shape" transform="translate(344.25,-191.25)">
			<title>Tabelle.98</title>
			<desc>Index</desc>
			<v:textBlock v:margins="rect(0,0,0,0)"/>
			<v:textRect cx="18.75" cy="313.125" width="37.5" height="3.75"/>
			<rect x="0" y="311.25" width="37.5" height="3.75" class="st1"/>
			<text x="0" y="315.37" class="st2" v:langID="1033"><v:paragraph/><v:tabList/>Index</text>		</g>
		<g id="shape99-261" v:mID="99" v:groupContext="shape" transform="translate(343.5,-180.75)">
			<title>Tabelle.99</title>
			<desc>server</desc>
			<v:textBlock v:margins="rect(0,0,0,0)"/>
			<v:textRect cx="22.5" cy="313.125" width="45" height="3.75"/>
			<rect x="0" y="311.25" width="45" height="3.75" class="st1"/>
			<text x="0" y="315.37" class="st2" v:langID="1033"><v:paragraph/><v:tabList/>server</text>		</g>
		<g id="shape100-264" v:mID="100" v:groupContext="shape" transform="translate(429,-233.25)">
			<title>Tabelle.100</title>
			<desc>Distributed</desc>
			<v:textBlock v:margins="rect(0,0,0,0)"/>
			<v:textRect cx="41.25" cy="313.125" width="82.5" height="3.75"/>
			<rect x="0" y="311.25" width="82.5" height="3.75" class="st1"/>
			<text x="0" y="315.37" class="st2" v:langID="1033"><v:paragraph/><v:tabList/>Distributed</text>		</g>
		<g id="shape101-267" v:mID="101" v:groupContext="shape" transform="translate(423,-222.75)">
			<title>Tabelle.101</title>
			<desc>authentication</desc>
			<v:textBlock v:margins="rect(0,0,0,0)"/>
			<v:textRect cx="52.5" cy="313.125" width="105" height="3.75"/>
			<rect x="0" y="311.25" width="105" height="3.75" class="st1"/>
			<text x="0" y="315.37" class="st2" v:langID="1033"><v:paragraph/><v:tabList/>authentication</text>		</g>
		<g id="shape102-270" v:mID="102" v:groupContext="shape" transform="translate(438.75,-150)">
			<title>Tabelle.102</title>
			<desc>Security</desc>
			<v:textBlock v:margins="rect(0,0,0,0)"/>
			<v:textRect cx="30" cy="313.125" width="60" height="3.75"/>
			<rect x="0" y="311.25" width="60" height="3.75" class="st1"/>
			<text x="0" y="315.37" class="st2" v:langID="1033"><v:paragraph/><v:tabList/>Security</text>		</g>
		<g id="shape103-273" v:mID="103" v:groupContext="shape" transform="translate(441,-139.5)">
			<title>Tabelle.103</title>
			<desc>library</desc>
			<v:textBlock v:margins="rect(0,0,0,0)"/>
			<v:textRect cx="26.25" cy="313.125" width="52.51" height="3.75"/>
			<rect x="0" y="311.25" width="52.5" height="3.75" class="st1"/>
			<text x="0" y="315.37" class="st2" v:langID="1033"><v:paragraph/><v:tabList/>library</text>		</g>
		<g id="shape104-276" v:mID="104" v:groupContext="shape" transform="translate(172.5,-61.5)">
			<title>Tabelle.104</title>
			<desc>mission</desc>
			<v:textBlock v:margins="rect(0,0,0,0)"/>
			<v:textRect cx="26.25" cy="313.125" width="52.5" height="3.75"/>
			<rect x="0" y="311.25" width="52.5" height="3.75" class="st1"/>
			<text x="0" y="315.37" class="st2" v:langID="1033"><v:paragraph/><v:tabList/>mission</text>		</g>
		<g id="shape105-279" v:mID="105" v:groupContext="shape" transform="translate(163.5,-50.25)">
			<title>Tabelle.105</title>
			<desc>components</desc>
			<v:textBlock v:margins="rect(0,0,0,0)"/>
			<v:textRect cx="37.5" cy="313.125" width="75.01" height="3.75"/>
			<rect x="0" y="311.25" width="75" height="3.75" class="st1"/>
			<text x="0" y="315.37" class="st2" v:langID="1033"><v:paragraph/><v:tabList/>components</text>		</g>
		<g id="shape106-282" v:mID="106" v:groupContext="shape" transform="translate(471,-61.5)">
			<title>Tabelle.106</title>
			<desc>security</desc>
			<v:textBlock v:margins="rect(0,0,0,0)"/>
			<v:textRect cx="30" cy="313.125" width="60" height="3.75"/>
			<rect x="0" y="311.25" width="60" height="3.75" class="st1"/>
			<text x="0" y="315.37" class="st2" v:langID="1033"><v:paragraph/><v:tabList/>security</text>		</g>
		<g id="shape107-285" v:mID="107" v:groupContext="shape" transform="translate(462,-51)">
			<title>Tabelle.107</title>
			<desc>components</desc>
			<v:textBlock v:margins="rect(0,0,0,0)"/>
			<v:textRect cx="37.5" cy="313.125" width="75" height="3.75"/>
			<rect x="0" y="311.25" width="75" height="3.75" class="st1"/>
			<text x="0" y="315.37" class="st2" v:langID="1033"><v:paragraph/><v:tabList/>components</text>		</g>
		<g id="shape108-288" v:mID="108" v:groupContext="shape" transform="translate(276.75,-61.5)">
			<title>Tabelle.108</title>
			<desc>management</desc>
			<v:textBlock v:margins="rect(0,0,0,0)"/>
			<v:textRect cx="37.5" cy="313.125" width="75" height="3.75"/>
			<rect x="0" y="311.25" width="75" height="3.75" class="st1"/>
			<text x="0" y="315.37" class="st2" v:langID="1033"><v:paragraph/><v:tabList/>management</text>		</g>
		<g id="shape109-291" v:mID="109" v:groupContext="shape" transform="translate(278.25,-50.25)">
			<title>Tabelle.109</title>
			<desc>components</desc>
			<v:textBlock v:margins="rect(0,0,0,0)"/>
			<v:textRect cx="37.5" cy="313.125" width="75.01" height="3.75"/>
			<rect x="0" y="311.25" width="75" height="3.75" class="st1"/>
			<text x="0" y="315.37" class="st2" v:langID="1033"><v:paragraph/><v:tabList/>components</text>		</g>
		<g id="shape110-294" v:mID="110" v:groupContext="shape" transform="translate(338.25,-61.5)">
			<title>Tabelle.110</title>
			<desc>interoperability</desc>
			<v:textBlock v:margins="rect(0,0,0,0)"/>
			<v:textRect cx="60" cy="313.125" width="120" height="3.75"/>
			<rect x="0" y="311.25" width="120" height="3.75" class="st1"/>
			<text x="0" y="315.37" class="st2" v:langID="1033"><v:paragraph/><v:tabList/>interoperability</text>		</g>
		<g id="shape111-297" v:mID="111" v:groupContext="shape" transform="translate(344.25,-50.25)">
			<title>Tabelle.111</title>
			<desc>components</desc>
			<v:textBlock v:margins="rect(0,0,0,0)"/>
			<v:textRect cx="37.5" cy="313.125" width="75" height="3.75"/>
			<rect x="0" y="311.25" width="75" height="3.75" class="st1"/>
			<text x="0" y="315.37" class="st2" v:langID="1033"><v:paragraph/><v:tabList/>components</text>		</g>
		<g id="shape112-300" v:mID="112" v:groupContext="shape" transform="translate(228.75,-61.5)">
			<title>Tabelle.112</title>
			<desc>network</desc>
			<v:textBlock v:margins="rect(0,0,0,0)"/>
			<v:textRect cx="26.25" cy="313.125" width="52.5" height="3.75"/>
			<rect x="0" y="311.25" width="52.5" height="3.75" class="st1"/>
			<text x="0" y="315.37" class="st2" v:langID="1033"><v:paragraph/><v:tabList/>network</text>		</g>
		<g id="shape113-303" v:mID="113" v:groupContext="shape" transform="translate(222,-50.25)">
			<title>Tabelle.113</title>
			<desc>components</desc>
			<v:textBlock v:margins="rect(0,0,0,0)"/>
			<v:textRect cx="37.5" cy="313.125" width="75.01" height="3.75"/>
			<rect x="0" y="311.25" width="75" height="3.75" class="st1"/>
			<text x="0" y="315.37" class="st2" v:langID="1033"><v:paragraph/><v:tabList/>components</text>		</g>
		<g id="shape114-306" v:mID="114" v:groupContext="shape" transform="translate(416.25,-60.75)">
			<title>Tabelle.114</title>
			<desc>&#34;base&#34;</desc>
			<v:textBlock v:margins="rect(0,0,0,0)"/>
			<v:textRect cx="22.5" cy="313.125" width="45" height="3.75"/>
			<rect x="0" y="311.25" width="45" height="3.75" class="st1"/>
			<text x="0" y="315.37" class="st2" v:langID="1033"><v:paragraph/><v:tabList/>&#34;base&#34;</text>		</g>
		<g id="shape115-309" v:mID="115" v:groupContext="shape" transform="translate(406.5,-50.25)">
			<title>Tabelle.115</title>
			<desc>components</desc>
			<v:textBlock v:margins="rect(0,0,0,0)"/>
			<v:textRect cx="37.5" cy="313.125" width="75.01" height="3.75"/>
			<rect x="0" y="311.25" width="75" height="3.75" class="st1"/>
			<text x="0" y="315.37" class="st2" v:langID="1033"><v:paragraph/><v:tabList/>components</text>		</g>
	</g>
</svg>
