<?xml version="1.0" encoding="UTF-8" standalone="no"?>
<!DOCTYPE svg PUBLIC "-//W3C//DTD SVG 1.0//EN" "http://www.w3.org/TR/2001/REC-SVG-20010904/DTD/svg10.dtd">
<!-- Generiert durch Microsoft Visio 11.0, SVG Export, v1.0 2connecteddomains.svg Page-1 -->
<svg xmlns="http://www.w3.org/2000/svg" xmlns:v="http://schemas.microsoft.com/visio/2003/SVGExtensions/" width="7.58151in"
		height="3.84962in" viewBox="0 0 545.868 277.173" xml:space="preserve" color-interpolation-filters="sRGB" class="st36">
	<v:documentProperties v:langID="1031" v:metric="true" v:viewMarkup="false"/>

	<style type="text/css">
	<![CDATA[
		.st1 {fill:#800000;fill-opacity:0.2;stroke:#000000;stroke-dasharray:5.04,3.6;stroke-linecap:round;stroke-linejoin:round;stroke-opacity:0.2;stroke-width:0.72}
		.st2 {stroke:#000000;stroke-linecap:round;stroke-linejoin:round;stroke-width:2.16}
		.st3 {fill:#000000;stroke:#000000;stroke-linecap:round;stroke-linejoin:round;stroke-width:0.72}
		.st4 {fill:#c0c0c0;stroke:#000000;stroke-linecap:round;stroke-linejoin:round;stroke-width:0.72}
		.st5 {fill:none;stroke:none;stroke-linecap:round;stroke-linejoin:round;stroke-width:0.72}
		.st6 {fill:#000000;font-family:Arial;font-size:1.16666em;font-weight:bold}
		.st7 {fill:#ffcc99;stroke:#000000;stroke-linecap:round;stroke-linejoin:round;stroke-width:0.72}
		.st8 {fill:#000000;font-family:Arial;font-size:0.916672em;font-weight:bold}
		.st9 {font-size:1em}
		.st10 {fill:#008000;font-size:1em}
		.st11 {baseline-shift:-33.3496%;fill:#008000;font-size:0.666991em}
		.st12 {baseline-shift:-33.3496%;font-size:0.666991em}
		.st13 {fill:#800000;stroke:#000000;stroke-linecap:round;stroke-linejoin:round;stroke-width:0.24}
		.st14 {fill:#c0c0c0;stroke:#000000;stroke-dasharray:5.04,3.6;stroke-linecap:round;stroke-linejoin:round;stroke-width:0.72}
		.st15 {fill:#00ccff;fill-opacity:0.2;stroke:#000000;stroke-linecap:round;stroke-linejoin:round;stroke-opacity:0.2;stroke-width:0.24}
		.st16 {fill:#0000ff;stroke:#000000;stroke-linecap:round;stroke-linejoin:round;stroke-width:0.72}
		.st17 {fill:#ffffff;font-family:Arial;font-size:1.16666em;font-weight:bold}
		.st18 {fill:#00ff00;stroke:#000000;stroke-linecap:round;stroke-linejoin:round;stroke-width:0.72}
		.st19 {fill:#00ccff;stroke:#000000;stroke-linecap:round;stroke-linejoin:round;stroke-width:0.24}
		.st20 {fill:#000000;font-family:Arial;font-size:0.916672em}
		.st21 {fill:#000000;font-family:Arial;font-size:1.00001em;font-weight:bold}
		.st22 {fill:#ff0000;font-family:Arial;font-size:0.916672em}
		.st23 {fill:url(#grad29-180);stroke:#ff0000;stroke-linecap:round;stroke-linejoin:round;stroke-width:0.72}
		.st24 {fill:url(#grad29-180);stroke:none;stroke-linecap:round;stroke-linejoin:round;stroke-width:0.72}
		.st25 {marker-end:url(#mrkr13-195);stroke:#800080;stroke-linecap:round;stroke-linejoin:round;stroke-width:1.2}
		.st26 {fill:#800080;fill-opacity:1;stroke:#800080;stroke-opacity:1;stroke-width:0.32258064516129}
		.st27 {marker-end:url(#mrkr13-201);stroke:#008000;stroke-linecap:round;stroke-linejoin:round;stroke-width:1.2}
		.st28 {fill:#008000;fill-opacity:1;stroke:#008000;stroke-opacity:1;stroke-width:0.32258064516129}
		.st29 {fill:#008000;font-family:Arial;font-size:0.833336em;font-weight:bold}
		.st30 {baseline-shift:-33.3489%;font-size:0.666978em}
		.st31 {fill:#800080;font-family:Arial;font-size:0.833336em;font-weight:bold}
		.st32 {marker-end:url(#mrkr4-218);stroke:#008000;stroke-linecap:round;stroke-linejoin:round;stroke-width:0.72}
		.st33 {fill:#008000;fill-opacity:1;stroke:#008000;stroke-opacity:1;stroke-width:0.22222222222222}
		.st34 {marker-end:url(#mrkr4-225);stroke:#800080;stroke-linecap:round;stroke-linejoin:round;stroke-width:0.72}
		.st35 {fill:#800080;fill-opacity:1;stroke:#800080;stroke-opacity:1;stroke-width:0.22222222222222}
		.st36 {fill:none;fill-rule:evenodd;font-size:12;overflow:visible;stroke-linecap:square;stroke-miterlimit:3}
	]]>
	</style>

	<defs id="Patterns_And_Gradients">
		<linearGradient id="grad29-180" v:fillPattern="29" v:foreground="#808080" v:background="#ffcc99" x1="0" y1="0" x2="0"
				y2="1">
			<stop offset="0" style="stop-color:#ffcc99;stop-opacity:1"/>
			<stop offset="0.5" style="stop-color:#808080;stop-opacity:1"/>
			<stop offset="1" style="stop-color:#ffcc99;stop-opacity:1"/>
		</linearGradient>
	</defs>
	<defs id="Markers">
		<g id="lend13">
			<path d="M 3 1 L -0 0 L 3 -1 L 3 1 " style="stroke:none"/>
		</g>
		<marker id="mrkr13-195" class="st26" v:arrowType="13" v:arrowSize="2" v:setback="9" refX="-9" orient="auto"
				markerUnits="strokeWidth">
			<use xlink:href="#lend13" transform="scale(-3.1,-3.1) "/>
		</marker>
		<marker id="mrkr13-201" class="st28" v:arrowType="13" v:arrowSize="2" v:setback="9" refX="-9" orient="auto"
				markerUnits="strokeWidth">
			<use xlink:href="#lend13" transform="scale(-3.1,-3.1) "/>
		</marker>
		<g id="lend4">
			<path d="M 2 1 L -0 0 L 2 -1 L 2 1 " style="stroke:none"/>
		</g>
		<marker id="mrkr4-218" class="st33" v:arrowType="4" v:arrowSize="2" v:setback="9" refX="-9" orient="auto"
				markerUnits="strokeWidth">
			<use xlink:href="#lend4" transform="scale(-4.5,-4.5) "/>
		</marker>
		<marker id="mrkr4-225" class="st35" v:arrowType="4" v:arrowSize="2" v:setback="9" refX="-9" orient="auto"
				markerUnits="strokeWidth">
			<use xlink:href="#lend4" transform="scale(-4.5,-4.5) "/>
		</marker>
	</defs>
	<g v:mID="0" v:index="1" v:groupContext="foregroundPage">
		<title>Page-1</title>
		<v:pageProperties v:drawingScale="0.0393701" v:pageScale="0.0393701" v:drawingUnits="24" v:shadowOffsetX="8.50394"
				v:shadowOffsetY="-8.50394"/>
		<g id="shape1-1" v:mID="1" v:groupContext="shape" transform="translate(32.4662,-104.864)">
			<title>Tabelle.1</title>
			<path d="M0 277.17 L210.2 277.17 L210.2 158.94 L0 158.94 L0 277.17 Z" class="st1"/>
		</g>
		<g id="group2-3" transform="translate(67.5989,-105.321)" v:mID="2" v:groupContext="group">
			<title>Tabelle.2</title>
			<g id="shape3-4" v:mID="3" v:groupContext="shape" transform="translate(283.179,277.173) rotate(90) scale(-1,1)">
				<title>Tabelle.3</title>
				<path d="M0 277.17 L16.66 277.17" class="st2"/>
			</g>
			<g id="shape4-7" v:mID="4" v:groupContext="shape" transform="translate(0,527.178) scale(1,-1)">
				<title>Tabelle.4</title>
				<ellipse cx="6.0056" cy="271.167" rx="6.0056" ry="6.0056" class="st3"/>
			</g>
		</g>
		<g id="group5-9" transform="translate(27.6617,-52.1243)" v:mID="5" v:groupContext="group">
			<title>Tabelle.5</title>
			<g id="shape6-10" v:mID="6" v:groupContext="shape">
				<title>Tabelle.6</title>
				<rect x="0" y="223.976" width="91.8857" height="53.197" rx="11.3386" ry="11.3386" class="st4"/>
			</g>
			<g id="shape7-12" v:mID="7" v:groupContext="shape" transform="translate(5.77644,-13.7696)">
				<title>Tabelle.7</title>
				<desc>Provider 1</desc>
				<v:textBlock v:margins="rect(4,4,4,4)" v:tabSpace="42.5197"/>
				<v:textRect cx="40.6366" cy="264.344" width="81.28" height="25.6577"/>
				<rect x="0" y="251.515" width="81.2732" height="25.6577" class="st5"/>
				<text x="6.39" y="268.54" class="st6" v:langID="1031"><v:paragraph v:horizAlign="1"/><v:tabList/>Provider 1</text>			</g>
		</g>
		<g id="group8-15" transform="translate(128.556,-52.9153)" v:mID="8" v:groupContext="group">
			<title>Tabelle.8</title>
			<g id="shape9-16" v:mID="9" v:groupContext="shape">
				<title>Tabelle.9</title>
				<rect x="0" y="225.296" width="114.106" height="51.877" rx="11.3386" ry="11.3386" class="st7"/>
			</g>
			<g id="shape10-18" v:mID="10" v:groupContext="shape" transform="translate(7.17336,-8.74957)">
				<title>Tabelle.10</title>
				<desc>Infrastructure with remote PA and local P1</desc>
				<v:textBlock v:margins="rect(4,4,4,4)" v:tabSpace="42.5197"/>
				<v:textRect cx="50.4638" cy="264.662" width="100.93" height="25.021"/>
				<rect x="0" y="252.152" width="100.928" height="25.021" class="st5"/>
				<text x="14.72" y="254.76" class="st8" v:langID="1031"><v:paragraph v:horizAlign="1"/><v:tabList/>Infrastructure<v:lf/><tspan
							x="11.76" dy="1.2em" class="st9">with </tspan><tspan class="st10">remote P</tspan><tspan dy="-0.289em"
							class="st11" v:baseFontSize="11">A</tspan><tspan dy="0.193em" class="st9"> </tspan><tspan x="19.4"
							dy="1.2em" class="st9">and local P</tspan><tspan dy="-0.289em" class="st12" v:baseFontSize="11">1</tspan></text>			</g>
		</g>
		<g id="group11-27" transform="translate(148.825,-105.321)" v:mID="11" v:groupContext="group">
			<title>Tabelle.11</title>
			<g id="group12-28" transform="translate(41.0383,-1.13687E-013)" v:mID="12" v:groupContext="group">
				<title>Tabelle.12</title>
				<g id="shape13-29" v:mID="13" v:groupContext="shape" transform="translate(283.179,277.173) rotate(90) scale(-1,1)">
					<title>Tabelle.13</title>
					<path d="M0 277.17 L12.01 277.17" class="st2"/>
				</g>
				<g id="shape14-32" v:mID="14" v:groupContext="shape" transform="translate(0,527.178) scale(1,-1)">
					<title>Tabelle.14</title>
					<ellipse cx="6.0056" cy="271.167" rx="6.0056" ry="6.0056" class="st3"/>
				</g>
			</g>
			<g id="group15-34" v:mID="15" v:groupContext="group">
				<title>Tabelle.15</title>
				<g id="shape16-35" v:mID="16" v:groupContext="shape" transform="translate(283.179,277.173) rotate(90) scale(-1,1)">
					<title>Tabelle.16</title>
					<path d="M0 277.17 L16.66 277.17" class="st2"/>
				</g>
				<g id="shape17-38" v:mID="17" v:groupContext="shape" transform="translate(0,527.178) scale(1,-1)">
					<title>Tabelle.17</title>
					<ellipse cx="6.0056" cy="271.167" rx="6.0056" ry="6.0056" class="st3"/>
				</g>
			</g>
			<g id="group18-40" transform="translate(20.5191,0)" v:mID="18" v:groupContext="group">
				<title>Tabelle.18</title>
				<g id="shape19-41" v:mID="19" v:groupContext="shape" transform="translate(283.179,277.173) rotate(90) scale(-1,1)">
					<title>Tabelle.19</title>
					<path d="M0 277.17 L12.01 277.17" class="st2"/>
				</g>
				<g id="shape20-44" v:mID="20" v:groupContext="shape" transform="translate(0,527.178) scale(1,-1)">
					<title>Tabelle.20</title>
					<ellipse cx="6.0056" cy="271.167" rx="6.0056" ry="6.0056" class="st3"/>
				</g>
			</g>
			<g id="group21-46" transform="translate(61.5574,0)" v:mID="21" v:groupContext="group">
				<title>Tabelle.21</title>
				<g id="shape22-47" v:mID="22" v:groupContext="shape" transform="translate(283.179,277.173) rotate(90) scale(-1,1)">
					<title>Tabelle.22</title>
					<path d="M0 277.17 L12.01 277.17" class="st2"/>
				</g>
				<g id="shape23-50" v:mID="23" v:groupContext="shape" transform="translate(0,527.178) scale(1,-1)">
					<title>Tabelle.23</title>
					<ellipse cx="6.0056" cy="271.167" rx="6.0056" ry="6.0056" class="st3"/>
				</g>
			</g>
		</g>
		<g id="shape24-52" v:mID="24" v:groupContext="shape" transform="translate(61.5933,-93.3101)">
			<title>Diamond</title>
			<v:userDefs>
				<v:ud v:nameU="visVersion" v:val="VT0(11):26"/>
			</v:userDefs>
			<path d="M0 265.16 L12.01 253.15 L24.02 265.16 L12.01 277.17 L0 265.16 Z" class="st13"/>
		</g>
		<g id="shape25-54" v:mID="25" v:groupContext="shape" transform="translate(142.819,-93.3101)">
			<title>Diamond.24</title>
			<v:userDefs>
				<v:ud v:nameU="visVersion" v:val="VT0(11):26"/>
			</v:userDefs>
			<path d="M0 265.16 L12.01 253.15 L24.02 265.16 L12.01 277.17 L0 265.16 Z" class="st13"/>
		</g>
		<g id="shape26-56" v:mID="26" v:groupContext="shape" transform="translate(163.338,-93.3101)">
			<title>Diamond.25</title>
			<v:userDefs>
				<v:ud v:nameU="visVersion" v:val="VT0(11):26"/>
			</v:userDefs>
			<path d="M0 265.16 L12.01 253.15 L24.02 265.16 L12.01 277.17 L0 265.16 Z" class="st13"/>
		</g>
		<g id="shape27-58" v:mID="27" v:groupContext="shape" transform="translate(183.857,-93.3101)">
			<title>Diamond.26</title>
			<v:userDefs>
				<v:ud v:nameU="visVersion" v:val="VT0(11):26"/>
			</v:userDefs>
			<path d="M0 265.16 L12.01 253.15 L24.02 265.16 L12.01 277.17 L0 265.16 Z" class="st13"/>
		</g>
		<g id="shape28-60" v:mID="28" v:groupContext="shape" transform="translate(204.377,-93.3101)">
			<title>Diamond.27</title>
			<v:userDefs>
				<v:ud v:nameU="visVersion" v:val="VT0(11):26"/>
			</v:userDefs>
			<path d="M0 265.16 L12.01 253.15 L24.02 265.16 L12.01 277.17 L0 265.16 Z" class="st13"/>
		</g>
		<g id="shape29-62" v:mID="29" v:groupContext="shape" transform="translate(72.1031,-222.747)">
			<title>Tabelle.29</title>
			<rect x="0" y="223.976" width="91.8857" height="53.197" rx="11.3386" ry="11.3386" class="st14"/>
		</g>
		<g id="shape30-64" v:mID="30" v:groupContext="shape" transform="translate(77.8796,-236.517)">
			<title>Tabelle.30</title>
			<desc>Consumer</desc>
			<v:textBlock v:margins="rect(4,4,4,4)" v:tabSpace="42.5197"/>
			<v:textRect cx="40.6366" cy="264.344" width="81.28" height="25.6577"/>
			<rect x="0" y="251.515" width="81.2732" height="25.6577" class="st5"/>
			<text x="6.01" y="268.54" class="st6" v:langID="1031"><v:paragraph v:horizAlign="1"/><v:tabList/>Consumer</text>		</g>
		<g id="shape31-67" v:mID="31" v:groupContext="shape" transform="translate(107.536,-211.384)">
			<title>Diamond.32</title>
			<v:userDefs>
				<v:ud v:nameU="visVersion" v:val="VT0(11):26"/>
			</v:userDefs>
			<path d="M0 265.16 L12.01 253.15 L24.02 265.16 L12.01 277.17 L0 265.16 Z" class="st13"/>
		</g>
		<g id="shape32-69" v:mID="32" v:groupContext="shape" transform="translate(306.018,-105.372)">
			<title>Tabelle.32</title>
			<rect x="0" y="158.942" width="210.196" height="118.231" class="st15"/>
		</g>
		<g id="group33-71" transform="translate(341.151,-105.83)" v:mID="33" v:groupContext="group">
			<title>Tabelle.33</title>
			<g id="shape34-72" v:mID="34" v:groupContext="shape" transform="translate(283.179,277.173) rotate(90) scale(-1,1)">
				<title>Tabelle.34</title>
				<path d="M0 277.17 L16.66 277.17" class="st2"/>
			</g>
			<g id="shape35-75" v:mID="35" v:groupContext="shape" transform="translate(0,527.178) scale(1,-1)">
				<title>Tabelle.35</title>
				<ellipse cx="6.0056" cy="271.167" rx="6.0056" ry="6.0056" class="st3"/>
			</g>
		</g>
		<g id="group36-77" transform="translate(301.214,-52.633)" v:mID="36" v:groupContext="group">
			<title>Tabelle.36</title>
			<g id="shape37-78" v:mID="37" v:groupContext="shape">
				<title>Tabelle.37</title>
				<rect x="0" y="223.976" width="91.8857" height="53.197" rx="11.3386" ry="11.3386" class="st16"/>
			</g>
			<g id="shape38-80" v:mID="38" v:groupContext="shape" transform="translate(5.77644,-13.7696)">
				<title>Tabelle.38</title>
				<desc>Provider B</desc>
				<v:textBlock v:margins="rect(4,4,4,4)" v:tabSpace="42.5197"/>
				<v:textRect cx="40.6366" cy="264.344" width="81.28" height="25.6577"/>
				<rect x="0" y="251.515" width="81.2732" height="25.6577" class="st5"/>
				<text x="5.23" y="268.54" class="st17" v:langID="1031"><v:paragraph v:horizAlign="1"/><v:tabList/>Provider B</text>			</g>
		</g>
		<g id="group39-83" transform="translate(402.108,-55.2305)" v:mID="39" v:groupContext="group">
			<title>Tabelle.39</title>
			<g id="shape40-84" v:mID="40" v:groupContext="shape">
				<title>Tabelle.40</title>
				<rect x="0" y="225.296" width="114.106" height="51.877" rx="11.3386" ry="11.3386" class="st18"/>
			</g>
			<g id="shape41-86" v:mID="41" v:groupContext="shape" transform="translate(7.17336,-7.8517)">
				<title>Tabelle.41</title>
				<desc>Infrastructure with remote P1 and local PA / PB</desc>
				<v:textBlock v:margins="rect(4,4,4,4)" v:tabSpace="42.5197"/>
				<v:textRect cx="50.4638" cy="264.662" width="100.93" height="25.021"/>
				<rect x="0" y="252.152" width="100.928" height="25.021" class="st5"/>
				<text x="14.72" y="254.76" class="st8" v:langID="1031"><v:paragraph v:horizAlign="1"/><v:tabList/>Infrastructure<v:lf/><tspan
							x="12.37" dy="1.2em" class="st9">with remote P</tspan><tspan dy="-0.289em" class="st12"
							v:baseFontSize="11">1</tspan><tspan dy="0.193em" class="st9"> </tspan><tspan x="7.89" dy="1.2em"
							class="st9">and local P</tspan><tspan dy="-0.289em" class="st12" v:baseFontSize="11">A</tspan><tspan
							dy="0.193em" class="st9"> </tspan>/ P<tspan dy="-0.289em" class="st12" v:baseFontSize="11">B</tspan></text>			</g>
		</g>
		<g id="group42-96" transform="translate(422.377,-105.83)" v:mID="42" v:groupContext="group">
			<title>Tabelle.42</title>
			<g id="group43-97" transform="translate(41.0383,-1.13687E-013)" v:mID="43" v:groupContext="group">
				<title>Tabelle.43</title>
				<g id="shape44-98" v:mID="44" v:groupContext="shape" transform="translate(283.179,277.173) rotate(90) scale(-1,1)">
					<title>Tabelle.44</title>
					<path d="M0 277.17 L12.01 277.17" class="st2"/>
				</g>
				<g id="shape45-101" v:mID="45" v:groupContext="shape" transform="translate(0,527.178) scale(1,-1)">
					<title>Tabelle.45</title>
					<ellipse cx="6.0056" cy="271.167" rx="6.0056" ry="6.0056" class="st3"/>
				</g>
			</g>
			<g id="group46-103" v:mID="46" v:groupContext="group">
				<title>Tabelle.46</title>
				<g id="shape47-104" v:mID="47" v:groupContext="shape" transform="translate(283.179,277.173) rotate(90) scale(-1,1)">
					<title>Tabelle.47</title>
					<path d="M0 277.17 L16.66 277.17" class="st2"/>
				</g>
				<g id="shape48-107" v:mID="48" v:groupContext="shape" transform="translate(0,527.178) scale(1,-1)">
					<title>Tabelle.48</title>
					<ellipse cx="6.0056" cy="271.167" rx="6.0056" ry="6.0056" class="st3"/>
				</g>
			</g>
			<g id="group49-109" transform="translate(20.5191,0)" v:mID="49" v:groupContext="group">
				<title>Tabelle.49</title>
				<g id="shape50-110" v:mID="50" v:groupContext="shape" transform="translate(283.179,277.173) rotate(90) scale(-1,1)">
					<title>Tabelle.50</title>
					<path d="M0 277.17 L12.01 277.17" class="st2"/>
				</g>
				<g id="shape51-113" v:mID="51" v:groupContext="shape" transform="translate(0,527.178) scale(1,-1)">
					<title>Tabelle.51</title>
					<ellipse cx="6.0056" cy="271.167" rx="6.0056" ry="6.0056" class="st3"/>
				</g>
			</g>
			<g id="group52-115" transform="translate(61.5574,0)" v:mID="52" v:groupContext="group">
				<title>Tabelle.52</title>
				<g id="shape53-116" v:mID="53" v:groupContext="shape" transform="translate(283.179,277.173) rotate(90) scale(-1,1)">
					<title>Tabelle.53</title>
					<path d="M0 277.17 L12.01 277.17" class="st2"/>
				</g>
				<g id="shape54-119" v:mID="54" v:groupContext="shape" transform="translate(0,527.178) scale(1,-1)">
					<title>Tabelle.54</title>
					<ellipse cx="6.0056" cy="271.167" rx="6.0056" ry="6.0056" class="st3"/>
				</g>
			</g>
		</g>
		<g id="shape55-121" v:mID="55" v:groupContext="shape" transform="translate(335.145,-93.8188)">
			<title>Diamond.55</title>
			<v:userDefs>
				<v:ud v:nameU="visVersion" v:val="VT0(11):26"/>
			</v:userDefs>
			<path d="M0 265.16 L12.01 253.15 L24.02 265.16 L12.01 277.17 L0 265.16 Z" class="st19"/>
		</g>
		<g id="shape56-123" v:mID="56" v:groupContext="shape" transform="translate(416.371,-93.8188)">
			<title>Diamond.56</title>
			<v:userDefs>
				<v:ud v:nameU="visVersion" v:val="VT0(11):26"/>
			</v:userDefs>
			<path d="M0 265.16 L12.01 253.15 L24.02 265.16 L12.01 277.17 L0 265.16 Z" class="st19"/>
		</g>
		<g id="shape57-125" v:mID="57" v:groupContext="shape" transform="translate(436.89,-93.8188)">
			<title>Diamond.57</title>
			<v:userDefs>
				<v:ud v:nameU="visVersion" v:val="VT0(11):26"/>
			</v:userDefs>
			<path d="M0 265.16 L12.01 253.15 L24.02 265.16 L12.01 277.17 L0 265.16 Z" class="st19"/>
		</g>
		<g id="shape58-127" v:mID="58" v:groupContext="shape" transform="translate(457.409,-93.8188)">
			<title>Diamond.58</title>
			<v:userDefs>
				<v:ud v:nameU="visVersion" v:val="VT0(11):26"/>
			</v:userDefs>
			<path d="M0 265.16 L12.01 253.15 L24.02 265.16 L12.01 277.17 L0 265.16 Z" class="st19"/>
		</g>
		<g id="shape59-129" v:mID="59" v:groupContext="shape" transform="translate(477.929,-93.8188)">
			<title>Diamond.61</title>
			<v:userDefs>
				<v:ud v:nameU="visVersion" v:val="VT0(11):26"/>
			</v:userDefs>
			<path d="M0 265.16 L12.01 253.15 L24.02 265.16 L12.01 277.17 L0 265.16 Z" class="st19"/>
		</g>
		<g id="group60-131" transform="translate(345.655,-223.256)" v:mID="60" v:groupContext="group">
			<title>Tabelle.60</title>
			<g id="shape61-132" v:mID="61" v:groupContext="shape">
				<title>Tabelle.61</title>
				<rect x="0" y="223.976" width="91.8857" height="53.197" rx="11.3386" ry="11.3386" class="st4"/>
			</g>
			<g id="shape62-134" v:mID="62" v:groupContext="shape" transform="translate(5.77644,-13.7696)">
				<title>Tabelle.62</title>
				<desc>Consumer</desc>
				<v:textBlock v:margins="rect(4,4,4,4)" v:tabSpace="42.5197"/>
				<v:textRect cx="40.6366" cy="264.344" width="81.28" height="25.6577"/>
				<rect x="0" y="251.515" width="81.2732" height="25.6577" class="st5"/>
				<text x="6.01" y="268.54" class="st6" v:langID="1031"><v:paragraph v:horizAlign="1"/><v:tabList/>Consumer</text>			</g>
		</g>
		<g id="shape63-137" v:mID="63" v:groupContext="shape" transform="translate(381.088,-211.893)">
			<title>Diamond.65</title>
			<v:userDefs>
				<v:ud v:nameU="visVersion" v:val="VT0(11):26"/>
			</v:userDefs>
			<path d="M0 265.16 L12.01 253.15 L24.02 265.16 L12.01 277.17 L0 265.16 Z" class="st19"/>
		</g>
		<g id="shape64-139" v:mID="64" v:groupContext="shape" transform="translate(21.6338,-189.898)">
			<title>Tabelle.64</title>
			<desc>Domain A</desc>
			<v:textBlock v:margins="rect(4,4,4,4)" v:tabSpace="42.5197"/>
			<v:textRect cx="51.3377" cy="263.674" width="102.68" height="26.9987"/>
			<rect x="0" y="250.174" width="102.675" height="26.9987" class="st5"/>
			<text x="18.68" y="267.87" class="st6" v:langID="1031"><v:paragraph v:horizAlign="1"/><v:tabList/>Domain A</text>		</g>
		<g id="shape65-142" v:mID="65" v:groupContext="shape" transform="translate(404.625,-195.567)">
			<title>Tabelle.65</title>
			<desc>Domain B</desc>
			<v:textBlock v:margins="rect(4,4,4,4)" v:tabSpace="42.5197"/>
			<v:textRect cx="70.2616" cy="263.674" width="140.53" height="26.9987"/>
			<rect x="0" y="250.174" width="140.523" height="26.9987" class="st5"/>
			<text x="37.58" y="267.87" class="st6" v:langID="1031"><v:paragraph v:horizAlign="1"/><v:tabList/>Domain B</text>		</g>
		<g id="group66-145" transform="translate(316.889,-91.7754)" v:mID="66" v:groupContext="group">
			<title>Tabelle.66</title>
			<g id="shape67-146" v:mID="67" v:groupContext="shape" transform="translate(283.179,277.173) rotate(90) scale(-1,1)">
				<title>Tabelle.67</title>
				<path d="M0 277.17 L16.66 277.17" class="st2"/>
			</g>
			<g id="shape68-149" v:mID="68" v:groupContext="shape" transform="translate(0,527.178) scale(1,-1)">
				<title>Tabelle.68</title>
				<ellipse cx="6.0056" cy="271.167" rx="6.0056" ry="6.0056" class="st3"/>
			</g>
		</g>
		<g id="group69-151" transform="translate(276.952,-38.5784)" v:mID="69" v:groupContext="group">
			<title>Tabelle.69</title>
			<g id="shape70-152" v:mID="70" v:groupContext="shape">
				<title>Tabelle.70</title>
				<rect x="0" y="223.976" width="91.8857" height="53.197" rx="11.3386" ry="11.3386" class="st16"/>
			</g>
			<g id="shape71-154" v:mID="71" v:groupContext="shape" transform="translate(5.77644,-13.7696)">
				<title>Tabelle.71</title>
				<desc>Provider A</desc>
				<v:textBlock v:margins="rect(4,4,4,4)" v:tabSpace="42.5197"/>
				<v:textRect cx="40.6366" cy="264.344" width="81.28" height="25.6577"/>
				<rect x="0" y="251.515" width="81.2732" height="25.6577" class="st5"/>
				<text x="5.23" y="268.54" class="st17" v:langID="1031"><v:paragraph v:horizAlign="1"/><v:tabList/>Provider A</text>			</g>
		</g>
		<g id="shape72-157" v:mID="72" v:groupContext="shape" transform="translate(310.884,-79.7642)">
			<title>Diamond.99</title>
			<v:userDefs>
				<v:ud v:nameU="visVersion" v:val="VT0(11):26"/>
			</v:userDefs>
			<path d="M0 265.16 L12.01 253.15 L24.02 265.16 L12.01 277.17 L0 265.16 Z" class="st19"/>
		</g>
		<g id="shape73-159" v:mID="73" v:groupContext="shape" transform="translate(43.2397,532.597) scale(1,-1)">
			<title>Tabelle.73</title>
			<ellipse cx="6.32616" cy="270.847" rx="6.32616" ry="6.32616" class="st3"/>
		</g>
		<g id="shape74-161" v:mID="74" v:groupContext="shape" transform="translate(171.965,-5.93166)">
			<title>Diamond.48</title>
			<v:userDefs>
				<v:ud v:nameU="visVersion" v:val="VT0(11):26"/>
			</v:userDefs>
			<path d="M0 268.03 L9.14 258.89 L18.28 268.03 L9.14 277.17 L0 268.03 Z" class="st13"/>
		</g>
		<g id="shape75-163" v:mID="75" v:groupContext="shape" transform="translate(54.5783,-7.08183)">
			<title>Tabelle.75</title>
			<desc>Service Endpoint</desc>
			<v:textBlock v:margins="rect(4,4,4,4)" v:tabSpace="42.5197"/>
			<v:textRect cx="58.9287" cy="268.971" width="117.86" height="16.4036"/>
			<rect x="0" y="260.769" width="117.857" height="16.4036" class="st5"/>
			<text x="17.34" y="272.27" class="st20" v:langID="1031"><v:paragraph v:horizAlign="1"/><v:tabList/>Service Endpoint</text>		</g>
		<g id="shape76-166" v:mID="76" v:groupContext="shape" transform="translate(169.13,-0.72)">
			<title>Tabelle.76</title>
			<desc>ESB-Stub</desc>
			<v:textBlock v:margins="rect(4,4,4,4)" v:tabSpace="42.5197"/>
			<v:textRect cx="58.9287" cy="263.674" width="117.86" height="26.9987"/>
			<rect x="0" y="250.174" width="117.857" height="26.9987" class="st5"/>
			<text x="34.77" y="266.97" class="st20" v:langID="1031"><v:paragraph v:horizAlign="1"/><v:tabList/>ESB-Stub</text>		</g>
		<g id="shape77-169" v:mID="77" v:groupContext="shape" transform="translate(0.72,-19.9073)">
			<title>Tabelle.77</title>
			<desc>Legend:</desc>
			<v:textBlock v:margins="rect(4,4,4,4)" v:tabSpace="42.5197"/>
			<v:textRect cx="58.9287" cy="263.674" width="117.86" height="26.9987"/>
			<rect x="0" y="250.174" width="117.857" height="26.9987" class="st5"/>
			<text x="35.59" y="267.27" class="st21" v:langID="1031"><v:paragraph v:horizAlign="1"/><v:tabList/>Legend:</text>		</g>
		<g id="shape78-172" v:mID="78" v:groupContext="shape" transform="translate(213.885,-111.271)">
			<title>Tabelle.78</title>
			<desc>Physical Connection</desc>
			<v:textBlock v:margins="rect(4,4,4,4)" v:tabSpace="42.5197"/>
			<v:textRect cx="58.9287" cy="261.582" width="117.86" height="31.1811"/>
			<rect x="0" y="245.992" width="117.857" height="31.1811" class="st5"/>
			<text x="38.45" y="258.28" class="st22" v:langID="1031"><v:paragraph v:horizAlign="1"/><v:tabList/>Physical<v:lf/><tspan
						x="29.57" dy="1.2em" class="st9"> Connection</tspan></text>		</g>
		<g id="group79-176" transform="translate(226.042,-144.578)" v:mID="79" v:groupContext="group">
			<title>Tabelle.79</title>
			<g id="shape80-177" v:mID="80" v:groupContext="shape" transform="translate(70.8661,0)">
				<title>Tabelle.80</title>
				<ellipse cx="7.08661" cy="253.787" rx="7.08661" ry="23.3858" class="st23"/>
			</g>
			<g id="shape81-181" v:mID="81" v:groupContext="shape" transform="translate(7.08661,0)">
				<title>Tabelle.81</title>
				<rect x="0" y="230.401" width="70.0157" height="46.7717" class="st23"/>
			</g>
			<g id="shape82-184" v:mID="82" v:groupContext="shape">
				<title>Tabelle.82</title>
				<ellipse cx="7.08661" cy="253.787" rx="7.08661" ry="23.3858" class="st23"/>
			</g>
			<g id="shape83-187" v:mID="83" v:groupContext="shape" transform="translate(76.5354,0)">
				<title>Tabelle.83</title>
				<rect x="0" y="230.401" width="0.850394" height="46.7717" class="st24"/>
			</g>
		</g>
		<g id="shape84-190" v:mID="84" v:groupContext="shape" transform="translate(152.342,-132.362)">
			<title>Tabelle.84</title>
			<path d="M0 277.17 A137.38 29.9327 0 0 1 137.38 247.24 A137.893 29.3459 0 0 1 268.65 267.6 L268.87 267.89" class="st25"/>
		</g>
		<g id="shape85-196" v:mID="85" v:groupContext="shape" transform="translate(427.614,-136.699) scale(-1,1)">
			<title>Tabelle.85</title>
			<path d="M0 277.17 A137.38 42.6886 0 0 1 137.38 234.48 A137.893 41.8518 0 0 1 271.02 266.02 L271.15 266.35"
					class="st27"/>
		</g>
		<g id="shape86-202" v:mID="86" v:groupContext="shape" transform="translate(339.131,-176.468)">
			<title>Tabelle.86</title>
			<desc>Synchronisation of PA</desc>
			<v:textBlock v:margins="rect(4,4,4,4)" v:tabSpace="42.5197"/>
			<v:textRect cx="50.4638" cy="264.662" width="100.93" height="25.021"/>
			<rect x="0" y="252.152" width="100.928" height="25.021" class="st5"/>
			<text x="11.3" y="261.66" class="st29" v:langID="1031"><v:paragraph v:horizAlign="1"/><v:tabList/>Synchronisation<v:lf/><tspan
						x="37.23" dy="1.2em" class="st9">of  P</tspan><tspan dy="-0.289em" class="st30" v:baseFontSize="10">A</tspan></text>		</g>
		<g id="shape87-207" v:mID="87" v:groupContext="shape" transform="translate(102.735,-158.534)">
			<title>Tabelle.87</title>
			<desc>Synchronisation of P1</desc>
			<v:textBlock v:margins="rect(4,4,4,4)" v:tabSpace="42.5197"/>
			<v:textRect cx="50.4638" cy="264.662" width="100.93" height="25.021"/>
			<rect x="0" y="252.152" width="100.928" height="25.021" class="st5"/>
			<text x="11.3" y="261.66" class="st31" v:langID="1031"><v:paragraph v:horizAlign="1"/><v:tabList/>Synchronisation<v:lf/><tspan
						x="39.18" dy="1.2em" class="st9">of P</tspan><tspan dy="-0.289em" class="st30" v:baseFontSize="10">1</tspan></text>		</g>
		<g id="shape88-212" v:mID="88" v:groupContext="shape" transform="translate(560.931,289.609) rotate(135)">
			<title>Tabelle.88</title>
			<path d="M0 277.17 L3.54 277.17" class="st32"/>
		</g>
		<g id="shape89-219" v:mID="89" v:groupContext="shape" transform="translate(369.592,-88.1994) rotate(45)">
			<title>Tabelle.89</title>
			<path d="M0 277.17 L16.75 277.17" class="st34"/>
		</g>
	</g>
</svg>
