<?xml version="1.0" encoding="UTF-8" standalone="no"?>
<!DOCTYPE svg PUBLIC "-//W3C//DTD SVG 1.0//EN" "http://www.w3.org/TR/2001/REC-SVG-20010904/DTD/svg10.dtd">
<!-- Generiert durch Microsoft Visio 11.0, SVG Export, v1.0 2nonconnecteddomains.svg Page-1 -->
<svg xmlns="http://www.w3.org/2000/svg" xmlns:v="http://schemas.microsoft.com/visio/2003/SVGExtensions/" width="7.67082in"
		height="4.08089in" viewBox="0 0 552.299 293.824" xml:space="preserve" color-interpolation-filters="sRGB" class="st21">
	<v:documentProperties v:langID="1031" v:metric="true" v:viewMarkup="false"/>

	<style type="text/css">
	<![CDATA[
		.st1 {fill:#800000;fill-opacity:0.2;stroke:#000000;stroke-dasharray:5.04,3.6;stroke-linecap:round;stroke-linejoin:round;stroke-opacity:0.2;stroke-width:0.72}
		.st2 {stroke:#000000;stroke-linecap:round;stroke-linejoin:round;stroke-width:2.16}
		.st3 {fill:#000000;stroke:#000000;stroke-linecap:round;stroke-linejoin:round;stroke-width:0.72}
		.st4 {fill:#c0c0c0;stroke:#000000;stroke-linecap:round;stroke-linejoin:round;stroke-width:0.72}
		.st5 {fill:none;stroke:none;stroke-linecap:round;stroke-linejoin:round;stroke-width:0.72}
		.st6 {fill:#000000;font-family:Arial;font-size:1.16666em;font-weight:bold}
		.st7 {fill:#ffcc99;stroke:#000000;stroke-linecap:round;stroke-linejoin:round;stroke-width:0.72}
		.st8 {fill:#000000;font-family:Arial;font-size:1.00001em;font-weight:bold}
		.st9 {font-size:1em}
		.st10 {baseline-shift:-33.349%;font-size:0.666979em}
		.st11 {fill:#800000;stroke:#000000;stroke-linecap:round;stroke-linejoin:round;stroke-width:0.24}
		.st12 {fill:#c0c0c0;stroke:#000000;stroke-dasharray:5.04,3.6;stroke-linecap:round;stroke-linejoin:round;stroke-width:0.72}
		.st13 {fill:#00ccff;fill-opacity:0.2;stroke:#000000;stroke-linecap:round;stroke-linejoin:round;stroke-opacity:0.2;stroke-width:0.24}
		.st14 {fill:#0000ff;stroke:#000000;stroke-linecap:round;stroke-linejoin:round;stroke-width:0.72}
		.st15 {fill:#ffffff;font-family:Arial;font-size:1.16666em;font-weight:bold}
		.st16 {fill:#00ff00;stroke:#000000;stroke-linecap:round;stroke-linejoin:round;stroke-width:0.72}
		.st17 {fill:#00ccff;stroke:#000000;stroke-linecap:round;stroke-linejoin:round;stroke-width:0.24}
		.st18 {stroke:#ff0000;stroke-linecap:round;stroke-linejoin:round;stroke-width:2.16}
		.st19 {fill:#ff0000;font-family:Arial;font-size:0.916672em}
		.st20 {fill:#000000;font-family:Arial;font-size:0.916672em}
		.st21 {fill:none;fill-rule:evenodd;font-size:12;overflow:visible;stroke-linecap:square;stroke-miterlimit:3}
	]]>
	</style>

	<g v:mID="0" v:index="1" v:groupContext="foregroundPage">
		<title>Page-1</title>
		<v:pageProperties v:drawingScale="0.0393701" v:pageScale="0.0393701" v:drawingUnits="24" v:shadowOffsetX="8.50394"
				v:shadowOffsetY="-8.50394"/>
		<g id="shape1-1" v:mID="1" v:groupContext="shape" transform="translate(38.4898,-109.443)">
			<title>Tabelle.1</title>
			<path d="M0 293.82 L210.2 293.82 L210.2 175.59 L0 175.59 L0 293.82 Z" class="st1"/>
		</g>
		<g id="group2-3" transform="translate(73.6226,-109.901)" v:mID="2" v:groupContext="group">
			<title>Tabelle.2</title>
			<g id="shape3-4" v:mID="3" v:groupContext="shape" transform="translate(299.83,293.824) rotate(90) scale(-1,1)">
				<title>Tabelle.3</title>
				<path d="M0 293.82 L16.66 293.82" class="st2"/>
			</g>
			<g id="shape4-7" v:mID="4" v:groupContext="shape" transform="translate(0,560.48) scale(1,-1)">
				<title>Tabelle.4</title>
				<ellipse cx="6.0056" cy="287.819" rx="6.0056" ry="6.0056" class="st3"/>
			</g>
		</g>
		<g id="group5-9" transform="translate(33.6853,-56.7039)" v:mID="5" v:groupContext="group">
			<title>Tabelle.5</title>
			<g id="shape6-10" v:mID="6" v:groupContext="shape">
				<title>Tabelle.6</title>
				<rect x="0" y="240.627" width="91.8857" height="53.197" rx="11.3386" ry="11.3386" class="st4"/>
			</g>
			<g id="shape7-12" v:mID="7" v:groupContext="shape" transform="translate(5.77644,-13.7696)">
				<title>Tabelle.7</title>
				<desc>Provider 1</desc>
				<v:textBlock v:margins="rect(4,4,4,4)" v:tabSpace="42.5197"/>
				<v:textRect cx="40.6366" cy="280.995" width="81.28" height="25.6577"/>
				<rect x="0" y="268.167" width="81.2732" height="25.6577" class="st5"/>
				<text x="6.39" y="285.2" class="st6" v:langID="1031"><v:paragraph v:horizAlign="1"/><v:tabList/>Provider 1</text>			</g>
		</g>
		<g id="group8-15" transform="translate(134.579,-57.4949)" v:mID="8" v:groupContext="group">
			<title>Tabelle.8</title>
			<g id="shape9-16" v:mID="9" v:groupContext="shape">
				<title>Tabelle.9</title>
				<rect x="0" y="241.947" width="114.106" height="51.877" rx="11.3386" ry="11.3386" class="st7"/>
			</g>
			<g id="shape10-18" v:mID="10" v:groupContext="shape" transform="translate(7.17336,-10.5005)">
				<title>Tabelle.10</title>
				<desc>Infrastructure (with P1)</desc>
				<v:textBlock v:margins="rect(4,4,4,4)" v:tabSpace="42.5197"/>
				<v:textRect cx="50.4638" cy="281.314" width="100.93" height="25.021"/>
				<rect x="0" y="268.803" width="100.928" height="25.021" class="st5"/>
				<text x="11.47" y="277.71" class="st8" v:langID="1031"><v:paragraph v:horizAlign="1"/><v:tabList/>Infrastructure<v:lf/><tspan
							x="26.59" dy="1.2em" class="st9">(</tspan>with P<tspan dy="-0.289em" class="st10" v:baseFontSize="12">1</tspan><tspan
							dy="0.193em" class="st9">)</tspan></text>			</g>
		</g>
		<g id="group11-24" transform="translate(154.848,-109.901)" v:mID="11" v:groupContext="group">
			<title>Tabelle.11</title>
			<g id="group12-25" transform="translate(41.0383,-5.68434E-014)" v:mID="12" v:groupContext="group">
				<title>Tabelle.12</title>
				<g id="shape13-26" v:mID="13" v:groupContext="shape" transform="translate(299.83,293.824) rotate(90) scale(-1,1)">
					<title>Tabelle.13</title>
					<path d="M0 293.82 L12.01 293.82" class="st2"/>
				</g>
				<g id="shape14-29" v:mID="14" v:groupContext="shape" transform="translate(0,560.48) scale(1,-1)">
					<title>Tabelle.14</title>
					<ellipse cx="6.0056" cy="287.819" rx="6.0056" ry="6.0056" class="st3"/>
				</g>
			</g>
			<g id="group15-31" v:mID="15" v:groupContext="group">
				<title>Tabelle.15</title>
				<g id="shape16-32" v:mID="16" v:groupContext="shape" transform="translate(299.83,293.824) rotate(90) scale(-1,1)">
					<title>Tabelle.16</title>
					<path d="M0 293.82 L16.66 293.82" class="st2"/>
				</g>
				<g id="shape17-35" v:mID="17" v:groupContext="shape" transform="translate(0,560.48) scale(1,-1)">
					<title>Tabelle.17</title>
					<ellipse cx="6.0056" cy="287.819" rx="6.0056" ry="6.0056" class="st3"/>
				</g>
			</g>
			<g id="group18-37" transform="translate(20.5191,0)" v:mID="18" v:groupContext="group">
				<title>Tabelle.18</title>
				<g id="shape19-38" v:mID="19" v:groupContext="shape" transform="translate(299.83,293.824) rotate(90) scale(-1,1)">
					<title>Tabelle.19</title>
					<path d="M0 293.82 L12.01 293.82" class="st2"/>
				</g>
				<g id="shape20-41" v:mID="20" v:groupContext="shape" transform="translate(0,560.48) scale(1,-1)">
					<title>Tabelle.20</title>
					<ellipse cx="6.0056" cy="287.819" rx="6.0056" ry="6.0056" class="st3"/>
				</g>
			</g>
			<g id="group21-43" transform="translate(61.5574,0)" v:mID="21" v:groupContext="group">
				<title>Tabelle.21</title>
				<g id="shape22-44" v:mID="22" v:groupContext="shape" transform="translate(299.83,293.824) rotate(90) scale(-1,1)">
					<title>Tabelle.22</title>
					<path d="M0 293.82 L12.01 293.82" class="st2"/>
				</g>
				<g id="shape23-47" v:mID="23" v:groupContext="shape" transform="translate(0,560.48) scale(1,-1)">
					<title>Tabelle.23</title>
					<ellipse cx="6.0056" cy="287.819" rx="6.0056" ry="6.0056" class="st3"/>
				</g>
			</g>
		</g>
		<g id="shape24-49" v:mID="24" v:groupContext="shape" transform="translate(67.617,-97.8897)">
			<title>Diamond</title>
			<v:userDefs>
				<v:ud v:nameU="visVersion" v:val="VT0(11):26"/>
			</v:userDefs>
			<path d="M0 281.81 L12.01 269.8 L24.02 281.81 L12.01 293.82 L0 281.81 Z" class="st11"/>
		</g>
		<g id="shape25-51" v:mID="25" v:groupContext="shape" transform="translate(148.843,-97.8897)">
			<title>Diamond.24</title>
			<v:userDefs>
				<v:ud v:nameU="visVersion" v:val="VT0(11):26"/>
			</v:userDefs>
			<path d="M0 281.81 L12.01 269.8 L24.02 281.81 L12.01 293.82 L0 281.81 Z" class="st11"/>
		</g>
		<g id="shape26-53" v:mID="26" v:groupContext="shape" transform="translate(169.362,-97.8897)">
			<title>Diamond.25</title>
			<v:userDefs>
				<v:ud v:nameU="visVersion" v:val="VT0(11):26"/>
			</v:userDefs>
			<path d="M0 281.81 L12.01 269.8 L24.02 281.81 L12.01 293.82 L0 281.81 Z" class="st11"/>
		</g>
		<g id="shape27-55" v:mID="27" v:groupContext="shape" transform="translate(189.881,-97.8897)">
			<title>Diamond.26</title>
			<v:userDefs>
				<v:ud v:nameU="visVersion" v:val="VT0(11):26"/>
			</v:userDefs>
			<path d="M0 281.81 L12.01 269.8 L24.02 281.81 L12.01 293.82 L0 281.81 Z" class="st11"/>
		</g>
		<g id="shape28-57" v:mID="28" v:groupContext="shape" transform="translate(210.4,-97.8897)">
			<title>Diamond.27</title>
			<v:userDefs>
				<v:ud v:nameU="visVersion" v:val="VT0(11):26"/>
			</v:userDefs>
			<path d="M0 281.81 L12.01 269.8 L24.02 281.81 L12.01 293.82 L0 281.81 Z" class="st11"/>
		</g>
		<g id="shape29-59" v:mID="29" v:groupContext="shape" transform="translate(78.1268,-227.327)">
			<title>Tabelle.29</title>
			<rect x="0" y="240.627" width="91.8857" height="53.197" rx="11.3386" ry="11.3386" class="st12"/>
		</g>
		<g id="shape30-61" v:mID="30" v:groupContext="shape" transform="translate(83.9032,-241.096)">
			<title>Tabelle.30</title>
			<desc>Consumer</desc>
			<v:textBlock v:margins="rect(4,4,4,4)" v:tabSpace="42.5197"/>
			<v:textRect cx="40.6366" cy="280.995" width="81.28" height="25.6577"/>
			<rect x="0" y="268.167" width="81.2732" height="25.6577" class="st5"/>
			<text x="6.01" y="285.2" class="st6" v:langID="1031"><v:paragraph v:horizAlign="1"/><v:tabList/>Consumer</text>		</g>
		<g id="shape31-64" v:mID="31" v:groupContext="shape" transform="translate(113.56,-215.964)">
			<title>Diamond.32</title>
			<v:userDefs>
				<v:ud v:nameU="visVersion" v:val="VT0(11):26"/>
			</v:userDefs>
			<path d="M0 281.81 L12.01 269.8 L24.02 281.81 L12.01 293.82 L0 281.81 Z" class="st11"/>
		</g>
		<g id="shape32-66" v:mID="32" v:groupContext="shape" transform="translate(312.042,-109.952)">
			<title>Tabelle.32</title>
			<rect x="0" y="175.594" width="210.196" height="118.231" class="st13"/>
		</g>
		<g id="group33-68" transform="translate(347.175,-110.41)" v:mID="33" v:groupContext="group">
			<title>Tabelle.33</title>
			<g id="shape34-69" v:mID="34" v:groupContext="shape" transform="translate(299.83,293.824) rotate(90) scale(-1,1)">
				<title>Tabelle.34</title>
				<path d="M0 293.82 L16.66 293.82" class="st2"/>
			</g>
			<g id="shape35-72" v:mID="35" v:groupContext="shape" transform="translate(0,560.48) scale(1,-1)">
				<title>Tabelle.35</title>
				<ellipse cx="6.0056" cy="287.819" rx="6.0056" ry="6.0056" class="st3"/>
			</g>
		</g>
		<g id="group36-74" transform="translate(307.237,-57.2125)" v:mID="36" v:groupContext="group">
			<title>Tabelle.36</title>
			<g id="shape37-75" v:mID="37" v:groupContext="shape">
				<title>Tabelle.37</title>
				<rect x="0" y="240.627" width="91.8857" height="53.197" rx="11.3386" ry="11.3386" class="st14"/>
			</g>
			<g id="shape38-77" v:mID="38" v:groupContext="shape" transform="translate(5.77644,-13.7696)">
				<title>Tabelle.38</title>
				<desc>Provider B</desc>
				<v:textBlock v:margins="rect(4,4,4,4)" v:tabSpace="42.5197"/>
				<v:textRect cx="40.6366" cy="280.995" width="81.28" height="25.6577"/>
				<rect x="0" y="268.167" width="81.2732" height="25.6577" class="st5"/>
				<text x="5.23" y="285.2" class="st15" v:langID="1031"><v:paragraph v:horizAlign="1"/><v:tabList/>Provider B</text>			</g>
		</g>
		<g id="group39-80" transform="translate(408.131,-59.8101)" v:mID="39" v:groupContext="group">
			<title>Tabelle.39</title>
			<g id="shape40-81" v:mID="40" v:groupContext="shape">
				<title>Tabelle.40</title>
				<rect x="0" y="241.947" width="114.106" height="51.877" rx="11.3386" ry="11.3386" class="st16"/>
			</g>
			<g id="shape41-83" v:mID="41" v:groupContext="shape" transform="translate(7.17336,-9.84806)">
				<title>Tabelle.41</title>
				<desc>Infrastructure (with PA and PB)</desc>
				<v:textBlock v:margins="rect(4,4,4,4)" v:tabSpace="42.5197"/>
				<v:textRect cx="50.4638" cy="281.314" width="100.93" height="25.021"/>
				<rect x="0" y="268.803" width="100.928" height="25.021" class="st5"/>
				<text x="11.47" y="277.71" class="st8" v:langID="1031"><v:paragraph v:horizAlign="1"/><v:tabList/>Infrastructure<v:lf/><tspan
							x="5.58" dy="1.2em" class="st9">(</tspan>with P<tspan dy="-0.289em" class="st10" v:baseFontSize="12">A </tspan><tspan
							dy="0.193em" class="st9">and P</tspan><tspan dy="-0.289em" class="st10" v:baseFontSize="12">B</tspan><tspan
							dy="0.193em" class="st9">)</tspan></text>			</g>
		</g>
		<g id="group42-91" transform="translate(428.4,-110.41)" v:mID="42" v:groupContext="group">
			<title>Tabelle.42</title>
			<g id="group43-92" transform="translate(41.0383,-5.68434E-014)" v:mID="43" v:groupContext="group">
				<title>Tabelle.43</title>
				<g id="shape44-93" v:mID="44" v:groupContext="shape" transform="translate(299.83,293.824) rotate(90) scale(-1,1)">
					<title>Tabelle.44</title>
					<path d="M0 293.82 L12.01 293.82" class="st2"/>
				</g>
				<g id="shape45-96" v:mID="45" v:groupContext="shape" transform="translate(0,560.48) scale(1,-1)">
					<title>Tabelle.45</title>
					<ellipse cx="6.0056" cy="287.819" rx="6.0056" ry="6.0056" class="st3"/>
				</g>
			</g>
			<g id="group46-98" v:mID="46" v:groupContext="group">
				<title>Tabelle.46</title>
				<g id="shape47-99" v:mID="47" v:groupContext="shape" transform="translate(299.83,293.824) rotate(90) scale(-1,1)">
					<title>Tabelle.47</title>
					<path d="M0 293.82 L16.66 293.82" class="st2"/>
				</g>
				<g id="shape48-102" v:mID="48" v:groupContext="shape" transform="translate(0,560.48) scale(1,-1)">
					<title>Tabelle.48</title>
					<ellipse cx="6.0056" cy="287.819" rx="6.0056" ry="6.0056" class="st3"/>
				</g>
			</g>
			<g id="group49-104" transform="translate(20.5191,0)" v:mID="49" v:groupContext="group">
				<title>Tabelle.49</title>
				<g id="shape50-105" v:mID="50" v:groupContext="shape" transform="translate(299.83,293.824) rotate(90) scale(-1,1)">
					<title>Tabelle.50</title>
					<path d="M0 293.82 L12.01 293.82" class="st2"/>
				</g>
				<g id="shape51-108" v:mID="51" v:groupContext="shape" transform="translate(0,560.48) scale(1,-1)">
					<title>Tabelle.51</title>
					<ellipse cx="6.0056" cy="287.819" rx="6.0056" ry="6.0056" class="st3"/>
				</g>
			</g>
			<g id="group52-110" transform="translate(61.5574,0)" v:mID="52" v:groupContext="group">
				<title>Tabelle.52</title>
				<g id="shape53-111" v:mID="53" v:groupContext="shape" transform="translate(299.83,293.824) rotate(90) scale(-1,1)">
					<title>Tabelle.53</title>
					<path d="M0 293.82 L12.01 293.82" class="st2"/>
				</g>
				<g id="shape54-114" v:mID="54" v:groupContext="shape" transform="translate(0,560.48) scale(1,-1)">
					<title>Tabelle.54</title>
					<ellipse cx="6.0056" cy="287.819" rx="6.0056" ry="6.0056" class="st3"/>
				</g>
			</g>
		</g>
		<g id="shape55-116" v:mID="55" v:groupContext="shape" transform="translate(341.169,-98.3983)">
			<title>Diamond.55</title>
			<v:userDefs>
				<v:ud v:nameU="visVersion" v:val="VT0(11):26"/>
			</v:userDefs>
			<path d="M0 281.81 L12.01 269.8 L24.02 281.81 L12.01 293.82 L0 281.81 Z" class="st17"/>
		</g>
		<g id="shape56-118" v:mID="56" v:groupContext="shape" transform="translate(422.395,-98.3983)">
			<title>Diamond.56</title>
			<v:userDefs>
				<v:ud v:nameU="visVersion" v:val="VT0(11):26"/>
			</v:userDefs>
			<path d="M0 281.81 L12.01 269.8 L24.02 281.81 L12.01 293.82 L0 281.81 Z" class="st17"/>
		</g>
		<g id="shape57-120" v:mID="57" v:groupContext="shape" transform="translate(442.914,-98.3983)">
			<title>Diamond.57</title>
			<v:userDefs>
				<v:ud v:nameU="visVersion" v:val="VT0(11):26"/>
			</v:userDefs>
			<path d="M0 281.81 L12.01 269.8 L24.02 281.81 L12.01 293.82 L0 281.81 Z" class="st17"/>
		</g>
		<g id="shape58-122" v:mID="58" v:groupContext="shape" transform="translate(463.433,-98.3983)">
			<title>Diamond.58</title>
			<v:userDefs>
				<v:ud v:nameU="visVersion" v:val="VT0(11):26"/>
			</v:userDefs>
			<path d="M0 281.81 L12.01 269.8 L24.02 281.81 L12.01 293.82 L0 281.81 Z" class="st17"/>
		</g>
		<g id="shape59-124" v:mID="59" v:groupContext="shape" transform="translate(483.952,-98.3983)">
			<title>Diamond.61</title>
			<v:userDefs>
				<v:ud v:nameU="visVersion" v:val="VT0(11):26"/>
			</v:userDefs>
			<path d="M0 281.81 L12.01 269.8 L24.02 281.81 L12.01 293.82 L0 281.81 Z" class="st17"/>
		</g>
		<g id="group60-126" transform="translate(351.679,-227.835)" v:mID="60" v:groupContext="group">
			<title>Tabelle.60</title>
			<g id="shape61-127" v:mID="61" v:groupContext="shape">
				<title>Tabelle.61</title>
				<rect x="0" y="240.627" width="91.8857" height="53.197" rx="11.3386" ry="11.3386" class="st4"/>
			</g>
			<g id="shape62-129" v:mID="62" v:groupContext="shape" transform="translate(5.77644,-13.7696)">
				<title>Tabelle.62</title>
				<desc>Consumer</desc>
				<v:textBlock v:margins="rect(4,4,4,4)" v:tabSpace="42.5197"/>
				<v:textRect cx="40.6366" cy="280.995" width="81.28" height="25.6577"/>
				<rect x="0" y="268.167" width="81.2732" height="25.6577" class="st5"/>
				<text x="6.01" y="285.2" class="st6" v:langID="1031"><v:paragraph v:horizAlign="1"/><v:tabList/>Consumer</text>			</g>
		</g>
		<g id="shape63-132" v:mID="63" v:groupContext="shape" transform="translate(387.112,-216.472)">
			<title>Diamond.65</title>
			<v:userDefs>
				<v:ud v:nameU="visVersion" v:val="VT0(11):26"/>
			</v:userDefs>
			<path d="M0 281.81 L12.01 269.8 L24.02 281.81 L12.01 293.82 L0 281.81 Z" class="st17"/>
		</g>
		<g id="group64-134" transform="translate(322.913,-96.355)" v:mID="64" v:groupContext="group">
			<title>Tabelle.64</title>
			<g id="shape65-135" v:mID="65" v:groupContext="shape" transform="translate(299.83,293.824) rotate(90) scale(-1,1)">
				<title>Tabelle.65</title>
				<path d="M0 293.82 L16.66 293.82" class="st2"/>
			</g>
			<g id="shape66-138" v:mID="66" v:groupContext="shape" transform="translate(0,560.48) scale(1,-1)">
				<title>Tabelle.66</title>
				<ellipse cx="6.0056" cy="287.819" rx="6.0056" ry="6.0056" class="st3"/>
			</g>
		</g>
		<g id="group67-140" transform="translate(282.976,-43.158)" v:mID="67" v:groupContext="group">
			<title>Tabelle.67</title>
			<g id="shape68-141" v:mID="68" v:groupContext="shape">
				<title>Tabelle.68</title>
				<rect x="0" y="240.627" width="91.8857" height="53.197" rx="11.3386" ry="11.3386" class="st14"/>
			</g>
			<g id="shape69-143" v:mID="69" v:groupContext="shape" transform="translate(5.77644,-13.7696)">
				<title>Tabelle.69</title>
				<desc>Provider A</desc>
				<v:textBlock v:margins="rect(4,4,4,4)" v:tabSpace="42.5197"/>
				<v:textRect cx="40.6366" cy="280.995" width="81.28" height="25.6577"/>
				<rect x="0" y="268.167" width="81.2732" height="25.6577" class="st5"/>
				<text x="5.23" y="285.2" class="st15" v:langID="1031"><v:paragraph v:horizAlign="1"/><v:tabList/>Provider A</text>			</g>
		</g>
		<g id="shape70-146" v:mID="70" v:groupContext="shape" transform="translate(316.907,-84.3438)">
			<title>Diamond.99</title>
			<v:userDefs>
				<v:ud v:nameU="visVersion" v:val="VT0(11):26"/>
			</v:userDefs>
			<path d="M0 281.81 L12.01 269.8 L24.02 281.81 L12.01 293.82 L0 281.81 Z" class="st17"/>
		</g>
		<g id="shape71-148" v:mID="71" v:groupContext="shape" transform="translate(566.638,29.0665) rotate(90)">
			<title>Tabelle.71</title>
			<path d="M0 293.82 L240.94 293.82" class="st18"/>
		</g>
		<g id="shape72-151" v:mID="72" v:groupContext="shape" transform="translate(213.885,-276.701)">
			<title>Tabelle.72</title>
			<desc>No Connection</desc>
			<v:textBlock v:margins="rect(4,4,4,4)" v:tabSpace="42.5197"/>
			<v:textRect cx="58.9287" cy="285.623" width="117.86" height="16.4036"/>
			<rect x="0" y="277.421" width="117.857" height="16.4036" class="st5"/>
			<text x="22.54" y="288.92" class="st19" v:langID="1031"><v:paragraph v:horizAlign="1"/><v:tabList/>No Connection</text>		</g>
		<g id="shape73-154" v:mID="73" v:groupContext="shape" transform="translate(28.0647,-189.57)">
			<title>Tabelle.73</title>
			<desc>Domain A</desc>
			<v:textBlock v:margins="rect(4,4,4,4)" v:tabSpace="42.5197"/>
			<v:textRect cx="51.3377" cy="280.325" width="102.68" height="26.9987"/>
			<rect x="0" y="266.826" width="102.675" height="26.9987" class="st5"/>
			<text x="18.68" y="284.53" class="st6" v:langID="1031"><v:paragraph v:horizAlign="1"/><v:tabList/>Domain A</text>		</g>
		<g id="shape74-157" v:mID="74" v:groupContext="shape" transform="translate(411.056,-195.24)">
			<title>Tabelle.74</title>
			<desc>Domain B</desc>
			<v:textBlock v:margins="rect(4,4,4,4)" v:tabSpace="42.5197"/>
			<v:textRect cx="70.2616" cy="280.325" width="140.53" height="26.9987"/>
			<rect x="0" y="266.826" width="140.523" height="26.9987" class="st5"/>
			<text x="37.58" y="284.53" class="st6" v:langID="1031"><v:paragraph v:horizAlign="1"/><v:tabList/>Domain B</text>		</g>
		<g id="shape75-160" v:mID="75" v:groupContext="shape" transform="translate(43.2397,565.9) scale(1,-1)">
			<title>Tabelle.75</title>
			<ellipse cx="6.32616" cy="287.498" rx="6.32616" ry="6.32616" class="st3"/>
		</g>
		<g id="shape76-162" v:mID="76" v:groupContext="shape" transform="translate(171.965,-5.93166)">
			<title>Diamond.48</title>
			<v:userDefs>
				<v:ud v:nameU="visVersion" v:val="VT0(11):26"/>
			</v:userDefs>
			<path d="M0 284.69 L9.14 275.55 L18.28 284.69 L9.14 293.82 L0 284.69 Z" class="st11"/>
		</g>
		<g id="shape77-164" v:mID="77" v:groupContext="shape" transform="translate(54.5783,-7.08183)">
			<title>Tabelle.77</title>
			<desc>Service Endpoint</desc>
			<v:textBlock v:margins="rect(4,4,4,4)" v:tabSpace="42.5197"/>
			<v:textRect cx="58.9287" cy="285.623" width="117.86" height="16.4036"/>
			<rect x="0" y="277.421" width="117.857" height="16.4036" class="st5"/>
			<text x="17.34" y="288.92" class="st20" v:langID="1031"><v:paragraph v:horizAlign="1"/><v:tabList/>Service Endpoint</text>		</g>
		<g id="shape78-167" v:mID="78" v:groupContext="shape" transform="translate(169.13,-0.72)">
			<title>Tabelle.78</title>
			<desc>ESB-Stub</desc>
			<v:textBlock v:margins="rect(4,4,4,4)" v:tabSpace="42.5197"/>
			<v:textRect cx="58.9287" cy="280.325" width="117.86" height="26.9987"/>
			<rect x="0" y="266.826" width="117.857" height="26.9987" class="st5"/>
			<text x="34.77" y="283.63" class="st20" v:langID="1031"><v:paragraph v:horizAlign="1"/><v:tabList/>ESB-Stub</text>		</g>
		<g id="shape79-170" v:mID="79" v:groupContext="shape" transform="translate(0.72,-19.9073)">
			<title>Tabelle.79</title>
			<desc>Legend:</desc>
			<v:textBlock v:margins="rect(4,4,4,4)" v:tabSpace="42.5197"/>
			<v:textRect cx="58.9287" cy="280.325" width="117.86" height="26.9987"/>
			<rect x="0" y="266.826" width="117.857" height="26.9987" class="st5"/>
			<text x="35.59" y="283.93" class="st8" v:langID="1031"><v:paragraph v:horizAlign="1"/><v:tabList/>Legend:</text>		</g>
	</g>
</svg>
