<?xml version="1.0" encoding="UTF-8" standalone="no"?>
<!-- Created with Inkscape (http://www.inkscape.org/) -->

<svg
   xmlns:dc="http://purl.org/dc/elements/1.1/"
   xmlns:cc="http://creativecommons.org/ns#"
   xmlns:rdf="http://www.w3.org/1999/02/22-rdf-syntax-ns#"
   xmlns:svg="http://www.w3.org/2000/svg"
   xmlns="http://www.w3.org/2000/svg"
   xmlns:xlink="http://www.w3.org/1999/xlink"
   xmlns:sodipodi="http://sodipodi.sourceforge.net/DTD/sodipodi-0.dtd"
   xmlns:inkscape="http://www.inkscape.org/namespaces/inkscape"
   width="391.99997"
   height="208.42856"
   id="svg2"
   version="1.1"
   inkscape:version="0.47 r22583"
   sodipodi:docname="X.svg">
  <defs
     id="defs4">
    <inkscape:perspective
       sodipodi:type="inkscape:persp3d"
       inkscape:vp_x="0 : 526.18109 : 1"
       inkscape:vp_y="0 : 1000 : 0"
       inkscape:vp_z="744.09448 : 526.18109 : 1"
       inkscape:persp3d-origin="372.04724 : 350.78739 : 1"
       id="perspective10" />
    <inkscape:perspective
       id="perspective2863"
       inkscape:persp3d-origin="0.5 : 0.33333333 : 1"
       inkscape:vp_z="1 : 0.5 : 1"
       inkscape:vp_y="0 : 1000 : 0"
       inkscape:vp_x="0 : 0.5 : 1"
       sodipodi:type="inkscape:persp3d" />
    <inkscape:perspective
       id="perspective3448"
       inkscape:persp3d-origin="0.5 : 0.33333333 : 1"
       inkscape:vp_z="1 : 0.5 : 1"
       inkscape:vp_y="0 : 1000 : 0"
       inkscape:vp_x="0 : 0.5 : 1"
       sodipodi:type="inkscape:persp3d" />
    <inkscape:perspective
       id="perspective5077"
       inkscape:persp3d-origin="0.5 : 0.33333333 : 1"
       inkscape:vp_z="1 : 0.5 : 1"
       inkscape:vp_y="0 : 1000 : 0"
       inkscape:vp_x="0 : 0.5 : 1"
       sodipodi:type="inkscape:persp3d" />
  </defs>
  <sodipodi:namedview
     id="base"
     pagecolor="#ffffff"
     bordercolor="#666666"
     borderopacity="1.0"
     inkscape:pageopacity="0.0"
     inkscape:pageshadow="2"
     inkscape:zoom="1.4"
     inkscape:cx="219.04688"
     inkscape:cy="36.714283"
     inkscape:document-units="px"
     inkscape:current-layer="layer1"
     showgrid="false"
     inkscape:window-width="1392"
     inkscape:window-height="985"
     inkscape:window-x="0"
     inkscape:window-y="0"
     inkscape:window-maximized="1" />
  <metadata
     id="metadata7">
    <rdf:RDF>
      <cc:Work
         rdf:about="">
        <dc:format>image/svg+xml</dc:format>
        <dc:type
           rdf:resource="http://purl.org/dc/dcmitype/StillImage" />
        <dc:title></dc:title>
        <dc:contributor>
          <cc:Agent>
            <dc:title>Notebook from http://www.openclipart.org/detail/26427</dc:title>
          </cc:Agent>
        </dc:contributor>
      </cc:Work>
    </rdf:RDF>
  </metadata>
  <g
     inkscape:label="Layer 1"
     inkscape:groupmode="layer"
     id="layer1"
     transform="translate(-146.85714,-360.6479)">
    <path
       sodipodi:type="arc"
       style="opacity:1;color:#000000;fill:none;fill-opacity:1;stroke:#000000;stroke-width:1.76591063000000004;stroke-linecap:butt;stroke-linejoin:miter;stroke-miterlimit:4;stroke-opacity:1;stroke-dasharray:none;stroke-dashoffset:0;marker:none;visibility:visible;display:inline;overflow:visible;enable-background:accumulate"
       id="path4203"
       sodipodi:cx="345.97723"
       sodipodi:cy="472.78717"
       sodipodi:rx="164.65486"
       sodipodi:ry="44.699249"
       d="m 510.6321,472.78717 c 0,24.68671 -73.7185,44.69925 -164.65487,44.69925 -90.93637,0 -164.65486,-20.01254 -164.65486,-44.69925 0,-24.68671 73.71849,-44.69925 164.65486,-44.69925 90.93637,0 164.65487,20.01254 164.65487,44.69925 z"
       transform="matrix(1.0518953,0,0,1.2194108,-15.681729,-113.8361)" />
    <path
       transform="matrix(0.87960683,0,0,1.0196852,41.394236,-18.499772)"
       d="m 510.6321,472.78717 c 0,24.68671 -73.7185,44.69925 -164.65487,44.69925 -90.93637,0 -164.65486,-20.01254 -164.65486,-44.69925 0,-24.68671 73.71849,-44.69925 164.65486,-44.69925 90.93637,0 164.65487,20.01254 164.65487,44.69925 z"
       sodipodi:ry="44.699249"
       sodipodi:rx="164.65486"
       sodipodi:cy="472.78717"
       sodipodi:cx="345.97723"
       id="path4977"
       style="opacity:1;color:#000000;fill:none;fill-opacity:1;stroke:#000000;stroke-width:2.11179923999999986;stroke-linecap:butt;stroke-linejoin:miter;stroke-miterlimit:4;stroke-opacity:1;stroke-dasharray:none;stroke-dashoffset:0;marker:none;visibility:visible;display:inline;overflow:visible;enable-background:accumulate"
       sodipodi:type="arc" />
    <path
       sodipodi:type="arc"
       style="opacity:1;color:#000000;fill:none;fill-opacity:1;stroke:#000000;stroke-width:2.75675868999999985;stroke-linecap:butt;stroke-linejoin:miter;stroke-miterlimit:4;stroke-opacity:1;stroke-dasharray:none;stroke-dashoffset:0;marker:none;visibility:visible;display:inline;overflow:visible;enable-background:accumulate"
       id="path4979"
       sodipodi:cx="345.97723"
       sodipodi:cy="472.78717"
       sodipodi:rx="164.65486"
       sodipodi:ry="44.699249"
       d="m 510.6321,472.78717 c 0,24.68671 -73.7185,44.69925 -164.65487,44.69925 -90.93637,0 -164.65486,-20.01254 -164.65486,-44.69925 0,-24.68671 73.71849,-44.69925 164.65486,-44.69925 90.93637,0 164.65487,20.01254 164.65487,44.69925 z"
       transform="matrix(0.67381783,0,0,0.78112407,108.51275,95.42973)" />
    <path
       transform="matrix(0.52067253,0,0,0.6035902,161.49754,179.36546)"
       d="m 510.6321,472.78717 c 0,24.68671 -73.7185,44.69925 -164.65487,44.69925 -90.93637,0 -164.65486,-20.01254 -164.65486,-44.69925 0,-24.68671 73.71849,-44.69925 164.65486,-44.69925 90.93637,0 164.65487,20.01254 164.65487,44.69925 z"
       sodipodi:ry="44.699249"
       sodipodi:rx="164.65486"
       sodipodi:cy="472.78717"
       sodipodi:cx="345.97723"
       id="path4981"
       style="opacity:1;color:#000000;fill:none;fill-opacity:1;stroke:#000000;stroke-width:3.56760335000000017;stroke-linecap:butt;stroke-linejoin:miter;stroke-miterlimit:4;stroke-opacity:1;stroke-dasharray:none;stroke-dashoffset:0;marker:none;visibility:visible;display:inline;overflow:visible;enable-background:accumulate"
       sodipodi:type="arc" />
    <path
       sodipodi:type="arc"
       style="opacity:1;color:#000000;fill:none;fill-opacity:1;stroke:#000000;stroke-width:4.80397034000000023;stroke-linecap:butt;stroke-linejoin:miter;stroke-miterlimit:4;stroke-opacity:1;stroke-dasharray:none;stroke-dashoffset:0;marker:none;visibility:visible;display:inline;overflow:visible;enable-background:accumulate"
       id="path4983"
       sodipodi:cx="345.97723"
       sodipodi:cy="472.78717"
       sodipodi:rx="164.65486"
       sodipodi:ry="44.699249"
       d="m 510.6321,472.78717 c 0,24.68671 -73.7185,44.69925 -164.65487,44.69925 -90.93637,0 -164.65486,-20.01254 -164.65486,-44.69925 0,-24.68671 73.71849,-44.69925 164.65486,-44.69925 90.93637,0 164.65487,20.01254 164.65487,44.69925 z"
       transform="matrix(0.38667039,0,0,0.44824807,207.85923,252.80923)" />
    <path
       transform="matrix(0.24309666,0,0,0.28181007,257.53247,331.49898)"
       d="m 510.6321,472.78717 c 0,24.68671 -73.7185,44.69925 -164.65487,44.69925 -90.93637,0 -164.65486,-20.01254 -164.65486,-44.69925 0,-24.68671 73.71849,-44.69925 164.65486,-44.69925 90.93637,0 164.65487,20.01254 164.65487,44.69925 z"
       sodipodi:ry="44.699249"
       sodipodi:rx="164.65486"
       sodipodi:cy="472.78717"
       sodipodi:cx="345.97723"
       id="path4985"
       style="opacity:1;color:#000000;fill:none;fill-opacity:1;stroke:#000000;stroke-width:7.64121199000000040;stroke-linecap:butt;stroke-linejoin:miter;stroke-miterlimit:4;stroke-opacity:1;stroke-dasharray:none;stroke-dashoffset:0;marker:none;visibility:visible;display:inline;overflow:visible;enable-background:accumulate"
       sodipodi:type="arc" />
    <g
       transform="matrix(0.16356277,0,0,0.16356277,138.66816,444.8166)"
       id="g13349">
      <path
         d="m 457.6931,531.23993 -49.35862,36.12847 -11.19474,8.65048 -13.73899,0 -13.23015,-3.56196 -192.34594,-49.86747 -32.56651,-8.65048 -0.50885,-3.05311 5.59737,-2.54426 33.07536,-10.17703 194.38135,26.46029 56.99139,-0.50886 22.89833,7.12393 z"
         id="path1318"
         style="fill:#0c0d0d;fill-opacity:0.4642857;fill-rule:evenodd;stroke:none" />
      <path
         d="m 144.319,498.16042 c 0.55938,1.81797 1.11875,3.63595 1.67813,5.45392 2.09766,0.27969 4.19532,0.55937 6.29298,0.83906 86.64464,22.82164 169.72731,44.62557 237.03558,60.83214 4.89454,-1.2586 9.78908,-2.51719 14.68362,-3.77579 16.92112,-12.16643 33.84225,-24.33285 50.76337,-36.49928 0.69922,1.39844 1.39844,2.79688 2.09766,4.19532 2.37735,-1.67813 4.75469,-3.35625 7.13204,-5.03438 13.00549,-10.06877 26.01099,-20.13754 39.01648,-30.20631 0.83906,-1.81797 1.67813,-3.63594 2.51719,-5.45391 0.55938,-0.41953 1.11875,-0.83907 1.67813,-1.2586 0,0 0,0 0,-2.51719 0,-2.51719 0,-4.61485 0,-4.61485 -21.39613,14.54377 -42.79227,29.08755 -64.1884,43.63132 -0.41953,0 -0.83906,0 -1.25859,0 -0.27969,0.13985 -0.55938,0.27969 -0.83907,0.41954 -0.27969,0.55937 -0.55937,1.11875 -0.83906,1.67812 -1.11875,0.55938 -2.23751,1.11875 -3.35626,1.67813 -0.41953,0 -0.83906,0 -1.25859,0 -0.13985,0.69922 -0.27969,1.39844 -0.41954,2.09766 -1.53828,0.83906 -3.07657,1.67813 -4.61485,2.51719 -0.55938,0 -1.11875,0 -1.67813,0 -1.39844,1.2586 -2.79687,2.51719 -4.19531,3.77579 -0.27969,0.55938 -0.55938,1.11875 -0.83907,1.67813 -6.57267,4.61485 -13.14533,9.22971 -19.718,13.84456 -1.81797,2.09766 -3.63595,4.19532 -5.45392,6.29298 -2.51719,0.69922 -5.03438,1.39844 -7.55157,2.09766 C 307.24899,540.80112 224.00301,520.24405 144.319,498.16042 z"
         id="path1316"
         sodipodi:nodetypes="cccccccccccscccccccccccccccc"
         style="fill:#404348;fill-opacity:1;fill-rule:evenodd;stroke:#000000;stroke-width:1px;stroke-linecap:butt;stroke-linejoin:miter;stroke-opacity:1" />
      <path
         d="m 507.32515,478.88631 c -27.81723,18.14904 -55.63445,36.29809 -83.45168,54.44713 -7.29354,5.08852 -14.58708,10.17703 -21.88062,15.26555 -2.54426,2.03541 -5.08852,4.07082 -7.63278,6.10623 -2.54426,0 -5.08851,0 -7.63277,0 -20.69331,-2.54426 -39.86005,-9.15933 -60.55336,-13.739 -60.72297,-14.07823 -119.41053,-28.15646 -182.16891,-46.81436 -0.16962,1.35694 -0.33923,2.71388 -0.50885,4.07082 82.60359,20.6933 165.20719,41.3866 247.81078,62.0799 2.37464,-1.0177 4.74929,-2.03541 7.12393,-3.05311 2.03541,-2.54426 4.07081,-5.08851 6.10622,-7.63277 4.74928,-2.54426 9.49856,-5.08852 14.24784,-7.63278 1.35694,-1.18732 2.71388,-2.37464 4.07082,-3.56196 0.84809,-1.35694 1.69617,-2.71387 2.54426,-4.07081 1.35694,-0.84809 2.71387,-1.69617 4.07081,-2.54426 0.84809,0.16962 1.69617,0.33923 2.54426,0.50885 0.84809,-0.84809 1.69617,-1.69617 2.54426,-2.54426 0.16962,-0.67847 0.33923,-1.35694 0.50885,-2.03541 0.67847,0 1.35693,0 2.0354,0 1.18732,-0.67847 2.37465,-1.35693 3.56197,-2.0354 0,-0.50885 0,-1.01771 0,-1.52656 1.18732,-0.33923 2.37464,-0.67847 3.56196,-1.0177 6.95431,-4.74928 13.90861,-9.49857 20.86292,-14.24785 14.07823,-10.00742 28.15646,-20.01483 42.23469,-30.02225 z"
         id="path1320"
         sodipodi:nodetypes="cccccccccccccccccccccccc"
         style="fill:#ffffff;fill-opacity:1;fill-rule:evenodd;stroke:none" />
      <path
         d="m 505.98161,478.68538 -93.11986,62.58876 -13.23015,8.65048 -6.10622,4.07081 -2.54426,0.50885 -5.59737,-0.50885 -5.59736,0.50885 -24.93374,-6.10622 -121.61556,-29.5134 -72.76579,-19.33636 -15.26555,-4.57967 -2.54426,-2.0354 1.0177,-1.52656 6.61508,-2.54426 59.53565,-20.86292 -6.61508,3.05311 5.08852,2.54426 60.0445,11.70359 7.12393,-2.03541 13.73899,2.03541 35.61962,8.14163 1.52656,2.54426 -1.01771,1.52655 99.73494,21.37177 10.17703,2.03541 5.08852,-3.05311 58.51794,-37.14618 0.50886,-1.52655 6.61507,-0.50885 z"
         id="path2049"
         style="fill:#cecdc9;fill-opacity:1;fill-rule:evenodd;stroke:#414746;stroke-width:0.5;stroke-linecap:butt;stroke-linejoin:miter;stroke-miterlimit:4;stroke-opacity:1;stroke-dasharray:none" />
      <path
         d="m 276.33662,487.33585 -23.91603,11.70359 44.77895,9.15933 21.37177,-11.19473 0,-1.52656 -42.23469,-8.14163 z"
         id="path2779"
         style="fill:#e0e0e2;fill-opacity:1;fill-rule:evenodd;stroke:#59595e;stroke-width:1px;stroke-linecap:butt;stroke-linejoin:miter;stroke-opacity:1" />
      <path
         d="m 304.83231,510.23418 -4.57966,3.05311 -6.10622,0 -48.84977,-9.66818 -2.54426,-2.03541 0.50886,-2.03541 4.07081,-2.0354 3.56196,0 53.93828,12.72129 z"
         id="path2781"
         style="fill:#cbcbcd;fill-opacity:1;fill-rule:evenodd;stroke:#524a50;stroke-width:0.5;stroke-linecap:butt;stroke-linejoin:miter;stroke-miterlimit:4;stroke-opacity:1;stroke-dasharray:none" />
      <path
         d="m 266.66844,504.12797 -11.19474,4.57966 -1.52655,2.54426 3.56196,1.01771 6.61507,0.50885 8.65048,-3.56196 3.56196,-2.54426 -2.03541,-2.03541 -7.63277,-0.50885 z"
         id="path2777"
         style="fill:#a5a5a5;fill-opacity:1;fill-rule:evenodd;stroke:#555959;stroke-width:1px;stroke-linecap:butt;stroke-linejoin:miter;stroke-opacity:1" />
      <path
         d="m 269.72155,519.90236 5.08852,1.52656 2.0354,-1.0177 0.50886,-1.52656 -6.10622,-1.52655 -1.52656,2.54425 z"
         id="path4961"
         style="fill:#454344;fill-opacity:1;fill-rule:evenodd;stroke:#000000;stroke-width:1px;stroke-linecap:butt;stroke-linejoin:miter;stroke-opacity:1" />
      <path
         d="m 427.43543,513.99708 39.18158,-21.88062 8.14163,-4.07082 2.03541,-4.57966 -198.45217,-35.11077 -54.44713,19.84522 4.07081,3.05311 164.3591,34.09306 -3.05311,1.0177 38.16388,7.63278 z m 70.22154,-35.11077 0,0 z m -3.56196,4.57967 -48.84977,32.05765 -7.63277,3.05311 -7.12393,0 -20.35407,-4.07081 -83.96053,-18.31866 -0.50885,-3.05311 -3.56196,-1.52656 -43.76125,-9.66818 -7.63277,1.0177 -4.57967,1.52656 -60.55335,-12.72129 -2.03541,-1.52656 0.50885,-2.0354 78.87202,-25.95144 5.59737,-0.50885 54.95598,8.65048 124.15982,21.88062 25.95143,5.08852 5.59737,1.0177 -0.50885,2.03541 -4.57966,3.05311 z"
         id="path4963"
         style="fill:#939192;fill-opacity:1;fill-rule:evenodd;stroke:#000000;stroke-width:1px;stroke-linecap:butt;stroke-linejoin:miter;stroke-opacity:1" />
      <path
         d="m 475.85951,484.04815 -34.92255,21.97254 32.26886,-18.25738 1.69836,-0.74304 0.95533,-2.97212 z"
         id="path4973"
         sodipodi:nodetypes="ccccc"
         style="fill:#ffffff;fill-opacity:1;fill-rule:evenodd;stroke:none" />
      <path
         d="m 350.65332,277.68888 198.70823,8.4918 -45.85575,162.19347 -205.50167,-29.72131 52.64919,-140.96396 z"
         id="path5703"
         style="fill:#000000;fill-opacity:1;fill-rule:evenodd;stroke:#000000;stroke-width:1px;stroke-linecap:butt;stroke-linejoin:miter;stroke-opacity:1" />
      <path
         d="m 351.70743,277.78707 198.70823,8.4918 -45.85575,162.19347 -205.50167,-29.72131 52.64919,-140.96396 z m 157.09839,194.46233 52.64919,-190.21643 -1.69837,-4.2459 -6.79344,-2.54754 -13.58689,-1.69837 -189.36724,-6.79344 -3.39673,2.54754 -58.59345,164.74101 5.09508,5.94427 50.95083,7.64262 2.54754,-10.19016 24.62624,4.2459 -1.69836,7.64262 1.69836,5.09509 132.47215,19.53115 5.09509,-1.69836 z"
         id="path5701"
         style="fill:#ffffff;fill-opacity:1;fill-rule:evenodd;stroke:#000000;stroke-width:1px;stroke-linecap:butt;stroke-linejoin:miter;stroke-opacity:1" />
      <path
         d="m 416.94763,402.73911 c 0,1.87595 -1.52077,3.39672 -3.39673,3.39672 -1.87595,0 -3.39672,-1.52077 -3.39672,-3.39672 0,-1.87596 1.52077,-3.39673 3.39672,-3.39673 1.87596,0 3.39673,1.52077 3.39673,3.39673 z"
         id="path5710"
         sodipodi:cx="413.5509"
         sodipodi:cy="402.73911"
         sodipodi:rx="3.3967218"
         sodipodi:ry="3.3967218"
         sodipodi:type="arc"
         style="fill:#000000;fill-opacity:1;stroke:none"
         transform="matrix(0.52424,0,0,0.52424,171.4076,234.8891)" />
      <path
         d="m 416.94763,402.73911 c 0,1.87595 -1.52077,3.39672 -3.39673,3.39672 -1.87595,0 -3.39672,-1.52077 -3.39672,-3.39672 0,-1.87596 1.52077,-3.39673 3.39672,-3.39673 1.87596,0 3.39673,1.52077 3.39673,3.39673 z"
         id="path6440"
         sodipodi:cx="413.5509"
         sodipodi:cy="402.73911"
         sodipodi:rx="3.3967218"
         sodipodi:ry="3.3967218"
         sodipodi:type="arc"
         style="fill:#000000;fill-opacity:1;stroke:none"
         transform="matrix(0.52424,0,0,0.52424,179.7138,236.1077)" />
      <path
         d="m 416.94763,402.73911 c 0,1.87595 -1.52077,3.39672 -3.39673,3.39672 -1.87595,0 -3.39672,-1.52077 -3.39672,-3.39672 0,-1.87596 1.52077,-3.39673 3.39672,-3.39673 1.87596,0 3.39673,1.52077 3.39673,3.39673 z"
         id="path6442"
         sodipodi:cx="413.5509"
         sodipodi:cy="402.73911"
         sodipodi:rx="3.3967218"
         sodipodi:ry="3.3967218"
         sodipodi:type="arc"
         style="fill:#000000;fill-opacity:1;stroke:none"
         transform="matrix(0.52424,0,0,0.52424,187.0261,237.1521)" />
      <path
         d="m 416.94763,402.73911 c 0,1.87595 -1.52077,3.39672 -3.39673,3.39672 -1.87595,0 -3.39672,-1.52077 -3.39672,-3.39672 0,-1.87596 1.52077,-3.39673 3.39672,-3.39673 1.87596,0 3.39673,1.52077 3.39673,3.39673 z"
         id="path6444"
         sodipodi:cx="413.5509"
         sodipodi:cy="402.73911"
         sodipodi:rx="3.3967218"
         sodipodi:ry="3.3967218"
         sodipodi:type="arc"
         style="fill:#000000;fill-opacity:1;stroke:none"
         transform="matrix(0.52424,0,0,0.52424,193.5815,238.3358)" />
      <path
         d="m 285.63627,429.08304 3.20041,7.20092 3.2004,-0.80011 0,5.60071 -4.80061,-3.2004 -1.6002,-8.80112 z"
         id="path6446"
         style="fill:#78797b;fill-opacity:1;fill-rule:evenodd;stroke:none" />
      <path
         d="m 297.50241,431.25366 -2.59044,-0.39853 -1.79338,3.9853 -0.79706,1.59411 0.39853,3.38751 0.39853,1.99265 2.39118,0.79705 0.79706,-1.19558 0,-2.19192 -0.39853,-1.79338 0,-2.19191 1.59411,-2.39118 0,-1.59412 z"
         id="path7174"
         style="fill:#1c1b21;fill-opacity:1;fill-rule:evenodd;stroke:#000000;stroke-width:1px;stroke-linecap:butt;stroke-linejoin:miter;stroke-opacity:1" />
      <path
         d="m 296.9425,438.46583 43.25032,7.1008 0,3.22764 -41.31374,-7.1008 -1.93658,-3.22764 z"
         id="path7176"
         style="fill:#6a6a6b;fill-opacity:1;fill-rule:evenodd;stroke:none" />
      <path
         d="m 342.77493,448.79427 -0.64552,-4.51869 3.87316,-4.51869 23.8845,3.87316 -1.29105,4.51869 0,4.51869 -25.82109,-3.87316 z"
         id="path7904"
         style="fill:#424041;fill-opacity:1;fill-rule:evenodd;stroke:#000000;stroke-width:1px;stroke-linecap:butt;stroke-linejoin:miter;stroke-opacity:1" />
      <path
         d="m 345.63607,440.61481 -1.6617,1.89911 24.3322,3.6795 1.42433,-1.66172 -24.09483,-3.91689 z"
         id="path7906"
         sodipodi:nodetypes="ccccc"
         style="fill:#f4f3ee;fill-opacity:0.4107143;fill-rule:evenodd;stroke:none" />
      <path
         d="m 369.56539,450.47664 119.86595,19.42391 0,3.32251 -119.3548,-20.70179 -0.51115,-2.04463 z"
         id="path8634"
         style="fill:#6a6a6b;fill-opacity:1;fill-rule:evenodd;stroke:none" />
      <path
         d="m 491.28555,474.61928 -0.86581,-2.84481 0.12369,-1.979 0.86581,-3.33955 1.73162,-3.58693 3.33956,0.49475 -0.49475,2.59743 -1.48425,2.35006 c 0,0 -0.61843,2.22637 -0.61843,2.72112 0,0.49475 0.12368,2.72112 0.12368,2.72112 l 0.37106,1.36055 -3.09218,-0.49474 z"
         id="path9362"
         style="fill:#353533;fill-opacity:1;fill-rule:evenodd;stroke:#000000;stroke-width:1px;stroke-linecap:butt;stroke-linejoin:miter;stroke-opacity:1" />
      <path
         d="m 487.54953,459.08688 c 0,0.8135 -0.65947,1.47296 -1.47296,1.47296 -0.81349,0 -1.47296,-0.65946 -1.47296,-1.47296 0,-0.81349 0.65947,-1.47296 1.47296,-1.47296 0.81349,0 1.47296,0.65947 1.47296,1.47296 z"
         id="path9364"
         sodipodi:cx="486.07657"
         sodipodi:cy="459.08688"
         sodipodi:rx="1.4729594"
         sodipodi:ry="1.4729594"
         sodipodi:type="arc"
         style="fill:#030000;fill-opacity:1;stroke:none"
         transform="matrix(1.555556,0,0,1.555556,-270.0425,-255.0483)" />
      <path
         d="m 416.94763,402.73911 c 0,1.87595 -1.52077,3.39672 -3.39673,3.39672 -1.87595,0 -3.39672,-1.52077 -3.39672,-3.39672 0,-1.87596 1.52077,-3.39673 3.39672,-3.39673 1.87596,0 3.39673,1.52077 3.39673,3.39673 z"
         id="path10092"
         sodipodi:cx="413.5509"
         sodipodi:cy="402.73911"
         sodipodi:rx="3.3967218"
         sodipodi:ry="3.3967218"
         sodipodi:type="arc"
         style="fill:#000000;fill-opacity:1;stroke:none"
         transform="matrix(0.52424,0,0,0.52424,199.898,239.2676)" />
      <path
         d="m 416.94763,402.73911 c 0,1.87595 -1.52077,3.39672 -3.39673,3.39672 -1.87595,0 -3.39672,-1.52077 -3.39672,-3.39672 0,-1.87596 1.52077,-3.39673 3.39672,-3.39673 1.87596,0 3.39673,1.52077 3.39673,3.39673 z"
         id="path10094"
         sodipodi:cx="413.5509"
         sodipodi:cy="402.73911"
         sodipodi:rx="3.3967218"
         sodipodi:ry="3.3967218"
         sodipodi:type="arc"
         style="fill:#000000;fill-opacity:1;stroke:none"
         transform="matrix(0.52424,0,0,0.52424,207.5076,240.8516)" />
      <g
         id="g11792"
         transform="matrix(1.135954,0,0,0.881004,-272.0857,-176.6878)">
        <path
           d="m 517.05812,722.17999 -0.055,0.81712 8.56059,2.05342 0.93912,-0.36119 4.76766,-3.10623 -0.0722,-1.01133 -8.37958,-1.37252 -5.76061,2.98073 z"
           id="path10826"
           sodipodi:nodetypes="cccccccc"
           style="fill:#5c575b;fill-opacity:1;fill-rule:evenodd;stroke:none" />
        <path
           d="m 525.55974,724.0255 5.69964,-3.23285 -0.0891,0.72296 -4.85379,3.05346 -0.72238,0.28895 -0.72237,-0.28895 -7.72948,-1.80595 0.0724,-0.68759 8.34515,1.94997 z"
           id="path10828"
           sodipodi:nodetypes="ccccccccc"
           style="fill:#fefefd;fill-opacity:1;fill-rule:evenodd;stroke:none" />
        <path
           d="m 507.26354,719.73135 -0.055,0.81711 8.5606,2.05343 0.93912,-0.36119 4.76768,-3.10623 -0.0722,-1.01133 -8.37961,-1.37252 -5.76061,2.98073 z"
           id="path11556"
           sodipodi:nodetypes="cccccccc"
           style="fill:#5c575b;fill-opacity:1;fill-rule:evenodd;stroke:none" />
        <path
           d="m 515.76517,721.57686 5.69966,-3.23285 -0.0891,0.72296 -4.85382,3.05346 -0.72237,0.28895 -0.72237,-0.28895 -7.72948,-1.80595 0.0724,-0.68759 8.34515,1.94997 z"
           id="path11558"
           sodipodi:nodetypes="ccccccccc"
           style="fill:#fefefd;fill-opacity:1;fill-rule:evenodd;stroke:none" />
        <path
           d="m 497.16289,717.58879 -0.055,0.81711 8.5606,2.05342 0.93912,-0.36119 4.76768,-3.10622 -0.0722,-1.01133 -8.3796,-1.37253 -5.76061,2.98074 z"
           id="path11560"
           sodipodi:nodetypes="cccccccc"
           style="fill:#5c575b;fill-opacity:1;fill-rule:evenodd;stroke:none" />
        <path
           d="m 505.66452,719.4343 5.69965,-3.23285 -0.0891,0.72296 -4.85382,3.05345 -0.72237,0.28896 -0.72238,-0.28896 -7.72948,-1.80594 0.0724,-0.6876 8.34515,1.94998 z"
           id="path11562"
           sodipodi:nodetypes="ccccccccc"
           style="fill:#fefefd;fill-opacity:1;fill-rule:evenodd;stroke:none" />
        <path
           d="m 487.06224,715.44622 -0.055,0.81712 8.56059,2.05342 0.93913,-0.36118 4.76768,-3.10623 -0.0722,-1.01133 -8.3796,-1.37252 -5.76061,2.98072 z"
           id="path11564"
           sodipodi:nodetypes="cccccccc"
           style="fill:#5c575b;fill-opacity:1;fill-rule:evenodd;stroke:none" />
        <path
           d="m 495.56386,717.29174 5.69966,-3.23285 -0.0891,0.72296 -4.85382,3.05346 -0.72238,0.28895 -0.72237,-0.28895 -7.72948,-1.80595 0.0724,-0.68759 8.34514,1.94997 z"
           id="path11566"
           sodipodi:nodetypes="ccccccccc"
           style="fill:#fefefd;fill-opacity:1;fill-rule:evenodd;stroke:none" />
        <path
           d="m 477.57375,712.99759 -0.055,0.8171 8.56059,2.05343 0.93912,-0.36119 4.76769,-3.10623 -0.0722,-1.01132 -8.37961,-1.37253 -5.76061,2.98074 z"
           id="path11568"
           sodipodi:nodetypes="cccccccc"
           style="fill:#5c575b;fill-opacity:1;fill-rule:evenodd;stroke:none" />
        <path
           d="m 486.07537,714.84309 5.69966,-3.23285 -0.0891,0.72296 -4.85381,3.05346 -0.72238,0.28895 -0.72237,-0.28895 -7.72948,-1.80594 0.0724,-0.6876 8.34515,1.94997 z"
           id="path11570"
           sodipodi:nodetypes="ccccccccc"
           style="fill:#fefefd;fill-opacity:1;fill-rule:evenodd;stroke:none" />
        <path
           d="m 510.32435,726.15904 -0.055,0.8171 8.56059,2.05344 0.93914,-0.3612 4.76762,-3.10623 -0.0722,-1.01132 -8.37955,-1.37252 -5.76062,2.98073 z"
           id="path11572"
           sodipodi:nodetypes="cccccccc"
           style="fill:#5c575b;fill-opacity:1;fill-rule:evenodd;stroke:none" />
        <path
           d="m 518.82597,728.00455 5.69962,-3.23286 -0.0891,0.72296 -4.85375,3.05346 -0.7224,0.28895 -0.72237,-0.28895 -7.72947,-1.80594 0.0724,-0.6876 8.34514,1.94998 z"
           id="path11574"
           sodipodi:nodetypes="ccccccccc"
           style="fill:#fefefd;fill-opacity:1;fill-rule:evenodd;stroke:none" />
        <path
           d="m 500.52977,723.71039 -0.0549,0.81712 8.56059,2.05342 0.93912,-0.36119 4.76769,-3.10622 -0.0722,-1.01134 -8.37961,-1.37252 -5.76062,2.98073 z"
           id="path11576"
           sodipodi:nodetypes="cccccccc"
           style="fill:#5c575b;fill-opacity:1;fill-rule:evenodd;stroke:none" />
        <path
           d="m 509.0314,725.5559 5.69967,-3.23284 -0.0892,0.72295 -4.85381,3.05346 -0.72237,0.28895 -0.72238,-0.28895 -7.72947,-1.80595 0.0724,-0.68759 8.34515,1.94997 z"
           id="path11578"
           sodipodi:nodetypes="ccccccccc"
           style="fill:#fefefd;fill-opacity:1;fill-rule:evenodd;stroke:none" />
        <path
           d="m 490.42912,721.56783 -0.055,0.81711 8.56059,2.05342 0.93912,-0.36118 4.76768,-3.10623 -0.0722,-1.01133 -8.3796,-1.37252 -5.76062,2.98073 z"
           id="path11580"
           sodipodi:nodetypes="cccccccc"
           style="fill:#5c575b;fill-opacity:1;fill-rule:evenodd;stroke:none" />
        <path
           d="m 498.93075,723.41334 5.69966,-3.23285 -0.0891,0.72296 -4.85381,3.05346 -0.72238,0.28895 -0.72238,-0.28895 -7.72947,-1.80595 0.0724,-0.68759 8.34515,1.94997 z"
           id="path11582"
           sodipodi:nodetypes="ccccccccc"
           style="fill:#fefefd;fill-opacity:1;fill-rule:evenodd;stroke:none" />
        <path
           d="m 480.32847,719.42527 -0.0549,0.81711 8.56059,2.05343 0.93912,-0.36119 4.76768,-3.10623 -0.0722,-1.01133 -8.3796,-1.37252 -5.76062,2.98073 z"
           id="path11584"
           sodipodi:nodetypes="cccccccc"
           style="fill:#5c575b;fill-opacity:1;fill-rule:evenodd;stroke:none" />
        <path
           d="m 488.8301,721.27078 5.69966,-3.23285 -0.0891,0.72296 -4.85381,3.05346 -0.72238,0.28895 -0.72238,-0.28895 -7.72947,-1.80595 0.0724,-0.68759 8.34515,1.94997 z"
           id="path11586"
           sodipodi:nodetypes="ccccccccc"
           style="fill:#fefefd;fill-opacity:1;fill-rule:evenodd;stroke:none" />
        <path
           d="m 470.83998,716.97663 -0.055,0.81711 8.56058,2.05342 0.93913,-0.36119 4.76768,-3.10622 -0.0722,-1.01133 -8.3796,-1.37253 -5.76062,2.98074 z"
           id="path11588"
           sodipodi:nodetypes="cccccccc"
           style="fill:#5c575b;fill-opacity:1;fill-rule:evenodd;stroke:none" />
        <path
           d="m 479.3416,718.82213 5.69967,-3.23284 -0.0891,0.72296 -4.85381,3.05346 -0.72238,0.28895 -0.72238,-0.28895 -7.72947,-1.80595 0.0724,-0.6876 8.34514,1.94997 z"
           id="path11590"
           sodipodi:nodetypes="ccccccccc"
           style="fill:#fefefd;fill-opacity:1;fill-rule:evenodd;stroke:none" />
        <path
           d="m 503.59059,730.75024 -0.055,0.81711 8.56059,2.05343 0.93913,-0.36119 4.76763,-3.10623 -0.0722,-1.01133 -8.37955,-1.37252 -5.76061,2.98073 z"
           id="path11592"
           sodipodi:nodetypes="cccccccc"
           style="fill:#5c575b;fill-opacity:1;fill-rule:evenodd;stroke:none" />
        <path
           d="m 512.0922,732.59575 5.69962,-3.23285 -0.0891,0.72296 -4.85376,3.05346 -0.72239,0.28894 -0.72237,-0.28894 -7.72948,-1.80595 0.0724,-0.68759 8.34514,1.94997 z"
           id="path11594"
           sodipodi:nodetypes="ccccccccc"
           style="fill:#fefefd;fill-opacity:1;fill-rule:evenodd;stroke:none" />
        <path
           d="m 493.79601,728.3016 -0.055,0.81711 8.56058,2.05342 0.93912,-0.36118 4.76769,-3.10623 -0.0722,-1.01134 -8.3796,-1.37252 -5.76062,2.98074 z"
           id="path11596"
           sodipodi:nodetypes="cccccccc"
           style="fill:#5c575b;fill-opacity:1;fill-rule:evenodd;stroke:none" />
        <path
           d="m 502.29763,730.1471 5.69967,-3.23284 -0.0891,0.72296 -4.85381,3.05346 -0.72238,0.28895 -0.72237,-0.28895 -7.72948,-1.80596 0.0724,-0.68759 8.34515,1.94997 z"
           id="path11598"
           sodipodi:nodetypes="ccccccccc"
           style="fill:#fefefd;fill-opacity:1;fill-rule:evenodd;stroke:none" />
        <path
           d="m 483.69536,726.15904 -0.055,0.8171 8.56059,2.05344 0.93912,-0.3612 4.76769,-3.10623 -0.0722,-1.01132 -8.37961,-1.37252 -5.76061,2.98073 z"
           id="path11600"
           sodipodi:nodetypes="cccccccc"
           style="fill:#5c575b;fill-opacity:1;fill-rule:evenodd;stroke:none" />
        <path
           d="m 492.19698,728.00455 5.69967,-3.23286 -0.0892,0.72296 -4.85381,3.05346 -0.72237,0.28895 -0.72238,-0.28895 -7.72948,-1.80594 0.0724,-0.6876 8.34515,1.94998 z"
           id="path11602"
           sodipodi:nodetypes="ccccccccc"
           style="fill:#fefefd;fill-opacity:1;fill-rule:evenodd;stroke:none" />
        <path
           d="m 473.59471,724.01648 -0.055,0.81711 8.56059,2.05342 0.93912,-0.36119 4.76768,-3.10623 -0.0722,-1.01133 -8.3796,-1.37252 -5.76061,2.98074 z"
           id="path11604"
           sodipodi:nodetypes="cccccccc"
           style="fill:#5c575b;fill-opacity:1;fill-rule:evenodd;stroke:none" />
        <path
           d="m 482.09633,725.86198 5.69966,-3.23284 -0.0891,0.72295 -4.85381,3.05346 -0.72237,0.28895 -0.72238,-0.28895 -7.72948,-1.80595 0.0724,-0.68759 8.34515,1.94997 z"
           id="path11606"
           sodipodi:nodetypes="ccccccccc"
           style="fill:#fefefd;fill-opacity:1;fill-rule:evenodd;stroke:none" />
        <path
           d="m 464.10622,721.56783 -0.055,0.81711 8.56058,2.05342 0.93913,-0.36118 4.76768,-3.10623 -0.0722,-1.01133 -8.3796,-1.37252 -5.76061,2.98073 z"
           id="path11608"
           sodipodi:nodetypes="cccccccc"
           style="fill:#5c575b;fill-opacity:1;fill-rule:evenodd;stroke:none" />
        <path
           d="m 472.60783,723.41334 5.69967,-3.23285 -0.0891,0.72296 -4.85382,3.05346 -0.72238,0.28895 -0.72237,-0.28895 -7.72948,-1.80595 0.0724,-0.68759 8.34513,1.94997 z"
           id="path11610"
           sodipodi:nodetypes="ccccccccc"
           style="fill:#fefefd;fill-opacity:1;fill-rule:evenodd;stroke:none" />
        <path
           d="m 565.33192,734.24843 -0.055,0.81712 8.56066,2.05342 0.9391,-0.36119 4.76762,-3.10623 -0.0722,-1.01132 -8.37957,-1.37252 -5.76058,2.98072 z"
           id="path11612"
           sodipodi:nodetypes="cccccccc"
           style="fill:#5c575b;fill-opacity:1;fill-rule:evenodd;stroke:none" />
        <path
           d="m 573.83354,736.09395 5.69964,-3.23286 -0.0892,0.72296 -4.85376,3.05346 -0.72236,0.28895 -0.72235,-0.28895 -7.72952,-1.80594 0.0724,-0.68759 8.34516,1.94997 z"
           id="path11614"
           sodipodi:nodetypes="ccccccccc"
           style="fill:#fefefd;fill-opacity:1;fill-rule:evenodd;stroke:none" />
        <path
           d="m 555.53735,731.79979 -0.055,0.81712 8.56057,2.05342 0.93918,-0.36119 4.76763,-3.10623 -0.0722,-1.01133 -8.37958,-1.37252 -5.76058,2.98073 z"
           id="path11616"
           sodipodi:nodetypes="cccccccc"
           style="fill:#5c575b;fill-opacity:1;fill-rule:evenodd;stroke:none" />
        <path
           d="m 564.03897,733.6453 5.69964,-3.23285 -0.0891,0.72296 -4.85384,3.05346 -0.72236,0.28895 -0.72244,-0.28895 -7.72944,-1.80595 0.0724,-0.68759 8.34515,1.94997 z"
           id="path11618"
           sodipodi:nodetypes="ccccccccc"
           style="fill:#fefefd;fill-opacity:1;fill-rule:evenodd;stroke:none" />
        <path
           d="m 545.4367,729.65723 -0.055,0.81711 8.56058,2.05342 0.93918,-0.36118 4.76763,-3.10623 -0.0722,-1.01133 -8.37958,-1.37253 -5.76058,2.98074 z"
           id="path11620"
           sodipodi:nodetypes="cccccccc"
           style="fill:#5c575b;fill-opacity:1;fill-rule:evenodd;stroke:none" />
        <path
           d="m 553.93832,731.50274 5.69964,-3.23285 -0.0891,0.72296 -4.85384,3.05346 -0.72236,0.28895 -0.72244,-0.28895 -7.72944,-1.80595 0.0724,-0.68759 8.34516,1.94997 z"
           id="path11622"
           sodipodi:nodetypes="ccccccccc"
           style="fill:#fefefd;fill-opacity:1;fill-rule:evenodd;stroke:none" />
        <path
           d="m 535.33602,727.51467 -0.0549,0.81711 8.56055,2.05343 0.93918,-0.36119 4.76762,-3.10623 -0.0722,-1.01133 -8.37957,-1.37252 -5.76061,2.98073 z"
           id="path11624"
           sodipodi:nodetypes="cccccccc"
           style="fill:#5c575b;fill-opacity:1;fill-rule:evenodd;stroke:none" />
        <path
           d="m 543.83767,729.36018 5.69964,-3.23285 -0.0891,0.72296 -4.85385,3.05346 -0.72235,0.28895 -0.72244,-0.28895 -7.72944,-1.80595 0.0724,-0.68759 8.34517,1.94997 z"
           id="path11626"
           sodipodi:nodetypes="ccccccccc"
           style="fill:#fefefd;fill-opacity:1;fill-rule:evenodd;stroke:none" />
        <path
           d="m 525.84753,725.06603 -0.055,0.81711 8.5606,2.05342 0.93912,-0.36119 4.76766,-3.10622 -0.0722,-1.01133 -8.37961,-1.37253 -5.76061,2.98074 z"
           id="path11628"
           sodipodi:nodetypes="cccccccc"
           style="fill:#5c575b;fill-opacity:1;fill-rule:evenodd;stroke:none" />
        <path
           d="m 534.34916,726.91153 5.69965,-3.23284 -0.0891,0.72296 -4.85381,3.05345 -0.72238,0.28896 -0.72238,-0.28896 -7.72948,-1.80594 0.0724,-0.6876 8.34515,1.94997 z"
           id="path11630"
           sodipodi:nodetypes="ccccccccc"
           style="fill:#fefefd;fill-opacity:1;fill-rule:evenodd;stroke:none" />
        <path
           d="m 558.59815,738.22748 -0.055,0.81711 8.56066,2.05343 0.9391,-0.3612 4.76762,-3.10623 -0.0722,-1.01132 -8.37958,-1.37252 -5.76058,2.98073 z"
           id="path11632"
           sodipodi:nodetypes="cccccccc"
           style="fill:#5c575b;fill-opacity:1;fill-rule:evenodd;stroke:none" />
        <path
           d="m 567.09977,740.07299 5.69964,-3.23285 -0.0892,0.72295 -4.85376,3.05346 -0.72235,0.28895 -0.72236,-0.28895 -7.72952,-1.80594 0.0724,-0.6876 8.34516,1.94998 z"
           id="path11634"
           sodipodi:nodetypes="ccccccccc"
           style="fill:#fefefd;fill-opacity:1;fill-rule:evenodd;stroke:none" />
        <path
           d="m 548.80359,735.77883 -0.055,0.81712 8.56058,2.05342 0.93918,-0.36118 4.76762,-3.10623 -0.0722,-1.01134 -8.37958,-1.37252 -5.76057,2.98073 z"
           id="path11636"
           sodipodi:nodetypes="cccccccc"
           style="fill:#5c575b;fill-opacity:1;fill-rule:evenodd;stroke:none" />
        <path
           d="m 557.3052,737.62434 5.69964,-3.23284 -0.0891,0.72296 -4.85384,3.05346 -0.72236,0.28895 -0.72244,-0.28895 -7.72944,-1.80596 0.0724,-0.68759 8.34515,1.94997 z"
           id="path11638"
           sodipodi:nodetypes="ccccccccc"
           style="fill:#fefefd;fill-opacity:1;fill-rule:evenodd;stroke:none" />
        <path
           d="m 538.70291,733.63628 -0.0549,0.8171 8.56054,2.05343 0.93918,-0.36119 4.76763,-3.10623 -0.0722,-1.01132 -8.37958,-1.37253 -5.7606,2.98074 z"
           id="path11640"
           sodipodi:nodetypes="cccccccc"
           style="fill:#5c575b;fill-opacity:1;fill-rule:evenodd;stroke:none" />
        <path
           d="m 547.20455,735.48179 5.69964,-3.23286 -0.0891,0.72296 -4.85384,3.05346 -0.72236,0.28895 -0.72244,-0.28895 -7.72943,-1.80594 0.0724,-0.6876 8.34516,1.94998 z"
           id="path11642"
           sodipodi:nodetypes="ccccccccc"
           style="fill:#fefefd;fill-opacity:1;fill-rule:evenodd;stroke:none" />
        <path
           d="m 528.60226,731.49371 -0.0549,0.81712 8.56058,2.05342 0.93912,-0.36119 4.76765,-3.10623 -0.0722,-1.01133 -8.37956,-1.37252 -5.76062,2.98073 z"
           id="path11644"
           sodipodi:nodetypes="cccccccc"
           style="fill:#5c575b;fill-opacity:1;fill-rule:evenodd;stroke:none" />
        <path
           d="m 537.10388,733.33922 5.69966,-3.23284 -0.0891,0.72295 -4.85385,3.05346 -0.72238,0.28895 -0.72237,-0.28895 -7.72947,-1.80595 0.0724,-0.68759 8.34515,1.94997 z"
           id="path11646"
           sodipodi:nodetypes="ccccccccc"
           style="fill:#fefefd;fill-opacity:1;fill-rule:evenodd;stroke:none" />
        <path
           d="m 519.11376,729.04507 -0.0549,0.81711 8.56059,2.05342 0.93912,-0.36118 4.76768,-3.10623 -0.0722,-1.01133 -8.3796,-1.37252 -5.76062,2.98073 z"
           id="path11648"
           sodipodi:nodetypes="cccccccc"
           style="fill:#5c575b;fill-opacity:1;fill-rule:evenodd;stroke:none" />
        <path
           d="m 527.61539,730.89058 5.69966,-3.23285 -0.0891,0.72296 -4.85381,3.05346 -0.72237,0.28895 -0.72238,-0.28895 -7.72948,-1.80595 0.0724,-0.68759 8.34515,1.94997 z"
           id="path11650"
           sodipodi:nodetypes="ccccccccc"
           style="fill:#fefefd;fill-opacity:1;fill-rule:evenodd;stroke:none" />
        <path
           d="m 551.86438,742.81868 -0.055,0.81712 8.56066,2.05342 0.9391,-0.36119 4.76763,-3.10622 -0.0722,-1.01134 -8.37958,-1.37252 -5.76058,2.98073 z"
           id="path11652"
           sodipodi:nodetypes="cccccccc"
           style="fill:#5c575b;fill-opacity:1;fill-rule:evenodd;stroke:none" />
        <path
           d="m 560.366,744.66419 5.69964,-3.23285 -0.0892,0.72296 -4.85376,3.05346 -0.72236,0.28895 -0.72236,-0.28895 -7.72952,-1.80595 0.0724,-0.68759 8.34516,1.94997 z"
           id="path11654"
           sodipodi:nodetypes="ccccccccc"
           style="fill:#fefefd;fill-opacity:1;fill-rule:evenodd;stroke:none" />
        <path
           d="m 542.06982,740.37004 -0.055,0.81711 8.56058,2.05342 0.93918,-0.36118 4.76762,-3.10623 -0.0722,-1.01133 -8.37957,-1.37252 -5.76058,2.98073 z"
           id="path11656"
           sodipodi:nodetypes="cccccccc"
           style="fill:#5c575b;fill-opacity:1;fill-rule:evenodd;stroke:none" />
        <path
           d="m 550.57143,742.21555 5.69965,-3.23285 -0.0891,0.72296 -4.85384,3.05346 -0.72236,0.28895 -0.72235,-0.28895 -7.72953,-1.80595 0.0724,-0.68759 8.34515,1.94997 z"
           id="path11658"
           sodipodi:nodetypes="ccccccccc"
           style="fill:#fefefd;fill-opacity:1;fill-rule:evenodd;stroke:none" />
        <path
           d="m 531.96915,738.22748 -0.055,0.81711 8.56054,2.05343 0.93918,-0.3612 4.76763,-3.10623 -0.0722,-1.01132 -8.37956,-1.37252 -5.76061,2.98073 z"
           id="path11660"
           sodipodi:nodetypes="cccccccc"
           style="fill:#5c575b;fill-opacity:1;fill-rule:evenodd;stroke:none" />
        <path
           d="m 540.47078,740.07299 5.69964,-3.23285 -0.0891,0.72295 -4.85384,3.05346 -0.72236,0.28895 -0.72239,-0.28895 -7.72948,-1.80594 0.0724,-0.6876 8.34516,1.94998 z"
           id="path11662"
           sodipodi:nodetypes="ccccccccc"
           style="fill:#fefefd;fill-opacity:1;fill-rule:evenodd;stroke:none" />
        <path
           d="m 521.8685,736.08492 -0.055,0.81711 8.56058,2.05342 0.93913,-0.36119 4.76768,-3.10622 -0.0722,-1.01134 -8.3796,-1.37252 -5.76061,2.98074 z"
           id="path11664"
           sodipodi:nodetypes="cccccccc"
           style="fill:#5c575b;fill-opacity:1;fill-rule:evenodd;stroke:none" />
        <path
           d="m 530.37011,737.93042 5.69967,-3.23284 -0.0891,0.72296 -4.85381,3.05346 -0.72238,0.28895 -0.72237,-0.28895 -7.72948,-1.80596 0.0724,-0.68759 8.34514,1.94997 z"
           id="path11666"
           sodipodi:nodetypes="ccccccccc"
           style="fill:#fefefd;fill-opacity:1;fill-rule:evenodd;stroke:none" />
        <path
           d="m 512.38,733.63628 -0.055,0.8171 8.56059,2.05343 0.93912,-0.36119 4.76769,-3.10623 -0.0722,-1.01132 -8.37961,-1.37253 -5.76061,2.98074 z"
           id="path11668"
           sodipodi:nodetypes="cccccccc"
           style="fill:#5c575b;fill-opacity:1;fill-rule:evenodd;stroke:none" />
        <path
           d="m 520.88162,735.48179 5.69967,-3.23286 -0.0891,0.72296 -4.85382,3.05346 -0.72237,0.28895 -0.72237,-0.28895 -7.72948,-1.80594 0.0724,-0.6876 8.34514,1.94998 z"
           id="path11670"
           sodipodi:nodetypes="ccccccccc"
           style="fill:#fefefd;fill-opacity:1;fill-rule:evenodd;stroke:none" />
        <path
           d="m 497.14518,734.85186 -0.055,0.81711 8.56059,2.05343 0.93912,-0.3612 4.76766,-3.10623 -0.0722,-1.01132 -8.37958,-1.37252 -5.76061,2.98073 z"
           id="path11672"
           sodipodi:nodetypes="cccccccc"
           style="fill:#5c575b;fill-opacity:1;fill-rule:evenodd;stroke:none" />
        <path
           d="m 505.6468,736.69737 5.69964,-3.23286 -0.0891,0.72296 -4.85379,3.05346 -0.72238,0.28895 -0.72237,-0.28895 -7.72948,-1.80594 0.0724,-0.68759 8.34514,1.94997 z"
           id="path11674"
           sodipodi:nodetypes="ccccccccc"
           style="fill:#fefefd;fill-opacity:1;fill-rule:evenodd;stroke:none" />
        <path
           d="m 487.35061,732.40321 -0.055,0.81712 8.56059,2.05342 0.93912,-0.36119 4.76769,-3.10622 -0.0722,-1.01134 -8.3796,-1.37252 -5.76061,2.98073 z"
           id="path11676"
           sodipodi:nodetypes="cccccccc"
           style="fill:#5c575b;fill-opacity:1;fill-rule:evenodd;stroke:none" />
        <path
           d="m 495.85223,734.24872 5.69966,-3.23284 -0.0891,0.72296 -4.85381,3.05345 -0.72238,0.28896 -0.72237,-0.28896 -7.72948,-1.80595 0.0724,-0.68759 8.34515,1.94997 z"
           id="path11678"
           sodipodi:nodetypes="ccccccccc"
           style="fill:#fefefd;fill-opacity:1;fill-rule:evenodd;stroke:none" />
        <path
           d="m 477.24995,730.26065 -0.055,0.81711 8.5606,2.05343 0.93912,-0.36119 4.76768,-3.10623 -0.0722,-1.01132 -8.37961,-1.37253 -5.76061,2.98073 z"
           id="path11680"
           sodipodi:nodetypes="cccccccc"
           style="fill:#5c575b;fill-opacity:1;fill-rule:evenodd;stroke:none" />
        <path
           d="m 485.75158,732.10617 5.69966,-3.23286 -0.0891,0.72296 -4.85382,3.05346 -0.72237,0.28895 -0.72238,-0.28895 -7.72948,-1.80594 0.0724,-0.6876 8.34515,1.94998 z"
           id="path11682"
           sodipodi:nodetypes="ccccccccc"
           style="fill:#fefefd;fill-opacity:1;fill-rule:evenodd;stroke:none" />
        <path
           d="m 467.1493,728.11809 -0.055,0.81711 8.5606,2.05343 0.93912,-0.36119 4.76768,-3.10623 -0.0722,-1.01133 -8.3796,-1.37252 -5.76061,2.98073 z"
           id="path11684"
           sodipodi:nodetypes="cccccccc"
           style="fill:#5c575b;fill-opacity:1;fill-rule:evenodd;stroke:none" />
        <path
           d="m 475.65093,729.9636 5.69965,-3.23285 -0.0891,0.72296 -4.85382,3.05346 -0.72237,0.28895 -0.72238,-0.28895 -7.72948,-1.80595 0.0724,-0.68759 8.34515,1.94997 z"
           id="path11686"
           sodipodi:nodetypes="ccccccccc"
           style="fill:#fefefd;fill-opacity:1;fill-rule:evenodd;stroke:none" />
        <path
           d="m 457.66081,725.66945 -0.055,0.81711 8.56059,2.05342 0.93913,-0.36118 4.76768,-3.10623 -0.0722,-1.01133 -8.37961,-1.37253 -5.76061,2.98074 z"
           id="path11688"
           sodipodi:nodetypes="cccccccc"
           style="fill:#5c575b;fill-opacity:1;fill-rule:evenodd;stroke:none" />
        <path
           d="m 466.16243,727.51495 5.69966,-3.23284 -0.0891,0.72296 -4.85381,3.05346 -0.72239,0.28895 -0.72237,-0.28895 -7.72948,-1.80595 0.0724,-0.68759 8.34514,1.94996 z"
           id="path11690"
           sodipodi:nodetypes="ccccccccc"
           style="fill:#fefefd;fill-opacity:1;fill-rule:evenodd;stroke:none" />
        <path
           d="m 490.41141,738.8309 -0.055,0.81711 8.5606,2.05343 0.93913,-0.3612 4.76762,-3.10622 -0.0722,-1.01133 -8.37955,-1.37252 -5.76062,2.98073 z"
           id="path11692"
           sodipodi:nodetypes="cccccccc"
           style="fill:#5c575b;fill-opacity:1;fill-rule:evenodd;stroke:none" />
        <path
           d="m 498.91303,740.67641 5.69962,-3.23285 -0.0891,0.72296 -4.85375,3.05346 -0.72239,0.28895 -0.72238,-0.28895 -7.72947,-1.80595 0.0724,-0.6876 8.34514,1.94998 z"
           id="path11694"
           sodipodi:nodetypes="ccccccccc"
           style="fill:#fefefd;fill-opacity:1;fill-rule:evenodd;stroke:none" />
        <path
           d="m 480.61684,736.38226 -0.055,0.81711 8.56058,2.05342 0.93912,-0.36118 4.76769,-3.10623 -0.0722,-1.01133 -8.3796,-1.37252 -5.76062,2.98073 z"
           id="path11696"
           sodipodi:nodetypes="cccccccc"
           style="fill:#5c575b;fill-opacity:1;fill-rule:evenodd;stroke:none" />
        <path
           d="m 489.11846,738.22777 5.69967,-3.23285 -0.0891,0.72296 -4.85381,3.05346 -0.72238,0.28895 -0.72238,-0.28895 -7.72947,-1.80595 0.0724,-0.68759 8.34515,1.94997 z"
           id="path11698"
           sodipodi:nodetypes="ccccccccc"
           style="fill:#fefefd;fill-opacity:1;fill-rule:evenodd;stroke:none" />
        <path
           d="m 470.51618,734.2397 -0.055,0.81711 8.56059,2.05342 0.93912,-0.36119 4.76769,-3.10623 -0.0722,-1.01132 -8.37961,-1.37253 -5.76062,2.98074 z"
           id="path11700"
           sodipodi:nodetypes="cccccccc"
           style="fill:#5c575b;fill-opacity:1;fill-rule:evenodd;stroke:none" />
        <path
           d="m 479.01781,736.08521 5.69967,-3.23286 -0.0892,0.72296 -4.85381,3.05346 -0.72238,0.28895 -0.72237,-0.28895 -7.72948,-1.80594 0.0724,-0.6876 8.34515,1.94998 z"
           id="path11702"
           sodipodi:nodetypes="ccccccccc"
           style="fill:#fefefd;fill-opacity:1;fill-rule:evenodd;stroke:none" />
        <path
           d="m 460.41553,732.09713 -0.0549,0.81712 8.56059,2.05342 0.93912,-0.36119 4.76768,-3.10622 -0.0722,-1.01134 -8.3796,-1.37252 -5.76062,2.98073 z"
           id="path11704"
           sodipodi:nodetypes="cccccccc"
           style="fill:#5c575b;fill-opacity:1;fill-rule:evenodd;stroke:none" />
        <path
           d="m 468.91716,733.94264 5.69966,-3.23284 -0.0891,0.72296 -4.85381,3.05346 -0.72238,0.28895 -0.72238,-0.28895 -7.72947,-1.80596 0.0724,-0.68759 8.34515,1.94997 z"
           id="path11706"
           sodipodi:nodetypes="ccccccccc"
           style="fill:#fefefd;fill-opacity:1;fill-rule:evenodd;stroke:none" />
        <path
           d="m 450.92704,729.6485 -0.0549,0.8171 8.56058,2.05343 0.93913,-0.36119 4.76768,-3.10623 -0.0722,-1.01132 -8.3796,-1.37253 -5.76062,2.98074 z"
           id="path11708"
           sodipodi:nodetypes="cccccccc"
           style="fill:#5c575b;fill-opacity:1;fill-rule:evenodd;stroke:none" />
        <path
           d="m 459.42866,731.494 5.69967,-3.23285 -0.0891,0.72296 -4.85381,3.05346 -0.72238,0.28895 -0.72238,-0.28895 -7.72947,-1.80594 0.0724,-0.6876 8.34514,1.94997 z"
           id="path11710"
           sodipodi:nodetypes="ccccccccc"
           style="fill:#fefefd;fill-opacity:1;fill-rule:evenodd;stroke:none" />
        <path
           d="m 483.67765,743.4221 -0.055,0.81712 8.56059,2.05342 0.93914,-0.36118 4.76762,-3.10623 -0.0722,-1.01134 -8.37955,-1.37252 -5.76061,2.98073 z"
           id="path11712"
           sodipodi:nodetypes="cccccccc"
           style="fill:#5c575b;fill-opacity:1;fill-rule:evenodd;stroke:none" />
        <path
           d="m 492.17927,745.26761 5.69961,-3.23285 -0.0891,0.72297 -4.85375,3.05346 -0.72239,0.28894 -0.72238,-0.28894 -7.72948,-1.80596 0.0724,-0.68759 8.34515,1.94997 z"
           id="path11714"
           sodipodi:nodetypes="ccccccccc"
           style="fill:#fefefd;fill-opacity:1;fill-rule:evenodd;stroke:none" />
        <path
           d="m 473.88308,740.97347 -0.055,0.8171 8.56058,2.05343 0.93913,-0.36119 4.76768,-3.10623 -0.0722,-1.01133 -8.3796,-1.37252 -5.76061,2.98074 z"
           id="path11716"
           sodipodi:nodetypes="cccccccc"
           style="fill:#5c575b;fill-opacity:1;fill-rule:evenodd;stroke:none" />
        <path
           d="m 482.38469,742.81897 5.69967,-3.23285 -0.0891,0.72296 -4.85381,3.05346 -0.72238,0.28895 -0.72237,-0.28895 -7.72948,-1.80595 0.0724,-0.68759 8.34514,1.94997 z"
           id="path11718"
           sodipodi:nodetypes="ccccccccc"
           style="fill:#fefefd;fill-opacity:1;fill-rule:evenodd;stroke:none" />
        <path
           d="m 463.78242,738.8309 -0.055,0.81711 8.56058,2.05343 0.93912,-0.3612 4.76769,-3.10622 -0.0722,-1.01133 -8.3796,-1.37252 -5.76062,2.98073 z"
           id="path11720"
           sodipodi:nodetypes="cccccccc"
           style="fill:#5c575b;fill-opacity:1;fill-rule:evenodd;stroke:none" />
        <path
           d="m 472.28404,740.67641 5.69967,-3.23285 -0.0891,0.72296 -4.85382,3.05346 -0.72237,0.28895 -0.72237,-0.28895 -7.72948,-1.80595 0.0724,-0.6876 8.34515,1.94998 z"
           id="path11722"
           sodipodi:nodetypes="ccccccccc"
           style="fill:#fefefd;fill-opacity:1;fill-rule:evenodd;stroke:none" />
        <path
           d="m 453.68177,736.68834 -0.055,0.81711 8.56059,2.05342 0.93912,-0.36118 4.76768,-3.10623 -0.0722,-1.01133 -8.37961,-1.37252 -5.76061,2.98073 z"
           id="path11724"
           sodipodi:nodetypes="cccccccc"
           style="fill:#5c575b;fill-opacity:1;fill-rule:evenodd;stroke:none" />
        <path
           d="m 462.18339,738.53385 5.69966,-3.23285 -0.0891,0.72296 -4.85381,3.05346 -0.72237,0.28895 -0.72238,-0.28895 -7.72948,-1.80595 0.0724,-0.68759 8.34515,1.94997 z"
           id="path11726"
           sodipodi:nodetypes="ccccccccc"
           style="fill:#fefefd;fill-opacity:1;fill-rule:evenodd;stroke:none" />
        <path
           d="m 444.19328,734.2397 -0.055,0.81711 8.56059,2.05342 0.93912,-0.36119 4.76768,-3.10623 -0.0722,-1.01132 -8.3796,-1.37253 -5.76061,2.98074 z"
           id="path11728"
           sodipodi:nodetypes="cccccccc"
           style="fill:#5c575b;fill-opacity:1;fill-rule:evenodd;stroke:none" />
        <path
           d="m 452.6949,736.08521 5.69966,-3.23286 -0.0891,0.72296 -4.85382,3.05346 -0.72237,0.28895 -0.72238,-0.28895 -7.72948,-1.80594 -3.48042,-1.39236 11.89794,2.65474 z"
           id="path11730"
           sodipodi:nodetypes="ccccccccc"
           style="fill:#fefefd;fill-opacity:1;fill-rule:evenodd;stroke:none" />
        <path
           d="m 545.419,746.9203 -0.055,0.81711 8.56066,2.05343 0.9391,-0.3612 4.76762,-3.10622 -0.0722,-1.01133 -8.37958,-1.37252 -5.76057,2.98073 z"
           id="path11732"
           sodipodi:nodetypes="cccccccc"
           style="fill:#5c575b;fill-opacity:1;fill-rule:evenodd;stroke:none" />
        <path
           d="m 553.92061,748.76581 5.69964,-3.23285 -0.0892,0.72296 -4.85376,3.05345 -0.72236,0.28896 -0.72235,-0.28896 -7.72953,-1.80594 0.0724,-0.68759 8.34515,1.94997 z"
           id="path11734"
           sodipodi:nodetypes="ccccccccc"
           style="fill:#fefefd;fill-opacity:1;fill-rule:evenodd;stroke:none" />
        <path
           d="m 535.62442,744.47165 -0.055,0.81712 8.56059,2.05342 0.93918,-0.36118 4.76763,-3.10623 -0.0722,-1.01133 -8.37958,-1.37252 -5.76059,2.98072 z"
           id="path11736"
           sodipodi:nodetypes="cccccccc"
           style="fill:#5c575b;fill-opacity:1;fill-rule:evenodd;stroke:none" />
        <path
           d="m 544.12605,746.31717 5.69964,-3.23285 -0.0891,0.72296 -4.85384,3.05346 -0.72236,0.28895 -0.72244,-0.28895 -7.72946,-1.80595 0.0724,-0.68759 8.34517,1.94997 z"
           id="path11738"
           sodipodi:nodetypes="ccccccccc"
           style="fill:#fefefd;fill-opacity:1;fill-rule:evenodd;stroke:none" />
        <path
           d="m 525.52376,742.3291 -0.055,0.8171 8.56058,2.05343 0.93918,-0.36119 4.76763,-3.10623 -0.0722,-1.01132 -8.37958,-1.37253 -5.76058,2.98074 z"
           id="path11740"
           sodipodi:nodetypes="cccccccc"
           style="fill:#5c575b;fill-opacity:1;fill-rule:evenodd;stroke:none" />
        <path
           d="m 534.02538,744.17461 5.69964,-3.23286 -0.0891,0.72296 -4.85384,3.05346 -0.72236,0.28895 -0.72244,-0.28895 -7.72944,-1.80594 0.0724,-0.6876 8.34516,1.94998 z"
           id="path11742"
           sodipodi:nodetypes="ccccccccc"
           style="fill:#fefefd;fill-opacity:1;fill-rule:evenodd;stroke:none" />
        <path
           d="m 515.42309,740.18653 -0.055,0.81712 8.56055,2.05342 0.93918,-0.36119 4.76763,-3.10622 -0.0722,-1.01134 -8.37958,-1.37252 -5.7606,2.98073 z"
           id="path11744"
           sodipodi:nodetypes="cccccccc"
           style="fill:#5c575b;fill-opacity:1;fill-rule:evenodd;stroke:none" />
        <path
           d="m 523.92473,742.03204 5.69964,-3.23284 -0.0891,0.72296 -4.85385,3.05345 -0.72235,0.28896 -0.72244,-0.28896 -7.72944,-1.80595 0.0724,-0.68759 8.34517,1.94997 z"
           id="path11746"
           sodipodi:nodetypes="ccccccccc"
           style="fill:#fefefd;fill-opacity:1;fill-rule:evenodd;stroke:none" />
        <path
           d="m 505.93459,737.73789 -0.055,0.81711 8.5606,2.05343 0.93912,-0.36119 4.76766,-3.10623 -0.0722,-1.01132 -8.37961,-1.37253 -5.76061,2.98073 z"
           id="path11748"
           sodipodi:nodetypes="cccccccc"
           style="fill:#5c575b;fill-opacity:1;fill-rule:evenodd;stroke:none" />
        <path
           d="m 514.43622,739.5834 5.69966,-3.23285 -0.0891,0.72296 -4.85381,3.05346 -0.72238,0.28895 -0.72237,-0.28895 -7.72948,-1.80594 0.0724,-0.6876 8.34515,1.94997 z"
           id="path11750"
           sodipodi:nodetypes="ccccccccc"
           style="fill:#fefefd;fill-opacity:1;fill-rule:evenodd;stroke:none" />
        <path
           d="m 538.68521,750.89934 -0.055,0.81711 8.56068,2.05343 0.9391,-0.36119 4.76762,-3.10623 -0.0722,-1.01133 -8.37957,-1.37252 -5.7606,2.98073 z"
           id="path11752"
           sodipodi:nodetypes="cccccccc"
           style="fill:#5c575b;fill-opacity:1;fill-rule:evenodd;stroke:none" />
        <path
           d="m 547.18685,752.74485 5.69964,-3.23285 -0.0892,0.72296 -4.85376,3.05346 -0.72236,0.28895 -0.72235,-0.28895 -7.72954,-1.80595 0.0724,-0.68759 8.34518,1.94997 z"
           id="path11754"
           sodipodi:nodetypes="ccccccccc"
           style="fill:#fefefd;fill-opacity:1;fill-rule:evenodd;stroke:none" />
        <path
           d="m 528.89065,748.4507 -0.055,0.81711 8.56058,2.05343 0.93918,-0.36119 4.76764,-3.10623 -0.0722,-1.01133 -8.37959,-1.37252 -5.76058,2.98073 z"
           id="path11756"
           sodipodi:nodetypes="cccccccc"
           style="fill:#5c575b;fill-opacity:1;fill-rule:evenodd;stroke:none" />
        <path
           d="m 537.39226,750.29621 5.69966,-3.23285 -0.0891,0.72296 -4.85386,3.05346 -0.72236,0.28895 -0.72244,-0.28895 -7.72944,-1.80595 0.0724,-0.68759 8.34515,1.94997 z"
           id="path11758"
           sodipodi:nodetypes="ccccccccc"
           style="fill:#fefefd;fill-opacity:1;fill-rule:evenodd;stroke:none" />
        <path
           d="m 518.78997,746.30814 -0.055,0.81711 8.56054,2.05342 0.93918,-0.36119 4.76763,-3.10622 -0.0722,-1.01133 -8.37958,-1.37253 -5.7606,2.98074 z"
           id="path11760"
           sodipodi:nodetypes="cccccccc"
           style="fill:#5c575b;fill-opacity:1;fill-rule:evenodd;stroke:none" />
        <path
           d="m 527.29161,748.15365 5.69964,-3.23285 -0.0891,0.72296 -4.85384,3.05345 -0.72236,0.28896 -0.72244,-0.28896 -7.72943,-1.80594 0.0724,-0.6876 8.34516,1.94998 z"
           id="path11762"
           sodipodi:nodetypes="ccccccccc"
           style="fill:#fefefd;fill-opacity:1;fill-rule:evenodd;stroke:none" />
        <path
           d="m 508.68932,744.16557 -0.055,0.81712 8.56058,2.05342 0.93913,-0.36118 4.76764,-3.10623 -0.0722,-1.01133 -8.37956,-1.37252 -5.76062,2.98072 z"
           id="path11764"
           sodipodi:nodetypes="cccccccc"
           style="fill:#5c575b;fill-opacity:1;fill-rule:evenodd;stroke:none" />
        <path
           d="m 517.19094,746.01109 5.69966,-3.23285 -0.0891,0.72296 -4.85384,3.05346 -0.72239,0.28895 -0.72237,-0.28895 -7.72947,-1.80595 0.0724,-0.68759 8.34514,1.94997 z"
           id="path11766"
           sodipodi:nodetypes="ccccccccc"
           style="fill:#fefefd;fill-opacity:1;fill-rule:evenodd;stroke:none" />
        <path
           d="m 499.20082,741.71694 -0.055,0.8171 8.56059,2.05343 0.93912,-0.36119 4.76769,-3.10623 -0.0722,-1.01132 -8.37961,-1.37253 -5.76062,2.98074 z"
           id="path11768"
           sodipodi:nodetypes="cccccccc"
           style="fill:#5c575b;fill-opacity:1;fill-rule:evenodd;stroke:none" />
        <path
           d="m 507.70245,743.56244 5.69967,-3.23285 -0.0892,0.72296 -4.85381,3.05346 -0.72237,0.28895 -0.72238,-0.28895 -7.72947,-1.80594 0.0724,-0.6876 8.34515,1.94997 z"
           id="path11770"
           sodipodi:nodetypes="ccccccccc"
           style="fill:#fefefd;fill-opacity:1;fill-rule:evenodd;stroke:none" />
        <path
           d="m 531.95144,755.49055 -0.055,0.81711 8.56067,2.05342 0.9391,-0.36118 4.76763,-3.10623 -0.0722,-1.01133 -8.3796,-1.37252 -5.76058,2.98073 z"
           id="path11772"
           sodipodi:nodetypes="cccccccc"
           style="fill:#5c575b;fill-opacity:1;fill-rule:evenodd;stroke:none" />
        <path
           d="m 540.45308,757.33606 5.69964,-3.23286 -0.0892,0.72297 -4.85377,3.05346 -0.72235,0.28894 -0.72238,-0.28894 -7.72952,-1.80595 0.0724,-0.68759 8.34518,1.94997 z"
           id="path11774"
           sodipodi:nodetypes="ccccccccc"
           style="fill:#fefefd;fill-opacity:1;fill-rule:evenodd;stroke:none" />
        <path
           d="m 522.15688,753.04191 -0.055,0.81711 8.56058,2.05342 0.93918,-0.36119 4.76762,-3.10623 -0.0722,-1.01133 -8.37957,-1.37252 -5.76058,2.98074 z"
           id="path11776"
           sodipodi:nodetypes="cccccccc"
           style="fill:#5c575b;fill-opacity:1;fill-rule:evenodd;stroke:none" />
        <path
           d="m 530.6585,754.88741 5.69964,-3.23284 -0.0891,0.72295 -4.85385,3.05346 -0.72235,0.28895 -0.72236,-0.28895 -7.72952,-1.80595 0.0724,-0.68759 8.34516,1.94997 z"
           id="path11778"
           sodipodi:nodetypes="ccccccccc"
           style="fill:#fefefd;fill-opacity:1;fill-rule:evenodd;stroke:none" />
        <path
           d="m 512.05621,750.89934 -0.055,0.81711 8.56055,2.05343 0.93918,-0.36119 4.76762,-3.10623 -0.0722,-1.01133 -8.37956,-1.37252 -5.76061,2.98073 z"
           id="path11780"
           sodipodi:nodetypes="cccccccc"
           style="fill:#5c575b;fill-opacity:1;fill-rule:evenodd;stroke:none" />
        <path
           d="m 520.55784,752.74485 5.69964,-3.23285 -0.0891,0.72296 -4.85384,3.05346 -0.72236,0.28895 -0.72239,-0.28895 -7.72948,-1.80595 0.0724,-0.68759 8.34516,1.94997 z"
           id="path11782"
           sodipodi:nodetypes="ccccccccc"
           style="fill:#fefefd;fill-opacity:1;fill-rule:evenodd;stroke:none" />
        <path
           d="m 501.95556,748.75679 -0.055,0.8171 8.56059,2.05343 0.93912,-0.36119 4.76768,-3.10623 -0.0722,-1.01133 -8.3796,-1.37252 -5.76061,2.98074 z"
           id="path11784"
           sodipodi:nodetypes="cccccccc"
           style="fill:#5c575b;fill-opacity:1;fill-rule:evenodd;stroke:none" />
        <path
           d="m 510.45718,750.60229 5.69966,-3.23285 -0.0891,0.72296 -4.85381,3.05346 -0.72238,0.28895 -0.72237,-0.28895 -7.72948,-1.80595 0.0724,-0.68759 8.34515,1.94997 z"
           id="path11786"
           sodipodi:nodetypes="ccccccccc"
           style="fill:#fefefd;fill-opacity:1;fill-rule:evenodd;stroke:none" />
        <path
           d="m 492.46706,746.30814 -0.055,0.81711 8.56058,2.05342 0.93912,-0.36119 4.76769,-3.10622 -0.0722,-1.01133 -8.3796,-1.37253 -5.76062,2.98074 z"
           id="path11788"
           sodipodi:nodetypes="cccccccc"
           style="fill:#5c575b;fill-opacity:1;fill-rule:evenodd;stroke:none" />
        <path
           d="m 500.96868,748.15365 5.69967,-3.23285 -0.0891,0.72296 -4.85381,3.05345 -0.72238,0.28896 -0.72237,-0.28896 -7.72948,-1.80594 0.0724,-0.6876 8.34514,1.94998 z"
           id="path11790"
           sodipodi:nodetypes="ccccccccc"
           style="fill:#fefefd;fill-opacity:1;fill-rule:evenodd;stroke:none" />
      </g>
      <g
         id="g12276"
         transform="matrix(1,0,0,1.07656,-146.5725,-175.7068)">
        <path
           d="m 571.8379,609.68864 -0.0624,0.71988 9.72443,1.80908 1.0668,-0.31821 5.41584,-2.7366 -0.082,-0.89099 -9.51882,-1.2092 -6.54379,2.62604 z"
           id="path11916"
           sodipodi:nodetypes="cccccccc"
           style="fill:#5c575b;fill-opacity:1;fill-rule:evenodd;stroke:none" />
        <path
           d="m 581.49535,611.31454 6.47453,-2.84815 -0.10126,0.63693 -5.51368,2.69011 -0.82059,0.25456 -0.82058,-0.25456 -8.78034,-1.59105 0.0822,-0.60577 9.47971,1.71793 z"
           id="path11918"
           sodipodi:nodetypes="ccccccccc"
           style="fill:#fefefd;fill-opacity:1;fill-rule:evenodd;stroke:none" />
        <path
           d="m 560.71171,607.53138 -0.0624,0.71987 9.72444,1.80908 1.0668,-0.31821 5.41587,-2.7366 -0.082,-0.89098 -9.51885,-1.2092 -6.54379,2.62604 z"
           id="path11920"
           sodipodi:nodetypes="cccccccc"
           style="fill:#5c575b;fill-opacity:1;fill-rule:evenodd;stroke:none" />
        <path
           d="m 570.36917,609.15728 6.47455,-2.84815 -0.10126,0.63693 -5.51372,2.69011 -0.82057,0.25456 -0.82058,-0.25456 -8.78034,-1.59105 0.0822,-0.60577 9.47971,1.71793 z"
           id="path11922"
           sodipodi:nodetypes="ccccccccc"
           style="fill:#fefefd;fill-opacity:1;fill-rule:evenodd;stroke:none" />
        <path
           d="m 549.23783,605.64377 -0.0624,0.71988 9.72445,1.80907 1.0668,-0.31821 5.41586,-2.73659 -0.082,-0.89099 -9.51884,-1.2092 -6.54379,2.62604 z"
           id="path11924"
           sodipodi:nodetypes="cccccccc"
           style="fill:#5c575b;fill-opacity:1;fill-rule:evenodd;stroke:none" />
        <path
           d="m 558.89529,607.26968 6.47454,-2.84816 -0.10124,0.63693 -5.51372,2.6901 -0.82058,0.25458 -0.82059,-0.25458 -8.78033,-1.59104 0.0822,-0.60578 9.4797,1.71795 z"
           id="path11926"
           sodipodi:nodetypes="ccccccccc"
           style="fill:#fefefd;fill-opacity:1;fill-rule:evenodd;stroke:none" />
        <path
           d="m 537.76396,603.75616 -0.0624,0.71989 9.72443,1.80907 1.06681,-0.3182 5.41587,-2.7366 -0.082,-0.89099 -9.51884,-1.2092 -6.54379,2.62603 z"
           id="path11928"
           sodipodi:nodetypes="cccccccc"
           style="fill:#5c575b;fill-opacity:1;fill-rule:evenodd;stroke:none" />
        <path
           d="m 547.42141,605.38207 6.47455,-2.84815 -0.10125,0.63693 -5.51371,2.69011 -0.82059,0.25456 -0.82058,-0.25456 -8.78034,-1.59105 0.0822,-0.60577 9.4797,1.71793 z"
           id="path11930"
           sodipodi:nodetypes="ccccccccc"
           style="fill:#fefefd;fill-opacity:1;fill-rule:evenodd;stroke:none" />
        <path
           d="m 526.98547,601.59891 -0.0624,0.71987 9.72444,1.80908 1.06679,-0.31821 5.41588,-2.7366 -0.082,-0.89098 -9.51885,-1.20921 -6.54379,2.62605 z"
           id="path11932"
           sodipodi:nodetypes="cccccccc"
           style="fill:#5c575b;fill-opacity:1;fill-rule:evenodd;stroke:none" />
        <path
           d="m 536.64292,603.2248 6.47455,-2.84815 -0.10126,0.63693 -5.5137,2.69011 -0.82059,0.25456 -0.82058,-0.25456 -8.78033,-1.59104 0.0822,-0.60578 9.47971,1.71793 z"
           id="path11934"
           sodipodi:nodetypes="ccccccccc"
           style="fill:#fefefd;fill-opacity:1;fill-rule:evenodd;stroke:none" />
        <path
           d="m 564.18865,613.1942 -0.0624,0.71987 9.72444,1.80909 1.06682,-0.31822 5.4158,-2.7366 -0.082,-0.89098 -9.51878,-1.2092 -6.5438,2.62604 z"
           id="path11936"
           sodipodi:nodetypes="cccccccc"
           style="fill:#5c575b;fill-opacity:1;fill-rule:evenodd;stroke:none" />
        <path
           d="m 573.8461,614.8201 6.4745,-2.84816 -0.10126,0.63693 -5.51363,2.69011 -0.82062,0.25456 -0.82058,-0.25456 -8.78032,-1.59104 0.0822,-0.60578 9.4797,1.71794 z"
           id="path11938"
           sodipodi:nodetypes="ccccccccc"
           style="fill:#fefefd;fill-opacity:1;fill-rule:evenodd;stroke:none" />
        <path
           d="m 553.06245,611.03693 -0.0624,0.71988 9.72444,1.80907 1.0668,-0.31821 5.41587,-2.73659 -0.082,-0.89099 -9.51886,-1.2092 -6.5438,2.62604 z"
           id="path11940"
           sodipodi:nodetypes="cccccccc"
           style="fill:#5c575b;fill-opacity:1;fill-rule:evenodd;stroke:none" />
        <path
           d="m 562.71991,612.66283 6.47457,-2.84815 -0.10127,0.63693 -5.51371,2.69011 -0.82058,0.25456 -0.82059,-0.25456 -8.78032,-1.59105 0.0822,-0.60577 9.4797,1.71793 z"
           id="path11942"
           sodipodi:nodetypes="ccccccccc"
           style="fill:#fefefd;fill-opacity:1;fill-rule:evenodd;stroke:none" />
        <path
           d="m 541.58858,609.14932 -0.0624,0.71988 9.72444,1.80907 1.06679,-0.3182 5.41587,-2.7366 -0.082,-0.89099 -9.51884,-1.20919 -6.5438,2.62603 z"
           id="path11944"
           sodipodi:nodetypes="cccccccc"
           style="fill:#5c575b;fill-opacity:1;fill-rule:evenodd;stroke:none" />
        <path
           d="m 551.24604,610.77523 6.47455,-2.84816 -0.10126,0.63693 -5.5137,2.69011 -0.82059,0.25457 -0.82059,-0.25457 -8.78032,-1.59105 0.0822,-0.60577 9.47971,1.71794 z"
           id="path11946"
           sodipodi:nodetypes="ccccccccc"
           style="fill:#fefefd;fill-opacity:1;fill-rule:evenodd;stroke:none" />
        <path
           d="m 530.11471,607.26172 -0.0624,0.71988 9.72443,1.80908 1.0668,-0.31821 5.41586,-2.7366 -0.082,-0.89099 -9.51884,-1.2092 -6.5438,2.62604 z"
           id="path11948"
           sodipodi:nodetypes="cccccccc"
           style="fill:#5c575b;fill-opacity:1;fill-rule:evenodd;stroke:none" />
        <path
           d="m 539.77217,608.88762 6.47455,-2.84815 -0.10126,0.63693 -5.5137,2.69011 -0.8206,0.25456 -0.82059,-0.25456 -8.78032,-1.59105 0.0822,-0.60577 9.47971,1.71793 z"
           id="path11950"
           sodipodi:nodetypes="ccccccccc"
           style="fill:#fefefd;fill-opacity:1;fill-rule:evenodd;stroke:none" />
        <path
           d="m 519.33622,605.10446 -0.0624,0.71988 9.72442,1.80907 1.06681,-0.31821 5.41587,-2.7366 -0.082,-0.89098 -9.51884,-1.20921 -6.5438,2.62605 z"
           id="path11952"
           sodipodi:nodetypes="cccccccc"
           style="fill:#5c575b;fill-opacity:1;fill-rule:evenodd;stroke:none" />
        <path
           d="m 528.99367,606.73035 6.47456,-2.84814 -0.10126,0.63693 -5.5137,2.69011 -0.82059,0.25456 -0.82059,-0.25456 -8.78033,-1.59105 0.0822,-0.60578 9.4797,1.71793 z"
           id="path11954"
           sodipodi:nodetypes="ccccccccc"
           style="fill:#fefefd;fill-opacity:1;fill-rule:evenodd;stroke:none" />
        <path
           d="m 556.53941,617.23906 -0.0624,0.71988 9.72444,1.80908 1.06681,-0.31821 5.41581,-2.7366 -0.082,-0.89099 -9.51879,-1.20919 -6.54378,2.62603 z"
           id="path11956"
           sodipodi:nodetypes="cccccccc"
           style="fill:#5c575b;fill-opacity:1;fill-rule:evenodd;stroke:none" />
        <path
           d="m 566.19684,618.86497 6.47451,-2.84816 -0.10125,0.63693 -5.51365,2.69011 -0.8206,0.25456 -0.82058,-0.25456 -8.78033,-1.59105 0.0822,-0.60577 9.47969,1.71794 z"
           id="path11958"
           sodipodi:nodetypes="ccccccccc"
           style="fill:#fefefd;fill-opacity:1;fill-rule:evenodd;stroke:none" />
        <path
           d="m 545.41321,615.0818 -0.0624,0.71988 9.72443,1.80907 1.06679,-0.3182 5.41588,-2.7366 -0.082,-0.891 -9.51884,-1.20919 -6.5438,2.62604 z"
           id="path11960"
           sodipodi:nodetypes="cccccccc"
           style="fill:#5c575b;fill-opacity:1;fill-rule:evenodd;stroke:none" />
        <path
           d="m 555.07066,616.70769 6.47456,-2.84814 -0.10125,0.63693 -5.51371,2.69011 -0.82059,0.25457 -0.82058,-0.25457 -8.78033,-1.59106 0.0822,-0.60577 9.4797,1.71793 z"
           id="path11962"
           sodipodi:nodetypes="ccccccccc"
           style="fill:#fefefd;fill-opacity:1;fill-rule:evenodd;stroke:none" />
        <path
           d="m 533.93934,613.1942 -0.0624,0.71987 9.72443,1.80909 1.0668,-0.31822 5.41588,-2.7366 -0.082,-0.89098 -9.51885,-1.2092 -6.54379,2.62604 z"
           id="path11964"
           sodipodi:nodetypes="cccccccc"
           style="fill:#5c575b;fill-opacity:1;fill-rule:evenodd;stroke:none" />
        <path
           d="m 543.59679,614.8201 6.47456,-2.84816 -0.10127,0.63693 -5.5137,2.69011 -0.82058,0.25456 -0.82059,-0.25456 -8.78034,-1.59104 0.0822,-0.60578 9.47971,1.71794 z"
           id="path11966"
           sodipodi:nodetypes="ccccccccc"
           style="fill:#fefefd;fill-opacity:1;fill-rule:evenodd;stroke:none" />
        <path
           d="m 522.46547,611.30659 -0.0624,0.71988 9.72444,1.80907 1.0668,-0.31821 5.41586,-2.7366 -0.082,-0.89098 -9.51884,-1.2092 -6.54378,2.62604 z"
           id="path11968"
           sodipodi:nodetypes="cccccccc"
           style="fill:#5c575b;fill-opacity:1;fill-rule:evenodd;stroke:none" />
        <path
           d="m 532.12291,612.93249 6.47456,-2.84815 -0.10126,0.63692 -5.51371,2.69011 -0.82058,0.25457 -0.82059,-0.25457 -8.78033,-1.59105 0.0822,-0.60576 9.4797,1.71793 z"
           id="path11970"
           sodipodi:nodetypes="ccccccccc"
           style="fill:#fefefd;fill-opacity:1;fill-rule:evenodd;stroke:none" />
        <path
           d="m 511.68698,609.14932 -0.0624,0.71988 9.72442,1.80907 1.06681,-0.3182 5.41586,-2.7366 -0.082,-0.89099 -9.51884,-1.20919 -6.54379,2.62603 z"
           id="path11972"
           sodipodi:nodetypes="cccccccc"
           style="fill:#5c575b;fill-opacity:1;fill-rule:evenodd;stroke:none" />
        <path
           d="m 521.34441,610.77523 6.47457,-2.84816 -0.10125,0.63693 -5.51372,2.69011 -0.82059,0.25457 -0.82058,-0.25457 -8.78033,-1.59105 0.0822,-0.60577 9.47968,1.71794 z"
           id="path11974"
           sodipodi:nodetypes="ccccccccc"
           style="fill:#fefefd;fill-opacity:1;fill-rule:evenodd;stroke:none" />
        <path
           d="m 604.07466,616.27612 -0.0625,0.71987 9.72443,1.80908 1.06686,-0.31821 5.41581,-2.7366 -0.082,-0.89098 -9.51881,-1.20921 -6.54376,2.62605 z"
           id="path11984"
           sodipodi:nodetypes="cccccccc"
           style="fill:#5c575b;fill-opacity:1;fill-rule:evenodd;stroke:none" />
        <path
           d="m 613.73211,617.90202 6.47453,-2.84815 -0.10121,0.63693 -5.51374,2.69011 -0.82057,0.25456 -0.82066,-0.25456 -8.78029,-1.59105 0.0822,-0.60577 9.47972,1.71793 z"
           id="path11986"
           sodipodi:nodetypes="ccccccccc"
           style="fill:#fefefd;fill-opacity:1;fill-rule:evenodd;stroke:none" />
        <path
           d="m 592.60075,614.38851 -0.0624,0.71988 9.72439,1.80908 1.06687,-0.31821 5.4158,-2.7366 -0.082,-0.89099 -9.51881,-1.20919 -6.54379,2.62603 z"
           id="path11988"
           sodipodi:nodetypes="cccccccc"
           style="fill:#5c575b;fill-opacity:1;fill-rule:evenodd;stroke:none" />
        <path
           d="m 602.25824,616.01442 6.47453,-2.84816 -0.10122,0.63693 -5.51375,2.69011 -0.82055,0.25457 -0.82066,-0.25457 -8.78029,-1.59105 0.0822,-0.60577 9.47973,1.71794 z"
           id="path11990"
           sodipodi:nodetypes="ccccccccc"
           style="fill:#fefefd;fill-opacity:1;fill-rule:evenodd;stroke:none" />
        <path
           d="m 581.82227,612.23125 -0.0624,0.71988 9.72445,1.80907 1.0668,-0.31821 5.41584,-2.73659 -0.082,-0.89099 -9.51885,-1.2092 -6.54378,2.62604 z"
           id="path11992"
           sodipodi:nodetypes="cccccccc"
           style="fill:#5c575b;fill-opacity:1;fill-rule:evenodd;stroke:none" />
        <path
           d="m 591.47973,613.85714 6.47454,-2.84814 -0.10125,0.63693 -5.51371,2.6901 -0.82059,0.25458 -0.82059,-0.25458 -8.78033,-1.59104 0.0822,-0.60578 9.47971,1.71793 z"
           id="path11994"
           sodipodi:nodetypes="ccccccccc"
           style="fill:#fefefd;fill-opacity:1;fill-rule:evenodd;stroke:none" />
        <path
           d="m 596.42539,619.78168 -0.0624,0.71986 9.72438,1.80908 1.06687,-0.31821 5.41581,-2.7366 -0.082,-0.89097 -9.51882,-1.20921 -6.54377,2.62605 z"
           id="path12004"
           sodipodi:nodetypes="cccccccc"
           style="fill:#5c575b;fill-opacity:1;fill-rule:evenodd;stroke:none" />
        <path
           d="m 606.08286,621.40758 6.47453,-2.84816 -0.10122,0.63693 -5.51374,2.69011 -0.82056,0.25456 -0.82066,-0.25456 -8.78028,-1.59104 0.0822,-0.60578 9.47972,1.71794 z"
           id="path12006"
           sodipodi:nodetypes="ccccccccc"
           style="fill:#fefefd;fill-opacity:1;fill-rule:evenodd;stroke:none" />
        <path
           d="m 584.95151,617.89406 -0.0624,0.71989 9.72443,1.80907 1.06679,-0.31821 5.41583,-2.7366 -0.082,-0.89099 -9.5188,-1.20919 -6.5438,2.62603 z"
           id="path12008"
           sodipodi:nodetypes="cccccccc"
           style="fill:#5c575b;fill-opacity:1;fill-rule:evenodd;stroke:none" />
        <path
           d="m 594.60896,619.51997 6.47455,-2.84815 -0.10121,0.63692 -5.51375,2.69011 -0.82059,0.25457 -0.82058,-0.25457 -8.78032,-1.59105 0.0822,-0.60577 9.47971,1.71794 z"
           id="path12010"
           sodipodi:nodetypes="ccccccccc"
           style="fill:#fefefd;fill-opacity:1;fill-rule:evenodd;stroke:none" />
        <path
           d="m 574.17301,615.7368 -0.0624,0.71988 9.72444,1.80907 1.0668,-0.3182 5.41586,-2.7366 -0.082,-0.89099 -9.51884,-1.20919 -6.5438,2.62603 z"
           id="path12012"
           sodipodi:nodetypes="cccccccc"
           style="fill:#5c575b;fill-opacity:1;fill-rule:evenodd;stroke:none" />
        <path
           d="m 583.83047,617.3627 6.47455,-2.84815 -0.10125,0.63693 -5.51371,2.69011 -0.82058,0.25457 -0.82059,-0.25457 -8.78033,-1.59105 0.0822,-0.60577 9.4797,1.71793 z"
           id="path12014"
           sodipodi:nodetypes="ccccccccc"
           style="fill:#fefefd;fill-opacity:1;fill-rule:evenodd;stroke:none" />
        <path
           d="m 588.77614,623.82654 -0.0624,0.71988 9.72438,1.80908 1.06687,-0.31822 5.41581,-2.7366 -0.082,-0.89098 -9.5188,-1.20919 -6.54379,2.62603 z"
           id="path12024"
           sodipodi:nodetypes="cccccccc"
           style="fill:#5c575b;fill-opacity:1;fill-rule:evenodd;stroke:none" />
        <path
           d="m 598.4336,625.45244 6.47453,-2.84815 -0.10121,0.63692 -5.51374,2.69011 -0.82057,0.25457 -0.8206,-0.25457 -8.78033,-1.59104 0.0822,-0.60578 9.47971,1.71794 z"
           id="path12026"
           sodipodi:nodetypes="ccccccccc"
           style="fill:#fefefd;fill-opacity:1;fill-rule:evenodd;stroke:none" />
        <path
           d="m 577.30227,621.93894 -0.0624,0.71988 9.72442,1.80907 1.06681,-0.31821 5.41587,-2.7366 -0.082,-0.89099 -9.51884,-1.2092 -6.54379,2.62605 z"
           id="path12028"
           sodipodi:nodetypes="cccccccc"
           style="fill:#5c575b;fill-opacity:1;fill-rule:evenodd;stroke:none" />
        <path
           d="m 586.95971,623.56483 6.47456,-2.84814 -0.10126,0.63693 -5.5137,2.69011 -0.82059,0.25456 -0.82058,-0.25456 -8.78034,-1.59106 0.0822,-0.60577 9.4797,1.71793 z"
           id="path12030"
           sodipodi:nodetypes="ccccccccc"
           style="fill:#fefefd;fill-opacity:1;fill-rule:evenodd;stroke:none" />
        <path
           d="m 566.52377,619.78168 -0.0624,0.71986 9.72443,1.80908 1.0668,-0.31821 5.41588,-2.7366 -0.082,-0.89097 -9.51885,-1.20921 -6.54379,2.62605 z"
           id="path12032"
           sodipodi:nodetypes="cccccccc"
           style="fill:#5c575b;fill-opacity:1;fill-rule:evenodd;stroke:none" />
        <path
           d="m 576.18122,621.40758 6.47456,-2.84816 -0.10126,0.63693 -5.51371,2.69011 -0.82058,0.25456 -0.82058,-0.25456 -8.78033,-1.59104 0.0822,-0.60578 9.4797,1.71794 z"
           id="path12034"
           sodipodi:nodetypes="ccccccccc"
           style="fill:#fefefd;fill-opacity:1;fill-rule:evenodd;stroke:none" />
        <path
           d="m 549.21772,620.85261 -0.0624,0.71987 9.72444,1.80908 1.0668,-0.31821 5.41584,-2.73661 -0.082,-0.89097 -9.51882,-1.2092 -6.54378,2.62604 z"
           id="path12036"
           sodipodi:nodetypes="cccccccc"
           style="fill:#5c575b;fill-opacity:1;fill-rule:evenodd;stroke:none" />
        <path
           d="m 558.87517,622.47851 6.47452,-2.84816 -0.10126,0.63693 -5.51368,2.69011 -0.82059,0.25456 -0.82058,-0.25456 -8.78033,-1.59104 0.0822,-0.60577 9.4797,1.71793 z"
           id="path12038"
           sodipodi:nodetypes="ccccccccc"
           style="fill:#fefefd;fill-opacity:1;fill-rule:evenodd;stroke:none" />
        <path
           d="m 538.09153,618.69534 -0.0624,0.71988 9.72444,1.80907 1.0668,-0.31821 5.41587,-2.73659 -0.082,-0.89099 -9.51884,-1.2092 -6.54379,2.62604 z"
           id="path12040"
           sodipodi:nodetypes="cccccccc"
           style="fill:#5c575b;fill-opacity:1;fill-rule:evenodd;stroke:none" />
        <path
           d="m 547.74898,620.32124 6.47456,-2.84815 -0.10126,0.63693 -5.51371,2.69011 -0.82059,0.25457 -0.82058,-0.25457 -8.78033,-1.59105 0.0822,-0.60577 9.4797,1.71793 z"
           id="path12042"
           sodipodi:nodetypes="ccccccccc"
           style="fill:#fefefd;fill-opacity:1;fill-rule:evenodd;stroke:none" />
        <path
           d="m 526.61765,616.80773 -0.0624,0.71988 9.72445,1.80908 1.06679,-0.31821 5.41587,-2.7366 -0.082,-0.89098 -9.51885,-1.2092 -6.54379,2.62603 z"
           id="path12044"
           sodipodi:nodetypes="cccccccc"
           style="fill:#5c575b;fill-opacity:1;fill-rule:evenodd;stroke:none" />
        <path
           d="m 536.27511,618.43364 6.47455,-2.84816 -0.10126,0.63693 -5.51371,2.69011 -0.82058,0.25457 -0.82059,-0.25457 -8.78034,-1.59104 0.0822,-0.60578 9.47971,1.71794 z"
           id="path12046"
           sodipodi:nodetypes="ccccccccc"
           style="fill:#fefefd;fill-opacity:1;fill-rule:evenodd;stroke:none" />
        <path
           d="m 515.14378,614.92013 -0.0624,0.71988 9.72445,1.80908 1.0668,-0.31821 5.41586,-2.7366 -0.082,-0.89099 -9.51884,-1.2092 -6.54378,2.62604 z"
           id="path12048"
           sodipodi:nodetypes="cccccccc"
           style="fill:#5c575b;fill-opacity:1;fill-rule:evenodd;stroke:none" />
        <path
           d="m 524.80124,616.54603 6.47454,-2.84815 -0.10125,0.63693 -5.51372,2.69011 -0.82058,0.25456 -0.82059,-0.25456 -8.78033,-1.59105 0.0822,-0.60577 9.47971,1.71793 z"
           id="path12050"
           sodipodi:nodetypes="ccccccccc"
           style="fill:#fefefd;fill-opacity:1;fill-rule:evenodd;stroke:none" />
        <path
           d="m 504.36529,612.76287 -0.0624,0.71987 9.72443,1.80908 1.06681,-0.31821 5.41587,-2.7366 -0.082,-0.89098 -9.51885,-1.20921 -6.54379,2.62605 z"
           id="path12052"
           sodipodi:nodetypes="cccccccc"
           style="fill:#5c575b;fill-opacity:1;fill-rule:evenodd;stroke:none" />
        <path
           d="m 514.02274,614.38876 6.47455,-2.84814 -0.10125,0.63693 -5.5137,2.69011 -0.82061,0.25456 -0.82057,-0.25456 -8.78034,-1.59105 0.0822,-0.60577 9.4797,1.71792 z"
           id="path12054"
           sodipodi:nodetypes="ccccccccc"
           style="fill:#fefefd;fill-opacity:1;fill-rule:evenodd;stroke:none" />
        <path
           d="m 541.56846,624.35816 -0.0624,0.71987 9.72445,1.80908 1.06681,-0.31821 5.41579,-2.7366 -0.082,-0.89098 -9.51879,-1.2092 -6.5438,2.62604 z"
           id="path12056"
           sodipodi:nodetypes="cccccccc"
           style="fill:#5c575b;fill-opacity:1;fill-rule:evenodd;stroke:none" />
        <path
           d="m 551.22591,625.98406 6.47451,-2.84815 -0.10126,0.63693 -5.51364,2.69011 -0.8206,0.25456 -0.82059,-0.25456 -8.78032,-1.59105 0.0822,-0.60578 9.47969,1.71794 z"
           id="path12058"
           sodipodi:nodetypes="ccccccccc"
           style="fill:#fefefd;fill-opacity:1;fill-rule:evenodd;stroke:none" />
        <path
           d="m 530.44228,622.2009 -0.0624,0.71987 9.72443,1.80907 1.06679,-0.3182 5.41588,-2.7366 -0.082,-0.89098 -9.51884,-1.2092 -6.5438,2.62604 z"
           id="path12060"
           sodipodi:nodetypes="cccccccc"
           style="fill:#5c575b;fill-opacity:1;fill-rule:evenodd;stroke:none" />
        <path
           d="m 540.09973,623.8268 6.47456,-2.84816 -0.10125,0.63693 -5.51371,2.69011 -0.82059,0.25457 -0.82059,-0.25457 -8.78032,-1.59104 0.0822,-0.60577 9.47971,1.71793 z"
           id="path12062"
           sodipodi:nodetypes="ccccccccc"
           style="fill:#fefefd;fill-opacity:1;fill-rule:evenodd;stroke:none" />
        <path
           d="m 518.9684,620.31329 -0.0624,0.71988 9.72443,1.80907 1.0668,-0.31821 5.41588,-2.7366 -0.082,-0.89098 -9.51885,-1.2092 -6.5438,2.62604 z"
           id="path12064"
           sodipodi:nodetypes="cccccccc"
           style="fill:#5c575b;fill-opacity:1;fill-rule:evenodd;stroke:none" />
        <path
           d="m 528.62586,621.93919 6.47456,-2.84816 -0.10127,0.63693 -5.5137,2.69011 -0.8206,0.25457 -0.82057,-0.25457 -8.78034,-1.59104 0.0822,-0.60578 9.47971,1.71794 z"
           id="path12066"
           sodipodi:nodetypes="ccccccccc"
           style="fill:#fefefd;fill-opacity:1;fill-rule:evenodd;stroke:none" />
        <path
           d="m 507.49452,618.42568 -0.0624,0.71988 9.72444,1.80908 1.0668,-0.31821 5.41586,-2.7366 -0.082,-0.89099 -9.51884,-1.2092 -6.5438,2.62604 z"
           id="path12068"
           sodipodi:nodetypes="cccccccc"
           style="fill:#5c575b;fill-opacity:1;fill-rule:evenodd;stroke:none" />
        <path
           d="m 517.15198,620.05158 6.47456,-2.84814 -0.10126,0.63693 -5.51371,2.69011 -0.82059,0.25456 -0.82059,-0.25456 -8.78032,-1.59106 0.0822,-0.60577 9.4797,1.71793 z"
           id="path12070"
           sodipodi:nodetypes="ccccccccc"
           style="fill:#fefefd;fill-opacity:1;fill-rule:evenodd;stroke:none" />
        <path
           d="m 496.71603,616.26843 -0.0624,0.71986 9.72443,1.80908 1.06681,-0.31821 5.41586,-2.7366 -0.082,-0.89097 -9.51884,-1.20921 -6.5438,2.62605 z"
           id="path12072"
           sodipodi:nodetypes="cccccccc"
           style="fill:#5c575b;fill-opacity:1;fill-rule:evenodd;stroke:none" />
        <path
           d="m 506.37348,617.89432 6.47457,-2.84815 -0.10126,0.63693 -5.51371,2.69011 -0.82059,0.25456 -0.82059,-0.25456 -8.78032,-1.59104 0.0822,-0.60578 9.47969,1.71793 z"
           id="path12074"
           sodipodi:nodetypes="ccccccccc"
           style="fill:#fefefd;fill-opacity:1;fill-rule:evenodd;stroke:none" />
        <path
           d="m 533.91922,628.40302 -0.0624,0.71989 9.72444,1.80907 1.06682,-0.3182 5.41579,-2.7366 -0.082,-0.891 -9.51878,-1.20919 -6.54379,2.62603 z"
           id="path12076"
           sodipodi:nodetypes="cccccccc"
           style="fill:#5c575b;fill-opacity:1;fill-rule:evenodd;stroke:none" />
        <path
           d="m 543.57667,630.02892 6.4745,-2.84815 -0.10125,0.63694 -5.51364,2.69011 -0.8206,0.25456 -0.82059,-0.25456 -8.78034,-1.59106 0.0822,-0.60577 9.47971,1.71793 z"
           id="path12078"
           sodipodi:nodetypes="ccccccccc"
           style="fill:#fefefd;fill-opacity:1;fill-rule:evenodd;stroke:none" />
        <path
           d="m 522.79304,626.24577 -0.0624,0.71987 9.72442,1.80908 1.06681,-0.31821 5.41587,-2.7366 -0.082,-0.89099 -9.51884,-1.20919 -6.54379,2.62604 z"
           id="path12080"
           sodipodi:nodetypes="cccccccc"
           style="fill:#5c575b;fill-opacity:1;fill-rule:evenodd;stroke:none" />
        <path
           d="m 532.45048,627.87166 6.47456,-2.84815 -0.10126,0.63693 -5.5137,2.69011 -0.82059,0.25457 -0.82058,-0.25457 -8.78034,-1.59105 0.0822,-0.60577 9.4797,1.71793 z"
           id="path12082"
           sodipodi:nodetypes="ccccccccc"
           style="fill:#fefefd;fill-opacity:1;fill-rule:evenodd;stroke:none" />
        <path
           d="m 511.31916,624.35816 -0.0624,0.71987 9.72443,1.80908 1.0668,-0.31821 5.41587,-2.7366 -0.082,-0.89098 -9.51884,-1.2092 -6.54379,2.62604 z"
           id="path12084"
           sodipodi:nodetypes="cccccccc"
           style="fill:#5c575b;fill-opacity:1;fill-rule:evenodd;stroke:none" />
        <path
           d="m 520.9766,625.98406 6.47457,-2.84815 -0.10126,0.63693 -5.51372,2.69011 -0.82058,0.25456 -0.82058,-0.25456 -8.78033,-1.59105 0.0822,-0.60578 9.4797,1.71794 z"
           id="path12086"
           sodipodi:nodetypes="ccccccccc"
           style="fill:#fefefd;fill-opacity:1;fill-rule:evenodd;stroke:none" />
        <path
           d="m 499.84528,622.47055 -0.0624,0.71988 9.72444,1.80907 1.06679,-0.3182 5.41587,-2.7366 -0.082,-0.89099 -9.51885,-1.20919 -6.54379,2.62603 z"
           id="path12088"
           sodipodi:nodetypes="cccccccc"
           style="fill:#5c575b;fill-opacity:1;fill-rule:evenodd;stroke:none" />
        <path
           d="m 509.50273,624.09645 6.47455,-2.84815 -0.10126,0.63693 -5.5137,2.69011 -0.82058,0.25457 -0.82059,-0.25457 -8.78033,-1.59105 0.0822,-0.60577 9.47971,1.71793 z"
           id="path12090"
           sodipodi:nodetypes="ccccccccc"
           style="fill:#fefefd;fill-opacity:1;fill-rule:evenodd;stroke:none" />
        <path
           d="m 489.06679,620.31329 -0.0624,0.71988 9.72444,1.80907 1.06679,-0.31821 5.41587,-2.7366 -0.082,-0.89098 -9.51884,-1.2092 -6.54379,2.62604 z"
           id="path12092"
           sodipodi:nodetypes="cccccccc"
           style="fill:#5c575b;fill-opacity:1;fill-rule:evenodd;stroke:none" />
        <path
           d="m 498.72424,621.93919 6.47455,-2.84816 -0.10124,0.63693 -5.51372,2.69011 -0.82058,0.25457 -0.82059,-0.25457 -8.78033,-1.59104 0.0822,-0.60578 9.47969,1.71794 z"
           id="path12094"
           sodipodi:nodetypes="ccccccccc"
           style="fill:#fefefd;fill-opacity:1;fill-rule:evenodd;stroke:none" />
        <path
           d="m 581.45448,627.44009 -0.0625,0.71986 9.72442,1.80908 1.06687,-0.31821 5.41581,-2.7366 -0.082,-0.89097 -9.51882,-1.20921 -6.54375,2.62605 z"
           id="path12104"
           sodipodi:nodetypes="cccccccc"
           style="fill:#5c575b;fill-opacity:1;fill-rule:evenodd;stroke:none" />
        <path
           d="m 591.11193,629.06599 6.47453,-2.84817 -0.10122,0.63694 -5.51374,2.69011 -0.82056,0.25456 -0.82066,-0.25456 -8.78029,-1.59104 0.0822,-0.60578 9.47972,1.71794 z"
           id="path12106"
           sodipodi:nodetypes="ccccccccc"
           style="fill:#fefefd;fill-opacity:1;fill-rule:evenodd;stroke:none" />
        <path
           d="m 569.98058,625.55247 -0.0624,0.71989 9.72439,1.80907 1.06687,-0.31821 5.4158,-2.73659 -0.082,-0.891 -9.51881,-1.20919 -6.54378,2.62603 z"
           id="path12108"
           sodipodi:nodetypes="cccccccc"
           style="fill:#5c575b;fill-opacity:1;fill-rule:evenodd;stroke:none" />
        <path
           d="m 579.63805,627.17837 6.47453,-2.84814 -0.10121,0.63693 -5.51375,2.6901 -0.82056,0.25458 -0.82066,-0.25458 -8.78029,-1.59105 0.0822,-0.60577 9.47973,1.71793 z"
           id="path12110"
           sodipodi:nodetypes="ccccccccc"
           style="fill:#fefefd;fill-opacity:1;fill-rule:evenodd;stroke:none" />
        <path
           d="m 559.20208,623.39521 -0.0624,0.71988 9.72445,1.80908 1.06679,-0.31821 5.41585,-2.7366 -0.082,-0.89098 -9.51885,-1.2092 -6.54379,2.62603 z"
           id="path12112"
           sodipodi:nodetypes="cccccccc"
           style="fill:#5c575b;fill-opacity:1;fill-rule:evenodd;stroke:none" />
        <path
           d="m 568.85954,625.02111 6.47455,-2.84815 -0.10126,0.63693 -5.5137,2.69011 -0.82059,0.25457 -0.82058,-0.25457 -8.78033,-1.59104 0.0822,-0.60578 9.4797,1.71793 z"
           id="path12114"
           sodipodi:nodetypes="ccccccccc"
           style="fill:#fefefd;fill-opacity:1;fill-rule:evenodd;stroke:none" />
        <path
           d="m 573.8052,630.94564 -0.0624,0.71987 9.72438,1.80907 1.06687,-0.31821 5.4158,-2.73659 -0.082,-0.89098 -9.51882,-1.20921 -6.54378,2.62605 z"
           id="path12124"
           sodipodi:nodetypes="cccccccc"
           style="fill:#5c575b;fill-opacity:1;fill-rule:evenodd;stroke:none" />
        <path
           d="m 583.46267,632.57154 6.47453,-2.84816 -0.10121,0.63693 -5.51374,2.69011 -0.82057,0.25457 -0.82066,-0.25457 -8.78027,-1.59104 0.0822,-0.60578 9.47971,1.71794 z"
           id="path12126"
           sodipodi:nodetypes="ccccccccc"
           style="fill:#fefefd;fill-opacity:1;fill-rule:evenodd;stroke:none" />
        <path
           d="m 562.33133,629.05802 -0.0624,0.71989 9.72442,1.80907 1.06681,-0.3182 5.41582,-2.7366 -0.082,-0.89099 -9.51879,-1.20919 -6.5438,2.62602 z"
           id="path12128"
           sodipodi:nodetypes="cccccccc"
           style="fill:#5c575b;fill-opacity:1;fill-rule:evenodd;stroke:none" />
        <path
           d="m 571.98878,630.68393 6.47455,-2.84815 -0.10121,0.63693 -5.51374,2.69011 -0.82061,0.25457 -0.82057,-0.25457 -8.78033,-1.59105 0.0822,-0.60577 9.4797,1.71793 z"
           id="path12130"
           sodipodi:nodetypes="ccccccccc"
           style="fill:#fefefd;fill-opacity:1;fill-rule:evenodd;stroke:none" />
        <path
           d="m 551.55283,626.90077 -0.0624,0.71987 9.72443,1.80908 1.0668,-0.31821 5.41588,-2.7366 -0.082,-0.89098 -9.51885,-1.2092 -6.5438,2.62604 z"
           id="path12132"
           sodipodi:nodetypes="cccccccc"
           style="fill:#5c575b;fill-opacity:1;fill-rule:evenodd;stroke:none" />
        <path
           d="m 561.21029,628.52666 6.47456,-2.84815 -0.10127,0.63693 -5.5137,2.69011 -0.82058,0.25457 -0.82059,-0.25457 -8.78033,-1.59104 0.0822,-0.60578 9.47971,1.71793 z"
           id="path12134"
           sodipodi:nodetypes="ccccccccc"
           style="fill:#fefefd;fill-opacity:1;fill-rule:evenodd;stroke:none" />
        <path
           d="m 566.15596,634.9905 -0.0624,0.71988 9.72439,1.80908 1.06686,-0.31821 5.4158,-2.7366 -0.082,-0.89099 -9.51879,-1.20919 -6.54379,2.62603 z"
           id="path12144"
           sodipodi:nodetypes="cccccccc"
           style="fill:#5c575b;fill-opacity:1;fill-rule:evenodd;stroke:none" />
        <path
           d="m 575.81342,636.6164 6.47453,-2.84815 -0.10121,0.63693 -5.51374,2.69011 -0.82057,0.25457 -0.8206,-0.25457 -8.78034,-1.59105 0.0822,-0.60577 9.47972,1.71793 z"
           id="path12146"
           sodipodi:nodetypes="ccccccccc"
           style="fill:#fefefd;fill-opacity:1;fill-rule:evenodd;stroke:none" />
        <path
           d="m 554.68209,633.10291 -0.0624,0.71986 9.72444,1.80908 1.0668,-0.31821 5.41586,-2.7366 -0.082,-0.89098 -9.51884,-1.2092 -6.54378,2.62605 z"
           id="path12148"
           sodipodi:nodetypes="cccccccc"
           style="fill:#5c575b;fill-opacity:1;fill-rule:evenodd;stroke:none" />
        <path
           d="m 564.33954,634.7288 6.47455,-2.84815 -0.10126,0.63693 -5.51371,2.69011 -0.82059,0.25456 -0.82058,-0.25456 -8.78033,-1.59105 0.0822,-0.60577 9.47971,1.71793 z"
           id="path12150"
           sodipodi:nodetypes="ccccccccc"
           style="fill:#fefefd;fill-opacity:1;fill-rule:evenodd;stroke:none" />
        <path
           d="m 543.90359,630.94564 -0.0624,0.71987 9.72442,1.80907 1.0668,-0.31821 5.41587,-2.73659 -0.082,-0.89098 -9.51884,-1.20921 -6.5438,2.62605 z"
           id="path12152"
           sodipodi:nodetypes="cccccccc"
           style="fill:#5c575b;fill-opacity:1;fill-rule:evenodd;stroke:none" />
        <path
           d="m 553.56104,632.57154 6.47456,-2.84816 -0.10126,0.63693 -5.5137,2.69011 -0.8206,0.25457 -0.82057,-0.25457 -8.78034,-1.59104 0.0822,-0.60578 9.4797,1.71794 z"
           id="path12154"
           sodipodi:nodetypes="ccccccccc"
           style="fill:#fefefd;fill-opacity:1;fill-rule:evenodd;stroke:none" />
      </g>
      <path
         d="m 252.70452,458.78596 -16.76418,8.38209 -4.96716,2.17313 -3.72538,-1.86268 25.45672,-8.69254 z"
         id="path12374"
         style="fill:#5c575b;fill-opacity:1;fill-rule:evenodd;stroke:#000000;stroke-width:1px;stroke-linecap:butt;stroke-linejoin:miter;stroke-opacity:1" />
      <text
         id="text12617"
         sodipodi:linespacing="125%"
         space="preserve"
         style="font-size:10.0089798px;font-style:normal;font-variant:normal;font-weight:normal;font-stretch:normal;text-align:start;line-height:125%;writing-mode:lr-tb;text-anchor:start;fill:#00b800;fill-opacity:1;stroke:none;font-family:Bitstream Vera Sans Mono"
         transform="matrix(1.152915,0.06902673,-0.472362,0.839085,0,0)"
         x="433.62375"
         y="307.40585">
        <tspan
           id="tspan12621"
           sodipodi:role="line"
           x="433.62375"
           y="307.40585">tux@linux#</tspan>
      </text>
    </g>
    <use
       x="0"
       y="0"
       xlink:href="#use5103"
       id="use5105"
       transform="translate(15.152288,106.57109)"
       width="744.09448"
       height="1052.3622" />
    <use
       x="0"
       y="0"
       xlink:href="#use5109"
       id="use5111"
       transform="translate(20.203051,100.0051)"
       width="744.09448"
       height="1052.3622" />
    <text
       xml:space="preserve"
       style="font-size:14px;font-style:normal;font-variant:normal;font-weight:bold;font-stretch:normal;text-align:center;text-anchor:middle;fill:#000000;fill-opacity:1;stroke:none;font-family:Arial;-inkscape-font-specification:Bitstream Vera Sans Bold"
       x="213.14218"
       y="391.72241"
       id="text5113"><tspan
         sodipodi:role="line"
         id="tspan5115"
         x="213.14218"
         y="391.72241">AD HOC</tspan><tspan
         sodipodi:role="line"
         x="213.14218"
         y="409.22241"
         id="tspan5117">(Client to Client)</tspan></text>
    <use
       x="0"
       y="0"
       xlink:href="#g13349"
       id="use5103"
       transform="translate(106.06602,-89.903577)"
       width="744.09448"
       height="1052.3622" />
    <use
       x="0"
       y="0"
       xlink:href="#use5105"
       id="use5107"
       transform="translate(71.215754,-82.327432)"
       width="744.09448"
       height="1052.3622" />
    <use
       x="0"
       y="0"
       xlink:href="#use5107"
       id="use5109"
       transform="translate(78.791899,-32.324881)"
       width="744.09448"
       height="1052.3622" />
  </g>
</svg>
