<?xml version="1.0" standalone="no"?>
<!DOCTYPE svg PUBLIC "-//W3C//DTD SVG 1.0//EN"
  "http://www.w3.org/TR/2001/REC-SVG-20010904/DTD/svg10.dtd">
<svg width="740" height="260">
  <desc>Line7</desc>
  <defs>
    <marker id="Triangle5_Flip_Line7"
      viewBox="0 0 9.833 9.833" refX="9.708" refY="4.917"
      markerUnits = "strokeWidth"
      markerWidth="9.833" markerHeight="9.833"
      orient="auto">
      <polygon points=
        "9.833,9.833 0,4.917 9.833,0"
      />
    </marker>
  </defs>
  <defs>
    <marker id="Triangle5_Line7"
      viewBox="0 0 9.833 9.833" refX="0.125" refY="4.917"
      markerUnits = "strokeWidth"
      markerWidth="9.833" markerHeight="9.833"
      orient="auto">
      <polygon points=
        "0,9.833 9.833,4.917 0,0"
      />
    </marker>
  </defs>
  <line
    x1="-10.625"
    x2="10.625"
    y1="0"
    y2="0"
    marker-start="url(#Triangle5_Flip_Line7)"
    marker-end="url(#Triangle5_Line7)"
    stroke="rgb(0,0,0)"
    stroke-width="0.75"
    transform=
      "translate(294, 112.625)"
  />
  <desc>Line8</desc>
  <defs>
    <marker id="Triangle5_Flip_Line8"
      viewBox="0 0 9.833 9.833" refX="9.708" refY="4.917"
      markerUnits = "strokeWidth"
      markerWidth="9.833" markerHeight="9.833"
      orient="auto">
      <polygon points=
        "9.833,9.833 0,4.917 9.833,0"
      />
    </marker>
  </defs>
  <defs>
    <marker id="Triangle5_Line8"
      viewBox="0 0 9.833 9.833" refX="0.125" refY="4.917"
      markerUnits = "strokeWidth"
      markerWidth="9.833" markerHeight="9.833"
      orient="auto">
      <polygon points=
        "0,9.833 9.833,4.917 0,0"
      />
    </marker>
  </defs>
  <line
    x1="-13.625"
    x2="13.625"
    y1="0"
    y2="0"
    marker-start="url(#Triangle5_Flip_Line8)"
    marker-end="url(#Triangle5_Line8)"
    stroke="rgb(0,0,0)"
    stroke-width="0.75"
    transform=
      "translate(429, 112.625)"
  />
  <desc>TextBox9</desc>
  <rect
    x="-63"
    y="-25.563"
    width="126"
    height="51.125"
    fill="rgb(0,204,153)"
    stroke="rgb(0,0,0)"
    stroke-width="0.75"
    transform=
      "translate(135, 127.563)"
  />
  <text
    x="0"
    y="0"
    font-family="Times New Roman"
    font-size="12"
    transform=
      "translate(135,127.563)
      rotate(0)
      translate(-55.375,-13.188)"
    stroke="rgb(0,0,0)">
    NATO/National
  </text>
  <text
    x="0"
    y="0"
    font-family="Times New Roman"
    font-size="12"
    transform=
      "translate(135,127.563)
      rotate(0)
      translate(-55.375,1.188)"
    stroke="rgb(0,0,0)">
    Component 
  </text>
  <text
    x="0"
    y="0"
    font-family="Times New Roman"
    font-size="12"
    transform=
      "translate(135,127.563)
      rotate(0)
      translate(-55.375,15.563)"
    stroke="rgb(0,0,0)">
    Network/System
  </text>
  <desc>TextBox10</desc>
  <rect
    x="-61.125"
    y="-25.563"
    width="122.25"
    height="51.125"
    fill="rgb(204,204,255)"
    stroke="rgb(0,0,0)"
    stroke-width="0.75"
    transform=
      "translate(589.125, 127.563)"
  />
  <text
    x="0"
    y="0"
    font-family="Times New Roman"
    font-size="12"
    transform=
      "translate(589.125,127.563)
      rotate(0)
      translate(-53.5,-13.188)"
    stroke="rgb(0,0,0)">
    National/Organisation
  </text>
  <text
    x="0"
    y="0"
    font-family="Times New Roman"
    font-size="12"
    transform=
      "translate(589.125,127.563)
      rotate(0)
      translate(-53.5,1.188)"
    stroke="rgb(0,0,0)">
    Component 
  </text>
  <text
    x="0"
    y="0"
    font-family="Times New Roman"
    font-size="12"
    transform=
      "translate(589.125,127.563)
      rotate(0)
      translate(-53.5,15.563)"
    stroke="rgb(0,0,0)">
    Network/System
  </text>
  <desc>TextBox14</desc>
  <rect
    x="-13.313"
    y="-61.5"
    width="26.625"
    height="123"
    fill="rgb(255,0,0)"
    stroke="rgb(0,0,0)"
    stroke-width="0.75"
    transform=
      "translate(259.313, 139.5)"
  />
  <text
    x="0"
    y="0"
    font-family="Times New Roman"
    font-size="12"
    transform=
      "translate(259.313,139.5)
      rotate(0)
      translate(-5.688,-49.125)"
    stroke="rgb(0,0,0)">
    F
  </text>
  <text
    x="0"
    y="0"
    font-family="Times New Roman"
    font-size="12"
    transform=
      "translate(259.313,139.5)
      rotate(0)
      translate(-5.688,-34.75)"
    stroke="rgb(0,0,0)">
    I
  </text>
  <text
    x="0"
    y="0"
    font-family="Times New Roman"
    font-size="12"
    transform=
      "translate(259.313,139.5)
      rotate(0)
      translate(-5.688,-20.375)"
    stroke="rgb(0,0,0)">
    R
  </text>
  <text
    x="0"
    y="0"
    font-family="Times New Roman"
    font-size="12"
    transform=
      "translate(259.313,139.5)
      rotate(0)
      translate(-5.688,-6)"
    stroke="rgb(0,0,0)">
    E
  </text>
  <text
    x="0"
    y="0"
    font-family="Times New Roman"
    font-size="12"
    transform=
      "translate(259.313,139.5)
      rotate(0)
      translate(-5.688,8.375)"
    stroke="rgb(0,0,0)">
    W
  </text>
  <text
    x="0"
    y="0"
    font-family="Times New Roman"
    font-size="12"
    transform=
      "translate(259.313,139.5)
      rotate(0)
      translate(-5.688,22.75)"
    stroke="rgb(0,0,0)">
    A
  </text>
  <text
    x="0"
    y="0"
    font-family="Times New Roman"
    font-size="12"
    transform=
      "translate(259.313,139.5)
      rotate(0)
      translate(-5.688,37.125)"
    stroke="rgb(0,0,0)">
    L
  </text>
  <text
    x="0"
    y="0"
    font-family="Times New Roman"
    font-size="12"
    transform=
      "translate(259.313,139.5)
      rotate(0)
      translate(-5.688,51.5)"
    stroke="rgb(0,0,0)">
    L
  </text>
  <desc>TextBox15</desc>
  <rect
    x="-13.313"
    y="-61.5"
    width="26.625"
    height="123"
    fill="rgb(255,0,0)"
    stroke="rgb(0,0,0)"
    stroke-width="0.75"
    transform=
      "translate(463.313, 139.5)"
  />
  <text
    x="0"
    y="0"
    font-family="Times New Roman"
    font-size="12"
    transform=
      "translate(463.313,139.5)
      rotate(0)
      translate(-5.688,-49.125)"
    stroke="rgb(0,0,0)">
    F
  </text>
  <text
    x="0"
    y="0"
    font-family="Times New Roman"
    font-size="12"
    transform=
      "translate(463.313,139.5)
      rotate(0)
      translate(-5.688,-34.75)"
    stroke="rgb(0,0,0)">
    I
  </text>
  <text
    x="0"
    y="0"
    font-family="Times New Roman"
    font-size="12"
    transform=
      "translate(463.313,139.5)
      rotate(0)
      translate(-5.688,-20.375)"
    stroke="rgb(0,0,0)">
    R
  </text>
  <text
    x="0"
    y="0"
    font-family="Times New Roman"
    font-size="12"
    transform=
      "translate(463.313,139.5)
      rotate(0)
      translate(-5.688,-6)"
    stroke="rgb(0,0,0)">
    E
  </text>
  <text
    x="0"
    y="0"
    font-family="Times New Roman"
    font-size="12"
    transform=
      "translate(463.313,139.5)
      rotate(0)
      translate(-5.688,8.375)"
    stroke="rgb(0,0,0)">
    W
  </text>
  <text
    x="0"
    y="0"
    font-family="Times New Roman"
    font-size="12"
    transform=
      "translate(463.313,139.5)
      rotate(0)
      translate(-5.688,22.75)"
    stroke="rgb(0,0,0)">
    A
  </text>
  <text
    x="0"
    y="0"
    font-family="Times New Roman"
    font-size="12"
    transform=
      "translate(463.313,139.5)
      rotate(0)
      translate(-5.688,37.125)"
    stroke="rgb(0,0,0)">
    L
  </text>
  <text
    x="0"
    y="0"
    font-family="Times New Roman"
    font-size="12"
    transform=
      "translate(463.313,139.5)
      rotate(0)
      translate(-5.688,51.5)"
    stroke="rgb(0,0,0)">
    L
  </text>
  <desc>Line16</desc>
  <defs>
    <marker id="Triangle5_Flip_Line16"
      viewBox="0 0 9.833 9.833" refX="9.708" refY="4.917"
      markerUnits = "strokeWidth"
      markerWidth="9.833" markerHeight="9.833"
      orient="auto">
      <polygon points=
        "9.833,9.833 0,4.917 9.833,0"
      />
    </marker>
  </defs>
  <defs>
    <marker id="Triangle5_Line16"
      viewBox="0 0 9.833 9.833" refX="0.125" refY="4.917"
      markerUnits = "strokeWidth"
      markerWidth="9.833" markerHeight="9.833"
      orient="auto">
      <polygon points=
        "0,9.833 9.833,4.917 0,0"
      />
    </marker>
  </defs>
  <line
    x1="-16.625"
    x2="16.625"
    y1="0"
    y2="0"
    marker-start="url(#Triangle5_Flip_Line16)"
    marker-end="url(#Triangle5_Line16)"
    stroke="rgb(0,0,0)"
    stroke-width="0.75"
    transform=
      "translate(222, 126)"
  />
  <desc>Line17</desc>
  <defs>
    <marker id="Triangle5_Flip_Line17"
      viewBox="0 0 9.833 9.833" refX="9.708" refY="4.917"
      markerUnits = "strokeWidth"
      markerWidth="9.833" markerHeight="9.833"
      orient="auto">
      <polygon points=
        "9.833,9.833 0,4.917 9.833,0"
      />
    </marker>
  </defs>
  <defs>
    <marker id="Triangle5_Line17"
      viewBox="0 0 9.833 9.833" refX="0.125" refY="4.917"
      markerUnits = "strokeWidth"
      markerWidth="9.833" markerHeight="9.833"
      orient="auto">
      <polygon points=
        "0,9.833 9.833,4.917 0,0"
      />
    </marker>
  </defs>
  <line
    x1="-16.625"
    x2="16.625"
    y1="0"
    y2="0"
    marker-start="url(#Triangle5_Flip_Line17)"
    marker-end="url(#Triangle5_Line17)"
    stroke="rgb(0,0,0)"
    stroke-width="0.75"
    transform=
      "translate(504, 126)"
  />
  <g id="Group23">
    <symbol id="AutoShape18" viewBox="0 0 97 43.375">
      <desc>Undefined Symbol "108"</desc>
    </symbol>
    <desc>Oval19</desc>
    <ellipse
      cx="0"
      cy="0"
      rx="16"
      ry="9.938"
      fill="rgb(255,255,255)"
      stroke="none"
      transform=
        "translate(335.5, 140.063)"
    />
    <desc>TextBox21</desc>
    <rect
      x="-24"
      y="-12"
      width="48"
      height="24"
      fill="none"
      stroke="none"
      transform=
        "translate(360, 112.75)"
    />
    <text
      x="0"
      y="0"
      font-family="Times New Roman"
      font-size="14"
      transform=
        "translate(360,112.75)
        rotate(0)
        translate(-16.75,1.375)"
      stroke="rgb(0,0,0)">
      WAN
    </text>
  </g>
  <desc>Line24</desc>
  <defs>
    <marker id="Triangle5_Flip_Line24"
      viewBox="0 0 9.833 9.833" refX="9.708" refY="4.917"
      markerUnits = "strokeWidth"
      markerWidth="9.833" markerHeight="9.833"
      orient="auto">
      <polygon points=
        "9.833,9.833 0,4.917 9.833,0"
      />
    </marker>
  </defs>
  <defs>
    <marker id="Triangle5_Line24"
      viewBox="0 0 9.833 9.833" refX="0.125" refY="4.917"
      markerUnits = "strokeWidth"
      markerWidth="9.833" markerHeight="9.833"
      orient="auto">
      <polygon points=
        "0,9.833 9.833,4.917 0,0"
      />
    </marker>
  </defs>
  <line
    x1="-79.625"
    x2="79.625"
    y1="0"
    y2="0"
    marker-start="url(#Triangle5_Flip_Line24)"
    marker-end="url(#Triangle5_Line24)"
    stroke="rgb(0,0,0)"
    stroke-width="0.75"
    transform=
      "translate(363, 150)"
  />
</svg>
