<?xml version="1.0" encoding="UTF-8" standalone="no"?>
<svg xmlns="http://www.w3.org/2000/svg" width="545.75" height="470.5">
  <g transform="scale(1.0,1.0)">
    <desc>Background</desc>
    <rect
      x="0"
      y="0"
      width="720"
      height="540"
      fill="rgb(255,255,255)"
    />
    <g id="Group120">
      <desc>Rectangle3</desc>
      <rect
        x="-126"
        y="-204"
        width="252"
        height="408"
        fill="none"
        stroke="rgb(128,128,128)"
        stroke-dasharray="9,6"
        stroke-width="2"
        transform=
          "translate(224.75, 258.25)"
      />
      <desc>TextBox4</desc>
      <rect
        x="-108.438"
        y="-18"
        width="216.875"
        height="36"
        fill="none"
        stroke="none"
        transform=
          "translate(217.438, 32.125)"
      />
      <text
        x="0"
        y="0"
        font-family="Times New Roman"
        font-size="24"
        font-weight="bold"
        transform=
          "translate(217.438,32.125)
          rotate(0)
          translate(-83.438,2.375)"
        fill="rgb(0,0,0)" 
        stroke="none">
        Named&#160;Operation
      </text>
      <desc>Oval5</desc>
      <ellipse
        cx="0"
        cy="0"
        rx="36"
        ry="18"
        fill="none"
        stroke="rgb(51,102,255)"
        stroke-width="2"
        transform=
          "translate(290.75, 210.25)"
      />
      <text
        x="0"
        y="0"
        font-family="Arial"
        font-size="16"
        transform=
          "translate(290.75,210.25)
          rotate(0)
          translate(-17.375,1.75)"
        fill="rgb(51,102,255)" 
        stroke="none">
        Core
      </text>
      <desc>Oval6</desc>
      <ellipse
        cx="0"
        cy="0"
        rx="36"
        ry="18"
        fill="none"
        stroke="rgb(51,102,255)"
        stroke-width="2"
        transform=
          "translate(236.75, 282.25)"
      />
      <text
        x="0"
        y="0"
        font-family="Arial"
        font-size="11"
        transform=
          "translate(236.75,282.25)
          rotate(0)
          translate(-16,-5.375)"
        fill="rgb(51,102,255)" 
        stroke="none">
        Nation&#160;
      </text>
      <text
        x="0"
        y="0"
        font-family="Arial"
        font-size="11"
        transform=
          "translate(236.75,282.25)
          rotate(0)
          translate(-7.375,7.875)"
        fill="rgb(51,102,255)" 
        stroke="none">
        &#8220;A&#8221;
      </text>
      <desc>StraightConnector8</desc>
      <line
        x1="-14.25"
        x2="14.25"
        y1="20.625"
        y2="-20.625"
        stroke="rgb(51,102,255)"
        stroke-width="2.25"
        transform=
          "translate(276.5, 248.875)"
      />
      <desc>Rectangle9</desc>
      <rect
        x="-24"
        y="-12"
        width="48"
        height="24"
        fill="none"
        stroke="rgb(51,102,255)"
        stroke-width="2"
        transform=
          "translate(290.75, 180.25)"
      />
      <text
        x="0"
        y="0"
        font-family="Arial"
        font-size="9"
        transform=
          "translate(290.75,180.25)
          rotate(0)
          translate(-15.25,-4.5)"
        fill="rgb(51,102,255)" 
        stroke="none">
        Mission&#160;
      </text>
      <text
        x="0"
        y="0"
        font-family="Arial"
        font-size="9"
        transform=
          "translate(290.75,180.25)
          rotate(0)
          translate(-10.25,6.25)"
        fill="rgb(51,102,255)" 
        stroke="none">
        Apps
      </text>
      <desc>Rectangle10</desc>
      <rect
        x="-24"
        y="-12"
        width="48"
        height="24"
        fill="none"
        stroke="rgb(51,102,255)"
        stroke-width="2"
        transform=
          "translate(297.125, 281.75)"
      />
      <text
        x="0"
        y="0"
        font-family="Arial"
        font-size="9"
        transform=
          "translate(297.125,281.75)
          rotate(0)
          translate(-15.25,-4.5)"
        fill="rgb(51,102,255)" 
        stroke="none">
        Mission&#160;
      </text>
      <text
        x="0"
        y="0"
        font-family="Arial"
        font-size="9"
        transform=
          "translate(297.125,281.75)
          rotate(0)
          translate(-10.25,6.25)"
        fill="rgb(51,102,255)" 
        stroke="none">
        Apps
      </text>
      <desc>StraightConnector11</desc>
      <line
        x1="16.5"
        x2="-16.5"
        y1="20.25"
        y2="-20.25"
        stroke="rgb(192,0,0)"
        stroke-width="2.25"
        transform=
          "translate(248.75, 177.25)"
      />
      <desc>Oval13</desc>
      <ellipse
        cx="0"
        cy="0"
        rx="36"
        ry="18"
        fill="none"
        stroke="rgb(192,0,0)"
        stroke-width="2"
        transform=
          "translate(206.75, 144.25)"
      />
      <text
        x="0"
        y="0"
        font-family="Arial"
        font-size="11"
        transform=
          "translate(206.75,144.25)
          rotate(0)
          translate(-19.625,-5.375)"
        fill="rgb(192,0,0)" 
        stroke="none">
        Nation&#160;
      </text>
      <text
        x="0"
        y="0"
        font-family="Arial"
        font-size="11"
        transform=
          "translate(206.75,144.25)
          rotate(0)
          translate(-19.625,7.875)"
        fill="rgb(192,0,0)" 
        stroke="none">
        &#8220;B&#8221;
      </text>
      <desc>Oval14</desc>
      <ellipse
        cx="0"
        cy="0"
        rx="36"
        ry="18"
        fill="none"
        stroke="rgb(51,102,255)"
        stroke-width="2"
        transform=
          "translate(222.375, 342.625)"
      />
      <text
        x="0"
        y="0"
        font-family="Arial"
        font-size="10"
        transform=
          "translate(222.375,342.625)
          rotate(0)
          translate(-14.375,-4.875)"
        fill="rgb(51,102,255)" 
        stroke="none">
        Nation&#160;
      </text>
      <text
        x="0"
        y="0"
        font-family="Arial"
        font-size="10"
        transform=
          "translate(222.375,342.625)
          rotate(0)
          translate(-19.25,7.125)"
        fill="rgb(51,102,255)" 
        stroke="none">
        &#8220;A&#8221;&#160;GCC
      </text>
      <desc>StraightConnector16</desc>
      <line
        x1="-7.188"
        x2="7.188"
        y1="12.188"
        y2="-12.188"
        stroke="rgb(51,102,255)"
        stroke-width="2.25"
        transform=
          "translate(229.563, 312.438)"
      />
      <desc>TextBox18</desc>
      <rect
        x="-79.188"
        y="-114.688"
        width="158.375"
        height="229.375"
        fill="none"
        stroke="rgb(128,128,128)"
        stroke-width="0.75"
        transform=
          "translate(460.313, 349.938)"
      />
      <text
        x="0"
        y="0"
        font-family="Arial"
        font-size="12"
        transform=
          "translate(460.313,349.938)
          rotate(0)
          translate(-71.563,-96.563)"
        fill="rgb(0,0,153)" 
        stroke="none">
        &#8226;&#160;Single&#160;Owner
      </text>
      <text
        x="0"
        y="0"
        font-family="Arial"
        font-size="12"
        transform=
          "translate(460.313,349.938)
          rotate(0)
          translate(-35.563,-76.438)"
        fill="rgb(0,0,153)" 
        stroke="none">
        &#160;Lead&#160;Nation
      </text>
      <text
        x="0"
        y="0"
        font-family="Arial"
        font-size="12"
        transform=
          "translate(460.313,349.938)
          rotate(0)
          translate(-71.563,-56.313)"
        fill="rgb(0,0,153)" 
        stroke="none">
        &#8226;&#160;Core&#160;Enabling&#160;Services
      </text>
      <text
        x="0"
        y="0"
        font-family="Arial"
        font-size="12"
        transform=
          "translate(460.313,349.938)
          rotate(0)
          translate(-35.563,-36.188)"
        fill="rgb(0,0,153)" 
        stroke="none">
        Voice
      </text>
      <text
        x="0"
        y="0"
        font-family="Arial"
        font-size="12"
        transform=
          "translate(460.313,349.938)
          rotate(0)
          translate(-35.563,-16.063)"
        fill="rgb(0,0,153)" 
        stroke="none">
        Streaming&#160;Video
      </text>
      <text
        x="0"
        y="0"
        font-family="Arial"
        font-size="12"
        transform=
          "translate(460.313,349.938)
          rotate(0)
          translate(-35.563,4.063)"
        fill="rgb(0,0,153)" 
        stroke="none">
        VTC
      </text>
      <text
        x="0"
        y="0"
        font-family="Arial"
        font-size="12"
        transform=
          "translate(460.313,349.938)
          rotate(0)
          translate(-35.563,24.188)"
        fill="rgb(0,0,153)" 
        stroke="none">
        Email
      </text>
      <text
        x="0"
        y="0"
        font-family="Arial"
        font-size="12"
        transform=
          "translate(460.313,349.938)
          rotate(0)
          translate(-35.563,44.313)"
        fill="rgb(0,0,153)" 
        stroke="none">
        Chat
      </text>
      <text
        x="0"
        y="0"
        font-family="Arial"
        font-size="12"
        transform=
          "translate(460.313,349.938)
          rotate(0)
          translate(-35.563,64.438)"
        fill="rgb(0,0,153)" 
        stroke="none">
        Portal
      </text>
      <text
        x="0"
        y="0"
        font-family="Arial"
        font-size="12"
        transform=
          "translate(460.313,349.938)
          rotate(0)
          translate(-71.563,84.563)"
        fill="rgb(0,0,153)" 
        stroke="none">
        &#8226;&#160;National&#160;Interconnection&#160;&#160;&#160;&#160;
      </text>
      <text
        x="0"
        y="0"
        font-family="Arial"
        font-size="12"
        transform=
          "translate(460.313,349.938)
          rotate(0)
          translate(-71.563,104.688)"
        fill="rgb(0,0,153)" 
        stroke="none">
        &#160;&#160;Points
      </text>
      <desc>TextBox19</desc>
      <rect
        x="-36"
        y="-14.438"
        width="72"
        height="28.875"
        fill="none"
        stroke="none"
        transform=
          "translate(456.75, 221.313)"
      />
      <text
        x="0"
        y="0"
        font-family="Arial"
        font-size="18"
        transform=
          "translate(456.75,221.313)
          rotate(0)
          translate(-26,1.813)"
        fill="rgb(0,0,153)" 
        stroke="none">
        CORE
      </text>
      <desc>TextBox20</desc>
      <rect
        x="-30"
        y="-12"
        width="60"
        height="24"
        fill="none"
        stroke="none"
        transform=
          "translate(218.75, 72.25)"
      />
      <text
        x="0"
        y="0"
        font-family="Arial"
        font-size="14"
        text-decoration="underline"
        transform=
          "translate(218.75,72.25)
          rotate(0)
          translate(-22.75,1.375)"
        fill="rgb(0,0,153)" 
        stroke="none">
        TIER&#160;2
      </text>
      <desc>TextBox21</desc>
      <rect
        x="-79.375"
        y="-47.125"
        width="158.75"
        height="94.25"
        fill="none"
        stroke="rgb(128,128,128)"
        stroke-width="0.75"
        transform=
          "translate(460.5, 95.25)"
      />
      <text
        x="0"
        y="0"
        font-family="Arial"
        font-size="12"
        transform=
          "translate(460.5,95.25)
          rotate(0)
          translate(-71.75,-34.75)"
        fill="rgb(0,0,153)" 
        stroke="none">
        &#8226;&#160;TBMCS
      </text>
      <text
        x="0"
        y="0"
        font-family="Arial"
        font-size="12"
        transform=
          "translate(460.5,95.25)
          rotate(0)
          translate(-71.75,-20.375)"
        fill="rgb(0,0,153)" 
        stroke="none">
        &#8226;&#160;GCCS
      </text>
      <text
        x="0"
        y="0"
        font-family="Arial"
        font-size="12"
        transform=
          "translate(460.5,95.25)
          rotate(0)
          translate(-71.75,-6)"
        fill="rgb(0,0,153)" 
        stroke="none">
        &#8226;&#160;ADSI
      </text>
      <text
        x="0"
        y="0"
        font-family="Arial"
        font-size="12"
        transform=
          "translate(460.5,95.25)
          rotate(0)
          translate(-71.75,8.375)"
        fill="rgb(0,0,153)" 
        stroke="none">
        &#8226;&#160;CPOF
      </text>
      <text
        x="0"
        y="0"
        font-family="Arial"
        font-size="12"
        transform=
          "translate(460.5,95.25)
          rotate(0)
          translate(-71.75,22.75)"
        fill="rgb(0,0,153)" 
        stroke="none">
        &#8226;&#160;JADOCS
      </text>
      <text
        x="0"
        y="0"
        font-family="Arial"
        font-size="12"
        transform=
          "translate(460.5,95.25)
          rotate(0)
          translate(-71.75,37.125)"
        fill="rgb(0,0,153)" 
        stroke="none">
        &#160;&#160;&#160;&#160;and&#160;others
      </text>
      <desc>TextBox22</desc>
      <rect
        x="-63"
        y="-14.438"
        width="126"
        height="28.875"
        fill="none"
        stroke="none"
        transform=
          "translate(461.125, 34.188)"
      />
      <text
        x="0"
        y="0"
        font-family="Arial"
        font-size="18"
        transform=
          "translate(461.125,34.188)
          rotate(0)
          translate(-53.5,1.813)"
        fill="rgb(0,0,153)" 
        stroke="none">
        Mission&#160;Apps
      </text>
      <desc>Oval23</desc>
      <ellipse
        cx="0"
        cy="0"
        rx="36"
        ry="18"
        fill="none"
        stroke="rgb(51,102,255)"
        stroke-width="2"
        transform=
          "translate(138.625, 210.625)"
      />
      <text
        x="0"
        y="0"
        font-family="Arial"
        font-size="10"
        transform=
          "translate(138.625,210.625)
          rotate(0)
          translate(-14.375,-4.875)"
        fill="rgb(51,102,255)" 
        stroke="none">
        Nation&#160;
      </text>
      <text
        x="0"
        y="0"
        font-family="Arial"
        font-size="10"
        transform=
          "translate(138.625,210.625)
          rotate(0)
          translate(-19.25,7.125)"
        fill="rgb(51,102,255)" 
        stroke="none">
        &#8220;A&#8221;&#160;GCC
      </text>
      <desc>StraightConnector24</desc>
      <line
        x1="-21.313"
        x2="21.313"
        y1="17.813"
        y2="-17.813"
        stroke="rgb(51,102,255)"
        stroke-width="2.25"
        transform=
          "translate(159.938, 174.813)"
      />
      <desc>Oval25</desc>
      <ellipse
        cx="0"
        cy="0"
        rx="36"
        ry="18"
        fill="none"
        stroke="rgb(192,0,0)"
        stroke-width="2"
        transform=
          "translate(140.75, 96.25)"
      />
      <text
        x="0"
        y="0"
        font-family="Arial"
        font-size="10"
        transform=
          "translate(140.75,96.25)
          rotate(0)
          translate(-14.375,-4.875)"
        fill="rgb(192,0,0)" 
        stroke="none">
        Nation&#160;
      </text>
      <text
        x="0"
        y="0"
        font-family="Arial"
        font-size="10"
        transform=
          "translate(140.75,96.25)
          rotate(0)
          translate(-6.75,7.125)"
        fill="rgb(192,0,0)" 
        stroke="none">
        &#8220;B&#8221;&#160;
      </text>
      <desc>StraightConnector26</desc>
      <line
        x1="12.813"
        x2="-12.813"
        y1="9.188"
        y2="-9.188"
        stroke="rgb(192,0,0)"
        stroke-width="2.25"
        transform=
          "translate(168.438, 121.313)"
      />
      <desc>Oval29</desc>
      <ellipse
        cx="0"
        cy="0"
        rx="36"
        ry="18"
        fill="none"
        stroke="rgb(51,102,255)"
        stroke-width="2"
        transform=
          "translate(54.875, 304.25)"
      />
      <text
        x="0"
        y="0"
        font-family="Arial"
        font-size="11"
        transform=
          "translate(54.875,304.25)
          rotate(0)
          translate(-16,-5.375)"
        fill="rgb(51,102,255)" 
        stroke="none">
        Nation&#160;
      </text>
      <text
        x="0"
        y="0"
        font-family="Arial"
        font-size="11"
        transform=
          "translate(54.875,304.25)
          rotate(0)
          translate(-7.375,7.875)"
        fill="rgb(51,102,255)" 
        stroke="none">
        &#8220;A&#8221;
      </text>
      <desc>StraightConnector30</desc>
      <line
        x1="-54.938"
        x2="54.938"
        y1="11"
        y2="-11"
        stroke="rgb(51,102,255)"
        stroke-width="2.25"
        transform=
          "translate(145.813, 293.25)"
      />
      <desc>TextBox32</desc>
      <rect
        x="-51"
        y="-18"
        width="102"
        height="36"
        fill="none"
        stroke="none"
        transform=
          "translate(79.625, 370.5)
          rotate(270)"
      />
      <text
        x="0"
        y="0"
        font-family="Arial"
        font-size="12"
        transform=
          "translate(79.625,370.5)
          rotate(270)
          translate(-21.875,-6)"
        fill="rgb(0,0,153)" 
        stroke="none">
        National&#160;
      </text>
      <text
        x="0"
        y="0"
        font-family="Arial"
        font-size="12"
        transform=
          "translate(79.625,370.5)
          rotate(270)
          translate(-26.25,8.375)"
        fill="rgb(0,0,153)" 
        stroke="none">
        Extension
      </text>
      <desc>StraightConnector33</desc>
      <line
        x1="0"
        x2="0"
        y1="-21.375"
        y2="21.375"
        stroke="rgb(51,102,255)"
        stroke-width="2.25"
        transform=
          "translate(53.25, 342.875)"
      />
      <desc>StraightConnector35</desc>
      <line
        x1="0.5"
        x2="-0.5"
        y1="-11.688"
        y2="11.688"
        stroke="rgb(51,102,255)"
        stroke-width="2.25"
        transform=
          "translate(53, 407.313)"
      />
      <desc>StraightConnector36</desc>
      <line
        x1="12"
        x2="-12"
        y1="-12"
        y2="12"
        stroke="rgb(51,102,255)"
        stroke-width="2.25"
        transform=
          "translate(49.375, 372.75)"
      />
      <desc>StraightConnector38</desc>
      <line
        x1="12"
        x2="-12"
        y1="-12"
        y2="12"
        stroke="rgb(51,102,255)"
        stroke-width="2.25"
        transform=
          "translate(53.25, 396.625)"
      />
      <desc>Oval39</desc>
      <ellipse
        cx="0"
        cy="0"
        rx="39"
        ry="20.25"
        fill="none"
        stroke="rgb(51,102,255)"
        stroke-width="2"
        transform=
          "translate(53.125, 439.25)"
      />
      <text
        x="0"
        y="0"
        font-family="Arial"
        font-size="10"
        transform=
          "translate(53.125,439.25)
          rotate(0)
          translate(-18.25,-10.875)"
        fill="rgb(51,102,255)" 
        stroke="none">
        National&#160;
      </text>
      <text
        x="0"
        y="0"
        font-family="Arial"
        font-size="10"
        transform=
          "translate(53.125,439.25)
          rotate(0)
          translate(-18,1.125)"
        fill="rgb(51,102,255)" 
        stroke="none">
        Security&#160;
      </text>
      <text
        x="0"
        y="0"
        font-family="Arial"
        font-size="10"
        transform=
          "translate(53.125,439.25)
          rotate(0)
          translate(-17.75,13.125)"
        fill="rgb(51,102,255)" 
        stroke="none">
        Enclave
      </text>
      <desc>TextBox40</desc>
      <rect
        x="-24"
        y="-12"
        width="48"
        height="24"
        fill="none"
        stroke="none"
        transform=
          "translate(51.625, 382.125)
          rotate(314.276)"
      />
      <text
        x="0"
        y="0"
        font-family="Arial"
        font-size="14"
        transform=
          "translate(51.625,382.125)
          rotate(314.276)
          translate(-16.75,1.25)"
        fill="rgb(0,0,153)" 
        stroke="none">
        CDS
      </text>
      <desc>Rectangle43</desc>
      <rect
        x="-24"
        y="-12"
        width="48"
        height="24"
        fill="none"
        stroke="rgb(192,0,0)"
        stroke-width="2"
        transform=
          "translate(267.125, 143.625)"
      />
      <text
        x="0"
        y="0"
        font-family="Arial"
        font-size="9"
        transform=
          "translate(267.125,143.625)
          rotate(0)
          translate(-15.25,-4.5)"
        fill="rgb(192,0,0)" 
        stroke="none">
        Mission&#160;
      </text>
      <text
        x="0"
        y="0"
        font-family="Arial"
        font-size="9"
        transform=
          "translate(267.125,143.625)
          rotate(0)
          translate(-10.25,6.25)"
        fill="rgb(192,0,0)" 
        stroke="none">
        Apps
      </text>
      <desc>TextBox45</desc>
      <rect
        x="-21"
        y="-10.25"
        width="42"
        height="20.5"
        fill="none"
        stroke="none"
        transform=
          "translate(57.875, 270.25)"
      />
      <text
        x="0"
        y="0"
        font-family="Arial"
        font-size="11"
        text-decoration="underline"
        transform=
          "translate(57.875,270.25)
          rotate(0)
          translate(-13.75,1.125)"
        fill="rgb(0,0,153)" 
        stroke="none">
        MOD
      </text>
      <desc>Oval46</desc>
      <ellipse
        cx="0"
        cy="0"
        rx="9"
        ry="9"
        fill="none"
        stroke="rgb(128,128,128)"
        stroke-width="2"
        transform=
          "translate(218.625, 383.625)"
      />
      <desc>Oval47</desc>
      <ellipse
        cx="0"
        cy="0"
        rx="9"
        ry="9"
        fill="none"
        stroke="rgb(128,128,128)"
        stroke-width="2"
        transform=
          "translate(257.375, 385.5)"
      />
      <desc>Oval48</desc>
      <ellipse
        cx="0"
        cy="0"
        rx="9"
        ry="9"
        fill="none"
        stroke="rgb(128,128,128)"
        stroke-width="2"
        transform=
          "translate(171.625, 386.125)"
      />
      <desc>StraightConnector49</desc>
      <line
        x1="4.75"
        x2="-4.75"
        y1="10.563"
        y2="-10.563"
        stroke="rgb(128,128,128)"
        stroke-width="2.25"
        transform=
          "translate(252.625, 365.938)"
      />
      <desc>StraightConnector51</desc>
      <line
        x1="1.875"
        x2="-1.875"
        y1="-7"
        y2="7"
        stroke="rgb(128,128,128)"
        stroke-width="2.25"
        transform=
          "translate(220.5, 367.625)"
      />
      <desc>StraightConnector55</desc>
      <line
        x1="12.688"
        x2="-12.688"
        y1="-10.875"
        y2="10.875"
        stroke="rgb(128,128,128)"
        stroke-width="2.25"
        transform=
          "translate(184.313, 366.25)"
      />
      <desc>TextBox67</desc>
      <rect
        x="-124.688"
        y="-16.875"
        width="249.375"
        height="33.75"
        fill="none"
        stroke="none"
        transform=
          "translate(225.313, 443.125)"
      />
      <text
        x="0"
        y="0"
        font-family="Arial"
        font-size="11"
        text-decoration="underline"
        font-weight="bold"
        transform=
          "translate(225.313,443.125)
          rotate(0)
          translate(-62.063,-5.5)"
        fill="rgb(0,0,0)" 
        stroke="none">
        Single&#160;Security&#160;Enclave
      </text>
      <text
        x="0"
        y="0"
        font-family="Arial"
        font-size="11"
        font-weight="bold"
        transform=
          "translate(225.313,443.125)
          rotate(0)
          translate(-48.188,7.75)"
        fill="rgb(0,0,0)" 
        stroke="none">
        Written&#160;for&#160;release
      </text>
      <desc>TextBox72</desc>
      <rect
        x="-60"
        y="-15.625"
        width="120"
        height="31.25"
        fill="none"
        stroke="none"
        transform=
          "translate(220.25, 407.25)"
      />
      <text
        x="0"
        y="0"
        font-family="Arial"
        font-size="10"
        font-weight="bold"
        transform=
          "translate(220.25,407.25)
          rotate(0)
          translate(-37.375,-5)"
        fill="rgb(127,127,127)" 
        stroke="none">
        Mission&#160;Partner&#160;
      </text>
      <text
        x="0"
        y="0"
        font-family="Arial"
        font-size="10"
        font-weight="bold"
        transform=
          "translate(220.25,407.25)
          rotate(0)
          translate(-26.625,7)"
        fill="rgb(127,127,127)" 
        stroke="none">
        Extensions
      </text>
      <desc>Rectangle86</desc>
      <rect
        x="-27.063"
        y="-6.625"
        width="54.125"
        height="13.25"
        fill="none"
        stroke="rgb(192,0,0)"
        stroke-width="2"
        transform=
          "translate(204.438, 119.625)"
      />
      <text
        x="0"
        y="0"
        font-family="Arial"
        font-size="8"
        transform=
          "translate(204.438,119.625)
          rotate(0)
          translate(-24.188,0.875)"
        fill="rgb(192,0,0)" 
        stroke="none">
        Regional&#160;&#160;HQ
      </text>
      <desc>Rectangle87</desc>
      <rect
        x="-27.063"
        y="-6.688"
        width="54.125"
        height="13.375"
        fill="none"
        stroke="rgb(51,102,255)"
        stroke-width="2"
        transform=
          "translate(229.563, 257.813)"
      />
      <text
        x="0"
        y="0"
        font-family="Arial"
        font-size="8"
        transform=
          "translate(229.563,257.813)
          rotate(0)
          translate(-24.188,0.813)"
        fill="rgb(51,102,255)" 
        stroke="none">
        Regional&#160;&#160;HQ
      </text>
      <desc>Cloud108</desc>
      <g id="Group123">
        <g id="Group127">
          <desc>Freeform124</desc>
          <path d=
            "M26.625,138.875 C26.125,138 27.25,137 29.75,136.25
            33.75,135.125 40.125,134.875 45.125,135.625 48.125,134.125
            55.875,133.75 60.5,135 61.75,134.375 64,134
            66.5,133.875 69.375,133.75 72.25,134.125 74,134.625
            76.5,133.875 80.75,133.625 84.25,134 87,134.375
            89,135 89.5,135.75 92.625,136 95.125,136.625
            96.25,137.5 96.875,138.125 96.875,138.75 95.875,139.25
            98.25,140.125 99,141.125 98.125,142.125 96.875,143.375
            92.75,144.375 87.875,144.625 87.75,145.375 86.5,146.125
            84.125,146.625 80.625,147.5 75.625,147.625 71.625,146.875
            70.375,148 67,148.875 62.75,149.125 57.75,149.5
            52.5,149 49.625,147.875 42.875,148.875 34,148.25
            30.125,146.5 26.25,146.625 22.625,146 21.5,145
            20.75,144.25 21.5,143.5 23.375,142.875 20.625,142.5
            19.125,141.625 19.5,140.875 20,139.875 22.875,139.125
            26.625,139 26.625,139 26.625,139 26.625,138.875"
            fill="rgb(255,255,255)"
            stroke="rgb(0,0,0)"
            stroke-width="0.25"
          />
          <desc>Freeform125</desc>
          <path d=
            "M26.625,138.875 C26.125,138 27.25,137 29.75,136.25
            33.75,135.125 40.125,134.875 45.125,135.625 48.125,134.125
            55.875,133.75 60.5,135 61.75,134.375 64,134
            66.5,133.875 69.375,133.75 72.25,134 74,134.625
            76.5,133.875 80.75,133.625 84.375,134 87,134.375
            89,135 89.5,135.75 92.75,136 95.25,136.625
            96.25,137.5 97,138 96.875,138.75 95.875,139.25
            98.25,140.125 99,141.125 98.125,142.125 96.875,143.375
            92.875,144.375 87.875,144.625 87.875,145.375 86.5,146.125
            84.25,146.625 80.625,147.5 75.625,147.625 71.625,146.875
            70.375,148 67,148.875 62.75,149.125 57.75,149.5
            52.5,149 49.625,147.875 42.875,148.875 34,148.25
            30.125,146.5 26.25,146.625 22.625,146 21.5,145
            20.75,144.25 21.375,143.5 23.375,142.875 20.625,142.5
            19.125,141.625 19.5,140.875 19.875,139.875 22.875,139
            26.5,139 26.625,139 26.625,138.875 26.625,138.875"
            fill="none"
            stroke="rgb(192,0,0)"
            stroke-width="2.25"
          />
          <desc>Freeform126</desc>
          <desc> Symbol cannot be converted </desc>
        </g>
        <desc>Rectangle128</desc>
        <rect
          x="-19.875"
          y="-7.313"
          width="39.75"
          height="14.625"
          fill="none"
          stroke="none"
          transform=
            "translate(54, 143.063)"
        />
        <text
          x="0"
          y="0"
          font-family="Arial"
          font-size="11"
          transform=
            "translate(54,143.063)
            rotate(0)
            translate(-17.5,0.438)"
          fill="rgb(192,0,0)" 
          stroke="none">
          Nation&#160;
        </text>
        <desc>Rectangle129</desc>
        <rect
          x="-4.25"
          y="-7.313"
          width="8.5"
          height="14.625"
          fill="none"
          stroke="none"
          transform=
            "translate(73.375, 143.063)"
        />
        <text
          x="0"
          y="0"
          font-family="Arial"
          font-size="11"
          transform=
            "translate(73.375,143.063)
            rotate(0)
            translate(-1.875,0.438)"
          fill="rgb(192,0,0)" 
          stroke="none">
          &#8220;
        </text>
        <desc>Rectangle130</desc>
        <rect
          x="-6.063"
          y="-7.313"
          width="12.125"
          height="14.625"
          fill="none"
          stroke="none"
          transform=
            "translate(78.813, 143.063)"
        />
        <text
          x="0"
          y="0"
          font-family="Arial"
          font-size="11"
          transform=
            "translate(78.813,143.063)
            rotate(0)
            translate(-3.688,0.438)"
          fill="rgb(192,0,0)" 
          stroke="none">
          B
        </text>
        <desc>Rectangle131</desc>
        <rect
          x="-4.25"
          y="-7.313"
          width="8.5"
          height="14.625"
          fill="none"
          stroke="none"
          transform=
            "translate(84.25, 143.063)"
        />
        <text
          x="0"
          y="0"
          font-family="Arial"
          font-size="11"
          transform=
            "translate(84.25,143.063)
            rotate(0)
            translate(-1.875,0.438)"
          fill="rgb(192,0,0)" 
          stroke="none">
          &#8221;
        </text>
      </g>
      <desc>Line48</desc>
      <defs>
        <marker id="Triangle5_Flip_Line48"
          viewBox="0 0 9.833 9.833" refX="9.708" refY="4.917"
          markerUnits = "strokeWidth"
          markerWidth="9.833" markerHeight="9.833"
          orient="auto">
          <polygon points=
            "9.833,9.833 0,4.917 9.833,0"
          />
        </marker>
      </defs>
      <line
        x1="39.297"
        x2="-45.375"
        y1="-27.01"
        y2="31.188"
        marker-start="url(#Triangle5_Flip_Line48)"
        stroke="rgb(0,0,0)"
        stroke-width="0.75"
        transform=
          "translate(335.75, 102.063)"
      />
      <desc>Line49</desc>
      <defs>
        <marker id="Triangle5_Flip_Line49"
          viewBox="0 0 9.833 9.833" refX="9.708" refY="4.917"
          markerUnits = "strokeWidth"
          markerWidth="9.833" markerHeight="9.833"
          orient="auto">
          <polygon points=
            "9.833,9.833 0,4.917 9.833,0"
          />
        </marker>
      </defs>
      <line
        x1="33.25"
        x2="-39.188"
        y1="-24.5"
        y2="28.875"
        marker-start="url(#Triangle5_Flip_Line49)"
        stroke="rgb(0,0,0)"
        stroke-width="0.75"
        transform=
          "translate(341.938, 139.375)"
      />
      <desc>Line50</desc>
      <defs>
        <marker id="Triangle5_Line50"
          viewBox="0 0 9.833 9.833" refX="0.125" refY="4.917"
          markerUnits = "strokeWidth"
          markerWidth="9.833" markerHeight="9.833"
          orient="auto">
          <polygon points=
            "0,9.833 9.833,4.917 0,0"
          />
        </marker>
      </defs>
      <line
        x1="-27.188"
        x2="22.445"
        y1="-32.375"
        y2="26.727"
        marker-end="url(#Triangle5_Line50)"
        stroke="rgb(0,0,0)"
        stroke-width="0.75"
        transform=
          "translate(353.938, 242.625)"
      />
      <desc>StraightConnector26</desc>
      <line
        x1="36.875"
        x2="-36.875"
        y1="2.813"
        y2="-2.813"
        stroke="rgb(192,0,0)"
        stroke-width="2.25"
        transform=
          "translate(134.5, 141.688)"
      />
    </g>
  </g>
</svg>
