<?xml version="1.0" encoding="UTF-8" standalone="no"?>
<svg xmlns="http://www.w3.org/2000/svg" width="720" height="540">
  <g transform="scale(1.0,1.0)">
    <desc>Background</desc>
    <rect
      x="0"
      y="0"
      width="720"
      height="540"
      fill="rgb(255,255,255)"
    />
    <desc>StraightConnector106</desc>
    <line
      x1="37.438"
      x2="-37.438"
      y1="2.375"
      y2="-2.375"
      stroke="rgb(192,0,0)"
      stroke-width="2.25"
      transform=
        "translate(311.438, 162.75)"
    />
    <desc>Rectangle3</desc>
    <rect
      x="-126"
      y="-204"
      width="252"
      height="408"
      fill="none"
      stroke="rgb(137,164,167)"
      stroke-dasharray="9,6"
      stroke-width="2"
      transform=
        "translate(402, 276)"
    />
    <desc>TextBox4</desc>
    <rect
      x="-201"
      y="-18.188"
      width="402"
      height="36.375"
      fill="none"
      stroke="none"
      transform=
        "translate(495, 36.188)"
    />
    <text
      x="0"
      y="0"
      font-family="Times New Roman"
      font-size="24"
      font-style="italic"
      font-weight="bold"
      transform=
        "translate(495,36.188)
        rotate(0)
        translate(17.125,2.188)"
      fill="rgb(0,0,0)" 
      stroke="none">
      Named Operation
    </text>
    <desc>Oval5</desc>
    <ellipse
      cx="0"
      cy="0"
      rx="36"
      ry="18"
      fill="none"
      stroke="rgb(0,0,0)"
      stroke-width="2"
      transform=
        "translate(468, 228)"
    />
    <text
      x="0"
      y="0"
      font-family="Arial"
      font-size="16"
      transform=
        "translate(468,228)
        rotate(0)
        translate(-17.375,1.75)"
      fill="rgb(0,0,0)" 
      stroke="none">
      Core
    </text>
    <desc>Oval6</desc>
    <ellipse
      cx="0"
      cy="0"
      rx="36"
      ry="18"
      fill="none"
      stroke="rgb(0,0,0)"
      stroke-width="2"
      transform=
        "translate(414, 300)"
    />
    <text
      x="0"
      y="0"
      font-family="Arial"
      font-size="11"
      transform=
        "translate(414,300)
        rotate(0)
        translate(-16,-5.375)"
      fill="rgb(0,0,0)" 
      stroke="none">
      Nation 
    </text>
    <text
      x="0"
      y="0"
      font-family="Arial"
      font-size="11"
      transform=
        "translate(414,300)
        rotate(0)
        translate(-7.375,7.875)"
      fill="rgb(0,0,0)" 
      stroke="none">
      &#8220;A&#8221;
    </text>
    <desc>StraightConnector8</desc>
    <line
      x1="-14.25"
      x2="14.25"
      y1="20.625"
      y2="-20.625"
      stroke="rgb(0,0,0)"
      stroke-width="2.25"
      transform=
        "translate(453.75, 266.625)"
    />
    <desc>Rectangle9</desc>
    <rect
      x="-24"
      y="-12"
      width="48"
      height="24"
      fill="none"
      stroke="rgb(0,0,0)"
      stroke-width="2"
      transform=
        "translate(468, 198)"
    />
    <text
      x="0"
      y="0"
      font-family="Arial"
      font-size="9"
      transform=
        "translate(468,198)
        rotate(0)
        translate(-15.25,-4.5)"
      fill="rgb(0,0,0)" 
      stroke="none">
      Mission 
    </text>
    <text
      x="0"
      y="0"
      font-family="Arial"
      font-size="9"
      transform=
        "translate(468,198)
        rotate(0)
        translate(-10.25,6.25)"
      fill="rgb(0,0,0)" 
      stroke="none">
      Apps
    </text>
    <desc>Rectangle10</desc>
    <rect
      x="-24"
      y="-12"
      width="48"
      height="24"
      fill="none"
      stroke="rgb(0,0,0)"
      stroke-width="2"
      transform=
        "translate(474.375, 299.5)"
    />
    <text
      x="0"
      y="0"
      font-family="Arial"
      font-size="9"
      transform=
        "translate(474.375,299.5)
        rotate(0)
        translate(-15.25,-4.5)"
      fill="rgb(0,0,0)" 
      stroke="none">
      Mission 
    </text>
    <text
      x="0"
      y="0"
      font-family="Arial"
      font-size="9"
      transform=
        "translate(474.375,299.5)
        rotate(0)
        translate(-10.25,6.25)"
      fill="rgb(0,0,0)" 
      stroke="none">
      Apps
    </text>
    <desc>StraightConnector11</desc>
    <line
      x1="16.5"
      x2="-16.5"
      y1="20.25"
      y2="-20.25"
      stroke="rgb(192,0,0)"
      stroke-width="2.25"
      transform=
        "translate(426, 195)"
    />
    <desc>Oval13</desc>
    <ellipse
      cx="0"
      cy="0"
      rx="36"
      ry="18"
      fill="none"
      stroke="rgb(192,0,0)"
      stroke-width="2"
      transform=
        "translate(384, 162)"
    />
    <text
      x="0"
      y="0"
      font-family="Arial"
      font-size="11"
      transform=
        "translate(384,162)
        rotate(0)
        translate(-19.625,-5.375)"
      fill="rgb(192,0,0)" 
      stroke="none">
      Nation 
    </text>
    <text
      x="0"
      y="0"
      font-family="Arial"
      font-size="11"
      transform=
        "translate(384,162)
        rotate(0)
        translate(-19.625,7.875)"
      fill="rgb(192,0,0)" 
      stroke="none">
      &#8220;B&#8221;
    </text>
    <desc>Oval14</desc>
    <ellipse
      cx="0"
      cy="0"
      rx="36"
      ry="18"
      fill="none"
      stroke="rgb(0,0,0)"
      stroke-width="2"
      transform=
        "translate(399.625, 360.375)"
    />
    <text
      x="0"
      y="0"
      font-family="Arial"
      font-size="10"
      transform=
        "translate(399.625,360.375)
        rotate(0)
        translate(-14.375,-4.875)"
      fill="rgb(0,0,0)" 
      stroke="none">
      Nation 
    </text>
    <text
      x="0"
      y="0"
      font-family="Arial"
      font-size="10"
      transform=
        "translate(399.625,360.375)
        rotate(0)
        translate(-19.25,7.125)"
      fill="rgb(0,0,0)" 
      stroke="none">
      &#8220;A&#8221; GCC
    </text>
    <desc>StraightConnector16</desc>
    <line
      x1="-7.188"
      x2="7.188"
      y1="12.188"
      y2="-12.188"
      stroke="rgb(0,0,0)"
      stroke-width="2.25"
      transform=
        "translate(406.813, 330.188)"
    />
    <desc>TextBox18</desc>
    <rect
      x="-79.188"
      y="-83.063"
      width="158.375"
      height="166.125"
      fill="none"
      stroke="rgb(137,164,167)"
      stroke-width="0.75"
      transform=
        "translate(631.188, 377.063)"
    />
    <text
      x="0"
      y="0"
      font-family="Arial"
      font-size="12"
      transform=
        "translate(631.188,377.063)
        rotate(0)
        translate(-71.563,-70.688)"
      fill="rgb(0,0,0)" 
      stroke="none">
      &#8226; Single Owner
    </text>
    <text
      x="0"
      y="0"
      font-family="Arial"
      font-size="12"
      transform=
        "translate(631.188,377.063)
        rotate(0)
        translate(-35.563,-56.313)"
      fill="rgb(0,0,0)" 
      stroke="none">
       Lead Nation
    </text>
    <text
      x="0"
      y="0"
      font-family="Arial"
      font-size="12"
      transform=
        "translate(631.188,377.063)
        rotate(0)
        translate(-71.563,-41.938)"
      fill="rgb(0,0,0)" 
      stroke="none">
      &#8226; Core Enabling Services
    </text>
    <text
      x="0"
      y="0"
      font-family="Arial"
      font-size="12"
      transform=
        "translate(631.188,377.063)
        rotate(0)
        translate(-35.563,-27.563)"
      fill="rgb(0,0,0)" 
      stroke="none">
      Voice
    </text>
    <text
      x="0"
      y="0"
      font-family="Arial"
      font-size="12"
      transform=
        "translate(631.188,377.063)
        rotate(0)
        translate(-35.563,-13.188)"
      fill="rgb(0,0,0)" 
      stroke="none">
      Streaming Video
    </text>
    <text
      x="0"
      y="0"
      font-family="Arial"
      font-size="12"
      transform=
        "translate(631.188,377.063)
        rotate(0)
        translate(-35.563,1.188)"
      fill="rgb(0,0,0)" 
      stroke="none">
      VTC
    </text>
    <text
      x="0"
      y="0"
      font-family="Arial"
      font-size="12"
      transform=
        "translate(631.188,377.063)
        rotate(0)
        translate(-35.563,15.563)"
      fill="rgb(0,0,0)" 
      stroke="none">
      Email
    </text>
    <text
      x="0"
      y="0"
      font-family="Arial"
      font-size="12"
      transform=
        "translate(631.188,377.063)
        rotate(0)
        translate(-35.563,29.938)"
      fill="rgb(0,0,0)" 
      stroke="none">
      Chat
    </text>
    <text
      x="0"
      y="0"
      font-family="Arial"
      font-size="12"
      transform=
        "translate(631.188,377.063)
        rotate(0)
        translate(-35.563,44.313)"
      fill="rgb(0,0,0)" 
      stroke="none">
      Portal
    </text>
    <text
      x="0"
      y="0"
      font-family="Arial"
      font-size="12"
      transform=
        "translate(631.188,377.063)
        rotate(0)
        translate(-71.563,58.688)"
      fill="rgb(0,0,0)" 
      stroke="none">
      &#8226; National Interconnection    
    </text>
    <text
      x="0"
      y="0"
      font-family="Arial"
      font-size="12"
      transform=
        "translate(631.188,377.063)
        rotate(0)
        translate(-71.563,73.063)"
      fill="rgb(0,0,0)" 
      stroke="none">
      &#160; Points
    </text>
    <desc>TextBox19</desc>
    <rect
      x="-36"
      y="-14.563"
      width="72"
      height="29.125"
      fill="none"
      stroke="none"
      transform=
        "translate(630, 272.563)"
    />
    <text
      x="0"
      y="0"
      font-family="Arial"
      font-size="18"
      transform=
        "translate(630,272.563)
        rotate(0)
        translate(-28.75,1.688)"
      fill="rgb(0,0,0)" 
      stroke="none">
      CORE
    </text>
    <desc>TextBox20</desc>
    <rect
      x="-30"
      y="-12.125"
      width="60"
      height="24.25"
      fill="none"
      stroke="none"
      transform=
        "translate(396, 90.125)"
    />
    <text
      x="0"
      y="0"
      font-family="Arial"
      font-size="14"
      text-decoration="underline"
      transform=
        "translate(396,90.125)
        rotate(0)
        translate(-22.75,1.25)"
      fill="rgb(0,0,0)" 
      stroke="none">
      TIER 2
    </text>
    <desc>TextBox21</desc>
    <rect
      x="-75"
      y="-47.125"
      width="150"
      height="94.25"
      fill="none"
      stroke="rgb(137,164,167)"
      stroke-width="0.75"
      transform=
        "translate(627, 161.125)"
    />
    <text
      x="0"
      y="0"
      font-family="Arial"
      font-size="12"
      transform=
        "translate(627,161.125)
        rotate(0)
        translate(-67.375,-34.75)"
      fill="rgb(0,0,0)" 
      stroke="none">
      &#8226; TBMCS
    </text>
    <text
      x="0"
      y="0"
      font-family="Arial"
      font-size="12"
      transform=
        "translate(627,161.125)
        rotate(0)
        translate(-67.375,-20.375)"
      fill="rgb(0,0,0)" 
      stroke="none">
      &#8226; GCCS
    </text>
    <text
      x="0"
      y="0"
      font-family="Arial"
      font-size="12"
      transform=
        "translate(627,161.125)
        rotate(0)
        translate(-67.375,-6)"
      fill="rgb(0,0,0)" 
      stroke="none">
      &#8226; ADSI
    </text>
    <text
      x="0"
      y="0"
      font-family="Arial"
      font-size="12"
      transform=
        "translate(627,161.125)
        rotate(0)
        translate(-67.375,8.375)"
      fill="rgb(0,0,0)" 
      stroke="none">
      &#8226; CPOF
    </text>
    <text
      x="0"
      y="0"
      font-family="Arial"
      font-size="12"
      transform=
        "translate(627,161.125)
        rotate(0)
        translate(-67.375,22.75)"
      fill="rgb(0,0,0)" 
      stroke="none">
      &#8226; JADOCS
    </text>
    <text
      x="0"
      y="0"
      font-family="Arial"
      font-size="12"
      transform=
        "translate(627,161.125)
        rotate(0)
        translate(-67.375,37.125)"
      fill="rgb(0,0,0)" 
      stroke="none">
      &#160;   and others
    </text>
    <desc>TextBox22</desc>
    <rect
      x="-63"
      y="-14.563"
      width="126"
      height="29.125"
      fill="none"
      stroke="none"
      transform=
        "translate(627, 92.563)"
    />
    <text
      x="0"
      y="0"
      font-family="Arial"
      font-size="18"
      transform=
        "translate(627,92.563)
        rotate(0)
        translate(-55.75,1.688)"
      fill="rgb(0,0,0)" 
      stroke="none">
      Mission Apps
    </text>
    <desc>Oval23</desc>
    <ellipse
      cx="0"
      cy="0"
      rx="36"
      ry="18"
      fill="none"
      stroke="rgb(0,0,0)"
      stroke-width="2"
      transform=
        "translate(315.875, 228.375)"
    />
    <text
      x="0"
      y="0"
      font-family="Arial"
      font-size="10"
      transform=
        "translate(315.875,228.375)
        rotate(0)
        translate(-14.375,-4.875)"
      fill="rgb(0,0,0)" 
      stroke="none">
      Nation 
    </text>
    <text
      x="0"
      y="0"
      font-family="Arial"
      font-size="10"
      transform=
        "translate(315.875,228.375)
        rotate(0)
        translate(-19.25,7.125)"
      fill="rgb(0,0,0)" 
      stroke="none">
      &#8220;A&#8221; GCC
    </text>
    <desc>StraightConnector24</desc>
    <line
      x1="-21.313"
      x2="21.313"
      y1="17.813"
      y2="-17.813"
      stroke="rgb(0,0,0)"
      stroke-width="2.25"
      transform=
        "translate(337.188, 192.563)"
    />
    <desc>Oval25</desc>
    <ellipse
      cx="0"
      cy="0"
      rx="36"
      ry="18"
      fill="none"
      stroke="rgb(192,0,0)"
      stroke-width="2"
      transform=
        "translate(318, 114)"
    />
    <text
      x="0"
      y="0"
      font-family="Arial"
      font-size="10"
      transform=
        "translate(318,114)
        rotate(0)
        translate(-14.375,-4.875)"
      fill="rgb(192,0,0)" 
      stroke="none">
      Nation 
    </text>
    <text
      x="0"
      y="0"
      font-family="Arial"
      font-size="10"
      transform=
        "translate(318,114)
        rotate(0)
        translate(-6.75,7.125)"
      fill="rgb(192,0,0)" 
      stroke="none">
      &#8220;B&#8221; 
    </text>
    <desc>StraightConnector26</desc>
    <line
      x1="12.813"
      x2="-12.813"
      y1="9.188"
      y2="-9.188"
      stroke="rgb(192,0,0)"
      stroke-width="2.25"
      transform=
        "translate(345.688, 140.063)"
    />
    <desc>Oval29</desc>
    <ellipse
      cx="0"
      cy="0"
      rx="36"
      ry="18"
      fill="none"
      stroke="rgb(0,0,0)"
      stroke-width="2"
      transform=
        "translate(232.125, 322)"
    />
    <text
      x="0"
      y="0"
      font-family="Arial"
      font-size="11"
      transform=
        "translate(232.125,322)
        rotate(0)
        translate(-16,-5.375)"
      fill="rgb(0,0,0)" 
      stroke="none">
      Nation 
    </text>
    <text
      x="0"
      y="0"
      font-family="Arial"
      font-size="11"
      transform=
        "translate(232.125,322)
        rotate(0)
        translate(-7.375,7.875)"
      fill="rgb(0,0,0)" 
      stroke="none">
      &#8220;A&#8221;
    </text>
    <desc>StraightConnector30</desc>
    <line
      x1="-54.938"
      x2="54.938"
      y1="11"
      y2="-11"
      stroke="rgb(0,0,0)"
      stroke-width="2.25"
      transform=
        "translate(323.063, 311)"
    />
    <desc>TextBox32</desc>
    <rect
      x="-51"
      y="-18.188"
      width="102"
      height="36.375"
      fill="none"
      stroke="none"
      transform=
        "translate(257, 388.188)
        rotate(270)"
    />
    <text
      x="0"
      y="0"
      font-family="Arial"
      font-size="12"
      transform=
        "translate(257,388.188)
        rotate(270)
        translate(-43.75,-5.938)"
      fill="rgb(0,0,0)" 
      stroke="none">
      National 
    </text>
    <text
      x="0"
      y="0"
      font-family="Arial"
      font-size="12"
      transform=
        "translate(257,388.188)
        rotate(270)
        translate(-43.75,8.438)"
      fill="rgb(0,0,0)" 
      stroke="none">
      Extension
    </text>
    <desc>StraightConnector33</desc>
    <line
      x1="0"
      x2="0"
      y1="-21.375"
      y2="21.375"
      stroke="rgb(0,0,0)"
      stroke-width="2.25"
      transform=
        "translate(230.5, 360.625)"
    />
    <desc>StraightConnector35</desc>
    <line
      x1="0.5"
      x2="-0.5"
      y1="-11.688"
      y2="11.688"
      stroke="rgb(0,0,0)"
      stroke-width="2.25"
      transform=
        "translate(230.25, 425.063)"
    />
    <desc>StraightConnector36</desc>
    <line
      x1="12"
      x2="-12"
      y1="-12"
      y2="12"
      stroke="rgb(0,0,0)"
      stroke-width="2.25"
      transform=
        "translate(226.625, 390.5)"
    />
    <desc>StraightConnector38</desc>
    <line
      x1="12"
      x2="-12"
      y1="-12"
      y2="12"
      stroke="rgb(0,0,0)"
      stroke-width="2.25"
      transform=
        "translate(230.5, 414.375)"
    />
    <desc>Oval39</desc>
    <ellipse
      cx="0"
      cy="0"
      rx="39"
      ry="20.25"
      fill="none"
      stroke="rgb(0,0,0)"
      stroke-width="2"
      transform=
        "translate(230.375, 457)"
    />
    <text
      x="0"
      y="0"
      font-family="Arial"
      font-size="10"
      transform=
        "translate(230.375,457)
        rotate(0)
        translate(-18.25,-10.875)"
      fill="rgb(0,0,0)" 
      stroke="none">
      National 
    </text>
    <text
      x="0"
      y="0"
      font-family="Arial"
      font-size="10"
      transform=
        "translate(230.375,457)
        rotate(0)
        translate(-18,1.125)"
      fill="rgb(0,0,0)" 
      stroke="none">
      Security 
    </text>
    <text
      x="0"
      y="0"
      font-family="Arial"
      font-size="10"
      transform=
        "translate(230.375,457)
        rotate(0)
        translate(-17.75,13.125)"
      fill="rgb(0,0,0)" 
      stroke="none">
      Enclave
    </text>
    <desc>TextBox40</desc>
    <rect
      x="-24"
      y="-12.063"
      width="48"
      height="24.125"
      fill="none"
      stroke="none"
      transform=
        "translate(228.125, 401.938)
        rotate(314.276)"
    />
    <text
      x="0"
      y="0"
      font-family="Arial"
      font-size="14"
      transform=
        "translate(228.125,401.938)
        rotate(314.276)
        translate(-16.875,1.563)"
      fill="rgb(0,0,0)" 
      stroke="none">
      CDS
    </text>
    <desc>Rectangle43</desc>
    <rect
      x="-24"
      y="-12"
      width="48"
      height="24"
      fill="none"
      stroke="rgb(192,0,0)"
      stroke-width="2"
      transform=
        "translate(444.375, 161.375)"
    />
    <text
      x="0"
      y="0"
      font-family="Arial"
      font-size="9"
      transform=
        "translate(444.375,161.375)
        rotate(0)
        translate(-15.25,-4.5)"
      fill="rgb(192,0,0)" 
      stroke="none">
      Mission 
    </text>
    <text
      x="0"
      y="0"
      font-family="Arial"
      font-size="9"
      transform=
        "translate(444.375,161.375)
        rotate(0)
        translate(-10.25,6.25)"
      fill="rgb(192,0,0)" 
      stroke="none">
      Apps
    </text>
    <desc>TextBox45</desc>
    <rect
      x="-21"
      y="-10.313"
      width="42"
      height="20.625"
      fill="none"
      stroke="none"
      transform=
        "translate(235.125, 288.063)"
    />
    <text
      x="0"
      y="0"
      font-family="Arial"
      font-size="11"
      text-decoration="underline"
      transform=
        "translate(235.125,288.063)
        rotate(0)
        translate(-13.75,1.063)"
      fill="rgb(0,0,0)" 
      stroke="none">
      MOD
    </text>
    <desc>Oval46</desc>
    <ellipse
      cx="0"
      cy="0"
      rx="9"
      ry="9"
      fill="none"
      stroke="rgb(127,127,127)"
      stroke-width="2"
      transform=
        "translate(395.875, 401.375)"
    />
    <desc>Oval47</desc>
    <ellipse
      cx="0"
      cy="0"
      rx="9"
      ry="9"
      fill="none"
      stroke="rgb(127,127,127)"
      stroke-width="2"
      transform=
        "translate(434.625, 403.25)"
    />
    <desc>Oval48</desc>
    <ellipse
      cx="0"
      cy="0"
      rx="9"
      ry="9"
      fill="none"
      stroke="rgb(127,127,127)"
      stroke-width="2"
      transform=
        "translate(348.875, 403.875)"
    />
    <desc>StraightConnector49</desc>
    <line
      x1="4.75"
      x2="-4.75"
      y1="10.563"
      y2="-10.563"
      stroke="rgb(127,127,127)"
      stroke-width="2.25"
      transform=
        "translate(429.875, 383.688)"
    />
    <desc>StraightConnector51</desc>
    <line
      x1="1.875"
      x2="-1.875"
      y1="-7"
      y2="7"
      stroke="rgb(127,127,127)"
      stroke-width="2.25"
      transform=
        "translate(397.75, 385.375)"
    />
    <desc>StraightConnector55</desc>
    <line
      x1="12.688"
      x2="-12.688"
      y1="-10.875"
      y2="10.875"
      stroke="rgb(127,127,127)"
      stroke-width="2.25"
      transform=
        "translate(361.563, 384)"
    />
    <desc>TextBox66</desc>
    <rect
      x="-114"
      y="-46.063"
      width="228"
      height="92.125"
      fill="none"
      stroke="none"
      transform=
        "translate(132, 124.063)"
    />
    <text
      x="0"
      y="0"
      font-family="Arial"
      font-size="18"
      text-decoration="underline"
      font-weight="bold"
      transform=
        "translate(132,124.063)
        rotate(0)
        translate(-88.5,-29.813)"
      fill="rgb(0,0,0)" 
      stroke="none">
      FMN Implementation
    </text>
    <text
      x="0"
      y="0"
      font-family="Arial"
      font-size="18"
      font-weight="bold"
      transform=
        "translate(132,124.063)
        rotate(0)
        translate(-87.5,-8.188)"
      fill="rgb(0,0,0)" 
      stroke="none">
      Combined Endeavor 
    </text>
    <text
      x="0"
      y="0"
      font-family="Arial"
      font-size="18"
      font-weight="bold"
      transform=
        "translate(132,124.063)
        rotate(0)
        translate(-20,13.438)"
      fill="rgb(0,0,0)" 
      stroke="none">
      2013
    </text>
    <desc>TextBox67</desc>
    <rect
      x="-124.688"
      y="-20.313"
      width="249.375"
      height="40.625"
      fill="none"
      stroke="none"
      transform=
        "translate(402.563, 464.313)"
    />
    <text
      x="0"
      y="0"
      font-family="Arial"
      font-size="11"
      text-decoration="underline"
      font-weight="bold"
      transform=
        "translate(402.563,464.313)
        rotate(0)
        translate(-62.063,-8.938)"
      fill="rgb(0,0,0)" 
      stroke="none">
      Single Security Enclave
    </text>
    <text
      x="0"
      y="0"
      font-family="Arial"
      font-size="11"
      font-weight="bold"
      transform=
        "translate(402.563,464.313)
        rotate(0)
        translate(-48.188,4.313)"
      fill="rgb(0,0,0)" 
      stroke="none">
      Written for release
    </text>
    <desc>TextBox72</desc>
    <rect
      x="-60"
      y="-15.75"
      width="120"
      height="31.5"
      fill="none"
      stroke="none"
      transform=
        "translate(397.5, 425.125)"
    />
    <text
      x="0"
      y="0"
      font-family="Arial"
      font-size="10"
      font-weight="bold"
      transform=
        "translate(397.5,425.125)
        rotate(0)
        translate(-52.75,-5.125)"
      fill="rgb(127,127,127)" 
      stroke="none">
      Mission Partner 
    </text>
    <text
      x="0"
      y="0"
      font-family="Arial"
      font-size="10"
      font-weight="bold"
      transform=
        "translate(397.5,425.125)
        rotate(0)
        translate(-52.75,6.875)"
      fill="rgb(127,127,127)" 
      stroke="none">
      Extensions
    </text>
    <desc>Rectangle86</desc>
    <rect
      x="-27.063"
      y="-6.625"
      width="54.125"
      height="13.25"
      fill="none"
      stroke="rgb(192,0,0)"
      stroke-width="2"
      transform=
        "translate(381.688, 137.375)"
    />
    <text
      x="0"
      y="0"
      font-family="Arial"
      font-size="8"
      transform=
        "translate(381.688,137.375)
        rotate(0)
        translate(-24.188,0.875)"
      fill="rgb(192,0,0)" 
      stroke="none">
      Regional  HQ
    </text>
    <desc>Rectangle87</desc>
    <rect
      x="-27.063"
      y="-6.688"
      width="54.125"
      height="13.375"
      fill="none"
      stroke="rgb(0,0,0)"
      stroke-width="2"
      transform=
        "translate(406.813, 275.563)"
    />
    <text
      x="0"
      y="0"
      font-family="Arial"
      font-size="8"
      transform=
        "translate(406.813,275.563)
        rotate(0)
        translate(-24.188,0.813)"
      fill="rgb(0,0,0)" 
      stroke="none">
      Regional  HQ
    </text>
    <desc>Cloud108</desc>
    <g id="Group120">
      <g id="Group124">
        <desc>Freeform121</desc>
        <path d=
          "M203,155.375 C202.5,154.5 203.625,153.625 206.125,153
          210.125,152 216.5,151.75 221.5,152.5 224.625,151.125
          232.375,150.75 237,151.875 238.125,151.375 240.375,150.875
          243,150.875 245.875,150.75 248.75,151 250.5,151.625
          253,150.875 257.125,150.625 260.75,151 263.5,151.25
          265.5,151.875 266,152.625 269.125,152.75 271.625,153.375
          272.75,154.125 273.5,154.625 273.375,155.25 272.375,155.75
          274.75,156.5 275.5,157.375 274.625,158.375 273.375,159.5
          269.25,160.375 264.375,160.5 264.25,161.25 263,162
          260.625,162.5 257.125,163.125 252,163.25 248.125,162.625
          246.875,163.625 243.5,164.5 239.125,164.75 234.125,165
          228.875,164.5 226,163.5 219.25,164.5 210.5,163.875
          206.5,162.25 202.625,162.375 199,161.75 197.875,160.875
          197.125,160.25 197.875,159.5 199.75,159 197,158.625
          195.5,157.875 195.875,157.125 196.375,156.25 199.25,155.5
          203,155.5 203,155.5 203,155.5 203,155.375"
          fill="rgb(255,255,255)"
          stroke="rgb(0,0,0)"
          stroke-width="0.25"
        />
        <desc>Freeform122</desc>
        <path d=
          "M203.125,155.5 C202.625,154.625 203.75,153.625 206.25,153
          210.125,152 216.5,151.75 221.5,152.5 224.625,151.125
          232.375,150.75 237,151.875 238.25,151.375 240.5,151
          243,150.875 245.875,150.75 248.75,151 250.5,151.625
          253,150.875 257.25,150.625 260.75,151 263.5,151.25
          265.5,151.875 266,152.625 269.25,152.75 271.75,153.375
          272.75,154.125 273.5,154.625 273.375,155.25 272.375,155.75
          274.75,156.5 275.5,157.5 274.625,158.375 273.375,159.5
          269.375,160.375 264.375,160.5 264.375,161.25 263,162
          260.625,162.5 257.125,163.25 252.125,163.25 248.125,162.75
          246.875,163.75 243.5,164.5 239.25,164.75 234.25,165
          229,164.5 226.125,163.5 219.25,164.5 210.5,163.875
          206.5,162.25 202.75,162.375 199,161.75 198,160.875
          197.125,160.25 197.875,159.5 199.75,159 197.125,158.625
          195.5,157.875 195.875,157.125 196.375,156.25 199.375,155.625
          203,155.5 203,155.5 203,155.5 203.125,155.5"
          fill="none"
          stroke="rgb(192,0,0)"
          stroke-width="0.75"
        />
        <desc>Freeform123</desc>
        <desc> Symbol cannot be converted </desc>
      </g>
      <desc>Rectangle125</desc>
      <rect
        x="-19.875"
        y="-7.375"
        width="39.75"
        height="14.75"
        fill="none"
        stroke="none"
        transform=
          "translate(230.5, 159.375)"
      />
      <text
        x="0"
        y="0"
        font-family="Arial"
        font-size="11"
        transform=
          "translate(230.5,159.375)
          rotate(0)
          translate(-19.875,0.375)"
        fill="rgb(192,0,0)" 
        stroke="none">
        Nation 
      </text>
      <desc>Rectangle126</desc>
      <rect
        x="-4.25"
        y="-7.375"
        width="8.5"
        height="14.75"
        fill="none"
        stroke="none"
        transform=
          "translate(249.75, 159.375)"
      />
      <text
        x="0"
        y="0"
        font-family="Arial"
        font-size="11"
        transform=
          "translate(249.75,159.375)
          rotate(0)
          translate(-4.25,0.375)"
        fill="rgb(192,0,0)" 
        stroke="none">
        &#8220;
      </text>
      <desc>Rectangle127</desc>
      <rect
        x="-6.063"
        y="-7.375"
        width="12.125"
        height="14.75"
        fill="none"
        stroke="none"
        transform=
          "translate(255.313, 159.375)"
      />
      <text
        x="0"
        y="0"
        font-family="Arial"
        font-size="11"
        transform=
          "translate(255.313,159.375)
          rotate(0)
          translate(-6.063,0.375)"
        fill="rgb(192,0,0)" 
        stroke="none">
        B
      </text>
      <desc>Rectangle128</desc>
      <rect
        x="-4.25"
        y="-7.375"
        width="8.5"
        height="14.75"
        fill="none"
        stroke="none"
        transform=
          "translate(260.75, 159.375)"
      />
      <text
        x="0"
        y="0"
        font-family="Arial"
        font-size="11"
        transform=
          "translate(260.75,159.375)
          rotate(0)
          translate(-4.25,0.375)"
        fill="rgb(192,0,0)" 
        stroke="none">
        &#8221;
      </text>
    </g>
    <desc>Line48</desc>
    <defs>
      <marker id="Triangle5_Flip_Line48"
        viewBox="0 0 9.833 9.833" refX="9.708" refY="4.917"
        markerUnits = "strokeWidth"
        markerWidth="9.833" markerHeight="9.833"
        orient="auto">
        <polygon points=
          "9.833,9.833 0,4.917 9.833,0"
        />
      </marker>
    </defs>
    <line
      x1="35.221"
      x2="-42"
      y1="-15.095"
      y2="18"
      marker-start="url(#Triangle5_Flip_Line48)"
      stroke="rgb(0,0,0)"
      stroke-width="0.75"
      transform=
        "translate(510, 144)"
    />
    <desc>Line49</desc>
    <defs>
      <marker id="Triangle5_Flip_Line49"
        viewBox="0 0 9.833 9.833" refX="9.708" refY="4.917"
        markerUnits = "strokeWidth"
        markerWidth="9.833" markerHeight="9.833"
        orient="auto">
        <polygon points=
          "9.833,9.833 0,4.917 9.833,0"
        />
      </marker>
    </defs>
    <line
      x1="28.725"
      x2="-36"
      y1="-4.788"
      y2="6"
      marker-start="url(#Triangle5_Flip_Line49)"
      stroke="rgb(0,0,0)"
      stroke-width="0.75"
      transform=
        "translate(516, 180)"
    />
    <desc>Line50</desc>
    <defs>
      <marker id="Triangle5_Line50"
        viewBox="0 0 9.833 9.833" refX="0.125" refY="4.917"
        markerUnits = "strokeWidth"
        markerWidth="9.833" markerHeight="9.833"
        orient="auto">
        <polygon points=
          "0,9.833 9.833,4.917 0,0"
        />
      </marker>
    </defs>
    <line
      x1="-24"
      x2="19.662"
      y1="-33"
      y2="27.036"
      marker-end="url(#Triangle5_Line50)"
      stroke="rgb(0,0,0)"
      stroke-width="0.75"
      transform=
        "translate(528, 261)"
    />
    <desc>TextBox110</desc>
    <rect
      x="-135.5"
      y="-53.938"
      width="271"
      height="107.875"
      fill="none"
      stroke="none"
      transform=
        "translate(149.625, 244.563)"
    />
    <text
      x="0"
      y="0"
      font-family="Arial"
      font-size="12"
      transform=
        "translate(149.625,244.563)
        rotate(0)
        translate(-128.25,-41.938)"
      fill="rgb(0,0,0)" 
      stroke="none">
      &#8226; CJTF HQ provides Core services
    </text>
    <text
      x="0"
      y="0"
      font-family="Arial"
      font-size="12"
      transform=
        "translate(149.625,244.563)
        rotate(0)
        translate(-128.25,-27.563)"
      fill="rgb(0,0,0)" 
      stroke="none">
      &#8226; Regional HQ Nations connect to CJTF
    </text>
    <text
      x="0"
      y="0"
      font-family="Arial"
      font-size="12"
      transform=
        "translate(149.625,244.563)
        rotate(0)
        translate(-128.25,-13.188)"
      fill="rgb(0,0,0)" 
      stroke="none">
      &#8226; Components connect to National provider
    </text>
    <text
      x="0"
      y="0"
      font-family="Arial"
      font-size="12"
      transform=
        "translate(149.625,244.563)
        rotate(0)
        translate(-128.25,1.188)"
      fill="rgb(0,0,0)" 
      stroke="none">
      &#8226; Mission partners connect to supporting  
    </text>
    <text
      x="0"
      y="0"
      font-family="Arial"
      font-size="12"
      transform=
        "translate(149.625,244.563)
        rotate(0)
        translate(-128.25,15.563)"
      fill="rgb(0,0,0)" 
      stroke="none">
      &#160; component
    </text>
    <text
      x="0"
      y="0"
      font-family="Arial"
      font-size="12"
      transform=
        "translate(149.625,244.563)
        rotate(0)
        translate(-128.25,29.938)"
      fill="rgb(0,0,0)" 
      stroke="none">
      &#8226; Information on network is releasable
    </text>
    <text
      x="0"
      y="0"
      font-family="Arial"
      font-size="12"
      transform=
        "translate(149.625,244.563)
        rotate(0)
        translate(-128.25,44.313)"
      fill="rgb(0,0,0)" 
      stroke="none">
      &#160;  to all partners
    </text>
    <desc>Rectangle26</desc>
    <rect
      x="-114"
      y="-12"
      width="228"
      height="24"
      fill="none"
      stroke="none"
      transform=
        "translate(116.25, 16.375)"
    />
    <text
      x="0"
      y="0"
      font-family="Arial"
      font-size="14"
      font-weight="bold"
      transform=
        "translate(116.25,16.375)
        rotate(0)
        translate(-106.75,1.375)"
      fill="rgb(0,153,0)" 
      stroke="none">
      UNCLASSIFIED
    </text>
    <g id="Group6">
      <g id="Group7">
        <desc>Rectangle8</desc>
        <rect
          x="-2"
          y="-6"
          width="4"
          height="12"
          fill="rgb(58,21,88)"
          stroke="none"
          transform=
            "translate(712, 66)"
        />
        <desc>Rectangle9</desc>
        <rect
          x="-4"
          y="-6"
          width="8"
          height="12"
          fill="rgb(58,21,88)"
          stroke="none"
          transform=
            "translate(701.375, 66)"
        />
      </g>
      <g id="Group10">
        <desc>Rectangle11</desc>
        <rect
          x="-6.25"
          y="-6"
          width="12.5"
          height="12"
          fill="rgb(58,21,88)"
          stroke="none"
          transform=
            "translate(684.875, 66)"
        />
        <desc>Rectangle12</desc>
        <rect
          x="-8.438"
          y="-6"
          width="16.875"
          height="12"
          fill="rgb(58,21,88)"
          stroke="none"
          transform=
            "translate(664.313, 66)"
        />
      </g>
      <g id="Group13">
        <desc>Rectangle14</desc>
        <rect
          x="-10.313"
          y="-6"
          width="20.625"
          height="12"
          fill="rgb(58,21,88)"
          stroke="none"
          transform=
            "translate(639.563, 66)"
        />
        <desc>Rectangle15</desc>
        <rect
          x="-12.5"
          y="-6"
          width="25"
          height="12"
          fill="rgb(58,21,88)"
          stroke="none"
          transform=
            "translate(610.75, 66)"
        />
      </g>
      <g id="Group16">
        <desc>Rectangle17</desc>
        <rect
          x="-16.75"
          y="-6"
          width="33.5"
          height="12"
          fill="rgb(58,21,88)"
          stroke="none"
          transform=
            "translate(499.625, 66)"
        />
        <desc>Rectangle18</desc>
        <rect
          x="-14.625"
          y="-6"
          width="29.25"
          height="12"
          fill="rgb(58,21,88)"
          stroke="none"
          transform=
            "translate(577.5, 66)"
        />
        <desc>Rectangle19</desc>
        <rect
          x="-16.75"
          y="-6"
          width="33.5"
          height="12"
          fill="rgb(58,21,88)"
          stroke="none"
          transform=
            "translate(540.625, 66)"
        />
        <desc>Rectangle20</desc>
        <rect
          x="-21.063"
          y="-6"
          width="42.125"
          height="12"
          fill="rgb(58,21,88)"
          stroke="none"
          transform=
            "translate(453.688, 66)"
        />
      </g>
      <g id="Group21">
        <desc>Rectangle22</desc>
        <rect
          x="-23.125"
          y="-6"
          width="46.25"
          height="12"
          fill="rgb(58,21,88)"
          stroke="none"
          transform=
            "translate(404.125, 66)"
        />
        <desc>Rectangle23</desc>
        <rect
          x="-184.688"
          y="-6"
          width="369.375"
          height="12"
          fill="rgb(58,21,88)"
          stroke="none"
          transform=
            "translate(190.688, 66)"
        />
      </g>
    </g>
  </g>
</svg>
