<?xml version="1.0" encoding="UTF-8" standalone="no"?>
<!DOCTYPE svg PUBLIC "-//W3C//DTD SVG 1.0//EN" "http://www.w3.org/TR/2001/REC-SVG-20010904/DTD/svg10.dtd">
<!-- Generiert durch Microsoft Visio 11.0, SVG Export, v1.0 ces-impl-progression.svg Page-1 -->
<svg xmlns="http://www.w3.org/2000/svg" xmlns:v="http://schemas.microsoft.com/visio/2003/SVGExtensions/" width="8.26772in"
		height="11.6929in" viewBox="0 0 595.276 841.89" xml:space="preserve" color-interpolation-filters="sRGB" class="st14">
	<v:documentProperties v:langID="1031" v:metric="true" v:viewMarkup="false"/>

	<style type="text/css">
	<![CDATA[
		.st1 {stroke:#000000;stroke-linecap:round;stroke-linejoin:round;stroke-width:0.686675}
		.st2 {fill:#f44900;stroke:none;stroke-linecap:round;stroke-linejoin:round;stroke-width:0.75}
		.st3 {stroke:#b30000;stroke-linecap:round;stroke-linejoin:round;stroke-width:0.223916}
		.st4 {stroke:none;stroke-linecap:round;stroke-linejoin:round;stroke-width:0.75}
		.st5 {fill:#000000;font-family:Arial;font-size:0.666664em}
		.st6 {stroke:#000000;stroke-linecap:round;stroke-linejoin:round;stroke-width:0.223916}
		.st7 {fill:#0000ff;font-family:Arial;font-size:0.666664em;font-style:italic}
		.st8 {stroke:#1677b8;stroke-linecap:round;stroke-linejoin:round;stroke-width:0.223916}
		.st9 {stroke:#008000;stroke-linecap:round;stroke-linejoin:round;stroke-width:0.223916}
		.st10 {fill:#008000;stroke:none;stroke-linecap:round;stroke-linejoin:round;stroke-width:0.75}
		.st11 {fill:#000000;font-family:Arial;font-size:0.666664em;font-style:italic}
		.st12 {fill:#ffffff;stroke:none;stroke-linecap:round;stroke-linejoin:round;stroke-width:0.75}
		.st13 {font-size:1em}
		.st14 {fill:none;fill-rule:evenodd;font-size:12;overflow:visible;stroke-linecap:square;stroke-miterlimit:3}
	]]>
	</style>

	<g v:mID="0" v:index="1" v:groupContext="foregroundPage">
		<title>Page-1</title>
		<v:pageProperties v:drawingScale="0.0393701" v:pageScale="0.0393701" v:drawingUnits="24" v:shadowOffsetX="8.50394"
				v:shadowOffsetY="-8.50394"/>
		<g id="shape4-1" v:mID="4" v:groupContext="shape" transform="translate(69.4381,-479.974)">
			<title>Tabelle.4</title>
			<path d="M0 841.89 L449.67 841.89" class="st1"/>
		</g>
		<g id="shape5-4" v:mID="5" v:groupContext="shape" transform="translate(81.9035,-475.765)">
			<title>Tabelle.5</title>
			<path d="M3.89 833.47 L0 837.68 L3.89 841.89 L7.79 837.68 L3.89 833.47 L3.89 833.47 Z" class="st2"/>
		</g>
		<g id="shape6-6" v:mID="6" v:groupContext="shape" transform="translate(81.9035,-475.765)">
			<title>Tabelle.6</title>
			<path d="M3.89 833.47 L0 837.68 L3.89 841.89 L7.79 837.68 L3.89 833.47 L3.89 833.47" class="st3"/>
		</g>
		<g id="shape7-9" v:mID="7" v:groupContext="shape" transform="translate(74.8731,-484.183)">
			<title>Tabelle.7</title>
			<path d="M10.92 841.89 L10.92 826.46" class="st3"/>
			<path d="M10.92 826.46 L0 815.23" class="st3"/>
		</g>
		<g id="shape8-13" v:mID="8" v:groupContext="shape" transform="translate(72.5206,-523.374)">
			<title>Tabelle.8</title>
			<desc>1</desc>
			<v:textBlock v:margins="rect(0,0,0,0)" v:tabSpace="42.5197"/>
			<v:textRect cx="4.91527" cy="836.555" width="9.84" height="10.6703"/>
			<path d="M9.83 831.22 L0 831.22 L0 841.89 L9.83 841.89 L9.83 831.22" class="st4"/>
			<text x="2.7" y="838.95" class="st5" v:langID="1031"><v:paragraph v:horizAlign="1"/><v:tabList/>1</text>		</g>
		<g id="shape9-17" v:mID="9" v:groupContext="shape" transform="translate(34.0157,-510.904)">
			<title>Tabelle.9</title>
			<desc>NNEC Maturity Level 1</desc>
			<v:textBlock v:margins="rect(0,0,0,0)" v:tabSpace="42.5197"/>
			<v:textRect cx="51.1962" cy="836.555" width="102.4" height="10.6703"/>
			<path d="M102.39 831.22 L0 831.22 L0 841.89 L102.39 841.89 L102.39 831.22" class="st4"/>
			<text x="10.52" y="838.95" class="st5" v:langID="1031"><v:paragraph v:horizAlign="1"/><v:tabList/>NNEC Maturity Level 1</text>		</g>
		<g id="shape11-21" v:mID="11" v:groupContext="shape" transform="translate(180.004,-475.765)">
			<title>Tabelle.11</title>
			<path d="M3.89 833.47 L0 837.68 L3.89 841.89 L7.79 837.68 L3.89 833.47 L3.89 833.47 Z" class="st2"/>
		</g>
		<g id="shape12-23" v:mID="12" v:groupContext="shape" transform="translate(180.004,-475.765)">
			<title>Tabelle.12</title>
			<path d="M3.89 833.47 L0 837.68 L3.89 841.89 L7.79 837.68 L3.89 833.47 L3.89 833.47" class="st3"/>
		</g>
		<g id="shape13-26" v:mID="13" v:groupContext="shape" transform="translate(173.001,-484.183)">
			<title>Tabelle.13</title>
			<path d="M10.9 841.89 L10.9 826.46" class="st3"/>
			<path d="M10.9 826.46 L0 815.23" class="st3"/>
		</g>
		<g id="shape14-30" v:mID="14" v:groupContext="shape" transform="translate(170.73,-523.374)">
			<title>Tabelle.14</title>
			<desc>2</desc>
			<v:textBlock v:margins="rect(0,0,0,0)" v:tabSpace="42.5197"/>
			<v:textRect cx="4.91527" cy="836.555" width="9.84" height="10.6703"/>
			<path d="M9.83 831.22 L0 831.22 L0 841.89 L9.83 841.89 L9.83 831.22" class="st4"/>
			<text x="2.7" y="838.95" class="st5" v:langID="1031"><v:paragraph v:horizAlign="1"/><v:tabList/>2</text>		</g>
		<g id="shape15-34" v:mID="15" v:groupContext="shape" transform="translate(131.792,-510.904)">
			<title>Tabelle.15</title>
			<desc>NNEC Maturity Level 2</desc>
			<v:textBlock v:margins="rect(0,0,0,0)" v:tabSpace="42.5197"/>
			<v:textRect cx="51.1962" cy="836.555" width="102.4" height="10.6703"/>
			<path d="M102.39 831.22 L0 831.22 L0 841.89 L102.39 841.89 L102.39 831.22" class="st4"/>
			<text x="10.52" y="838.95" class="st5" v:langID="1031"><v:paragraph v:horizAlign="1"/><v:tabList/>NNEC Maturity Level 2</text>		</g>
		<g id="shape17-38" v:mID="17" v:groupContext="shape" transform="translate(400.759,-475.765)">
			<title>Tabelle.17</title>
			<path d="M3.89 833.47 L0 837.68 L3.89 841.89 L7.79 837.68 L3.89 833.47 L3.89 833.47 Z" class="st2"/>
		</g>
		<g id="shape18-40" v:mID="18" v:groupContext="shape" transform="translate(400.759,-475.765)">
			<title>Tabelle.18</title>
			<path d="M3.89 833.47 L0 837.68 L3.89 841.89 L7.79 837.68 L3.89 833.47 L3.89 833.47" class="st3"/>
		</g>
		<g id="shape19-43" v:mID="19" v:groupContext="shape" transform="translate(393.755,-484.183)">
			<title>Tabelle.19</title>
			<path d="M10.9 841.89 L10.9 826.46" class="st3"/>
			<path d="M10.9 826.46 L0 815.23" class="st3"/>
		</g>
		<g id="shape20-47" v:mID="20" v:groupContext="shape" transform="translate(391.376,-523.374)">
			<title>Tabelle.20</title>
			<desc>4</desc>
			<v:textBlock v:margins="rect(0,0,0,0)" v:tabSpace="42.5197"/>
			<v:textRect cx="4.91527" cy="836.555" width="9.84" height="10.6703"/>
			<path d="M9.83 831.22 L0 831.22 L0 841.89 L9.83 841.89 L9.83 831.22" class="st4"/>
			<text x="2.7" y="838.95" class="st5" v:langID="1031"><v:paragraph v:horizAlign="1"/><v:tabList/>4</text>		</g>
		<g id="shape21-51" v:mID="21" v:groupContext="shape" transform="translate(352.871,-510.904)">
			<title>Tabelle.21</title>
			<desc>NNEC Maturity Level 4</desc>
			<v:textBlock v:margins="rect(0,0,0,0)" v:tabSpace="42.5197"/>
			<v:textRect cx="51.1962" cy="836.555" width="102.4" height="10.6703"/>
			<path d="M102.39 831.22 L0 831.22 L0 841.89 L102.39 841.89 L102.39 831.22" class="st4"/>
			<text x="10.52" y="838.95" class="st5" v:langID="1031"><v:paragraph v:horizAlign="1"/><v:tabList/>NNEC Maturity Level 4</text>		</g>
		<g id="shape23-55" v:mID="23" v:groupContext="shape" transform="translate(286.299,-475.765)">
			<title>Tabelle.23</title>
			<path d="M3.89 833.47 L0 837.68 L3.89 841.89 L7.79 837.68 L3.89 833.47 L3.89 833.47 Z" class="st2"/>
		</g>
		<g id="shape24-57" v:mID="24" v:groupContext="shape" transform="translate(286.299,-475.765)">
			<title>Tabelle.24</title>
			<path d="M3.89 833.47 L0 837.68 L3.89 841.89 L7.79 837.68 L3.89 833.47 L3.89 833.47" class="st3"/>
		</g>
		<g id="shape25-60" v:mID="25" v:groupContext="shape" transform="translate(279.268,-484.183)">
			<title>Tabelle.25</title>
			<path d="M10.92 841.89 L10.92 826.46" class="st3"/>
			<path d="M10.92 826.46 L0 815.23" class="st3"/>
		</g>
		<g id="shape26-64" v:mID="26" v:groupContext="shape" transform="translate(277.159,-523.374)">
			<title>Tabelle.26</title>
			<desc>3</desc>
			<v:textBlock v:margins="rect(0,0,0,0)" v:tabSpace="42.5197"/>
			<v:textRect cx="4.91527" cy="836.555" width="9.84" height="10.6703"/>
			<path d="M9.83 831.22 L0 831.22 L0 841.89 L9.83 841.89 L9.83 831.22" class="st4"/>
			<text x="2.7" y="838.95" class="st5" v:langID="1031"><v:paragraph v:horizAlign="1"/><v:tabList/>3</text>		</g>
		<g id="shape27-68" v:mID="27" v:groupContext="shape" transform="translate(238.221,-510.904)">
			<title>Tabelle.27</title>
			<desc>NNEC Maturity Level 3</desc>
			<v:textBlock v:margins="rect(0,0,0,0)" v:tabSpace="42.5197"/>
			<v:textRect cx="51.1962" cy="836.555" width="102.4" height="10.6703"/>
			<path d="M102.39 831.22 L0 831.22 L0 841.89 L102.39 841.89 L102.39 831.22" class="st4"/>
			<text x="10.52" y="838.95" class="st5" v:langID="1031"><v:paragraph v:horizAlign="1"/><v:tabList/>NNEC Maturity Level 3</text>		</g>
		<g id="shape29-72" v:mID="29" v:groupContext="shape" transform="translate(58.0002,-405.757)">
			<title>Tabelle.29</title>
			<path d="M6.52 841.89 L50.67 841.89 C54.3 841.89 57.22 838.73 57.22 834.85 C57.22 834.85 57.22 834.85 57.22 834.85 C57.22
						 830.93 54.3 827.77 50.67 827.77 L6.52 827.77 C2.92 827.77 -0 830.93 0 834.85 C-0 838.73 2.92 841.89 6.52
						 841.89" class="st6"/>
		</g>
		<g id="shape30-75" v:mID="30" v:groupContext="shape" transform="translate(68.0315,-408.696)">
			<title>Tabelle.30</title>
			<desc>Messaging</desc>
			<v:textBlock v:margins="rect(0,0,0,0)" v:tabSpace="42.5197"/>
			<v:textRect cx="20.7766" cy="838.238" width="41.56" height="7.30279"/>
			<path d="M41.55 834.59 L0 834.59 L0 841.89 L41.55 841.89 L41.55 834.59" class="st4"/>
			<text x="1.43" y="840.64" class="st7" v:langID="1031"><v:paragraph v:horizAlign="1"/><v:tabList/>Messaging</text>		</g>
		<g id="shape31-79" v:mID="31" v:groupContext="shape" transform="translate(115.217,-412.802)">
			<title>Tabelle.31</title>
			<path d="M6.54 776.47 L6.54 841.89 L0 841.89" class="st8"/>
		</g>
		<g id="shape32-82" v:mID="32" v:groupContext="shape" transform="translate(86.6085,-342.122)">
			<title>Tabelle.32</title>
			<path d="M6.54 841.89 L50.67 841.89 C54.3 841.89 57.22 838.73 57.22 834.85 C57.22 834.85 57.22 834.85 57.22 834.85 C57.22
						 830.93 54.3 827.77 50.67 827.77 L6.54 827.77 C2.92 827.77 -0 830.93 0 834.85 C-0 838.73 2.92 841.89 6.54
						 841.89" class="st6"/>
		</g>
		<g id="shape33-85" v:mID="33" v:groupContext="shape" transform="translate(100.847,-345.09)">
			<title>Tabelle.33</title>
			<desc>SM</desc>
			<v:textBlock v:margins="rect(0,0,0,0)" v:tabSpace="42.5197"/>
			<v:textRect cx="6.8694" cy="838.238" width="13.74" height="7.30279"/>
			<path d="M13.74 834.59 L0 834.59 L0 841.89 L13.74 841.89 L13.74 834.59" class="st4"/>
			<text x="0.88" y="840.64" class="st7" v:langID="1031"><v:paragraph v:horizAlign="1"/><v:tabList/>SM</text>		</g>
		<g id="shape34-89" v:mID="34" v:groupContext="shape" transform="translate(115.352,-345.09)">
			<title>Tabelle.34</title>
			<desc>&#38;</desc>
			<v:textBlock v:margins="rect(0,0,0,0)" v:tabSpace="42.5197"/>
			<v:textRect cx="3.95711" cy="838.238" width="7.92" height="7.30279"/>
			<path d="M7.91 834.59 L0 834.59 L0 841.89 L7.91 841.89 L7.91 834.59" class="st4"/>
			<text x="1.28" y="840.64" class="st7" v:langID="1031"><v:paragraph v:horizAlign="1"/><v:tabList/>&#38;</text>		</g>
		<g id="shape35-93" v:mID="35" v:groupContext="shape" transform="translate(123.409,-345.09)">
			<title>Tabelle.35</title>
			<desc>C</desc>
			<v:textBlock v:margins="rect(0,0,0,0)" v:tabSpace="42.5197"/>
			<v:textRect cx="4.14999" cy="838.238" width="8.3" height="7.30279"/>
			<path d="M8.3 834.59 L0 834.59 L0 841.89 L8.3 841.89 L8.3 834.59" class="st4"/>
			<text x="1.26" y="840.64" class="st7" v:langID="1031"><v:paragraph v:horizAlign="1"/><v:tabList/>C</text>		</g>
		<g id="shape36-97" v:mID="36" v:groupContext="shape" transform="translate(75.9818,-363.314)">
			<title>Tabelle.36</title>
			<path d="M6.54 841.89 L50.67 841.89 C54.3 841.89 57.22 838.7 57.22 834.82 C57.22 834.82 57.22 834.82 57.22 834.82 C57.22
						 830.9 54.3 827.74 50.67 827.74 L6.54 827.74 C2.92 827.74 0 830.9 0 834.82 C0 838.7 2.92 841.89 6.54 841.89"
					class="st6"/>
		</g>
		<g id="shape37-100" v:mID="37" v:groupContext="shape" transform="translate(76.8717,-366.136)">
			<title>Tabelle.37</title>
			<desc>Info Assurance</desc>
			<v:textBlock v:margins="rect(0,0,0,0)" v:tabSpace="42.5197"/>
			<v:textRect cx="28.0102" cy="838.238" width="56.03" height="7.30279"/>
			<path d="M56.02 834.59 L0 834.59 L0 841.89 L56.02 841.89 L56.02 834.59" class="st4"/>
			<text x="1.32" y="840.64" class="st7" v:langID="1031"><v:paragraph v:horizAlign="1"/><v:tabList/>Info Assurance</text>		</g>
		<g id="shape38-104" v:mID="38" v:groupContext="shape" transform="translate(66.1663,-384.536)">
			<title>Tabelle.38</title>
			<path d="M6.54 841.89 L55.59 841.89 C59.22 841.89 62.14 838.73 62.14 834.82 C62.14 834.82 62.14 834.82 62.14 834.82 C62.14
						 830.93 59.22 827.74 55.59 827.74 L6.54 827.74 C2.92 827.74 0 830.93 0 834.82 C0 838.73 2.92 841.89 6.54
						 841.89" class="st6"/>
		</g>
		<g id="shape39-107" v:mID="39" v:groupContext="shape" transform="translate(65.1969,-387.65)">
			<title>Tabelle.39</title>
			<desc>Service Discovery</desc>
			<v:textBlock v:margins="rect(0,0,0,0)" v:tabSpace="42.5197"/>
			<v:textRect cx="32.7106" cy="838.238" width="65.43" height="7.30279"/>
			<path d="M65.42 834.59 L0 834.59 L0 841.89 L65.42 841.89 L65.42 834.59" class="st4"/>
			<text x="0.69" y="840.64" class="st7" v:langID="1031"><v:paragraph v:horizAlign="1"/><v:tabList/>Service Discovery</text>		</g>
		<g id="shape40-111" v:mID="40" v:groupContext="shape" transform="translate(144.663,-350.95)">
			<title>Tabelle.40</title>
			<path d="M10.28 714.62 L10.28 841.89 L0 841.89" class="st8"/>
		</g>
		<g id="shape41-114" v:mID="41" v:groupContext="shape" transform="translate(134.848,-368.634)">
			<title>Tabelle.41</title>
			<path d="M7.92 732.3 L7.92 841.89 L0 841.89" class="st8"/>
		</g>
		<g id="shape42-117" v:mID="42" v:groupContext="shape" transform="translate(128.304,-389.827)">
			<title>Tabelle.42</title>
			<path d="M4.19 753.5 L4.19 841.89 L0 841.89" class="st8"/>
		</g>
		<g id="shape43-120" v:mID="43" v:groupContext="shape" transform="translate(175.732,-384.536)">
			<title>Tabelle.43</title>
			<path d="M6.52 841.89 L50.67 841.89 C54.3 841.89 57.22 838.73 57.22 834.82 C57.22 834.82 57.22 834.82 57.22 834.82 C57.22
						 830.93 54.3 827.74 50.67 827.74 L6.52 827.74 C2.92 827.74 -0 830.93 0 834.82 C0 838.73 2.92 841.89 6.52
						 841.89" class="st6"/>
		</g>
		<g id="shape44-123" v:mID="44" v:groupContext="shape" transform="translate(180.452,-387.65)">
			<title>Tabelle.44</title>
			<desc>Collaboration</desc>
			<v:textBlock v:margins="rect(0,0,0,0)" v:tabSpace="42.5197"/>
			<v:textRect cx="23.6427" cy="838.238" width="47.29" height="7.30279"/>
			<path d="M47.29 834.59 L0 834.59 L0 841.89 L47.29 841.89 L47.29 834.59" class="st4"/>
			<text x="0.08" y="840.64" class="st7" v:langID="1031"><v:paragraph v:horizAlign="1"/><v:tabList/>Collaboration</text>		</g>
		<g id="shape45-127" v:mID="45" v:groupContext="shape" transform="translate(203.544,-341.216)">
			<title>Tabelle.45</title>
			<path d="M6.54 841.89 L50.7 841.89 C54.3 841.89 57.24 838.7 57.24 834.82 C57.24 834.82 57.24 834.82 57.24 834.82 C57.24
						 830.9 54.3 827.74 50.7 827.74 L6.54 827.74 C2.92 827.74 -0 830.9 0 834.82 C-0 838.7 2.92 841.89 6.54 841.89"
					class="st6"/>
		</g>
		<g id="shape46-130" v:mID="46" v:groupContext="shape" transform="translate(217.097,-344.155)">
			<title>Tabelle.46</title>
			<desc>Pub</desc>
			<v:textBlock v:margins="rect(0,0,0,0)" v:tabSpace="42.5197"/>
			<v:textRect cx="7.84573" cy="838.238" width="15.7" height="7.30279"/>
			<path d="M15.69 834.59 L0 834.59 L0 841.89 L15.69 841.89 L15.69 834.59" class="st4"/>
			<text x="0.73" y="840.64" class="st7" v:langID="1031"><v:paragraph v:horizAlign="1"/><v:tabList/>Pub</text>		</g>
		<g id="shape47-134" v:mID="47" v:groupContext="shape" transform="translate(231.233,-344.155)">
			<title>Tabelle.47</title>
			<desc>/</desc>
			<v:textBlock v:margins="rect(0,0,0,0)" v:tabSpace="42.5197"/>
			<v:textRect cx="2.59651" cy="838.238" width="5.2" height="7.30279"/>
			<path d="M5.19 834.59 L0 834.59 L0 841.89 L5.19 841.89 L5.19 834.59" class="st4"/>
			<text x="1.49" y="840.64" class="st7" v:langID="1031"><v:paragraph v:horizAlign="1"/><v:tabList/>/</text>		</g>
		<g id="shape48-138" v:mID="48" v:groupContext="shape" transform="translate(236.94,-344.155)">
			<title>Tabelle.48</title>
			<desc>Sub</desc>
			<v:textBlock v:margins="rect(0,0,0,0)" v:tabSpace="42.5197"/>
			<v:textRect cx="7.84573" cy="838.238" width="15.7" height="7.30279"/>
			<path d="M15.69 834.59 L0 834.59 L0 841.89 L15.69 841.89 L15.69 834.59" class="st4"/>
			<text x="0.73" y="840.64" class="st7" v:langID="1031"><v:paragraph v:horizAlign="1"/><v:tabList/>Sub</text>		</g>
		<g id="shape49-142" v:mID="49" v:groupContext="shape" transform="translate(201.88,-320.024)">
			<title>Tabelle.49</title>
			<path d="M6.54 841.89 L63.79 841.89 C67.38 841.89 70.3 838.73 70.3 834.82 C70.3 834.82 70.3 834.82 70.3 834.82 C70.3
						 830.93 67.38 827.77 63.79 827.77 L6.54 827.77 C2.92 827.77 0 830.93 0 834.82 C-0 838.73 2.92 841.89 6.54
						 841.89" class="st6"/>
		</g>
		<g id="shape50-145" v:mID="50" v:groupContext="shape" transform="translate(201.26,-323.109)">
			<title>Tabelle.50</title>
			<desc>Enterprise Directory</desc>
			<v:textBlock v:margins="rect(0,0,0,0)" v:tabSpace="42.5197"/>
			<v:textRect cx="36.1674" cy="838.238" width="72.34" height="7.30279"/>
			<path d="M72.33 834.59 L0 834.59 L0 841.89 L72.33 841.89 L72.33 834.59" class="st4"/>
			<text x="0.83" y="840.64" class="st7" v:langID="1031"><v:paragraph v:horizAlign="1"/><v:tabList/>Enterprise Directory</text>		</g>
		<g id="shape51-149" v:mID="51" v:groupContext="shape" transform="translate(221.024,-412.802)">
			<title>Tabelle.51</title>
			<path d="M5.38 776.47 L5.38 841.89 L0 841.89" class="st8"/>
		</g>
		<g id="shape52-152" v:mID="52" v:groupContext="shape" transform="translate(260.043,-346.536)">
			<title>Tabelle.52</title>
			<path d="M5.62 710.21 L5.62 841.89 L0 841.89" class="st8"/>
		</g>
		<g id="shape53-155" v:mID="53" v:groupContext="shape" transform="translate(232.949,-389.827)">
			<title>Tabelle.53</title>
			<path d="M9.82 753.5 L9.82 841.89 L0 841.89" class="st8"/>
		</g>
		<g id="shape54-158" v:mID="54" v:groupContext="shape" transform="translate(156.507,-405.757)">
			<title>Tabelle.54</title>
			<path d="M6.54 841.89 L56.81 841.89 C60.43 841.89 63.35 838.73 63.35 834.85 C63.35 834.85 63.35 834.85 63.35 834.85 C63.35
						 830.93 60.43 827.77 56.81 827.77 L6.54 827.77 C2.92 827.77 -0 830.93 0 834.85 C0 838.73 2.92 841.89 6.54
						 841.89" class="st6"/>
		</g>
		<g id="shape55-161" v:mID="55" v:groupContext="shape" transform="translate(155.906,-408.696)">
			<title>Tabelle.55</title>
			<desc>Metadata Registry</desc>
			<v:textBlock v:margins="rect(0,0,0,0)" v:tabSpace="42.5197"/>
			<v:textRect cx="32.9608" cy="838.238" width="65.93" height="7.30279"/>
			<path d="M65.92 834.59 L0 834.59 L0 841.89 L65.92 841.89 L65.92 834.59" class="st4"/>
			<text x="0.49" y="840.64" class="st7" v:langID="1031"><v:paragraph v:horizAlign="1"/><v:tabList/>Metadata Registry</text>		</g>
		<g id="shape56-165" v:mID="56" v:groupContext="shape" transform="translate(319.612,-342.122)">
			<title>Tabelle.56</title>
			<path d="M6.54 841.89 L50.7 841.89 C54.3 841.89 57.24 838.73 57.24 834.85 C57.24 834.85 57.24 834.85 57.24 834.85 C57.24
						 830.93 54.3 827.77 50.7 827.77 L6.54 827.77 C2.92 827.77 -0 830.93 0 834.85 C-0 838.73 2.92 841.89 6.54
						 841.89" class="st6"/>
		</g>
		<g id="shape57-168" v:mID="57" v:groupContext="shape" transform="translate(325.792,-345.09)">
			<title>Tabelle.57</title>
			<desc>Application</desc>
			<v:textBlock v:margins="rect(0,0,0,0)" v:tabSpace="42.5197"/>
			<v:textRect cx="20.0348" cy="838.238" width="40.07" height="7.30279"/>
			<path d="M40.07 834.59 L0 834.59 L0 841.89 L40.07 841.89 L40.07 834.59" class="st4"/>
			<text x="0.46" y="840.64" class="st7" v:langID="1031"><v:paragraph v:horizAlign="1"/><v:tabList/>Application</text>		</g>
		<g id="shape58-172" v:mID="58" v:groupContext="shape" transform="translate(301.63,-363.314)">
			<title>Tabelle.58</title>
			<path d="M6.54 841.89 L50.7 841.89 C54.3 841.89 57.22 838.7 57.22 834.82 C57.22 834.82 57.22 834.82 57.22 834.82 C57.22
						 830.9 54.3 827.74 50.7 827.74 L6.54 827.74 C2.92 827.74 0 830.9 0 834.82 C-0 838.7 2.92 841.89 6.54 841.89"
					class="st6"/>
		</g>
		<g id="shape59-175" v:mID="59" v:groupContext="shape" transform="translate(303.988,-366.136)">
			<title>Tabelle.59</title>
			<desc>Info Discovery</desc>
			<v:textBlock v:margins="rect(0,0,0,0)" v:tabSpace="42.5197"/>
			<v:textRect cx="26.5886" cy="838.238" width="53.18" height="7.30279"/>
			<path d="M53.18 834.59 L0 834.59 L0 841.89 L53.18 841.89 L53.18 834.59" class="st4"/>
			<text x="1.26" y="840.64" class="st7" v:langID="1031"><v:paragraph v:horizAlign="1"/><v:tabList/>Info Discovery</text>		</g>
		<g id="shape60-179" v:mID="60" v:groupContext="shape" transform="translate(277.105,-384.536)">
			<title>Tabelle.60</title>
			<path d="M6.54 841.89 L55.59 841.89 C59.19 841.89 62.14 838.73 62.14 834.82 C62.14 834.82 62.14 834.82 62.14 834.82 C62.14
						 830.93 59.19 827.74 55.59 827.74 L6.54 827.74 C2.92 827.74 0 830.93 0 834.82 C0 838.73 2.92 841.89 6.54
						 841.89" class="st6"/>
		</g>
		<g id="shape61-182" v:mID="61" v:groupContext="shape" transform="translate(286.299,-387.65)">
			<title>Tabelle.61</title>
			<desc>Translation</desc>
			<v:textBlock v:margins="rect(0,0,0,0)" v:tabSpace="42.5197"/>
			<v:textRect cx="21.368" cy="838.238" width="42.74" height="7.30279"/>
			<path d="M42.74 834.59 L0 834.59 L0 841.89 L42.74 841.89 L42.74 834.59" class="st4"/>
			<text x="1.59" y="840.64" class="st7" v:langID="1031"><v:paragraph v:horizAlign="1"/><v:tabList/>Translation</text>		</g>
		<g id="shape62-186" v:mID="62" v:groupContext="shape" transform="translate(272.184,-328.851)">
			<title>Tabelle.62</title>
			<path d="M3.27 692.52 L3.27 841.89 L0 841.89" class="st8"/>
		</g>
		<g id="shape63-189" v:mID="63" v:groupContext="shape" transform="translate(377.558,-350.95)">
			<title>Tabelle.63</title>
			<path d="M15.63 714.62 L15.63 841.89 L0 841.89" class="st8"/>
		</g>
		<g id="shape64-192" v:mID="64" v:groupContext="shape" transform="translate(359.333,-368.634)">
			<title>Tabelle.64</title>
			<path d="M10.98 732.3 L10.98 841.89 L0 841.89" class="st8"/>
		</g>
		<g id="shape65-195" v:mID="65" v:groupContext="shape" transform="translate(339.243,-389.827)">
			<title>Tabelle.65</title>
			<path d="M0 753.5 L0 841.89" class="st8"/>
		</g>
		<g id="shape66-198" v:mID="66" v:groupContext="shape" transform="translate(395.242,-405.757)">
			<title>Tabelle.66</title>
			<path d="M6.54 841.89 L56.81 841.89 C60.43 841.89 63.35 838.73 63.35 834.85 C63.35 834.85 63.35 834.85 63.35 834.85 C63.35
						 830.93 60.43 827.77 56.81 827.77 L6.54 827.77 C2.92 827.77 -0 830.93 0 834.85 C-0 838.73 2.92 841.89 6.54
						 841.89" class="st6"/>
		</g>
		<g id="shape67-201" v:mID="67" v:groupContext="shape" transform="translate(411.422,-408.696)">
			<title>Tabelle.67</title>
			<desc>Storage</desc>
			<v:textBlock v:margins="rect(0,0,0,0)" v:tabSpace="42.5197"/>
			<v:textRect cx="15.3914" cy="838.238" width="30.79" height="7.30279"/>
			<path d="M30.78 834.59 L0 834.59 L0 841.89 L30.78 841.89 L30.78 834.59" class="st4"/>
			<text x="1.39" y="840.64" class="st7" v:langID="1031"><v:paragraph v:horizAlign="1"/><v:tabList/>Storage</text>		</g>
		<g id="shape68-205" v:mID="68" v:groupContext="shape" transform="translate(409.547,-384.536)">
			<title>Tabelle.68</title>
			<path d="M6.54 841.89 L55.59 841.89 C59.22 841.89 62.14 838.73 62.14 834.82 C62.14 834.82 62.14 834.82 62.14 834.82 C62.14
						 830.93 59.22 827.74 55.59 827.74 L6.54 827.74 C2.92 827.74 0 830.93 0 834.82 C-0 838.73 2.92 841.89 6.54
						 841.89" class="st6"/>
		</g>
		<g id="shape69-208" v:mID="69" v:groupContext="shape" transform="translate(414.773,-387.65)">
			<title>Tabelle.69</title>
			<desc>Composition</desc>
			<v:textBlock v:margins="rect(0,0,0,0)" v:tabSpace="42.5197"/>
			<v:textRect cx="23.6371" cy="838.238" width="47.28" height="7.30279"/>
			<path d="M47.27 834.59 L0 834.59 L0 841.89 L47.27 841.89 L47.27 834.59" class="st4"/>
			<text x="1.39" y="840.64" class="st7" v:langID="1031"><v:paragraph v:horizAlign="1"/><v:tabList/>Composition</text>		</g>
		<g id="shape70-212" v:mID="70" v:groupContext="shape" transform="translate(459.598,-412.802)">
			<title>Tabelle.70</title>
			<path d="M7.81 776.47 L7.81 841.89 L0 841.89" class="st8"/>
		</g>
		<g id="shape71-215" v:mID="71" v:groupContext="shape" transform="translate(472.685,-389.827)">
			<title>Tabelle.71</title>
			<path d="M7.81 753.5 L7.81 841.89 L0 841.89" class="st8"/>
		</g>
		<g id="shape72-218" v:mID="72" v:groupContext="shape" transform="translate(494.587,-460.536)">
			<title>Tabelle.72</title>
			<path d="M0 826.66 L0 841.89" class="st9"/>
			<path d="M0 841.89 L13.06 841.89" class="st9"/>
		</g>
		<g id="shape73-222" v:mID="73" v:groupContext="shape" transform="translate(490.694,-475.765)">
			<title>Tabelle.73</title>
			<path d="M3.89 841.89 L7.79 833.47 L0 833.47 L3.89 841.89 L3.89 841.89 Z" class="st10"/>
		</g>
		<g id="shape74-224" v:mID="74" v:groupContext="shape" transform="translate(490.694,-475.765)">
			<title>Tabelle.74</title>
			<path d="M3.89 841.89 L7.79 833.47 L0 833.47 L3.89 841.89 L3.89 841.89" class="st9"/>
		</g>
		<g id="shape75-227" v:mID="75" v:groupContext="shape" transform="translate(507.402,-457.579)">
			<title>Tabelle.75</title>
			<desc>5</desc>
			<v:textBlock v:margins="rect(0,0,0,0)" v:tabSpace="42.5197"/>
			<v:textRect cx="3.56956" cy="838.238" width="7.14" height="7.30279"/>
			<path d="M7.14 834.59 L0 834.59 L0 841.89 L7.14 841.89 L7.14 834.59" class="st4"/>
			<text x="1.35" y="840.64" class="st11" v:langID="1031"><v:paragraph v:horizAlign="1"/><v:tabList/>5</text>		</g>
		<g id="shape81-231" v:mID="81" v:groupContext="shape" transform="translate(507.026,-475.765)">
			<title>Tabelle.81</title>
			<path d="M3.89 833.47 L0 837.68 L3.89 841.89 L7.79 837.68 L3.89 833.47 L3.89 833.47 Z" class="st2"/>
		</g>
		<g id="shape82-233" v:mID="82" v:groupContext="shape" transform="translate(507.026,-475.765)">
			<title>Tabelle.82</title>
			<path d="M3.89 833.47 L0 837.68 L3.89 841.89 L7.79 837.68 L3.89 833.47 L3.89 833.47" class="st3"/>
		</g>
		<g id="shape83-236" v:mID="83" v:groupContext="shape" transform="translate(500.022,-484.183)">
			<title>Tabelle.83</title>
			<path d="M10.9 841.89 L10.9 826.46" class="st3"/>
			<path d="M10.9 826.46 L0 815.23" class="st3"/>
		</g>
		<g id="shape84-240" v:mID="84" v:groupContext="shape" transform="translate(497.805,-523.374)">
			<title>Tabelle.84</title>
			<desc>5</desc>
			<v:textBlock v:margins="rect(0,0,0,0)" v:tabSpace="42.5197"/>
			<v:textRect cx="4.91527" cy="836.555" width="9.84" height="10.6703"/>
			<path d="M9.83 831.22 L0 831.22 L0 841.89 L9.83 841.89 L9.83 831.22" class="st4"/>
			<text x="2.7" y="838.95" class="st5" v:langID="1031"><v:paragraph v:horizAlign="1"/><v:tabList/>5</text>		</g>
		<g id="shape85-244" v:mID="85" v:groupContext="shape" transform="translate(458.867,-510.904)">
			<title>Tabelle.85</title>
			<desc>NNEC Maturity Level 5</desc>
			<v:textBlock v:margins="rect(0,0,0,0)" v:tabSpace="42.5197"/>
			<v:textRect cx="51.1962" cy="836.555" width="102.4" height="10.6703"/>
			<path d="M102.39 831.22 L0 831.22 L0 841.89 L102.39 841.89 L102.39 831.22" class="st4"/>
			<text x="10.52" y="838.95" class="st5" v:langID="1031"><v:paragraph v:horizAlign="1"/><v:tabList/>NNEC Maturity Level 5  </text>		</g>
		<g id="shape87-248" v:mID="87" v:groupContext="shape" transform="translate(65.3551,-525.954)">
			<title>Tabelle.87</title>
			<path d="M0 831.28 L0 841.89 L466.01 841.89 L466.01 831.28 L0 831.28 L0 831.28 Z" class="st12"/>
		</g>
		<g id="shape88-250" v:mID="88" v:groupContext="shape" transform="translate(417.713,-460.536)">
			<title>Tabelle.88</title>
			<path d="M0 826.66 L0 841.89" class="st9"/>
			<path d="M0 841.89 L13.09 841.89" class="st9"/>
		</g>
		<g id="shape89-254" v:mID="89" v:groupContext="shape" transform="translate(413.819,-475.765)">
			<title>Tabelle.89</title>
			<path d="M3.89 841.89 L7.79 833.47 L0 833.47 L3.89 841.89 L3.89 841.89 Z" class="st10"/>
		</g>
		<g id="shape90-256" v:mID="90" v:groupContext="shape" transform="translate(413.819,-475.765)">
			<title>Tabelle.90</title>
			<path d="M3.89 841.89 L7.79 833.47 L0 833.47 L3.89 841.89 L3.89 841.89" class="st9"/>
		</g>
		<g id="shape97-259" v:mID="97" v:groupContext="shape" transform="translate(378.478,-460.536)">
			<title>Tabelle.97</title>
			<path d="M0 826.66 L0 841.89" class="st9"/>
			<path d="M0 841.89 L13.09 841.89" class="st9"/>
		</g>
		<g id="shape98-263" v:mID="98" v:groupContext="shape" transform="translate(374.584,-475.765)">
			<title>Tabelle.98</title>
			<path d="M3.89 841.89 L7.79 833.47 L0 833.47 L3.89 841.89 L3.89 841.89 Z" class="st10"/>
		</g>
		<g id="shape99-265" v:mID="99" v:groupContext="shape" transform="translate(374.584,-475.765)">
			<title>Tabelle.99</title>
			<path d="M3.89 841.89 L7.79 833.47 L0 833.47 L3.89 841.89 L3.89 841.89" class="st9"/>
		</g>
		<g id="shape100-268" v:mID="100" v:groupContext="shape" transform="translate(391.181,-457.579)">
			<title>Tabelle.100</title>
			<desc>3</desc>
			<v:textBlock v:margins="rect(0,0,0,0)" v:tabSpace="42.5197"/>
			<v:textRect cx="3.56956" cy="838.238" width="7.14" height="7.30279"/>
			<path d="M7.14 834.59 L0 834.59 L0 841.89 L7.14 841.89 L7.14 834.59" class="st4"/>
			<text x="1.35" y="840.64" class="st11" v:langID="1031"><v:paragraph v:horizAlign="1"/><v:tabList/>3</text>		</g>
		<g id="shape106-272" v:mID="106" v:groupContext="shape" transform="translate(169.188,-460.536)">
			<title>Tabelle.106</title>
			<path d="M0 826.66 L0 841.89" class="st9"/>
			<path d="M0 841.89 L13.06 841.89" class="st9"/>
		</g>
		<g id="shape107-276" v:mID="107" v:groupContext="shape" transform="translate(165.295,-475.765)">
			<title>Tabelle.107</title>
			<path d="M3.89 841.89 L7.79 833.47 L0 833.47 L3.89 841.89 L3.89 841.89 Z" class="st10"/>
		</g>
		<g id="shape108-278" v:mID="108" v:groupContext="shape" transform="translate(165.295,-475.765)">
			<title>Tabelle.108</title>
			<path d="M3.89 841.89 L7.79 833.47 L0 833.47 L3.89 841.89 L3.89 841.89" class="st9"/>
		</g>
		<g id="shape109-281" v:mID="109" v:groupContext="shape" transform="translate(180.682,-457.579)">
			<title>Tabelle.109</title>
			<desc>1</desc>
			<v:textBlock v:margins="rect(0,0,0,0)" v:tabSpace="42.5197"/>
			<v:textRect cx="3.56956" cy="838.238" width="7.14" height="7.30279"/>
			<path d="M7.14 834.59 L0 834.59 L0 841.89 L7.14 841.89 L7.14 834.59" class="st4"/>
			<text x="1.35" y="840.64" class="st11" v:langID="1031"><v:paragraph v:horizAlign="1"/><v:tabList/>1</text>		</g>
		<g id="shape111-285" v:mID="111" v:groupContext="shape" transform="translate(158.74,-442.205)">
			<title>Tabelle.111</title>
			<desc>(SOA Maturity Level 1)</desc>
			<v:textBlock v:margins="rect(0,0,0,0)" v:tabSpace="42.5197"/>
			<v:textRect cx="29.3735" cy="838.238" width="58.75" height="7.30279"/>
			<path d="M58.75 834.59 L0 834.59 L0 841.89 L58.75 841.89 L58.75 834.59" class="st4"/>
			<text x="4.26" y="835.84" class="st11" v:langID="1031"><v:paragraph v:horizAlign="1"/><v:tabList/>(SOA Maturity <tspan
						x="15.14" dy="1.2em" class="st13">Level </tspan>1)</text>		</g>
		<g id="shape115-290" v:mID="115" v:groupContext="shape" transform="translate(342.515,-460.536)">
			<title>Tabelle.115</title>
			<path d="M0 826.66 L0 841.89" class="st9"/>
			<path d="M0 841.89 L13.09 841.89" class="st9"/>
		</g>
		<g id="shape116-294" v:mID="116" v:groupContext="shape" transform="translate(338.621,-475.765)">
			<title>Tabelle.116</title>
			<path d="M3.89 841.89 L7.79 833.47 L0 833.47 L3.89 841.89 L3.89 841.89 Z" class="st10"/>
		</g>
		<g id="shape117-296" v:mID="117" v:groupContext="shape" transform="translate(338.621,-475.765)">
			<title>Tabelle.117</title>
			<path d="M3.89 841.89 L7.79 833.47 L0 833.47 L3.89 841.89 L3.89 841.89" class="st9"/>
		</g>
		<g id="shape124-299" v:mID="124" v:groupContext="shape" transform="translate(188.792,-363.314)">
			<title>Tabelle.124</title>
			<path d="M6.54 841.89 L50.7 841.89 C54.32 841.89 57.24 838.7 57.24 834.82 C57.24 834.82 57.24 834.82 57.24 834.82 C57.24
						 830.9 54.32 827.74 50.7 827.74 L6.54 827.74 C2.95 827.74 0 830.9 0 834.82 C-0 838.7 2.95 841.89 6.54 841.89"
					class="st6"/>
		</g>
		<g id="shape125-302" v:mID="125" v:groupContext="shape" transform="translate(193.599,-366.136)">
			<title>Tabelle.125</title>
			<desc>Transaction</desc>
			<v:textBlock v:margins="rect(0,0,0,0)" v:tabSpace="42.5197"/>
			<v:textRect cx="21.8341" cy="838.238" width="43.67" height="7.30279"/>
			<path d="M43.67 834.59 L0 834.59 L0 841.89 L43.67 841.89 L43.67 834.59" class="st4"/>
			<text x="0.93" y="840.64" class="st7" v:langID="1031"><v:paragraph v:horizAlign="1"/><v:tabList/>Transaction</text>		</g>
		<g id="shape126-306" v:mID="126" v:groupContext="shape" transform="translate(246.036,-370.388)">
			<title>Tabelle.126</title>
			<path d="M9.82 734.06 L9.82 841.89 L0 841.89" class="st8"/>
		</g>
		<g id="shape127-309" v:mID="127" v:groupContext="shape" transform="translate(542.002,-315.076)">
			<title>Tabelle.127</title>
			<v:textBlock v:margins="rect(0,0,0,0)" v:tabSpace="42.5197"/>
			<path d="M0 841.89 L7.8 841.89 L7.8 826.9 L0 826.9 L0 841.89" class="st4"/>
		</g>
		<g id="shape1-312" v:mID="1" v:groupContext="shape" transform="translate(318.261,-442.205)">
			<title>Tabelle.1</title>
			<desc>(SOA Maturity Level 2)</desc>
			<v:textBlock v:margins="rect(0,0,0,0)" v:tabSpace="42.5197"/>
			<v:textRect cx="29.3735" cy="838.238" width="58.75" height="7.30279"/>
			<path d="M58.75 834.59 L0 834.59 L0 841.89 L58.75 841.89 L58.75 834.59" class="st4"/>
			<text x="4.26" y="835.84" class="st11" v:langID="1031"><v:paragraph v:horizAlign="1"/><v:tabList/>(SOA Maturity <tspan
						x="15.14" dy="1.2em" class="st13">Level </tspan>2)</text>		</g>
		<g id="shape2-317" v:mID="2" v:groupContext="shape" transform="translate(368.504,-435.118)">
			<title>Tabelle.2</title>
			<desc>(SOA Maturity Level 3)</desc>
			<v:textBlock v:margins="rect(0,0,0,0)" v:tabSpace="42.5197"/>
			<v:textRect cx="29.3735" cy="831.969" width="58.75" height="19.8425"/>
			<path d="M58.75 822.05 L0 822.05 L0 841.89 L58.75 841.89 L58.75 822.05" class="st4"/>
			<text x="4.26" y="829.57" class="st11" v:langID="1031"><v:paragraph v:horizAlign="1"/><v:tabList/>(SOA Maturity <tspan
						x="15.14" dy="1.2em" class="st13">Level </tspan>3)</text>		</g>
		<g id="shape3-322" v:mID="3" v:groupContext="shape" transform="translate(419.528,-440.571)">
			<title>Tabelle.3</title>
			<desc>(SOA Maturity Level 4)</desc>
			<v:textBlock v:margins="rect(0,0,0,0)" v:tabSpace="42.5197"/>
			<v:textRect cx="29.3735" cy="838.238" width="58.75" height="7.30279"/>
			<path d="M58.75 834.59 L0 834.59 L0 841.89 L58.75 841.89 L58.75 834.59" class="st4"/>
			<text x="4.26" y="835.84" class="st11" v:langID="1031"><v:paragraph v:horizAlign="1"/><v:tabList/>(SOA Maturity <tspan
						x="15.14" dy="1.2em" class="st13">Level </tspan>4)</text>		</g>
		<g id="shape76-327" v:mID="76" v:groupContext="shape" transform="translate(486.532,-442.205)">
			<title>Tabelle.76</title>
			<desc>(SOA Maturity Level 5)</desc>
			<v:textBlock v:margins="rect(0,0,0,0)" v:tabSpace="42.5197"/>
			<v:textRect cx="29.3735" cy="838.238" width="58.75" height="7.30279"/>
			<path d="M58.75 834.59 L0 834.59 L0 841.89 L58.75 841.89 L58.75 834.59" class="st4"/>
			<text x="4.26" y="835.84" class="st11" v:langID="1031"><v:paragraph v:horizAlign="1"/><v:tabList/>(SOA Maturity <tspan
						x="15.14" dy="1.2em" class="st13">Level </tspan>5)</text>		</g>
		<g id="shape77-332" v:mID="77" v:groupContext="shape" transform="translate(355.696,-457.579)">
			<title>Tabelle.77</title>
			<desc>2</desc>
			<v:textBlock v:margins="rect(0,0,0,0)" v:tabSpace="42.5197"/>
			<v:textRect cx="3.56956" cy="838.238" width="7.14" height="7.30279"/>
			<path d="M7.14 834.59 L0 834.59 L0 841.89 L7.14 841.89 L7.14 834.59" class="st4"/>
			<text x="1.35" y="840.64" class="st11" v:langID="1031"><v:paragraph v:horizAlign="1"/><v:tabList/>2</text>		</g>
		<g id="shape78-336" v:mID="78" v:groupContext="shape" transform="translate(430.866,-457.579)">
			<title>Tabelle.78</title>
			<desc>4</desc>
			<v:textBlock v:margins="rect(0,0,0,0)" v:tabSpace="42.5197"/>
			<v:textRect cx="3.56956" cy="838.238" width="7.14" height="7.30279"/>
			<path d="M7.14 834.59 L0 834.59 L0 841.89 L7.14 841.89 L7.14 834.59" class="st4"/>
			<text x="1.35" y="840.64" class="st11" v:langID="1031"><v:paragraph v:horizAlign="1"/><v:tabList/>4</text>		</g>
	</g>
</svg>
