<?xml version="1.0" encoding="UTF-8" standalone="no"?>
<!DOCTYPE svg PUBLIC "-//W3C//DTD SVG 1.0//EN" "http://www.w3.org/TR/2001/REC-SVG-20010904/DTD/svg10.dtd">
<!-- Generiert durch Microsoft Visio 11.0, SVG Export, v1.0 esb-ems.svg Zeichenblatt-1 -->
<svg xmlns="http://www.w3.org/2000/svg" xmlns:v="http://schemas.microsoft.com/visio/2003/SVGExtensions/" width="7.39554in"
		height="6.67503in" viewBox="0 0 532.479 480.602" xml:space="preserve" color-interpolation-filters="sRGB" class="st18">
	<v:documentProperties v:langID="1031" v:metric="true" v:viewMarkup="false"/>

	<style type="text/css">
	<![CDATA[
		.st1 {fill:#ffff00;stroke:#000000;stroke-dasharray:8.4,6;stroke-linecap:round;stroke-linejoin:round;stroke-width:1.2}
		.st2 {fill:#ffffff;stroke:#000000;stroke-dasharray:0,6;stroke-linecap:round;stroke-linejoin:round;stroke-width:1.2}
		.st3 {fill:#ccffff;stroke:#000000;stroke-linecap:round;stroke-linejoin:round;stroke-width:0.72}
		.st4 {fill:#000000;font-family:Arial;font-size:1.33333em;font-weight:bold}
		.st5 {fill:#00ffff;stroke:#000000;stroke-linecap:round;stroke-linejoin:round;stroke-width:0.72}
		.st6 {fill:#000000;font-family:Arial;font-size:1.16666em;font-weight:bold}
		.st7 {font-size:1em}
		.st8 {fill:#e8eef7;stroke:#000000;stroke-linecap:round;stroke-linejoin:round;stroke-width:0.24}
		.st9 {fill:none;stroke:none;stroke-linecap:round;stroke-linejoin:round;stroke-width:0.72}
		.st10 {fill:#0000ff;font-family:Arial;font-size:1.33333em;font-weight:bold}
		.st11 {fill:#ffcc99;stroke:#000000;stroke-linecap:round;stroke-linejoin:round;stroke-width:0.72}
		.st12 {fill:#ff0000;font-family:Arial;font-size:1.33333em;font-weight:bold}
		.st13 {font-size:1em;font-weight:normal}
		.st14 {marker-end:url(#mrkr13-138);marker-start:url(#mrkr13-136);stroke:#000000;stroke-linecap:round;stroke-linejoin:round;stroke-width:3.12}
		.st15 {fill:#000000;fill-opacity:1;stroke:#000000;stroke-opacity:1;stroke-width:0.5531914893617}
		.st16 {fill:#000000;font-family:Arial;font-size:0.833336em}
		.st17 {fill:#000000;font-family:Arial;font-size:0.916672em}
		.st18 {fill:none;fill-rule:evenodd;font-size:12;overflow:visible;stroke-linecap:square;stroke-miterlimit:3}
	]]>
	</style>

	<defs id="Markers">
		<g id="lend13">
			<path d="M 3 1 L 0 0 L 3 -1 L 3 1 " style="stroke:none"/>
		</g>
		<marker id="mrkr13-136" class="st15" v:arrowType="13" v:arrowSize="2" v:setback="5.30769" refX="5.3076923076923"
				orient="auto" markerUnits="strokeWidth">
			<use xlink:href="#lend13" transform="scale(1.8076923076923) "/>
		</marker>
		<marker id="mrkr13-138" class="st15" v:arrowType="13" v:arrowSize="2" v:setback="5.42308" refX="-5.4230769230769"
				orient="auto" markerUnits="strokeWidth">
			<use xlink:href="#lend13" transform="scale(-1.8076923076923,-1.8076923076923) "/>
		</marker>
	</defs>
	<g v:mID="0" v:index="1" v:groupContext="foregroundPage">
		<title>Zeichenblatt-1</title>
		<v:pageProperties v:drawingScale="0.0393701" v:pageScale="0.0393701" v:drawingUnits="24" v:shadowOffsetX="8.50394"
				v:shadowOffsetY="-8.50394"/>
		<g id="shape55-1" v:mID="55" v:groupContext="shape" transform="translate(417.893,-381.733)">
			<title>Tabelle.55</title>
			<path d="M0 480.6 L70.87 480.6 L70.87 423.91 L0 423.91 L0 480.6 Z" class="st1"/>
		</g>
		<g id="shape54-3" v:mID="54" v:groupContext="shape" transform="translate(49.389,-380.67)">
			<title>Tabelle.54</title>
			<path d="M0 480.6 L70.87 480.6 L70.87 422.85 L0 422.85 L0 480.6 Z" class="st1"/>
		</g>
		<g id="shape53-5" v:mID="53" v:groupContext="shape" transform="translate(1.2,-9.33131)">
			<title>Tabelle.53</title>
			<path d="M0 480.6 L530.08 480.6 L530.08 231.15 L0 231.15 L0 480.6 Z" class="st2"/>
		</g>
		<g id="shape25-7" v:mID="25" v:groupContext="shape" transform="translate(1.2,-177.993)">
			<title>Tabelle.25</title>
			<path d="M0 480.6 L530.08 480.6 L530.08 266.59 L0 266.59 L0 480.6 Z" class="st1"/>
		</g>
		<g id="shape1-9" v:mID="1" v:groupContext="shape" transform="translate(49.389,-45.473)">
			<title>Tabelle.1</title>
			<desc>Data Link (physical)</desc>
			<v:textBlock v:margins="rect(4,4,4,4)" v:tabSpace="42.5197"/>
			<v:textRect cx="106.299" cy="466.429" width="212.6" height="28.3465"/>
			<rect x="0" y="452.256" width="212.598" height="28.3465" class="st3"/>
			<text x="30.73" y="471.23" class="st4" v:langID="1031"><v:paragraph v:horizAlign="1"/><v:tabList/>Data Link (physical)</text>		</g>
		<g id="shape2-12" v:mID="2" v:groupContext="shape" transform="translate(49.389,-90.8274)">
			<title>Tabelle.2</title>
			<desc>Network</desc>
			<v:textBlock v:margins="rect(4,4,4,4)" v:tabSpace="42.5197"/>
			<v:textRect cx="106.299" cy="466.429" width="212.6" height="28.3465"/>
			<rect x="0" y="452.256" width="212.598" height="28.3465" class="st3"/>
			<text x="74.74" y="471.23" class="st4" v:langID="1031"><v:paragraph v:horizAlign="1"/><v:tabList/>Network</text>		</g>
		<g id="shape3-15" v:mID="3" v:groupContext="shape" transform="translate(49.389,-136.182)">
			<title>Tabelle.3</title>
			<desc>TCP</desc>
			<v:textBlock v:margins="rect(4,4,4,4)" v:tabSpace="42.5197"/>
			<v:textRect cx="49.6063" cy="466.429" width="99.22" height="28.3465"/>
			<rect x="0" y="452.256" width="99.2126" height="28.3465" class="st3"/>
			<text x="33.6" y="471.23" class="st4" v:langID="1031"><v:paragraph v:horizAlign="1"/><v:tabList/>TCP</text>		</g>
		<g id="shape4-18" v:mID="4" v:groupContext="shape" transform="translate(162.775,-136.182)">
			<title>Tabelle.4</title>
			<desc>UDP</desc>
			<v:textBlock v:margins="rect(4,4,4,4)" v:tabSpace="42.5197"/>
			<v:textRect cx="49.6063" cy="466.429" width="99.22" height="28.3465"/>
			<rect x="0" y="452.256" width="99.2126" height="28.3465" class="st3"/>
			<text x="32.71" y="471.23" class="st4" v:langID="1031"><v:paragraph v:horizAlign="1"/><v:tabList/>UDP</text>		</g>
		<g id="shape5-21" v:mID="5" v:groupContext="shape" transform="translate(49.389,-189.331)">
			<title>Tabelle.5</title>
			<desc>HTTP</desc>
			<v:textBlock v:margins="rect(4,4,4,4)" v:tabSpace="42.5197"/>
			<v:textRect cx="106.299" cy="466.429" width="212.6" height="28.3465"/>
			<rect x="0" y="452.256" width="212.598" height="28.3465" class="st5"/>
			<text x="85.41" y="471.23" class="st4" v:langID="1031"><v:paragraph v:horizAlign="1"/><v:tabList/>HTTP</text>		</g>
		<g id="shape6-24" v:mID="6" v:groupContext="shape" transform="translate(49.389,-236.103)">
			<title>Tabelle.6</title>
			<desc>XML, SOAP</desc>
			<v:textBlock v:margins="rect(4,4,4,4)" v:tabSpace="42.5197"/>
			<v:textRect cx="106.299" cy="419.658" width="212.6" height="121.89"/>
			<rect x="0" y="358.713" width="212.598" height="121.89" class="st5"/>
			<text x="62.3" y="468.26" class="st4" v:langID="1031"><v:paragraph v:horizAlign="1"/><v:tabList/><v:newlineChar/><v:newlineChar/><v:lf/><v:lf/><v:lf/>XML, SOAP</text>		</g>
		<g id="shape7-27" v:mID="7" v:groupContext="shape" transform="translate(49.389,-272.953)">
			<title>Tabelle.7</title>
			<desc>Web Service Middelware (including Web Security)</desc>
			<v:textBlock v:margins="rect(4,4,4,4)" v:tabSpace="42.5197"/>
			<v:textRect cx="98.5039" cy="460.76" width="197.01" height="39.685"/>
			<rect x="0" y="440.917" width="197.008" height="39.685" class="st5"/>
			<text x="16.8" y="456.56" class="st6" v:langID="1031"><v:paragraph v:horizAlign="1"/><v:tabList/>Web Service Middelware <tspan
						x="16.44" dy="1.2em" class="st7">(</tspan>including Web Security)</text>		</g>
		<g id="shape9-31" v:mID="9" v:groupContext="shape" transform="translate(49.389,-422.481)">
			<title>Tabelle.9</title>
			<rect x="0" y="423.91" width="212.598" height="56.6929" class="st3"/>
		</g>
		<g id="shape10-33" v:mID="10" v:groupContext="shape" transform="translate(49.389,-422.481)">
			<title>Tabelle.10</title>
			<desc>UDDI</desc>
			<v:textBlock v:margins="rect(4,4,4,4)" v:tabSpace="42.5197"/>
			<v:textRect cx="35.4331" cy="469.264" width="70.87" height="22.6772"/>
			<rect x="0" y="457.925" width="70.8661" height="22.6772" class="st5"/>
			<text x="15.87" y="474.06" class="st4" v:langID="1031"><v:paragraph v:horizAlign="1"/><v:tabList/>UDDI</text>		</g>
		<g id="shape11-36" v:mID="11" v:groupContext="shape" transform="translate(-394.363,389.775) rotate(-90) scale(-1,1)">
			<title>60 degree double.11</title>
			<v:userDefs>
				<v:ud v:nameU="visVersion" v:val="VT0(11):26"/>
			</v:userDefs>
			<path d="M0 472.1 L4.91 463.59 L4.91 469.21 L12.1 469.21 L12.1 463.59 L17.01 472.1 L12.1 480.6 L12.1 474.99 L4.91 474.99
						 L4.91 480.6 L0 472.1 Z" class="st8"/>
		</g>
		<g id="shape12-38" v:mID="12" v:groupContext="shape" transform="translate(-323.497,389.775) rotate(-90) scale(-1,1)">
			<title>60 degree double.12</title>
			<v:userDefs>
				<v:ud v:nameU="visVersion" v:val="VT0(11):26"/>
			</v:userDefs>
			<path d="M0 472.1 L4.91 463.59 L4.91 469.21 L12.1 469.21 L12.1 463.59 L17.01 472.1 L12.1 480.6 L12.1 474.99 L4.91 474.99
						 L4.91 480.6 L0 472.1 Z" class="st8"/>
		</g>
		<g id="shape13-40" v:mID="13" v:groupContext="shape" transform="translate(-252.631,389.775) rotate(-90) scale(-1,1)">
			<title>60 degree double.13</title>
			<v:userDefs>
				<v:ud v:nameU="visVersion" v:val="VT0(11):26"/>
			</v:userDefs>
			<path d="M0 472.1 L4.91 463.59 L4.91 469.21 L12.1 469.21 L12.1 463.59 L17.01 472.1 L12.1 480.6 L12.1 474.99 L4.91 474.99
						 L4.91 480.6 L0 472.1 Z" class="st8"/>
		</g>
		<g id="shape14-42" v:mID="14" v:groupContext="shape" transform="translate(-373.103,344.421) rotate(-90) scale(-1,1)">
			<title>60 degree double.14</title>
			<v:userDefs>
				<v:ud v:nameU="visVersion" v:val="VT0(11):26"/>
			</v:userDefs>
			<path d="M0 472.1 L4.91 463.59 L4.91 469.21 L12.1 469.21 L12.1 463.59 L17.01 472.1 L12.1 480.6 L12.1 474.99 L4.91 474.99
						 L4.91 480.6 L0 472.1 Z" class="st8"/>
		</g>
		<g id="shape15-44" v:mID="15" v:groupContext="shape" transform="translate(-259.717,344.421) rotate(-90) scale(-1,1)">
			<title>60 degree double.15</title>
			<v:userDefs>
				<v:ud v:nameU="visVersion" v:val="VT0(11):26"/>
			</v:userDefs>
			<path d="M0 472.1 L4.91 463.59 L4.91 469.21 L12.1 469.21 L12.1 463.59 L17.01 472.1 L12.1 480.6 L12.1 474.99 L4.91 474.99
						 L4.91 480.6 L0 472.1 Z" class="st8"/>
		</g>
		<g id="shape16-46" v:mID="16" v:groupContext="shape" transform="translate(-373.103,291.555) rotate(-90) scale(-1,1)">
			<title>60 degree double.16</title>
			<v:userDefs>
				<v:ud v:nameU="visVersion" v:val="VT0(11):26"/>
			</v:userDefs>
			<path d="M0 472.1 L4.91 463.59 L4.91 469.21 L18.9 469.21 L18.9 463.59 L23.81 472.1 L18.9 480.6 L18.9 474.99 L4.91 474.99
						 L4.91 480.6 L0 472.1 Z" class="st8"/>
		</g>
		<g id="shape17-48" v:mID="17" v:groupContext="shape" transform="translate(-259.717,291.555) rotate(-90) scale(-1,1)">
			<title>60 degree double.17</title>
			<v:userDefs>
				<v:ud v:nameU="visVersion" v:val="VT0(11):26"/>
			</v:userDefs>
			<path d="M0 472.1 L4.91 463.59 L4.91 469.21 L18.9 469.21 L18.9 463.59 L23.81 472.1 L18.9 480.6 L18.9 474.99 L4.91 474.99
						 L4.91 480.6 L0 472.1 Z" class="st8"/>
		</g>
		<g id="shape18-50" v:mID="18" v:groupContext="shape" transform="translate(-388.694,245.917) rotate(-90) scale(-1,1)">
			<title>60 degree double.18</title>
			<v:userDefs>
				<v:ud v:nameU="visVersion" v:val="VT0(11):26"/>
			</v:userDefs>
			<path d="M0 472.1 L4.91 463.59 L4.91 469.21 L12.1 469.21 L12.1 463.59 L17.01 472.1 L12.1 480.6 L12.1 474.99 L4.91 474.99
						 L4.91 480.6 L0 472.1 Z" class="st8"/>
		</g>
		<g id="shape19-52" v:mID="19" v:groupContext="shape" transform="translate(-317.828,245.917) rotate(-90) scale(-1,1)">
			<title>60 degree double.19</title>
			<v:userDefs>
				<v:ud v:nameU="visVersion" v:val="VT0(11):26"/>
			</v:userDefs>
			<path d="M0 472.1 L4.91 463.59 L4.91 469.21 L12.1 469.21 L12.1 463.59 L17.01 472.1 L12.1 480.6 L12.1 474.99 L4.91 474.99
						 L4.91 480.6 L0 472.1 Z" class="st8"/>
		</g>
		<g id="shape20-54" v:mID="20" v:groupContext="shape" transform="translate(-246.962,245.917) rotate(-90) scale(-1,1)">
			<title>60 degree double.20</title>
			<v:userDefs>
				<v:ud v:nameU="visVersion" v:val="VT0(11):26"/>
			</v:userDefs>
			<path d="M0 472.1 L4.91 463.59 L4.91 469.21 L12.1 469.21 L12.1 463.59 L17.01 472.1 L12.1 480.6 L12.1 474.99 L4.91 474.99
						 L4.91 480.6 L0 472.1 Z" class="st8"/>
		</g>
		<g id="shape21-56" v:mID="21" v:groupContext="shape" transform="translate(-387.277,101.472) rotate(-90) scale(-1,1)">
			<title>60 degree double.21</title>
			<v:userDefs>
				<v:ud v:nameU="visVersion" v:val="VT0(11):26"/>
			</v:userDefs>
			<path d="M0 472.1 L4.91 463.59 L4.91 469.21 L15.17 469.21 L15.17 463.59 L20.07 472.1 L15.17 480.6 L15.17 474.99 L4.91
						 474.99 L4.91 480.6 L0 472.1 Z" class="st8"/>
		</g>
		<g id="shape22-58" v:mID="22" v:groupContext="shape" transform="translate(-387.277,59.5389) rotate(-90) scale(-1,1)">
			<title>60 degree double.22</title>
			<v:userDefs>
				<v:ud v:nameU="visVersion" v:val="VT0(11):26"/>
			</v:userDefs>
			<path d="M0 472.1 L4.91 463.59 L4.91 469.21 L12.1 469.21 L12.1 463.59 L17.01 472.1 L12.1 480.6 L12.1 474.99 L4.91 474.99
						 L4.91 480.6 L0 472.1 Z" class="st8"/>
		</g>
		<g id="shape24-60" v:mID="24" v:groupContext="shape" transform="translate(-245.544,59.8661) rotate(-90) scale(-1,1)">
			<title>60 degree double.24</title>
			<v:userDefs>
				<v:ud v:nameU="visVersion" v:val="VT0(11):26"/>
			</v:userDefs>
			<path d="M0 472.1 L4.91 463.59 L4.91 469.21 L56.77 469.21 L56.77 463.59 L61.68 472.1 L56.77 480.6 L56.77 474.99 L4.91
						 474.99 L4.91 480.6 L0 472.1 Z" class="st8"/>
		</g>
		<g id="shape23-62" v:mID="23" v:groupContext="shape" transform="translate(49.389,-379.961)">
			<title>Tabelle.23</title>
			<desc>WSDL</desc>
			<v:textBlock v:margins="rect(4,4,4,4)" v:tabSpace="42.5197"/>
			<v:textRect cx="35.4331" cy="469.264" width="70.87" height="22.6772"/>
			<rect x="0" y="457.925" width="70.8661" height="22.6772" class="st5"/>
			<text x="11.87" y="474.06" class="st4" v:langID="1031"><v:paragraph v:horizAlign="1"/><v:tabList/>WSDL</text>		</g>
		<g id="shape8-65" v:mID="8" v:groupContext="shape" transform="translate(52.2236,-447.993)">
			<title>Tabelle.8</title>
			<desc>Client (Consumer)</desc>
			<v:textBlock v:margins="rect(4,4,4,4)" v:tabSpace="42.5197"/>
			<v:textRect cx="106.299" cy="469.264" width="212.6" height="22.6772"/>
			<rect x="0" y="457.925" width="212.598" height="22.6772" class="st9"/>
			<text x="36.96" y="474.06" class="st10" v:langID="1031"><v:paragraph v:horizAlign="1"/><v:tabList/>Client (Consumer)</text>		</g>
		<g id="shape27-68" v:mID="27" v:groupContext="shape" transform="translate(276.161,-46.1817)">
			<title>Tabelle.27</title>
			<desc>Data Link (physical)</desc>
			<v:textBlock v:margins="rect(4,4,4,4)" v:tabSpace="42.5197"/>
			<v:textRect cx="106.299" cy="466.429" width="212.6" height="28.3465"/>
			<rect x="0" y="452.256" width="212.598" height="28.3465" class="st3"/>
			<text x="30.73" y="471.23" class="st4" v:langID="1031"><v:paragraph v:horizAlign="1"/><v:tabList/>Data Link (physical)</text>		</g>
		<g id="shape28-71" v:mID="28" v:groupContext="shape" transform="translate(276.161,-91.536)">
			<title>Tabelle.28</title>
			<desc>Network</desc>
			<v:textBlock v:margins="rect(4,4,4,4)" v:tabSpace="42.5197"/>
			<v:textRect cx="106.299" cy="466.429" width="212.6" height="28.3465"/>
			<rect x="0" y="452.256" width="212.598" height="28.3465" class="st3"/>
			<text x="74.74" y="471.23" class="st4" v:langID="1031"><v:paragraph v:horizAlign="1"/><v:tabList/>Network</text>		</g>
		<g id="shape29-74" v:mID="29" v:groupContext="shape" transform="translate(276.161,-136.89)">
			<title>Tabelle.29</title>
			<desc>TCP</desc>
			<v:textBlock v:margins="rect(4,4,4,4)" v:tabSpace="42.5197"/>
			<v:textRect cx="49.6063" cy="466.429" width="99.22" height="28.3465"/>
			<rect x="0" y="452.256" width="99.2126" height="28.3465" class="st3"/>
			<text x="33.6" y="471.23" class="st4" v:langID="1031"><v:paragraph v:horizAlign="1"/><v:tabList/>TCP</text>		</g>
		<g id="shape30-77" v:mID="30" v:groupContext="shape" transform="translate(389.546,-136.89)">
			<title>Tabelle.30</title>
			<desc>UDP</desc>
			<v:textBlock v:margins="rect(4,4,4,4)" v:tabSpace="42.5197"/>
			<v:textRect cx="49.6063" cy="466.429" width="99.22" height="28.3465"/>
			<rect x="0" y="452.256" width="99.2126" height="28.3465" class="st3"/>
			<text x="32.71" y="471.23" class="st4" v:langID="1031"><v:paragraph v:horizAlign="1"/><v:tabList/>UDP</text>		</g>
		<g id="shape31-80" v:mID="31" v:groupContext="shape" transform="translate(276.161,-190.04)">
			<title>Tabelle.31</title>
			<desc>HTTP</desc>
			<v:textBlock v:margins="rect(4,4,4,4)" v:tabSpace="42.5197"/>
			<v:textRect cx="106.299" cy="466.429" width="212.6" height="28.3465"/>
			<rect x="0" y="452.256" width="212.598" height="28.3465" class="st5"/>
			<text x="85.41" y="471.23" class="st4" v:langID="1031"><v:paragraph v:horizAlign="1"/><v:tabList/>HTTP</text>		</g>
		<g id="shape34-83" v:mID="34" v:groupContext="shape" transform="translate(276.161,-423.19)">
			<title>Tabelle.34</title>
			<rect x="0" y="423.91" width="212.598" height="56.6929" class="st11"/>
		</g>
		<g id="shape35-85" v:mID="35" v:groupContext="shape" transform="translate(417.893,-423.19)">
			<title>Tabelle.35</title>
			<desc>UDDI</desc>
			<v:textBlock v:margins="rect(4,4,4,4)" v:tabSpace="42.5197"/>
			<v:textRect cx="35.4331" cy="469.264" width="70.87" height="22.6772"/>
			<rect x="0" y="457.925" width="70.8661" height="22.6772" class="st5"/>
			<text x="15.87" y="474.06" class="st4" v:langID="1031"><v:paragraph v:horizAlign="1"/><v:tabList/>UDDI</text>		</g>
		<g id="shape36-88" v:mID="36" v:groupContext="shape" transform="translate(-167.591,389.066) rotate(-90) scale(-1,1)">
			<title>60 degree double</title>
			<v:userDefs>
				<v:ud v:nameU="visVersion" v:val="VT0(11):26"/>
			</v:userDefs>
			<path d="M0 472.1 L4.91 463.59 L4.91 469.21 L12.1 469.21 L12.1 463.59 L17.01 472.1 L12.1 480.6 L12.1 474.99 L4.91 474.99
						 L4.91 480.6 L0 472.1 Z" class="st8"/>
		</g>
		<g id="shape37-90" v:mID="37" v:groupContext="shape" transform="translate(-96.7253,389.066) rotate(-90) scale(-1,1)">
			<title>60 degree double.37</title>
			<v:userDefs>
				<v:ud v:nameU="visVersion" v:val="VT0(11):26"/>
			</v:userDefs>
			<path d="M0 472.1 L4.91 463.59 L4.91 469.21 L12.1 469.21 L12.1 463.59 L17.01 472.1 L12.1 480.6 L12.1 474.99 L4.91 474.99
						 L4.91 480.6 L0 472.1 Z" class="st8"/>
		</g>
		<g id="shape38-92" v:mID="38" v:groupContext="shape" transform="translate(-25.8592,389.066) rotate(-90) scale(-1,1)">
			<title>60 degree double.38</title>
			<v:userDefs>
				<v:ud v:nameU="visVersion" v:val="VT0(11):26"/>
			</v:userDefs>
			<path d="M0 472.1 L4.91 463.59 L4.91 469.21 L12.1 469.21 L12.1 463.59 L17.01 472.1 L12.1 480.6 L12.1 474.99 L4.91 474.99
						 L4.91 480.6 L0 472.1 Z" class="st8"/>
		</g>
		<g id="shape39-94" v:mID="39" v:groupContext="shape" transform="translate(-146.332,343.712) rotate(-90) scale(-1,1)">
			<title>60 degree double.39</title>
			<v:userDefs>
				<v:ud v:nameU="visVersion" v:val="VT0(11):26"/>
			</v:userDefs>
			<path d="M0 472.1 L4.91 463.59 L4.91 469.21 L12.1 469.21 L12.1 463.59 L17.01 472.1 L12.1 480.6 L12.1 474.99 L4.91 474.99
						 L4.91 480.6 L0 472.1 Z" class="st8"/>
		</g>
		<g id="shape40-96" v:mID="40" v:groupContext="shape" transform="translate(-32.9458,343.712) rotate(-90) scale(-1,1)">
			<title>60 degree double.40</title>
			<v:userDefs>
				<v:ud v:nameU="visVersion" v:val="VT0(11):26"/>
			</v:userDefs>
			<path d="M0 472.1 L4.91 463.59 L4.91 469.21 L12.1 469.21 L12.1 463.59 L17.01 472.1 L12.1 480.6 L12.1 474.99 L4.91 474.99
						 L4.91 480.6 L0 472.1 Z" class="st8"/>
		</g>
		<g id="shape41-98" v:mID="41" v:groupContext="shape" transform="translate(-146.332,290.563) rotate(-90) scale(-1,1)">
			<title>60 degree double.41</title>
			<v:userDefs>
				<v:ud v:nameU="visVersion" v:val="VT0(11):26"/>
			</v:userDefs>
			<path d="M0 472.1 L4.91 463.59 L4.91 469.21 L18.9 469.21 L18.9 463.59 L23.81 472.1 L18.9 480.6 L18.9 474.99 L4.91 474.99
						 L4.91 480.6 L0 472.1 Z" class="st8"/>
		</g>
		<g id="shape42-100" v:mID="42" v:groupContext="shape" transform="translate(-32.9458,290.563) rotate(-90) scale(-1,1)">
			<title>60 degree double.42</title>
			<v:userDefs>
				<v:ud v:nameU="visVersion" v:val="VT0(11):26"/>
			</v:userDefs>
			<path d="M0 472.1 L4.91 463.59 L4.91 469.21 L18.9 469.21 L18.9 463.59 L23.81 472.1 L18.9 480.6 L18.9 474.99 L4.91 474.99
						 L4.91 480.6 L0 472.1 Z" class="st8"/>
		</g>
		<g id="shape43-102" v:mID="43" v:groupContext="shape" transform="translate(-161.922,245.208) rotate(-90) scale(-1,1)">
			<title>60 degree double.43</title>
			<v:userDefs>
				<v:ud v:nameU="visVersion" v:val="VT0(11):26"/>
			</v:userDefs>
			<path d="M0 472.1 L4.91 463.59 L4.91 469.21 L12.1 469.21 L12.1 463.59 L17.01 472.1 L12.1 480.6 L12.1 474.99 L4.91 474.99
						 L4.91 480.6 L0 472.1 Z" class="st8"/>
		</g>
		<g id="shape44-104" v:mID="44" v:groupContext="shape" transform="translate(-91.056,245.208) rotate(-90) scale(-1,1)">
			<title>60 degree double.44</title>
			<v:userDefs>
				<v:ud v:nameU="visVersion" v:val="VT0(11):26"/>
			</v:userDefs>
			<path d="M0 472.1 L4.91 463.59 L4.91 469.21 L12.1 469.21 L12.1 463.59 L17.01 472.1 L12.1 480.6 L12.1 474.99 L4.91 474.99
						 L4.91 480.6 L0 472.1 Z" class="st8"/>
		</g>
		<g id="shape45-106" v:mID="45" v:groupContext="shape" transform="translate(-20.1899,245.208) rotate(-90) scale(-1,1)">
			<title>60 degree double.45</title>
			<v:userDefs>
				<v:ud v:nameU="visVersion" v:val="VT0(11):26"/>
			</v:userDefs>
			<path d="M0 472.1 L4.91 463.59 L4.91 469.21 L12.1 469.21 L12.1 463.59 L17.01 472.1 L12.1 480.6 L12.1 474.99 L4.91 474.99
						 L4.91 480.6 L0 472.1 Z" class="st8"/>
		</g>
		<g id="shape46-108" v:mID="46" v:groupContext="shape" transform="translate(-18.7726,100.914) rotate(-90) scale(-1,1)">
			<title>60 degree double.46</title>
			<v:userDefs>
				<v:ud v:nameU="visVersion" v:val="VT0(11):26"/>
			</v:userDefs>
			<path d="M0 472.1 L4.91 463.59 L4.91 469.21 L15.17 469.21 L15.17 463.59 L20.07 472.1 L15.17 480.6 L15.17 474.99 L4.91
						 474.99 L4.91 480.6 L0 472.1 Z" class="st8"/>
		</g>
		<g id="shape47-110" v:mID="47" v:groupContext="shape" transform="translate(-18.7726,58.8302) rotate(-90) scale(-1,1)">
			<title>60 degree double.47</title>
			<v:userDefs>
				<v:ud v:nameU="visVersion" v:val="VT0(11):26"/>
			</v:userDefs>
			<path d="M0 472.1 L4.91 463.59 L4.91 469.21 L12.1 469.21 L12.1 463.59 L17.01 472.1 L12.1 480.6 L12.1 474.99 L4.91 474.99
						 L4.91 480.6 L0 472.1 Z" class="st8"/>
		</g>
		<g id="shape48-112" v:mID="48" v:groupContext="shape" transform="translate(-159.088,59.1846) rotate(-90) scale(-1,1)">
			<title>60 degree double.48</title>
			<v:userDefs>
				<v:ud v:nameU="visVersion" v:val="VT0(11):26"/>
			</v:userDefs>
			<path d="M0 472.1 L4.91 463.59 L4.91 469.21 L56.77 469.21 L56.77 463.59 L61.68 472.1 L56.77 480.6 L56.77 474.99 L4.91
						 474.99 L4.91 480.6 L0 472.1 Z" class="st8"/>
		</g>
		<g id="shape49-114" v:mID="49" v:groupContext="shape" transform="translate(417.893,-380.67)">
			<title>Tabelle.49</title>
			<desc>WSDL</desc>
			<v:textBlock v:margins="rect(4,4,4,4)" v:tabSpace="42.5197"/>
			<v:textRect cx="35.4331" cy="469.264" width="70.87" height="22.6772"/>
			<rect x="0" y="457.925" width="70.8661" height="22.6772" class="st5"/>
			<text x="11.87" y="474.06" class="st4" v:langID="1031"><v:paragraph v:horizAlign="1"/><v:tabList/>WSDL</text>		</g>
		<g id="shape50-117" v:mID="50" v:groupContext="shape" transform="translate(278.995,-448.701)">
			<title>Tabelle.50</title>
			<desc>Service Provider</desc>
			<v:textBlock v:margins="rect(4,4,4,4)" v:tabSpace="42.5197"/>
			<v:textRect cx="106.299" cy="469.264" width="212.6" height="22.6772"/>
			<rect x="0" y="457.925" width="212.598" height="22.6772" class="st9"/>
			<text x="43.15" y="474.06" class="st10" v:langID="1031"><v:paragraph v:horizAlign="1"/><v:tabList/>Service Provider</text>		</g>
		<g id="shape26-120" v:mID="26" v:groupContext="shape" transform="translate(-445.387,342.295) rotate(-90)">
			<title>Tabelle.26</title>
			<desc>ESB Service Enterprise Bus</desc>
			<v:textBlock v:margins="rect(4,4,4,4)" v:tabSpace="42.5197"/>
			<v:textRect cx="106.299" cy="469.264" width="212.6" height="22.6772"/>
			<rect x="0" y="457.925" width="212.598" height="22.6772" class="st9"/>
			<text x="60.95" y="464.46" class="st12" v:langID="1031"><v:paragraph v:horizAlign="1"/><v:tabList/>ESB <tspan
						class="st13">Service<v:newlineChar/></tspan><tspan x="53.83" dy="1.2em" class="st13">Enterprise Bus</tspan></text>		</g>
		<g id="shape51-125" v:mID="51" v:groupContext="shape" transform="translate(977.865,129.696) rotate(90)">
			<title>Tabelle.51</title>
			<desc>ESB Service Enterprise Bus</desc>
			<v:textBlock v:margins="rect(4,4,4,4)" v:tabSpace="42.5197"/>
			<v:textRect cx="106.299" cy="469.264" width="212.6" height="22.6772"/>
			<rect x="0" y="457.925" width="212.598" height="22.6772" class="st9"/>
			<text x="60.95" y="464.46" class="st12" v:langID="1031"><v:paragraph v:horizAlign="1"/><v:tabList/>ESB <tspan
						class="st13">Service<v:newlineChar/></tspan><tspan x="53.83" dy="1.2em" class="st13">Enterprise Bus</tspan></text>		</g>
		<g id="shape52-130" v:mID="52" v:groupContext="shape" transform="translate(148.602,-17.8352)">
			<title>Tabelle.52</title>
			<path d="M0 469.52 L0 469.88 L0 480.6 L240.94 480.6 L240.94 469.18" class="st14"/>
		</g>
		<g id="shape56-139" v:mID="56" v:groupContext="shape" transform="translate(168.444,-312.638)">
			<title>Tabelle.56</title>
			<desc>SAML</desc>
			<v:textBlock v:margins="rect(4,4,4,4)" v:tabSpace="42.5197"/>
			<v:textRect cx="19.8425" cy="464.303" width="39.69" height="32.5984"/>
			<rect x="0" y="448.004" width="39.685" height="32.5984" class="st5"/>
			<text x="6.23" y="467.3" class="st16" v:langID="9"><v:paragraph v:horizAlign="1"/><v:tabList/>SAML</text>		</g>
		<g id="shape57-142" v:mID="57" v:groupContext="shape" transform="translate(62.1449,-312.638)">
			<title>Tabelle.57</title>
			<desc>XML Encryption</desc>
			<v:textBlock v:margins="rect(4,4,4,4)" v:tabSpace="42.5197"/>
			<v:textRect cx="27.6378" cy="464.303" width="55.28" height="32.5984"/>
			<rect x="0" y="448.004" width="55.2756" height="32.5984" class="st5"/>
			<text x="17.37" y="461.3" class="st16" v:langID="9"><v:paragraph v:horizAlign="1"/><v:tabList/>XML <tspan x="4.03"
						dy="1.2em" class="st7">Encryption </tspan> </text>		</g>
		<g id="shape58-146" v:mID="58" v:groupContext="shape" transform="translate(117.42,-312.638)">
			<title>Tabelle.58</title>
			<desc>XML Signature</desc>
			<v:textBlock v:margins="rect(4,4,4,4)" v:tabSpace="42.5197"/>
			<v:textRect cx="25.5118" cy="464.303" width="51.03" height="32.5984"/>
			<rect x="0" y="448.004" width="51.0236" height="32.5984" class="st5"/>
			<text x="15.22" y="461.3" class="st16" v:langID="9"><v:paragraph v:horizAlign="1"/><v:tabList/>XML <tspan x="4.1"
						dy="1.2em" class="st7">Signature</tspan></text>		</g>
		<g id="shape59-150" v:mID="59" v:groupContext="shape" transform="translate(13.9559,-312.638)">
			<title>Tabelle.59</title>
			<desc>XKMS</desc>
			<v:textBlock v:margins="rect(4,4,4,4)" v:tabSpace="42.5197"/>
			<v:textRect cx="24.0945" cy="464.303" width="48.19" height="32.5984"/>
			<rect x="0" y="448.004" width="48.189" height="32.5984" class="st5"/>
			<text x="8.51" y="467.6" class="st17" v:langID="1031"><v:paragraph v:horizAlign="1"/><v:tabList/>XKMS</text>		</g>
		<g id="shape32-153" v:mID="32" v:groupContext="shape" transform="translate(276.161,-236.103)">
			<title>Tabelle.32</title>
			<desc>XML, SOAP</desc>
			<v:textBlock v:margins="rect(4,4,4,4)" v:tabSpace="42.5197"/>
			<v:textRect cx="106.299" cy="419.658" width="212.6" height="121.89"/>
			<rect x="0" y="358.713" width="212.598" height="121.89" class="st5"/>
			<text x="62.3" y="468.26" class="st4" v:langID="1031"><v:paragraph v:horizAlign="1"/><v:tabList/><v:newlineChar/><v:newlineChar/><v:lf/><v:lf/><v:lf/>XML, SOAP</text>		</g>
		<g id="shape33-156" v:mID="33" v:groupContext="shape" transform="translate(291.751,-272.953)">
			<title>Tabelle.33</title>
			<desc>Web Service Middelware (including Web Security)</desc>
			<v:textBlock v:margins="rect(4,4,4,4)" v:tabSpace="42.5197"/>
			<v:textRect cx="98.5039" cy="460.76" width="197.01" height="39.685"/>
			<rect x="0" y="440.917" width="197.008" height="39.685" class="st5"/>
			<text x="16.8" y="456.56" class="st6" v:langID="1031"><v:paragraph v:horizAlign="1"/><v:tabList/>Web Service Middelware <tspan
						x="16.44" dy="1.2em" class="st7">(</tspan>including Web Security)</text>		</g>
		<g id="shape60-160" v:mID="60" v:groupContext="shape" transform="translate(330.019,-312.638)">
			<title>Tabelle.60</title>
			<desc>SAML</desc>
			<v:textBlock v:margins="rect(4,4,4,4)" v:tabSpace="42.5197"/>
			<v:textRect cx="19.8425" cy="464.303" width="39.69" height="32.5984"/>
			<rect x="0" y="448.004" width="39.685" height="32.5984" class="st5"/>
			<text x="6.23" y="467.3" class="st16" v:langID="9"><v:paragraph v:horizAlign="1"/><v:tabList/>SAML</text>		</g>
		<g id="shape61-163" v:mID="61" v:groupContext="shape" transform="translate(420.019,-312.638)">
			<title>Tabelle.61</title>
			<desc>XML Encryption</desc>
			<v:textBlock v:margins="rect(4,4,4,4)" v:tabSpace="42.5197"/>
			<v:textRect cx="27.6378" cy="464.303" width="55.28" height="32.5984"/>
			<rect x="0" y="448.004" width="55.2756" height="32.5984" class="st5"/>
			<text x="17.37" y="461.3" class="st16" v:langID="9"><v:paragraph v:horizAlign="1"/><v:tabList/>XML <tspan x="4.03"
						dy="1.2em" class="st7">Encryption </tspan> </text>		</g>
		<g id="shape62-167" v:mID="62" v:groupContext="shape" transform="translate(369.704,-312.638)">
			<title>Tabelle.62</title>
			<desc>XML Signature</desc>
			<v:textBlock v:margins="rect(4,4,4,4)" v:tabSpace="42.5197"/>
			<v:textRect cx="25.5118" cy="464.303" width="51.03" height="32.5984"/>
			<rect x="0" y="448.004" width="51.0236" height="32.5984" class="st5"/>
			<text x="15.22" y="461.3" class="st16" v:langID="9"><v:paragraph v:horizAlign="1"/><v:tabList/>XML <tspan x="4.1"
						dy="1.2em" class="st7">Signature</tspan></text>		</g>
		<g id="shape63-171" v:mID="63" v:groupContext="shape" transform="translate(474.586,-312.638)">
			<title>Tabelle.63</title>
			<desc>XKMS</desc>
			<v:textBlock v:margins="rect(4,4,4,4)" v:tabSpace="42.5197"/>
			<v:textRect cx="24.0945" cy="464.303" width="48.19" height="32.5984"/>
			<rect x="0" y="448.004" width="48.189" height="32.5984" class="st5"/>
			<text x="8.51" y="467.6" class="st17" v:langID="1031"><v:paragraph v:horizAlign="1"/><v:tabList/>XKMS</text>		</g>
	</g>
</svg>
