<?xml version="1.0" encoding="UTF-8" standalone="no"?>
<!DOCTYPE svg PUBLIC "-//W3C//DTD SVG 1.0//EN" "http://www.w3.org/TR/2001/REC-SVG-20010904/DTD/svg10.dtd">
<!-- Generiert durch Microsoft Visio 11.0, SVG Export, v1.0 esblayermodel.svg Page-1 -->
<svg xmlns="http://www.w3.org/2000/svg" xmlns:v="http://schemas.microsoft.com/visio/2003/SVGExtensions/" width="6.5294in"
		height="4.81159in" viewBox="0 0 470.117 346.435" xml:space="preserve" color-interpolation-filters="sRGB" class="st17">
	<v:documentProperties v:langID="1031" v:metric="true" v:viewMarkup="false"/>

	<style type="text/css">
	<![CDATA[
		.st1 {fill:#ffffff;stroke:#000000;stroke-dasharray:0,6;stroke-linecap:round;stroke-linejoin:round;stroke-width:1.2}
		.st2 {fill:#ffff00;stroke:#000000;stroke-dasharray:8.4,6;stroke-linecap:round;stroke-linejoin:round;stroke-width:1.2}
		.st3 {fill:#ccffff;stroke:#000000;stroke-linecap:round;stroke-linejoin:round;stroke-width:0.72}
		.st4 {fill:#000000;font-family:Arial;font-size:1.33333em;font-weight:bold}
		.st5 {fill:#00ffff;stroke:#000000;stroke-linecap:round;stroke-linejoin:round;stroke-width:0.72}
		.st6 {fill:#000000;font-family:Arial;font-size:1.16666em;font-weight:bold}
		.st7 {font-size:0.857157em}
		.st8 {fill:#e8eef7;stroke:#000000;stroke-linecap:round;stroke-linejoin:round;stroke-width:0.24}
		.st9 {fill:none;stroke:none;stroke-linecap:round;stroke-linejoin:round;stroke-width:0.72}
		.st10 {fill:#ff0000;font-family:Arial;font-size:1.16666em;font-weight:bold}
		.st11 {font-size:1em;font-weight:normal}
		.st12 {marker-end:url(#mrkr13-91);marker-start:url(#mrkr13-89);stroke:#000000;stroke-linecap:round;stroke-linejoin:round;stroke-width:3.12}
		.st13 {fill:#000000;fill-opacity:1;stroke:#000000;stroke-opacity:1;stroke-width:0.5531914893617}
		.st14 {font-size:1.14286em}
		.st15 {fill:#0000ff;font-family:Arial;font-size:1.33333em;font-weight:bold}
		.st16 {fill:#ffcc99;stroke:#000000;stroke-linecap:round;stroke-linejoin:round;stroke-width:0.72}
		.st17 {fill:none;fill-rule:evenodd;font-size:12;overflow:visible;stroke-linecap:square;stroke-miterlimit:3}
	]]>
	</style>

	<defs id="Markers">
		<g id="lend13">
			<path d="M 3 1 L -0 0 L 3 -1 L 3 1 " style="stroke:none"/>
		</g>
		<marker id="mrkr13-89" class="st13" v:arrowType="13" v:arrowSize="2" v:setback="5.30769" refX="5.3076923076923"
				orient="auto" markerUnits="strokeWidth">
			<use xlink:href="#lend13" transform="scale(1.8076923076923) "/>
		</marker>
		<marker id="mrkr13-91" class="st13" v:arrowType="13" v:arrowSize="2" v:setback="5.42308" refX="-5.4230769230769"
				orient="auto" markerUnits="strokeWidth">
			<use xlink:href="#lend13" transform="scale(-1.8076923076923,-1.8076923076923) "/>
		</marker>
	</defs>
	<g v:mID="0" v:index="1" v:groupContext="foregroundPage">
		<title>Page-1</title>
		<v:pageProperties v:drawingScale="0.0393701" v:pageScale="0.0393701" v:drawingUnits="24" v:shadowOffsetX="8.50394"
				v:shadowOffsetY="-8.50394"/>
		<g id="shape1-1" v:mID="1" v:groupContext="shape" transform="translate(1.2,-25.9312)">
			<title>Tabelle.1</title>
			<path d="M0 346.43 L467.72 346.43 L467.72 105.49 L0 105.49 L0 346.43 Z" class="st1"/>
		</g>
		<g id="shape2-3" v:mID="2" v:groupContext="shape" transform="translate(21.0425,-242.481)">
			<title>Tabelle.2</title>
			<path d="M0 346.43 L436.54 346.43 L436.54 299.36 L0 299.36 L0 346.43 Z" class="st2"/>
		</g>
		<g id="shape3-5" v:mID="3" v:groupContext="shape" transform="translate(19.6252,-45.473)">
			<title>Tabelle.3</title>
			<desc>Data Link / Physical</desc>
			<v:textBlock v:margins="rect(4,4,4,4)" v:tabSpace="42.5197"/>
			<v:textRect cx="106.299" cy="332.261" width="212.6" height="28.3465"/>
			<rect x="0" y="318.088" width="212.598" height="28.3465" class="st3"/>
			<text x="31.16" y="337.06" class="st4" v:langID="1031"><v:paragraph v:horizAlign="1"/><v:tabList/>Data Link / Physical</text>		</g>
		<g id="shape4-8" v:mID="4" v:groupContext="shape" transform="translate(19.6252,-90.8274)">
			<title>Tabelle.4</title>
			<desc>Network Layer</desc>
			<v:textBlock v:margins="rect(4,4,4,4)" v:tabSpace="42.5197"/>
			<v:textRect cx="106.299" cy="332.261" width="212.6" height="28.3465"/>
			<rect x="0" y="318.088" width="212.598" height="28.3465" class="st3"/>
			<text x="51.17" y="337.06" class="st4" v:langID="1031"><v:paragraph v:horizAlign="1"/><v:tabList/>Network Layer</text>		</g>
		<g id="shape5-11" v:mID="5" v:groupContext="shape" transform="translate(19.6252,-136.182)">
			<title>Tabelle.5</title>
			<desc>TCP</desc>
			<v:textBlock v:margins="rect(4,4,4,4)" v:tabSpace="42.5197"/>
			<v:textRect cx="49.6063" cy="332.261" width="99.22" height="28.3465"/>
			<rect x="0" y="318.088" width="99.2126" height="28.3465" class="st3"/>
			<text x="33.6" y="337.06" class="st4" v:langID="1031"><v:paragraph v:horizAlign="1"/><v:tabList/>TCP</text>		</g>
		<g id="shape6-14" v:mID="6" v:groupContext="shape" transform="translate(133.011,-136.182)">
			<title>Tabelle.6</title>
			<desc>UDP</desc>
			<v:textBlock v:margins="rect(4,4,4,4)" v:tabSpace="42.5197"/>
			<v:textRect cx="49.6063" cy="332.261" width="99.22" height="28.3465"/>
			<rect x="0" y="318.088" width="99.2126" height="28.3465" class="st3"/>
			<text x="32.71" y="337.06" class="st4" v:langID="1031"><v:paragraph v:horizAlign="1"/><v:tabList/>UDP</text>		</g>
		<g id="shape7-17" v:mID="7" v:groupContext="shape" transform="translate(19.6252,-182.953)">
			<title>Tabelle.7</title>
			<desc>Layer 5: HTTP, IIOP, JMS, MOM, RPC, ORB</desc>
			<v:textBlock v:margins="rect(4,4,4,4)" v:tabSpace="42.5197"/>
			<v:textRect cx="106.299" cy="324.466" width="212.6" height="43.937"/>
			<rect x="0" y="302.498" width="212.598" height="43.937" class="st5"/>
			<text x="79.45" y="322.07" class="st6" v:langID="1031"><v:paragraph v:horizAlign="1"/><v:tabList/>Layer 5: <v:lf/><tspan
						x="8.96" dy="1.3em" class="st7">HTTP</tspan><tspan class="st7">, </tspan><tspan class="st7">IIOP</tspan><tspan
						class="st7">, </tspan><tspan class="st7">JMS</tspan><tspan class="st7">, </tspan><tspan class="st7">MOM</tspan><tspan
						class="st7">, </tspan><tspan class="st7">RPC</tspan><tspan class="st7">, </tspan><tspan class="st7">ORB</tspan></text>		</g>
		<g id="shape8-31" v:mID="8" v:groupContext="shape" transform="translate(-289.959,255.607) rotate(-90) scale(-1,1)">
			<title>60 degree double.8</title>
			<v:userDefs>
				<v:ud v:nameU="visVersion" v:val="VT0(11):26"/>
			</v:userDefs>
			<path d="M0 337.93 L4.91 329.43 L4.91 335.04 L12.1 335.04 L12.1 329.43 L17.01 337.93 L12.1 346.43 L12.1 340.82 L4.91
						 340.82 L4.91 346.43 L0 337.93 Z" class="st8"/>
		</g>
		<g id="shape9-33" v:mID="9" v:groupContext="shape" transform="translate(-219.093,255.607) rotate(-90) scale(-1,1)">
			<title>60 degree double.12</title>
			<v:userDefs>
				<v:ud v:nameU="visVersion" v:val="VT0(11):26"/>
			</v:userDefs>
			<path d="M0 337.93 L4.91 329.43 L4.91 335.04 L12.1 335.04 L12.1 329.43 L17.01 337.93 L12.1 346.43 L12.1 340.82 L4.91
						 340.82 L4.91 346.43 L0 337.93 Z" class="st8"/>
		</g>
		<g id="shape10-35" v:mID="10" v:groupContext="shape" transform="translate(-148.227,255.607) rotate(-90) scale(-1,1)">
			<title>60 degree double.13</title>
			<v:userDefs>
				<v:ud v:nameU="visVersion" v:val="VT0(11):26"/>
			</v:userDefs>
			<path d="M0 337.93 L4.91 329.43 L4.91 335.04 L12.1 335.04 L12.1 329.43 L17.01 337.93 L12.1 346.43 L12.1 340.82 L4.91
						 340.82 L4.91 346.43 L0 337.93 Z" class="st8"/>
		</g>
		<g id="shape11-37" v:mID="11" v:groupContext="shape" transform="translate(-268.699,210.253) rotate(-90) scale(-1,1)">
			<title>60 degree double.14</title>
			<v:userDefs>
				<v:ud v:nameU="visVersion" v:val="VT0(11):26"/>
			</v:userDefs>
			<path d="M0 337.93 L4.91 329.43 L4.91 335.04 L12.1 335.04 L12.1 329.43 L17.01 337.93 L12.1 346.43 L12.1 340.82 L4.91
						 340.82 L4.91 346.43 L0 337.93 Z" class="st8"/>
		</g>
		<g id="shape12-39" v:mID="12" v:groupContext="shape" transform="translate(-155.313,210.253) rotate(-90) scale(-1,1)">
			<title>60 degree double.15</title>
			<v:userDefs>
				<v:ud v:nameU="visVersion" v:val="VT0(11):26"/>
			</v:userDefs>
			<path d="M0 337.93 L4.91 329.43 L4.91 335.04 L12.1 335.04 L12.1 329.43 L17.01 337.93 L12.1 346.43 L12.1 340.82 L4.91
						 340.82 L4.91 346.43 L0 337.93 Z" class="st8"/>
		</g>
		<g id="shape13-41" v:mID="13" v:groupContext="shape" transform="translate(-287.124,94.0325) rotate(-90) scale(-1,1)">
			<title>60 degree double.16</title>
			<v:userDefs>
				<v:ud v:nameU="visVersion" v:val="VT0(11):26"/>
			</v:userDefs>
			<path d="M0 337.93 L4.91 329.43 L4.91 335.04 L18.9 335.04 L18.9 329.43 L23.81 337.93 L18.9 346.43 L18.9 340.82 L4.91
						 340.82 L4.91 346.43 L0 337.93 Z" class="st8"/>
		</g>
		<g id="shape14-43" v:mID="14" v:groupContext="shape" transform="translate(-210.589,94.0325) rotate(-90) scale(-1,1)">
			<title>60 degree double.17</title>
			<v:userDefs>
				<v:ud v:nameU="visVersion" v:val="VT0(11):26"/>
			</v:userDefs>
			<path d="M0 337.93 L4.91 329.43 L4.91 335.04 L18.9 335.04 L18.9 329.43 L23.81 337.93 L18.9 346.43 L18.9 340.82 L4.91
						 340.82 L4.91 346.43 L0 337.93 Z" class="st8"/>
		</g>
		<g id="shape15-45" v:mID="15" v:groupContext="shape" transform="translate(-270.117,164.899) rotate(-90) scale(-1,1)">
			<title>60 degree double.19</title>
			<v:userDefs>
				<v:ud v:nameU="visVersion" v:val="VT0(11):26"/>
			</v:userDefs>
			<path d="M0 337.93 L4.91 329.43 L4.91 335.04 L12.1 335.04 L12.1 329.43 L17.01 337.93 L12.1 346.43 L12.1 340.82 L4.91
						 340.82 L4.91 346.43 L0 337.93 Z" class="st8"/>
		</g>
		<g id="shape16-47" v:mID="16" v:groupContext="shape" transform="translate(70.041,164.19) rotate(-90) scale(-1,1)">
			<title>60 degree double.20</title>
			<v:userDefs>
				<v:ud v:nameU="visVersion" v:val="VT0(11):26"/>
			</v:userDefs>
			<path d="M0 337.93 L4.91 329.43 L4.91 335.04 L12.1 335.04 L12.1 329.43 L17.01 337.93 L12.1 346.43 L12.1 340.82 L4.91
						 340.82 L4.91 346.43 L0 337.93 Z" class="st8"/>
		</g>
		<g id="shape17-49" v:mID="17" v:groupContext="shape" transform="translate(246.397,-46.1817)">
			<title>Tabelle.17</title>
			<desc>Data Link / Physical</desc>
			<v:textBlock v:margins="rect(4,4,4,4)" v:tabSpace="42.5197"/>
			<v:textRect cx="106.299" cy="332.261" width="212.6" height="28.3465"/>
			<rect x="0" y="318.088" width="212.598" height="28.3465" class="st3"/>
			<text x="31.16" y="337.06" class="st4" v:langID="1031"><v:paragraph v:horizAlign="1"/><v:tabList/>Data Link / Physical</text>		</g>
		<g id="shape18-52" v:mID="18" v:groupContext="shape" transform="translate(246.397,-91.536)">
			<title>Tabelle.18</title>
			<desc>Network Layer</desc>
			<v:textBlock v:margins="rect(4,4,4,4)" v:tabSpace="42.5197"/>
			<v:textRect cx="106.299" cy="332.261" width="212.6" height="28.3465"/>
			<rect x="0" y="318.088" width="212.598" height="28.3465" class="st3"/>
			<text x="51.17" y="337.06" class="st4" v:langID="1031"><v:paragraph v:horizAlign="1"/><v:tabList/>Network Layer</text>		</g>
		<g id="shape19-55" v:mID="19" v:groupContext="shape" transform="translate(246.397,-136.89)">
			<title>Tabelle.19</title>
			<desc>TCP</desc>
			<v:textBlock v:margins="rect(4,4,4,4)" v:tabSpace="42.5197"/>
			<v:textRect cx="49.6063" cy="332.261" width="99.22" height="28.3465"/>
			<rect x="0" y="318.088" width="99.2126" height="28.3465" class="st3"/>
			<text x="33.6" y="337.06" class="st4" v:langID="1031"><v:paragraph v:horizAlign="1"/><v:tabList/>TCP</text>		</g>
		<g id="shape20-58" v:mID="20" v:groupContext="shape" transform="translate(359.783,-136.89)">
			<title>Tabelle.20</title>
			<desc>UDP</desc>
			<v:textBlock v:margins="rect(4,4,4,4)" v:tabSpace="42.5197"/>
			<v:textRect cx="49.6063" cy="332.261" width="99.22" height="28.3465"/>
			<rect x="0" y="318.088" width="99.2126" height="28.3465" class="st3"/>
			<text x="32.71" y="337.06" class="st4" v:langID="1031"><v:paragraph v:horizAlign="1"/><v:tabList/>UDP</text>		</g>
		<g id="shape21-61" v:mID="21" v:groupContext="shape" transform="translate(-63.1874,254.899) rotate(-90) scale(-1,1)">
			<title>60 degree double</title>
			<v:userDefs>
				<v:ud v:nameU="visVersion" v:val="VT0(11):26"/>
			</v:userDefs>
			<path d="M0 337.93 L4.91 329.43 L4.91 335.04 L12.1 335.04 L12.1 329.43 L17.01 337.93 L12.1 346.43 L12.1 340.82 L4.91
						 340.82 L4.91 346.43 L0 337.93 Z" class="st8"/>
		</g>
		<g id="shape22-63" v:mID="22" v:groupContext="shape" transform="translate(7.67875,254.899) rotate(-90) scale(-1,1)">
			<title>60 degree double.22</title>
			<v:userDefs>
				<v:ud v:nameU="visVersion" v:val="VT0(11):26"/>
			</v:userDefs>
			<path d="M0 337.93 L4.91 329.43 L4.91 335.04 L12.1 335.04 L12.1 329.43 L17.01 337.93 L12.1 346.43 L12.1 340.82 L4.91
						 340.82 L4.91 346.43 L0 337.93 Z" class="st8"/>
		</g>
		<g id="shape23-65" v:mID="23" v:groupContext="shape" transform="translate(78.5449,254.899) rotate(-90) scale(-1,1)">
			<title>60 degree double.23</title>
			<v:userDefs>
				<v:ud v:nameU="visVersion" v:val="VT0(11):26"/>
			</v:userDefs>
			<path d="M0 337.93 L4.91 329.43 L4.91 335.04 L12.1 335.04 L12.1 329.43 L17.01 337.93 L12.1 346.43 L12.1 340.82 L4.91
						 340.82 L4.91 346.43 L0 337.93 Z" class="st8"/>
		</g>
		<g id="shape24-67" v:mID="24" v:groupContext="shape" transform="translate(-41.9275,209.544) rotate(-90) scale(-1,1)">
			<title>60 degree double.37</title>
			<v:userDefs>
				<v:ud v:nameU="visVersion" v:val="VT0(11):26"/>
			</v:userDefs>
			<path d="M0 337.93 L4.91 329.43 L4.91 335.04 L12.1 335.04 L12.1 329.43 L17.01 337.93 L12.1 346.43 L12.1 340.82 L4.91
						 340.82 L4.91 346.43 L0 337.93 Z" class="st8"/>
		</g>
		<g id="shape25-69" v:mID="25" v:groupContext="shape" transform="translate(71.4583,209.544) rotate(-90) scale(-1,1)">
			<title>60 degree double.38</title>
			<v:userDefs>
				<v:ud v:nameU="visVersion" v:val="VT0(11):26"/>
			</v:userDefs>
			<path d="M0 337.93 L4.91 329.43 L4.91 335.04 L12.1 335.04 L12.1 329.43 L17.01 337.93 L12.1 346.43 L12.1 340.82 L4.91
						 340.82 L4.91 346.43 L0 337.93 Z" class="st8"/>
		</g>
		<g id="shape26-71" v:mID="26" v:groupContext="shape" transform="translate(-139.723,94.0325) rotate(-90) scale(-1,1)">
			<title>60 degree double.39</title>
			<v:userDefs>
				<v:ud v:nameU="visVersion" v:val="VT0(11):26"/>
			</v:userDefs>
			<path d="M0 337.93 L4.91 329.43 L4.91 335.04 L18.9 335.04 L18.9 329.43 L23.81 337.93 L18.9 346.43 L18.9 340.82 L4.91
						 340.82 L4.91 346.43 L0 337.93 Z" class="st8"/>
		</g>
		<g id="shape27-73" v:mID="27" v:groupContext="shape" transform="translate(-54.6834,94.0325) rotate(-90) scale(-1,1)">
			<title>60 degree double.40</title>
			<v:userDefs>
				<v:ud v:nameU="visVersion" v:val="VT0(11):26"/>
			</v:userDefs>
			<path d="M0 337.93 L4.91 329.43 L4.91 335.04 L18.9 335.04 L18.9 329.43 L23.81 337.93 L18.9 346.43 L18.9 340.82 L4.91
						 340.82 L4.91 346.43 L0 337.93 Z" class="st8"/>
		</g>
		<g id="shape28-75" v:mID="28" v:groupContext="shape" transform="translate(-156.731,164.899) rotate(-90) scale(-1,1)">
			<title>60 degree double.41</title>
			<v:userDefs>
				<v:ud v:nameU="visVersion" v:val="VT0(11):26"/>
			</v:userDefs>
			<path d="M0 337.93 L4.91 329.43 L4.91 335.04 L12.1 335.04 L12.1 329.43 L17.01 337.93 L12.1 346.43 L12.1 340.82 L4.91
						 340.82 L4.91 346.43 L0 337.93 Z" class="st8"/>
		</g>
		<g id="shape29-77" v:mID="29" v:groupContext="shape" transform="translate(-40.5102,164.19) rotate(-90) scale(-1,1)">
			<title>60 degree double.42</title>
			<v:userDefs>
				<v:ud v:nameU="visVersion" v:val="VT0(11):26"/>
			</v:userDefs>
			<path d="M0 337.93 L4.91 329.43 L4.91 335.04 L12.1 335.04 L12.1 329.43 L17.01 337.93 L12.1 346.43 L12.1 340.82 L4.91
						 340.82 L4.91 346.43 L0 337.93 Z" class="st8"/>
		</g>
		<g id="shape30-79" v:mID="30" v:groupContext="shape" transform="translate(131.594,-252.703)">
			<title>Tabelle.30</title>
			<desc>ESB Enterprise Service Bus</desc>
			<v:textBlock v:margins="rect(4,4,4,4)" v:tabSpace="42.5197"/>
			<v:textRect cx="113.386" cy="329.427" width="226.78" height="34.0157"/>
			<rect x="0" y="312.419" width="226.772" height="34.0157" class="st9"/>
			<text x="25.84" y="333.63" class="st10" v:langID="1031"><v:paragraph v:horizAlign="1"/><v:tabList/>ESB <tspan
						class="st11">Enterprise Service Bus</tspan></text>		</g>
		<g id="shape31-83" v:mID="31" v:groupContext="shape" transform="translate(118.838,-17.8352)">
			<title>Tabelle.31</title>
			<path d="M0 335.36 L0 335.72 L0 346.43 L240.94 346.43 L240.94 335.01" class="st12"/>
		</g>
		<g id="shape32-92" v:mID="32" v:groupContext="shape" transform="translate(244.98,-182.953)">
			<title>Tabelle.32</title>
			<desc>Layer 5: HTTP, IIOP, JMS, MOM, RPC, ORB</desc>
			<v:textBlock v:margins="rect(4,4,4,4)" v:tabSpace="42.5197"/>
			<v:textRect cx="106.299" cy="324.466" width="212.6" height="43.937"/>
			<rect x="0" y="302.498" width="212.598" height="43.937" class="st5"/>
			<text x="79.45" y="322.07" class="st6" v:langID="1031"><v:paragraph v:horizAlign="1"/><v:tabList/>Layer 5:<tspan
						class="st14"> <v:lf/></tspan><tspan x="8.96" dy="1.3em" class="st7">HTTP</tspan><tspan class="st7">, </tspan><tspan
						class="st7">IIOP</tspan><tspan class="st7">, </tspan><tspan class="st7">JMS</tspan><tspan class="st7">, </tspan><tspan
						class="st7">MOM</tspan><tspan class="st7">, </tspan><tspan class="st7">RPC</tspan><tspan class="st7">, </tspan><tspan
						class="st7">ORB</tspan></text>		</g>
		<g id="shape33-107" v:mID="33" v:groupContext="shape" transform="translate(16.1827,94.0325) rotate(-90) scale(-1,1)">
			<title>60 degree double.18</title>
			<v:userDefs>
				<v:ud v:nameU="visVersion" v:val="VT0(11):26"/>
			</v:userDefs>
			<path d="M0 337.93 L4.91 329.43 L4.91 335.04 L18.9 335.04 L18.9 329.43 L23.81 337.93 L18.9 346.43 L18.9 340.82 L4.91
						 340.82 L4.91 346.43 L0 337.93 Z" class="st8"/>
		</g>
		<g id="shape34-109" v:mID="34" v:groupContext="shape" transform="translate(75.7103,94.0325) rotate(-90) scale(-1,1)">
			<title>60 degree double.43</title>
			<v:userDefs>
				<v:ud v:nameU="visVersion" v:val="VT0(11):26"/>
			</v:userDefs>
			<path d="M0 337.93 L4.91 329.43 L4.91 335.04 L18.9 335.04 L18.9 329.43 L23.81 337.93 L18.9 346.43 L18.9 340.82 L4.91
						 340.82 L4.91 346.43 L0 337.93 Z" class="st8"/>
		</g>
		<g id="shape35-111" v:mID="35" v:groupContext="shape" transform="translate(-210.589,42.7082) rotate(-90) scale(-1,1)">
			<title>60 degree double.1</title>
			<v:userDefs>
				<v:ud v:nameU="visVersion" v:val="VT0(11):26"/>
			</v:userDefs>
			<path d="M0 337.93 L4.91 329.43 L4.91 335.04 L18.9 335.04 L18.9 329.43 L23.81 337.93 L18.9 346.43 L18.9 340.82 L4.91
						 340.82 L4.91 346.43 L0 337.93 Z" class="st8"/>
		</g>
		<g id="shape36-113" v:mID="36" v:groupContext="shape" transform="translate(16.1827,42.7082) rotate(-90) scale(-1,1)">
			<title>60 degree double.2</title>
			<v:userDefs>
				<v:ud v:nameU="visVersion" v:val="VT0(11):26"/>
			</v:userDefs>
			<path d="M0 337.93 L4.91 329.43 L4.91 335.04 L18.9 335.04 L18.9 329.43 L23.81 337.93 L18.9 346.43 L18.9 340.82 L4.91
						 340.82 L4.91 346.43 L0 337.93 Z" class="st8"/>
		</g>
		<g id="group37-115" transform="translate(19.6252,-307.093)" v:mID="37" v:groupContext="group">
			<title>Tabelle.37</title>
			<g id="shape38-116" v:mID="38" v:groupContext="shape">
				<title>Tabelle.38</title>
				<rect x="0" y="308.521" width="212.598" height="37.9134" class="st3"/>
			</g>
			<g id="shape39-118" v:mID="39" v:groupContext="shape" transform="translate(2.83465,-6.73228)">
				<title>Tabelle.39</title>
				<desc>Consumer</desc>
				<v:textBlock v:margins="rect(4,4,4,4)" v:tabSpace="42.5197"/>
				<v:textRect cx="106.299" cy="335.096" width="212.6" height="22.6772"/>
				<rect x="0" y="323.757" width="212.598" height="22.6772" class="st9"/>
				<text x="66.74" y="339.9" class="st15" v:langID="1031"><v:paragraph v:horizAlign="1"/><v:tabList/>Consumer</text>			</g>
		</g>
		<g id="group40-121" transform="translate(246.397,-307.093)" v:mID="40" v:groupContext="group">
			<title>Tabelle.40</title>
			<g id="shape41-122" v:mID="41" v:groupContext="shape">
				<title>Tabelle.41</title>
				<rect x="0" y="307.813" width="212.598" height="38.622" class="st16"/>
			</g>
			<g id="shape42-124" v:mID="42" v:groupContext="shape" transform="translate(2.83465,-7.44094)">
				<title>Tabelle.42</title>
				<desc>Provider</desc>
				<v:textBlock v:margins="rect(4,4,4,4)" v:tabSpace="42.5197"/>
				<v:textRect cx="106.299" cy="335.096" width="212.6" height="22.6772"/>
				<rect x="0" y="323.757" width="212.598" height="22.6772" class="st9"/>
				<text x="73.84" y="339.9" class="st15" v:langID="1031"><v:paragraph v:horizAlign="1"/><v:tabList/>Provider</text>			</g>
		</g>
	</g>
</svg>
