<?xml version="1.0" encoding="UTF-8" standalone="no"?>
<!DOCTYPE svg PUBLIC "-//W3C//DTD SVG 1.0//EN" "http://www.w3.org/TR/2001/REC-SVG-20010904/DTD/svg10.dtd">
<!-- Generiert durch Microsoft Visio 11.0, SVG Export, v1.0 esblayer.svg Page-1 -->
<svg xmlns="http://www.w3.org/2000/svg" xmlns:v="http://schemas.microsoft.com/visio/2003/SVGExtensions/" width="7.39554in"
		height="4.84125in" viewBox="0 0 532.479 348.57" xml:space="preserve" color-interpolation-filters="sRGB" class="st19">
	<v:documentProperties v:langID="1031" v:metric="true" v:viewMarkup="false"/>

	<style type="text/css">
	<![CDATA[
		.st1 {fill:#ffff00;stroke:#000000;stroke-dasharray:8.4,6;stroke-linecap:round;stroke-linejoin:round;stroke-width:1.2}
		.st2 {fill:#00ffff;stroke:#000000;stroke-linecap:round;stroke-linejoin:round;stroke-width:0.72}
		.st3 {fill:#000000;font-family:Arial;font-size:1.33333em;font-weight:bold}
		.st4 {fill:#000000;font-family:Arial;font-size:1.16666em;font-weight:bold}
		.st5 {font-size:0.857157em;font-weight:normal}
		.st6 {fill:#dddddd;stroke:#000000;stroke-linecap:round;stroke-linejoin:round;stroke-width:0.72}
		.st7 {fill:#000000;font-family:Arial;font-size:1.00001em;font-weight:bold}
		.st8 {fill:#e8eef7;stroke:#000000;stroke-linecap:round;stroke-linejoin:round;stroke-width:0.24}
		.st9 {fill:none;stroke:none;stroke-linecap:round;stroke-linejoin:round;stroke-width:0.72}
		.st10 {fill:#808080;font-family:Arial;font-size:1.33333em;font-weight:bold}
		.st11 {fill:#ff0000;font-family:Arial;font-size:1.16666em;font-weight:bold}
		.st12 {font-size:1em;font-weight:normal}
		.st13 {fill:#000000;font-family:Arial;font-size:0.833336em}
		.st14 {font-size:1em}
		.st15 {fill:#000000;font-family:Arial;font-size:0.916672em}
		.st16 {fill:#808080;font-family:Arial;font-size:1.16666em;font-weight:bold}
		.st17 {font-size:0.857157em}
		.st18 {font-size:1.14286em}
		.st19 {fill:none;fill-rule:evenodd;font-size:12;overflow:visible;stroke-linecap:square;stroke-miterlimit:3}
	]]>
	</style>

	<g v:mID="0" v:index="1" v:groupContext="foregroundPage">
		<title>Page-1</title>
		<v:pageProperties v:drawingScale="0.0393701" v:pageScale="0.0393701" v:drawingUnits="24" v:shadowOffsetX="8.50394"
				v:shadowOffsetY="-8.50394"/>
		<g id="shape1-1" v:mID="1" v:groupContext="shape" transform="translate(417.893,-252.535)">
			<title>Tabelle.1</title>
			<path d="M0 348.57 L70.87 348.57 L70.87 291.88 L0 291.88 L0 348.57 Z" class="st1"/>
		</g>
		<g id="shape2-3" v:mID="2" v:groupContext="shape" transform="translate(49.389,-251.472)">
			<title>Tabelle.2</title>
			<path d="M0 348.57 L70.87 348.57 L70.87 290.81 L0 290.81 L0 348.57 Z" class="st1"/>
		</g>
		<g id="shape3-5" v:mID="3" v:groupContext="shape" transform="translate(1.2,-71.9405)">
			<title>Tabelle.3</title>
			<path d="M0 348.57 L530.08 348.57 L530.08 157.7 L0 157.7 L0 348.57 Z" class="st1"/>
		</g>
		<g id="shape4-7" v:mID="4" v:groupContext="shape" transform="translate(49.389,-106.905)">
			<title>Tabelle.4</title>
			<desc>XML, SOAP, …</desc>
			<v:textBlock v:margins="rect(4,4,4,4)" v:tabSpace="42.5197"/>
			<v:textRect cx="106.299" cy="287.625" width="212.6" height="121.89"/>
			<rect x="0" y="226.68" width="212.598" height="121.89" class="st2"/>
			<text x="49.85" y="337.42" class="st3" v:langID="1031"><v:paragraph v:horizAlign="1"/><v:tabList/><v:newlineChar/><v:newlineChar/><v:lf/><v:lf/><v:lf/><v:lf/>XML, SOAP, …</text>		</g>
		<g id="shape5-10" v:mID="5" v:groupContext="shape" transform="translate(49.389,-136.189)">
			<title>Tabelle.5</title>
			<desc>Service Middleware (Transformation, Compression, Mapping, Sec...</desc>
			<v:textBlock v:margins="rect(4,4,4,4)" v:tabSpace="42.5197"/>
			<v:textRect cx="98.5039" cy="321.875" width="197.01" height="53.3896"/>
			<rect x="0" y="295.18" width="197.008" height="53.3896" class="st2"/>
			<text x="33.53" y="311.68" class="st4" v:langID="1031"><v:paragraph v:horizAlign="1"/><v:tabList/>Service Middleware<v:lf/><tspan
						x="15.81" dy="1.25em" class="st5">(</tspan><tspan class="st5">Transformation</tspan><tspan class="st5">, </tspan><tspan
						class="st5">Compression</tspan><tspan class="st5">, </tspan><tspan x="39.14" dy="1.2em" class="st5">Mapping</tspan><tspan
						class="st5">, </tspan><tspan class="st5">Security</tspan><tspan class="st5">, </tspan><tspan class="st5">…</tspan><tspan
						class="st5">)</tspan></text>		</g>
		<g id="shape6-24" v:mID="6" v:groupContext="shape" transform="translate(49.389,-310.051)">
			<title>Tabelle.6</title>
			<rect x="0" y="311.479" width="212.598" height="37.0904" class="st6"/>
		</g>
		<g id="shape7-26" v:mID="7" v:groupContext="shape" transform="translate(49.389,-293.283)">
			<title>Tabelle.7</title>
			<desc>UDDI</desc>
			<v:textBlock v:margins="rect(4,4,4,4)" v:tabSpace="42.5197"/>
			<v:textRect cx="35.4331" cy="337.231" width="70.87" height="22.6772"/>
			<rect x="0" y="325.893" width="70.8661" height="22.6772" class="st2"/>
			<text x="20.76" y="340.83" class="st7" v:langID="1031"><v:paragraph v:horizAlign="1"/><v:tabList/>UDDI</text>		</g>
		<g id="shape8-29" v:mID="8" v:groupContext="shape" transform="translate(-255.244,98.6373) rotate(-90) scale(-1,1)">
			<title>60 degree double.21</title>
			<v:userDefs>
				<v:ud v:nameU="visVersion" v:val="VT0(11):26"/>
			</v:userDefs>
			<path d="M0 340.07 L4.91 331.56 L4.91 337.17 L15.17 337.17 L15.17 331.56 L20.07 340.07 L15.17 348.57 L15.17 342.96 L4.91
						 342.96 L4.91 348.57 L0 340.07 Z" class="st8"/>
		</g>
		<g id="shape9-31" v:mID="9" v:groupContext="shape" transform="translate(-255.244,56.7043) rotate(-90) scale(-1,1)">
			<title>60 degree double.22</title>
			<v:userDefs>
				<v:ud v:nameU="visVersion" v:val="VT0(11):26"/>
			</v:userDefs>
			<path d="M0 340.07 L4.91 331.56 L4.91 337.17 L12.1 337.17 L12.1 331.56 L17.01 340.07 L12.1 348.57 L12.1 342.96 L4.91
						 342.96 L4.91 348.57 L0 340.07 Z" class="st8"/>
		</g>
		<g id="shape10-33" v:mID="10" v:groupContext="shape" transform="translate(-187.212,39.9364) rotate(-90) scale(-1,1)">
			<title>60 degree double.24</title>
			<v:userDefs>
				<v:ud v:nameU="visVersion" v:val="VT0(11):26"/>
			</v:userDefs>
			<path d="M0 340.07 L4.91 331.56 L4.91 337.17 L73.87 337.17 L73.87 331.56 L78.78 340.07 L73.87 348.57 L73.87 342.96 L4.91
						 342.96 L4.91 348.57 L0 340.07 Z" class="st8"/>
		</g>
		<g id="shape11-35" v:mID="11" v:groupContext="shape" transform="translate(49.389,-250.763)">
			<title>Tabelle.11</title>
			<desc>WSDL</desc>
			<v:textBlock v:margins="rect(4,4,4,4)" v:tabSpace="42.5197"/>
			<v:textRect cx="35.4331" cy="337.231" width="70.87" height="22.6772"/>
			<rect x="0" y="325.893" width="70.8661" height="22.6772" class="st2"/>
			<text x="17.76" y="340.83" class="st7" v:langID="1031"><v:paragraph v:horizAlign="1"/><v:tabList/>WSDL</text>		</g>
		<g id="shape12-38" v:mID="12" v:groupContext="shape" transform="translate(52.2236,-315.96)">
			<title>Tabelle.12</title>
			<desc>Consumer</desc>
			<v:textBlock v:margins="rect(4,4,4,4)" v:tabSpace="42.5197"/>
			<v:textRect cx="106.299" cy="337.231" width="212.6" height="22.6772"/>
			<rect x="0" y="325.893" width="212.598" height="22.6772" class="st9"/>
			<text x="66.74" y="342.03" class="st10" v:langID="1031"><v:paragraph v:horizAlign="1"/><v:tabList/>Consumer</text>		</g>
		<g id="shape13-41" v:mID="13" v:groupContext="shape" transform="translate(276.161,-310.051)">
			<title>Tabelle.13</title>
			<rect x="0" y="310.771" width="212.598" height="37.7991" class="st6"/>
		</g>
		<g id="shape14-43" v:mID="14" v:groupContext="shape" transform="translate(417.893,-293.991)">
			<title>Tabelle.14</title>
			<desc>UDDI</desc>
			<v:textBlock v:margins="rect(4,4,4,4)" v:tabSpace="42.5197"/>
			<v:textRect cx="35.4331" cy="337.231" width="70.87" height="22.6772"/>
			<rect x="0" y="325.893" width="70.8661" height="22.6772" class="st2"/>
			<text x="20.76" y="340.83" class="st7" v:langID="1031"><v:paragraph v:horizAlign="1"/><v:tabList/>UDDI</text>		</g>
		<g id="shape15-46" v:mID="15" v:groupContext="shape" transform="translate(113.26,98.0796) rotate(-90) scale(-1,1)">
			<title>60 degree double.46</title>
			<v:userDefs>
				<v:ud v:nameU="visVersion" v:val="VT0(11):26"/>
			</v:userDefs>
			<path d="M0 340.07 L4.91 331.56 L4.91 337.17 L15.17 337.17 L15.17 331.56 L20.07 340.07 L15.17 348.57 L15.17 342.96 L4.91
						 342.96 L4.91 348.57 L0 340.07 Z" class="st8"/>
		</g>
		<g id="shape16-48" v:mID="16" v:groupContext="shape" transform="translate(113.26,55.9956) rotate(-90) scale(-1,1)">
			<title>60 degree double.47</title>
			<v:userDefs>
				<v:ud v:nameU="visVersion" v:val="VT0(11):26"/>
			</v:userDefs>
			<path d="M0 340.07 L4.91 331.56 L4.91 337.17 L12.1 337.17 L12.1 331.56 L17.01 340.07 L12.1 348.57 L12.1 342.96 L4.91
						 342.96 L4.91 348.57 L0 340.07 Z" class="st8"/>
		</g>
		<g id="shape17-50" v:mID="17" v:groupContext="shape" transform="translate(25.3861,66.8655) rotate(-90) scale(-1,1)">
			<title>60 degree double.48</title>
			<v:userDefs>
				<v:ud v:nameU="visVersion" v:val="VT0(11):26"/>
			</v:userDefs>
			<path d="M0 340.07 L4.91 331.56 L4.91 337.17 L46.26 337.17 L46.26 331.56 L51.17 340.07 L46.26 348.57 L46.26 342.96 L4.91
						 342.96 L4.91 348.57 L0 340.07 Z" class="st8"/>
		</g>
		<g id="shape18-52" v:mID="18" v:groupContext="shape" transform="translate(417.893,-251.472)">
			<title>Tabelle.18</title>
			<desc>WSDL</desc>
			<v:textBlock v:margins="rect(4,4,4,4)" v:tabSpace="42.5197"/>
			<v:textRect cx="35.4331" cy="337.231" width="70.87" height="22.6772"/>
			<rect x="0" y="325.893" width="70.8661" height="22.6772" class="st2"/>
			<text x="17.76" y="340.83" class="st7" v:langID="1031"><v:paragraph v:horizAlign="1"/><v:tabList/>WSDL</text>		</g>
		<g id="shape19-55" v:mID="19" v:groupContext="shape" transform="translate(278.995,-316.669)">
			<title>Tabelle.19</title>
			<desc>Provider</desc>
			<v:textBlock v:margins="rect(4,4,4,4)" v:tabSpace="42.5197"/>
			<v:textRect cx="106.299" cy="337.231" width="212.6" height="22.6772"/>
			<rect x="0" y="325.893" width="212.598" height="22.6772" class="st9"/>
			<text x="73.84" y="342.03" class="st10" v:langID="1031"><v:paragraph v:horizAlign="1"/><v:tabList/>Provider</text>		</g>
		<g id="shape20-58" v:mID="20" v:groupContext="shape" transform="translate(147.184,-71.9405)">
			<title>Tabelle.20</title>
			<desc>ESB Enterprise Service Bus</desc>
			<v:textBlock v:margins="rect(4,4,4,4)" v:tabSpace="42.5197"/>
			<v:textRect cx="113.386" cy="331.562" width="226.78" height="34.0157"/>
			<rect x="0" y="314.554" width="226.772" height="34.0157" class="st9"/>
			<text x="25.84" y="335.76" class="st11" v:langID="1031"><v:paragraph v:horizAlign="1"/><v:tabList/>ESB <tspan
						class="st12">Enterprise Service Bus</tspan></text>		</g>
		<g id="shape21-62" v:mID="21" v:groupContext="shape" transform="translate(168.444,-189.578)">
			<title>Tabelle.21</title>
			<desc>SAML</desc>
			<v:textBlock v:margins="rect(4,4,4,4)" v:tabSpace="42.5197"/>
			<v:textRect cx="19.8425" cy="332.271" width="39.69" height="32.5984"/>
			<rect x="0" y="315.971" width="39.685" height="32.5984" class="st2"/>
			<text x="6.23" y="335.27" class="st13" v:langID="9"><v:paragraph v:horizAlign="1"/><v:tabList/>SAML</text>		</g>
		<g id="shape22-65" v:mID="22" v:groupContext="shape" transform="translate(62.1449,-189.578)">
			<title>Tabelle.22</title>
			<desc>XML Encryption</desc>
			<v:textBlock v:margins="rect(4,4,4,4)" v:tabSpace="42.5197"/>
			<v:textRect cx="27.6378" cy="332.271" width="55.28" height="32.5984"/>
			<rect x="0" y="315.971" width="55.2756" height="32.5984" class="st2"/>
			<text x="17.37" y="329.27" class="st13" v:langID="9"><v:paragraph v:horizAlign="1"/><v:tabList/>XML <tspan x="4.03"
						dy="1.2em" class="st14">Encryption </tspan> </text>		</g>
		<g id="shape23-69" v:mID="23" v:groupContext="shape" transform="translate(117.42,-189.578)">
			<title>Tabelle.23</title>
			<desc>XML Signature</desc>
			<v:textBlock v:margins="rect(4,4,4,4)" v:tabSpace="42.5197"/>
			<v:textRect cx="25.5118" cy="332.271" width="51.03" height="32.5984"/>
			<rect x="0" y="315.971" width="51.0236" height="32.5984" class="st2"/>
			<text x="15.22" y="329.27" class="st13" v:langID="9"><v:paragraph v:horizAlign="1"/><v:tabList/>XML <tspan x="4.1"
						dy="1.2em" class="st14">Signature</tspan></text>		</g>
		<g id="shape24-73" v:mID="24" v:groupContext="shape" transform="translate(13.9559,-189.578)">
			<title>Tabelle.24</title>
			<desc>XKMS</desc>
			<v:textBlock v:margins="rect(4,4,4,4)" v:tabSpace="42.5197"/>
			<v:textRect cx="24.0945" cy="332.271" width="48.19" height="32.5984"/>
			<rect x="0" y="315.971" width="48.189" height="32.5984" class="st2"/>
			<text x="8.51" y="335.57" class="st15" v:langID="1031"><v:paragraph v:horizAlign="1"/><v:tabList/>XKMS</text>		</g>
		<g id="shape25-76" v:mID="25" v:groupContext="shape" transform="translate(276.161,-106.905)">
			<title>Tabelle.25</title>
			<desc>XML, SOAP, ...</desc>
			<v:textBlock v:margins="rect(4,4,4,4)" v:tabSpace="42.5197"/>
			<v:textRect cx="106.299" cy="287.625" width="212.6" height="121.89"/>
			<rect x="0" y="226.68" width="212.598" height="121.89" class="st2"/>
			<text x="51.18" y="337.42" class="st3" v:langID="1031"><v:paragraph v:horizAlign="1"/><v:tabList/><v:newlineChar/><v:lf/><v:lf/><v:lf/><v:lf/><v:lf/>XML, SOAP, ...</text>		</g>
		<g id="shape26-79" v:mID="26" v:groupContext="shape" transform="translate(330.019,-188.87)">
			<title>Tabelle.26</title>
			<desc>SAML</desc>
			<v:textBlock v:margins="rect(4,4,4,4)" v:tabSpace="42.5197"/>
			<v:textRect cx="19.8425" cy="332.271" width="39.69" height="32.5984"/>
			<rect x="0" y="315.971" width="39.685" height="32.5984" class="st2"/>
			<text x="6.23" y="335.27" class="st13" v:langID="9"><v:paragraph v:horizAlign="1"/><v:tabList/>SAML</text>		</g>
		<g id="shape27-82" v:mID="27" v:groupContext="shape" transform="translate(420.019,-188.87)">
			<title>Tabelle.27</title>
			<desc>XML Encryption</desc>
			<v:textBlock v:margins="rect(4,4,4,4)" v:tabSpace="42.5197"/>
			<v:textRect cx="27.6378" cy="332.271" width="55.28" height="32.5984"/>
			<rect x="0" y="315.971" width="55.2756" height="32.5984" class="st2"/>
			<text x="17.37" y="329.27" class="st13" v:langID="9"><v:paragraph v:horizAlign="1"/><v:tabList/>XML <tspan x="4.03"
						dy="1.2em" class="st14">Encryption </tspan> </text>		</g>
		<g id="shape28-86" v:mID="28" v:groupContext="shape" transform="translate(369.704,-188.87)">
			<title>Tabelle.28</title>
			<desc>XML Signature</desc>
			<v:textBlock v:margins="rect(4,4,4,4)" v:tabSpace="42.5197"/>
			<v:textRect cx="25.5118" cy="332.271" width="51.03" height="32.5984"/>
			<rect x="0" y="315.971" width="51.0236" height="32.5984" class="st2"/>
			<text x="15.22" y="329.27" class="st13" v:langID="9"><v:paragraph v:horizAlign="1"/><v:tabList/>XML <tspan x="4.1"
						dy="1.2em" class="st14">Signature</tspan></text>		</g>
		<g id="shape29-90" v:mID="29" v:groupContext="shape" transform="translate(474.586,-188.87)">
			<title>Tabelle.29</title>
			<desc>XKMS</desc>
			<v:textBlock v:margins="rect(4,4,4,4)" v:tabSpace="42.5197"/>
			<v:textRect cx="24.0945" cy="332.271" width="48.19" height="32.5984"/>
			<rect x="0" y="315.971" width="48.189" height="32.5984" class="st2"/>
			<text x="8.51" y="335.57" class="st15" v:langID="1031"><v:paragraph v:horizAlign="1"/><v:tabList/>XKMS</text>		</g>
		<g id="shape30-93" v:mID="30" v:groupContext="shape" transform="translate(327.893,-284.539)">
			<title>Tabelle.30</title>
			<desc>Service Endpoint</desc>
			<v:textBlock v:margins="rect(4,4,4,4)" v:tabSpace="42.5197"/>
			<v:textRect cx="37.5591" cy="331.562" width="75.12" height="34.0157"/>
			<rect x="0" y="314.554" width="75.1181" height="34.0157" class="st2"/>
			<text x="16.2" y="327.96" class="st7" v:langID="1031"><v:paragraph v:horizAlign="1"/><v:tabList/>Service <tspan
						x="11.56" dy="1.2em" class="st14">Endpoint</tspan></text>		</g>
		<g id="shape31-97" v:mID="31" v:groupContext="shape" transform="translate(291.751,-135.006)">
			<title>Tabelle.31</title>
			<desc>Service Middleware (Transformation, Compression, Mapping, Sec...</desc>
			<v:textBlock v:margins="rect(4,4,4,4)" v:tabSpace="42.5197"/>
			<v:textRect cx="98.5039" cy="321.875" width="197.01" height="53.3896"/>
			<rect x="0" y="295.18" width="197.008" height="53.3896" class="st2"/>
			<text x="33.53" y="311.68" class="st4" v:langID="1031"><v:paragraph v:horizAlign="1"/><v:tabList/>Service Middleware<v:lf/><tspan
						x="15.81" dy="1.25em" class="st5">(</tspan><tspan class="st5">Transformation</tspan><tspan class="st5">, </tspan><tspan
						class="st5">Compression</tspan><tspan class="st5">, </tspan><tspan x="39.14" dy="1.2em" class="st5">Mapping</tspan><tspan
						class="st5">, </tspan><tspan class="st5">Security</tspan><tspan class="st5">, </tspan><tspan class="st5">…</tspan><tspan
						class="st5">)</tspan></text>		</g>
		<g id="shape32-111" v:mID="32" v:groupContext="shape" transform="translate(49.389,-0.72)">
			<title>Tabelle.32</title>
			<desc>Layer 5: HTTP, IIOP, JMS, MOM, RPC, ORB</desc>
			<v:textBlock v:margins="rect(4,4,4,4)" v:tabSpace="42.5197"/>
			<v:textRect cx="106.299" cy="326.601" width="212.6" height="43.937"/>
			<rect x="0" y="304.633" width="212.598" height="43.937" class="st6"/>
			<text x="79.45" y="324.2" class="st16" v:langID="1031"><v:paragraph v:horizAlign="1"/><v:tabList/>Layer 5: <v:lf/><tspan
						x="8.96" dy="1.3em" class="st17">HTTP</tspan><tspan class="st17">, </tspan><tspan class="st17">IIOP</tspan><tspan
						class="st17">, </tspan><tspan class="st17">JMS</tspan><tspan class="st17">, </tspan><tspan class="st17">MOM</tspan><tspan
						class="st17">, </tspan><tspan class="st17">RPC</tspan><tspan class="st17">, </tspan><tspan class="st17">ORB</tspan></text>		</g>
		<g id="shape33-125" v:mID="33" v:groupContext="shape" transform="translate(-259.496,267.771) rotate(-90) scale(-1,1)">
			<title>60 degree double.16</title>
			<v:userDefs>
				<v:ud v:nameU="visVersion" v:val="VT0(11):26"/>
			</v:userDefs>
			<path d="M0 340.07 L4.91 331.56 L4.91 337.17 L29.53 337.17 L29.53 331.56 L34.44 340.07 L29.53 348.57 L29.53 342.96 L4.91
						 342.96 L4.91 348.57 L0 340.07 Z" class="st8"/>
		</g>
		<g id="shape34-127" v:mID="34" v:groupContext="shape" transform="translate(-182.96,267.771) rotate(-90) scale(-1,1)">
			<title>60 degree double.17</title>
			<v:userDefs>
				<v:ud v:nameU="visVersion" v:val="VT0(11):26"/>
			</v:userDefs>
			<path d="M0 340.07 L4.91 331.56 L4.91 337.17 L29.53 337.17 L29.53 331.56 L34.44 340.07 L29.53 348.57 L29.53 342.96 L4.91
						 342.96 L4.91 348.57 L0 340.07 Z" class="st8"/>
		</g>
		<g id="shape35-129" v:mID="35" v:groupContext="shape" transform="translate(-112.094,267.771) rotate(-90) scale(-1,1)">
			<title>60 degree double.35</title>
			<v:userDefs>
				<v:ud v:nameU="visVersion" v:val="VT0(11):26"/>
			</v:userDefs>
			<path d="M0 340.07 L4.91 331.56 L4.91 337.17 L29.53 337.17 L29.53 331.56 L34.44 340.07 L29.53 348.57 L29.53 342.96 L4.91
						 342.96 L4.91 348.57 L0 340.07 Z" class="st8"/>
		</g>
		<g id="shape36-131" v:mID="36" v:groupContext="shape" transform="translate(-27.0548,267.771) rotate(-90) scale(-1,1)">
			<title>60 degree double.40</title>
			<v:userDefs>
				<v:ud v:nameU="visVersion" v:val="VT0(11):26"/>
			</v:userDefs>
			<path d="M0 340.07 L4.91 331.56 L4.91 337.17 L29.53 337.17 L29.53 331.56 L34.44 340.07 L29.53 348.57 L29.53 342.96 L4.91
						 342.96 L4.91 348.57 L0 340.07 Z" class="st8"/>
		</g>
		<g id="shape37-133" v:mID="37" v:groupContext="shape" transform="translate(274.743,-0.72)">
			<title>Tabelle.37</title>
			<desc>Layer 5: HTTP, IIOP, JMS, MOM, RPC, ORB</desc>
			<v:textBlock v:margins="rect(4,4,4,4)" v:tabSpace="42.5197"/>
			<v:textRect cx="106.299" cy="326.601" width="212.6" height="43.937"/>
			<rect x="0" y="304.633" width="212.598" height="43.937" class="st6"/>
			<text x="79.45" y="324.2" class="st16" v:langID="1031"><v:paragraph v:horizAlign="1"/><v:tabList/>Layer 5:<tspan
						class="st18"> <v:lf/></tspan><tspan x="8.96" dy="1.3em" class="st17">HTTP</tspan><tspan class="st17">, </tspan><tspan
						class="st17">IIOP</tspan><tspan class="st17">, </tspan><tspan class="st17">JMS</tspan><tspan class="st17">, </tspan><tspan
						class="st17">MOM</tspan><tspan class="st17">, </tspan><tspan class="st17">RPC</tspan><tspan class="st17">, </tspan><tspan
						class="st17">ORB</tspan></text>		</g>
		<g id="shape38-148" v:mID="38" v:groupContext="shape" transform="translate(43.8113,267.771) rotate(-90) scale(-1,1)">
			<title>60 degree double.18</title>
			<v:userDefs>
				<v:ud v:nameU="visVersion" v:val="VT0(11):26"/>
			</v:userDefs>
			<path d="M0 340.07 L4.91 331.56 L4.91 337.17 L29.53 337.17 L29.53 331.56 L34.44 340.07 L29.53 348.57 L29.53 342.96 L4.91
						 342.96 L4.91 348.57 L0 340.07 Z" class="st8"/>
		</g>
		<g id="shape39-150" v:mID="39" v:groupContext="shape" transform="translate(103.339,267.771) rotate(-90) scale(-1,1)">
			<title>60 degree double.43</title>
			<v:userDefs>
				<v:ud v:nameU="visVersion" v:val="VT0(11):26"/>
			</v:userDefs>
			<path d="M0 340.07 L4.91 331.56 L4.91 337.17 L29.53 337.17 L29.53 331.56 L34.44 340.07 L29.53 348.57 L29.53 342.96 L4.91
						 342.96 L4.91 348.57 L0 340.07 Z" class="st8"/>
		</g>
	</g>
</svg>
