<?xml version="1.0" encoding="UTF-8" standalone="no"?>
<!-- Created with Inkscape (http://www.inkscape.org/) -->

<svg
   xmlns:dc="http://purl.org/dc/elements/1.1/"
   xmlns:cc="http://creativecommons.org/ns#"
   xmlns:rdf="http://www.w3.org/1999/02/22-rdf-syntax-ns#"
   xmlns:svg="http://www.w3.org/2000/svg"
   xmlns="http://www.w3.org/2000/svg"
   xmlns:sodipodi="http://sodipodi.sourceforge.net/DTD/sodipodi-0.dtd"
   xmlns:inkscape="http://www.inkscape.org/namespaces/inkscape"
   id="svg2985"
   version="1.1"
   inkscape:version="0.48.4 r9939"
   width="859"
   height="639"
   sodipodi:docname="FMN_Logo_Color.svg">
  <metadata
     id="metadata2991">
    <rdf:RDF>
      <cc:Work
         rdf:about="">
        <dc:format>image/svg+xml</dc:format>
        <dc:type
           rdf:resource="http://purl.org/dc/dcmitype/StillImage" />
        <dc:title />
      </cc:Work>
    </rdf:RDF>
  </metadata>
  <defs
     id="defs2989" />
  <sodipodi:namedview
     pagecolor="#ffffff"
     bordercolor="#666666"
     borderopacity="1"
     objecttolerance="10"
     gridtolerance="10"
     guidetolerance="10"
     inkscape:pageopacity="0"
     inkscape:pageshadow="2"
     inkscape:window-width="1280"
     inkscape:window-height="962"
     id="namedview2987"
     showgrid="false"
     inkscape:zoom="0.94236332"
     inkscape:cx="442.36577"
     inkscape:cy="279.31465"
     inkscape:window-x="-8"
     inkscape:window-y="-8"
     inkscape:window-maximized="1"
     inkscape:current-layer="svg2985">
    <inkscape:grid
       type="xygrid"
       id="grid3880" />
  </sodipodi:namedview>
  <g
     id="g3327">
    <path
       transform="matrix(0.90374817,0,0,0.91665888,-160.58909,204.53348)"
       d="m 336.2255,66.044296 a 60.897987,60.040268 0 1 1 -121.79597,0 60.897987,60.040268 0 1 1 121.79597,0 z"
       sodipodi:ry="60.040268"
       sodipodi:rx="60.897987"
       sodipodi:cy="66.044296"
       sodipodi:cx="275.32751"
       id="path2995"
       style="fill:#ffffff;stroke:#0c227d;stroke-width:17.49872398000000100;stroke-linecap:round;stroke-linejoin:round;stroke-miterlimit:1.60000002000000000;stroke-opacity:1;stroke-dasharray:none;fill-opacity:1"
       sodipodi:type="arc" />
    <path
       transform="matrix(0.90374817,0,0,0.91665888,333.08083,13.638067)"
       d="m 336.2255,66.044296 a 60.897987,60.040268 0 1 1 -121.79597,0 60.897987,60.040268 0 1 1 121.79597,0 z"
       sodipodi:ry="60.040268"
       sodipodi:rx="60.897987"
       sodipodi:cy="66.044296"
       sodipodi:cx="275.32751"
       id="path2995-1"
       style="fill:#ffffff;stroke:#0c227d;stroke-width:17.49872398000000100;stroke-linecap:round;stroke-linejoin:round;stroke-miterlimit:1.60000002000000000;stroke-opacity:1;stroke-dasharray:none;fill-opacity:1"
       sodipodi:type="arc" />
    <path
       transform="matrix(0.90374817,0,0,0.91665888,-160.96481,506.82598)"
       d="m 336.2255,66.044296 a 60.897987,60.040268 0 1 1 -121.79597,0 60.897987,60.040268 0 1 1 121.79597,0 z"
       sodipodi:ry="60.040268"
       sodipodi:rx="60.897987"
       sodipodi:cy="66.044296"
       sodipodi:cx="275.32751"
       id="path2995-7"
       style="fill:#627cd2;fill-opacity:1;stroke:#0c227d;stroke-width:17.49884605;stroke-linecap:round;stroke-linejoin:round;stroke-miterlimit:1.60000002;stroke-opacity:1;stroke-dasharray:none"
       sodipodi:type="arc" />
    <path
       transform="matrix(1.5760574,0,0,1.5985726,-3.564709,120.99956)"
       d="m 336.2255,66.044296 a 60.897987,60.040268 0 1 1 -121.79597,0 60.897987,60.040268 0 1 1 121.79597,0 z"
       sodipodi:ry="60.040268"
       sodipodi:rx="60.897987"
       sodipodi:cy="66.044296"
       sodipodi:cx="275.32751"
       id="path2995-4"
       style="fill:#627cd2;fill-opacity:1;stroke:#0c227d;stroke-width:10.10697365;stroke-linecap:round;stroke-linejoin:round;stroke-miterlimit:1.60000002;stroke-opacity:1;stroke-dasharray:none"
       sodipodi:type="arc" />
    <path
       transform="matrix(1.5760574,0,0,1.5985726,187.43062,310.83108)"
       d="m 336.2255,66.044296 a 60.897987,60.040268 0 1 1 -121.79597,0 60.897987,60.040268 0 1 1 121.79597,0 z"
       sodipodi:ry="60.040268"
       sodipodi:rx="60.897987"
       sodipodi:cy="66.044296"
       sodipodi:cx="275.32751"
       id="path2995-4-0"
       style="fill:#ffffff;stroke:#0c227d;stroke-width:10.10697365000000000;stroke-linecap:round;stroke-linejoin:round;stroke-miterlimit:1.60000002000000000;stroke-opacity:1;stroke-dasharray:none;fill-opacity:1"
       sodipodi:type="arc" />
    <path
       transform="matrix(1.0311616,0,0,1.1224149,195.65896,-29.524799)"
       d="m 133.80402,93.062416 a 52.749664,48.461075 0 1 1 -105.499325,0 52.749664,48.461075 0 1 1 105.499325,0 z"
       sodipodi:ry="48.461075"
       sodipodi:rx="52.749664"
       sodipodi:cy="93.062416"
       sodipodi:cx="81.054359"
       id="path3815"
       style="fill:#0c227d;fill-opacity:1;fill-rule:nonzero;stroke:#0c227d;stroke-width:16;stroke-linecap:round;stroke-linejoin:round;stroke-miterlimit:1.60000002;stroke-opacity:1;stroke-dasharray:none"
       sodipodi:type="arc" />
    <path
       transform="matrix(1.0311616,0,0,1.1224149,688.74084,463.76915)"
       d="m 133.80402,93.062416 a 52.749664,48.461075 0 1 1 -105.499325,0 52.749664,48.461075 0 1 1 105.499325,0 z"
       sodipodi:ry="48.461075"
       sodipodi:rx="52.749664"
       sodipodi:cy="93.062416"
       sodipodi:cx="81.054359"
       id="path3815-9"
       style="fill:#0c227d;fill-opacity:1;fill-rule:nonzero;stroke:#0c227d;stroke-width:16;stroke-linecap:round;stroke-linejoin:round;stroke-miterlimit:1.60000002;stroke-opacity:1;stroke-dasharray:none"
       sodipodi:type="arc" />
    <path
       inkscape:connector-curvature="0"
       id="path3835"
       d="m 321.78683,115.97421 39.06158,39.91931"
       style="fill:#ff0000;stroke:#0c227d;stroke-width:16;stroke-linecap:butt;stroke-linejoin:miter;stroke-miterlimit:4;stroke-opacity:1;stroke-dasharray:none" />
    <path
       sodipodi:nodetypes="cc"
       inkscape:connector-curvature="0"
       id="path3835-4"
       d="m 503.21582,298.68978 47.17899,47.00113"
       style="fill:#ff0000;stroke:#0c227d;stroke-width:16;stroke-linecap:butt;stroke-linejoin:miter;stroke-miterlimit:4;stroke-opacity:1;stroke-dasharray:none" />
    <path
       inkscape:connector-curvature="0"
       id="path3835-82"
       d="m 128.9884,305.28919 38.70956,37.85185"
       style="fill:#ff0000;stroke:#0c227d;stroke-width:16;stroke-linecap:butt;stroke-linejoin:miter;stroke-miterlimit:4;stroke-opacity:1;stroke-dasharray:none" />
    <path
       transform="matrix(1.8102897,0,0,1.9704923,92.676437,232.88191)"
       d="m 133.80402,93.062416 a 52.749664,48.461075 0 1 1 -105.499325,0 52.749664,48.461075 0 1 1 105.499325,0 z"
       sodipodi:ry="48.461075"
       sodipodi:rx="52.749664"
       sodipodi:cy="93.062416"
       sodipodi:cx="81.054359"
       id="path3815-4"
       style="fill:#0c227d;fill-opacity:1;fill-rule:nonzero;stroke:#0c227d;stroke-width:9.00921822;stroke-linecap:round;stroke-linejoin:round;stroke-miterlimit:1.60000002;stroke-opacity:1;stroke-dasharray:none"
       sodipodi:type="arc" />
    <path
       sodipodi:nodetypes="ccc"
       inkscape:connector-curvature="0"
       id="path3835-5"
       d="m 540.34371,116.81179 -19.0896,19.50878 -19.97198,20.41053"
       style="fill:#ff0000;stroke:#0c227d;stroke-width:16;stroke-linecap:butt;stroke-linejoin:miter;stroke-miterlimit:4;stroke-opacity:1;stroke-dasharray:none" />
    <path
       inkscape:connector-curvature="0"
       id="path3835-5-1"
       d="m 358.44414,298.7825 -45.41278,44.55507"
       style="fill:#ff0000;stroke:#0c227d;stroke-width:16;stroke-linecap:butt;stroke-linejoin:miter;stroke-miterlimit:4;stroke-opacity:1;stroke-dasharray:none" />
    <path
       inkscape:connector-curvature="0"
       id="path4061"
       d="m 341.11212,415.69091 179.71571,0"
       style="fill:none;stroke:#0c227d;stroke-width:16;stroke-linecap:butt;stroke-linejoin:miter;stroke-miterlimit:4;stroke-opacity:1;stroke-dasharray:none" />
    <path
       transform="matrix(0.90374817,0,0,0.91665888,524.01908,204.64746)"
       d="m 336.2255,66.044296 a 60.897987,60.040268 0 1 1 -121.79597,0 60.897987,60.040268 0 1 1 121.79597,0 z"
       sodipodi:ry="60.040268"
       sodipodi:rx="60.897987"
       sodipodi:cy="66.044296"
       sodipodi:cx="275.32751"
       id="path2995-1-6"
       style="fill:#627cd2;fill-opacity:1;stroke:#0c227d;stroke-width:17.49872398;stroke-linecap:round;stroke-linejoin:round;stroke-miterlimit:1.60000002;stroke-opacity:1;stroke-dasharray:none"
       sodipodi:type="arc" />
    <path
       sodipodi:nodetypes="cc"
       inkscape:connector-curvature="0"
       id="path3835-82-1"
       d="m 738.67937,299.12178 -46.38834,47.86686"
       style="fill:#ff0000;stroke:#0c227d;stroke-width:16;stroke-linecap:butt;stroke-linejoin:miter;stroke-miterlimit:4;stroke-opacity:1;stroke-dasharray:none" />
    <path
       inkscape:connector-curvature="0"
       id="path3835-7"
       d="m 694.29958,489.02119 39.06158,39.91931"
       style="fill:#ff0000;stroke:#0c227d;stroke-width:16;stroke-linecap:butt;stroke-linejoin:miter;stroke-miterlimit:4;stroke-opacity:1;stroke-dasharray:none" />
    <path
       sodipodi:nodetypes="ccc"
       inkscape:connector-curvature="0"
       id="path3835-5-18"
       d="m 169.69807,485.50978 -19.0896,19.50878 -19.97198,20.41053"
       style="fill:#ff0000;stroke:#0c227d;stroke-width:16;stroke-linecap:butt;stroke-linejoin:miter;stroke-miterlimit:4;stroke-opacity:1;stroke-dasharray:none" />
  </g>
</svg>
