<?xml version="1.0" encoding="UTF-8" standalone="no"?>
<!DOCTYPE svg PUBLIC "-//W3C//DTD SVG 1.0//EN" "http://www.w3.org/TR/2001/REC-SVG-20010904/DTD/svg10.dtd">
<!-- Generiert durch Microsoft Visio 11.0, SVG Export, v1.0 general-p-c-structure.svg Page-1 -->
<svg xmlns="http://www.w3.org/2000/svg" xmlns:v="http://schemas.microsoft.com/visio/2003/SVGExtensions/" width="7.81962in"
		height="4.48598in" viewBox="0 0 563.013 322.991" xml:space="preserve" color-interpolation-filters="sRGB" class="st20">
	<v:documentProperties v:langID="1031" v:metric="true" v:viewMarkup="false"/>

	<style type="text/css">
	<![CDATA[
		.st1 {fill:#800000;fill-opacity:0.2;stroke:#000000;stroke-dasharray:5.04,3.6;stroke-linecap:round;stroke-linejoin:round;stroke-opacity:0.2;stroke-width:0.72}
		.st2 {stroke:#000000;stroke-linecap:round;stroke-linejoin:round;stroke-width:2.16}
		.st3 {fill:#000000;stroke:#000000;stroke-linecap:round;stroke-linejoin:round;stroke-width:0.72}
		.st4 {fill:#c0c0c0;stroke:#000000;stroke-linecap:round;stroke-linejoin:round;stroke-width:0.72}
		.st5 {fill:none;stroke:none;stroke-linecap:round;stroke-linejoin:round;stroke-width:0.72}
		.st6 {fill:#000000;font-family:Arial;font-size:1.5em;font-weight:bold}
		.st7 {fill:#800000;stroke:#000000;stroke-linecap:round;stroke-linejoin:round;stroke-width:0.24}
		.st8 {marker-end:url(#mrkr13-33);marker-start:url(#mrkr13-31);stroke:#000000;stroke-linecap:round;stroke-linejoin:round;stroke-width:2.16}
		.st9 {fill:#000000;fill-opacity:1;stroke:#000000;stroke-opacity:1;stroke-width:0.46153846153846}
		.st10 {marker-end:url(#mrkr13-39);stroke:#800000;stroke-linecap:round;stroke-linejoin:round;stroke-width:2.16}
		.st11 {fill:#800000;fill-opacity:1;stroke:#800000;stroke-opacity:1;stroke-width:0.46153846153846}
		.st12 {fill:#ffcc99;stroke:#000000;stroke-linecap:round;stroke-linejoin:round;stroke-width:0.72}
		.st13 {marker-start:url(#mrkr13-113);stroke:#800000;stroke-linecap:round;stroke-linejoin:round;stroke-width:2.16}
		.st14 {marker-start:url(#mrkr4-120);stroke:#000000;stroke-linecap:round;stroke-linejoin:round;stroke-width:0.72}
		.st15 {fill:#000000;fill-opacity:1;stroke:#000000;stroke-opacity:1;stroke-width:0.22222222222222}
		.st16 {fill:#000000;font-family:Arial;font-size:1.00001em;font-weight:bold}
		.st17 {font-size:1em}
		.st18 {fill:#000000;font-family:Arial;font-size:1.16666em;font-weight:bold}
		.st19 {fill:#000000;font-family:Arial;font-size:0.916672em}
		.st20 {fill:none;fill-rule:evenodd;font-size:12;overflow:visible;stroke-linecap:square;stroke-miterlimit:3}
	]]>
	</style>

	<defs id="Markers">
		<g id="lend13">
			<path d="M 3 1 L -0 0 L 3 -1 L 3 1 " style="stroke:none"/>
		</g>
		<marker id="mrkr13-31" class="st9" v:arrowType="13" v:arrowSize="2" v:setback="6.33333" refX="6.3333333333333"
				orient="auto" markerUnits="strokeWidth">
			<use xlink:href="#lend13" transform="scale(2.1666666666667) "/>
		</marker>
		<marker id="mrkr13-33" class="st9" v:arrowType="13" v:arrowSize="2" v:setback="6.5" refX="-6.5" orient="auto"
				markerUnits="strokeWidth">
			<use xlink:href="#lend13" transform="scale(-2.1666666666667,-2.1666666666667) "/>
		</marker>
		<marker id="mrkr13-39" class="st11" v:arrowType="13" v:arrowSize="2" v:setback="6.5" refX="-6.5" orient="auto"
				markerUnits="strokeWidth">
			<use xlink:href="#lend13" transform="scale(-2.1666666666667,-2.1666666666667) "/>
		</marker>
		<marker id="mrkr13-113" class="st11" v:arrowType="13" v:arrowSize="2" v:setback="6.33333" refX="6.3333333333333"
				orient="auto" markerUnits="strokeWidth">
			<use xlink:href="#lend13" transform="scale(2.1666666666667) "/>
		</marker>
		<g id="lend4">
			<path d="M 2 1 L -0 0 L 2 -1 L 2 1 " style="stroke:none"/>
		</g>
		<marker id="mrkr4-120" class="st15" v:arrowType="4" v:arrowSize="2" v:setback="8.5" refX="8.5" orient="auto"
				markerUnits="strokeWidth">
			<use xlink:href="#lend4" transform="scale(4.5) "/>
		</marker>
	</defs>
	<g v:mID="0" v:index="1" v:groupContext="foregroundPage">
		<title>Page-1</title>
		<v:pageProperties v:drawingScale="0.0393701" v:pageScale="0.0393701" v:drawingUnits="24" v:shadowOffsetX="8.50394"
				v:shadowOffsetY="-8.50394"/>
		<g id="shape1-1" v:mID="1" v:groupContext="shape" transform="translate(111.453,-98.2456)">
			<title>Tabelle.1</title>
			<path d="M0 322.99 L275.25 322.99 L275.25 168.17 L0 168.17 L0 322.99 Z" class="st1"/>
		</g>
		<g id="group2-3" transform="translate(157.459,-98.8448)" v:mID="2" v:groupContext="group">
			<title>Tabelle.2</title>
			<g id="shape3-4" v:mID="3" v:groupContext="shape" transform="translate(330.855,322.991) rotate(90) scale(-1,1)">
				<title>Tabelle.3</title>
				<path d="M0 322.99 L21.81 322.99" class="st2"/>
			</g>
			<g id="shape4-7" v:mID="4" v:groupContext="shape" transform="translate(0,610.405) scale(1,-1)">
				<title>Tabelle.4</title>
				<ellipse cx="7.86416" cy="315.126" rx="7.86416" ry="7.86416" class="st3"/>
			</g>
		</g>
		<g id="group5-9" transform="translate(105.162,-29.1848)" v:mID="5" v:groupContext="group">
			<title>Tabelle.5</title>
			<g id="shape6-10" v:mID="6" v:groupContext="shape">
				<title>Tabelle.6</title>
				<rect x="0" y="253.331" width="120.322" height="69.6599" rx="11.3386" ry="11.3386" class="st4"/>
			</g>
			<g id="shape7-12" v:mID="7" v:groupContext="shape" transform="translate(7.56408,-18.031)">
				<title>Tabelle.7</title>
				<desc>Provider</desc>
				<v:textBlock v:margins="rect(4,4,4,4)" v:tabSpace="42.5197"/>
				<v:textRect cx="53.2124" cy="306.192" width="106.43" height="33.598"/>
				<rect x="0" y="289.393" width="106.425" height="33.598" class="st5"/>
				<text x="16.69" y="311.59" class="st6" v:langID="1031"><v:paragraph v:horizAlign="1"/><v:tabList/>Provider</text>			</g>
		</g>
		<g id="shape8-15" v:mID="8" v:groupContext="shape" transform="translate(149.595,-83.1164)">
			<title>Diamond</title>
			<v:userDefs>
				<v:ud v:nameU="visVersion" v:val="VT0(11):26"/>
			</v:userDefs>
			<path d="M0 307.26 L15.73 291.53 L31.46 307.26 L15.73 322.99 L0 307.26 Z" class="st7"/>
		</g>
		<g id="group9-17" transform="translate(163.357,-252.611)" v:mID="9" v:groupContext="group">
			<title>Tabelle.9</title>
			<g id="shape10-18" v:mID="10" v:groupContext="shape">
				<title>Tabelle.10</title>
				<rect x="0" y="253.331" width="120.322" height="69.6599" rx="11.3386" ry="11.3386" class="st4"/>
			</g>
			<g id="shape11-20" v:mID="11" v:groupContext="shape" transform="translate(7.56408,-18.031)">
				<title>Tabelle.11</title>
				<desc>Consumer</desc>
				<v:textBlock v:margins="rect(4,4,4,4)" v:tabSpace="42.5197"/>
				<v:textRect cx="53.2124" cy="306.192" width="106.43" height="33.598"/>
				<rect x="0" y="289.393" width="106.425" height="33.598" class="st5"/>
				<text x="8.69" y="311.59" class="st6" v:langID="1031"><v:paragraph v:horizAlign="1"/><v:tabList/>Consumer</text>			</g>
		</g>
		<g id="shape12-23" v:mID="12" v:groupContext="shape" transform="translate(209.755,-237.731)">
			<title>Diamond.32</title>
			<v:userDefs>
				<v:ud v:nameU="visVersion" v:val="VT0(11):26"/>
			</v:userDefs>
			<path d="M0 307.26 L15.73 291.53 L31.46 307.26 L15.73 322.99 L0 307.26 Z" class="st7"/>
		</g>
		<g id="shape13-25" v:mID="13" v:groupContext="shape" transform="translate(164.352,-145.725)">
			<title>Tabelle.13</title>
			<path d="M0 309.31 L0 308.95 L0 252.45 L33.61 234.53" class="st8"/>
		</g>
		<g id="shape14-34" v:mID="14" v:groupContext="shape" transform="translate(176.343,-109.79)">
			<title>Tabelle.14</title>
			<path d="M175.3 271.92 L40.37 271.92 L8.71 311.98" class="st10"/>
		</g>
		<g id="group15-40" transform="translate(237.28,-30.2206)" v:mID="15" v:groupContext="group">
			<title>Tabelle.15</title>
			<g id="shape16-41" v:mID="16" v:groupContext="shape" transform="translate(438.004,246.609) rotate(90) scale(-1,1)">
				<title>Tabelle.16</title>
				<path d="M0 322.99 L21.81 322.99" class="st2"/>
			</g>
			<g id="shape17-44" v:mID="17" v:groupContext="shape" transform="translate(411.135,245.546) rotate(90) scale(-1,1)">
				<title>Tabelle.17</title>
				<path d="M0 322.99 L21.81 322.99" class="st2"/>
			</g>
			<g id="shape18-47" v:mID="18" v:groupContext="shape" transform="translate(384.265,248.733) rotate(90) scale(-1,1)">
				<title>Tabelle.18</title>
				<path d="M0 322.99 L21.81 322.99" class="st2"/>
			</g>
			<g id="group19-50" v:mID="19" v:groupContext="group">
				<title>Tabelle.19</title>
				<g id="shape20-51" v:mID="20" v:groupContext="shape">
					<title>Tabelle.20</title>
					<rect x="0" y="255.059" width="149.419" height="67.9314" rx="11.3386" ry="11.3386" class="st12"/>
				</g>
				<g id="shape21-53" v:mID="21" v:groupContext="shape" transform="translate(9.39331,-17.5835)">
					<title>Tabelle.21</title>
					<desc>Infrastructure</desc>
					<v:textBlock v:margins="rect(4,4,4,4)" v:tabSpace="42.5197"/>
					<v:textRect cx="66.0808" cy="306.608" width="132.17" height="32.7643"/>
					<rect x="0" y="290.226" width="132.162" height="32.7643" class="st5"/>
					<text x="7.56" y="312.01" class="st6" v:langID="1031"><v:paragraph v:horizAlign="1"/><v:tabList/>Infrastructure</text>				</g>
			</g>
			<g id="group22-56" transform="translate(26.5416,-68.6242)" v:mID="22" v:groupContext="group">
				<title>Tabelle.22</title>
				<g id="group23-57" transform="translate(53.7384,-1.13687E-013)" v:mID="23" v:groupContext="group">
					<title>Tabelle.23</title>
					<g id="shape24-58" v:mID="24" v:groupContext="shape"
							transform="translate(330.855,322.991) rotate(90) scale(-1,1)">
						<title>Tabelle.24</title>
						<path d="M0 322.99 L15.73 322.99" class="st2"/>
					</g>
					<g id="shape25-61" v:mID="25" v:groupContext="shape" transform="translate(0,610.405) scale(1,-1)">
						<title>Tabelle.25</title>
						<ellipse cx="7.86416" cy="315.126" rx="7.86416" ry="7.86416" class="st3"/>
					</g>
				</g>
				<g id="shape26-63" v:mID="26" v:groupContext="shape" transform="translate(330.855,322.991) rotate(90) scale(-1,1)">
					<title>Tabelle.26</title>
					<path d="M0 322.99 L21.81 322.99" class="st2"/>
				</g>
				<g id="shape27-66" v:mID="27" v:groupContext="shape" transform="translate(4.29656E-014,610.405) scale(1,-1)">
					<title>Tabelle.27</title>
					<ellipse cx="7.86416" cy="315.126" rx="7.86416" ry="7.86416" class="st3"/>
				</g>
				<g id="group28-68" transform="translate(80.6077,0)" v:mID="28" v:groupContext="group">
					<title>Tabelle.28</title>
					<g id="shape29-69" v:mID="29" v:groupContext="shape"
							transform="translate(330.855,322.991) rotate(90) scale(-1,1)">
						<title>Tabelle.29</title>
						<path d="M0 322.99 L15.73 322.99" class="st2"/>
					</g>
					<g id="shape30-72" v:mID="30" v:groupContext="shape" transform="translate(0,610.405) scale(1,-1)">
						<title>Tabelle.30</title>
						<ellipse cx="7.86416" cy="315.126" rx="7.86416" ry="7.86416" class="st3"/>
					</g>
				</g>
				<g id="group31-74" transform="translate(26.8692,0)" v:mID="31" v:groupContext="group">
					<title>Tabelle.31</title>
					<g id="shape32-75" v:mID="32" v:groupContext="shape"
							transform="translate(330.855,322.991) rotate(90) scale(-1,1)">
						<title>Tabelle.32</title>
						<path d="M0 322.99 L15.73 322.99" class="st2"/>
					</g>
					<g id="shape33-78" v:mID="33" v:groupContext="shape" transform="translate(0,610.405) scale(1,-1)">
						<title>Tabelle.33</title>
						<ellipse cx="7.86416" cy="315.126" rx="7.86416" ry="7.86416" class="st3"/>
					</g>
				</g>
			</g>
			<g id="shape34-80" v:mID="34" v:groupContext="shape" transform="translate(18.6774,-52.8958)">
				<title>Diamond.24</title>
				<v:userDefs>
					<v:ud v:nameU="visVersion" v:val="VT0(11):26"/>
				</v:userDefs>
				<path d="M0 307.26 L15.73 291.53 L31.46 307.26 L15.73 322.99 L0 307.26 Z" class="st7"/>
			</g>
			<g id="shape35-82" v:mID="35" v:groupContext="shape" transform="translate(45.5466,-52.8958)">
				<title>Diamond.25</title>
				<v:userDefs>
					<v:ud v:nameU="visVersion" v:val="VT0(11):26"/>
				</v:userDefs>
				<path d="M0 307.26 L15.73 291.53 L31.46 307.26 L15.73 322.99 L0 307.26 Z" class="st7"/>
			</g>
			<g id="shape36-84" v:mID="36" v:groupContext="shape" transform="translate(72.4158,-52.8958)">
				<title>Diamond.26</title>
				<v:userDefs>
					<v:ud v:nameU="visVersion" v:val="VT0(11):26"/>
				</v:userDefs>
				<path d="M0 307.26 L15.73 291.53 L31.46 307.26 L15.73 322.99 L0 307.26 Z" class="st7"/>
			</g>
			<g id="shape37-86" v:mID="37" v:groupContext="shape" transform="translate(99.2851,-52.8958)">
				<title>Diamond.27</title>
				<v:userDefs>
					<v:ud v:nameU="visVersion" v:val="VT0(11):26"/>
				</v:userDefs>
				<path d="M0 307.26 L15.73 291.53 L31.46 307.26 L15.73 322.99 L0 307.26 Z" class="st7"/>
			</g>
			<g id="shape38-88" v:mID="38" v:groupContext="shape" transform="translate(356.608,192.351) rotate(90)">
				<title>Tabelle.38</title>
				<path d="M0 322.99 L10.47 322.99" class="st10"/>
			</g>
			<g id="shape39-93" v:mID="39" v:groupContext="shape" transform="translate(384.23,192.351) rotate(90)">
				<title>Tabelle.39</title>
				<path d="M0 322.99 L10.47 322.99" class="st10"/>
			</g>
			<g id="shape40-98" v:mID="40" v:groupContext="shape" transform="translate(410.79,192.351) rotate(90)">
				<title>Tabelle.40</title>
				<path d="M0 322.99 L10.47 322.99" class="st10"/>
			</g>
			<g id="shape41-103" v:mID="41" v:groupContext="shape" transform="translate(437.35,192.351) rotate(90)">
				<title>Tabelle.41</title>
				<path d="M0 322.99 L10.47 322.99" class="st10"/>
			</g>
		</g>
		<g id="shape42-108" v:mID="42" v:groupContext="shape" transform="translate(548.474,85.2598) rotate(90)">
			<title>Tabelle.42</title>
			<path d="M13.68 322.99 L14.04 322.99 L76.87 322.99" class="st13"/>
		</g>
		<g id="shape43-114" v:mID="43" v:groupContext="shape" transform="translate(45.1302,417.766) rotate(-158.339)">
			<title>Tabelle.43</title>
			<path d="M6.12 322.99 L6.48 322.99 L80.83 322.99" class="st14"/>
		</g>
		<g id="shape44-121" v:mID="44" v:groupContext="shape" transform="translate(0.72,-226.55)">
			<title>Tabelle.44</title>
			<desc>Client Service Communication</desc>
			<v:textBlock v:margins="rect(4,4,4,4)" v:tabSpace="42.5197"/>
			<v:textRect cx="56.9685" cy="296.154" width="113.94" height="53.6728"/>
			<rect x="0" y="269.318" width="113.937" height="53.6728" class="st5"/>
			<text x="17.29" y="292.55" class="st16" v:langID="1031"><v:paragraph v:horizAlign="1"/><v:tabList/>Client Service <tspan
						x="11.64" dy="1.2em" class="st17">Communication</tspan></text>		</g>
		<g id="shape45-125" v:mID="45" v:groupContext="shape" transform="translate(151.244,-91.177) rotate(-38.3481)">
			<title>Tabelle.45</title>
			<path d="M6.12 322.99 L6.48 322.99 L71.8 322.99" class="st14"/>
		</g>
		<g id="shape46-130" v:mID="46" v:groupContext="shape" transform="translate(364.972,-178.185)">
			<title>Tabelle.46</title>
			<desc>SOA / ESB Infrastructure Services</desc>
			<v:textBlock v:margins="rect(4,4,4,4)" v:tabSpace="42.5197"/>
			<v:textRect cx="87.874" cy="291.059" width="175.75" height="63.8623"/>
			<rect x="0" y="259.128" width="175.748" height="63.8623" class="st5"/>
			<text x="57.53" y="280.26" class="st16" v:langID="1031"><v:paragraph v:horizAlign="1"/><v:tabList/>SOA / ESB<v:lf/><tspan
						x="48.87" dy="1.2em" class="st17">Infrastructure <v:lf/></tspan><tspan x="63.19" dy="1.2em" class="st17">Services</tspan></text>		</g>
		<g id="shape47-135" v:mID="47" v:groupContext="shape" transform="translate(229.463,-191.536)">
			<title>Tabelle.47</title>
			<desc>ESB</desc>
			<v:textBlock v:margins="rect(4,4,4,4)" v:tabSpace="42.5197"/>
			<v:textRect cx="63.7442" cy="310.743" width="127.49" height="24.4943"/>
			<rect x="0" y="298.496" width="127.488" height="24.4943" class="st5"/>
			<text x="45.24" y="316.14" class="st6" v:langID="1031"><v:paragraph v:horizAlign="1"/><v:tabList/>ESB</text>		</g>
		<g id="shape48-138" v:mID="48" v:groupContext="shape" transform="translate(382.087,-46.4334)">
			<title>Tabelle.48</title>
			<desc>Legend:</desc>
			<v:textBlock v:margins="rect(4,4,4,4)" v:tabSpace="42.5197"/>
			<v:textRect cx="53.4625" cy="310.743" width="106.93" height="24.4943"/>
			<rect x="0" y="298.496" width="106.925" height="24.4943" class="st5"/>
			<text x="26.25" y="314.94" class="st18" v:langID="1031"><v:paragraph v:horizAlign="1"/><v:tabList/>Legend:</text>		</g>
		<g id="group49-141" transform="translate(406.224,0)" v:mID="49" v:groupContext="group">
			<title>Tabelle.49</title>
			<g id="shape50-142" v:mID="50" v:groupContext="shape" transform="translate(2.12481,605.123) scale(1,-1)">
				<title>Tabelle.50</title>
				<ellipse cx="5.73936" cy="317.251" rx="5.73936" ry="5.73936" class="st3"/>
			</g>
			<g id="shape51-144" v:mID="51" v:groupContext="shape" transform="translate(7.99361E-015,-7.91132)">
				<title>Diamond.48</title>
				<v:userDefs>
					<v:ud v:nameU="visVersion" v:val="VT0(11):26"/>
				</v:userDefs>
				<path d="M0 314.7 L8.29 306.41 L16.58 314.7 L8.29 322.99 L0 314.7 Z" class="st7"/>
			</g>
			<g id="shape52-146" v:mID="52" v:groupContext="shape" transform="translate(22.2144,-21.9626)">
				<title>Tabelle.52</title>
				<desc>Service Point</desc>
				<v:textBlock v:margins="rect(4,4,4,4)" v:tabSpace="42.5197"/>
				<v:textRect cx="66.9271" cy="310.743" width="133.86" height="24.4943"/>
				<rect x="0" y="298.496" width="133.854" height="24.4943" class="st5"/>
				<text x="4" y="314.04" class="st19" v:langID="1031"><v:paragraph/><v:tabList/>Service Point</text>			</g>
			<g id="shape53-149" v:mID="53" v:groupContext="shape" transform="translate(12.606,-3.93725)">
				<title>Tabelle.53</title>
				<desc>ESB-Stub (Framework)</desc>
				<v:textBlock v:margins="rect(4,4,4,4)" v:tabSpace="42.5197"/>
				<v:textRect cx="70.8344" cy="310.743" width="141.67" height="24.4943"/>
				<rect x="0" y="298.496" width="141.669" height="24.4943" class="st5"/>
				<text x="13.98" y="314.04" class="st19" v:langID="1031"><v:paragraph v:horizAlign="1"/><v:tabList/>ESB-Stub (Framework)</text>			</g>
		</g>
	</g>
</svg>
