<?xml version="1.0" encoding="UTF-8" standalone="no"?>
<!-- Created with Inkscape (http://www.inkscape.org/) -->
<svg
   xmlns:dc="http://purl.org/dc/elements/1.1/"
   xmlns:cc="http://web.resource.org/cc/"
   xmlns:rdf="http://www.w3.org/1999/02/22-rdf-syntax-ns#"
   xmlns:svg="http://www.w3.org/2000/svg"
   xmlns="http://www.w3.org/2000/svg"
   xmlns:sodipodi="http://sodipodi.sourceforge.net/DTD/sodipodi-0.dtd"
   xmlns:inkscape="http://www.inkscape.org/namespaces/inkscape"
   width="419"
   height="240"
   id="svg2"
   sodipodi:version="0.32"
   inkscape:version="0.44"
   sodipodi:docbase="C:\Lib\nc3ta-tools-7.1\src\volume1\figures"
   sodipodi:docname="v1a1-gipsi.svg"
   version="1.0">
  <defs
     id="defs4" />
  <sodipodi:namedview
     id="base"
     pagecolor="#ffffff"
     bordercolor="#666666"
     borderopacity="1.0"
     gridtolerance="10000"
     guidetolerance="10"
     objecttolerance="10"
     inkscape:pageopacity="0.0"
     inkscape:pageshadow="2"
     inkscape:zoom="2.2743067"
     inkscape:cx="188.98011"
     inkscape:cy="112.58346"
     inkscape:document-units="px"
     inkscape:current-layer="layer1"
     inkscape:window-width="1280"
     inkscape:window-height="721"
     inkscape:window-x="-4"
     inkscape:window-y="-4"
     showguides="true"
     inkscape:guide-bbox="true"
     height="240px" />
  <metadata
     id="metadata7">
    <rdf:RDF>
      <cc:Work
         rdf:about="">
        <dc:format>image/svg+xml</dc:format>
        <dc:type
           rdf:resource="http://purl.org/dc/dcmitype/StillImage" />
      </cc:Work>
    </rdf:RDF>
  </metadata>
  <g
     inkscape:label="Layer 1"
     inkscape:groupmode="layer"
     id="layer1"
     transform="translate(-156.2143,-106.7908)">
    <path
       style="fill:none;fill-rule:evenodd;stroke:black;stroke-width:1px;stroke-linecap:butt;stroke-linejoin:miter;stroke-opacity:1"
       d="M 246.72243,310.06154 C 247.53764,312.2412 244.35774,315.91654 243.48634,317.02528 C 242.02027,318.89066 241.55722,319.89293 239.44065,320.89207 C 237.71299,321.70762 235.81099,323.81258 234.51579,324.73898 C 232.72148,326.02238 231.08802,327.22685 229.1613,328.13636 C 227.21354,329.05581 225.53586,329.35396 223.86644,328.89626 C 221.46312,328.23737 220.36831,327.49491 218.6312,327.01866 C 216.48741,326.43093 215.42593,325.39431 213.42579,323.82232 C 211.43501,322.25769 211.00359,320.07304 210.03835,318.02825 C 208.89752,315.61152 209.03006,315.72798 207.84043,317.97856 C 207.11132,319.35792 204.71559,319.88854 203.38498,320.51665 C 201.49071,321.41085 199.72188,321.31345 197.21096,321.25667 C 195.27525,321.21291 193.37413,321.60974 191.04687,321.55712 C 188.55521,321.50078 186.95101,319.61453 185.39193,318.79041 C 183.41639,317.74617 182.67686,315.49975 181.53508,314.30514 C 180.20536,312.9139 179.5004,311.15814 178.5574,309.83975 C 176.31191,306.70036 177.57351,307.13732 175.98948,306.70304 C 174.24109,306.2237 172.49711,307.94349 170.68468,307.90252 C 168.60033,307.85539 166.22648,304.44654 165.51901,302.94784 C 164.32766,300.42407 163.64688,299.98707 163.01073,297.17365 C 162.5237,295.01968 162.74162,292.59872 162.28065,290.56004 C 161.84114,288.61628 163.37846,285.74909 163.73854,284.43571 C 164.28605,282.43867 165.6687,280.26289 167.81405,279.25017 C 170.16018,278.14267 167.23387,277.91763 165.20637,277.87179 C 163.7159,277.83809 161.6242,273.15069 161.37934,272.06777 C 160.92537,270.06 159.83218,268.12656 159.32057,265.86393 C 158.80809,263.59739 159.39818,259.93426 159.93906,257.96139 C 160.69937,255.18814 161.4419,253.94451 163.59486,251.88675 C 165.5501,250.01797 166.24771,248.46001 168.09008,247.59032 C 171.6071,245.93009 171.64797,246.81303 169.90803,244.99259 C 168.77085,243.8028 168.13473,241.98538 167.80951,240.54706 C 167.26515,238.13956 167.25968,235.69637 168.40812,233.52369 C 169.53656,231.38887 169.91054,229.61968 171.62434,227.43912 C 173.76413,224.71652 176.46992,222.56772 179.25625,220.57477 C 182.38252,218.33867 186.38522,217.29827 189.91556,215.9779 C 192.64591,214.95672 195.68308,215.01585 198.27755,215.72716 C 200.78316,216.41409 201.18616,218.20368 202.1344,220.21243 C 203.33313,222.7518 202.67589,219.04401 203.0732,217.59481 C 203.37232,216.50377 206.53119,214.90522 207.54854,214.17755 C 210.04113,212.39468 212.81993,211.25428 215.56041,209.96063 C 217.61425,208.9911 221.67895,209.66823 223.93234,209.27031 C 226.24791,208.86139 228.61921,211.47413 229.57734,212.47659 C 231.27304,214.25075 230.24603,214.99854 231.78518,212.08669 C 232.86343,210.04683 234.72286,209.23578 237.13968,208.68931 C 238.49588,208.38266 239.79705,207.86978 241.12573,207.46001 C 244.12745,206.53428 247.17414,207.34901 249.90744,208.09837 C 252.97968,208.94066 252.44542,212.55928 252.41573,213.87258 C 252.37115,215.84389 254.86755,210.71334 256.47135,209.5662 C 257.89591,208.54727 262.05203,207.93315 263.984,207.97683 C 266.80613,208.04064 269.23677,208.31116 271.8766,209.0349 C 274.13019,209.65275 275.69041,212.1252 277.0522,213.54999 C 279.21091,215.80858 279.5879,218.11167 279.52073,221.08252 C 279.45003,224.20915 278.65139,224.62652 281.16973,225.95768 C 282.54346,226.68381 284.44021,228.30437 285.49598,229.13414 C 287.06905,230.37048 287.50489,231.08665 288.4836,233.15995 C 289.5181,235.35145 289.71004,237.27246 289.65326,239.7835 C 289.59851,242.20534 289.21763,244.19579 288.62501,246.35735 C 288.11918,248.20241 286.21065,250.50417 285.41873,252.00235 C 284.48714,253.76478 288.79723,254.18721 290.17463,255.62834 C 291.3753,256.88455 291.84274,259.65811 291.80375,261.38266 C 291.76517,263.08885 292.14951,265.54214 292.10418,267.54675 C 292.05225,269.84353 292.08162,272.06566 291.51552,274.13053 C 290.88264,276.43896 289.84748,278.12775 288.73888,280.22506 C 287.89516,281.82122 286.04264,283.65565 284.66337,285.41059 C 283.43423,286.97452 280.9276,288.121 279.73852,289.2575 C 278.23372,290.69575 275.02973,291.4803 273.5148,292.19543 C 271.30022,293.24083 269.80197,292.81064 271.69683,294.79317 C 273.18165,296.34668 272.46488,299.65497 271.98734,301.39683 C 271.42604,303.4442 270.69899,304.88612 270.0998,307.07165 C 269.64492,308.73083 266.71374,311.16814 265.58471,312.24724 C 263.68753,314.06053 262.11506,314.53743 259.79064,315.63469 C 257.68503,316.62865 256.22724,317.75316 253.58678,317.69346 C 250.81211,317.63072 249.62669,317.59998 248.34162,316.25545 C 246.80821,314.65109 245.911,313.02124 246.72243,310.06154 C 247.30501,307.9366 246.38213,305.66066 246.43194,303.45787 C 246.43663,303.25065 246.71837,303.75755 246.86158,303.90739"
       id="path9996" />
    <path
       style="fill:none;fill-rule:evenodd;stroke:black;stroke-width:0.9874782px;stroke-linecap:butt;stroke-linejoin:miter;stroke-opacity:1"
       d="M 423.70011,284.51081 C 422.69978,284.21765 421.69946,283.92449 420.69913,283.63134 C 419.16985,283.18316 417.71846,281.03456 417.26945,280.11345 C 416.33156,278.18943 416.08289,275.92035 415.1259,273.95714 C 414.16278,271.98138 413.50909,270.40177 412.98234,268.24056 C 412.41091,265.89606 412.70933,264.843 413.83976,262.52398 C 414.72551,260.70693 416.67545,260.05511 417.69816,259.0061 C 419.15268,257.51416 420.50785,256.51482 422.41398,255.04847 C 424.17947,253.69029 426.77823,253.71343 428.84464,253.28952 C 430.05091,253.04206 428.49126,247.88199 428.41593,247.57294 C 427.93025,245.58026 428.48423,242.89535 428.84464,241.41663 C 429.42624,239.0304 429.62353,237.34149 430.13077,235.26032 C 430.64113,233.16639 432.46636,231.10571 433.56046,229.98348 C 435.24262,228.25805 436.3785,227.97243 437.84756,226.46559 C 438.66127,225.63096 442.03654,224.62187 443.42081,224.26691 C 445.18515,223.81448 446.36235,222.63313 448.56533,222.06822 C 449.65201,221.78956 453.1729,222.70007 454.13858,222.94769 C 456.61635,223.58307 457.54964,223.80808 458.8544,225.14637 C 460.14078,226.46585 460.76565,224.30371 461.85537,222.06822 C 462.8091,220.11171 463.86341,219.20424 465.28505,218.11059 C 467.27952,216.57627 468.21245,215.50991 470.00087,214.5927 C 472.03008,213.552 472.26539,212.83375 475.14541,212.83375 C 476.79813,212.83375 479.56566,213.8573 480.71864,214.15296 C 483.20686,214.79102 483.08195,216.13732 484.57704,217.67086 C 485.29156,218.40375 486.00607,219.13665 486.7206,219.86954 C 487.94157,221.12191 487.64318,216.2848 488.86415,215.03243 C 490.36595,213.49201 491.54937,212.63693 493.57997,211.07481 C 494.81966,210.12112 496.87807,209.7556 499.1532,209.7556 C 501.47206,209.7556 503.36079,210.99324 504.72644,212.39402 C 506.17303,213.87781 507.01556,215.62147 508.15613,216.79138 C 509.1473,217.80805 509.17791,216.89395 510.29969,214.5927 C 510.9755,213.20632 513.03933,212.52804 514.15808,211.95428 C 515.86505,211.07885 518.11512,210.63507 520.16003,210.63507 C 522.08073,210.63507 522.92792,211.01504 524.87585,211.51455 C 527.58863,212.21018 527.8825,215.04407 528.73425,216.79138 C 529.66442,218.69956 530.04033,220.39111 530.44909,222.06822 C 530.93664,224.06858 532.07558,224.78386 532.59265,226.90532 C 533.04077,228.74392 534.88013,229.83742 536.02234,230.42322 C 537.68745,231.27718 540.39984,229.41062 541.59557,229.104 C 543.33611,228.65768 543.8525,231.76784 544.16784,233.06163 C 544.66622,235.10644 544.52874,237.62052 545.02526,239.65768 C 545.59406,241.9914 544.59654,243.5741 544.59654,245.81399 C 544.59654,247.22667 543.73913,249.3502 543.73913,251.53057 C 543.73913,253.25178 544.69692,255.46027 545.02526,256.80741 C 545.5148,258.81591 545.89706,260.82406 546.31139,262.52398 C 546.80198,264.53683 547.79426,265.56599 548.45494,266.92135 C 549.25409,268.56074 548.87772,271.29434 549.31236,273.07766 C 549.74999,274.87317 549.31236,277.37435 549.31236,279.23397 C 549.31236,281.84389 548.44367,283.23787 548.02623,284.95055 C 547.60518,286.67808 545.64412,288.65197 544.16784,289.78765 C 542.95226,290.72277 541.3389,292.7771 540.30944,294.18502 C 539.12431,295.80583 537.6377,296.46022 536.02234,297.70291 C 534.35847,298.98291 532.43171,299.14593 530.8778,300.34133 C 529.487,301.41125 530.44203,303.8882 530.02038,305.61817 C 529.50612,307.72808 528.73904,309.11644 528.30554,310.89501 C 527.68894,313.42483 527.82576,314.51767 527.0194,316.17184 C 525.95704,318.35122 525.21894,318.89808 523.58972,320.56921 C 522.4976,321.68941 519.61705,322.02765 518.44519,322.32815 C 516.58563,322.805 515.81068,323.64737 513.30066,323.64737 C 511.46927,323.64737 510.55721,323.27366 508.58484,322.76789 C 506.74926,322.29719 504.98597,320.54898 503.86902,319.68974 C 502.45493,318.60188 503.3734,323.34491 502.58289,324.96657 C 501.76423,326.64602 500.75175,327.40385 500.01062,328.9242 C 499.36102,330.25683 497.3522,331.82668 496.15223,332.4421 C 494.99124,333.03752 493.42239,335.24215 492.72255,335.95999 C 491.36079,337.35676 490.14676,338.04964 488.00673,338.59841 C 485.67352,339.19671 484.30192,339.7683 482.00478,340.35736 C 479.52085,340.99431 478.89497,339.12017 476.86024,338.59841 C 475.63996,338.28549 474.38304,335.98436 472.57314,335.52026 C 471.68786,335.29324 469.69504,332.94485 468.71474,332.4421 C 468.1805,332.1681 467.59022,327.82832 467.42861,327.16525 C 466.8779,324.90578 465.19378,327.25888 463.99892,328.48447 C 462.74706,329.76852 460.90869,329.80368 458.8544,329.80368 C 456.69571,329.80368 454.408,330.28425 452.85245,330.68315 C 451.00689,331.15641 448.27918,329.74497 446.42178,329.36394 C 443.83644,328.83357 442.53649,328.89662 441.27726,327.605 C 439.87762,326.16937 439.38419,325.22351 437.84756,323.64737 C 436.5934,322.36093 436.14811,320.63232 435.70401,318.81026 C 435.17878,316.65531 433.98481,315.72316 433.13174,313.97316 C 432.29116,312.24876 429.38199,313.56128 427.5585,313.09369 C 425.76031,312.63258 424.87144,310.77725 423.70011,309.5758 C 422.1203,307.95535 421.22363,306.69414 420.27042,304.7387 C 419.52341,303.20624 419.84171,300.6525 419.84171,298.58238 C 419.84171,296.05251 420.27042,294.665 420.27042,292.42607 C 420.27042,290.13904 421.30996,289.16111 422.41398,288.02871 C 422.64782,287.78885 423.5783,284.82317 423.70011,284.51081 z "
       id="path9998" />
  </g>
  <g
     inkscape:groupmode="layer"
     id="layer3"
     inkscape:label="Layer2">
    <rect
       style="opacity:1;fill:lime;fill-opacity:1;fill-rule:evenodd;stroke:#007200;stroke-width:1.44087458;stroke-linejoin:round;stroke-miterlimit:4;stroke-dasharray:none;stroke-opacity:1"
       id="rect1969"
       width="77.778679"
       height="31.994768"
       x="34.543289"
       y="120.53823" />
    <text
       xml:space="preserve"
       style="font-size:14px;font-style:normal;font-variant:normal;font-weight:bold;font-stretch:normal;text-align:start;line-height:100%;writing-mode:lr-tb;text-anchor:start;fill:black;fill-opacity:1;stroke:none;stroke-width:1px;stroke-linecap:butt;stroke-linejoin:miter;stroke-opacity:1;font-family:Arial"
       x="48.502102"
       y="140.10489"
       id="text4630"
       sodipodi:linespacing="100%"><tspan
         sodipodi:role="line"
         id="tspan4632"
         x="48.502102"
         y="140.10489">Service</tspan></text>
    <rect
       y="128.53824"
       x="290.54327"
       height="31.994768"
       width="77.778679"
       id="rect4634"
       style="opacity:1;fill:lime;fill-opacity:1;fill-rule:evenodd;stroke:#007200;stroke-width:1.44087458;stroke-linejoin:round;stroke-miterlimit:4;stroke-dasharray:none;stroke-opacity:1" />
    <text
       sodipodi:linespacing="100%"
       id="text4636"
       y="148.10489"
       x="302.50211"
       style="font-size:14px;font-style:normal;font-variant:normal;font-weight:bold;font-stretch:normal;text-align:start;line-height:100%;writing-mode:lr-tb;text-anchor:start;fill:black;fill-opacity:1;stroke:none;stroke-width:1px;stroke-linecap:butt;stroke-linejoin:miter;stroke-opacity:1;font-family:Arial"
       xml:space="preserve"><tspan
         y="148.10489"
         x="302.50211"
         id="tspan4638"
         sodipodi:role="line">Service</tspan></text>
    <text
       xml:space="preserve"
       style="font-size:18px;font-style:normal;font-variant:normal;font-weight:bold;font-stretch:normal;text-align:start;line-height:100%;writing-mode:lr-tb;text-anchor:start;fill:black;fill-opacity:1;stroke:none;stroke-width:1px;stroke-linecap:butt;stroke-linejoin:miter;stroke-opacity:1;font-family:Arial"
       x="299.8363"
       y="198.43039"
       id="text4640"
       sodipodi:linespacing="100%"><tspan
         sodipodi:role="line"
         id="tspan4644"
         x="299.8363"
         y="198.43039">Nation</tspan></text>
    <text
       sodipodi:linespacing="100%"
       id="text4646"
       y="182.10231"
       x="43.512089"
       style="font-size:18px;font-style:normal;font-variant:normal;font-weight:bold;font-stretch:normal;text-align:start;line-height:100%;writing-mode:lr-tb;text-anchor:start;fill:black;fill-opacity:1;stroke:none;stroke-width:1px;stroke-linecap:butt;stroke-linejoin:miter;stroke-opacity:1;font-family:Arial"
       xml:space="preserve"><tspan
         y="182.10231"
         x="43.512089"
         id="tspan4648"
         sodipodi:role="line">NATO</tspan></text>
    <text
       sodipodi:linespacing="100%"
       id="text4650"
       y="192.75461"
       x="197.81635"
       style="font-size:18px;font-style:normal;font-variant:normal;font-weight:bold;font-stretch:normal;text-align:center;line-height:100%;writing-mode:lr-tb;text-anchor:middle;fill:black;fill-opacity:1;stroke:none;stroke-width:1px;stroke-linecap:butt;stroke-linejoin:miter;stroke-opacity:1;font-family:Arial"
       xml:space="preserve"><tspan
         y="192.75461"
         x="197.81635"
         id="tspan4652"
         sodipodi:role="line">Interoperability</tspan><tspan
         y="210.75461"
         x="197.81635"
         sodipodi:role="line"
         id="tspan4654">Point</tspan></text>
    <rect
       style="opacity:1;fill:black;fill-opacity:0.95394736;fill-rule:evenodd;stroke:black;stroke-width:1.03908134;stroke-linejoin:round;stroke-miterlimit:4;stroke-dasharray:none;stroke-opacity:1"
       id="rect4672"
       width="102.99648"
       height="1.4761475"
       x="145.98659"
       y="159.77335" />
    <path
       style="fill:black;fill-opacity:1;fill-rule:evenodd;stroke:black;stroke-width:1px;stroke-linecap:butt;stroke-linejoin:miter;stroke-opacity:1"
       d="M 138.75,160.07143 L 145.71428,156.14286 L 145.71428,164.17857 L 138.75,160.07143 z "
       id="path6444" />
    <path
       id="path7331"
       d="M 256.42857,160.25 L 249.46429,156.32143 L 249.46429,164.35714 L 256.42857,160.25 z "
       style="fill:black;fill-opacity:1;fill-rule:evenodd;stroke:black;stroke-width:1px;stroke-linecap:butt;stroke-linejoin:miter;stroke-opacity:1" />
    <text
       xml:space="preserve"
       style="font-size:20px;font-style:normal;font-variant:normal;font-weight:bold;font-stretch:normal;text-align:start;line-height:100%;writing-mode:lr-tb;text-anchor:start;fill:#007f7f;fill-opacity:1;stroke:none;stroke-width:1px;stroke-linecap:butt;stroke-linejoin:miter;stroke-opacity:1;font-family:Arial"
       x="172.91742"
       y="22.544584"
       id="text7333"
       sodipodi:linespacing="100%"><tspan
         sodipodi:role="line"
         id="tspan7335"
         x="172.91742"
         y="22.544584">Service</tspan></text>
    <path
       sodipodi:type="spiral"
       style="fill:none;fill-opacity:1;fill-rule:evenodd;stroke:#007f7f;stroke-width:0.41582221;stroke-linecap:butt;stroke-linejoin:miter;stroke-miterlimit:4;stroke-dasharray:0.8316444, 0.4158222;stroke-dashoffset:0;stroke-opacity:1"
       id="path7337"
       sodipodi:cx="99.370941"
       sodipodi:cy="118.80006"
       sodipodi:expansion="1"
       sodipodi:revolution="1.0519041"
       sodipodi:radius="32.807861"
       sodipodi:argument="-19.494936"
       sodipodi:t0="0.66114509"
       d="M 81.26006,106.86335 C 86.356113,93.232197 102.96005,88.595801 115.59858,94.178791 C 122.06309,97.034449 127.33295,102.21784 130.52098,108.50294"
       transform="matrix(4.337323,0,0,5.33363,-251.2586,-451.1687)" />
  </g>
</svg>
