<?xml version="1.0" encoding="UTF-8" standalone="no"?>
<!DOCTYPE svg PUBLIC "-//W3C//DTD SVG 1.0//EN" "http://www.w3.org/TR/2001/REC-SVG-20010904/DTD/svg10.dtd">
<!-- Generiert durch Microsoft Visio 11.0, SVG Export, v1.0 infrastructuresynchronisation.svg Page-1 -->
<svg xmlns="http://www.w3.org/2000/svg" xmlns:v="http://schemas.microsoft.com/visio/2003/SVGExtensions/" width="7.42157in"
		height="4.06341in" viewBox="0 0 534.353 292.566" xml:space="preserve" color-interpolation-filters="sRGB" class="st20">
	<v:documentProperties v:langID="1031" v:metric="true" v:viewMarkup="false"/>

	<style type="text/css">
	<![CDATA[
		.st1 {fill:#00ccff;fill-opacity:0.2;stroke:#000000;stroke-linecap:round;stroke-linejoin:round;stroke-opacity:0.2;stroke-width:0.24}
		.st2 {stroke:#000000;stroke-linecap:round;stroke-linejoin:round;stroke-width:2.16}
		.st3 {fill:#800000;fill-opacity:0.2;stroke:#000000;stroke-dasharray:5.04,3.6;stroke-linecap:round;stroke-linejoin:round;stroke-opacity:0.2;stroke-width:0.72}
		.st4 {fill:#000000;stroke:#000000;stroke-linecap:round;stroke-linejoin:round;stroke-width:0.72}
		.st5 {fill:#c0c0c0;stroke:#000000;stroke-linecap:round;stroke-linejoin:round;stroke-width:0.72}
		.st6 {fill:none;stroke:none;stroke-linecap:round;stroke-linejoin:round;stroke-width:0.72}
		.st7 {fill:#000000;font-family:Arial;font-size:1.16666em;font-weight:bold}
		.st8 {fill:#ffcc99;stroke:#000000;stroke-linecap:round;stroke-linejoin:round;stroke-width:0.72}
		.st9 {fill:#000000;font-family:Arial;font-size:1.00001em;font-weight:bold}
		.st10 {fill:#800000;stroke:#000000;stroke-linecap:round;stroke-linejoin:round;stroke-width:0.24}
		.st11 {fill:#0000ff;stroke:#000000;stroke-linecap:round;stroke-linejoin:round;stroke-width:0.72}
		.st12 {fill:#ffffff;font-family:Arial;font-size:1.16666em;font-weight:bold}
		.st13 {fill:#00ccff;stroke:#000000;stroke-linecap:round;stroke-linejoin:round;stroke-width:0.24}
		.st14 {font-size:1em}
		.st15 {fill:#00ff00;stroke:#000000;stroke-linecap:round;stroke-linejoin:round;stroke-width:0.72}
		.st16 {marker-end:url(#mrkr13-144);marker-start:url(#mrkr13-142);stroke:#ff0000;stroke-linecap:round;stroke-linejoin:round;stroke-width:2.16}
		.st17 {fill:#ff0000;fill-opacity:1;stroke:#ff0000;stroke-opacity:1;stroke-width:0.46153846153846}
		.st18 {fill:#ff0000;font-family:Arial;font-size:1.16666em;font-weight:bold}
		.st19 {fill:#000000;font-family:Arial;font-size:0.916672em}
		.st20 {fill:none;fill-rule:evenodd;font-size:12;overflow:visible;stroke-linecap:square;stroke-miterlimit:3}
	]]>
	</style>

	<defs id="Markers">
		<g id="lend13">
			<path d="M 3 1 L -0 0 L 3 -1 L 3 1 " style="stroke:none"/>
		</g>
		<marker id="mrkr13-142" class="st17" v:arrowType="13" v:arrowSize="2" v:setback="6.33333" refX="6.3333333333333"
				orient="auto" markerUnits="strokeWidth">
			<use xlink:href="#lend13" transform="scale(2.1666666666667) "/>
		</marker>
		<marker id="mrkr13-144" class="st17" v:arrowType="13" v:arrowSize="2" v:setback="6.5" refX="-6.5" orient="auto"
				markerUnits="strokeWidth">
			<use xlink:href="#lend13" transform="scale(-2.1666666666667,-2.1666666666667) "/>
		</marker>
	</defs>
	<g v:mID="0" v:index="1" v:groupContext="foregroundPage">
		<title>Page-1</title>
		<v:pageProperties v:drawingScale="0.0393701" v:pageScale="0.0393701" v:drawingUnits="24" v:shadowOffsetX="8.50394"
				v:shadowOffsetY="-8.50394"/>
		<g id="shape1-1" v:mID="1" v:groupContext="shape" transform="translate(295.587,-110.618)">
			<title>Tabelle.1</title>
			<rect x="0" y="167.322" width="222.664" height="125.243" class="st1"/>
		</g>
		<g id="group2-3" transform="translate(341.556,-114.337)" v:mID="2" v:groupContext="group">
			<title>Tabelle.2</title>
			<g id="shape3-4" v:mID="3" v:groupContext="shape" transform="translate(292.566,289.092) rotate(90) scale(-1,1)">
				<title>Tabelle.3</title>
				<path d="M0 292.57 L12.72 292.57" class="st2"/>
			</g>
		</g>
		<g id="shape4-7" v:mID="4" v:groupContext="shape" transform="translate(5.80946,-110.079)">
			<title>Tabelle.4</title>
			<path d="M0 292.57 L222.66 292.57 L222.66 167.32 L0 167.32 L0 292.57 Z" class="st3"/>
		</g>
		<g id="group5-9" transform="translate(43.0262,-110.563)" v:mID="5" v:groupContext="group">
			<title>Tabelle.5</title>
			<g id="shape6-10" v:mID="6" v:groupContext="shape" transform="translate(298.928,292.566) rotate(90) scale(-1,1)">
				<title>Tabelle.6</title>
				<path d="M0 292.57 L17.65 292.57" class="st2"/>
			</g>
			<g id="shape7-13" v:mID="7" v:groupContext="shape" transform="translate(0,556.352) scale(1,-1)">
				<title>Tabelle.7</title>
				<ellipse cx="6.36183" cy="286.204" rx="6.36183" ry="6.36183" class="st4"/>
			</g>
		</g>
		<g id="group8-15" transform="translate(0.72,-54.2111)" v:mID="8" v:groupContext="group">
			<title>Tabelle.8</title>
			<g id="shape9-16" v:mID="9" v:groupContext="shape">
				<title>Tabelle.9</title>
				<rect x="0" y="236.213" width="97.336" height="56.3524" rx="11.3386" ry="11.3386" class="st5"/>
			</g>
			<g id="shape10-18" v:mID="10" v:groupContext="shape" transform="translate(6.11908,-14.5864)">
				<title>Tabelle.10</title>
				<desc>Provider</desc>
				<v:textBlock v:margins="rect(4,4,4,4)" v:tabSpace="42.5197"/>
				<v:textRect cx="43.047" cy="278.976" width="86.1" height="27.1796"/>
				<rect x="0" y="265.386" width="86.094" height="27.1796" class="st6"/>
				<text x="14.65" y="283.18" class="st7" v:langID="1031"><v:paragraph v:horizAlign="1"/><v:tabList/>Provider</text>			</g>
		</g>
		<g id="group11-21" transform="translate(107.599,-55.049)" v:mID="11" v:groupContext="group">
			<title>Tabelle.11</title>
			<g id="shape12-22" v:mID="12" v:groupContext="shape">
				<title>Tabelle.12</title>
				<rect x="0" y="237.612" width="120.875" height="54.9541" rx="11.3386" ry="11.3386" class="st8"/>
			</g>
			<g id="shape13-24" v:mID="13" v:groupContext="shape" transform="translate(7.59885,-14.2245)">
				<title>Tabelle.13</title>
				<desc>Infrastructure</desc>
				<v:textBlock v:margins="rect(4,4,4,4)" v:tabSpace="42.5197"/>
				<v:textRect cx="53.457" cy="279.313" width="106.92" height="26.5052"/>
				<rect x="0" y="266.061" width="106.914" height="26.5052" class="st6"/>
				<text x="14.44" y="282.91" class="st9" v:langID="1031"><v:paragraph v:horizAlign="1"/><v:tabList/>Infrastructure</text>			</g>
		</g>
		<g id="group14-27" transform="translate(172.542,-110.563)" v:mID="14" v:groupContext="group">
			<title>Tabelle.14</title>
			<g id="shape15-28" v:mID="15" v:groupContext="shape" transform="translate(298.928,289.589) rotate(90) scale(-1,1)">
				<title>Tabelle.15</title>
				<path d="M0 292.57 L12.72 292.57" class="st2"/>
			</g>
			<g id="shape16-31" v:mID="16" v:groupContext="shape" transform="translate(0,556.352) scale(1,-1)">
				<title>Tabelle.16</title>
				<ellipse cx="6.36183" cy="286.204" rx="6.36183" ry="6.36183" class="st4"/>
			</g>
		</g>
		<g id="group17-33" transform="translate(129.07,-110.563)" v:mID="17" v:groupContext="group">
			<title>Tabelle.17</title>
			<g id="shape18-34" v:mID="18" v:groupContext="shape" transform="translate(298.928,292.566) rotate(90) scale(-1,1)">
				<title>Tabelle.18</title>
				<path d="M0 292.57 L17.65 292.57" class="st2"/>
			</g>
			<g id="shape19-37" v:mID="19" v:groupContext="shape" transform="translate(0,556.352) scale(1,-1)">
				<title>Tabelle.19</title>
				<ellipse cx="6.36183" cy="286.204" rx="6.36183" ry="6.36183" class="st4"/>
			</g>
		</g>
		<g id="group20-39" transform="translate(150.806,-110.563)" v:mID="20" v:groupContext="group">
			<title>Tabelle.20</title>
			<g id="shape21-40" v:mID="21" v:groupContext="shape" transform="translate(298.928,287.604) rotate(90) scale(-1,1)">
				<title>Tabelle.21</title>
				<path d="M0 292.57 L12.72 292.57" class="st2"/>
			</g>
			<g id="shape22-43" v:mID="22" v:groupContext="shape" transform="translate(0,556.352) scale(1,-1)">
				<title>Tabelle.22</title>
				<ellipse cx="6.36183" cy="286.204" rx="6.36183" ry="6.36183" class="st4"/>
			</g>
		</g>
		<g id="group23-45" transform="translate(194.279,-110.563)" v:mID="23" v:groupContext="group">
			<title>Tabelle.23</title>
			<g id="shape24-46" v:mID="24" v:groupContext="shape" transform="translate(298.928,289.092) rotate(90) scale(-1,1)">
				<title>Tabelle.24</title>
				<path d="M0 292.57 L12.72 292.57" class="st2"/>
			</g>
			<g id="shape25-49" v:mID="25" v:groupContext="shape" transform="translate(0,556.352) scale(1,-1)">
				<title>Tabelle.25</title>
				<ellipse cx="6.36183" cy="286.204" rx="6.36183" ry="6.36183" class="st4"/>
			</g>
		</g>
		<g id="shape26-51" v:mID="26" v:groupContext="shape" transform="translate(36.6643,-97.8398)">
			<title>Diamond</title>
			<v:userDefs>
				<v:ud v:nameU="visVersion" v:val="VT0(11):26"/>
			</v:userDefs>
			<path d="M0 279.84 L12.72 267.12 L25.45 279.84 L12.72 292.57 L0 279.84 Z" class="st10"/>
		</g>
		<g id="shape27-53" v:mID="27" v:groupContext="shape" transform="translate(122.708,-97.8398)">
			<title>Diamond.24</title>
			<v:userDefs>
				<v:ud v:nameU="visVersion" v:val="VT0(11):26"/>
			</v:userDefs>
			<path d="M0 279.84 L12.72 267.12 L25.45 279.84 L12.72 292.57 L0 279.84 Z" class="st10"/>
		</g>
		<g id="shape28-55" v:mID="28" v:groupContext="shape" transform="translate(144.444,-97.8398)">
			<title>Diamond.25</title>
			<v:userDefs>
				<v:ud v:nameU="visVersion" v:val="VT0(11):26"/>
			</v:userDefs>
			<path d="M0 279.84 L12.72 267.12 L25.45 279.84 L12.72 292.57 L0 279.84 Z" class="st10"/>
		</g>
		<g id="shape29-57" v:mID="29" v:groupContext="shape" transform="translate(166.181,-97.4667)">
			<title>Diamond.26</title>
			<v:userDefs>
				<v:ud v:nameU="visVersion" v:val="VT0(11):26"/>
			</v:userDefs>
			<path d="M0 279.84 L12.72 267.12 L25.45 279.84 L12.72 292.57 L0 279.84 Z" class="st10"/>
		</g>
		<g id="shape30-59" v:mID="30" v:groupContext="shape" transform="translate(187.917,-97.8398)">
			<title>Diamond.27</title>
			<v:userDefs>
				<v:ud v:nameU="visVersion" v:val="VT0(11):26"/>
			</v:userDefs>
			<path d="M0 279.84 L12.72 267.12 L25.45 279.84 L12.72 292.57 L0 279.84 Z" class="st10"/>
		</g>
		<g id="group31-61" transform="translate(47.7975,-234.955)" v:mID="31" v:groupContext="group">
			<title>Tabelle.31</title>
			<g id="shape32-62" v:mID="32" v:groupContext="shape">
				<title>Tabelle.32</title>
				<rect x="0" y="236.213" width="97.336" height="56.3524" rx="11.3386" ry="11.3386" class="st5"/>
			</g>
			<g id="shape33-64" v:mID="33" v:groupContext="shape" transform="translate(6.11908,-14.5864)">
				<title>Tabelle.33</title>
				<desc>Consumer</desc>
				<v:textBlock v:margins="rect(4,4,4,4)" v:tabSpace="42.5197"/>
				<v:textRect cx="43.047" cy="278.976" width="86.1" height="27.1796"/>
				<rect x="0" y="265.386" width="86.094" height="27.1796" class="st6"/>
				<text x="8.43" y="283.18" class="st7" v:langID="1031"><v:paragraph v:horizAlign="1"/><v:tabList/>Consumer</text>			</g>
		</g>
		<g id="shape34-67" v:mID="34" v:groupContext="shape" transform="translate(85.3323,-222.917)">
			<title>Diamond.32</title>
			<v:userDefs>
				<v:ud v:nameU="visVersion" v:val="VT0(11):26"/>
			</v:userDefs>
			<path d="M0 279.84 L12.72 267.12 L25.45 279.84 L12.72 292.57 L0 279.84 Z" class="st10"/>
		</g>
		<g id="group35-69" transform="translate(473.227,-111.102)" v:mID="35" v:groupContext="group">
			<title>Tabelle.35</title>
			<g id="shape36-70" v:mID="36" v:groupContext="shape" transform="translate(298.928,292.566) rotate(90) scale(-1,1)">
				<title>Tabelle.36</title>
				<path d="M0 292.57 L17.65 292.57" class="st2"/>
			</g>
			<g id="shape37-73" v:mID="37" v:groupContext="shape" transform="translate(0,556.352) scale(1,-1)">
				<title>Tabelle.37</title>
				<ellipse cx="6.36183" cy="286.204" rx="6.36183" ry="6.36183" class="st4"/>
			</g>
		</g>
		<g id="group38-75" transform="translate(430.921,-54.7499)" v:mID="38" v:groupContext="group">
			<title>Tabelle.38</title>
			<g id="shape39-76" v:mID="39" v:groupContext="shape">
				<title>Tabelle.39</title>
				<rect x="0" y="236.213" width="97.336" height="56.3524" rx="11.3386" ry="11.3386" class="st11"/>
			</g>
			<g id="shape40-78" v:mID="40" v:groupContext="shape" transform="translate(6.11908,-14.5864)">
				<title>Tabelle.40</title>
				<desc>Provider</desc>
				<v:textBlock v:margins="rect(4,4,4,4)" v:tabSpace="42.5197"/>
				<v:textRect cx="43.047" cy="278.976" width="86.1" height="27.1796"/>
				<rect x="0" y="265.386" width="86.094" height="27.1796" class="st6"/>
				<text x="14.65" y="283.18" class="st12" v:langID="1031"><v:paragraph v:horizAlign="1"/><v:tabList/>Provider</text>			</g>
		</g>
		<g id="shape41-81" v:mID="41" v:groupContext="shape" transform="translate(466.865,-98.3787)">
			<title>Diamond.56</title>
			<v:userDefs>
				<v:ud v:nameU="visVersion" v:val="VT0(11):26"/>
			</v:userDefs>
			<path d="M0 279.84 L12.72 267.12 L25.45 279.84 L12.72 292.57 L0 279.84 Z" class="st13"/>
		</g>
		<g id="group42-83" transform="translate(337.575,-235.493)" v:mID="42" v:groupContext="group">
			<title>Tabelle.42</title>
			<g id="shape43-84" v:mID="43" v:groupContext="shape">
				<title>Tabelle.43</title>
				<rect x="0" y="236.213" width="97.336" height="56.3524" rx="11.3386" ry="11.3386" class="st11"/>
			</g>
			<g id="shape44-86" v:mID="44" v:groupContext="shape" transform="translate(6.11908,-14.5864)">
				<title>Tabelle.44</title>
				<desc>Consumer</desc>
				<v:textBlock v:margins="rect(4,4,4,4)" v:tabSpace="42.5197"/>
				<v:textRect cx="43.047" cy="278.976" width="86.1" height="27.1796"/>
				<rect x="0" y="265.386" width="86.094" height="27.1796" class="st6"/>
				<text x="8.43" y="283.18" class="st12" v:langID="1031"><v:paragraph v:horizAlign="1"/><v:tabList/>Consumer</text>			</g>
		</g>
		<g id="shape45-89" v:mID="45" v:groupContext="shape" transform="translate(375.11,-223.456)">
			<title>Diamond.65</title>
			<v:userDefs>
				<v:ud v:nameU="visVersion" v:val="VT0(11):26"/>
			</v:userDefs>
			<path d="M0 279.84 L12.72 267.12 L25.45 279.84 L12.72 292.57 L0 279.84 Z" class="st13"/>
		</g>
		<g id="shape46-91" v:mID="46" v:groupContext="shape" transform="translate(6.38929,-180.058)">
			<title>Tabelle.46</title>
			<desc>ESB A (domain A)</desc>
			<v:textBlock v:margins="rect(4,4,4,4)" v:tabSpace="42.5197"/>
			<v:textRect cx="58.9812" cy="272.66" width="117.97" height="39.8119"/>
			<rect x="0" y="252.754" width="117.962" height="39.8119" class="st6"/>
			<text x="37.58" y="268.46" class="st7" v:langID="1031"><v:paragraph v:horizAlign="1"/><v:tabList/>ESB A<v:lf/><tspan
						x="22.42" dy="1.2em" class="st14">(</tspan>domain A)</text>		</g>
		<g id="shape47-95" v:mID="47" v:groupContext="shape" transform="translate(417.413,-180.851)">
			<title>Tabelle.47</title>
			<desc>ESB B (domain B)</desc>
			<v:textBlock v:margins="rect(4,4,4,4)" v:tabSpace="42.5197"/>
			<v:textRect cx="58.1102" cy="274.474" width="116.23" height="36.1842"/>
			<rect x="0" y="256.382" width="116.22" height="36.1842" class="st6"/>
			<text x="36.71" y="270.27" class="st7" v:langID="1031"><v:paragraph v:horizAlign="1"/><v:tabList/>ESB B<v:lf/><tspan
						x="21.55" dy="1.2em" class="st14">(</tspan>domain B)</text>		</g>
		<g id="group48-99" transform="translate(291.986,-56.2826)" v:mID="48" v:groupContext="group">
			<title>Tabelle.48</title>
			<g id="group49-100" v:mID="49" v:groupContext="group">
				<title>Tabelle.49</title>
				<g id="shape50-101" v:mID="50" v:groupContext="shape">
					<title>Tabelle.50</title>
					<rect x="0" y="237.612" width="120.875" height="54.9541" rx="11.3386" ry="11.3386" class="st15"/>
				</g>
				<g id="shape51-103" v:mID="51" v:groupContext="shape" transform="translate(7.59885,-14.2245)">
					<title>Tabelle.51</title>
					<desc>Infrastructure</desc>
					<v:textBlock v:margins="rect(4,4,4,4)" v:tabSpace="42.5197"/>
					<v:textRect cx="53.457" cy="279.313" width="106.92" height="26.5052"/>
					<rect x="0" y="266.061" width="106.914" height="26.5052" class="st6"/>
					<text x="14.44" y="282.91" class="st9" v:langID="1031"><v:paragraph v:horizAlign="1"/><v:tabList/>Infrastructure</text>				</g>
			</g>
			<g id="group52-106" transform="translate(21.4712,-55.5145)" v:mID="52" v:groupContext="group">
				<title>Tabelle.52</title>
				<g id="group53-107" transform="translate(43.4725,-5.68434E-014)" v:mID="53" v:groupContext="group">
					<title>Tabelle.53</title>
					<g id="shape54-108" v:mID="54" v:groupContext="shape"
							transform="translate(298.928,292.566) rotate(90) scale(-1,1)">
						<title>Tabelle.54</title>
						<path d="M0 292.57 L16.06 292.57" class="st2"/>
					</g>
					<g id="shape55-111" v:mID="55" v:groupContext="shape" transform="translate(0,556.352) scale(1,-1)">
						<title>Tabelle.55</title>
						<ellipse cx="6.36183" cy="286.204" rx="6.36183" ry="6.36183" class="st4"/>
					</g>
				</g>
				<g id="group56-113" v:mID="56" v:groupContext="group">
					<title>Tabelle.56</title>
					<g id="shape57-114" v:mID="57" v:groupContext="shape"
							transform="translate(298.928,292.566) rotate(90) scale(-1,1)">
						<title>Tabelle.57</title>
						<path d="M0 292.57 L17.65 292.57" class="st2"/>
					</g>
					<g id="shape58-117" v:mID="58" v:groupContext="shape" transform="translate(0,556.352) scale(1,-1)">
						<title>Tabelle.58</title>
						<ellipse cx="6.36183" cy="286.204" rx="6.36183" ry="6.36183" class="st4"/>
					</g>
				</g>
				<g id="group59-119" transform="translate(21.7362,0)" v:mID="59" v:groupContext="group">
					<title>Tabelle.59</title>
					<g id="shape60-120" v:mID="60" v:groupContext="shape" transform="translate(0,556.352) scale(1,-1)">
						<title>Tabelle.60</title>
						<ellipse cx="6.36183" cy="286.204" rx="6.36183" ry="6.36183" class="st4"/>
					</g>
				</g>
				<g id="group61-122" transform="translate(65.2087,0)" v:mID="61" v:groupContext="group">
					<title>Tabelle.61</title>
					<g id="shape62-123" v:mID="62" v:groupContext="shape"
							transform="translate(298.928,292.566) rotate(90) scale(-1,1)">
						<title>Tabelle.62</title>
						<path d="M0 292.57 L16.06 292.57" class="st2"/>
					</g>
					<g id="shape63-126" v:mID="63" v:groupContext="shape" transform="translate(0,556.352) scale(1,-1)">
						<title>Tabelle.63</title>
						<ellipse cx="6.36183" cy="286.204" rx="6.36183" ry="6.36183" class="st4"/>
					</g>
				</g>
			</g>
			<g id="shape64-128" v:mID="64" v:groupContext="shape" transform="translate(15.1093,-42.7909)">
				<title>Diamond.57</title>
				<v:userDefs>
					<v:ud v:nameU="visVersion" v:val="VT0(11):26"/>
				</v:userDefs>
				<path d="M0 279.84 L12.72 267.12 L25.45 279.84 L12.72 292.57 L0 279.84 Z" class="st13"/>
			</g>
			<g id="shape65-130" v:mID="65" v:groupContext="shape" transform="translate(36.8456,-42.7909)">
				<title>Diamond.58</title>
				<v:userDefs>
					<v:ud v:nameU="visVersion" v:val="VT0(11):26"/>
				</v:userDefs>
				<path d="M0 279.84 L12.72 267.12 L25.45 279.84 L12.72 292.57 L0 279.84 Z" class="st13"/>
			</g>
			<g id="shape66-132" v:mID="66" v:groupContext="shape" transform="translate(58.5818,-42.7909)">
				<title>Diamond.59</title>
				<v:userDefs>
					<v:ud v:nameU="visVersion" v:val="VT0(11):26"/>
				</v:userDefs>
				<path d="M0 279.84 L12.72 267.12 L25.45 279.84 L12.72 292.57 L0 279.84 Z" class="st13"/>
			</g>
			<g id="shape67-134" v:mID="67" v:groupContext="shape" transform="translate(80.3181,-42.7909)">
				<title>Diamond.61</title>
				<v:userDefs>
					<v:ud v:nameU="visVersion" v:val="VT0(11):26"/>
				</v:userDefs>
				<path d="M0 279.84 L12.72 267.12 L25.45 279.84 L12.72 292.57 L0 279.84 Z" class="st13"/>
			</g>
		</g>
		<g id="shape68-136" v:mID="68" v:groupContext="shape" transform="translate(201.431,-145.598)">
			<title>Tabelle.68</title>
			<path d="M0 278.89 L0 278.53 L0 267.76 L117.85 267.76 L117.85 278.53" class="st16"/>
		</g>
		<g id="shape69-145" v:mID="69" v:groupContext="shape" transform="translate(185.305,-174.262)">
			<title>Tabelle.69</title>
			<desc>Synchronization of the Infrastructure</desc>
			<v:textBlock v:margins="rect(4,4,4,4)" v:tabSpace="42.5197"/>
			<v:textRect cx="74.4292" cy="278.266" width="148.86" height="28.6001"/>
			<rect x="0" y="263.966" width="148.858" height="28.6001" class="st6"/>
			<text x="11.43" y="274.07" class="st18" v:langID="1031"><v:paragraph v:horizAlign="1"/><v:tabList/>Synchronization of <v:lf/><tspan
						x="16.47" dy="1.2em" class="st14">the Infrastructure</tspan></text>		</g>
		<g id="shape70-149" v:mID="70" v:groupContext="shape" transform="translate(19.8985,563.401) scale(1,-1)">
			<title>Tabelle.70</title>
			<ellipse cx="6.32616" cy="286.24" rx="6.32616" ry="6.32616" class="st4"/>
		</g>
		<g id="shape71-151" v:mID="71" v:groupContext="shape" transform="translate(124.276,-6.6751)">
			<title>Diamond.48</title>
			<v:userDefs>
				<v:ud v:nameU="visVersion" v:val="VT0(11):26"/>
			</v:userDefs>
			<path d="M0 283.43 L9.14 274.29 L18.28 283.43 L9.14 292.57 L0 283.43 Z" class="st10"/>
		</g>
		<g id="shape72-153" v:mID="72" v:groupContext="shape" transform="translate(13.4759,-7.06312)">
			<title>Tabelle.72</title>
			<desc>Service Point</desc>
			<v:textBlock v:margins="rect(4,4,4,4)" v:tabSpace="42.5197"/>
			<v:textRect cx="58.9287" cy="284.364" width="117.86" height="16.4036"/>
			<rect x="0" y="276.162" width="117.857" height="16.4036" class="st6"/>
			<text x="26.52" y="287.66" class="st19" v:langID="1031"><v:paragraph v:horizAlign="1"/><v:tabList/>Service Point</text>		</g>
		<g id="shape73-156" v:mID="73" v:groupContext="shape" transform="translate(120.973,-0.72)">
			<title>Tabelle.73</title>
			<desc>ESB-Stub</desc>
			<v:textBlock v:margins="rect(4,4,4,4)" v:tabSpace="42.5197"/>
			<v:textRect cx="58.9287" cy="279.067" width="117.86" height="26.9987"/>
			<rect x="0" y="265.567" width="117.857" height="26.9987" class="st6"/>
			<text x="34.77" y="282.37" class="st19" v:langID="1031"><v:paragraph v:horizAlign="1"/><v:tabList/>ESB-Stub</text>		</g>
	</g>
</svg>
