<?xml version="1.0" encoding="UTF-8" standalone="no"?>
<!-- Created with Inkscape (http://www.inkscape.org/) -->

<svg
   xmlns:dc="http://purl.org/dc/elements/1.1/"
   xmlns:cc="http://creativecommons.org/ns#"
   xmlns:rdf="http://www.w3.org/1999/02/22-rdf-syntax-ns#"
   xmlns:svg="http://www.w3.org/2000/svg"
   xmlns="http://www.w3.org/2000/svg"
   xmlns:xlink="http://www.w3.org/1999/xlink"
   xmlns:sodipodi="http://sodipodi.sourceforge.net/DTD/sodipodi-0.dtd"
   xmlns:inkscape="http://www.inkscape.org/namespaces/inkscape"
   width="1310.3125"
   height="861.75"
   id="svg5247"
   version="1.1"
   inkscape:version="0.48.1 r9760"
   sodipodi:docname="ipcat-final.svg">
  <title
     id="title3055">IP CaT logo</title>
  <defs
     id="defs5249">
    <filter
       id="filter7809"
       inkscape:label="Combined lighting"
       inkscape:menu="Bevels"
       inkscape:menu-tooltip="Basic specular bevel to use for building textures"
       color-interpolation-filters="sRGB">
      <feGaussianBlur
         id="feGaussianBlur7811"
         stdDeviation="6"
         in="SourceGraphic"
         result="result0" />
      <feDiffuseLighting
         id="feDiffuseLighting7813"
         lighting-color="#ffffff"
         diffuseConstant="1"
         surfaceScale="4"
         result="result5">
        <feDistantLight
           id="feDistantLight7815"
           elevation="45"
           azimuth="235" />
      </feDiffuseLighting>
      <feComposite
         id="feComposite7817"
         in2="SourceGraphic"
         k1="1.4"
         in="result5"
         result="fbSourceGraphic"
         operator="arithmetic"
         k2="0"
         k3="0"
         k4="0" />
      <feGaussianBlur
         id="feGaussianBlur7819"
         result="result0"
         in="fbSourceGraphic"
         stdDeviation="6" />
      <feSpecularLighting
         id="feSpecularLighting7821"
         specularExponent="25"
         specularConstant="1"
         surfaceScale="4"
         lighting-color="#ffffff"
         result="result1"
         in="result0">
        <feDistantLight
           id="feDistantLight7823"
           azimuth="235"
           elevation="45" />
      </feSpecularLighting>
      <feComposite
         id="feComposite7825"
         in2="result1"
         k3="1"
         k2="1"
         operator="arithmetic"
         result="result4"
         in="fbSourceGraphic"
         k1="0"
         k4="0" />
      <feComposite
         id="feComposite7827"
         in2="SourceGraphic"
         operator="in"
         result="result2"
         in="result4" />
    </filter>
    <linearGradient
       inkscape:collect="always"
       xlink:href="#linearGradient3908"
       id="linearGradient4661"
       x1="867.3255"
       y1="473.80844"
       x2="868.18378"
       y2="-196.60078"
       gradientUnits="userSpaceOnUse" />
    <linearGradient
       id="linearGradient3908">
      <stop
         style="stop-color:#0b3864;stop-opacity:1;"
         offset="0"
         id="stop3910" />
      <stop
         style="stop-color:#ffffff;stop-opacity:1;"
         offset="1"
         id="stop3912" />
    </linearGradient>
    <radialGradient
       inkscape:collect="always"
       xlink:href="#linearGradient4681"
       id="radialGradient4689"
       cx="872.33319"
       cy="544.37256"
       fx="872.33319"
       fy="544.37256"
       r="188.82857"
       gradientUnits="userSpaceOnUse" />
    <linearGradient
       inkscape:collect="always"
       id="linearGradient4681">
      <stop
         style="stop-color:#ffffff;stop-opacity:1;"
         offset="0"
         id="stop4683" />
      <stop
         style="stop-color:#ffffff;stop-opacity:0;"
         offset="1"
         id="stop4685" />
    </linearGradient>
    <linearGradient
       inkscape:collect="always"
       xlink:href="#linear3"
       id="linearGradient3276"
       gradientUnits="userSpaceOnUse"
       gradientTransform="matrix(0.9375,0,0,0.9375,-1802.1433,-835.01565)"
       x1="442.77734"
       y1="167.85547"
       x2="638.92969"
       y2="167.85547" />
    <linearGradient
       id="linear3"
       gradientUnits="userSpaceOnUse"
       x1="442.77734"
       y1="167.85547"
       x2="638.92969"
       y2="167.85547"
       gradientTransform="matrix(0.75,0,0,0.75,121.25,241.25)">
      <stop
         offset="0"
         style="stop-color:rgb(100%,100%,100%);stop-opacity:1;"
         id="stop96" />
      <stop
         offset="0.0026"
         style="stop-color:rgb(100%,99.215686%,99.215686%);stop-opacity:1;"
         id="stop98" />
      <stop
         offset="0.1198"
         style="stop-color:rgb(98.039216%,80%,73.72549%);stop-opacity:1;"
         id="stop100" />
      <stop
         offset="0.2395"
         style="stop-color:rgb(96.862745%,65.098039%,55.686275%);stop-opacity:1;"
         id="stop102" />
      <stop
         offset="0.3609"
         style="stop-color:rgb(94.901961%,52.54902%,42.352941%);stop-opacity:1;"
         id="stop104" />
      <stop
         offset="0.4834"
         style="stop-color:rgb(94.117647%,42.352941%,32.941176%);stop-opacity:1;"
         id="stop106" />
      <stop
         offset="0.6073"
         style="stop-color:rgb(92.941176%,32.941176%,25.490196%);stop-opacity:1;"
         id="stop108" />
      <stop
         offset="0.7332"
         style="stop-color:rgb(92.54902%,25.098039%,21.176471%);stop-opacity:1;"
         id="stop110" />
      <stop
         offset="0.8624"
         style="stop-color:rgb(92.156863%,20%,18.823529%);stop-opacity:1;"
         id="stop112" />
      <stop
         offset="1"
         style="stop-color:rgb(92.156863%,17.647059%,18.039216%);stop-opacity:1;"
         id="stop114" />
    </linearGradient>
    <linearGradient
       inkscape:collect="always"
       xlink:href="#linear2"
       id="linearGradient3279"
       gradientUnits="userSpaceOnUse"
       gradientTransform="matrix(0.9375,0,0,0.9375,-1802.1433,-835.01565)"
       x1="237.49219"
       y1="436.95703"
       x2="573.35938"
       y2="436.95703" />
    <linearGradient
       id="linear2"
       gradientUnits="userSpaceOnUse"
       x1="237.49219"
       y1="436.95703"
       x2="573.35938"
       y2="436.95703"
       gradientTransform="matrix(0.75,0,0,0.75,121.25,241.25)">
      <stop
         offset="0"
         style="stop-color:rgb(32.941176%,72.54902%,28.235294%);stop-opacity:1;"
         id="stop89" />
      <stop
         offset="0.3764"
         style="stop-color:rgb(0%,65.098039%,31.764706%);stop-opacity:1;"
         id="stop91" />
      <stop
         offset="1"
         style="stop-color:rgb(0%,34.509804%,14.901961%);stop-opacity:1;"
         id="stop93" />
    </linearGradient>
    <linearGradient
       inkscape:collect="always"
       xlink:href="#linear1"
       id="linearGradient3282"
       gradientUnits="userSpaceOnUse"
       gradientTransform="matrix(0.9375,0,0,0.9375,-1802.1433,-835.01565)"
       x1="71.925781"
       y1="216.50781"
       x2="457.29297"
       y2="216.50781" />
    <linearGradient
       id="linear1"
       gradientUnits="userSpaceOnUse"
       x1="71.925781"
       y1="216.50781"
       x2="457.29297"
       y2="216.50781"
       gradientTransform="matrix(0.75,0,0,0.75,121.25,241.25)">
      <stop
         offset="0"
         style="stop-color:rgb(35.686275%,34.117647%,64.705882%);stop-opacity:1;"
         id="stop82" />
      <stop
         offset="0.5"
         style="stop-color:rgb(18.039216%,18.823529%,56.862745%);stop-opacity:1;"
         id="stop84" />
      <stop
         offset="1"
         style="stop-color:rgb(27.843137%,26.27451%,45.098039%);stop-opacity:1;"
         id="stop86" />
    </linearGradient>
    <linearGradient
       id="linear0"
       gradientUnits="userSpaceOnUse"
       x1="0"
       y1="380.53125"
       x2="731.42578"
       y2="380.53125"
       gradientTransform="matrix(0.75,0,0,0.75,121.25,241.25)">
      <stop
         offset="0"
         style="stop-color:rgb(59.215686%,64.313725%,71.764706%);stop-opacity:1;"
         id="stop75" />
      <stop
         offset="0.882"
         style="stop-color:rgb(100%,100%,100%);stop-opacity:1;"
         id="stop77" />
      <stop
         offset="1"
         style="stop-color:rgb(100%,100%,100%);stop-opacity:1;"
         id="stop79" />
    </linearGradient>
    <linearGradient
       y2="380.53125"
       x2="731.42578"
       y1="380.53125"
       x1="0"
       gradientTransform="matrix(0.9375,0,0,0.9375,-1802.1433,-835.01565)"
       gradientUnits="userSpaceOnUse"
       id="linearGradient5336"
       xlink:href="#linear0"
       inkscape:collect="always" />
  </defs>
  <sodipodi:namedview
     id="base"
     pagecolor="#ffffff"
     bordercolor="#666666"
     borderopacity="1.0"
     inkscape:pageopacity="0.0"
     inkscape:pageshadow="2"
     inkscape:zoom="0.7"
     inkscape:cx="596.61023"
     inkscape:cy="452.6834"
     inkscape:document-units="px"
     inkscape:current-layer="layer1"
     showgrid="false"
     fit-margin-top="0"
     fit-margin-left="0"
     fit-margin-right="0"
     fit-margin-bottom="0"
     inkscape:window-width="1394"
     inkscape:window-height="985"
     inkscape:window-x="0"
     inkscape:window-y="0"
     inkscape:window-maximized="1" />
  <metadata
     id="metadata5252">
    <rdf:RDF>
      <cc:Work
         rdf:about="">
        <dc:format>image/svg+xml</dc:format>
        <dc:type
           rdf:resource="http://purl.org/dc/dcmitype/StillImage" />
        <dc:title>IP CaT logo</dc:title>
        <dc:creator>
          <cc:Agent>
            <dc:title>Mikael Hagenbo</dc:title>
          </cc:Agent>
        </dc:creator>
        <dc:date>December 2011</dc:date>
        <dc:description>AC/322(IP CaT) logo</dc:description>
        <dc:contributor>
          <cc:Agent>
            <dc:title>Jens Stavnstrup</dc:title>
          </cc:Agent>
        </dc:contributor>
      </cc:Work>
    </rdf:RDF>
  </metadata>
  <g
     inkscape:label="Layer 1"
     inkscape:groupmode="layer"
     id="layer1"
     transform="translate(1875.1875,888.5)">
    <path
       style="fill:url(#linearGradient5336);fill-rule:nonzero;stroke:none;display:inline"
       d="m -1802.1433,-627.98929 510.4785,-207.02636 175.2392,212.28028 -378.413,501.21581 z m 0,0"
       id="path134"
       inkscape:connector-curvature="0" />
    <path
       style="fill:url(#linearGradient3282);fill-rule:nonzero;stroke:none;display:inline"
       d="m -1373.4226,-717.3594 c -17.1582,9.52636 -31.1573,16.96778 -43.2227,21.68458 -12.5049,4.87303 -22.6269,6.70409 -31.9971,4.97557 -9.497,-1.75292 -18.0078,-7.14355 -27.3535,-16.48925 -9.331,-9.33594 -19.3506,-22.5 -31.9336,-39.75098 -0.015,-0.0146 -0.024,-0.044 -0.044,-0.0635 -0.019,-0.0292 -0.039,-0.0489 -0.059,-0.0732 -0.02,-0.0292 -0.034,-0.0489 -0.054,-0.0781 -0.01,-0.0195 -0.029,-0.0439 -0.049,-0.0635 12.6172,17.3047 20.6055,31.4795 22.7442,44.39941 2.1826,13.21778 -1.7041,25.36622 -13.3204,38.67188 -12.1875,13.96972 -33.3007,29.70704 -66.4892,50.35156 -36.5527,22.74414 -90.0733,52.87599 -169.5166,96.93849 79.4433,-44.0625 133.3838,-73.56445 172.3682,-92.73925 35.4834,-17.44629 60.7373,-27.42189 80.3906,-31.04004 18.8428,-3.46681 33.2812,-1.24513 46.3867,6.45994 12.9932,7.64162 25.0391,20.85938 38.8232,39.76075 0,-0.01 -0.01,-0.0195 -0.019,-0.0292 0,-0.01 -0.01,-0.0195 -0.02,-0.0293 0,-0.01 -0.01,-0.01 -0.019,-0.0146 -0.01,-0.01 -0.01,-0.0195 -0.02,-0.0292 -13.7597,-18.87207 -23.8671,-33.33985 -29.9804,-45.25391 -6.045,-11.76757 -8.1641,-20.99121 -6.0205,-29.35546 2.0947,-8.1836 8.2519,-15.42968 18.6035,-23.25684 9.9658,-7.5293 23.623,-15.43944 40.8008,-24.97558 z m 0,0"
       id="path136"
       inkscape:connector-curvature="0" />
    <path
       style="fill:url(#linearGradient3279);fill-rule:nonzero;stroke:none;display:inline"
       d="m -1264.6189,-575.38675 c -14.5215,14.50684 -26.4453,25.98145 -36.9727,33.7793 -10.9228,8.11035 -20.083,12.05566 -28.999,11.50391 -9.0576,-0.55176 -17.6807,-5.75684 -27.5879,-15.70312 -9.9023,-9.92677 -20.9473,-24.45802 -34.8779,-43.57423 -0.02,-0.0292 -0.039,-0.0489 -0.063,-0.0733 -0.02,-0.0292 -0.039,-0.0586 -0.059,-0.0879 -0.02,-0.0244 -0.039,-0.044 -0.054,-0.0733 -0.02,-0.0292 -0.039,-0.0586 -0.059,-0.083 13.9795,19.18945 23.2617,35.29296 26.9238,50.85937 3.7598,15.9375 1.709,31.60156 -7.3975,50.05859 -9.5898,19.43848 -27.3632,42.68555 -55.9667,74.29199 -31.6895,35.01465 -78.8624,82.70509 -149.7657,153.44727 70.9033,-70.74218 118.5547,-117.70996 152.9932,-148.69629 31.1621,-28.03223 53.5498,-44.84863 71.4648,-52.75391 17.1289,-7.56347 30.8594,-7.29492 44.0869,0 13.1006,7.21192 26.0645,21.50879 41.4112,42.55371 -0.01,-0.01 -0.02,-0.0195 -0.02,-0.0292 -0.01,-0.01 -0.019,-0.0195 -0.024,-0.0293 0,-0.005 -0.01,-0.0146 -0.019,-0.0244 -0.01,-0.01 -0.02,-0.0195 -0.02,-0.039 -15.3272,-21.01074 -26.6553,-37.18261 -33.9307,-50.8789 -7.1777,-13.51075 -10.376,-24.55079 -9.4971,-35.23926 0.8545,-10.44434 5.6006,-20.41993 14.1407,-31.78223 8.2031,-10.92285 19.7607,-22.90039 34.292,-37.42676 z m 0,0"
       id="path138"
       inkscape:connector-curvature="0" />
    <path
       style="fill:url(#linearGradient3276);fill-rule:nonzero;stroke:none;display:inline"
       d="m -1207.1384,-732.63284 c -9.5997,7.19239 -17.4024,12.74414 -24.3409,16.16211 -7.1338,3.51563 -13.2177,4.72657 -19.3652,3.22754 -6.2158,-1.51856 -12.4219,-5.77637 -19.7949,-13.06152 -7.3584,-7.28517 -15.8203,-17.50977 -26.5869,-30.93751 10.7666,13.41797 18.1152,24.35059 21.6113,34.20899 3.5693,10.03418 3.1982,19.09179 -1.6797,28.78418 -5.0537,10.0586 -15.1025,21.06445 -31.2646,35.07324 -17.3633,15.06348 -42.5538,34.2627 -78.4766,61.12305 35.9228,-26.86035 61.4697,-45.60059 80.8691,-58.03223 18.0811,-11.59667 31.6114,-18.21289 42.9737,-20.38086 10.9863,-2.08984 20.2685,-0.0733 29.6338,5.99121 9.3017,6.02051 18.8916,16.15235 30.415,30.52246 -0.01,-0.005 -0.01,-0.005 -0.02,-0.0146 0,-0.01 -0.01,-0.0195 -0.01,-0.0195 -0.01,-0.01 -0.019,-0.0195 -0.019,-0.0195 -0.01,-0.01 -0.01,-0.0195 -0.02,-0.0292 -11.5039,-14.34081 -20.0732,-25.35156 -25.7617,-34.375 -5.6348,-8.94531 -8.4278,-15.91308 -8.4278,-22.17285 0.01,-6.15234 2.7198,-11.54296 8.0127,-17.32421 5.1514,-5.625 12.6514,-11.5332 22.251,-18.72559 z m 0,0"
       id="path140"
       inkscape:connector-curvature="0" />
    <text
       xml:space="preserve"
       style="font-size:66px;font-style:normal;font-variant:normal;font-weight:normal;font-stretch:normal;text-align:center;line-height:125%;letter-spacing:0px;word-spacing:0px;text-anchor:middle;fill:#000000;fill-opacity:1;stroke:none;display:inline;font-family:Arial;-inkscape-font-specification:Arial"
       x="-1222.8733"
       y="-85.578209"
       id="text4775"
       sodipodi:linespacing="125%"><tspan
         sodipodi:role="line"
         id="tspan4777"
         x="-1222.8733"
         y="-85.578209">Setting The Standards And Profiling NATO</tspan></text>
    <g
       transform="translate(-1821.1428,-904.72354)"
       style="display:inline"
       id="g4691">
      <path
         transform="matrix(1.021765,0,0,1.0226963,-18.418685,-7.0308789)"
         d="m 1048.5715,297.19196 c 0,100.20023 -81.22838,181.42857 -181.42862,181.42857 -100.20023,0 -181.42857,-81.22834 -181.42857,-181.42857 0,-100.20024 81.22834,-181.42858 181.42857,-181.42858 100.20024,0 181.42862,81.22834 181.42862,181.42858 z"
         sodipodi:ry="181.42857"
         sodipodi:rx="181.42857"
         sodipodi:cy="297.19196"
         sodipodi:cx="867.14288"
         id="path4005"
         style="color:#000000;fill:url(#linearGradient4661);fill-opacity:1;stroke:#002144;stroke-width:14.80000019;stroke-linecap:butt;stroke-linejoin:miter;stroke-miterlimit:4;stroke-opacity:1;stroke-dasharray:none;stroke-dashoffset:0;marker:none;visibility:visible;display:inline;overflow:visible;enable-background:accumulate"
         sodipodi:type="arc" />
      <path
         transform="matrix(1.021765,0,0,1.0226963,-18.418685,-7.0308789)"
         d="m 1048.5715,297.19196 c 0,100.20023 -81.22838,181.42857 -181.42862,181.42857 -100.20023,0 -181.42857,-81.22834 -181.42857,-181.42857 0,-100.20024 81.22834,-181.42858 181.42857,-181.42858 100.20024,0 181.42862,81.22834 181.42862,181.42858 z"
         sodipodi:ry="181.42857"
         sodipodi:rx="181.42857"
         sodipodi:cy="297.19196"
         sodipodi:cx="867.14288"
         id="path4679"
         style="opacity:0.73390557;color:#000000;fill:url(#radialGradient4689);fill-opacity:1;stroke:#002144;stroke-width:14.80000019;stroke-linecap:butt;stroke-linejoin:miter;stroke-miterlimit:4;stroke-opacity:1;stroke-dasharray:none;stroke-dashoffset:0;marker:none;visibility:visible;display:inline;overflow:visible;enable-background:accumulate"
         sodipodi:type="arc" />
      <path
         transform="translate(-224.71437,142.33034)"
         d="m 1197.1429,153.86161 -76.445,28.8834 -27.8407,76.83089 -28.8834,-76.44501 -76.83086,-27.84071 76.44506,-28.8834 27.8407,-76.830887 28.8834,76.445017 z"
         inkscape:randomized="0"
         inkscape:rounded="0"
         inkscape:flatsided="false"
         sodipodi:arg2="0.77859555"
         sodipodi:arg1="-0.0068026162"
         sodipodi:r2="40.110928"
         sodipodi:r1="105.00243"
         sodipodi:cy="154.5759"
         sodipodi:cx="1092.1429"
         sodipodi:sides="4"
         id="path4806"
         style="color:#000000;fill:#ffffff;fill-opacity:1;stroke:#ffffff;stroke-width:5;stroke-linecap:butt;stroke-linejoin:miter;stroke-miterlimit:4;stroke-opacity:1;stroke-dasharray:none;stroke-dashoffset:0;marker:none;visibility:visible;display:inline;overflow:visible;enable-background:accumulate"
         sodipodi:type="star" />
      <path
         sodipodi:open="true"
         transform="matrix(0.49689778,0,0,0.49689778,436.5472,149.23221)"
         d="m 904.86401,119.72803 c 70.08961,14.89801 124.84479,69.65319 139.74279,139.7428"
         sodipodi:ry="181.42857"
         sodipodi:rx="181.42857"
         sodipodi:cy="297.19196"
         sodipodi:cx="867.14288"
         id="path4818"
         style="color:#000000;fill:none;stroke:#ffffff;stroke-width:11.06867504;stroke-linecap:butt;stroke-linejoin:miter;stroke-miterlimit:4;stroke-opacity:1;stroke-dasharray:none;stroke-dashoffset:0;marker:none;visibility:visible;display:inline;overflow:visible;enable-background:accumulate"
         sodipodi:type="arc"
         sodipodi:start="4.9218285"
         sodipodi:end="6.0737458" />
      <path
         sodipodi:open="true"
         sodipodi:end="4.5029495"
         sodipodi:start="3.3510322"
         sodipodi:type="arc"
         style="color:#000000;fill:none;stroke:#ffffff;stroke-width:11.06867504;stroke-linecap:butt;stroke-linejoin:miter;stroke-miterlimit:4;stroke-opacity:1;stroke-dasharray:none;stroke-dashoffset:0;marker:none;visibility:visible;display:inline;overflow:visible;enable-background:accumulate"
         id="path4820"
         sodipodi:cx="867.14288"
         sodipodi:cy="297.19196"
         sodipodi:rx="181.42857"
         sodipodi:ry="181.42857"
         d="m 689.67896,259.47083 c 14.89801,-70.08961 69.65319,-124.84479 139.74281,-139.7428"
         transform="matrix(0.49689778,0,0,0.49689778,436.5472,149.23221)" />
      <path
         sodipodi:open="true"
         transform="matrix(0.49689778,0,0,0.49689778,436.5472,149.23221)"
         d="M 829.42177,474.65588 C 759.33216,459.75788 704.57697,405.0027 689.67896,334.91308"
         sodipodi:ry="181.42857"
         sodipodi:rx="181.42857"
         sodipodi:cy="297.19196"
         sodipodi:cx="867.14288"
         id="path4822"
         style="color:#000000;fill:none;stroke:#ffffff;stroke-width:11.06867504;stroke-linecap:butt;stroke-linejoin:miter;stroke-miterlimit:4;stroke-opacity:1;stroke-dasharray:none;stroke-dashoffset:0;marker:none;visibility:visible;display:inline;overflow:visible;enable-background:accumulate"
         sodipodi:type="arc"
         sodipodi:start="1.7802358"
         sodipodi:end="2.9321531" />
      <path
         sodipodi:open="true"
         sodipodi:end="1.3613568"
         sodipodi:start="0.20943951"
         sodipodi:type="arc"
         style="color:#000000;fill:none;stroke:#ffffff;stroke-width:11.06867504;stroke-linecap:butt;stroke-linejoin:miter;stroke-miterlimit:4;stroke-opacity:1;stroke-dasharray:none;stroke-dashoffset:0;marker:none;visibility:visible;display:inline;overflow:visible;enable-background:accumulate"
         id="path4824"
         sodipodi:cx="867.14288"
         sodipodi:cy="297.19196"
         sodipodi:rx="181.42857"
         sodipodi:ry="181.42857"
         d="m 1044.6068,334.91308 c -14.898,70.08961 -69.65318,124.84479 -139.74279,139.7428"
         transform="matrix(0.49689778,0,0,0.49689778,436.5472,149.23221)" />
      <path
         inkscape:connector-curvature="0"
         id="path6311"
         d="m 745.0644,297.07315 -68.08265,-0.33383 0,0"
         style="fill:#ffffff;stroke:#ffffff;stroke-width:7.09799623px;stroke-linecap:butt;stroke-linejoin:miter;stroke-opacity:1" />
      <path
         style="fill:#ffffff;stroke:#ffffff;stroke-width:6.50425243px;stroke-linecap:butt;stroke-linejoin:miter;stroke-opacity:1"
         d="m 867.67645,137.22253 -0.49575,38.49575 0,0"
         id="path6313"
         inkscape:connector-curvature="0" />
      <path
         inkscape:connector-curvature="0"
         id="path6315"
         d="m 867.67645,419.22253 -0.49575,38.49575 0,0"
         style="fill:#ffffff;stroke:#ffffff;stroke-width:6.50425243px;stroke-linecap:butt;stroke-linejoin:miter;stroke-opacity:1" />
      <path
         style="fill:#ffffff;stroke:#ffffff;stroke-width:7.07642365px;stroke-linecap:butt;stroke-linejoin:miter;stroke-opacity:1"
         d="m 1057.5646,297.07315 -67.66945,-0.33383 0,0"
         id="path6317"
         inkscape:connector-curvature="0" />
      <path
         sodipodi:type="arc"
         style="opacity:0.73390557;color:#000000;fill:none;stroke:#002144;stroke-width:14.80000019;stroke-linecap:butt;stroke-linejoin:miter;stroke-miterlimit:4;stroke-opacity:1;stroke-dasharray:none;stroke-dashoffset:0;marker:none;visibility:visible;display:inline;overflow:visible;enable-background:accumulate"
         id="path3906"
         sodipodi:cx="867.14288"
         sodipodi:cy="297.19196"
         sodipodi:rx="181.42857"
         sodipodi:ry="181.42857"
         d="m 1048.5715,297.19196 c 0,100.20023 -81.22838,181.42857 -181.42862,181.42857 -100.20023,0 -181.42857,-81.22834 -181.42857,-181.42857 0,-100.20024 81.22834,-181.42858 181.42857,-181.42858 100.20024,0 181.42862,81.22834 181.42862,181.42858 z"
         transform="matrix(1.021765,0,0,1.0226963,-18.418685,-7.0308789)" />
      <path
         transform="translate(-97.65625,-51.3125)"
         sodipodi:nodetypes="cccc"
         inkscape:connector-curvature="0"
         id="path6320"
         d="m 966.97543,248.14732 -0.84643,98.21429 25.82695,-20.35715 z"
         style="opacity:0.75;fill:#476c91;fill-opacity:1;stroke:none;display:inline" />
      <path
         transform="translate(-97.65625,-51.3125)"
         sodipodi:nodetypes="cccc"
         inkscape:connector-curvature="0"
         id="path6328"
         d="m 1066.4492,349.11025 -98.2143,-0.76926 20.35715,23.47219 z"
         style="opacity:0.75;fill:#476c91;fill-opacity:1;stroke:none;display:inline" />
      <path
         transform="translate(-97.65625,-51.3125)"
         style="opacity:0.75;fill:#476c91;fill-opacity:1;stroke:none;display:inline"
         d="m 965.47318,450.50447 0.78235,-98.2143 -23.87135,20.3572 z"
         id="path6330"
         inkscape:connector-curvature="0"
         sodipodi:nodetypes="cccc" />
      <path
         transform="translate(-97.65625,-51.3125)"
         sodipodi:nodetypes="cccc"
         inkscape:connector-curvature="0"
         id="path6332"
         d="m 863.59205,348.32017 98.21429,0.77634 -20.35715,-23.68823 z"
         style="opacity:0.75;fill:#476c91;fill-opacity:1;stroke:none;display:inline" />
    </g>
    <text
       sodipodi:linespacing="125%"
       id="text6354"
       y="-186.56099"
       x="-1727.8639"
       style="font-size:180px;font-style:normal;font-variant:normal;font-weight:normal;font-stretch:normal;text-align:start;line-height:125%;letter-spacing:5.44000006px;word-spacing:-1.80999994px;text-anchor:start;fill:#be7429;fill-opacity:1;stroke:none;display:inline;filter:url(#filter7809);font-family:Arial;-inkscape-font-specification:Arial"
       xml:space="preserve"><tspan
         y="-186.56099"
         x="-1727.8639"
         id="tspan6356"
         sodipodi:role="line">C3B IP CaT</tspan></text>
  </g>
</svg>
