<?xml version="1.0" encoding="UTF-8" standalone="no"?>
<!-- Created with Inkscape (http://www.inkscape.org/) -->

<svg
   xmlns:dc="http://purl.org/dc/elements/1.1/"
   xmlns:cc="http://creativecommons.org/ns#"
   xmlns:rdf="http://www.w3.org/1999/02/22-rdf-syntax-ns#"
   xmlns:svg="http://www.w3.org/2000/svg"
   xmlns="http://www.w3.org/2000/svg"
   xmlns:sodipodi="http://sodipodi.sourceforge.net/DTD/sodipodi-0.dtd"
   xmlns:inkscape="http://www.inkscape.org/namespaces/inkscape"
   id="svg2985"
   version="1.1"
   inkscape:version="0.48.2 r9819"
   width="497"
   height="469"
   sodipodi:docname="NATO AWACS Insignia.png">
  <metadata
     id="metadata2991">
    <rdf:RDF>
      <cc:Work
         rdf:about="">
        <dc:format>image/svg+xml</dc:format>
        <dc:type
           rdf:resource="http://purl.org/dc/dcmitype/StillImage" />
        <dc:title></dc:title>
      </cc:Work>
    </rdf:RDF>
  </metadata>
  <defs
     id="defs2989" />
  <sodipodi:namedview
     pagecolor="#ffffff"
     bordercolor="#666666"
     borderopacity="1"
     objecttolerance="10"
     gridtolerance="10"
     guidetolerance="10"
     inkscape:pageopacity="0"
     inkscape:pageshadow="2"
     inkscape:window-width="1600"
     inkscape:window-height="838"
     id="namedview2987"
     showgrid="false"
     inkscape:zoom="0.44401481"
     inkscape:cx="124.28268"
     inkscape:cy="-7.4255804"
     inkscape:window-x="-8"
     inkscape:window-y="-8"
     inkscape:window-maximized="1"
     inkscape:current-layer="g3830" />
  <g
     transform="matrix(1.25,0,0,1.25,-50.524736,0.08115517)"
     id="g3830">
    <g
       id="g3788">
      <path
         style="fill:#2a4064;fill-opacity:1;stroke:none"
         d="m 238.4696,67.929025 -28.40307,88.585815 -97.92108,31.38241 127.71451,0.19863 -22.84163,22.04713 -95.33898,-20.45815 87.79131,28.60169 32.57415,99.11282 -0.99311,-128.70763 24.03337,23.23888 -20.65678,95.73622 28.99894,-90.77065 97.52384,-29.79343 -127.31727,0.19862 23.04025,-23.63612 94.14725,20.8554 -88.78443,-28.6017 -30.58792,-98.914192 0,129.104872 -23.43751,-24.62924 z"
         id="path3038"
         inkscape:connector-curvature="0" />
      <rect
         style="fill:#2a4064;fill-opacity:1;stroke:none"
         id="rect3042"
         width="54.469952"
         height="6.1796937"
         x="41.405769"
         y="183.99129" />
      <rect
         y="183.85085"
         x="386.28122"
         height="6.1796937"
         width="50.647881"
         id="rect3044"
         style="fill:#2a4064;fill-opacity:1;stroke:none" />
      <rect
         y="-246.15466"
         x="333.7084"
         height="6.1796937"
         width="41.853378"
         id="rect3046"
         style="fill:#2a4064;fill-opacity:1;stroke:none"
         transform="matrix(0,1,-1,0,0,0)" />
      <rect
         transform="matrix(0,1,-1,0,0,0)"
         style="fill:#2a4064;fill-opacity:1;stroke:none"
         id="rect3816"
         width="41.853378"
         height="6.1796937"
         x="0.1453809"
         y="-244.60974" />
      <path
         style="fill:#2a4064;fill-opacity:1;stroke:none"
         d="m 140.25221,170.51402 7.40704,-2.2323 c 8.51224,-32.74118 28.54271,-62.57679 73.47699,-74.005131 l 2.13045,-6.918949 c -42.92626,9.162387 -71.06521,36.31255 -83.01448,83.15638 z"
         id="path3818"
         inkscape:connector-curvature="0"
         sodipodi:nodetypes="ccccc" />
      <path
         sodipodi:nodetypes="ccccc"
         inkscape:connector-curvature="0"
         id="path3820"
         d="m 344.17344,171.22589 -7.37537,-2.33477 c -8.05754,-32.85604 -27.67247,-62.96646 -72.444,-75.016639 l -2.03433,-6.947819 c 42.79512,9.756599 70.55498,37.294238 81.8537,84.299228 z"
         style="fill:#2a4064;fill-opacity:1;stroke:none" />
      <path
         style="fill:#2a4064;fill-opacity:1;stroke:none"
         d="m 344.12575,200.53555 -7.33303,2.46452 c -7.47667,32.99307 -26.55736,63.44484 -71.10935,76.28296 l -1.91144,6.98263 c 42.61634,-10.51004 69.88609,-38.53311 80.35382,-85.73011 z"
         id="path3822"
         inkscape:connector-curvature="0"
         sodipodi:nodetypes="ccccc" />
      <path
         sodipodi:nodetypes="ccccc"
         inkscape:connector-curvature="0"
         id="path3824"
         d="m 140.00823,201.52428 7.35867,2.38689 c 7.82489,32.91223 27.22629,63.16067 71.91145,75.5273 l 1.98512,6.96204 c -42.72502,-10.05913 -70.28936,-37.79248 -81.25524,-84.87623 z"
         style="fill:#2a4064;fill-opacity:1;stroke:none" />
    </g>
  </g>
</svg>
