<?xml version="1.0" encoding="UTF-8" standalone="no"?>
<!-- Created with Inkscape (http://www.inkscape.org/) -->

<svg
   xmlns:dc="http://purl.org/dc/elements/1.1/"
   xmlns:cc="http://creativecommons.org/ns#"
   xmlns:rdf="http://www.w3.org/1999/02/22-rdf-syntax-ns#"
   xmlns:svg="http://www.w3.org/2000/svg"
   xmlns="http://www.w3.org/2000/svg"
   xmlns:sodipodi="http://sodipodi.sourceforge.net/DTD/sodipodi-0.dtd"
   xmlns:inkscape="http://www.inkscape.org/namespaces/inkscape"
   width="120.09967mm"
   height="120.86166mm"
   viewBox="0 0 425.55001 428.24999"
   id="svg2"
   version="1.1"
   inkscape:version="0.91 r13725"
   sodipodi:docname="new-rfcp-proc.svg">
  <defs
     id="defs4" />
  <sodipodi:namedview
     id="base"
     pagecolor="#ffffff"
     bordercolor="#666666"
     borderopacity="1.0"
     inkscape:pageopacity="0.0"
     inkscape:pageshadow="2"
     inkscape:zoom="2.1926275"
     inkscape:cx="139.9208"
     inkscape:cy="192.21994"
     inkscape:document-units="px"
     inkscape:current-layer="g4822"
     showgrid="false"
     fit-margin-top="0"
     fit-margin-left="0"
     fit-margin-right="0"
     fit-margin-bottom="0"
     inkscape:window-width="1855"
     inkscape:window-height="1056"
     inkscape:window-x="65"
     inkscape:window-y="24"
     inkscape:window-maximized="1" />
  <metadata
     id="metadata7">
    <rdf:RDF>
      <cc:Work
         rdf:about="">
        <dc:format>image/svg+xml</dc:format>
        <dc:type
           rdf:resource="http://purl.org/dc/dcmitype/StillImage" />
        <dc:title />
      </cc:Work>
    </rdf:RDF>
  </metadata>
  <g
     inkscape:label="Layer 1"
     inkscape:groupmode="layer"
     id="layer1"
     transform="translate(-312.8502,-453.3109)">
    <g
       id="g4822"
       transform="matrix(0,1,-1,0,1193.0611,141.81072)">
      <path
         d="m 323.25322,875.13625 427.05,0 0,-424.05 -427.05,0 0,424.05 z"
         style="fill:#ffffff;fill-opacity:1;fill-rule:nonzero;stroke:none"
         id="path4401"
         inkscape:connector-curvature="0" />
      <path
         d="m 312.85018,879.4609 0,-424.05 -0.75,0 0,0.6 427.05,0 0,-0.6 -0.75,0 0,424.05 0.75,0 0,-0.6 -427.05,0 0,0.6 0.75,0 z m -0.75,0.75 427.65,0 0,-425.55 -428.25,0 0,425.55 0.6,0"
         style="fill:#5e5e5e;fill-opacity:1;fill-rule:nonzero;stroke:none"
         id="path4403"
         inkscape:connector-curvature="0" />
      <path
         d="m 312.10018,849.1609 427.05,0"
         style="fill:none;stroke:#5e5e5e;stroke-width:1.35000002;stroke-linecap:butt;stroke-linejoin:miter;stroke-miterlimit:10;stroke-dasharray:none;stroke-opacity:1"
         id="path4405"
         inkscape:connector-curvature="0" />
      <g
         id="g4407"
         transform="matrix(1.2499995,0,0,-1.2499995,195.70018,1099.5109)">
        <text
           transform="matrix(-0.998085,0,0,1,292.2,190.2)"
           style="font-variant:normal;font-weight:normal;font-size:5.63999987px;font-family:Arial;-inkscape-font-specification:Arial;writing-mode:lr-tb;fill:#000000;fill-opacity:1;fill-rule:nonzero;stroke:none"
           id="text4409">
          <tspan
             x="0 1.3234677 5.0506525 6.6145802 10.698695 14.308409 17.795982 19.480141 23.446785 26.934359 31.021233 34.628189 36.312347 39.9193 41.963177 44.968075 47.853603 50.978729 53.74403"
             y="0"
             sodipodi:role="line"
             id="tspan4411">IP CAT RFCP Process</tspan>
        </text>
      </g>
      <path
         d="m 312.85018,849.1609 0,-393.75 -0.75,0 0,0.6 100.95,0 0,-0.6 -0.6,0 0,393.75 0.6,0 0,-0.6 -100.95,0 0,0.6 0.75,0 z m -0.75,0.75 101.7,0 0,-395.25 -102.3,0 0,395.25 0.6,0"
         style="fill:#5e5e5e;fill-opacity:1;fill-rule:nonzero;stroke:none"
         id="path4413"
         inkscape:connector-curvature="0" />
      <g
         id="g4415"
         transform="matrix(1.2499995,0,0,-1.2499995,195.70018,1099.5109)">
        <text
           transform="matrix(-0.998085,0,0,1,142.08,214.44)"
           style="font-variant:normal;font-weight:normal;font-size:5.63999987px;font-family:Arial;-inkscape-font-specification:Arial;writing-mode:lr-tb;fill:#000000;fill-opacity:1;fill-rule:nonzero;stroke:none;font-style:normal;font-stretch:normal;"
           id="text4417">
          <tspan
             x="0 1.3225281 4.9294386 6.6126575 10.580256 13.706247"
             y="0"
             sodipodi:role="line"
             id="tspan4419">IP CaT</tspan>
        </text>
      </g>
      <path
         d="m 413.80018,849.1609 0,-393.75 -0.75,0 0,0.6 124.05,0 0,-0.6 -0.6,0 0,393.75 0.6,0 0,-0.6 -124.05,0 0,0.6 0.75,0 z m -0.75,0.75 124.65,0 0,-395.25 -125.25,0 0,395.25 0.6,0"
         style="fill:#5e5e5e;fill-opacity:1;fill-rule:nonzero;stroke:none"
         id="path4421"
         inkscape:connector-curvature="0" />
      <g
         id="g4423"
         transform="matrix(1.2499995,0,0,-1.2499995,195.70018,1099.5109)">
        <text
           transform="matrix(-0.998085,0,0,1,240.12,214.44)"
           style="font-variant:normal;font-weight:normal;font-size:5.63999987px;font-family:Arial;-inkscape-font-specification:Arial;writing-mode:lr-tb;fill:#000000;fill-opacity:1;fill-rule:nonzero;stroke:none;font-style:normal;font-stretch:normal;"
           id="text4425">
          <tspan
             x="0 3.8473673 7.5745077 11.061187 15.509706 17.192926 20.920067 25.488813 29.215954 30.418251"
             y="0"
             sodipodi:role="line"
             id="tspan4427">NATO SME's</tspan>
        </text>
      </g>
      <path
         d="m 537.70018,849.1609 0,-393.75 -0.6,0 0,0.6 100.95,0 0,-0.6 -0.6,0 0,393.75 0.6,0 0,-0.6 -100.95,0 0,0.6 0.6,0 z m -0.6,0.75 101.7,0 0,-395.25 -102.3,0 0,395.25 0.6,0"
         style="fill:#5e5e5e;fill-opacity:1;fill-rule:nonzero;stroke:none"
         id="path4429"
         inkscape:connector-curvature="0" />
      <path
         d="m 638.80018,849.1609 0,-393.75 -0.75,0 0,0.6 101.1,0 0,-0.6 -0.75,0 0,393.75 0.75,0 0,-0.6 -101.1,0 0,0.6 0.75,0 z m -0.75,0.75 101.7,0 0,-395.25 -102.3,0 0,395.25 0.6,0"
         style="fill:#5e5e5e;fill-opacity:1;fill-rule:nonzero;stroke:none"
         id="path4437"
         inkscape:connector-curvature="0" />
      <g
         id="g4439"
         transform="matrix(1.2499995,0,0,-1.2499995,195.70018,1099.5109)">
        <text
           transform="matrix(-0.998085,0,0,1,414.72,214.44)"
           style="font-variant:normal;font-weight:normal;font-size:5.63999987px;font-family:Arial;-inkscape-font-specification:Arial;writing-mode:lr-tb;fill:#000000;fill-opacity:1;fill-rule:nonzero;stroke:none"
           id="text4441">
          <tspan
             x="0 3.9666436 7.4542184 11.420862 15.027816 16.591743 20.920988 22.844633 24.045992 27.171118 28.252245 31.377371 34.382267 35.946198 38.951092"
             y="0"
             sodipodi:role="line"
             id="tspan4443">RFCP Originator</tspan>
        </text>
      </g>
      <path
         d="m 688.60018,776.2609 c 6.75,0 12.3,5.55 12.3,12.3 0,6.9 -5.55,12.3 -12.3,12.3 -6.75,0 -12.3,-5.4 -12.3,-12.3 0,-6.75 5.55,-12.3 12.3,-12.3"
         style="fill:#ffffff;fill-opacity:1;fill-rule:nonzero;stroke:none"
         id="path4445"
         inkscape:connector-curvature="0" />
      <path
         d="m 688.60018,776.8609 c 6.45,0 11.7,5.25 11.7,11.7 0,6.45 -5.25,11.7 -11.7,11.7 -6.45,0 -11.7,-5.25 -11.7,-11.7 0,-6.45 5.25,-11.7 11.7,-11.7 z m 0,-1.2 c -7.2,0 -13.05,5.7 -13.05,12.9 0,7.2 5.85,13.05 13.05,13.05 7.2,0 12.9,-5.85 12.9,-13.05 0,-7.2 -5.7,-12.9 -12.9,-12.9"
         style="fill:#71ab16;fill-opacity:1;fill-rule:nonzero;stroke:none"
         id="path4447"
         inkscape:connector-curvature="0" />
      <g
         id="g4449"
         transform="matrix(1.2499995,0,0,-1.2499995,195.70018,1099.5109)">
        <text
           transform="matrix(0,0.998085,1,0,411.12,242.88)"
           style="font-variant:normal;font-weight:normal;font-size:5.63999987px;font-family:Arial;-inkscape-font-specification:Arial;writing-mode:lr-tb;fill:#000000;fill-opacity:1;fill-rule:nonzero;stroke:none;font-style:normal;font-stretch:normal;"
           id="text4451">
          <tspan
             x="0 3.7271259 5.4103451 8.4160919 10.219538"
             y="0"
             sodipodi:role="line"
             id="tspan4453">Start</tspan>
        </text>
      </g>
      <path
         d="m 670.75018,755.1109 35.55,0 c 2.85,0 5.1,-2.25 5.1,-5.1 l 0,-64.2 c 0,-2.85 -2.25,-5.1 -5.1,-5.1 l -35.55,0 c -2.7,0 -4.95,2.25 -4.95,5.1 l 0,64.2 c 0,2.85 2.25,5.1 4.95,5.1"
         style="fill:#ffffff;fill-opacity:1;fill-rule:nonzero;stroke:none"
         id="path4455"
         inkscape:connector-curvature="0" />
      <path
         d="m 670.75018,755.8609 35.55,0 c 3.3,0 5.85,-2.7 5.85,-5.85 l 0,-64.2 c 0,-3.15 -2.55,-5.85 -5.85,-5.85 l -35.55,0 c -3.15,0 -5.7,2.7 -5.7,5.85 l 0,64.2 c 0,3.15 2.55,5.85 5.7,5.85 z m 0,-1.5 c -2.25,0 -4.2,-1.95 -4.2,-4.35 l 0,-64.2 c 0,-2.4 1.95,-4.35 4.2,-4.35 l 35.55,0 c 2.4,0 4.35,1.95 4.35,4.35 l 0,64.2 c 0,2.4 -1.95,4.35 -4.35,4.35 l -35.55,0"
         style="fill:#00a2ce;fill-opacity:1;fill-rule:nonzero;stroke:none"
         id="path4457"
         inkscape:connector-curvature="0" />
      <g
         id="g4459"
         transform="matrix(1.2499995,0,0,-1.2499995,195.70018,1099.5109)">
        <text
           transform="matrix(0,0.998085,1,0,393.24,296.76)"
           style="font-variant:normal;font-weight:normal;font-size:5.63999987px;font-family:Arial;-inkscape-font-specification:Arial;writing-mode:lr-tb;fill:#000000;fill-opacity:1;fill-rule:nonzero;stroke:none;font-style:normal;font-stretch:normal;"
           id="text4461">
          <tspan
             x="0 3.6068957 6.6126428 9.7386198 14.427611 15.750139"
             y="0"
             sodipodi:role="line"
             id="tspan4463">Submit</tspan>
          <tspan
             x="0.961842 5.0496554 8.4160891 12.383673"
             y="6.3600001"
             sodipodi:role="line"
             id="tspan4465">RFCP</tspan>
        </text>
      </g>
      <path
         d="m 569.80018,755.1109 35.55,0 c 2.85,0 5.1,-2.25 5.1,-5.1 l 0,-64.2 c 0,-2.85 -2.25,-5.1 -5.1,-5.1 l -35.55,0 c -2.7,0 -4.95,2.25 -4.95,5.1 l 0,64.2 c 0,2.85 2.25,5.1 4.95,5.1"
         style="fill:#ffffff;fill-opacity:1;fill-rule:nonzero;stroke:none"
         id="path4467"
         inkscape:connector-curvature="0" />
      <path
         d="m 569.80018,755.8609 35.55,0 c 3.3,0 5.85,-2.7 5.85,-5.85 l 0,-64.2 c 0,-3.15 -2.55,-5.85 -5.85,-5.85 l -35.55,0 c -3.15,0 -5.85,2.7 -5.85,5.85 l 0,64.2 c 0,3.15 2.7,5.85 5.85,5.85 z m 0,-1.5 c -2.4,0 -4.2,-1.95 -4.2,-4.35 l 0,-64.2 c 0,-2.4 1.8,-4.35 4.2,-4.35 l 35.55,0 c 2.4,0 4.35,1.95 4.35,4.35 l 0,64.2 c 0,2.4 -1.95,4.35 -4.35,4.35 l -35.55,0"
         style="fill:#00a2ce;fill-opacity:1;fill-rule:nonzero;stroke:none"
         id="path4469"
         inkscape:connector-curvature="0" />
      <g
         id="g4471"
         transform="matrix(1.2499995,0,0,-1.2499995,195.70018,1099.5109)">
        <text
           transform="matrix(0,0.998085,1,0,312.36,290.64)"
           style="font-variant:normal;font-weight:normal;font-size:5.63999987px;font-family:Arial;-inkscape-font-specification:Arial;writing-mode:lr-tb;fill:#000000;fill-opacity:1;fill-rule:nonzero;stroke:none;font-style:normal;font-stretch:normal;"
           id="text4473">
          <tspan
             x="0 3.7271259 6.732873 9.8588505 13.105058 14.668047 18.63563 21.881834 25.849417"
             y="0"
             sodipodi:role="line"
             id="tspan4475">Send RFCP</tspan>
        </text>
        <text
           transform="matrix(0,0.998085,1,0,318.84,282.12)"
           style="font-variant:normal;font-weight:normal;font-size:5.63999987px;font-family:Arial;-inkscape-font-specification:Arial;writing-mode:lr-tb;fill:#000000;fill-opacity:1;fill-rule:nonzero;stroke:none"
           id="text4477">
          <tspan
             x="0 1.563928 4.689054 6.2529821 7.8169103 11.544095 13.108023 17.074667 20.079563 23.687366 25.251295 28.978479 30.662638 34.389824 39.078754 42.805939 43.888462"
             y="0"
             sodipodi:role="line"
             id="tspan4479">to IP CaT &amp; SME's</tspan>
        </text>
      </g>
      <path
         d="m 688.60018,774.4609 0,-15.15"
         style="fill:none;stroke:#656565;stroke-width:2.0999999;stroke-linecap:butt;stroke-linejoin:miter;stroke-miterlimit:10;stroke-dasharray:none;stroke-opacity:1"
         id="path4481"
         inkscape:connector-curvature="0" />
      <path
         d="m 693.25018,762.6109 -4.5,-5.1 -4.65,5.1"
         style="fill:#656565;fill-opacity:1;fill-rule:nonzero;stroke:none"
         id="path4483"
         inkscape:connector-curvature="0" />
      <path
         d="m 347.50018,755.1109 35.55,0 c 2.7,0 4.95,-2.25 4.95,-5.1 l 0,-64.2 c 0,-2.85 -2.25,-5.1 -4.95,-5.1 l -35.55,0 c -2.85,0 -5.1,2.25 -5.1,5.1 l 0,64.2 c 0,2.85 2.25,5.1 5.1,5.1"
         style="fill:#ffffff;fill-opacity:1;fill-rule:nonzero;stroke:none"
         id="path4485"
         inkscape:connector-curvature="0" />
      <path
         d="m 347.50018,755.8609 35.55,0 c 3.15,0 5.7,-2.7 5.7,-5.85 l 0,-64.2 c 0,-3.15 -2.55,-5.85 -5.7,-5.85 l -35.55,0 c -3.3,0 -5.85,2.7 -5.85,5.85 l 0,64.2 c 0,3.15 2.55,5.85 5.85,5.85 z m 0,-1.5 c -2.4,0 -4.35,-1.95 -4.35,-4.35 l 0,-64.2 c 0,-2.4 1.95,-4.35 4.35,-4.35 l 35.55,0 c 2.4,0 4.2,1.95 4.2,4.35 l 0,64.2 c 0,2.4 -1.8,4.35 -4.2,4.35 l -35.55,0"
         style="fill:#00a2ce;fill-opacity:1;fill-rule:nonzero;stroke:none"
         id="path4487"
         inkscape:connector-curvature="0" />
      <g
         id="g4489"
         transform="matrix(1.2499995,0,0,-1.2499995,195.70018,1099.5109)">
        <text
           transform="matrix(0,0.998085,1,0,131.28,296.04)"
           style="font-variant:normal;font-weight:normal;font-size:5.63999987px;font-family:Arial;-inkscape-font-specification:Arial;writing-mode:lr-tb;fill:#000000;fill-opacity:1;fill-rule:nonzero;stroke:none;font-style:normal;font-stretch:normal;"
           id="text4491">
          <tspan
             x="0 3.6068957 5.5305715 8.5363188 11.301604 12.383672 15.509648"
             y="0"
             sodipodi:role="line"
             id="tspan4493">Provide</tspan>
          <tspan
             x="3.48668 6.8531141 7.9351811 10.940928 13.946675"
             y="6.48"
             sodipodi:role="line"
             id="tspan4495">Final</tspan>
          <tspan
             x="-1.2023 2.7652831 5.7710304 8.5363159 9.7386131 12.5039 13.706197 16.711945"
             y="12.96"
             sodipodi:role="line"
             id="tspan4497">Decision</tspan>
        </text>
      </g>
      <path
         d="m 579.70018,623.8609 35.55,0 c 2.85,0 5.1,-2.4 5.1,-5.1 l 0,-64.2 c 0,-2.85 -2.25,-5.1 -5.1,-5.1 l -35.55,0 c -2.7,0 -4.95,2.25 -4.95,5.1 l 0,64.2 c 0,2.7 2.25,5.1 4.95,5.1"
         style="fill:#ffffff;fill-opacity:1;fill-rule:nonzero;stroke:none"
         id="path4499"
         inkscape:connector-curvature="0" />
      <path
         d="m 579.70018,624.6109 35.55,0 c 3.3,0 5.85,-2.7 5.85,-5.85 l 0,-64.2 c 0,-3.3 -2.55,-5.85 -5.85,-5.85 l -35.55,0 c -3.15,0 -5.85,2.55 -5.85,5.85 l 0,64.2 c 0,3.15 2.7,5.85 5.85,5.85 z m 0,-1.65 c -2.4,0 -4.2,-1.8 -4.2,-4.2 l 0,-64.2 c 0,-2.4 1.8,-4.35 4.2,-4.35 l 35.55,0 c 2.4,0 4.35,1.95 4.35,4.35 l 0,64.2 c 0,2.4 -1.95,4.2 -4.35,4.2 l -35.55,0"
         style="fill:#00a2ce;fill-opacity:1;fill-rule:nonzero;stroke:none"
         id="path4501"
         inkscape:connector-curvature="0" />
      <g
         id="g4503"
         transform="matrix(1.2499995,0,0,-1.2499995,195.70018,1099.5109)">
        <text
           transform="matrix(0,0.998085,1,0,317.04,393.6)"
           style="font-variant:normal;font-weight:normal;font-size:5.63999987px;font-family:Arial;-inkscape-font-specification:Arial;writing-mode:lr-tb;fill:#000000;fill-opacity:1;fill-rule:nonzero;stroke:none"
           id="text4505">
          <tspan
             x="0 3.8464134 6.9715395 8.5354671 9.736825 11.420983 14.18627 15.870427 19.477383 24.166315 27.773268 28.976023 31.861538"
             y="0"
             sodipodi:role="line"
             id="tspan4507">Notify SME's,</tspan>
          <tspan
             x="-0.72138101 3.2452626 6.2501588 9.8571129 11.421041 12.984969 16.951612 19.956509 23.444084 25.008011 28.012907 31.138033"
             y="6.48"
             sodipodi:role="line"
             id="tspan4509">CaP, CaT and</tspan>
        </text>
        <text
           transform="matrix(0,0.998085,1,0,330,398.28)"
           style="font-variant:normal;font-weight:normal;font-size:5.63999987px;font-family:Arial;-inkscape-font-specification:Arial;writing-mode:lr-tb;fill:#000000;fill-opacity:1;fill-rule:nonzero;stroke:none;font-style:normal;font-stretch:normal;"
           id="text4511">
          <tspan
             x="0 4.3282747 6.2519507 7.3340173 10.459995 11.542062 14.668039 17.673786 19.236774 22.122292"
             y="0"
             sodipodi:role="line"
             id="tspan4513">Originator</tspan>
        </text>
      </g>
      <path
         d="m 597.55018,484.0609 c 6.45,0 11.7,5.25 11.7,11.7 0,6.45 -5.25,11.7 -11.7,11.7 -6.45,0 -11.7,-5.25 -11.7,-11.7 0,-6.45 5.25,-11.7 11.7,-11.7"
         style="fill:#ffffff;fill-opacity:1;fill-rule:nonzero;stroke:none"
         id="path4515"
         inkscape:connector-curvature="0" />
      <path
         d="m 597.55018,485.7109 c 5.55,0 10.05,4.5 10.05,10.05 0,5.55 -4.5,10.05 -10.05,10.05 -5.55,0 -10.05,-4.5 -10.05,-10.05 0,-5.55 4.5,-10.05 10.05,-10.05 z m 0,-3.3 c -7.5,0 -13.5,6 -13.5,13.35 0,7.35 6,13.35 13.5,13.35 7.35,0 13.35,-6 13.35,-13.35 0,-7.35 -6,-13.35 -13.35,-13.35"
         style="fill:#fd6767;fill-opacity:1;fill-rule:nonzero;stroke:none"
         id="path4517"
         inkscape:connector-curvature="0" />
      <g
         id="g4519"
         transform="matrix(1.2499995,0,0,-1.2499995,195.70018,1099.5109)">
        <text
           transform="matrix(0,0.998085,1,0,337.8,478.2)"
           style="font-variant:normal;font-weight:normal;font-size:5.63999987px;font-family:Arial;-inkscape-font-specification:Arial;writing-mode:lr-tb;fill:#000000;fill-opacity:1;fill-rule:nonzero;stroke:none;font-style:normal;font-stretch:normal;"
           id="text4521">
          <tspan
             x="0 3.6068957 6.732873"
             y="0"
             sodipodi:role="line"
             id="tspan4523">End</tspan>
        </text>
      </g>
      <path
         d="m 457.30018,755.1109 35.55,0 c 2.85,0 5.1,-2.25 5.1,-5.1 l 0,-64.2 c 0,-2.85 -2.25,-5.1 -5.1,-5.1 l -35.55,0 c -2.7,0 -4.95,2.25 -4.95,5.1 l 0,64.2 c 0,2.85 2.25,5.1 4.95,5.1"
         style="fill:#ffffff;fill-opacity:1;fill-rule:nonzero;stroke:none"
         id="path4525"
         inkscape:connector-curvature="0" />
      <path
         d="m 457.30018,755.8609 35.55,0 c 3.3,0 5.85,-2.7 5.85,-5.85 l 0,-64.2 c 0,-3.15 -2.55,-5.85 -5.85,-5.85 l -35.55,0 c -3.15,0 -5.7,2.7 -5.7,5.85 l 0,64.2 c 0,3.15 2.55,5.85 5.7,5.85 z m 0,-1.5 c -2.4,0 -4.2,-1.95 -4.2,-4.35 l 0,-64.2 c 0,-2.4 1.8,-4.35 4.2,-4.35 l 35.55,0 c 2.4,0 4.35,1.95 4.35,4.35 l 0,64.2 c 0,2.4 -1.95,4.35 -4.35,4.35 l -35.55,0"
         style="fill:#00a2ce;fill-opacity:1;fill-rule:nonzero;stroke:none"
         id="path4527"
         inkscape:connector-curvature="0" />
      <g
         id="g4529"
         transform="matrix(1.2499995,0,0,-1.2499995,195.70018,1099.5109)">
        <text
           transform="matrix(0,0.998085,1,0,223.32,296.4)"
           style="font-variant:normal;font-weight:normal;font-size:5.63999987px;font-family:Arial;-inkscape-font-specification:Arial;writing-mode:lr-tb;fill:#000000;fill-opacity:1;fill-rule:nonzero;stroke:none;font-style:normal;font-stretch:normal;"
           id="text4531">
          <tspan
             x="0 3.9675832 7.0935607 9.8588467 10.940913 13.94666"
             y="0"
             sodipodi:role="line"
             id="tspan4533">Review</tspan>
          <tspan
             x="1.32253 5.290113 8.7767782 12.864592"
             y="6.48"
             sodipodi:role="line"
             id="tspan4535">RFCP</tspan>
        </text>
      </g>
      <path
         d="m 664.00018,717.9109 -49.35,0"
         style="fill:none;stroke:#656565;stroke-width:2.0999999;stroke-linecap:butt;stroke-linejoin:miter;stroke-miterlimit:10;stroke-dasharray:none;stroke-opacity:1"
         id="path4537"
         inkscape:connector-curvature="0" />
      <path
         d="m 617.95018,713.4109 -4.95,4.5 4.95,4.5"
         style="fill:#656565;fill-opacity:1;fill-rule:nonzero;stroke:none"
         id="path4539"
         inkscape:connector-curvature="0" />
      <path
         d="m 562.90018,717.9109 -60.75,0"
         style="fill:none;stroke:#656565;stroke-width:2.0999999;stroke-linecap:butt;stroke-linejoin:miter;stroke-miterlimit:10;stroke-dasharray:none;stroke-opacity:1"
         id="path4541"
         inkscape:connector-curvature="0" />
      <path
         d="m 505.45018,713.4109 -4.95,4.5 4.95,4.5"
         style="fill:#656565;fill-opacity:1;fill-rule:nonzero;stroke:none"
         id="path4543"
         inkscape:connector-curvature="0" />
      <path
         d="m 450.40018,717.9109 -58.05,0"
         style="fill:none;stroke:#656565;stroke-width:2.0999999;stroke-linecap:butt;stroke-linejoin:miter;stroke-miterlimit:10;stroke-dasharray:none;stroke-opacity:1"
         id="path4545"
         inkscape:connector-curvature="0" />
      <path
         d="m 395.65018,713.4109 -5.1,4.5 5.1,4.5"
         style="fill:#656565;fill-opacity:1;fill-rule:nonzero;stroke:none"
         id="path4547"
         inkscape:connector-curvature="0" />
      <path
         d="m 586.30018,756.9109 0,21.6 1.05,0 0,-1.05 -222.15,0 0,1.05 1.05,0 0,-19.2 -2.1,0 0,20.25 224.25,0 0,-22.65 -2.1,0"
         style="fill:#656565;fill-opacity:1;fill-rule:nonzero;stroke:none"
         id="path4549"
         inkscape:connector-curvature="0" />
      <path
         d="m 369.85018,762.6109 -4.5,-5.1 -4.5,5.1"
         style="fill:#656565;fill-opacity:1;fill-rule:nonzero;stroke:none"
         id="path4551"
         inkscape:connector-curvature="0" />
      <path
         d="m 366.25018,678.9109 0,-26.7 -1.05,0 0,1.05 233.4,0 0,-25.2 -2.1,0 0,24.15 1.05,0 0,-1.05 -233.4,0 0,27.75 2.1,0"
         style="fill:#656565;fill-opacity:1;fill-rule:nonzero;stroke:none"
         id="path4553"
         inkscape:connector-curvature="0" />
      <path
         d="m 602.20018,631.2109 -4.65,-4.95 -4.5,4.95"
         style="fill:#656565;fill-opacity:1;fill-rule:nonzero;stroke:none"
         id="path4555"
         inkscape:connector-curvature="0" />
      <path
         d="m 597.55018,547.6609 0,-36"
         style="fill:none;stroke:#656565;stroke-width:2.0999999;stroke-linecap:butt;stroke-linejoin:miter;stroke-miterlimit:10;stroke-dasharray:none;stroke-opacity:1"
         id="path4557"
         inkscape:connector-curvature="0" />
      <path
         d="m 602.20018,516.0109 -4.65,-5.1 -4.5,5.1"
         style="fill:#656565;fill-opacity:1;fill-rule:nonzero;stroke:none"
         id="path4559"
         inkscape:connector-curvature="0" />
      <text
         xml:space="preserve"
         style="font-style:normal;font-variant:normal;font-weight:normal;font-stretch:normal;font-size:7.5px;line-height:125%;font-family:Arial;-inkscape-font-specification:'Arial, Normal';text-align:start;letter-spacing:0px;word-spacing:0px;writing-mode:lr-tb;text-anchor:start;fill:#000000;fill-opacity:1;stroke:none;stroke-width:1px;stroke-linecap:butt;stroke-linejoin:miter;stroke-opacity:1"
         x="-608.24414"
         y="-831.26715"
         id="text4218"
         sodipodi:linespacing="125%"
         transform="scale(-1,-1)"><tspan
           sodipodi:role="line"
           id="tspan4220"
           x="-608.24414"
           y="-831.26715">IP CaT CCB</tspan></text>
    </g>
  </g>
</svg>
