<?xml version="1.0" encoding="UTF-8" standalone="no"?>
<svg
   xmlns:dc="http://purl.org/dc/elements/1.1/"
   xmlns:cc="http://web.resource.org/cc/"
   xmlns:rdf="http://www.w3.org/1999/02/22-rdf-syntax-ns#"
   xmlns:svg="http://www.w3.org/2000/svg"
   xmlns="http://www.w3.org/2000/svg"
   xmlns:sodipodi="http://sodipodi.sourceforge.net/DTD/sodipodi-0.dtd"
   xmlns:inkscape="http://www.inkscape.org/namespaces/inkscape"
   width="441.10065"
   height="413.32306"
   id="svg2"
   sodipodi:version="0.32"
   inkscape:version="0.44"
   sodipodi:docname="v1-rfcp-proc.svg"
   sodipodi:docbase="C:\Documents and Settings\All Users\Documents\NATO\NATO SCs\SC5\NOSWG\NISP\nisp-src-1.0\volume1\figures"
   version="1.0">
  <metadata
     id="metadata101">
    <rdf:RDF>
      <cc:Work
         rdf:about="">
        <dc:format>image/svg+xml</dc:format>
        <dc:type
           rdf:resource="http://purl.org/dc/dcmitype/StillImage" />
      </cc:Work>
    </rdf:RDF>
  </metadata>
  <sodipodi:namedview
     inkscape:window-height="573"
     inkscape:window-width="853"
     inkscape:pageshadow="2"
     inkscape:pageopacity="0.0"
     guidetolerance="10.0"
     gridtolerance="10.0"
     objecttolerance="10.0"
     borderopacity="1.0"
     bordercolor="#666666"
     pagecolor="#ffffff"
     id="base"
     inkscape:zoom="0.675"
     inkscape:cx="370"
     inkscape:cy="280"
     inkscape:window-x="110"
     inkscape:window-y="110"
     inkscape:current-layer="svg2" />
  <desc
     id="desc4">Symbol FlowchartMultidocument</desc>
  <g
     id="AutoShape2"
     transform="matrix(1.535,0,0,0.93,10.31564,-0.48195)">
    <polygon
       points="1,57.875 3.375,58.5 5.75,58.875 8,59.375 10.375,59.875 14.375,60.375 16.25,60.625 18.125,61 20.25,61 22.125,60.875 23.75,60.875 25,60.75 26.125,60.625 27,60.5 27.75,60.375 28.5,60.25 30,60 31.25,59.75 32.625,59.375 33.875,59.125 35.125,58.75 36.25,58.375 37.625,58 39,57.625 41.625,56.75 44.125,55.875 47,55.125 49.625,54.25 51.25,53.875 52.875,53.5 54.625,53.125 56.375,52.75 60.125,52 64,51.5 66.25,51.375 68.625,51.25 71,51.125 73.375,51 73.375,46.375 75.625,46.125 78.75,46.125 78.75,41.125 81.625,41 85,41 85,1 12.5,1 12.5,6 7,6 7,11.25 1,11.25 1,57.875 "
       id="polygon7"
       style="fill:#0c9;stroke:black;stroke-width:0.75" />
    <polyline
       points="12.5,6 78.75,6 78.75,41.125"
       id="polyline9"
       style="fill:#0c9;stroke:black;stroke-width:0.75" />
    <polyline
       points="7,11.25 73.375,11.25 73.375,46.375"
       id="polyline11"
       style="fill:#0c9;stroke:black;stroke-width:0.75" />
  </g>
  <text
     x="44.475643"
     y="30.94805"
     font-size="20"
     id="text13"
     style="font-size:20px;stroke:black;font-family:Times New Roman">RFCP</text>
  <desc
     id="desc15">Symbol FlowchartProcess</desc>
  <g
     id="AutoShape3"
     transform="matrix(1.925,0,0,1.102,4.300645,96.72105)">
    <rect
       x="1"
       y="1"
       width="72.125"
       height="48.125"
       id="rect18"
       style="fill:#0c9;stroke:black;stroke-width:0.75" />
  </g>
  <text
     x="28.225645"
     y="115.82305"
     font-size="18"
     id="text20"
     style="font-size:18px;stroke:black;font-family:Times New Roman">NOSWG Sec</text>
  <text
     x="57.475643"
     y="137.44804"
     font-size="18"
     id="text22"
     style="font-size:18px;stroke:black;font-family:Times New Roman">ACK</text>
  <desc
     id="desc24">Symbol FlowchartProcess</desc>
  <g
     id="AutoShape5"
     transform="matrix(2.096,0,0,1.224,-1.495355,186.5991)">
    <rect
       x="1"
       y="1"
       width="72.125"
       height="48.125"
       id="rect27"
       style="fill:#0c9;stroke:black;stroke-width:0.75" />
  </g>
  <text
     x="36.100643"
     y="208.82304"
     font-size="18"
     id="text29"
     style="font-size:18px;stroke:black;font-family:Times New Roman">Review by</text>
  <text
     x="23.350645"
     y="230.44804"
     font-size="18"
     id="text31"
     style="font-size:18px;stroke:black;font-family:Times New Roman">actioned group</text>
  <desc
     id="desc33">Line11</desc>
  <defs
     id="defs35">
    <marker
       id="Triangle5_Line11"
       viewBox="0 0 9.833 9.833"
       refX="0.125"
       refY="4.9169998"
       markerUnits="strokeWidth"
       markerWidth="9.8330002"
       markerHeight="9.8330002"
       orient="auto">
      <polygon
         points="0,9.833 9.833,4.917 0,0 0,9.833 "
         id="polygon38" />
    </marker>
  </defs>
  <line
     x1="74.225647"
     x2="74.225647"
     y1="57.073051"
     y2="78.073051"
     id="line40"
     style="stroke:black;stroke-width:0.75;marker-end:url(#Triangle5_Line11)" />
  <desc
     id="desc42">Line12</desc>
  <defs
     id="defs44">
    <marker
       id="Triangle5_Line12"
       viewBox="0 0 9.833 9.833"
       refX="0.125"
       refY="4.9169998"
       markerUnits="strokeWidth"
       markerWidth="9.8330002"
       markerHeight="9.8330002"
       orient="auto">
      <polygon
         points="0,9.833 9.833,4.917 0,0 0,9.833 "
         id="polygon47" />
    </marker>
  </defs>
  <line
     x1="74.225647"
     x2="74.298645"
     y1="159.19804"
     y2="169.44905"
     id="line49"
     style="stroke:black;stroke-width:0.75;marker-end:url(#Triangle5_Line12)" />
  <desc
     id="desc51">TextBox18</desc>
  <rect
     x="180.47565"
     y="91.573051"
     width="255.5"
     height="72.125"
     id="rect53"
     style="fill:none;stroke:none" />
  <text
     x="187.72565"
     y="107.82305"
     font-size="18"
     id="text55"
     style="font-size:18px;stroke:black;font-family:Times New Roman">Status of received</text>
  <text
     x="187.72565"
     y="129.44905"
     font-size="18"
     id="text57"
     style="font-size:18px;stroke:black;font-family:Times New Roman">Appropriate group selected.</text>
  <text
     x="187.72565"
     y="151.07405"
     font-size="18"
     id="text59"
     style="font-size:18px;stroke:black;font-family:Times New Roman">Copy to NOSWG and Originator.</text>
  <desc
     id="desc61">TextBox30</desc>
  <rect
     x="181.97565"
     y="283.19806"
     width="179.125"
     height="79.25"
     id="rect63"
     style="fill:none;stroke:none" />
  <text
     x="189.22565"
     y="300.82306"
     font-size="20"
     id="text65"
     style="font-size:20px;stroke:black;font-family:Times New Roman">Review by NOSWG</text>
  <text
     x="189.22565"
     y="324.82306"
     font-size="20"
     id="text67"
     style="font-size:20px;stroke:black;font-family:Times New Roman">after feedback from</text>
  <text
     x="189.22565"
     y="348.82306"
     font-size="20"
     id="text69"
     style="font-size:20px;stroke:black;font-family:Times New Roman">other groups (SME)</text>
  <desc
     id="desc71">Rectangle36</desc>
  <rect
     x="6.2256446"
     y="295.19806"
     width="148"
     height="117.75"
     id="rect73"
     style="fill:#0c9;stroke:black;stroke-width:0.75" />
  <text
     x="40.975643"
     y="320.07306"
     font-size="20"
     id="text75"
     style="font-size:20px;stroke:black;font-family:Times New Roman">NOSWG</text>
  <text
     x="12.850645"
     y="344.07306"
     font-size="20"
     id="text77"
     style="font-size:20px;stroke:black;font-family:Times New Roman">final review and</text>
  <text
     x="15.600645"
     y="368.07306"
     font-size="20"
     id="text79"
     style="font-size:20px;stroke:black;font-family:Times New Roman">communication</text>
  <text
     x="28.350645"
     y="392.07306"
     font-size="20"
     id="text81"
     style="font-size:20px;stroke:black;font-family:Times New Roman">to Originator</text>
  <desc
     id="desc83">TextBox39</desc>
  <rect
     x="182.10065"
     y="192.07304"
     width="259"
     height="55.25"
     id="rect85"
     style="fill:none;stroke:none" />
  <text
     x="189.35065"
     y="209.69804"
     font-size="20"
     id="text87"
     style="font-size:20px;stroke:black;font-family:Times New Roman">Originator advised of when</text>
  <text
     x="189.35065"
     y="233.69804"
     font-size="20"
     id="text89"
     style="font-size:20px;stroke:black;font-family:Times New Roman">the proposal will be discussed.</text>
  <desc
     id="desc91">Line40</desc>
  <defs
     id="defs93">
    <marker
       id="Triangle5_Line40"
       viewBox="0 0 9.833 9.833"
       refX="0.125"
       refY="4.9169998"
       markerUnits="strokeWidth"
       markerWidth="9.8330002"
       markerHeight="9.8330002"
       orient="auto">
      <polygon
         points="0,9.833 9.833,4.917 0,0 0,9.833 "
         id="polygon96" />
    </marker>
  </defs>
  <line
     x1="74.225647"
     x2="74.571648"
     y1="255.57304"
     y2="272.20004"
     id="line98"
     style="stroke:black;stroke-width:0.75;marker-end:url(#Triangle5_Line40)" />
</svg>
