<?xml version="1.0" encoding="UTF-8" standalone="no"?>
<!DOCTYPE svg PUBLIC "-//W3C//DTD SVG 1.0//EN" "http://www.w3.org/TR/2001/REC-SVG-20010904/DTD/svg10.dtd">
<!-- Generiert durch Microsoft Visio 11.0, SVG Export, v1.0 technicalserviceuse.svg Page-1 -->
<svg xmlns="http://www.w3.org/2000/svg" xmlns:v="http://schemas.microsoft.com/visio/2003/SVGExtensions/" width="8.26772in"
		height="11.6929in" viewBox="0 0 595.276 841.89" xml:space="preserve" color-interpolation-filters="sRGB" class="st23">
	<v:documentProperties v:langID="1031" v:metric="true" v:viewMarkup="false"/>

	<style type="text/css">
	<![CDATA[
		.st1 {fill:#800000;fill-opacity:0.2;stroke:#000000;stroke-dasharray:5.04,3.6;stroke-linecap:round;stroke-linejoin:round;stroke-opacity:0.2;stroke-width:0.72}
		.st2 {stroke:#000000;stroke-linecap:round;stroke-linejoin:round;stroke-width:2.16}
		.st3 {fill:#000000;stroke:#000000;stroke-linecap:round;stroke-linejoin:round;stroke-width:0.72}
		.st4 {fill:#c0c0c0;stroke:#000000;stroke-linecap:round;stroke-linejoin:round;stroke-width:0.72}
		.st5 {fill:none;stroke:none;stroke-linecap:round;stroke-linejoin:round;stroke-width:0.72}
		.st6 {fill:#000000;font-family:Arial;font-size:1.16666em;font-weight:bold}
		.st7 {fill:#ffcc99;stroke:#000000;stroke-linecap:round;stroke-linejoin:round;stroke-width:0.72}
		.st8 {fill:#000000;font-family:Arial;font-size:1.00001em;font-weight:bold}
		.st9 {fill:#800000;stroke:#000000;stroke-linecap:round;stroke-linejoin:round;stroke-width:0.24}
		.st10 {fill:#00ccff;fill-opacity:0.2;stroke:#000000;stroke-linecap:round;stroke-linejoin:round;stroke-opacity:0.2;stroke-width:0.24}
		.st11 {fill:#0000ff;stroke:#000000;stroke-linecap:round;stroke-linejoin:round;stroke-width:0.72}
		.st12 {fill:#ffffff;font-family:Arial;font-size:1.16666em;font-weight:bold}
		.st13 {fill:#00ff00;stroke:#000000;stroke-linecap:round;stroke-linejoin:round;stroke-width:0.72}
		.st14 {fill:#00ccff;stroke:#000000;stroke-linecap:round;stroke-linejoin:round;stroke-width:0.24}
		.st15 {marker-end:url(#mrkr13-135);marker-start:url(#mrkr13-133);stroke:#000000;stroke-linecap:round;stroke-linejoin:round;stroke-width:2.16}
		.st16 {fill:#000000;fill-opacity:1;stroke:#000000;stroke-opacity:1;stroke-width:0.46153846153846}
		.st17 {marker-end:url(#mrkr13-151);marker-start:url(#mrkr13-149);stroke:#0000ff;stroke-linecap:round;stroke-linejoin:round;stroke-width:2.16}
		.st18 {fill:#0000ff;fill-opacity:1;stroke:#0000ff;stroke-opacity:1;stroke-width:0.46153846153846}
		.st19 {font-size:1em}
		.st20 {fill:#000000;font-family:Arial;font-size:0.916672em}
		.st21 {marker-start:url(#mrkr4-186);stroke:#000000;stroke-linecap:round;stroke-linejoin:round;stroke-width:0.72}
		.st22 {fill:#000000;fill-opacity:1;stroke:#000000;stroke-opacity:1;stroke-width:0.22222222222222}
		.st23 {fill:none;fill-rule:evenodd;font-size:12;overflow:visible;stroke-linecap:square;stroke-miterlimit:3}
	]]>
	</style>

	<defs id="Markers">
		<g id="lend13">
			<path d="M 3 1 L -0 0 L 3 -1 L 3 1 " style="stroke:none"/>
		</g>
		<marker id="mrkr13-133" class="st16" v:arrowType="13" v:arrowSize="2" v:setback="6.33333" refX="6.3333333333333"
				orient="auto" markerUnits="strokeWidth">
			<use xlink:href="#lend13" transform="scale(2.1666666666667) "/>
		</marker>
		<marker id="mrkr13-135" class="st16" v:arrowType="13" v:arrowSize="2" v:setback="6.5" refX="-6.5" orient="auto"
				markerUnits="strokeWidth">
			<use xlink:href="#lend13" transform="scale(-2.1666666666667,-2.1666666666667) "/>
		</marker>
		<marker id="mrkr13-149" class="st18" v:arrowType="13" v:arrowSize="2" v:setback="6.33333" refX="6.3333333333333"
				orient="auto" markerUnits="strokeWidth">
			<use xlink:href="#lend13" transform="scale(2.1666666666667) "/>
		</marker>
		<marker id="mrkr13-151" class="st18" v:arrowType="13" v:arrowSize="2" v:setback="6.5" refX="-6.5" orient="auto"
				markerUnits="strokeWidth">
			<use xlink:href="#lend13" transform="scale(-2.1666666666667,-2.1666666666667) "/>
		</marker>
		<g id="lend4">
			<path d="M 2 1 L -0 0 L 2 -1 L 2 1 " style="stroke:none"/>
		</g>
		<marker id="mrkr4-186" class="st22" v:arrowType="4" v:arrowSize="2" v:setback="8.5" refX="8.5" orient="auto"
				markerUnits="strokeWidth">
			<use xlink:href="#lend4" transform="scale(4.5) "/>
		</marker>
	</defs>
	<g v:mID="0" v:index="1" v:groupContext="foregroundPage">
		<title>Page-1</title>
		<v:pageProperties v:drawingScale="0.0393701" v:pageScale="0.0393701" v:drawingUnits="24" v:shadowOffsetX="8.50394"
				v:shadowOffsetY="-8.50394"/>
		<g id="shape1-1" v:mID="1" v:groupContext="shape" transform="translate(80.1541,-379.778)">
			<title>Tabelle.1</title>
			<path d="M0 841.89 L210.2 841.89 L210.2 723.66 L0 723.66 L0 841.89 Z" class="st1"/>
		</g>
		<g id="group2-3" transform="translate(115.287,-380.236)" v:mID="2" v:groupContext="group">
			<title>Tabelle.2</title>
			<g id="shape3-4" v:mID="3" v:groupContext="shape" transform="translate(847.895,841.89) rotate(90) scale(-1,1)">
				<title>Tabelle.3</title>
				<path d="M0 841.89 L16.66 841.89" class="st2"/>
			</g>
			<g id="shape4-7" v:mID="4" v:groupContext="shape" transform="translate(0,1656.61) scale(1,-1)">
				<title>Tabelle.4</title>
				<ellipse cx="6.0056" cy="835.884" rx="6.0056" ry="6.0056" class="st3"/>
			</g>
		</g>
		<g id="group5-9" transform="translate(75.3496,-327.039)" v:mID="5" v:groupContext="group">
			<title>Tabelle.5</title>
			<g id="shape6-10" v:mID="6" v:groupContext="shape">
				<title>Tabelle.6</title>
				<rect x="0" y="788.693" width="91.8857" height="53.197" rx="11.3386" ry="11.3386" class="st4"/>
			</g>
			<g id="shape7-12" v:mID="7" v:groupContext="shape" transform="translate(5.77644,-13.7696)">
				<title>Tabelle.7</title>
				<desc>Provider</desc>
				<v:textBlock v:margins="rect(4,4,4,4)" v:tabSpace="42.5197"/>
				<v:textRect cx="40.6366" cy="829.061" width="81.28" height="25.6577"/>
				<rect x="0" y="816.232" width="81.2732" height="25.6577" class="st5"/>
				<text x="12.23" y="833.26" class="st6" v:langID="1031"><v:paragraph v:horizAlign="1"/><v:tabList/>Provider</text>			</g>
		</g>
		<g id="group8-15" transform="translate(176.244,-327.83)" v:mID="8" v:groupContext="group">
			<title>Tabelle.8</title>
			<g id="shape9-16" v:mID="9" v:groupContext="shape">
				<title>Tabelle.9</title>
				<rect x="0" y="790.013" width="114.106" height="51.877" rx="11.3386" ry="11.3386" class="st7"/>
			</g>
			<g id="shape10-18" v:mID="10" v:groupContext="shape" transform="translate(7.17336,-13.428)">
				<title>Tabelle.10</title>
				<desc>Infrastructure</desc>
				<v:textBlock v:margins="rect(4,4,4,4)" v:tabSpace="42.5197"/>
				<v:textRect cx="50.4638" cy="829.379" width="100.93" height="25.021"/>
				<rect x="0" y="816.869" width="100.928" height="25.021" class="st5"/>
				<text x="11.47" y="832.98" class="st8" v:langID="1031"><v:paragraph v:horizAlign="1"/><v:tabList/>Infrastructure</text>			</g>
		</g>
		<g id="group11-21" transform="translate(196.513,-380.236)" v:mID="11" v:groupContext="group">
			<title>Tabelle.11</title>
			<g id="group12-22" transform="translate(41.0383,-1.13687E-013)" v:mID="12" v:groupContext="group">
				<title>Tabelle.12</title>
				<g id="shape13-23" v:mID="13" v:groupContext="shape" transform="translate(847.895,841.89) rotate(90) scale(-1,1)">
					<title>Tabelle.13</title>
					<path d="M0 841.89 L12.01 841.89" class="st2"/>
				</g>
				<g id="shape14-26" v:mID="14" v:groupContext="shape" transform="translate(0,1656.61) scale(1,-1)">
					<title>Tabelle.14</title>
					<ellipse cx="6.0056" cy="835.884" rx="6.0056" ry="6.0056" class="st3"/>
				</g>
			</g>
			<g id="group15-28" v:mID="15" v:groupContext="group">
				<title>Tabelle.15</title>
				<g id="shape16-29" v:mID="16" v:groupContext="shape" transform="translate(847.895,841.89) rotate(90) scale(-1,1)">
					<title>Tabelle.16</title>
					<path d="M0 841.89 L16.66 841.89" class="st2"/>
				</g>
				<g id="shape17-32" v:mID="17" v:groupContext="shape" transform="translate(0,1656.61) scale(1,-1)">
					<title>Tabelle.17</title>
					<ellipse cx="6.0056" cy="835.884" rx="6.0056" ry="6.0056" class="st3"/>
				</g>
			</g>
			<g id="group18-34" transform="translate(20.5191,0)" v:mID="18" v:groupContext="group">
				<title>Tabelle.18</title>
				<g id="shape19-35" v:mID="19" v:groupContext="shape" transform="translate(847.895,841.89) rotate(90) scale(-1,1)">
					<title>Tabelle.19</title>
					<path d="M0 841.89 L12.01 841.89" class="st2"/>
				</g>
				<g id="shape20-38" v:mID="20" v:groupContext="shape" transform="translate(0,1656.61) scale(1,-1)">
					<title>Tabelle.20</title>
					<ellipse cx="6.0056" cy="835.884" rx="6.0056" ry="6.0056" class="st3"/>
				</g>
			</g>
			<g id="group21-40" transform="translate(61.5574,0)" v:mID="21" v:groupContext="group">
				<title>Tabelle.21</title>
				<g id="shape22-41" v:mID="22" v:groupContext="shape" transform="translate(847.895,841.89) rotate(90) scale(-1,1)">
					<title>Tabelle.22</title>
					<path d="M0 841.89 L12.01 841.89" class="st2"/>
				</g>
				<g id="shape23-44" v:mID="23" v:groupContext="shape" transform="translate(0,1656.61) scale(1,-1)">
					<title>Tabelle.23</title>
					<ellipse cx="6.0056" cy="835.884" rx="6.0056" ry="6.0056" class="st3"/>
				</g>
			</g>
		</g>
		<g id="shape24-46" v:mID="24" v:groupContext="shape" transform="translate(109.281,-368.225)">
			<title>Diamond</title>
			<v:userDefs>
				<v:ud v:nameU="visVersion" v:val="VT0(11):26"/>
			</v:userDefs>
			<path d="M0 829.88 L12.01 817.87 L24.02 829.88 L12.01 841.89 L0 829.88 Z" class="st9"/>
		</g>
		<g id="shape25-48" v:mID="25" v:groupContext="shape" transform="translate(190.507,-368.225)">
			<title>Diamond.24</title>
			<v:userDefs>
				<v:ud v:nameU="visVersion" v:val="VT0(11):26"/>
			</v:userDefs>
			<path d="M0 829.88 L12.01 817.87 L24.02 829.88 L12.01 841.89 L0 829.88 Z" class="st9"/>
		</g>
		<g id="shape26-50" v:mID="26" v:groupContext="shape" transform="translate(211.026,-368.225)">
			<title>Diamond.25</title>
			<v:userDefs>
				<v:ud v:nameU="visVersion" v:val="VT0(11):26"/>
			</v:userDefs>
			<path d="M0 829.88 L12.01 817.87 L24.02 829.88 L12.01 841.89 L0 829.88 Z" class="st9"/>
		</g>
		<g id="shape27-52" v:mID="27" v:groupContext="shape" transform="translate(231.545,-368.225)">
			<title>Diamond.26</title>
			<v:userDefs>
				<v:ud v:nameU="visVersion" v:val="VT0(11):26"/>
			</v:userDefs>
			<path d="M0 829.88 L12.01 817.87 L24.02 829.88 L12.01 841.89 L0 829.88 Z" class="st9"/>
		</g>
		<g id="shape28-54" v:mID="28" v:groupContext="shape" transform="translate(252.064,-368.225)">
			<title>Diamond.27</title>
			<v:userDefs>
				<v:ud v:nameU="visVersion" v:val="VT0(11):26"/>
			</v:userDefs>
			<path d="M0 829.88 L12.01 817.87 L24.02 829.88 L12.01 841.89 L0 829.88 Z" class="st9"/>
		</g>
		<g id="group29-56" transform="translate(119.791,-497.662)" v:mID="29" v:groupContext="group">
			<title>Tabelle.29</title>
			<g id="shape30-57" v:mID="30" v:groupContext="shape">
				<title>Tabelle.30</title>
				<rect x="0" y="788.693" width="91.8857" height="53.197" rx="11.3386" ry="11.3386" class="st4"/>
			</g>
			<g id="shape31-59" v:mID="31" v:groupContext="shape" transform="translate(5.77644,-13.7696)">
				<title>Tabelle.31</title>
				<desc>Consumer</desc>
				<v:textBlock v:margins="rect(4,4,4,4)" v:tabSpace="42.5197"/>
				<v:textRect cx="40.6366" cy="829.061" width="81.28" height="25.6577"/>
				<rect x="0" y="816.232" width="81.2732" height="25.6577" class="st5"/>
				<text x="6.01" y="833.26" class="st6" v:langID="1031"><v:paragraph v:horizAlign="1"/><v:tabList/>Consumer</text>			</g>
		</g>
		<g id="shape32-62" v:mID="32" v:groupContext="shape" transform="translate(155.224,-486.299)">
			<title>Diamond.32</title>
			<v:userDefs>
				<v:ud v:nameU="visVersion" v:val="VT0(11):26"/>
			</v:userDefs>
			<path d="M0 829.88 L12.01 817.87 L24.02 829.88 L12.01 841.89 L0 829.88 Z" class="st9"/>
		</g>
		<g id="shape33-64" v:mID="33" v:groupContext="shape" transform="translate(353.706,-380.287)">
			<title>Tabelle.33</title>
			<rect x="0" y="723.659" width="210.196" height="118.231" class="st10"/>
		</g>
		<g id="group34-66" transform="translate(388.839,-380.744)" v:mID="34" v:groupContext="group">
			<title>Tabelle.34</title>
			<g id="shape35-67" v:mID="35" v:groupContext="shape" transform="translate(847.895,841.89) rotate(90) scale(-1,1)">
				<title>Tabelle.35</title>
				<path d="M0 841.89 L16.66 841.89" class="st2"/>
			</g>
			<g id="shape36-70" v:mID="36" v:groupContext="shape" transform="translate(0,1656.61) scale(1,-1)">
				<title>Tabelle.36</title>
				<ellipse cx="6.0056" cy="835.884" rx="6.0056" ry="6.0056" class="st3"/>
			</g>
		</g>
		<g id="group37-72" transform="translate(348.902,-327.547)" v:mID="37" v:groupContext="group">
			<title>Tabelle.37</title>
			<g id="shape38-73" v:mID="38" v:groupContext="shape">
				<title>Tabelle.38</title>
				<rect x="0" y="788.693" width="91.8857" height="53.197" rx="11.3386" ry="11.3386" class="st11"/>
			</g>
			<g id="shape39-75" v:mID="39" v:groupContext="shape" transform="translate(5.77644,-13.7696)">
				<title>Tabelle.39</title>
				<desc>Provider</desc>
				<v:textBlock v:margins="rect(4,4,4,4)" v:tabSpace="42.5197"/>
				<v:textRect cx="40.6366" cy="829.061" width="81.28" height="25.6577"/>
				<rect x="0" y="816.232" width="81.2732" height="25.6577" class="st5"/>
				<text x="12.23" y="833.26" class="st12" v:langID="1031"><v:paragraph v:horizAlign="1"/><v:tabList/>Provider</text>			</g>
		</g>
		<g id="group40-78" transform="translate(449.796,-328.338)" v:mID="40" v:groupContext="group">
			<title>Tabelle.40</title>
			<g id="shape41-79" v:mID="41" v:groupContext="shape">
				<title>Tabelle.41</title>
				<rect x="0" y="790.013" width="114.106" height="51.877" rx="11.3386" ry="11.3386" class="st13"/>
			</g>
			<g id="shape42-81" v:mID="42" v:groupContext="shape" transform="translate(7.17336,-13.428)">
				<title>Tabelle.42</title>
				<desc>Infrastructure</desc>
				<v:textBlock v:margins="rect(4,4,4,4)" v:tabSpace="42.5197"/>
				<v:textRect cx="50.4638" cy="829.379" width="100.93" height="25.021"/>
				<rect x="0" y="816.869" width="100.928" height="25.021" class="st5"/>
				<text x="11.47" y="832.98" class="st8" v:langID="1031"><v:paragraph v:horizAlign="1"/><v:tabList/>Infrastructure</text>			</g>
		</g>
		<g id="group43-84" transform="translate(470.065,-380.744)" v:mID="43" v:groupContext="group">
			<title>Tabelle.43</title>
			<g id="group44-85" transform="translate(41.0383,-1.13687E-013)" v:mID="44" v:groupContext="group">
				<title>Tabelle.44</title>
				<g id="shape45-86" v:mID="45" v:groupContext="shape" transform="translate(847.895,841.89) rotate(90) scale(-1,1)">
					<title>Tabelle.45</title>
					<path d="M0 841.89 L12.01 841.89" class="st2"/>
				</g>
				<g id="shape46-89" v:mID="46" v:groupContext="shape" transform="translate(0,1656.61) scale(1,-1)">
					<title>Tabelle.46</title>
					<ellipse cx="6.0056" cy="835.884" rx="6.0056" ry="6.0056" class="st3"/>
				</g>
			</g>
			<g id="group47-91" v:mID="47" v:groupContext="group">
				<title>Tabelle.47</title>
				<g id="shape48-92" v:mID="48" v:groupContext="shape" transform="translate(847.895,841.89) rotate(90) scale(-1,1)">
					<title>Tabelle.48</title>
					<path d="M0 841.89 L16.66 841.89" class="st2"/>
				</g>
				<g id="shape49-95" v:mID="49" v:groupContext="shape" transform="translate(0,1656.61) scale(1,-1)">
					<title>Tabelle.49</title>
					<ellipse cx="6.0056" cy="835.884" rx="6.0056" ry="6.0056" class="st3"/>
				</g>
			</g>
			<g id="group50-97" transform="translate(20.5191,0)" v:mID="50" v:groupContext="group">
				<title>Tabelle.50</title>
				<g id="shape51-98" v:mID="51" v:groupContext="shape" transform="translate(847.895,841.89) rotate(90) scale(-1,1)">
					<title>Tabelle.51</title>
					<path d="M0 841.89 L12.01 841.89" class="st2"/>
				</g>
				<g id="shape52-101" v:mID="52" v:groupContext="shape" transform="translate(0,1656.61) scale(1,-1)">
					<title>Tabelle.52</title>
					<ellipse cx="6.0056" cy="835.884" rx="6.0056" ry="6.0056" class="st3"/>
				</g>
			</g>
			<g id="group53-103" transform="translate(61.5574,0)" v:mID="53" v:groupContext="group">
				<title>Tabelle.53</title>
				<g id="shape54-104" v:mID="54" v:groupContext="shape" transform="translate(847.895,841.89) rotate(90) scale(-1,1)">
					<title>Tabelle.54</title>
					<path d="M0 841.89 L12.01 841.89" class="st2"/>
				</g>
				<g id="shape55-107" v:mID="55" v:groupContext="shape" transform="translate(0,1656.61) scale(1,-1)">
					<title>Tabelle.55</title>
					<ellipse cx="6.0056" cy="835.884" rx="6.0056" ry="6.0056" class="st3"/>
				</g>
			</g>
		</g>
		<g id="shape56-109" v:mID="56" v:groupContext="shape" transform="translate(382.833,-368.733)">
			<title>Diamond.56</title>
			<v:userDefs>
				<v:ud v:nameU="visVersion" v:val="VT0(11):26"/>
			</v:userDefs>
			<path d="M0 829.88 L12.01 817.87 L24.02 829.88 L12.01 841.89 L0 829.88 Z" class="st14"/>
		</g>
		<g id="shape57-111" v:mID="57" v:groupContext="shape" transform="translate(464.059,-368.733)">
			<title>Diamond.57</title>
			<v:userDefs>
				<v:ud v:nameU="visVersion" v:val="VT0(11):26"/>
			</v:userDefs>
			<path d="M0 829.88 L12.01 817.87 L24.02 829.88 L12.01 841.89 L0 829.88 Z" class="st14"/>
		</g>
		<g id="shape58-113" v:mID="58" v:groupContext="shape" transform="translate(484.578,-368.733)">
			<title>Diamond.58</title>
			<v:userDefs>
				<v:ud v:nameU="visVersion" v:val="VT0(11):26"/>
			</v:userDefs>
			<path d="M0 829.88 L12.01 817.87 L24.02 829.88 L12.01 841.89 L0 829.88 Z" class="st14"/>
		</g>
		<g id="shape59-115" v:mID="59" v:groupContext="shape" transform="translate(505.097,-368.733)">
			<title>Diamond.59</title>
			<v:userDefs>
				<v:ud v:nameU="visVersion" v:val="VT0(11):26"/>
			</v:userDefs>
			<path d="M0 829.88 L12.01 817.87 L24.02 829.88 L12.01 841.89 L0 829.88 Z" class="st14"/>
		</g>
		<g id="shape60-117" v:mID="60" v:groupContext="shape" transform="translate(525.616,-368.733)">
			<title>Diamond.61</title>
			<v:userDefs>
				<v:ud v:nameU="visVersion" v:val="VT0(11):26"/>
			</v:userDefs>
			<path d="M0 829.88 L12.01 817.87 L24.02 829.88 L12.01 841.89 L0 829.88 Z" class="st14"/>
		</g>
		<g id="group61-119" transform="translate(393.343,-498.17)" v:mID="61" v:groupContext="group">
			<title>Tabelle.61</title>
			<g id="shape62-120" v:mID="62" v:groupContext="shape">
				<title>Tabelle.62</title>
				<rect x="0" y="788.693" width="91.8857" height="53.197" rx="11.3386" ry="11.3386" class="st11"/>
			</g>
			<g id="shape63-122" v:mID="63" v:groupContext="shape" transform="translate(5.77644,-13.7696)">
				<title>Tabelle.63</title>
				<desc>Consumer</desc>
				<v:textBlock v:margins="rect(4,4,4,4)" v:tabSpace="42.5197"/>
				<v:textRect cx="40.6366" cy="829.061" width="81.28" height="25.6577"/>
				<rect x="0" y="816.232" width="81.2732" height="25.6577" class="st5"/>
				<text x="6.01" y="833.26" class="st12" v:langID="1031"><v:paragraph v:horizAlign="1"/><v:tabList/>Consumer</text>			</g>
		</g>
		<g id="shape64-125" v:mID="64" v:groupContext="shape" transform="translate(428.776,-486.807)">
			<title>Diamond.65</title>
			<v:userDefs>
				<v:ud v:nameU="visVersion" v:val="VT0(11):26"/>
			</v:userDefs>
			<path d="M0 829.88 L12.01 817.87 L24.02 829.88 L12.01 841.89 L0 829.88 Z" class="st14"/>
		</g>
		<g id="shape65-127" v:mID="65" v:groupContext="shape" transform="translate(120.551,-416.037)">
			<title>Tabelle.65</title>
			<path d="M0 828.21 L0 827.85 L0 788.02 L22.74 775.89" class="st15"/>
		</g>
		<g id="shape66-136" v:mID="66" v:groupContext="shape" transform="translate(173.247,-411.353)">
			<title>Tabelle.66</title>
			<path d="M9.67 781.3 L9.93 781.56 L12.1 783.73 L140.52 783.73 L199.97 832.94" class="st15"/>
		</g>
		<g id="shape67-143" v:mID="67" v:groupContext="shape" transform="translate(131.09,-418.379)">
			<title>Tabelle.67</title>
			<path d="M287.45 779.89 L287.13 780.05 L241.23 802.07 L18.74 802.07 L5.98 829.19" class="st17"/>
		</g>
		<g id="shape68-152" v:mID="68" v:groupContext="shape" transform="translate(407.453,-411.353)">
			<title>Tabelle.68</title>
			<path d="M35.13 785.31 L35.13 785.67 L35.13 806.76 L9.93 831.96" class="st17"/>
		</g>
		<g id="shape69-159" v:mID="69" v:groupContext="shape" transform="translate(149.827,-421.274)">
			<title>Tabelle.69</title>
			<desc>ESB A (domain A)</desc>
			<v:textBlock v:margins="rect(4,4,4,4)" v:tabSpace="42.5197"/>
			<v:textRect cx="70.2616" cy="828.39" width="140.53" height="26.9987"/>
			<rect x="0" y="814.891" width="140.523" height="26.9987" class="st5"/>
			<text x="48.86" y="824.19" class="st6" v:langID="1031"><v:paragraph v:horizAlign="1"/><v:tabList/>ESB A<v:lf/><tspan
						x="33.7" dy="1.2em" class="st19">(</tspan>domain A)</text>		</g>
		<g id="shape70-163" v:mID="70" v:groupContext="shape" transform="translate(437.9,-454.616)">
			<title>Tabelle.70</title>
			<desc>ESB B (domain B)</desc>
			<v:textBlock v:margins="rect(4,4,4,4)" v:tabSpace="42.5197"/>
			<v:textRect cx="70.2616" cy="828.39" width="140.53" height="26.9987"/>
			<rect x="0" y="814.891" width="140.523" height="26.9987" class="st5"/>
			<text x="48.86" y="824.19" class="st6" v:langID="1031"><v:paragraph v:horizAlign="1"/><v:tabList/>ESB B<v:lf/><tspan
						x="33.7" dy="1.2em" class="st19">(</tspan>domain B)</text>		</g>
		<g id="shape71-167" v:mID="71" v:groupContext="shape" transform="translate(58.1095,1387.76) scale(1,-1)">
			<title>Tabelle.71</title>
			<ellipse cx="6.32616" cy="835.564" rx="6.32616" ry="6.32616" class="st3"/>
		</g>
		<g id="shape72-169" v:mID="72" v:groupContext="shape" transform="translate(178.298,-280.967)">
			<title>Diamond.48</title>
			<v:userDefs>
				<v:ud v:nameU="visVersion" v:val="VT0(11):26"/>
			</v:userDefs>
			<path d="M0 832.75 L9.14 823.61 L18.28 832.75 L9.14 841.89 L0 832.75 Z" class="st9"/>
		</g>
		<g id="shape73-171" v:mID="73" v:groupContext="shape" transform="translate(58.5539,-281.355)">
			<title>Tabelle.73</title>
			<desc>Service Endpoint</desc>
			<v:textBlock v:margins="rect(4,4,4,4)" v:tabSpace="42.5197"/>
			<v:textRect cx="58.9287" cy="833.688" width="117.86" height="16.4036"/>
			<rect x="0" y="825.486" width="117.857" height="16.4036" class="st5"/>
			<text x="17.34" y="836.99" class="st20" v:langID="1031"><v:paragraph v:horizAlign="1"/><v:tabList/>Service Endpoint</text>		</g>
		<g id="shape74-174" v:mID="74" v:groupContext="shape" transform="translate(174.994,-275.755)">
			<title>Tabelle.74</title>
			<desc>ESB-Stub</desc>
			<v:textBlock v:margins="rect(4,4,4,4)" v:tabSpace="42.5197"/>
			<v:textRect cx="58.9287" cy="828.39" width="117.86" height="26.9987"/>
			<rect x="0" y="814.891" width="117.857" height="26.9987" class="st5"/>
			<text x="34.77" y="831.69" class="st20" v:langID="1031"><v:paragraph v:horizAlign="1"/><v:tabList/>ESB-Stub</text>		</g>
		<g id="shape75-177" v:mID="75" v:groupContext="shape" transform="translate(16.8527,-294.25)">
			<title>Tabelle.75</title>
			<desc>Legend:</desc>
			<v:textBlock v:margins="rect(4,4,4,4)" v:tabSpace="42.5197"/>
			<v:textRect cx="58.9287" cy="828.39" width="117.86" height="26.9987"/>
			<rect x="0" y="814.891" width="117.857" height="26.9987" class="st5"/>
			<text x="31.7" y="832.59" class="st6" v:langID="1031"><v:paragraph v:horizAlign="1"/><v:tabList/>Legend:</text>		</g>
		<g id="shape76-180" v:mID="76" v:groupContext="shape" transform="translate(-470.018,-92.6314) rotate(-56.4725)">
			<title>Tabelle.76</title>
			<path d="M6.12 841.89 L6.48 841.89 L76.32 841.89" class="st21"/>
		</g>
		<g id="shape77-187" v:mID="77" v:groupContext="shape" transform="translate(233.66,-534.452)">
			<title>Tabelle.77</title>
			<desc>Client Service Communication</desc>
			<v:textBlock v:margins="rect(4,4,4,4)" v:tabSpace="42.5197"/>
			<v:textRect cx="62.7931" cy="826.048" width="125.59" height="31.6828"/>
			<rect x="0" y="810.207" width="125.586" height="31.6828" class="st5"/>
			<text x="23.11" y="822.45" class="st8" v:langID="1031"><v:paragraph v:horizAlign="1"/><v:tabList/>Client Service <tspan
						x="17.47" dy="1.2em" class="st19">Communication</tspan></text>		</g>
		<g id="shape78-191" v:mID="78" v:groupContext="shape" transform="translate(-234.694,979.002) rotate(-135)">
			<title>Tabelle.78</title>
			<path d="M6.12 841.89 L6.48 841.89 L99.36 841.89" class="st21"/>
		</g>
	</g>
</svg>
