<?xml version="1.0" encoding="UTF-8" standalone="no"?>
<!DOCTYPE svg PUBLIC "-//W3C//DTD SVG 1.0//EN" "http://www.w3.org/TR/2001/REC-SVG-20010904/DTD/svg10.dtd">
<!-- Generiert durch Microsoft Visio 11.0, SVG Export, v1.0 wsa-osi.svg Zeichenblatt-1 -->
<svg xmlns="http://www.w3.org/2000/svg" xmlns:v="http://schemas.microsoft.com/visio/2003/SVGExtensions/" width="2.97276in"
		height="5.43339in" viewBox="0 0 214.038 391.204" xml:space="preserve" color-interpolation-filters="sRGB" class="st7">
	<v:documentProperties v:langID="1031" v:metric="true" v:viewMarkup="false"/>

	<style type="text/css">
	<![CDATA[
		.st1 {fill:#ccffff;stroke:#000000;stroke-linecap:round;stroke-linejoin:round;stroke-width:0.72}
		.st2 {fill:#000000;font-family:Arial;font-size:1.33333em;font-weight:bold}
		.st3 {fill:#00ffff;stroke:#000000;stroke-linecap:round;stroke-linejoin:round;stroke-width:0.72}
		.st4 {fill:#000000;font-family:Arial;font-size:1.16666em;font-weight:bold}
		.st5 {font-size:1em}
		.st6 {fill:#e8eef7;stroke:#000000;stroke-linecap:round;stroke-linejoin:round;stroke-width:0.24}
		.st7 {fill:none;fill-rule:evenodd;font-size:12;overflow:visible;stroke-linecap:square;stroke-miterlimit:3}
	]]>
	</style>

	<g v:mID="0" v:index="1" v:groupContext="foregroundPage">
		<title>Zeichenblatt-1</title>
		<v:pageProperties v:drawingScale="0.0393701" v:pageScale="0.0393701" v:drawingUnits="24" v:shadowOffsetX="8.50394"
				v:shadowOffsetY="-8.50394"/>
		<g id="shape1-1" v:mID="1" v:groupContext="shape" transform="translate(0.72,-0.72)">
			<title>Tabelle.1</title>
			<desc>Data Link (physical)</desc>
			<v:textBlock v:margins="rect(4,4,4,4)" v:tabSpace="42.5197"/>
			<v:textRect cx="106.299" cy="377.031" width="212.6" height="28.3465"/>
			<rect x="0" y="362.857" width="212.598" height="28.3465" class="st1"/>
			<text x="30.73" y="381.83" class="st2" v:langID="1031"><v:paragraph v:horizAlign="1"/><v:tabList/>Data Link (physical)</text>		</g>
		<g id="shape2-4" v:mID="2" v:groupContext="shape" transform="translate(0.72,-46.0743)">
			<title>Tabelle.2</title>
			<desc>Network</desc>
			<v:textBlock v:margins="rect(4,4,4,4)" v:tabSpace="42.5197"/>
			<v:textRect cx="106.299" cy="377.031" width="212.6" height="28.3465"/>
			<rect x="0" y="362.857" width="212.598" height="28.3465" class="st1"/>
			<text x="74.74" y="381.83" class="st2" v:langID="1031"><v:paragraph v:horizAlign="1"/><v:tabList/>Network</text>		</g>
		<g id="shape3-7" v:mID="3" v:groupContext="shape" transform="translate(0.72,-91.4287)">
			<title>Tabelle.3</title>
			<desc>TCP</desc>
			<v:textBlock v:margins="rect(4,4,4,4)" v:tabSpace="42.5197"/>
			<v:textRect cx="49.6063" cy="377.031" width="99.22" height="28.3465"/>
			<rect x="0" y="362.857" width="99.2126" height="28.3465" class="st1"/>
			<text x="33.6" y="381.83" class="st2" v:langID="1031"><v:paragraph v:horizAlign="1"/><v:tabList/>TCP</text>		</g>
		<g id="shape4-10" v:mID="4" v:groupContext="shape" transform="translate(114.106,-91.4287)">
			<title>Tabelle.4</title>
			<desc>UDP</desc>
			<v:textBlock v:margins="rect(4,4,4,4)" v:tabSpace="42.5197"/>
			<v:textRect cx="49.6063" cy="377.031" width="99.22" height="28.3465"/>
			<rect x="0" y="362.857" width="99.2126" height="28.3465" class="st1"/>
			<text x="32.71" y="381.83" class="st2" v:langID="1031"><v:paragraph v:horizAlign="1"/><v:tabList/>UDP</text>		</g>
		<g id="shape5-13" v:mID="5" v:groupContext="shape" transform="translate(0.72,-136.783)">
			<title>Tabelle.5</title>
			<desc>HTTP</desc>
			<v:textBlock v:margins="rect(4,4,4,4)" v:tabSpace="42.5197"/>
			<v:textRect cx="106.299" cy="377.031" width="212.6" height="28.3465"/>
			<rect x="0" y="362.857" width="212.598" height="28.3465" class="st3"/>
			<text x="85.41" y="381.83" class="st2" v:langID="1031"><v:paragraph v:horizAlign="1"/><v:tabList/>HTTP</text>		</g>
		<g id="shape6-16" v:mID="6" v:groupContext="shape" transform="translate(0.72,-183.555)">
			<title>Tabelle.6</title>
			<desc>XML, SOAP</desc>
			<v:textBlock v:margins="rect(4,4,4,4)" v:tabSpace="42.5197"/>
			<v:textRect cx="106.299" cy="348.684" width="212.6" height="85.0394"/>
			<rect x="0" y="306.164" width="212.598" height="85.0394" class="st3"/>
			<text x="62.3" y="378.08" class="st2" v:langID="1031"><v:paragraph v:horizAlign="1"/><v:tabList/><v:lf/><v:lf/><v:lf/>XML, SOAP</text>		</g>
		<g id="shape7-19" v:mID="7" v:groupContext="shape" transform="translate(13.4759,-220.405)">
			<title>Tabelle.7</title>
			<desc>Web Service Middelware (including Web Security)</desc>
			<v:textBlock v:margins="rect(4,4,4,4)" v:tabSpace="42.5197"/>
			<v:textRect cx="92.126" cy="371.361" width="184.26" height="39.685"/>
			<rect x="0" y="351.519" width="184.252" height="39.685" class="st3"/>
			<text x="10.43" y="367.16" class="st4" v:langID="1031"><v:paragraph v:horizAlign="1"/><v:tabList/>Web Service Middelware <tspan
						x="10.07" dy="1.2em" class="st5">(</tspan>including Web Security)</text>		</g>
		<g id="shape8-23" v:mID="8" v:groupContext="shape" transform="translate(0.72,-287.019)">
			<title>Tabelle.8</title>
			<desc>WSDL</desc>
			<v:textBlock v:margins="rect(4,4,4,4)" v:tabSpace="42.5197"/>
			<v:textRect cx="67.3228" cy="377.031" width="134.65" height="28.3465"/>
			<rect x="0" y="362.857" width="134.646" height="28.3465" class="st3"/>
			<text x="43.77" y="381.83" class="st2" v:langID="1031"><v:paragraph v:horizAlign="1"/><v:tabList/>WSDL</text>		</g>
		<g id="shape9-26" v:mID="9" v:groupContext="shape" transform="translate(0.72,-333.791)">
			<title>Tabelle.9</title>
			<desc>Applications</desc>
			<v:textBlock v:margins="rect(4,4,4,4)" v:tabSpace="42.5197"/>
			<v:textRect cx="106.299" cy="362.857" width="212.6" height="56.6929"/>
			<rect x="0" y="334.511" width="212.598" height="56.6929" class="st1"/>
			<text x="58.3" y="358.06" class="st2" v:langID="1031"><v:paragraph v:horizAlign="1"/><v:tabList/>Applications<v:lf/><v:lf/></text>		</g>
		<g id="shape10-29" v:mID="10" v:groupContext="shape" transform="translate(0.72,-333.791)">
			<title>Tabelle.10</title>
			<desc>UDDI</desc>
			<v:textBlock v:margins="rect(4,4,4,4)" v:tabSpace="42.5197"/>
			<v:textRect cx="35.4331" cy="379.865" width="70.87" height="22.6772"/>
			<rect x="0" y="368.527" width="70.8661" height="22.6772" class="st3"/>
			<text x="15.87" y="384.67" class="st2" v:langID="1031"><v:paragraph v:horizAlign="1"/><v:tabList/>UDDI</text>		</g>
		<g id="shape11-32" v:mID="11" v:groupContext="shape" transform="translate(-353.633,345.129) rotate(-90) scale(-1,1)">
			<title>60 degree double</title>
			<v:userDefs>
				<v:ud v:nameU="visVersion" v:val="VT0(11):26"/>
			</v:userDefs>
			<path d="M0 382.7 L4.91 374.2 L4.91 379.81 L12.1 379.81 L12.1 374.2 L17.01 382.7 L12.1 391.2 L12.1 385.59 L4.91 385.59
						 L4.91 391.2 L0 382.7 Z" class="st6"/>
		</g>
		<g id="shape12-34" v:mID="12" v:groupContext="shape" transform="translate(-282.767,345.129) rotate(-90) scale(-1,1)">
			<title>60 degree double.12</title>
			<v:userDefs>
				<v:ud v:nameU="visVersion" v:val="VT0(11):26"/>
			</v:userDefs>
			<path d="M0 382.7 L4.91 374.2 L4.91 379.81 L12.1 379.81 L12.1 374.2 L17.01 382.7 L12.1 391.2 L12.1 385.59 L4.91 385.59
						 L4.91 391.2 L0 382.7 Z" class="st6"/>
		</g>
		<g id="shape13-36" v:mID="13" v:groupContext="shape" transform="translate(-211.901,345.129) rotate(-90) scale(-1,1)">
			<title>60 degree double.13</title>
			<v:userDefs>
				<v:ud v:nameU="visVersion" v:val="VT0(11):26"/>
			</v:userDefs>
			<path d="M0 382.7 L4.91 374.2 L4.91 379.81 L12.1 379.81 L12.1 374.2 L17.01 382.7 L12.1 391.2 L12.1 385.59 L4.91 385.59
						 L4.91 391.2 L0 382.7 Z" class="st6"/>
		</g>
		<g id="shape14-38" v:mID="14" v:groupContext="shape" transform="translate(-332.374,299.775) rotate(-90) scale(-1,1)">
			<title>60 degree double.14</title>
			<v:userDefs>
				<v:ud v:nameU="visVersion" v:val="VT0(11):26"/>
			</v:userDefs>
			<path d="M0 382.7 L4.91 374.2 L4.91 379.81 L12.1 379.81 L12.1 374.2 L17.01 382.7 L12.1 391.2 L12.1 385.59 L4.91 385.59
						 L4.91 391.2 L0 382.7 Z" class="st6"/>
		</g>
		<g id="shape15-40" v:mID="15" v:groupContext="shape" transform="translate(-218.988,299.775) rotate(-90) scale(-1,1)">
			<title>60 degree double.15</title>
			<v:userDefs>
				<v:ud v:nameU="visVersion" v:val="VT0(11):26"/>
			</v:userDefs>
			<path d="M0 382.7 L4.91 374.2 L4.91 379.81 L12.1 379.81 L12.1 374.2 L17.01 382.7 L12.1 391.2 L12.1 385.59 L4.91 385.59
						 L4.91 391.2 L0 382.7 Z" class="st6"/>
		</g>
		<g id="shape16-42" v:mID="16" v:groupContext="shape" transform="translate(-332.374,254.421) rotate(-90) scale(-1,1)">
			<title>60 degree double.16</title>
			<v:userDefs>
				<v:ud v:nameU="visVersion" v:val="VT0(11):26"/>
			</v:userDefs>
			<path d="M0 382.7 L4.91 374.2 L4.91 379.81 L12.1 379.81 L12.1 374.2 L17.01 382.7 L12.1 391.2 L12.1 385.59 L4.91 385.59
						 L4.91 391.2 L0 382.7 Z" class="st6"/>
		</g>
		<g id="shape17-44" v:mID="17" v:groupContext="shape" transform="translate(-218.988,254.421) rotate(-90) scale(-1,1)">
			<title>60 degree double.17</title>
			<v:userDefs>
				<v:ud v:nameU="visVersion" v:val="VT0(11):26"/>
			</v:userDefs>
			<path d="M0 382.7 L4.91 374.2 L4.91 379.81 L12.1 379.81 L12.1 374.2 L17.01 382.7 L12.1 391.2 L12.1 385.59 L4.91 385.59
						 L4.91 391.2 L0 382.7 Z" class="st6"/>
		</g>
		<g id="shape18-46" v:mID="18" v:groupContext="shape" transform="translate(-347.964,209.066) rotate(-90) scale(-1,1)">
			<title>60 degree double.18</title>
			<v:userDefs>
				<v:ud v:nameU="visVersion" v:val="VT0(11):26"/>
			</v:userDefs>
			<path d="M0 382.7 L4.91 374.2 L4.91 379.81 L12.1 379.81 L12.1 374.2 L17.01 382.7 L12.1 391.2 L12.1 385.59 L4.91 385.59
						 L4.91 391.2 L0 382.7 Z" class="st6"/>
		</g>
		<g id="shape19-48" v:mID="19" v:groupContext="shape" transform="translate(-277.098,209.066) rotate(-90) scale(-1,1)">
			<title>60 degree double.19</title>
			<v:userDefs>
				<v:ud v:nameU="visVersion" v:val="VT0(11):26"/>
			</v:userDefs>
			<path d="M0 382.7 L4.91 374.2 L4.91 379.81 L12.1 379.81 L12.1 374.2 L17.01 382.7 L12.1 391.2 L12.1 385.59 L4.91 385.59
						 L4.91 391.2 L0 382.7 Z" class="st6"/>
		</g>
		<g id="shape20-50" v:mID="20" v:groupContext="shape" transform="translate(-206.232,209.066) rotate(-90) scale(-1,1)">
			<title>60 degree double.20</title>
			<v:userDefs>
				<v:ud v:nameU="visVersion" v:val="VT0(11):26"/>
			</v:userDefs>
			<path d="M0 382.7 L4.91 374.2 L4.91 379.81 L12.1 379.81 L12.1 374.2 L17.01 382.7 L12.1 391.2 L12.1 385.59 L4.91 385.59
						 L4.91 391.2 L0 382.7 Z" class="st6"/>
		</g>
		<g id="shape21-52" v:mID="21" v:groupContext="shape" transform="translate(-318.2,105.602) rotate(-90) scale(-1,1)">
			<title>60 degree double.21</title>
			<v:userDefs>
				<v:ud v:nameU="visVersion" v:val="VT0(11):26"/>
			</v:userDefs>
			<path d="M0 382.7 L4.91 374.2 L4.91 379.81 L12.1 379.81 L12.1 374.2 L17.01 382.7 L12.1 391.2 L12.1 385.59 L4.91 385.59
						 L4.91 391.2 L0 382.7 Z" class="st6"/>
		</g>
		<g id="shape22-54" v:mID="22" v:groupContext="shape" transform="translate(-346.547,58.8302) rotate(-90) scale(-1,1)">
			<title>60 degree double.22</title>
			<v:userDefs>
				<v:ud v:nameU="visVersion" v:val="VT0(11):26"/>
			</v:userDefs>
			<path d="M0 382.7 L4.91 374.2 L4.91 379.81 L12.1 379.81 L12.1 374.2 L17.01 382.7 L12.1 391.2 L12.1 385.59 L4.91 385.59
						 L4.91 391.2 L0 382.7 Z" class="st6"/>
		</g>
		<g id="shape23-56" v:mID="23" v:groupContext="shape" transform="translate(-275.681,58.8302) rotate(-90) scale(-1,1)">
			<title>60 degree double.23</title>
			<v:userDefs>
				<v:ud v:nameU="visVersion" v:val="VT0(11):26"/>
			</v:userDefs>
			<path d="M0 382.7 L4.91 374.2 L4.91 379.81 L12.1 379.81 L12.1 374.2 L17.01 382.7 L12.1 391.2 L12.1 385.59 L4.91 385.59
						 L4.91 391.2 L0 382.7 Z" class="st6"/>
		</g>
		<g id="shape24-58" v:mID="24" v:groupContext="shape" transform="translate(-204.814,58.4759) rotate(-90) scale(-1,1)">
			<title>60 degree double.24</title>
			<v:userDefs>
				<v:ud v:nameU="visVersion" v:val="VT0(11):26"/>
			</v:userDefs>
			<path d="M0 382.7 L4.91 374.2 L4.91 379.81 L59.22 379.81 L59.22 374.2 L64.13 382.7 L59.22 391.2 L59.22 385.59 L4.91 385.59
						 L4.91 391.2 L0 382.7 Z" class="st6"/>
		</g>
	</g>
</svg>
