<?xml version="1.0" encoding="UTF-8" standalone="no"?>
<!DOCTYPE svg PUBLIC "-//W3C//DTD SVG 1.0//EN" "http://www.w3.org/TR/2001/REC-SVG-20010904/DTD/svg10.dtd">
<!-- Generated by Microsoft Visio 11.0, SVG Export, v1.0 xTDL Framework.svg Page-1 -->
<svg xmlns="http://www.w3.org/2000/svg" xmlns:xlink="http://www.w3.org/1999/xlink" xmlns:ev="http://www.w3.org/2001/xml-events"
		xmlns:v="http://schemas.microsoft.com/visio/2003/SVGExtensions/" width="4.33738in" height="4.61963in"
		viewBox="0 0 312.291 332.614" xml:space="preserve" color-interpolation-filters="sRGB" class="st9">
	<v:documentProperties v:langID="1033" v:viewMarkup="false"/>

	<style type="text/css">
	<![CDATA[
		.st1 {fill:url(#grad30-4);stroke:#000000;stroke-linecap:round;stroke-linejoin:round;stroke-width:0.24}
		.st2 {fill:url(#grad40-8);stroke:#000000;stroke-linecap:round;stroke-linejoin:round;stroke-width:0.24}
		.st3 {fill:#000000;font-family:Arial;font-size:0.75em}
		.st4 {font-size:1em}
		.st5 {fill:url(#grad40-14);stroke:#000000;stroke-linecap:round;stroke-linejoin:round;stroke-width:0.24}
		.st6 {stroke:#000000;stroke-linecap:round;stroke-linejoin:round;stroke-width:0.72}
		.st7 {fill:none;stroke:none;stroke-linecap:round;stroke-linejoin:round;stroke-width:0.72}
		.st8 {fill:#000000;font-family:Arial;font-size:0.833336em;font-weight:bold}
		.st9 {fill:none;fill-rule:evenodd;font-size:12px;overflow:visible;stroke-linecap:square;stroke-miterlimit:3}
	]]>
	</style>

	<defs id="Patterns_And_Gradients">
		<linearGradient id="grad30-4" v:fillPattern="30" v:foreground="#eff1e4" v:background="#66ccff" x1="0" y1="1" x2="0" y2="0">
			<stop offset="0" style="stop-color:#eff1e4;stop-opacity:1"/>
			<stop offset="1" style="stop-color:#66ccff;stop-opacity:1"/>
		</linearGradient>
		<radialGradient id="grad40-8" v:fillPattern="40" v:foreground="#eff1e4" v:background="#ff9933" cx="0.5" cy="0.5" r="0.5">
			<stop offset="0" style="stop-color:#eff1e4;stop-opacity:1"/>
			<stop offset="1" style="stop-color:#ff9933;stop-opacity:1"/>
		</radialGradient>
		<radialGradient id="grad40-14" v:fillPattern="40" v:foreground="#eff1e4" v:background="#ffcc99" cx="0.5" cy="0.5" r="0.5">
			<stop offset="0" style="stop-color:#eff1e4;stop-opacity:1"/>
			<stop offset="1" style="stop-color:#ffcc99;stop-opacity:1"/>
		</radialGradient>
	</defs>
	<g v:mID="0" v:index="1" v:groupContext="foregroundPage">
		<v:userDefs>
			<v:ud v:nameU="SchemeName" v:val="VT4(Default)"/>
		</v:userDefs>
		<title>Page-1</title>
		<v:pageProperties v:drawingScale="0.0393701" v:pageScale="0.0393701" v:drawingUnits="24" v:shadowOffsetX="8.50394"
				v:shadowOffsetY="-8.50394"/>
		<v:layer v:name="Connector" v:index="0"/>
		<g id="shape1-1" v:mID="1" v:groupContext="shape" transform="translate(0.24,-0.24)">
			<title>Circle</title>
			<v:userDefs>
				<v:ud v:nameU="visVersion" v:val="VT0(11):26"/>
			</v:userDefs>
			<path d="M0 176.71 A155.906 155.906 0 0 1 311.81 176.71 A155.906 155.906 0 1 1 0 176.71 Z" class="st1"/>
		</g>
		<g id="shape2-5" v:mID="2" v:groupContext="shape" transform="translate(120.712,-120.712)">
			<title>Circle.2</title>
			<desc>Message Instance</desc>
			<v:userDefs>
				<v:ud v:nameU="visVersion" v:val="VT0(11):26"/>
			</v:userDefs>
			<v:textBlock v:margins="rect(4,4,4,4)" v:tabSpace="42.5197"/>
			<v:textRect cx="35.4331" cy="297.18" width="70.87" height="70.8661"/>
			<path d="M0 297.18 A35.4331 35.4331 0 0 1 70.87 297.18 A35.4331 35.4331 0 1 1 -0 297.18 Z" class="st2"/>
			<text x="17.17" y="294.48" class="st3" v:langID="2057"><v:paragraph v:horizAlign="1"/><v:tabList/>Message<v:lf/><tspan
						x="18.42" dy="1.2em" class="st4">Instance</tspan></text>		</g>
		<g id="shape3-11" v:mID="3" v:groupContext="shape" transform="translate(120.712,-227.012)">
			<title>Circle.3</title>
			<desc>Message Structure</desc>
			<v:userDefs>
				<v:ud v:nameU="visVersion" v:val="VT0(11):26"/>
			</v:userDefs>
			<v:textBlock v:margins="rect(4,4,4,4)" v:tabSpace="42.5197"/>
			<v:textRect cx="35.4331" cy="297.18" width="70.87" height="70.8661"/>
			<path d="M0 297.18 A35.4331 35.4331 0 0 1 70.87 297.18 A35.4331 35.4331 0 1 1 -0 297.18 Z" class="st5"/>
			<text x="17.17" y="294.48" class="st3" v:langID="2057"><v:paragraph v:horizAlign="1"/><v:tabList/>Message<v:lf/><tspan
						x="17.18" dy="1.2em" class="st4">Structure</tspan></text>		</g>
		<g id="shape4-17" v:mID="4" v:groupContext="shape" transform="translate(227.012,-141.972)">
			<title>Circle.4</title>
			<desc>Data Element Dictionary</desc>
			<v:userDefs>
				<v:ud v:nameU="visVersion" v:val="VT0(11):26"/>
			</v:userDefs>
			<v:textBlock v:margins="rect(4,4,4,4)" v:tabSpace="42.5197"/>
			<v:textRect cx="35.4331" cy="297.18" width="70.87" height="70.8661"/>
			<path d="M0 297.18 A35.4331 35.4331 0 0 1 70.87 297.18 A35.4331 35.4331 0 1 1 -0 297.18 Z" class="st5"/>
			<text x="25.93" y="289.08" class="st3" v:langID="2057"><v:paragraph v:horizAlign="1"/><v:tabList/>Data<v:lf/><tspan
						x="18.93" dy="1.2em" class="st4">Element<v:lf/></tspan><tspan x="15.43" dy="1.2em" class="st4">Dictionary</tspan></text>		</g>
		<g id="shape5-23" v:mID="5" v:groupContext="shape" transform="translate(184.492,-35.6731)">
			<title>Circle.5</title>
			<desc>Data Forwarding</desc>
			<v:userDefs>
				<v:ud v:nameU="visVersion" v:val="VT0(11):26"/>
			</v:userDefs>
			<v:textBlock v:margins="rect(4,4,4,4)" v:tabSpace="42.5197"/>
			<v:textRect cx="35.4331" cy="297.18" width="70.87" height="70.8661"/>
			<path d="M0 297.18 A35.4331 35.4331 0 0 1 70.87 297.18 A35.4331 35.4331 0 1 1 -0 297.18 Z" class="st5"/>
			<text x="25.93" y="294.48" class="st3" v:langID="2057"><v:paragraph v:horizAlign="1"/><v:tabList/>Data<v:lf/><tspan
						x="12.92" dy="1.2em" class="st4">Forwarding</tspan></text>		</g>
		<g id="shape6-28" v:mID="6" v:groupContext="shape" transform="translate(56.9329,-35.6731)">
			<title>Circle.6</title>
			<desc>Implementation Requirements</desc>
			<v:userDefs>
				<v:ud v:nameU="visVersion" v:val="VT0(11):26"/>
			</v:userDefs>
			<v:textBlock v:margins="rect(4,4,4,4)" v:tabSpace="42.5197"/>
			<v:textRect cx="35.4331" cy="297.18" width="70.87" height="70.8661"/>
			<path d="M0 297.18 A35.4331 35.4331 0 0 1 70.87 297.18 A35.4331 35.4331 0 1 1 -0 297.18 Z" class="st5"/>
			<text x="4.67" y="294.48" class="st3" v:langID="2057"><v:paragraph v:horizAlign="1"/><v:tabList/>Implementation<v:lf/><tspan
						x="7.42" dy="1.2em" class="st4">Requirements</tspan></text>		</g>
		<g id="shape7-33" v:mID="7" v:groupContext="shape" transform="translate(21.4998,-149.059)">
			<title>Circle.7</title>
			<desc>TDL Processing</desc>
			<v:userDefs>
				<v:ud v:nameU="visVersion" v:val="VT0(11):26"/>
			</v:userDefs>
			<v:textBlock v:margins="rect(4,4,4,4)" v:tabSpace="42.5197"/>
			<v:textRect cx="35.4331" cy="297.18" width="70.87" height="70.8661"/>
			<path d="M0 297.18 A35.4331 35.4331 0 0 1 70.87 297.18 A35.4331 35.4331 0 1 1 -0 297.18 Z" class="st5"/>
			<text x="26.93" y="294.48" class="st3" v:langID="2057"><v:paragraph v:horizAlign="1"/><v:tabList/>TDL<v:lf/><tspan
						x="13.17" dy="1.2em" class="st4">Processing</tspan></text>		</g>
		<g id="shape8-38" v:mID="8" v:groupContext="shape" transform="translate(488.759,105.602) rotate(90)">
			<title>Sheet.8</title>
			<path d="M0 332.61 L35.43 332.61" class="st6"/>
		</g>
		<g id="shape9-41" v:mID="9" v:groupContext="shape" transform="translate(126,-156.589) rotate(-11.254)">
			<title>Sheet.9</title>
			<path d="M0 332.61 L37.54 332.61" class="st6"/>
		</g>
		<g id="shape10-44" v:mID="10" v:groupContext="shape" transform="translate(-68.1818,431.969) rotate(-126.687)">
			<title>Sheet.10</title>
			<path d="M0 332.61 L35.43 332.61" class="st6"/>
		</g>
		<g id="shape11-47" v:mID="11" v:groupContext="shape" transform="translate(-153.169,35.3663) rotate(-53.4466)">
			<title>Sheet.11</title>
			<path d="M0 332.61 L35.44 332.61" class="st6"/>
		</g>
		<g id="shape12-50" v:mID="12" v:groupContext="shape" transform="translate(181.574,-161.971) rotate(15.8118)">
			<title>Sheet.12</title>
			<path d="M0 332.61 L32.32 332.61" class="st6"/>
		</g>
		<g id="shape13-53" v:mID="13" v:groupContext="shape" transform="translate(192.996,-231.264)">
			<title>Sheet.13</title>
			<desc>Business Rules</desc>
			<v:textBlock v:margins="rect(4,4,4,4)" v:tabSpace="42.5197"/>
			<v:textRect cx="38.2677" cy="322.692" width="76.54" height="19.8425"/>
			<rect x="0" y="312.771" width="76.5354" height="19.8425" class="st7"/>
			<text x="16.04" y="319.69" class="st8" v:langID="2057"><v:paragraph v:horizAlign="1"/><v:tabList/>Business <tspan
						x="24.65" dy="1.2em" class="st4">Rules</tspan></text>		</g>
		<g id="shape14-57" v:mID="14" v:groupContext="shape" transform="translate(117.878,-14.4132)">
			<title>Sheet.14</title>
			<desc>Domain</desc>
			<v:textBlock v:margins="rect(4,4,4,4)" v:tabSpace="42.5197"/>
			<v:textRect cx="38.2677" cy="322.692" width="76.54" height="19.8425"/>
			<rect x="0" y="312.771" width="76.5354" height="19.8425" class="st7"/>
			<text x="19.93" y="325.69" class="st8" v:langID="2057"><v:paragraph v:horizAlign="1"/><v:tabList/>Domain</text>		</g>
	</g>
</svg>
