<?xml version="1.0" encoding="UTF-8" standalone="no"?>
<!-- Created with Inkscape (http://www.inkscape.org/) -->
<svg
   xmlns:dc="http://purl.org/dc/elements/1.1/"
   xmlns:cc="http://web.resource.org/cc/"
   xmlns:rdf="http://www.w3.org/1999/02/22-rdf-syntax-ns#"
   xmlns:svg="http://www.w3.org/2000/svg"
   xmlns="http://www.w3.org/2000/svg"
   xmlns:xlink="http://www.w3.org/1999/xlink"
   xmlns:sodipodi="http://sodipodi.sourceforge.net/DTD/sodipodi-0.dtd"
   xmlns:inkscape="http://www.inkscape.org/namespaces/inkscape"
   width="762.69525"
   height="273.51572"
   id="svg2"
   sodipodi:version="0.32"
   inkscape:version="0.44"
   version="1.0"
   sodipodi:docbase="C:\Lib\nc3ta-tools-7.1\src\volume1\figures"
   sodipodi:docname="v1a1-ieg.svg">
  <defs
     id="defs4">
    <marker
       inkscape:stockid="Arrow2Lend"
       orient="auto"
       refY="0.0"
       refX="0.0"
       id="Arrow2Lend"
       style="overflow:visible;">
      <path
         id="path18111"
         style="font-size:12.0;fill-rule:evenodd;stroke-width:0.62500000;stroke-linejoin:round;"
         d="M 8.7185878,4.0337352 L -2.2072895,0.016013256 L 8.7185884,-4.0017078 C 6.9730900,-1.6296469 6.9831476,1.6157441 8.7185878,4.0337352 z "
         transform="scale(1.1) rotate(180) translate(1,0)" />
    </marker>
    <marker
       inkscape:stockid="Arrow1Lend"
       orient="auto"
       refY="0.0"
       refX="0.0"
       id="Arrow1Lend"
       style="overflow:visible;">
      <path
         id="path18129"
         d="M 0.0,0.0 L 5.0,-5.0 L -12.5,0.0 L 5.0,5.0 L 0.0,0.0 z "
         style="fill-rule:evenodd;stroke:#000000;stroke-width:1.0pt;marker-start:none;"
         transform="scale(0.8) rotate(180) translate(12.5,0)" />
    </marker>
    <marker
       inkscape:stockid="Arrow1Send"
       orient="auto"
       refY="0.0"
       refX="0.0"
       id="Arrow1Send"
       style="overflow:visible;">
      <path
         id="path18117"
         d="M 0.0,0.0 L 5.0,-5.0 L -12.5,0.0 L 5.0,5.0 L 0.0,0.0 z "
         style="fill-rule:evenodd;stroke:#000000;stroke-width:1.0pt;marker-start:none;"
         transform="scale(0.2) rotate(180) translate(6,0)" />
    </marker>
    <marker
       inkscape:stockid="Arrow1Mend"
       orient="auto"
       refY="0.0"
       refX="0.0"
       id="Arrow1Mend"
       style="overflow:visible;">
      <path
         id="path18123"
         d="M 0.0,0.0 L 5.0,-5.0 L -12.5,0.0 L 5.0,5.0 L 0.0,0.0 z "
         style="fill-rule:evenodd;stroke:#000000;stroke-width:1.0pt;marker-start:none;"
         transform="scale(0.4) rotate(180) translate(10,0)" />
    </marker>
    <marker
       inkscape:stockid="Arrow1Mstart"
       orient="auto"
       refY="0.0"
       refX="0.0"
       id="Arrow1Mstart"
       style="overflow:visible">
      <path
         id="path18126"
         d="M 0.0,0.0 L 5.0,-5.0 L -12.5,0.0 L 5.0,5.0 L 0.0,0.0 z "
         style="fill-rule:evenodd;stroke:#000000;stroke-width:1.0pt;marker-start:none"
         transform="scale(0.4) translate(10,0)" />
    </marker>
    <linearGradient
       id="linearGradient5708">
      <stop
         style="stop-color:#32c832;stop-opacity:1;"
         offset="0"
         id="stop5710" />
      <stop
         style="stop-color:#c699ff;stop-opacity:0;"
         offset="1"
         id="stop5712" />
    </linearGradient>
    <linearGradient
       id="linearGradient5702">
      <stop
         id="stop5704"
         offset="0"
         style="stop-color:#32c832;stop-opacity:1;" />
      <stop
         id="stop5706"
         offset="1"
         style="stop-color:#c699ff;stop-opacity:0;" />
    </linearGradient>
    <linearGradient
       id="linearGradient4625">
      <stop
         style="stop-color:#d9c832;stop-opacity:1;"
         offset="0"
         id="stop4627" />
      <stop
         style="stop-color:#c699ff;stop-opacity:0;"
         offset="1"
         id="stop4629" />
    </linearGradient>
    <linearGradient
       id="linearGradient1964">
      <stop
         style="stop-color:#828cbf;stop-opacity:0.44;"
         offset="0"
         id="stop1966" />
      <stop
         style="stop-color:black;stop-opacity:0;"
         offset="1"
         id="stop1968" />
    </linearGradient>
    <linearGradient
       inkscape:collect="always"
       xlink:href="#linearGradient1964"
       id="linearGradient1970"
       x1="-828.57141"
       y1="454.28571"
       x2="-270.54282"
       y2="454.28571"
       gradientUnits="userSpaceOnUse"
       gradientTransform="translate(1225.714,0)"
       spreadMethod="pad" />
    <linearGradient
       inkscape:collect="always"
       xlink:href="#linearGradient1964"
       id="linearGradient1974"
       gradientUnits="userSpaceOnUse"
       gradientTransform="matrix(0.381091,0,0,0.381091,2102.627,293.2686)"
       x1="-2076.252"
       y1="459.65314"
       x2="-1493.3318"
       y2="459.65314" />
    <linearGradient
       inkscape:collect="always"
       xlink:href="#linearGradient4625"
       id="linearGradient2138"
       gradientUnits="userSpaceOnUse"
       gradientTransform="matrix(0.376354,0,0,1.000823,1587.197,6.539005)"
       x1="-828.57141"
       y1="454.28571"
       x2="-270.54282"
       y2="454.28571" />
    <linearGradient
       inkscape:collect="always"
       xlink:href="#linearGradient4625"
       id="linearGradient3049"
       x1="1001.5714"
       y1="448.57144"
       x2="1252.1428"
       y2="448.57144"
       gradientUnits="userSpaceOnUse"
       spreadMethod="repeat"
       gradientTransform="translate(-2253.714,0)" />
  </defs>
  <sodipodi:namedview
     id="base"
     pagecolor="#ffffff"
     bordercolor="#666666"
     borderopacity="1.0"
     gridtolerance="10000"
     guidetolerance="10"
     objecttolerance="10"
     inkscape:pageopacity="0.0"
     inkscape:pageshadow="2"
     inkscape:zoom="1.7411011"
     inkscape:cx="373.61823"
     inkscape:cy="147.67969"
     inkscape:document-units="px"
     inkscape:current-layer="layer3"
     width="1280px"
     height="720px"
     showguides="true"
     inkscape:guide-bbox="true"
     showgrid="true"
     inkscape:window-width="1280"
     inkscape:window-height="721"
     inkscape:window-x="-4"
     inkscape:window-y="-4"
     borderlayer="true" />
  <metadata
     id="metadata7">
    <rdf:RDF>
      <cc:Work
         rdf:about="">
        <dc:format>image/svg+xml</dc:format>
        <dc:type
           rdf:resource="http://purl.org/dc/dcmitype/StillImage" />
      </cc:Work>
    </rdf:RDF>
  </metadata>
  <g
     inkscape:groupmode="layer"
     id="layer1"
     inkscape:label="Clouds">
    <path
       style="fill:#edcb32;fill-rule:evenodd;stroke:black;stroke-width:1.06992769px;stroke-linecap:butt;stroke-linejoin:miter;stroke-opacity:1;fill-opacity:0.65789473"
       d="M 123.96126,147.53932 C 121.43274,120.38202 156.98064,153.89529 156.98064,126.73799 C 156.98064,126.72821 167.9871,132.15245 167.9871,116.33733 C 167.9871,109.40354 178.99353,119.80421 178.99353,126.73799 C 178.99353,137.13865 201.00647,126.73799 212.01291,126.73799 C 235.07406,126.73799 234.02584,125.74746 234.02584,147.53932 C 234.02584,152.44224 241.36346,140.60554 245.03229,137.13865 C 257.7514,125.11962 249.72137,147.53932 267.04521,147.53932 C 274.38286,147.53932 263.37641,157.94 256.03875,157.94 C 250.53419,157.94 265.29711,168.34067 245.03229,168.34067 C 241.36346,168.34067 252.36994,168.34067 256.03875,168.34067 C 259.70757,168.34067 256.03875,175.27444 256.03875,178.74134 C 256.03875,188.90625 267.04521,166.82594 267.04521,189.142 C 267.04521,217.50488 213.92369,180.54692 245.03229,209.94334 C 263.82319,227.69998 212.01291,208.59972 212.01291,230.74467 C 212.01291,247.05944 190,247.05944 190,230.74467 C 190,227.27779 167.9871,239.41191 167.9871,220.344 C 167.9871,204.78367 134.96772,238.15448 134.96772,209.94334 C 134.96772,191.8146 160.83783,199.54267 123.96126,199.54267 C 120.29244,199.54267 133.1333,178.74134 112.95479,178.74134 C 105.61715,178.74134 116.6236,168.34067 123.96126,168.34067 C 127.63007,168.34067 114.78921,147.53932 134.96772,147.53932 C 138.63655,147.53932 127.63007,147.53932 123.96126,147.53932 z "
       id="path1995" />
    <path
       style="fill:#f3dd78;fill-rule:evenodd;stroke:black;stroke-width:1.00096667px;stroke-linecap:butt;stroke-linejoin:miter;stroke-opacity:1;fill-opacity:1"
       d="M 507.68582,125.20141 C 480.16313,97.160924 517.18332,114.07745 517.18332,93.553062 C 517.18332,90.036579 517.18332,100.58603 517.18332,104.10251 C 517.18332,107.619 536.17833,95.311302 536.17833,114.65196 C 536.17833,121.68492 545.67584,111.13547 545.67584,104.10251 C 545.67584,93.553062 564.67085,104.10251 574.16836,104.10251 C 580.50003,104.10251 574.16836,118.16844 574.16836,125.20141 C 574.16836,128.71789 574.16836,118.16844 574.16836,114.65196 C 574.16836,111.13547 580.50003,114.65196 583.66586,114.65196 C 611.89404,114.65196 560.6403,104.10251 593.16337,104.10251 C 636.71202,104.10251 604.1952,125.20141 640.6509,125.20141 C 655.54894,125.20141 655.54894,146.3003 640.6509,146.3003 C 637.48507,146.3003 640.6509,153.33326 640.6509,156.84975 C 640.6509,163.88271 627.98756,156.84975 621.65589,156.84975 C 615.9593,156.84975 640.6509,148.41861 640.6509,167.3992 C 640.6509,170.91568 646.98257,167.3992 650.1484,167.3992 C 656.48008,167.3992 650.1484,181.46512 650.1484,188.4981 C 650.1484,199.04754 631.15339,188.4981 621.65589,188.4981 C 607.40963,188.4981 607.40963,199.04754 621.65589,199.04754 C 627.98756,199.04754 621.65589,213.11347 621.65589,220.14644 C 621.65589,223.66292 602.66087,211.35522 602.66087,230.69589 C 602.66087,237.72885 593.16337,227.1794 593.16337,220.14644 C 593.16337,216.62995 586.8317,220.14644 583.66586,220.14644 C 568.24144,220.14644 598.48735,209.597 574.16836,209.597 C 571.00253,209.597 582.08295,230.69589 564.67085,230.69589 C 514.72073,230.69589 580.30688,209.597 517.18332,209.597 C 501.7589,209.597 532.00481,199.04754 507.68582,199.04754 C 501.35415,199.04754 507.68582,184.98161 507.68582,177.94865 C 520.34916,177.94865 517.18332,181.46512 517.18332,167.3992 C 517.18332,163.88271 510.85165,167.3992 507.68582,167.3992 C 480.37837,167.3992 528.67106,156.84975 498.18831,156.84975 C 476.08169,156.84975 507.72869,135.75086 517.18332,135.75086 C 520.34916,135.75086 510.85165,135.75086 507.68582,135.75086 C 504.51999,135.75086 507.68582,128.71789 507.68582,125.20141 z "
       id="path13512" />
    <path
       transform="translate(-634.9129,280.317)"
       style="fill:yellow;fill-rule:evenodd;stroke:black;stroke-width:1.12122679px;stroke-linecap:butt;stroke-linejoin:miter;stroke-opacity:1;opacity:0.70555556"
       d="M 1051.7272,-106.79127 C 1051.7272,-119.83331 1046.239,-121.76339 1064.3221,-121.76339 C 1076.2759,-121.76339 1053.3972,-126.75411 1070.6195,-126.75411 C 1072.7186,-126.75411 1070.6195,-130.08125 1070.6195,-131.74482 C 1070.6195,-135.07196 1079.0161,-131.74482 1083.2145,-131.74482 C 1083.6718,-131.74482 1074.9402,-121.97497 1085.126,-121.97497 C 1089.3244,-121.97497 1091.1566,-118.79643 1093.3494,-132.84795 C 1093.8131,-135.81873 1094.8952,-131.9677 1106.2256,-131.9677 C 1119.4202,-131.9677 1110.0488,-132.00854 1110.0488,-121.55182 C 1110.0488,-118.5584 1115.4322,-126.75411 1126.7626,-126.75411 C 1140.4071,-126.75411 1113.6521,-121.76339 1127.2966,-121.76339 C 1130.9451,-113.37451 1113.0422,-116.77268 1127.2966,-116.77268 C 1143.7535,-116.77268 1140.7067,-131.54921 1140.7067,-117.21847 C 1140.7067,-116.05397 1129.1858,-111.78198 1146.1889,-111.78198 C 1147.1769,-111.78198 1142.2806,-106.79127 1152.4864,-106.79127 C 1156.6847,-106.79127 1152.4864,-100.13699 1152.4864,-96.809851 C 1152.4864,-85.996651 1146.1889,-97.641642 1146.1889,-86.828433 C 1146.1889,-79.837677 1139.8915,-93.890765 1139.8915,-81.837723 C 1139.8915,-71.380999 1140.4912,-71.856305 1127.2966,-71.856305 C 1118.3539,-71.856305 1120.9991,-89.49391 1120.9991,-76.847014 C 1120.9991,-73.519878 1112.6026,-76.847014 1108.4042,-76.847014 C 1098.5382,-76.847014 1099.3656,-69.3125 1099.3656,-75.966773 C 1099.3656,-77.630346 1117.4571,-83.501297 1102.1067,-81.837723 C 1096.8519,-81.268233 1091.5698,-64.163046 1080.2063,-70.107131 C 1067.5972,-76.702822 1098.2334,-81.837723 1070.6195,-81.837723 C 1056.975,-81.837723 1048.2751,-79.263625 1058.0246,-86.828433 C 1062.5042,-90.304162 1072.0909,-88.566297 1074.1901,-88.566297 C 1076.2893,-88.566297 1064.3221,-90.155579 1064.3221,-91.819142 C 1064.3221,-93.482715 1053.9058,-91.533274 1053.9058,-89.869701 C 1053.9058,-88.693381 1048.1437,-91.819142 1045.4297,-91.819142 C 1039.6931,-91.819142 1046.2952,-96.809851 1051.7272,-96.809851 C 1063.4177,-96.809851 1046.8903,-101.80056 1045.4297,-101.80056 C 1042.7547,-101.80056 1044.1925,-106.79127 1051.7272,-106.79127 z "
       id="path14401"
       sodipodi:nodetypes="cssssssssscsssssssssssssssssssssc" />
  </g>
  <g
     inkscape:groupmode="layer"
     id="layer3"
     inkscape:label="Text"
     transform="translate(-634.9129,280.317)">
    <path
       style="fill:#f60;fill-opacity:1;fill-rule:evenodd;stroke:#ff6400;stroke-width:3.29999995;stroke-linecap:butt;stroke-linejoin:miter;stroke-miterlimit:4;stroke-dasharray:3.3, 6.6;stroke-dashoffset:0;stroke-opacity:1"
       d="M 1012.9129,-276.80128 L 1012.6292,-8.2155"
       id="path15290"
       inkscape:connector-type="polyline" />
    <path
       style="opacity:0.47777776;fill:blue;fill-rule:evenodd;stroke:black;stroke-width:1.0747962px;stroke-linecap:butt;stroke-linejoin:miter;stroke-opacity:1"
       d="M 898.67471,-111.78652 C 891.3619,-134.11191 916.02513,-111.66252 916.02513,-126.76696 C 916.02513,-133.15311 921.80861,-124.89079 921.80861,-121.77348 C 921.80861,-104.28141 927.59208,-135.59849 927.59208,-116.78 C 927.59208,-113.78492 922.96992,-126.76696 933.37556,-126.76696 C 942.43633,-126.76696 939.15903,-123.43798 939.15903,-116.78 C 939.15903,-115.11551 939.15903,-120.109 939.15903,-121.77348 C 939.15903,-123.43798 943.01468,-121.77348 944.94251,-121.77348 C 946.87034,-121.77348 944.94251,-125.10248 944.94251,-126.76696 C 944.94251,-130.09596 952.65381,-126.76696 956.50946,-126.76696 C 960.36511,-126.76696 956.50946,-120.109 956.50946,-116.78 C 956.50946,-115.11551 956.50946,-120.109 956.50946,-121.77348 C 956.50946,-125.10248 964.22076,-121.77348 968.07641,-121.77348 C 970.00424,-121.77348 968.07641,-118.4445 968.07641,-116.78 C 968.07641,-107.80542 973.85989,-125.13896 973.85989,-111.78652 C 973.85989,-110.12203 970.00424,-111.78652 968.07641,-111.78652 C 966.14858,-111.78652 971.93206,-111.78652 973.85989,-111.78652 C 975.78772,-111.78652 973.85989,-108.45754 973.85989,-106.79304 C 973.85989,-105.12855 977.71553,-106.79304 979.64336,-106.79304 C 983.49901,-106.79304 979.64336,-100.13507 979.64336,-96.80608 C 979.64336,-93.477096 971.93206,-96.80608 968.07641,-96.80608 C 966.14858,-96.80608 971.93206,-96.80608 973.85989,-96.80608 C 976.96333,-96.80608 968.85701,-91.8126 979.64336,-91.8126 C 983.49901,-91.8126 979.64336,-85.154632 979.64336,-81.825639 C 979.64336,-80.161152 968.07641,-85.986876 968.07641,-76.832158 C 958.35496,-73.939066 962.29294,-88.134901 962.29294,-76.832158 C 962.29294,-75.167672 958.43729,-76.832158 956.50946,-76.832158 C 954.01967,-76.832158 961.11496,-71.838678 950.72599,-71.838678 C 938.19513,-71.838678 951.68989,-76.832158 939.15903,-76.832158 C 935.30339,-76.832158 939.15903,-83.490136 939.15903,-86.819119 C 939.15903,-88.483616 939.15903,-83.490136 939.15903,-81.825639 C 939.15903,-77.62011 916.02513,-71.029305 916.02513,-81.825639 C 916.02513,-85.154632 908.31383,-81.825639 904.45818,-81.825639 C 902.53035,-81.825639 904.45818,-78.496655 904.45818,-76.832158 C 904.45818,-75.167672 904.45818,-80.161152 904.45818,-81.825639 C 904.45818,-85.032222 898.67471,-77.163566 898.67471,-86.819119 C 898.67471,-88.483616 902.53035,-86.819119 904.45818,-86.819119 C 906.38601,-86.819119 900.60254,-86.819119 898.67471,-86.819119 C 889.28206,-86.819119 907.7002,-91.8126 892.89123,-91.8126 C 886.35829,-91.8126 894.55335,-96.80608 898.67471,-96.80608 C 902.92147,-96.80608 898.57579,-101.79956 892.89123,-101.79956 C 889.03559,-101.79956 892.89123,-108.45754 892.89123,-111.78652 C 892.89123,-113.45102 896.74688,-111.78652 898.67471,-111.78652 z "
       id="path14399" />
    <rect
       style="opacity:0.344;fill:#00cbe8;fill-opacity:1;fill-rule:evenodd;stroke:black;stroke-width:1;stroke-linecap:round;stroke-linejoin:round;stroke-miterlimit:4;stroke-dasharray:none;stroke-dashoffset:0;stroke-opacity:1"
       id="rect2900"
       width="108"
       height="32"
       x="1044.9128"
       y="-39.301239"
       ry="2.7984846" />
    <path
       sodipodi:type="arc"
       style="opacity:1;fill:#00cb00;fill-opacity:1;fill-rule:evenodd;stroke:black;stroke-width:1;stroke-linecap:round;stroke-linejoin:round;stroke-miterlimit:4;stroke-dasharray:none;stroke-dashoffset:0;stroke-opacity:1"
       id="path1985"
       sodipodi:cx="104.5"
       sodipodi:cy="-279.67969"
       sodipodi:rx="20.5"
       sodipodi:ry="14.5"
       d="M 125 -279.67969 A 20.5 14.5 0 1 1  84,-279.67969 A 20.5 14.5 0 1 1  125 -279.67969 z"
       transform="matrix(1.192915,0,0,0.996879,703.2533,98.50556)" />
    <path
       sodipodi:type="arc"
       style="opacity:1;fill:#00cb00;fill-opacity:1;fill-rule:evenodd;stroke:black;stroke-width:1;stroke-linecap:round;stroke-linejoin:round;stroke-miterlimit:4;stroke-dasharray:none;stroke-dashoffset:0;stroke-opacity:1"
       id="path2888"
       sodipodi:cx="104.5"
       sodipodi:cy="-279.67969"
       sodipodi:rx="20.5"
       sodipodi:ry="14.5"
       d="M 125 -279.67969 A 20.5 14.5 0 1 1  84,-279.67969 A 20.5 14.5 0 1 1  125 -279.67969 z"
       transform="matrix(3.031236,0,0,0.975196,395.1487,180.4412)" />
    <path
       transform="matrix(1.500827,0,0,1.432198,619.5765,236.7555)"
       d="M 125 -279.67969 A 20.5 14.5 0 1 1  84,-279.67969 A 20.5 14.5 0 1 1  125 -279.67969 z"
       sodipodi:ry="14.5"
       sodipodi:rx="20.5"
       sodipodi:cy="-279.67969"
       sodipodi:cx="104.5"
       id="path2884"
       style="opacity:1;fill:#00cb00;fill-opacity:1;fill-rule:evenodd;stroke:black;stroke-width:1;stroke-linecap:round;stroke-linejoin:round;stroke-miterlimit:4;stroke-dasharray:none;stroke-dashoffset:0;stroke-opacity:1"
       sodipodi:type="arc" />
    <path
       sodipodi:type="arc"
       style="opacity:1;fill:#00cb00;fill-opacity:1;fill-rule:evenodd;stroke:black;stroke-width:1;stroke-linecap:round;stroke-linejoin:round;stroke-miterlimit:4;stroke-dasharray:none;stroke-dashoffset:0;stroke-opacity:1"
       id="path2890"
       sodipodi:cx="104.5"
       sodipodi:cy="-279.67969"
       sodipodi:rx="20.5"
       sodipodi:ry="14.5"
       d="M 125 -279.67969 A 20.5 14.5 0 1 1  84,-279.67969 A 20.5 14.5 0 1 1  125 -279.67969 z"
       transform="matrix(1.500827,0,0,1.432198,591.5765,344.7555)" />
    <path
       transform="matrix(1.192915,0,0,0.996879,617.2533,150.5056)"
       d="M 125 -279.67969 A 20.5 14.5 0 1 1  84,-279.67969 A 20.5 14.5 0 1 1  125 -279.67969 z"
       sodipodi:ry="14.5"
       sodipodi:rx="20.5"
       sodipodi:cy="-279.67969"
       sodipodi:cx="104.5"
       id="path2886"
       style="opacity:1;fill:#00cb00;fill-opacity:1;fill-rule:evenodd;stroke:black;stroke-width:1;stroke-linecap:round;stroke-linejoin:round;stroke-miterlimit:4;stroke-dasharray:none;stroke-dashoffset:0;stroke-opacity:1"
       sodipodi:type="arc" />
    <path
       transform="matrix(1.530918,0,0,0.991988,652.9319,237.1377)"
       d="M 125 -279.67969 A 20.5 14.5 0 1 1  84,-279.67969 A 20.5 14.5 0 1 1  125 -279.67969 z"
       sodipodi:ry="14.5"
       sodipodi:rx="20.5"
       sodipodi:cy="-279.67969"
       sodipodi:cx="104.5"
       id="path2892"
       style="opacity:1;fill:#00cb00;fill-opacity:1;fill-rule:evenodd;stroke:black;stroke-width:1;stroke-linecap:round;stroke-linejoin:round;stroke-miterlimit:4;stroke-dasharray:none;stroke-dashoffset:0;stroke-opacity:1"
       sodipodi:type="arc" />
    <text
       xml:space="preserve"
       style="font-size:16px;font-style:normal;font-variant:normal;font-weight:normal;font-stretch:normal;text-align:start;line-height:50%;writing-mode:lr-tb;text-anchor:start;fill:black;fill-opacity:1;stroke:none;stroke-width:1px;stroke-linecap:butt;stroke-linejoin:miter;stroke-opacity:1;font-family:Arial Black"
       x="703.71759"
       y="-260.16846"
       id="text1987"
       sodipodi:linespacing="50%"><tspan
         sodipodi:role="line"
         id="tspan1989"
         x="703.71759"
         y="-260.16846">NATO Security Domain</tspan></text>
    <text
       sodipodi:linespacing="50%"
       id="text1887"
       y="-260.16846"
       x="1103.7175"
       style="font-size:16px;font-style:normal;font-variant:normal;font-weight:normal;font-stretch:normal;text-align:start;line-height:50%;writing-mode:lr-tb;text-anchor:start;fill:black;fill-opacity:1;stroke:none;stroke-width:1px;stroke-linecap:butt;stroke-linejoin:miter;stroke-opacity:1;font-family:Arial Black"
       xml:space="preserve"><tspan
         y="-260.16846"
         x="1103.7175"
         id="tspan1889"
         sodipodi:role="line">NATIONAL Security Domain</tspan></text>
    <text
       sodipodi:linespacing="100%"
       id="text1891"
       y="-129.1021"
       x="829.10919"
       style="font-size:14px;font-style:normal;font-variant:normal;font-weight:normal;font-stretch:normal;text-align:center;line-height:100%;writing-mode:lr-tb;text-anchor:middle;fill:black;fill-opacity:1;stroke:none;stroke-width:1px;stroke-linecap:butt;stroke-linejoin:miter;stroke-opacity:1;font-family:Arial"
       xml:space="preserve"><tspan
         sodipodi:role="line"
         id="tspan1895"
         x="829.10919"
         y="-129.1021">NATO</tspan><tspan
         sodipodi:role="line"
         id="tspan1897"
         x="829.10919"
         y="-115.1021">General</tspan><tspan
         sodipodi:role="line"
         id="tspan1899"
         x="829.10919"
         y="-101.1021">Communications</tspan><tspan
         sodipodi:role="line"
         id="tspan1901"
         x="829.10919"
         y="-87.102097">System</tspan><tspan
         sodipodi:role="line"
         id="tspan1903"
         x="829.10919"
         y="-73.102097">(NGCS)</tspan></text>
    <text
       xml:space="preserve"
       style="font-size:14px;font-style:normal;font-variant:normal;font-weight:normal;font-stretch:normal;text-align:center;line-height:100%;writing-mode:lr-tb;text-anchor:middle;fill:black;fill-opacity:1;stroke:none;stroke-width:1px;stroke-linecap:butt;stroke-linejoin:miter;stroke-opacity:1;font-family:Arial"
       x="937.79865"
       y="-103.74757"
       id="text1905"
       sodipodi:linespacing="100%"><tspan
         sodipodi:role="line"
         id="tspan1917"
         x="937.79865"
         y="-103.74757">NATO</tspan><tspan
         sodipodi:role="line"
         id="tspan1919"
         x="937.79865"
         y="-89.747566">Gateway</tspan></text>
    <text
       sodipodi:linespacing="100%"
       id="text1921"
       y="-131.1021"
       x="1013.4051"
       style="font-size:14px;font-style:normal;font-variant:normal;font-weight:normal;font-stretch:normal;text-align:center;line-height:100%;writing-mode:lr-tb;text-anchor:middle;fill:black;fill-opacity:1;stroke:none;stroke-width:1px;stroke-linecap:butt;stroke-linejoin:miter;stroke-opacity:1;font-family:Arial"
       xml:space="preserve"><tspan
         sodipodi:role="line"
         id="tspan1927"
         x="1013.4051"
         y="-131.1021">Information</tspan><tspan
         sodipodi:role="line"
         id="tspan1929"
         x="1013.4051"
         y="-117.1021">Exchange</tspan><tspan
         sodipodi:role="line"
         id="tspan1931"
         x="1013.4051"
         y="-103.1021" /><tspan
         sodipodi:role="line"
         id="tspan1933"
         x="1013.4051"
         y="-89.102097" /><tspan
         sodipodi:role="line"
         id="tspan1935"
         x="1013.4051"
         y="-75.102097">Gateway</tspan><tspan
         sodipodi:role="line"
         id="tspan1937"
         x="1013.4051"
         y="-61.102097">Concept</tspan></text>
    <text
       sodipodi:linespacing="100%"
       id="text1939"
       y="-165.10211"
       x="776.0799"
       style="font-size:14px;font-style:normal;font-variant:normal;font-weight:normal;font-stretch:normal;text-align:center;line-height:100%;writing-mode:lr-tb;text-anchor:middle;fill:black;fill-opacity:1;stroke:none;stroke-width:1px;stroke-linecap:butt;stroke-linejoin:miter;stroke-opacity:1;font-family:Arial"
       xml:space="preserve"><tspan
         sodipodi:role="line"
         id="tspan1945"
         x="776.0799"
         y="-165.10211">NATO</tspan><tspan
         sodipodi:role="line"
         id="tspan1947"
         x="776.0799"
         y="-151.10211">CIS</tspan></text>
    <text
       xml:space="preserve"
       style="font-size:14px;font-style:normal;font-variant:normal;font-weight:normal;font-stretch:normal;text-align:center;line-height:100%;writing-mode:lr-tb;text-anchor:middle;fill:black;fill-opacity:1;stroke:none;stroke-width:1px;stroke-linecap:butt;stroke-linejoin:miter;stroke-opacity:1;font-family:Arial"
       x="828.44513"
       y="-175.10895"
       id="text1949"
       sodipodi:linespacing="100%"><tspan
         sodipodi:role="line"
         id="tspan1955"
         x="828.44513"
         y="-175.10895">CJTF</tspan></text>
    <text
       sodipodi:linespacing="100%"
       id="text1957"
       y="-123.10895"
       x="742.24786"
       style="font-size:14px;font-style:normal;font-variant:normal;font-weight:normal;font-stretch:normal;text-align:center;line-height:100%;writing-mode:lr-tb;text-anchor:middle;fill:black;fill-opacity:1;stroke:none;stroke-width:1px;stroke-linecap:butt;stroke-linejoin:miter;stroke-opacity:1;font-family:Arial"
       xml:space="preserve"><tspan
         sodipodi:role="line"
         id="tspan1961"
         x="742.24786"
         y="-123.10895">MMHS</tspan></text>
    <text
       xml:space="preserve"
       style="font-size:14px;font-style:normal;font-variant:normal;font-weight:normal;font-stretch:normal;text-align:center;line-height:100%;writing-mode:lr-tb;text-anchor:middle;fill:black;fill-opacity:1;stroke:none;stroke-width:1px;stroke-linecap:butt;stroke-linejoin:miter;stroke-opacity:1;font-family:Arial"
       x="709.20294"
       y="-87.102104"
       id="text1963"
       sodipodi:linespacing="100%"><tspan
         sodipodi:role="line"
         id="tspan1967"
         x="709.20294"
         y="-87.102104">CONSULTATION</tspan></text>
    <text
       xml:space="preserve"
       style="font-size:14px;font-style:normal;font-variant:normal;font-weight:normal;font-stretch:normal;text-align:center;line-height:100%;writing-mode:lr-tb;text-anchor:middle;fill:black;fill-opacity:1;stroke:none;stroke-width:1px;stroke-linecap:butt;stroke-linejoin:miter;stroke-opacity:1;font-family:Arial"
       x="748.71564"
       y="-59.301323"
       id="text1969"
       sodipodi:linespacing="100%"><tspan
         sodipodi:role="line"
         id="tspan1975"
         x="748.71564"
         y="-59.301323">ACCS</tspan><tspan
         sodipodi:role="line"
         id="tspan1977"
         x="748.71564"
         y="-45.301323">ENTITY</tspan></text>
    <text
       xml:space="preserve"
       style="font-size:14px;font-style:normal;font-variant:normal;font-weight:normal;font-stretch:normal;text-align:center;line-height:100%;writing-mode:lr-tb;text-anchor:middle;fill:black;fill-opacity:1;stroke:none;stroke-width:1px;stroke-linecap:butt;stroke-linejoin:miter;stroke-opacity:1;font-family:Arial"
       x="813.40509"
       y="-35.102097"
       id="text1979"
       sodipodi:linespacing="100%"><tspan
         sodipodi:role="line"
         id="tspan1983"
         x="813.40509"
         y="-35.102097">BRASS</tspan></text>
    <text
       xml:space="preserve"
       style="font-size:14px;font-style:normal;font-variant:normal;font-weight:normal;font-stretch:normal;text-align:center;line-height:100%;writing-mode:lr-tb;text-anchor:middle;fill:black;fill-opacity:1;stroke:none;stroke-width:1px;stroke-linecap:butt;stroke-linejoin:miter;stroke-opacity:1;font-family:Arial"
       x="1100.9128"
       y="-26.301239"
       id="text2894"
       sodipodi:linespacing="100%"><tspan
         sodipodi:role="line"
         id="tspan2896"
         x="1100.9128"
         y="-26.301239">Interoperability</tspan><tspan
         sodipodi:role="line"
         x="1100.9128"
         y="-12.301239"
         id="tspan2898">Point</tspan></text>
    <text
       xml:space="preserve"
       style="font-size:14px;font-style:normal;font-variant:normal;font-weight:normal;font-stretch:normal;text-align:center;line-height:100%;writing-mode:lr-tb;text-anchor:middle;fill:black;fill-opacity:1;stroke:none;stroke-width:1px;stroke-linecap:butt;stroke-linejoin:miter;stroke-opacity:1;font-family:Arial"
       x="1201.1091"
       y="-135.1021"
       id="text3787"
       sodipodi:linespacing="100%"><tspan
         sodipodi:role="line"
         id="tspan3799"
         x="1201.1091"
         y="-135.1021">NATIONAL</tspan><tspan
         sodipodi:role="line"
         id="tspan3801"
         x="1201.1091"
         y="-121.1021">Defense</tspan><tspan
         sodipodi:role="line"
         id="tspan3803"
         x="1201.1091"
         y="-107.1021">Network</tspan><tspan
         sodipodi:role="line"
         id="tspan3805"
         x="1201.1091"
         y="-93.102097">(NDN)</tspan></text>
    <text
       sodipodi:linespacing="100%"
       id="text3807"
       y="-105.1021"
       x="1099.405"
       style="font-size:14px;font-style:normal;font-variant:normal;font-weight:normal;font-stretch:normal;text-align:center;line-height:100%;writing-mode:lr-tb;text-anchor:middle;fill:black;fill-opacity:1;stroke:none;stroke-width:1px;stroke-linecap:butt;stroke-linejoin:miter;stroke-opacity:1;font-family:Arial"
       xml:space="preserve"><tspan
         sodipodi:role="line"
         id="tspan3813"
         x="1099.405"
         y="-105.1021">National</tspan><tspan
         sodipodi:role="line"
         id="tspan3815"
         x="1099.405"
         y="-91.102097">Gateway</tspan></text>
    <path
       sodipodi:type="arc"
       style="opacity:1;fill:#00cb00;fill-opacity:1;fill-rule:evenodd;stroke:black;stroke-width:1;stroke-linecap:round;stroke-linejoin:round;stroke-miterlimit:4;stroke-dasharray:none;stroke-dashoffset:0;stroke-opacity:1"
       id="path1937"
       sodipodi:cx="104.5"
       sodipodi:cy="-279.67969"
       sodipodi:rx="20.5"
       sodipodi:ry="14.5"
       d="M 125 -279.67969 A 20.5 14.5 0 1 1  84,-279.67969 A 20.5 14.5 0 1 1  125 -279.67969 z"
       transform="matrix(1.530918,0,0,0.991988,1044.932,237.1377)" />
    <text
       sodipodi:linespacing="100%"
       id="text1940"
       y="-35.102097"
       x="1205.405"
       style="font-size:14px;font-style:normal;font-variant:normal;font-weight:normal;font-stretch:normal;text-align:center;line-height:100%;writing-mode:lr-tb;text-anchor:middle;fill:black;fill-opacity:1;stroke:none;stroke-width:1px;stroke-linecap:butt;stroke-linejoin:miter;stroke-opacity:1;font-family:Arial"
       xml:space="preserve"><tspan
         y="-35.102097"
         x="1205.405"
         id="tspan1942"
         sodipodi:role="line">BRASS</tspan></text>
    <path
       sodipodi:type="arc"
       style="opacity:1;fill:#00cb00;fill-opacity:1;fill-rule:evenodd;stroke:black;stroke-width:1;stroke-linecap:round;stroke-linejoin:round;stroke-miterlimit:4;stroke-dasharray:none;stroke-dashoffset:0;stroke-opacity:1"
       id="path1944"
       sodipodi:cx="104.5"
       sodipodi:cy="-279.67969"
       sodipodi:rx="20.5"
       sodipodi:ry="14.5"
       d="M 125 -279.67969 A 20.5 14.5 0 1 1  84,-279.67969 A 20.5 14.5 0 1 1  125 -279.67969 z"
       transform="matrix(1.192915,0,0,0.996879,1127.253,216.5056)" />
    <text
       xml:space="preserve"
       style="font-size:14px;font-style:normal;font-variant:normal;font-weight:normal;font-stretch:normal;text-align:center;line-height:100%;writing-mode:lr-tb;text-anchor:middle;fill:black;fill-opacity:1;stroke:none;stroke-width:1px;stroke-linecap:butt;stroke-linejoin:miter;stroke-opacity:1;font-family:Arial"
       x="1252.2479"
       y="-57.108948"
       id="text1946"
       sodipodi:linespacing="100%"><tspan
         y="-57.108948"
         x="1252.2479"
         id="tspan1948"
         sodipodi:role="line">MMHS</tspan></text>
    <path
       transform="matrix(1.500827,0,0,1.432198,1135.576,308.7555)"
       d="M 125 -279.67969 A 20.5 14.5 0 1 1  84,-279.67969 A 20.5 14.5 0 1 1  125 -279.67969 z"
       sodipodi:ry="14.5"
       sodipodi:rx="20.5"
       sodipodi:cy="-279.67969"
       sodipodi:cx="104.5"
       id="path1950"
       style="opacity:1;fill:#00cb00;fill-opacity:1;fill-rule:evenodd;stroke:black;stroke-width:1;stroke-linecap:round;stroke-linejoin:round;stroke-miterlimit:4;stroke-dasharray:none;stroke-dashoffset:0;stroke-opacity:1"
       sodipodi:type="arc" />
    <text
       sodipodi:linespacing="100%"
       id="text1952"
       y="-94.608902"
       x="1294.1257"
       style="font-size:14px;font-style:normal;font-variant:normal;font-weight:normal;font-stretch:normal;text-align:center;line-height:100%;writing-mode:lr-tb;text-anchor:middle;fill:black;fill-opacity:1;stroke:none;stroke-width:1px;stroke-linecap:butt;stroke-linejoin:miter;stroke-opacity:1;font-family:Arial"
       xml:space="preserve"><tspan
         y="-94.608902"
         x="1294.1257"
         id="tspan1954"
         sodipodi:role="line">ACCS</tspan><tspan
         y="-80.608902"
         x="1294.1257"
         id="tspan1956"
         sodipodi:role="line">ENTITY</tspan></text>
    <path
       sodipodi:type="arc"
       style="opacity:1;fill:#00cb00;fill-opacity:1;fill-rule:evenodd;stroke:black;stroke-width:1;stroke-linecap:round;stroke-linejoin:round;stroke-miterlimit:4;stroke-dasharray:none;stroke-dashoffset:0;stroke-opacity:1"
       id="path1958"
       sodipodi:cx="104.5"
       sodipodi:cy="-279.67969"
       sodipodi:rx="20.5"
       sodipodi:ry="14.5"
       d="M 125 -279.67969 A 20.5 14.5 0 1 1  84,-279.67969 A 20.5 14.5 0 1 1  125 -279.67969 z"
       transform="matrix(1.497058,0,0,1.75446,1147.97,350.1356)" />
    <text
       xml:space="preserve"
       style="font-size:14px;font-style:normal;font-variant:normal;font-weight:normal;font-stretch:normal;text-align:center;line-height:100%;writing-mode:lr-tb;text-anchor:middle;fill:black;fill-opacity:1;stroke:none;stroke-width:1px;stroke-linecap:butt;stroke-linejoin:miter;stroke-opacity:1;font-family:Arial"
       x="1305.3015"
       y="-146.97218"
       id="text1960"
       sodipodi:linespacing="100%"><tspan
         sodipodi:role="line"
         id="tspan1966"
         x="1305.3015"
         y="-146.97218">NATL</tspan><tspan
         sodipodi:role="line"
         id="tspan1968"
         x="1305.3015"
         y="-132.97218">Tactical</tspan><tspan
         sodipodi:role="line"
         id="tspan1970"
         x="1305.3015"
         y="-118.97218">CIS</tspan></text>
    <path
       transform="matrix(3.031236,0,0,0.975196,981.1487,88.94123)"
       d="M 125 -279.67969 A 20.5 14.5 0 1 1  84,-279.67969 A 20.5 14.5 0 1 1  125 -279.67969 z"
       sodipodi:ry="14.5"
       sodipodi:rx="20.5"
       sodipodi:cy="-279.67969"
       sodipodi:cx="104.5"
       id="path1972"
       style="opacity:1;fill:#00cb00;fill-opacity:1;fill-rule:evenodd;stroke:black;stroke-width:1;stroke-linecap:round;stroke-linejoin:round;stroke-miterlimit:4;stroke-dasharray:none;stroke-dashoffset:0;stroke-opacity:1"
       sodipodi:type="arc" />
    <text
       sodipodi:linespacing="100%"
       id="text1974"
       y="-178.60207"
       x="1299.2029"
       style="font-size:14px;font-style:normal;font-variant:normal;font-weight:normal;font-stretch:normal;text-align:center;line-height:100%;writing-mode:lr-tb;text-anchor:middle;fill:black;fill-opacity:1;stroke:none;stroke-width:1px;stroke-linecap:butt;stroke-linejoin:miter;stroke-opacity:1;font-family:Arial"
       xml:space="preserve"><tspan
         y="-178.60207"
         x="1299.2029"
         id="tspan1976"
         sodipodi:role="line">CONSULTATION</tspan></text>
    <path
       transform="matrix(1.497058,0,0,1.75446,1051.97,290.1356)"
       d="M 125 -279.67969 A 20.5 14.5 0 1 1  84,-279.67969 A 20.5 14.5 0 1 1  125 -279.67969 z"
       sodipodi:ry="14.5"
       sodipodi:rx="20.5"
       sodipodi:cy="-279.67969"
       sodipodi:cx="104.5"
       id="path1978"
       style="opacity:1;fill:#00cb00;fill-opacity:1;fill-rule:evenodd;stroke:black;stroke-width:1;stroke-linecap:round;stroke-linejoin:round;stroke-miterlimit:4;stroke-dasharray:none;stroke-dashoffset:0;stroke-opacity:1"
       sodipodi:type="arc" />
    <text
       sodipodi:linespacing="100%"
       id="text1980"
       y="-210.97218"
       x="1209.3015"
       style="font-size:14;font-style:normal;font-variant:normal;font-weight:normal;font-stretch:normal;text-align:center;line-height:100%;writing-mode:lr;text-anchor:middle;fill:black;fill-opacity:1;stroke:none;stroke-width:1px;stroke-linecap:butt;stroke-linejoin:miter;stroke-opacity:1;font-family:Arial"
       xml:space="preserve"><tspan
         sodipodi:role="line"
         id="tspan1988"
         x="1209.3015"
         y="-210.97218">NATL</tspan><tspan
         sodipodi:role="line"
         id="tspan1990"
         x="1209.3015"
         y="-196.97218">Strategic</tspan><tspan
         sodipodi:role="line"
         id="tspan1992"
         x="1209.3015"
         y="-182.97218">CIS</tspan></text>
    <path
       style="fill:black;fill-opacity:1;fill-rule:evenodd;stroke:black;stroke-width:2;stroke-linecap:butt;stroke-linejoin:miter;marker-start:url(#Arrow1Mstart);marker-end:url(#Arrow1Mend);stroke-opacity:1;stroke-miterlimit:4;stroke-dasharray:none"
       d="M 984.9129,-100.80128 L 1038.9129,-100.80128"
       id="path17072"
       inkscape:connector-type="polyline" />
    <path
       style="fill:none;fill-rule:evenodd;stroke:black;stroke-width:0.9670375px;stroke-linecap:butt;stroke-linejoin:miter;marker-end:url(#Arrow2Lend);stroke-opacity:1"
       d="M 1083.7807,-39.656545 L 1019.8879,-94.835806"
       id="path19026"
       inkscape:connector-type="polyline" />
  </g>
</svg>
