<?xml version="1.0" standalone="no"?>
<!DOCTYPE svg PUBLIC "-//W3C//DTD SVG 1.0//EN"
	"http://www.w3.org/TR/2001/REC-SVG-20010904/DTD/svg10.dtd">
<svg width="700" height="400">
<!-- Gray Box -->
    <rect x="10" y="89" width="679" height="260"
         style="fill:rgb(181,181,181);stroke:rgb(0,0,0);stroke-width:1;stroke-dasharray:4 1"/>
<!-- Big Light Blue Boxes -->
    <rect x="19" y="9" width="310" height="32"
         style="fill:rgb(195,248,254);stroke:none"/>
    <rect x="340" y="10" width="280" height="31"
         style="fill:rgb(195,248,254);stroke:none"/>
<!-- Green Boxes -->
    <g style="fill:rgb(49,153,58);stroke:none">
        <rect x="20" y="50" width="540" height="33"/>
        <rect x="19" y="99" width="540" height="62"/>
        <rect x="20" y="169" width="538" height="63"/>
        <rect x="19" y="238" width="540" height="63"/>
    </g>
<!-- Small light blue boxes -->
    <g style="fill:rgb(195,248,254);stroke:none">
        <rect x="18" y="118" width="40" height="40"/>
        <rect x="70" y="118" width="40" height="40"/>
        <rect x="120" y="118" width="40" height="40"/>
        <rect x="169" y="119" width="40" height="40"/>
        <rect x="220" y="118" width="40" height="40"/>
        <rect x="269" y="118" width="40" height="40"/>
        <rect x="319" y="118" width="40" height="40"/>
        <rect x="367" y="118" width="40" height="40"/>
        <rect x="418" y="118" width="40" height="40"/>
        <rect x="468" y="118" width="45" height="40"/>
        <rect x="519" y="118" width="38" height="40"/>
        <rect x="22" y="188" width="70" height="40"/>
        <rect x="99" y="188" width="71" height="40"/>
        <rect x="179" y="188" width="69" height="40"/>
        <rect x="257" y="188" width="62" height="40"/>
        <rect x="328" y="188" width="70" height="40"/>
        <rect x="408" y="188" width="72" height="40"/>
        <rect x="486" y="188" width="70" height="40"/>
        <rect x="22" y="258" width="128" height="40"/>
        <rect x="159" y="258" width="119" height="40"/>
        <rect x="298" y="258" width="122" height="40"/>
        <rect x="428" y="258" width="127" height="40"/>
    </g>
    <rect x="19" y="308" width="599" height="61"
         style="fill:rgb(253,52,0)"/>
    <g style="fill:rgb(195,248,254);stroke:none">
        <rect x="218" y="319" width="121" height="20"/>
        <rect x="218" y="345" width="120" height="20"/>
        <rect x="367" y="310" width="120" height="41"/>
        <rect x="497" y="310" width="119" height="44"/>
    </g>
    <g style="fill:rgb(234,234,234)">
        <rect x="568" y="48" width="20" height="250"/>
        <rect x="597" y="48" width="22" height="251"/>
    </g>
    <rect x="629" y="9" width="52" height="358"
         style="fill:rgb(253,52,0)"/>
<!-- -->
    <g style="fill:rgb(35,64,156);font-size:14;font-family:Arial">
        <text x="155" y="30">USER</text>
        <text x="436" y="32">DEVELOPER</text>
    </g>
    <g style="fill:rgb(255,255,255);font-size:14;font-family:Arial">
        <text x="208" y="73">MISSION APPLICATIONS</text>
        <text x="139" y="114">COMMON SUPPORT APPLICATION SERVICES</text>
        <text x="189" y="183">INFRA STRUCTURE SERVICES</text>
        <text x="226" y="253">KERNEL SERVICES</text>
        <text x="35" y="335">NETWORK SERVICES</text>
    </g>
    <g style="fill:rgb(45,58,164);font-size:9;font-family:Arial">
        <text x="18" y="137">COMMON</text>
        <text x="19" y="148">C2 APPS</text>
        <text x="70" y="131">COMMON</text>
        <text x="76" y="143">ADMIN</text>
        <text x="77" y="156">APPS</text>
        <text x="123" y="132">ENTER</text>
        <text x="126" y="143">PRISE</text>
        <text x="120" y="156">MANAGT</text>
        <text x="177" y="132">DATA</text>
        <text x="172" y="143">ACCESS</text>
        <text x="167" y="156">SERVICES</text>
        <text x="218" y="131">COLLABD</text>
        <text x="223" y="143">RATIVE</text>
        <text x="225" y="156">TOOLS</text>
        <text x="277" y="137">WEB</text>
        <text x="274" y="148">TOOLS</text>
        <text x="327" y="138">DOC</text>
        <text x="322" y="150">MNGT</text>
        <text x="378" y="132">MSG</text>
        <text x="374" y="143">HAND</text>
        <text x="379" y="156">LING</text>
        <text x="422" y="137">OFFICE</text>
        <text x="425" y="150">AUT&apos;N</text>
        <text x="481" y="137">GIS</text>
        <text x="468" y="149">SERVICES</text>
        <text x="524" y="131">SECU-</text>
        <text x="528" y="143">RITY</text>
        <text x="521" y="156">MNGMT</text>
        <text x="24" y="209">MANAGEMENT</text>
        <text x="32" y="219">SERVICES</text>
        <text x="109" y="208">DIRECTORY</text>
        <text x="112" y="220">SERVICES</text>
        <text x="185" y="202">DISTRIBUTED</text>
        <text x="196" y="214">OBJECT</text>
        <text x="192" y="226">SERVICES</text>
        <text x="277" y="202">DATA</text>
        <text x="258" y="214">MANAGEMENT</text>
        <text x="267" y="226">SERVICES</text>
        <text x="347" y="201">COMMS</text>
        <text x="343" y="214">AND WEB</text>
        <text x="342" y="225">SERVICES</text>
        <text x="417" y="202">WINDOWING</text>
        <text x="417" y="214">MULTIMEDIA</text>
        <text x="421" y="225">SERVICES</text>
        <text x="498" y="202">INTRUSION</text>
        <text x="495" y="214">DETECTION</text>
        <text x="487" y="226">AUDIT SERVICES</text>
        <text x="67" y="272">KERNEL</text>
        <text x="54" y="283">MANAGEMENT</text>
        <text x="62" y="296">SERVICES</text>
        <text x="206" y="271">BASE</text>
        <text x="193" y="283">OPERATING</text>
        <text x="202" y="295">SYSTEM</text>
        <text x="314" y="272">KERNEL MULTIMEDIA</text>
        <text x="317" y="284">AND PRESENTATION</text>
        <text x="337" y="296">SERVICES</text>
        <text x="476" y="272">KERNEL</text>
        <text x="471" y="284">SECURITY</text>
        <text x="472" y="296">SERVICES</text>
        <text x="233" y="333">INTERNET SUBLAYER</text>
        <text x="221" y="358">SUB-NETWORK PROFILES</text>
        <text x="384" y="322">NETWORK SERVICES</text>
        <text x="380" y="334">IP BALANCE/ROUTING</text>
        <text x="381" y="345">BANDWIDTH MANAGER</text>
        <text x="511" y="321">NETWORK SECURITY</text>
        <text x="516" y="334">ACCESS CONTROL</text>
        <text x="502" y="346">VIRTUAL PRIV NETWORK</text>
    </g>
    <g style="fill:rgb(35,64,156);font-size:16;font-family:Arial">
        <text x="573" y="140">A</text>
        <text x="573" y="160">P</text>
        <text x="573" y="180">I</text>
        <text x="573" y="200">S</text>
        <text x="602" y="140">D</text>
        <text x="602" y="160">A</text>
        <text x="602" y="180">T</text>
        <text x="602" y="200">A</text>
    </g>
    <text x="562" y="177"
        transform="matrix(-1.83691e-016 -1 1 -1.83691e-016 472.032 814.576)"
         style="fill:rgb(255,255,0);font-size:16;font-family:Arial">SUPPORT SERVICES</text>
    <text x="505" y="185"
        transform="matrix(-1.83691e-016 -1 1 -1.83691e-016 482.485 847.305)"
         style="fill:rgb(255,255,0);font-size:10;font-family:Arial">(Methods &amp; Tools, Inform. Repos., Training, System MngMmt., Security)</text>
</svg>
