<?xml version="1.0" encoding="UTF-8" standalone="no"?>
<!DOCTYPE svg PUBLIC "-//W3C//DTD SVG 1.0//EN" "http://www.w3.org/TR/2001/REC-SVG-20010904/DTD/svg10.dtd">
<!-- Generiert durch Microsoft Visio 11.0, SVG Export, v1.0 v2-fc-ims2.svg Functional Components for Document Management Server -->
<svg xmlns="http://www.w3.org/2000/svg" xmlns:v="http://schemas.microsoft.com/visio/2003/SVGExtensions/" width="7.29167in"
		height="4.375in" viewBox="0 0 525 315" xml:space="preserve" color-interpolation-filters="sRGB" class="st15">
	<v:documentProperties v:langID="1033" v:metric="true"/>

	<style type="text/css">
	<![CDATA[
		.st1 {fill:#ccecff;stroke:#fafd00;stroke-linecap:butt;stroke-width:0.75}
		.st2 {fill:#ffff99;stroke:#fafd00;stroke-linecap:butt;stroke-width:0.75}
		.st3 {fill:#b4dafe;stroke:#000000;stroke-linecap:butt;stroke-width:0.75}
		.st4 {fill:none;stroke:none;stroke-linecap:butt;stroke-width:0.75}
		.st5 {fill:#000000;font-family:Verdana;font-size:0.625008em}
		.st6 {fill:#000000;font-family:Verdana;font-size:0.874992em}
		.st7 {fill:none;stroke:#000000;stroke-linecap:butt;stroke-width:0.75}
		.st8 {fill:#fafd00;stroke:#000000;stroke-linecap:butt;stroke-width:0.75}
		.st9 {fill:none;stroke:#000000;stroke-dasharray:3,1.5;stroke-linecap:butt;stroke-width:0.75}
		.st10 {fill:#e7ffff;stroke:#000000;stroke-linecap:butt;stroke-width:0.75}
		.st11 {fill:#ffc0c0;stroke:#000000;stroke-linecap:butt;stroke-width:0.75}
		.st12 {font-size:1em}
		.st13 {fill:#ffffff;stroke:#000000;stroke-linecap:butt;stroke-width:0.75}
		.st14 {fill:#ffff00;stroke:#000000;stroke-linecap:butt;stroke-width:0.75}
		.st15 {fill:none;fill-rule:evenodd;font-size:12;overflow:visible;stroke-linecap:square;stroke-miterlimit:3}
	]]>
	</style>

	<g v:mID="0" v:index="1" v:groupContext="foregroundPage">
		<v:userDefs/>
		<title>Functional Components for Document Management Server</title>
		<v:pageProperties v:drawingScale="1" v:pageScale="1" v:drawingUnits="19" v:shadowOffsetX="9" v:shadowOffsetY="-9"/>
		<g id="shape1-1" v:mID="1" v:groupContext="shape" transform="translate(69.0001,-131.25)">
			<title>Tabelle.1</title>
			<rect x="0" y="275.25" width="426" height="39.75" class="st1"/>
		</g>
		<g id="shape2-3" v:mID="2" v:groupContext="shape" transform="translate(69.7501,-96.75)">
			<title>Tabelle.2</title>
			<rect x="0" y="282.75" width="424.5" height="32.25" class="st2"/>
		</g>
		<g id="shape3-5" v:mID="3" v:groupContext="shape" transform="translate(138.75,-220.5)">
			<title>Tabelle.3</title>
			<rect x="0" y="281.25" width="34.5" height="33.75" class="st3"/>
		</g>
		<g id="shape6-7" v:mID="6" v:groupContext="shape" transform="translate(18.7501,-249.75)">
			<title>Tabelle.6</title>
			<desc>Common</desc>
			<v:userDefs/>
			<v:textBlock v:margins="rect(0,0,0,0)"/>
			<v:textRect cx="22.4999" cy="313.125" width="45" height="3.75"/>
			<rect x="0" y="311.25" width="45" height="3.75" class="st4"/>
			<text x="-0" y="315.37" class="st5" v:langID="1033"><v:paragraph/><v:tabList/>Common</text>		</g>
		<g id="shape7-10" v:mID="7" v:groupContext="shape" transform="translate(18.7501,-241.5)">
			<title>Tabelle.7</title>
			<desc>support</desc>
			<v:userDefs/>
			<v:textBlock v:margins="rect(0,0,0,0)"/>
			<v:textRect cx="26.2499" cy="313.125" width="52.5" height="3.75"/>
			<rect x="0" y="311.25" width="52.5" height="3.75" class="st4"/>
			<text x="-0" y="315.37" class="st5" v:langID="1033"><v:paragraph/><v:tabList/>support</text>		</g>
		<g id="shape8-13" v:mID="8" v:groupContext="shape" transform="translate(18.7501,-230.25)">
			<title>Tabelle.8</title>
			<desc>application</desc>
			<v:userDefs/>
			<v:textBlock v:margins="rect(0,0,0,0)"/>
			<v:textRect cx="41.2499" cy="313.125" width="82.51" height="3.75"/>
			<rect x="0" y="311.25" width="82.5" height="3.75" class="st4"/>
			<text x="-0.01" y="315.37" class="st5" v:langID="1033"><v:paragraph/><v:tabList/>application</text>		</g>
		<g id="shape9-16" v:mID="9" v:groupContext="shape" transform="translate(18.7501,-219.75)">
			<title>Tabelle.9</title>
			<desc>services</desc>
			<v:userDefs/>
			<v:textBlock v:margins="rect(0,0,0,0)"/>
			<v:textRect cx="29.9999" cy="313.125" width="60" height="3.75"/>
			<rect x="0" y="311.25" width="60" height="3.75" class="st4"/>
			<text x="-0" y="315.37" class="st5" v:langID="1033"><v:paragraph/><v:tabList/>services</text>		</g>
		<g id="shape10-19" v:mID="10" v:groupContext="shape" transform="translate(18.7501,-148.5)">
			<title>Tabelle.10</title>
			<desc>Kernel</desc>
			<v:userDefs/>
			<v:textBlock v:margins="rect(0,0,0,0)"/>
			<v:textRect cx="22.4999" cy="313.125" width="45" height="3.75"/>
			<rect x="0" y="311.25" width="45" height="3.75" class="st4"/>
			<text x="-0" y="315.37" class="st5" v:langID="1033"><v:paragraph/><v:tabList/>Kernel</text>		</g>
		<g id="shape11-22" v:mID="11" v:groupContext="shape" transform="translate(18.7501,-137.25)">
			<title>Tabelle.11</title>
			<desc>services</desc>
			<v:userDefs/>
			<v:textBlock v:margins="rect(0,0,0,0)"/>
			<v:textRect cx="29.9999" cy="313.125" width="60" height="3.75"/>
			<rect x="0" y="311.25" width="60" height="3.75" class="st4"/>
			<text x="-0" y="315.37" class="st5" v:langID="1033"><v:paragraph/><v:tabList/>services</text>		</g>
		<g id="shape12-25" v:mID="12" v:groupContext="shape" transform="translate(18.7501,-112.5)">
			<title>Tabelle.12</title>
			<desc>Network</desc>
			<v:userDefs/>
			<v:textBlock v:margins="rect(0,0,0,0)"/>
			<v:textRect cx="26.2499" cy="313.125" width="52.5" height="3.75"/>
			<rect x="0" y="311.25" width="52.5" height="3.75" class="st4"/>
			<text x="-0" y="315.37" class="st5" v:langID="1033"><v:paragraph/><v:tabList/>Network</text>		</g>
		<g id="shape13-28" v:mID="13" v:groupContext="shape" transform="translate(18.7501,-102)">
			<title>Tabelle.13</title>
			<desc>services</desc>
			<v:userDefs/>
			<v:textBlock v:margins="rect(0,0,0,0)"/>
			<v:textRect cx="29.9999" cy="313.125" width="60" height="3.75"/>
			<rect x="0" y="311.25" width="60" height="3.75" class="st4"/>
			<text x="-0" y="315.37" class="st5" v:langID="1033"><v:paragraph/><v:tabList/>services</text>		</g>
		<g id="shape16-31" v:mID="16" v:groupContext="shape" transform="translate(70.5001,-192)">
			<title>Tabelle.16</title>
			<desc>Managt</desc>
			<v:userDefs/>
			<v:textBlock v:margins="rect(0,0,0,0)"/>
			<v:textRect cx="22.4999" cy="313.125" width="45" height="3.75"/>
			<rect x="0" y="311.25" width="45" height="3.75" class="st4"/>
			<text x="-0" y="315.37" class="st5" v:langID="1033"><v:paragraph/><v:tabList/>Managt</text>		</g>
		<g id="shape17-34" v:mID="17" v:groupContext="shape" transform="translate(494.25,-229.5)">
			<title>Tabelle.17</title>
			<desc>.</desc>
			<v:userDefs/>
			<v:textBlock v:margins="rect(0,0,0,0)"/>
			<v:textRect cx="3.74988" cy="313.125" width="7.51" height="3.75"/>
			<rect x="0" y="311.25" width="7.5" height="3.75" class="st4"/>
			<text x="-0.01" y="315.37" class="st5" v:langID="1033"><v:paragraph/><v:tabList/>.</text>		</g>
		<g id="shape18-37" v:mID="18" v:groupContext="shape" transform="translate(18.7501,-204)">
			<title>Tabelle.18</title>
			<desc>Infra-</desc>
			<v:userDefs/>
			<v:textBlock v:margins="rect(0,0,0,0)"/>
			<v:textRect cx="22.4999" cy="313.125" width="45" height="3.75"/>
			<rect x="0" y="311.25" width="45" height="3.75" class="st4"/>
			<text x="-0" y="315.37" class="st5" v:langID="1033"><v:paragraph/><v:tabList/>Infra-</text>		</g>
		<g id="shape19-40" v:mID="19" v:groupContext="shape" transform="translate(18.7501,-192.75)">
			<title>Tabelle.19</title>
			<desc>structure</desc>
			<v:userDefs/>
			<v:textBlock v:margins="rect(0,0,0,0)"/>
			<v:textRect cx="33.7499" cy="313.125" width="67.5" height="3.75"/>
			<rect x="0" y="311.25" width="67.5" height="3.75" class="st4"/>
			<text x="-0" y="315.37" class="st5" v:langID="1033"><v:paragraph/><v:tabList/>structure</text>		</g>
		<g id="shape20-43" v:mID="20" v:groupContext="shape" transform="translate(18.0001,-182.25)">
			<title>Tabelle.20</title>
			<desc>services</desc>
			<v:userDefs/>
			<v:textBlock v:margins="rect(0,0,0,0)"/>
			<v:textRect cx="29.9999" cy="313.125" width="60" height="3.75"/>
			<rect x="0" y="311.25" width="60" height="3.75" class="st4"/>
			<text x="-0" y="315.37" class="st5" v:langID="1033"><v:paragraph/><v:tabList/>services</text>		</g>
		<g id="shape21-46" v:mID="21" v:groupContext="shape" transform="translate(18.0001,-292.5)">
			<title>Tabelle.21</title>
			<desc>Specific</desc>
			<v:userDefs/>
			<v:textBlock v:margins="rect(0,0,0,0)"/>
			<v:textRect cx="29.9999" cy="313.125" width="60" height="3.75"/>
			<rect x="0" y="311.25" width="60" height="3.75" class="st4"/>
			<text x="-0" y="315.37" class="st5" v:langID="1033"><v:paragraph/><v:tabList/>Specific</text>		</g>
		<g id="shape22-49" v:mID="22" v:groupContext="shape" transform="translate(18.7501,-281.25)">
			<title>Tabelle.22</title>
			<desc>mission</desc>
			<v:userDefs/>
			<v:textBlock v:margins="rect(0,0,0,0)"/>
			<v:textRect cx="26.2499" cy="313.125" width="52.5" height="3.75"/>
			<rect x="0" y="311.25" width="52.5" height="3.75" class="st4"/>
			<text x="-0" y="315.37" class="st5" v:langID="1033"><v:paragraph/><v:tabList/>mission</text>		</g>
		<g id="shape23-52" v:mID="23" v:groupContext="shape" transform="translate(18.0001,-270.75)">
			<title>Tabelle.23</title>
			<desc>applications</desc>
			<v:userDefs/>
			<v:textBlock v:margins="rect(0,0,0,0)"/>
			<v:textRect cx="44.9999" cy="313.125" width="90" height="3.75"/>
			<rect x="0" y="311.25" width="90" height="3.75" class="st4"/>
			<text x="-0" y="315.37" class="st5" v:langID="1033"><v:paragraph/><v:tabList/>applications</text>		</g>
		<g id="shape24-55" v:mID="24" v:groupContext="shape" transform="translate(16.5001,-66)">
			<title>Tabelle.24</title>
			<desc>Legend:</desc>
			<v:userDefs/>
			<v:textBlock v:margins="rect(0,0,0,0)"/>
			<v:textRect cx="36.7499" cy="312.375" width="73.51" height="5.25"/>
			<rect x="0" y="309.75" width="73.5" height="5.25" class="st4"/>
			<text x="-0" y="315.52" class="st6" v:langID="1033"><v:paragraph/><v:tabList/>Legend:</text>		</g>
		<g id="shape25-58" v:mID="25" v:groupContext="shape" transform="translate(111.75,-63.75)">
			<title>Tabelle.25</title>
			<desc>optional</desc>
			<v:userDefs/>
			<v:textBlock v:margins="rect(0,0,0,0)"/>
			<v:textRect cx="29.9999" cy="313.125" width="60" height="3.75"/>
			<rect x="0" y="311.25" width="60" height="3.75" class="st4"/>
			<text x="-0" y="315.37" class="st5" v:langID="1033"><v:paragraph/><v:tabList/>optional</text>		</g>
		<g id="shape26-61" v:mID="26" v:groupContext="shape" transform="translate(59.2501,-46.5)">
			<title>Tabelle.26</title>
			<rect x="0" y="277.5" width="44.25" height="37.5" class="st7"/>
		</g>
		<g id="shape27-63" v:mID="27" v:groupContext="shape" transform="translate(64.5001,-64.5)">
			<title>Tabelle.27</title>
			<desc>required</desc>
			<v:userDefs/>
			<v:textBlock v:margins="rect(0,0,0,0)"/>
			<v:textRect cx="29.9999" cy="313.125" width="60" height="3.75"/>
			<rect x="0" y="311.25" width="60" height="3.75" class="st4"/>
			<text x="-0" y="315.37" class="st5" v:langID="1033"><v:paragraph/><v:tabList/>required</text>		</g>
		<g id="shape28-66" v:mID="28" v:groupContext="shape" transform="translate(213.75,-45.75)">
			<title>Tabelle.28</title>
			<rect x="0" y="278.25" width="53.25" height="36.75" class="st8"/>
		</g>
		<g id="shape29-68" v:mID="29" v:groupContext="shape" transform="translate(65.2501,-91.5)">
			<title>Tabelle.29</title>
			<path d="M0 315 L435 315 L435 107.25 L0 107.25 L0 315 Z" class="st9"/>
		</g>
		<g id="shape30-70" v:mID="30" v:groupContext="shape" transform="translate(106.5,-46.5)">
			<title>Tabelle.30</title>
			<path d="M0 315 L39 315 L39 277.5 L0 277.5 L0 315 Z" class="st9"/>
		</g>
		<g id="shape31-72" v:mID="31" v:groupContext="shape" transform="translate(146.25,-245.25)">
			<title>Tabelle.31</title>
			<desc>Data</desc>
			<v:userDefs/>
			<v:textBlock v:margins="rect(0,0,0,0)"/>
			<v:textRect cx="14.9999" cy="313.125" width="30" height="3.75"/>
			<rect x="0" y="311.25" width="30" height="3.75" class="st4"/>
			<text x="-0" y="315.37" class="st5" v:langID="1033"><v:paragraph/><v:tabList/>Data</text>		</g>
		<g id="shape32-75" v:mID="32" v:groupContext="shape" transform="translate(144,-234.75)">
			<title>Tabelle.32</title>
			<desc>access</desc>
			<v:userDefs/>
			<v:textBlock v:margins="rect(0,0,0,0)"/>
			<v:textRect cx="22.4999" cy="313.125" width="45" height="3.75"/>
			<rect x="0" y="311.25" width="45" height="3.75" class="st4"/>
			<text x="-0" y="315.37" class="st5" v:langID="1033"><v:paragraph/><v:tabList/>access</text>		</g>
		<g id="shape33-78" v:mID="33" v:groupContext="shape" transform="translate(140.25,-224.25)">
			<title>Tabelle.33</title>
			<desc>services</desc>
			<v:userDefs/>
			<v:textBlock v:margins="rect(0,0,0,0)"/>
			<v:textRect cx="29.9999" cy="313.125" width="60.02" height="3.75"/>
			<rect x="0" y="311.25" width="60" height="3.75" class="st4"/>
			<text x="-0.01" y="315.37" class="st5" v:langID="1033"><v:paragraph/><v:tabList/>services</text>		</g>
		<g id="shape39-81" v:mID="39" v:groupContext="shape" transform="translate(265.5,-220.5)">
			<title>Tabelle.39</title>
			<rect x="0" y="281.25" width="49.5001" height="33.75" class="st10"/>
		</g>
		<g id="shape40-83" v:mID="40" v:groupContext="shape" transform="translate(317.25,-220.5)">
			<title>Tabelle.40</title>
			<rect x="0" y="281.25" width="33" height="33.75" class="st10"/>
		</g>
		<g id="shape42-85" v:mID="42" v:groupContext="shape" transform="translate(463.5,-220.5)">
			<title>Tabelle.42</title>
			<rect x="0" y="281.25" width="31.5" height="33.75" class="st11"/>
		</g>
		<g id="shape43-87" v:mID="43" v:groupContext="shape" transform="translate(270,-243)">
			<title>Tabelle.43</title>
			<desc>Office</desc>
			<v:userDefs/>
			<v:textBlock v:margins="rect(0,0,0,0)"/>
			<v:textRect cx="22.4999" cy="313.125" width="45" height="3.75"/>
			<rect x="0" y="311.25" width="45" height="3.75" class="st4"/>
			<text x="-0" y="315.37" class="st5" v:langID="1031"><v:paragraph/><v:tabList/>Image</text>		</g>
		<g id="shape44-90" v:mID="44" v:groupContext="shape" transform="translate(270.75,-234)">
			<title>Tabelle.44</title>
			<desc>automa-</desc>
			<v:userDefs/>
			<v:textBlock v:margins="rect(0,0,0,0)"/>
			<v:textRect cx="26.2499" cy="313.125" width="52.52" height="3.75"/>
			<rect x="0" y="311.25" width="52.5" height="3.75" class="st4"/>
			<text x="-0.01" y="315.37" class="st5" v:langID="1031"><v:paragraph/><v:tabList/>Processing</text>		</g>
		<g id="shape45-93" v:mID="45" v:groupContext="shape" transform="translate(270,-225)">
			<title>Tabelle.45</title>
			<desc>tion</desc>
			<v:userDefs/>
			<v:textBlock v:margins="rect(0,0,0,0)"/>
			<v:textRect cx="20.9998" cy="313.125" width="42.02" height="3.75"/>
			<rect x="0" y="311.25" width="42" height="3.75" class="st4"/>
			<text x="-0.01" y="315.37" class="st5" v:langID="1031"><v:paragraph/><v:tabList/>Software</text>		</g>
		<g id="shape46-96" v:mID="46" v:groupContext="shape" transform="translate(322.5,-245.25)">
			<title>Tabelle.46</title>
			<desc>Doc</desc>
			<v:userDefs/>
			<v:textBlock v:margins="rect(0,0,0,0)"/>
			<v:textRect cx="11.2499" cy="313.125" width="22.5" height="3.75"/>
			<rect x="0" y="311.25" width="22.5" height="3.75" class="st4"/>
			<text x="-0" y="315.37" class="st5" v:langID="1033"><v:paragraph/><v:tabList/>Doc</text>		</g>
		<g id="shape47-99" v:mID="47" v:groupContext="shape" transform="translate(319.5,-234.75)">
			<title>Tabelle.47</title>
			<desc>Managt</desc>
			<v:userDefs/>
			<v:textBlock v:margins="rect(0,0,0,0)"/>
			<v:textRect cx="22.4999" cy="313.125" width="45" height="3.75"/>
			<rect x="0" y="311.25" width="45" height="3.75" class="st4"/>
			<text x="-0" y="315.37" class="st5" v:langID="1033"><v:paragraph/><v:tabList/>Managt</text>		</g>
		<g id="shape48-102" v:mID="48" v:groupContext="shape" transform="translate(319.5,-225)">
			<title>Tabelle.48</title>
			<desc>browser</desc>
			<v:userDefs/>
			<v:textBlock v:margins="rect(0,0,0,0)"/>
			<v:textRect cx="26.2499" cy="313.125" width="52.52" height="3.75"/>
			<rect x="0" y="311.25" width="52.5" height="3.75" class="st4"/>
			<text x="-0.01" y="315.37" class="st5" v:langID="1033"><v:paragraph/><v:tabList/>browser</text>		</g>
		<g id="shape52-105" v:mID="52" v:groupContext="shape" transform="translate(469.5,-240)">
			<title>Tabelle.52</title>
			<desc>Distr.</desc>
			<v:userDefs/>
			<v:textBlock v:margins="rect(0,0,0,0)"/>
			<v:textRect cx="22.4999" cy="313.125" width="45" height="3.75"/>
			<rect x="0" y="311.25" width="45" height="3.75" class="st4"/>
			<text x="-0" y="315.37" class="st5" v:langID="1033"><v:paragraph/><v:tabList/>Distr.</text>		</g>
		<g id="shape53-108" v:mID="53" v:groupContext="shape" transform="translate(465.75,-229.5)">
			<title>Tabelle.53</title>
			<desc>authent</desc>
			<v:userDefs/>
			<v:textBlock v:margins="rect(0,0,0,0)"/>
			<v:textRect cx="26.2499" cy="313.125" width="52.52" height="3.75"/>
			<rect x="0" y="311.25" width="52.5" height="3.75" class="st4"/>
			<text x="-0.01" y="315.37" class="st5" v:langID="1033"><v:paragraph/><v:tabList/>authent</text>		</g>
		<g id="shape54-111" v:mID="54" v:groupContext="shape" transform="translate(69.0001,-178.5)">
			<title>Tabelle.54</title>
			<rect x="0" y="279" width="31.5" height="36" class="st7"/>
		</g>
		<g id="shape56-113" v:mID="56" v:groupContext="shape" transform="translate(186,-178.5)">
			<title>Tabelle.56</title>
			<rect x="0" y="279" width="49.5" height="36" class="st3"/>
		</g>
		<g id="shape57-115" v:mID="57" v:groupContext="shape" transform="translate(237,-178.5)">
			<title>Tabelle.57</title>
			<rect x="0" y="279" width="37.5" height="36" class="st3"/>
		</g>
		<g id="shape58-117" v:mID="58" v:groupContext="shape" transform="translate(279,-180)">
			<title>Tabelle.58</title>
			<rect x="0" y="280.5" width="67.5" height="34.5" class="st10"/>
		</g>
		<g id="shape59-119" v:mID="59" v:groupContext="shape" transform="translate(349.5,-178.5)">
			<title>Tabelle.59</title>
			<rect x="0" y="279" width="39" height="36" class="st11"/>
		</g>
		<g id="shape60-121" v:mID="60" v:groupContext="shape" transform="translate(391.5,-178.5)">
			<title>Tabelle.60</title>
			<rect x="0" y="279" width="37.5" height="36" class="st11"/>
		</g>
		<g id="shape61-123" v:mID="61" v:groupContext="shape" transform="translate(462,-178.5)">
			<title>Tabelle.61</title>
			<rect x="0" y="279" width="33" height="36" class="st11"/>
		</g>
		<g id="shape62-125" v:mID="62" v:groupContext="shape" transform="translate(196.5,-204.75)">
			<title>Tabelle.62</title>
			<desc>database</desc>
			<v:userDefs/>
			<v:textBlock v:margins="rect(0,0,0,0)"/>
			<v:textRect cx="29.9999" cy="313.125" width="60.02" height="3.75"/>
			<rect x="0" y="311.25" width="60" height="3.75" class="st4"/>
			<text x="-0.01" y="315.37" class="st5" v:langID="1033"><v:paragraph/><v:tabList/>database</text>		</g>
		<g id="shape63-128" v:mID="63" v:groupContext="shape" transform="translate(189.75,-194.25)">
			<title>Tabelle.63</title>
			<desc>middleware</desc>
			<v:userDefs/>
			<v:textBlock v:margins="rect(0,0,0,0)"/>
			<v:textRect cx="37.4999" cy="313.125" width="75.01" height="3.75"/>
			<rect x="0" y="311.25" width="75" height="3.75" class="st4"/>
			<text x="-0.01" y="315.37" class="st5" v:langID="1033"><v:paragraph/><v:tabList/>middleware</text>		</g>
		<g id="shape64-131" v:mID="64" v:groupContext="shape" transform="translate(188.25,-183)">
			<title>Tabelle.64</title>
			<desc>&#38; filesharing</desc>
			<v:userDefs/>
			<v:textBlock v:margins="rect(0,0,0,0)"/>
			<v:textRect cx="48.7499" cy="313.125" width="97.52" height="3.75"/>
			<rect x="0" y="311.25" width="97.5" height="3.75" class="st4"/>
			<text x="-0.01" y="315.37" class="st5" v:langID="1033"><v:paragraph/><v:tabList/>&#38; filesharing</text>		</g>
		<g id="shape65-134" v:mID="65" v:groupContext="shape" transform="translate(238.5,-198.75)">
			<title>Tabelle.65</title>
			<desc>COMMS</desc>
			<v:userDefs/>
			<v:textBlock v:margins="rect(0,0,0,0)"/>
			<v:textRect cx="18.7499" cy="313.125" width="37.5" height="3.75"/>
			<rect x="0" y="311.25" width="37.5" height="3.75" class="st4"/>
			<text x="-0" y="315.37" class="st5" v:langID="1033"><v:paragraph/><v:tabList/>COMMS</text>		</g>
		<g id="shape66-137" v:mID="66" v:groupContext="shape" transform="translate(241.5,-188.25)">
			<title>Tabelle.66</title>
			<desc>services</desc>
			<v:userDefs/>
			<v:textBlock v:margins="rect(0,0,0,0)"/>
			<v:textRect cx="29.9999" cy="313.125" width="60.02" height="3.75"/>
			<rect x="0" y="311.25" width="60" height="3.75" class="st4"/>
			<text x="-0.01" y="315.37" class="st5" v:langID="1033"><v:paragraph/><v:tabList/>services</text>		</g>
		<g id="shape67-140" v:mID="67" v:groupContext="shape" transform="translate(351.75,-202.5)">
			<title>Tabelle.67</title>
			<desc>Other appl.</desc>
			<v:userDefs/>
			<v:textBlock v:margins="rect(0,0,0,0)"/>
			<v:textRect cx="41.2499" cy="313.125" width="82.5" height="3.75"/>
			<rect x="0" y="311.25" width="82.5" height="3.75" class="st4"/>
			<text x="-0" y="315.37" class="st5" v:langID="1033"><v:paragraph/><v:tabList/>Other appl.</text>		</g>
		<g id="shape68-143" v:mID="68" v:groupContext="shape" transform="translate(357,-193.5)">
			<title>Tabelle.68</title>
			<desc>Security</desc>
			<v:userDefs/>
			<v:textBlock v:margins="rect(0,0,0,0)"/>
			<v:textRect cx="29.9999" cy="313.125" width="60" height="3.75"/>
			<rect x="0" y="311.25" width="60" height="3.75" class="st4"/>
			<text x="-0" y="315.37" class="st5" v:langID="1033"><v:paragraph/><v:tabList/>Security</text>		</g>
		<g id="shape69-146" v:mID="69" v:groupContext="shape" transform="translate(357.75,-184.5)">
			<title>Tabelle.69</title>
			<desc>Services</desc>
			<v:userDefs/>
			<v:textBlock v:margins="rect(0,0,0,0)"/>
			<v:textRect cx="29.9999" cy="313.125" width="60" height="3.75"/>
			<rect x="0" y="311.25" width="60" height="3.75" class="st4"/>
			<text x="-0" y="315.37" class="st5" v:langID="1033"><v:paragraph/><v:tabList/>Services</text>		</g>
		<g id="shape70-149" v:mID="70" v:groupContext="shape" transform="translate(400.5,-198.75)">
			<title>Tabelle.70</title>
			<desc>SEC.</desc>
			<v:userDefs/>
			<v:textBlock v:margins="rect(0,0,0,0)"/>
			<v:textRect cx="14.9999" cy="313.125" width="30.01" height="3.75"/>
			<rect x="0" y="311.25" width="30" height="3.75" class="st4"/>
			<text x="-0.01" y="315.37" class="st5" v:langID="1033"><v:paragraph/><v:tabList/>SEC.</text>		</g>
		<g id="shape71-152" v:mID="71" v:groupContext="shape" transform="translate(393.75,-188.25)">
			<title>Tabelle.71</title>
			<desc>protocols</desc>
			<v:userDefs/>
			<v:textBlock v:margins="rect(0,0,0,0)"/>
			<v:textRect cx="33.7499" cy="313.125" width="67.5" height="3.75"/>
			<rect x="0" y="311.25" width="67.5" height="3.75" class="st4"/>
			<text x="-0" y="315.37" class="st5" v:langID="1033"><v:paragraph/><v:tabList/>protocols</text>		</g>
		<g id="shape72-155" v:mID="72" v:groupContext="shape" transform="translate(468.75,-198.75)">
			<title>Tabelle.72</title>
			<desc>Virus</desc>
			<v:userDefs/>
			<v:textBlock v:margins="rect(0,0,0,0)"/>
			<v:textRect cx="18.7499" cy="313.125" width="37.5" height="3.75"/>
			<rect x="0" y="311.25" width="37.5" height="3.75" class="st4"/>
			<text x="-0" y="315.37" class="st5" v:langID="1033"><v:paragraph/><v:tabList/>Virus</text>		</g>
		<g id="shape73-158" v:mID="73" v:groupContext="shape" transform="translate(464.25,-188.25)">
			<title>Tabelle.73</title>
			<desc>checker</desc>
			<v:userDefs/>
			<v:textBlock v:margins="rect(0,0,0,0)"/>
			<v:textRect cx="26.2499" cy="313.125" width="52.52" height="3.75"/>
			<rect x="0" y="311.25" width="52.5" height="3.75" class="st4"/>
			<text x="-0.01" y="315.37" class="st5" v:langID="1033"><v:paragraph/><v:tabList/>checker</text>		</g>
		<g id="shape74-161" v:mID="74" v:groupContext="shape" transform="translate(283.5,-194.25)">
			<title>Tabelle.74</title>
			<desc>Multimedia &#38;</desc>
			<v:userDefs/>
			<v:textBlock v:margins="rect(0,0,0,0)"/>
			<v:textRect cx="44.9999" cy="313.125" width="90" height="3.75"/>
			<rect x="0" y="311.25" width="90" height="3.75" class="st4"/>
			<text x="-0" y="306.37" class="st5" v:langID="1031"><v:paragraph/><v:tabList/>Graphic &#38;<v:lf/><tspan x="-0"
						dy="1.2em" class="st12">Presentation<v:lf/></tspan><tspan x="-0" dy="1.2em" class="st12">Services</tspan></text>		</g>
		<g id="shape76-166" v:mID="76" v:groupContext="shape" transform="translate(70.5001,-134.25)">
			<title>Tabelle.76</title>
			<rect x="0" y="280.5" width="67.5" height="34.5" class="st13"/>
		</g>
		<g id="shape77-168" v:mID="77" v:groupContext="shape" transform="translate(141,-134.25)">
			<title>Tabelle.77</title>
			<rect x="0" y="280.5" width="133.5" height="34.5" class="st10"/>
		</g>
		<g id="shape78-170" v:mID="78" v:groupContext="shape" transform="translate(277.5,-134.25)">
			<title>Tabelle.78</title>
			<rect x="0" y="280.5" width="67.5" height="34.5" class="st10"/>
		</g>
		<g id="shape79-172" v:mID="79" v:groupContext="shape" transform="translate(391.5,-134.25)">
			<title>Tabelle.79</title>
			<rect x="0" y="280.5" width="51" height="34.5" class="st11"/>
		</g>
		<g id="shape80-174" v:mID="80" v:groupContext="shape" transform="translate(445.5,-134.25)">
			<title>Tabelle.80</title>
			<rect x="0" y="280.5" width="46.5" height="34.5" class="st11"/>
		</g>
		<g id="shape81-176" v:mID="81" v:groupContext="shape" transform="translate(77.2501,-160.5)">
			<title>Tabelle.81</title>
			<desc>Configuration</desc>
			<v:userDefs/>
			<v:textBlock v:margins="rect(0,0,0,0)"/>
			<v:textRect cx="48.7499" cy="313.125" width="97.52" height="3.75"/>
			<rect x="0" y="311.25" width="97.5" height="3.75" class="st4"/>
			<text x="-0.01" y="315.37" class="st5" v:langID="1033"><v:paragraph/><v:tabList/>Configuration</text>		</g>
		<g id="shape82-179" v:mID="82" v:groupContext="shape" transform="translate(73.5001,-150)">
			<title>Tabelle.82</title>
			<desc>control/remote</desc>
			<v:userDefs/>
			<v:textBlock v:margins="rect(0,0,0,0)"/>
			<v:textRect cx="52.4999" cy="313.125" width="105" height="3.75"/>
			<rect x="0" y="311.25" width="105" height="3.75" class="st4"/>
			<text x="-0" y="315.37" class="st5" v:langID="1033"><v:paragraph/><v:tabList/>control/remote</text>		</g>
		<g id="shape83-182" v:mID="83" v:groupContext="shape" transform="translate(83.2501,-139.5)">
			<title>Tabelle.83</title>
			<desc>installation</desc>
			<v:userDefs/>
			<v:textBlock v:margins="rect(0,0,0,0)"/>
			<v:textRect cx="44.9999" cy="313.125" width="90" height="3.75"/>
			<rect x="0" y="311.25" width="90" height="3.75" class="st4"/>
			<text x="-0" y="315.37" class="st5" v:langID="1033"><v:paragraph/><v:tabList/>installation</text>		</g>
		<g id="shape84-185" v:mID="84" v:groupContext="shape" transform="translate(146.25,-150)">
			<title>Tabelle.84</title>
			<desc>Base operating system</desc>
			<v:userDefs/>
			<v:textBlock v:margins="rect(0,0,0,0)"/>
			<v:textRect cx="110.25" cy="312.375" width="220.5" height="5.25"/>
			<rect x="0" y="309.75" width="220.5" height="5.25" class="st4"/>
			<text x="-0" y="314.62" class="st5" v:langID="1033"><v:paragraph/><v:tabList/>Base operating system</text>		</g>
		<g id="shape85-188" v:mID="85" v:groupContext="shape" transform="translate(283.5,-156)">
			<title>Tabelle.85</title>
			<desc>Windowing</desc>
			<v:userDefs/>
			<v:textBlock v:margins="rect(0,0,0,0)"/>
			<v:textRect cx="47.2499" cy="312.375" width="94.5" height="5.25"/>
			<rect x="0" y="309.75" width="94.5" height="5.25" class="st4"/>
			<text x="-0" y="314.62" class="st5" v:langID="1033"><v:paragraph/><v:tabList/>Windowing</text>		</g>
		<g id="shape86-191" v:mID="86" v:groupContext="shape" transform="translate(292.5,-143.25)">
			<title>Tabelle.86</title>
			<desc>software</desc>
			<v:userDefs/>
			<v:textBlock v:margins="rect(0,0,0,0)"/>
			<v:textRect cx="41.9999" cy="312.375" width="84.01" height="5.25"/>
			<rect x="0" y="309.75" width="84" height="5.25" class="st4"/>
			<text x="-0" y="314.62" class="st5" v:langID="1033"><v:paragraph/><v:tabList/>software</text>		</g>
		<g id="shape87-194" v:mID="87" v:groupContext="shape" transform="translate(400.5,-159.75)">
			<title>Tabelle.87</title>
			<desc>file access</desc>
			<v:userDefs/>
			<v:textBlock v:margins="rect(0,0,0,0)"/>
			<v:textRect cx="41.2499" cy="313.125" width="82.5" height="3.75"/>
			<rect x="0" y="311.25" width="82.5" height="3.75" class="st4"/>
			<text x="-0" y="315.37" class="st5" v:langID="1033"><v:paragraph/><v:tabList/>file access</text>		</g>
		<g id="shape88-197" v:mID="88" v:groupContext="shape" transform="translate(401.25,-149.25)">
			<title>Tabelle.88</title>
			<desc>control &#38;</desc>
			<v:userDefs/>
			<v:textBlock v:margins="rect(0,0,0,0)"/>
			<v:textRect cx="33.7499" cy="313.125" width="67.5" height="3.75"/>
			<rect x="0" y="311.25" width="67.5" height="3.75" class="st4"/>
			<text x="-0" y="315.37" class="st5" v:langID="1033"><v:paragraph/><v:tabList/>control &#38;</text>		</g>
		<g id="shape89-200" v:mID="89" v:groupContext="shape" transform="translate(398.25,-139.5)">
			<title>Tabelle.89</title>
			<desc>accounting</desc>
			<v:userDefs/>
			<v:textBlock v:margins="rect(0,0,0,0)"/>
			<v:textRect cx="37.4999" cy="313.125" width="75.01" height="3.75"/>
			<rect x="0" y="311.25" width="75" height="3.75" class="st4"/>
			<text x="-0" y="315.37" class="st5" v:langID="1033"><v:paragraph/><v:tabList/>accounting</text>		</g>
		<g id="shape90-203" v:mID="90" v:groupContext="shape" transform="translate(453,-156.75)">
			<title>Tabelle.90</title>
			<desc>Security</desc>
			<v:userDefs/>
			<v:textBlock v:margins="rect(0,0,0,0)"/>
			<v:textRect cx="29.9999" cy="313.125" width="60" height="3.75"/>
			<rect x="0" y="311.25" width="60" height="3.75" class="st4"/>
			<text x="-0" y="315.37" class="st5" v:langID="1033"><v:paragraph/><v:tabList/>Security</text>		</g>
		<g id="shape91-206" v:mID="91" v:groupContext="shape" transform="translate(455.25,-145.5)">
			<title>Tabelle.91</title>
			<desc>library</desc>
			<v:userDefs/>
			<v:textBlock v:margins="rect(0,0,0,0)"/>
			<v:textRect cx="26.2499" cy="313.125" width="52.52" height="3.75"/>
			<rect x="0" y="311.25" width="52.5" height="3.75" class="st4"/>
			<text x="-0.01" y="315.37" class="st5" v:langID="1033"><v:paragraph/><v:tabList/>library</text>		</g>
		<g id="shape92-209" v:mID="92" v:groupContext="shape" transform="translate(273,-46.5)">
			<title>Tabelle.92</title>
			<rect x="0" y="277.5" width="54" height="37.5" class="st7"/>
		</g>
		<g id="shape93-211" v:mID="93" v:groupContext="shape" transform="translate(331.5,-46.5)">
			<title>Tabelle.93</title>
			<rect x="0" y="277.5" width="64.5" height="37.5" class="st3"/>
		</g>
		<g id="shape94-213" v:mID="94" v:groupContext="shape" transform="translate(399,-46.5)">
			<title>Tabelle.94</title>
			<rect x="0" y="277.5" width="54" height="37.5" class="st10"/>
		</g>
		<g id="shape95-215" v:mID="95" v:groupContext="shape" transform="translate(457.5,-46.5)">
			<title>Tabelle.95</title>
			<rect x="0" y="277.5" width="51" height="37.5" class="st11"/>
		</g>
		<g id="shape96-217" v:mID="96" v:groupContext="shape" transform="translate(223.5,-69)">
			<title>Tabelle.96</title>
			<desc>network</desc>
			<v:userDefs/>
			<v:textBlock v:margins="rect(0,0,0,0)"/>
			<v:textRect cx="26.2499" cy="313.125" width="52.5" height="3.75"/>
			<rect x="0" y="311.25" width="52.5" height="3.75" class="st4"/>
			<text x="-0" y="315.37" class="st5" v:langID="1033"><v:paragraph/><v:tabList/>network</text>		</g>
		<g id="shape97-220" v:mID="97" v:groupContext="shape" transform="translate(216.75,-58.5)">
			<title>Tabelle.97</title>
			<desc>components</desc>
			<v:userDefs/>
			<v:textBlock v:margins="rect(0,0,0,0)"/>
			<v:textRect cx="37.4999" cy="313.125" width="75.01" height="3.75"/>
			<rect x="0" y="311.25" width="75" height="3.75" class="st4"/>
			<text x="-0.01" y="315.37" class="st5" v:langID="1033"><v:paragraph/><v:tabList/>components</text>		</g>
		<g id="shape98-223" v:mID="98" v:groupContext="shape" transform="translate(276,-69)">
			<title>Tabelle.98</title>
			<desc>management</desc>
			<v:userDefs/>
			<v:textBlock v:margins="rect(0,0,0,0)"/>
			<v:textRect cx="37.4999" cy="313.125" width="75.01" height="3.75"/>
			<rect x="0" y="311.25" width="75" height="3.75" class="st4"/>
			<text x="-0.01" y="315.37" class="st5" v:langID="1033"><v:paragraph/><v:tabList/>management</text>		</g>
		<g id="shape99-226" v:mID="99" v:groupContext="shape" transform="translate(276.75,-58.5)">
			<title>Tabelle.99</title>
			<desc>components</desc>
			<v:userDefs/>
			<v:textBlock v:margins="rect(0,0,0,0)"/>
			<v:textRect cx="37.4999" cy="313.125" width="75.01" height="3.75"/>
			<rect x="0" y="311.25" width="75" height="3.75" class="st4"/>
			<text x="-0" y="315.37" class="st5" v:langID="1033"><v:paragraph/><v:tabList/>components</text>		</g>
		<g id="shape100-229" v:mID="100" v:groupContext="shape" transform="translate(335.25,-69)">
			<title>Tabelle.100</title>
			<desc>interoperability</desc>
			<v:userDefs/>
			<v:textBlock v:margins="rect(0,0,0,0)"/>
			<v:textRect cx="59.9999" cy="313.125" width="120.01" height="3.75"/>
			<rect x="0" y="311.25" width="120" height="3.75" class="st4"/>
			<text x="-0" y="315.37" class="st5" v:langID="1033"><v:paragraph/><v:tabList/>interoperability</text>		</g>
		<g id="shape101-232" v:mID="101" v:groupContext="shape" transform="translate(341.25,-58.5)">
			<title>Tabelle.101</title>
			<desc>components</desc>
			<v:userDefs/>
			<v:textBlock v:margins="rect(0,0,0,0)"/>
			<v:textRect cx="37.4999" cy="313.125" width="75.01" height="3.75"/>
			<rect x="0" y="311.25" width="75" height="3.75" class="st4"/>
			<text x="-0.01" y="315.37" class="st5" v:langID="1033"><v:paragraph/><v:tabList/>components</text>		</g>
		<g id="shape102-235" v:mID="102" v:groupContext="shape" transform="translate(414,-68.25)">
			<title>Tabelle.102</title>
			<desc>&#34;base&#34;</desc>
			<v:userDefs/>
			<v:textBlock v:margins="rect(0,0,0,0)"/>
			<v:textRect cx="22.4999" cy="313.125" width="45" height="3.75"/>
			<rect x="0" y="311.25" width="45" height="3.75" class="st4"/>
			<text x="-0" y="315.37" class="st5" v:langID="1033"><v:paragraph/><v:tabList/>&#34;base&#34;</text>		</g>
		<g id="shape103-238" v:mID="103" v:groupContext="shape" transform="translate(404.25,-57.75)">
			<title>Tabelle.103</title>
			<desc>components</desc>
			<v:userDefs/>
			<v:textBlock v:margins="rect(0,0,0,0)"/>
			<v:textRect cx="37.4999" cy="313.125" width="75.01" height="3.75"/>
			<rect x="0" y="311.25" width="75" height="3.75" class="st4"/>
			<text x="-0.01" y="315.37" class="st5" v:langID="1033"><v:paragraph/><v:tabList/>components</text>		</g>
		<g id="shape104-241" v:mID="104" v:groupContext="shape" transform="translate(470.25,-69)">
			<title>Tabelle.104</title>
			<desc>security</desc>
			<v:userDefs/>
			<v:textBlock v:margins="rect(0,0,0,0)"/>
			<v:textRect cx="29.9999" cy="313.125" width="60" height="3.75"/>
			<rect x="0" y="311.25" width="60" height="3.75" class="st4"/>
			<text x="-0" y="315.37" class="st5" v:langID="1033"><v:paragraph/><v:tabList/>security</text>		</g>
		<g id="shape105-244" v:mID="105" v:groupContext="shape" transform="translate(461.25,-58.5)">
			<title>Tabelle.105</title>
			<desc>components</desc>
			<v:userDefs/>
			<v:textBlock v:margins="rect(0,0,0,0)"/>
			<v:textRect cx="37.4999" cy="313.125" width="75.01" height="3.75"/>
			<rect x="0" y="311.25" width="75" height="3.75" class="st4"/>
			<text x="-0" y="315.37" class="st5" v:langID="1033"><v:paragraph/><v:tabList/>components</text>		</g>
		<g id="shape108-247" v:mID="108" v:groupContext="shape" transform="translate(432,-178.5)">
			<title>Tabelle.108</title>
			<rect x="0" y="279" width="27" height="36" class="st11"/>
		</g>
		<g id="shape112-249" v:mID="112" v:groupContext="shape" transform="translate(437.25,-198.75)">
			<title>Tabelle.112</title>
			<desc>PKI</desc>
			<v:userDefs/>
			<v:textBlock v:margins="rect(0,0,0,0)"/>
			<v:textRect cx="11.2499" cy="313.125" width="22.5" height="3.75"/>
			<rect x="0" y="311.25" width="22.5" height="3.75" class="st4"/>
			<text x="-0" y="315.37" class="st5" v:langID="1033"><v:paragraph/><v:tabList/>PKI</text>		</g>
		<g id="shape113-252" v:mID="113" v:groupContext="shape" transform="translate(435.75,-188.25)">
			<title>Tabelle.113</title>
			<desc>client</desc>
			<v:userDefs/>
			<v:textBlock v:margins="rect(0,0,0,0)"/>
			<v:textRect cx="22.4999" cy="313.125" width="45" height="3.75"/>
			<rect x="0" y="311.25" width="45" height="3.75" class="st4"/>
			<text x="-0" y="315.37" class="st5" v:langID="1033"><v:paragraph/><v:tabList/>client</text>		</g>
		<g id="shape114-255" v:mID="114" v:groupContext="shape" transform="translate(70.5001,-98.25)">
			<title>Tabelle.114</title>
			<rect x="0" y="285" width="67.5" height="30" class="st14"/>
		</g>
		<g id="shape115-257" v:mID="115" v:groupContext="shape" transform="translate(82.5001,-117.75)">
			<title>Tabelle.115</title>
			<desc>bandwidth</desc>
			<v:userDefs/>
			<v:textBlock v:margins="rect(0,0,0,0)"/>
			<v:textRect cx="33.7499" cy="313.125" width="67.5" height="3.75"/>
			<rect x="0" y="311.25" width="67.5" height="3.75" class="st4"/>
			<text x="-0" y="315.37" class="st5" v:langID="1033"><v:paragraph/><v:tabList/>bandwidth</text>		</g>
		<g id="shape116-260" v:mID="116" v:groupContext="shape" transform="translate(82.5001,-106.5)">
			<title>Tabelle.116</title>
			<desc>reservation</desc>
			<v:userDefs/>
			<v:textBlock v:margins="rect(0,0,0,0)"/>
			<v:textRect cx="41.2499" cy="313.125" width="82.5" height="3.75"/>
			<rect x="0" y="311.25" width="82.5" height="3.75" class="st4"/>
			<text x="-0" y="315.37" class="st5" v:langID="1033"><v:paragraph/><v:tabList/>reservation</text>		</g>
		<g id="shape117-263" v:mID="117" v:groupContext="shape" transform="translate(69.0001,-220.5)">
			<title>Tabelle.117</title>
			<rect x="0" y="281.25" width="67.5" height="33.75" class="st7"/>
		</g>
		<g id="shape118-265" v:mID="118" v:groupContext="shape" transform="translate(390.75,-220.5)">
			<title>Tabelle.118</title>
			<rect x="0" y="281.25" width="30" height="33.75" class="st11"/>
		</g>
		<g id="shape119-267" v:mID="119" v:groupContext="shape" transform="translate(423,-220.5)">
			<title>Tabelle.119</title>
			<rect x="0" y="281.25" width="38.25" height="33.75" class="st11"/>
		</g>
		<g id="shape120-269" v:mID="120" v:groupContext="shape" transform="translate(396.75,-241.5)">
			<title>Tabelle.120</title>
			<desc>SEC.</desc>
			<v:userDefs/>
			<v:textBlock v:margins="rect(0,0,0,0)"/>
			<v:textRect cx="14.9999" cy="313.125" width="30.01" height="3.75"/>
			<rect x="0" y="311.25" width="30" height="3.75" class="st4"/>
			<text x="-0.01" y="315.37" class="st5" v:langID="1033"><v:paragraph/><v:tabList/>SEC.</text>		</g>
		<g id="shape121-272" v:mID="121" v:groupContext="shape" transform="translate(392.25,-228)">
			<title>Tabelle.121</title>
			<desc>managt</desc>
			<v:userDefs/>
			<v:textBlock v:margins="rect(0,0,0,0)"/>
			<v:textRect cx="22.4999" cy="313.125" width="45" height="3.75"/>
			<rect x="0" y="311.25" width="45" height="3.75" class="st4"/>
			<text x="-0" y="315.37" class="st5" v:langID="1033"><v:paragraph/><v:tabList/>managt</text>		</g>
		<g id="shape122-275" v:mID="122" v:groupContext="shape" transform="translate(423,-245.25)">
			<title>Tabelle.122</title>
			<desc>Auditing &#38;</desc>
			<v:userDefs/>
			<v:textBlock v:margins="rect(0,0,0,0)"/>
			<v:textRect cx="37.4999" cy="313.125" width="75.01" height="3.75"/>
			<rect x="0" y="311.25" width="75" height="3.75" class="st4"/>
			<text x="-0" y="315.37" class="st5" v:langID="1033"><v:paragraph/><v:tabList/>Auditing &#38;</text>		</g>
		<g id="shape123-278" v:mID="123" v:groupContext="shape" transform="translate(425.25,-236.25)">
			<title>Tabelle.123</title>
			<desc>intrusion</desc>
			<v:userDefs/>
			<v:textBlock v:margins="rect(0,0,0,0)"/>
			<v:textRect cx="33.7499" cy="313.125" width="67.5" height="3.75"/>
			<rect x="0" y="311.25" width="67.5" height="3.75" class="st4"/>
			<text x="-0" y="315.37" class="st5" v:langID="1033"><v:paragraph/><v:tabList/>intrusion</text>		</g>
		<g id="shape124-281" v:mID="124" v:groupContext="shape" transform="translate(424.5,-226.5)">
			<title>Tabelle.124</title>
			<desc>detection</desc>
			<v:userDefs/>
			<v:textBlock v:margins="rect(0,0,0,0)"/>
			<v:textRect cx="33.7499" cy="313.125" width="67.5" height="3.75"/>
			<rect x="0" y="311.25" width="67.5" height="3.75" class="st4"/>
			<text x="-0" y="315.37" class="st5" v:langID="1033"><v:paragraph/><v:tabList/>detection</text>		</g>
		<g id="shape125-284" v:mID="125" v:groupContext="shape" transform="translate(82.5001,-244.5)">
			<title>Tabelle.125</title>
			<desc>Enterprise</desc>
			<v:userDefs/>
			<v:textBlock v:margins="rect(0,0,0,0)"/>
			<v:textRect cx="37.4999" cy="313.125" width="75.01" height="3.75"/>
			<rect x="0" y="311.25" width="75" height="3.75" class="st4"/>
			<text x="-0.01" y="315.37" class="st5" v:langID="1033"><v:paragraph/><v:tabList/>Enterprise</text>		</g>
		<g id="shape126-287" v:mID="126" v:groupContext="shape" transform="translate(78.7501,-235.5)">
			<title>Tabelle.126</title>
			<desc>management</desc>
			<v:userDefs/>
			<v:textBlock v:margins="rect(0,0,0,0)"/>
			<v:textRect cx="37.4999" cy="313.125" width="75.01" height="3.75"/>
			<rect x="0" y="311.25" width="75" height="3.75" class="st4"/>
			<text x="-0.01" y="315.37" class="st5" v:langID="1033"><v:paragraph/><v:tabList/>management</text>		</g>
		<g id="shape127-290" v:mID="127" v:groupContext="shape" transform="translate(81.0001,-226.5)">
			<title>Tabelle.127</title>
			<desc>application</desc>
			<v:userDefs/>
			<v:textBlock v:margins="rect(0,0,0,0)"/>
			<v:textRect cx="41.2499" cy="313.125" width="82.5" height="3.75"/>
			<rect x="0" y="311.25" width="82.5" height="3.75" class="st4"/>
			<text x="-0" y="315.37" class="st5" v:langID="1033"><v:paragraph/><v:tabList/>application</text>		</g>
		<g id="shape128-293" v:mID="128" v:groupContext="shape" transform="translate(141,-178.5)">
			<title>Tabelle.128</title>
			<path d="M0 315 L43.5 315 L43.5 279 L0 279 L0 315 Z" class="st3"/>
		</g>
		<g id="shape129-295" v:mID="129" v:groupContext="shape" transform="translate(148.5,-204)">
			<title>Tabelle.129</title>
			<desc>Object</desc>
			<v:userDefs/>
			<v:textBlock v:margins="rect(0,0,0,0)"/>
			<v:textRect cx="22.4999" cy="313.125" width="45" height="3.75"/>
			<rect x="0" y="311.25" width="45" height="3.75" class="st4"/>
			<text x="-0" y="315.37" class="st5" v:langID="1033"><v:paragraph/><v:tabList/>Object</text>		</g>
		<g id="shape130-298" v:mID="130" v:groupContext="shape" transform="translate(144,-193.5)">
			<title>Tabelle.130</title>
			<desc>library &#38;</desc>
			<v:userDefs/>
			<v:textBlock v:margins="rect(0,0,0,0)"/>
			<v:textRect cx="33.7499" cy="313.125" width="67.5" height="3.75"/>
			<rect x="0" y="311.25" width="67.5" height="3.75" class="st4"/>
			<text x="-0" y="315.37" class="st5" v:langID="1033"><v:paragraph/><v:tabList/>library &#38;</text>		</g>
		<g id="shape131-301" v:mID="131" v:groupContext="shape" transform="translate(140.25,-183)">
			<title>Tabelle.131</title>
			<desc>middleware</desc>
			<v:userDefs/>
			<v:textBlock v:margins="rect(0,0,0,0)"/>
			<v:textRect cx="37.4999" cy="313.125" width="75.01" height="3.75"/>
			<rect x="0" y="311.25" width="75" height="3.75" class="st4"/>
			<text x="-0.01" y="315.37" class="st5" v:langID="1033"><v:paragraph/><v:tabList/>middleware</text>		</g>
		<g id="shape132-304" v:mID="132" v:groupContext="shape" transform="translate(69.0001,-204)">
			<title>Tabelle.132</title>
			<desc>Manager</desc>
			<v:userDefs/>
			<v:textBlock v:margins="rect(0,0,0,0)"/>
			<v:textRect cx="26.2499" cy="313.125" width="52.52" height="3.75"/>
			<rect x="0" y="311.25" width="52.5" height="3.75" class="st4"/>
			<text x="-0.01" y="315.37" class="st5" v:langID="1033"><v:paragraph/><v:tabList/>Manager</text>		</g>
		<g id="shape133-307" v:mID="133" v:groupContext="shape" transform="translate(78.7501,-182.25)">
			<title>Tabelle.133</title>
			<desc>DB</desc>
			<v:userDefs/>
			<v:textBlock v:margins="rect(0,0,0,0)"/>
			<v:textRect cx="7.49988" cy="313.125" width="15" height="3.75"/>
			<rect x="0" y="311.25" width="15" height="3.75" class="st4"/>
			<text x="-0" y="315.37" class="st5" v:langID="1033"><v:paragraph/><v:tabList/>DB</text>		</g>
		<g id="shape4-310" v:mID="4" v:groupContext="shape" transform="translate(211.5,-258.75)">
			<title>Tabelle.4</title>
			<rect x="0" y="279" width="72" height="36" class="st3"/>
		</g>
		<g id="shape5-312" v:mID="5" v:groupContext="shape" transform="translate(213,-284.25)">
			<title>Tabelle.5</title>
			<desc>database</desc>
			<v:userDefs/>
			<v:textBlock v:margins="rect(0,0,0,0)"/>
			<v:textRect cx="35.2499" cy="313.125" width="70.52" height="3.75"/>
			<rect x="0" y="311.25" width="70.5" height="3.75" class="st4"/>
			<text x="-0.01" y="315.37" class="st5" v:langID="1031"><v:paragraph/><v:tabList/>Image Processing</text>		</g>
		<g id="shape34-315" v:mID="34" v:groupContext="shape" transform="translate(212.25,-275.25)">
			<title>Tabelle.34</title>
			<desc>&#38; filesharing</desc>
			<v:userDefs/>
			<v:textBlock v:margins="rect(0,0,0,0)"/>
			<v:textRect cx="48.7499" cy="313.125" width="97.52" height="3.75"/>
			<rect x="0" y="311.25" width="97.5" height="3.75" class="st4"/>
			<text x="-0.01" y="315.37" class="st5" v:langID="1033"><v:paragraph/><v:tabList/>&#38; <tspan class="st12"
						v:langID="1031">Conversion</tspan></text>		</g>
		<g id="shape35-319" v:mID="35" v:groupContext="shape" transform="translate(213,-266.25)">
			<title>Tabelle.35</title>
			<desc>middleware</desc>
			<v:userDefs/>
			<v:textBlock v:margins="rect(0,0,0,0)"/>
			<v:textRect cx="37.4999" cy="313.125" width="75.01" height="3.75"/>
			<rect x="0" y="311.25" width="75" height="3.75" class="st4"/>
			<text x="-0.01" y="315.37" class="st5" v:langID="1031"><v:paragraph/><v:tabList/>Application</text>		</g>
		<g id="shape36-322" v:mID="36" v:groupContext="shape" transform="translate(288.75,-258.75)">
			<title>Tabelle.36</title>
			<rect x="0" y="279" width="80.25" height="36" class="st3"/>
		</g>
		<g id="shape37-324" v:mID="37" v:groupContext="shape" transform="translate(290.25,-284.25)">
			<title>Tabelle.37</title>
			<desc>database</desc>
			<v:userDefs/>
			<v:textBlock v:margins="rect(0,0,0,0)"/>
			<v:textRect cx="39.3748" cy="313.125" width="78.77" height="3.75"/>
			<rect x="0" y="311.25" width="78.75" height="3.75" class="st4"/>
			<text x="-0.01" y="315.37" class="st5" v:langID="1031"><v:paragraph/><v:tabList/>Image Compression</text>		</g>
		<g id="shape38-327" v:mID="38" v:groupContext="shape" transform="translate(289.5,-275.25)">
			<title>Tabelle.38</title>
			<desc>&#38; filesharing</desc>
			<v:userDefs/>
			<v:textBlock v:margins="rect(0,0,0,0)"/>
			<v:textRect cx="48.7499" cy="313.125" width="97.52" height="3.75"/>
			<rect x="0" y="311.25" width="97.5" height="3.75" class="st4"/>
			<text x="-0.01" y="315.37" class="st5" v:langID="1033"><v:paragraph/><v:tabList/>&#38; <tspan class="st12"
						v:langID="1031">Decompression</tspan></text>		</g>
		<g id="shape41-331" v:mID="41" v:groupContext="shape" transform="translate(290.25,-266.25)">
			<title>Tabelle.41</title>
			<desc>middleware</desc>
			<v:userDefs/>
			<v:textBlock v:margins="rect(0,0,0,0)"/>
			<v:textRect cx="37.4999" cy="313.125" width="75.01" height="3.75"/>
			<rect x="0" y="311.25" width="75" height="3.75" class="st4"/>
			<text x="-0.01" y="315.37" class="st5" v:langID="1031"><v:paragraph/><v:tabList/>Application</text>		</g>
	</g>
</svg>
