<?xml version="1.0" encoding="UTF-8" standalone="no"?>
<!DOCTYPE svg PUBLIC "-//W3C//DTD SVG 1.0//EN" "http://www.w3.org/TR/2001/REC-SVG-20010904/DTD/svg10.dtd">
<!-- Generiert durch Microsoft Visio 11.0, SVG Export, v1.0 v2-fc-utd2.svg Functional Components for User Terminal/Device -->
<svg xmlns="http://www.w3.org/2000/svg" xmlns:v="http://schemas.microsoft.com/visio/2003/SVGExtensions/" width="7.29167in"
		height="5in" viewBox="0 0 525 360" xml:space="preserve" color-interpolation-filters="sRGB" class="st24">
	<v:documentProperties v:langID="1033" v:metric="true" v:viewMarkup="false"/>

	<style type="text/css">
	<![CDATA[
		.st1 {fill:#ccecff;stroke:#fafd00;stroke-linecap:butt;stroke-width:0.75}
		.st2 {fill:#ffff99;stroke:#fafd00;stroke-linecap:butt;stroke-width:0.75}
		.st3 {fill:#ffffff;stroke:#000000;stroke-linecap:butt;stroke-width:0.75}
		.st4 {fill:none;stroke:none;stroke-linecap:butt;stroke-width:0.75}
		.st5 {fill:#000000;font-family:Verdana;font-size:0.75em}
		.st6 {fill:#e7ffff;stroke:#000000;stroke-linecap:butt;stroke-width:0.75}
		.st7 {fill:#e7ffff;stroke:#000000;stroke-dasharray:3,1.5;stroke-linecap:butt;stroke-width:0.75}
		.st8 {fill:#000000;font-family:Verdana;font-size:0.625008em}
		.st9 {fill:#000000;font-family:Verdana;font-size:0.75em;font-stretch:semi-expanded}
		.st10 {fill:#ffc0c0;stroke:#000000;stroke-linecap:butt;stroke-width:0.75}
		.st11 {fill:#b4dafe;stroke:#000000;stroke-linecap:butt;stroke-width:0.75}
		.st12 {fill:#000000;font-family:Verdana;font-size:0.874992em}
		.st13 {fill:none;stroke:#000000;stroke-linecap:butt;stroke-width:0.75}
		.st14 {fill:#fafd00;stroke:#000000;stroke-linecap:butt;stroke-width:0.75}
		.st15 {fill:#ffff00;stroke:#000000;stroke-linecap:butt;stroke-width:0.75}
		.st16 {fill:#e6a4c6;stroke:#000000;stroke-linecap:butt;stroke-width:0.75}
		.st17 {fill:#e7ffff;stroke:#202020;stroke-linecap:butt;stroke-width:0.75}
		.st18 {fill:none;stroke:#202020;stroke-dasharray:1.5,3;stroke-linecap:butt;stroke-width:1.5}
		.st19 {fill:none;stroke:#404040;stroke-dasharray:3,1.5;stroke-linecap:butt;stroke-width:0.75}
		.st20 {fill:#000000;font-family:Verdana;font-size:0.687492em}
		.st21 {fill:#000000;font-family:Verdana;font-size:0.5625em}
		.st22 {fill:none;stroke:#404040;stroke-linecap:butt;stroke-width:0.75}
		.st23 {fill:#b4dafe;stroke:#404040;stroke-linecap:butt;stroke-width:0.75}
		.st24 {fill:none;fill-rule:evenodd;font-size:12;overflow:visible;stroke-linecap:square;stroke-miterlimit:3}
	]]>
	</style>

	<g v:mID="0" v:index="1" v:groupContext="foregroundPage">
		<v:userDefs/>
		<title>Functional Components for User Terminal/Device</title>
		<v:pageProperties v:drawingScale="1" v:pageScale="1" v:drawingUnits="19" v:shadowOffsetX="9" v:shadowOffsetY="-9"/>
		<g id="shape1-1" v:mID="1" v:groupContext="shape" transform="translate(84.75,-104.25)">
			<title>Tabelle.1</title>
			<rect x="0" y="319.5" width="345" height="40.5" class="st1"/>
		</g>
		<g id="shape2-3" v:mID="2" v:groupContext="shape" transform="translate(84.75,-63)">
			<title>Tabelle.2</title>
			<rect x="0" y="322.5" width="345" height="37.5" class="st2"/>
		</g>
		<g id="shape3-5" v:mID="3" v:groupContext="shape" transform="translate(88.5,-108)">
			<title>Tabelle.3</title>
			<rect x="0" y="327" width="71.4643" height="33" class="st3"/>
		</g>
		<g id="shape4-7" v:mID="4" v:groupContext="shape" transform="translate(92.25,-132)">
			<title>Tabelle.4</title>
			<desc>Configuration</desc>
			<v:textBlock v:margins="rect(0,0,0,0)"/>
			<v:textRect cx="58.5" cy="357.75" width="117" height="4.5"/>
			<rect x="0" y="355.5" width="117" height="4.5" class="st4"/>
			<text x="0" y="360.45" class="st5" v:langID="1033"><v:paragraph/><v:tabList/>Configuration</text>		</g>
		<g id="shape5-10" v:mID="5" v:groupContext="shape" transform="translate(89.7855,-121.715)">
			<title>Tabelle.5</title>
			<desc>control/remote</desc>
			<v:textBlock v:margins="rect(0,0,0,0)"/>
			<v:textRect cx="63" cy="357.75" width="126" height="4.5"/>
			<rect x="0" y="355.5" width="126" height="4.5" class="st4"/>
			<text x="0" y="360.45" class="st5" v:langID="1033"><v:paragraph/><v:tabList/>control/remote</text>		</g>
		<g id="shape6-13" v:mID="6" v:groupContext="shape" transform="translate(99,-111.75)">
			<title>Tabelle.6</title>
			<desc>installation</desc>
			<v:textBlock v:margins="rect(0,0,0,0)"/>
			<v:textRect cx="54" cy="357.75" width="108" height="4.5"/>
			<rect x="0" y="355.5" width="108" height="4.5" class="st4"/>
			<text x="0" y="360.45" class="st5" v:langID="1033"><v:paragraph/><v:tabList/>installation</text>		</g>
		<g id="shape7-16" v:mID="7" v:groupContext="shape" transform="translate(166.5,-108)">
			<title>Tabelle.7</title>
			<rect x="0" y="327" width="131.25" height="33" class="st6"/>
		</g>
		<g id="shape8-18" v:mID="8" v:groupContext="shape" transform="translate(171.75,-123)">
			<title>Tabelle.8</title>
			<desc>Base operating system</desc>
			<v:textBlock v:margins="rect(0,0,0,0)"/>
			<v:textRect cx="94.5" cy="357.75" width="189" height="4.5"/>
			<rect x="0" y="355.5" width="189" height="4.5" class="st4"/>
			<text x="0" y="360.45" class="st5" v:langID="1033"><v:paragraph/><v:tabList/>Base operating system</text>		</g>
		<g id="shape9-21" v:mID="9" v:groupContext="shape" transform="translate(303,-108)">
			<title>Tabelle.9</title>
			<path d="M0 360 L78.75 360 L78.75 327 L0 327 L0 360 Z" class="st7"/>
		</g>
		<g id="shape10-23" v:mID="10" v:groupContext="shape" transform="translate(306,-129)">
			<title>Tabelle.10</title>
			<desc>Windowing</desc>
			<v:textBlock v:margins="rect(0,0,0,0)"/>
			<v:textRect cx="47.25" cy="357.375" width="94.5" height="5.25"/>
			<rect x="0" y="354.75" width="94.5" height="5.25" class="st4"/>
			<text x="0" y="359.62" class="st8" v:langID="1033"><v:paragraph/><v:tabList/>Windowing</text>		</g>
		<g id="shape11-26" v:mID="11" v:groupContext="shape" transform="translate(312,-116.25)">
			<title>Tabelle.11</title>
			<desc>software</desc>
			<v:textBlock v:margins="rect(0,0,0,0)"/>
			<v:textRect cx="42" cy="357.375" width="84.01" height="5.25"/>
			<rect x="0" y="354.75" width="84" height="5.25" class="st4"/>
			<text x="0" y="359.62" class="st8" v:langID="1033"><v:paragraph/><v:tabList/>software</text>		</g>
		<g id="group12-29" transform="translate(20.3377,-75.75)" v:mID="12" v:groupContext="group">
			<title>Tabelle.12</title>
			<g id="shape13-30" v:mID="13" v:groupContext="shape" transform="translate(-5.83533E-013,-192.75)">
				<title>Tabelle.13</title>
				<desc>Specific</desc>
				<v:textBlock v:margins="rect(0,0,0,0)"/>
				<v:textRect cx="38.7918" cy="357.75" width="77.59" height="4.5"/>
				<rect x="0" y="355.5" width="77.5836" height="4.5" class="st4"/>
				<text x="-0" y="360.45" class="st9" v:langID="1033"><v:paragraph/><v:tabList/>Specific</text>			</g>
			<g id="shape14-33" v:mID="14" v:groupContext="shape" transform="translate(5.7554E-013,-181.5)">
				<title>Tabelle.14</title>
				<desc>mission</desc>
				<v:textBlock v:margins="rect(0,0,0,0)"/>
				<v:textRect cx="33.9428" cy="357.75" width="67.89" height="4.5"/>
				<rect x="0" y="355.5" width="67.8856" height="4.5" class="st4"/>
				<text x="0" y="360.45" class="st9" v:langID="1033"><v:paragraph/><v:tabList/>mission</text>			</g>
			<g id="shape15-36" v:mID="15" v:groupContext="shape" transform="translate(0,-170.25)">
				<title>Tabelle.15</title>
				<desc>applications</desc>
				<v:textBlock v:margins="rect(0,0,0,0)"/>
				<v:textRect cx="58.1877" cy="357.75" width="116.38" height="4.5"/>
				<rect x="0" y="355.5" width="116.375" height="4.5" class="st4"/>
				<text x="0" y="360.45" class="st9" v:langID="1033"><v:paragraph/><v:tabList/>applications</text>			</g>
			<g id="shape16-39" v:mID="16" v:groupContext="shape" transform="translate(0,-149.25)">
				<title>Tabelle.16</title>
				<desc>Common</desc>
				<v:textBlock v:margins="rect(0,0,0,0)"/>
				<v:textRect cx="29.0939" cy="357.75" width="58.19" height="4.5"/>
				<rect x="0" y="355.5" width="58.1877" height="4.5" class="st4"/>
				<text x="0" y="360.45" class="st9" v:langID="1033"><v:paragraph/><v:tabList/>Common</text>			</g>
			<g id="shape17-42" v:mID="17" v:groupContext="shape" transform="translate(5.7554E-013,-138)">
				<title>Tabelle.17</title>
				<desc>support</desc>
				<v:textBlock v:margins="rect(0,0,0,0)"/>
				<v:textRect cx="33.9428" cy="357.75" width="67.89" height="4.5"/>
				<rect x="0" y="355.5" width="67.8856" height="4.5" class="st4"/>
				<text x="0" y="360.45" class="st9" v:langID="1033"><v:paragraph/><v:tabList/>support</text>			</g>
			<g id="shape18-45" v:mID="18" v:groupContext="shape" transform="translate(-5.83533E-013,-127.5)">
				<title>Tabelle.18</title>
				<desc>application</desc>
				<v:textBlock v:margins="rect(0,0,0,0)"/>
				<v:textRect cx="53.3387" cy="357.75" width="106.68" height="4.5"/>
				<rect x="0" y="355.5" width="106.677" height="4.5" class="st4"/>
				<text x="-0" y="360.45" class="st9" v:langID="1033"><v:paragraph/><v:tabList/>application</text>			</g>
			<g id="shape19-48" v:mID="19" v:groupContext="shape" transform="translate(-5.83533E-013,-116.25)">
				<title>Tabelle.19</title>
				<desc>services</desc>
				<v:textBlock v:margins="rect(0,0,0,0)"/>
				<v:textRect cx="38.7918" cy="357.75" width="77.59" height="4.5"/>
				<rect x="0" y="355.5" width="77.5836" height="4.5" class="st4"/>
				<text x="-0" y="360.45" class="st9" v:langID="1033"><v:paragraph/><v:tabList/>services</text>			</g>
			<g id="shape20-51" v:mID="20" v:groupContext="shape" transform="translate(0,-100.5)">
				<title>Tabelle.20</title>
				<desc>Infra-</desc>
				<v:textBlock v:margins="rect(0,0,0,0)"/>
				<v:textRect cx="29.0939" cy="357.75" width="58.19" height="4.5"/>
				<rect x="0" y="355.5" width="58.1877" height="4.5" class="st4"/>
				<text x="0" y="360.45" class="st9" v:langID="1033"><v:paragraph/><v:tabList/>Infra-</text>			</g>
			<g id="shape21-54" v:mID="21" v:groupContext="shape" transform="translate(0,-89.25)">
				<title>Tabelle.21</title>
				<desc>structure</desc>
				<v:textBlock v:margins="rect(0,0,0,0)"/>
				<v:textRect cx="43.6408" cy="357.75" width="87.29" height="4.5"/>
				<rect x="0" y="355.5" width="87.2816" height="4.5" class="st4"/>
				<text x="0" y="360.45" class="st9" v:langID="1033"><v:paragraph/><v:tabList/>structure</text>			</g>
			<g id="shape22-57" v:mID="22" v:groupContext="shape" transform="translate(-5.83533E-013,-78.75)">
				<title>Tabelle.22</title>
				<desc>services</desc>
				<v:textBlock v:margins="rect(0,0,0,0)"/>
				<v:textRect cx="38.7918" cy="357.75" width="77.59" height="4.5"/>
				<rect x="0" y="355.5" width="77.5836" height="4.5" class="st4"/>
				<text x="-0" y="360.45" class="st9" v:langID="1033"><v:paragraph/><v:tabList/>services</text>			</g>
			<g id="shape23-60" v:mID="23" v:groupContext="shape" transform="translate(0,-54)">
				<title>Tabelle.23</title>
				<desc>Kernel</desc>
				<v:textBlock v:margins="rect(0,0,0,0)"/>
				<v:textRect cx="29.0939" cy="357.75" width="58.19" height="4.5"/>
				<rect x="0" y="355.5" width="58.1877" height="4.5" class="st4"/>
				<text x="0" y="360.45" class="st9" v:langID="1033"><v:paragraph/><v:tabList/>Kernel</text>			</g>
			<g id="shape24-63" v:mID="24" v:groupContext="shape" transform="translate(-5.83533E-013,-43.5)">
				<title>Tabelle.24</title>
				<desc>services</desc>
				<v:textBlock v:margins="rect(0,0,0,0)"/>
				<v:textRect cx="38.7918" cy="357.75" width="77.59" height="4.5"/>
				<rect x="0" y="355.5" width="77.5836" height="4.5" class="st4"/>
				<text x="-0" y="360.45" class="st9" v:langID="1033"><v:paragraph/><v:tabList/>services</text>			</g>
			<g id="shape25-66" v:mID="25" v:groupContext="shape" transform="translate(5.7554E-013,-10.5)">
				<title>Tabelle.25</title>
				<desc>Network</desc>
				<v:textBlock v:margins="rect(0,0,0,0)"/>
				<v:textRect cx="33.9428" cy="357.75" width="67.89" height="4.5"/>
				<rect x="0" y="355.5" width="67.8856" height="4.5" class="st4"/>
				<text x="0" y="360.45" class="st9" v:langID="1033"><v:paragraph/><v:tabList/>Network</text>			</g>
			<g id="shape26-69" v:mID="26" v:groupContext="shape">
				<title>Tabelle.26</title>
				<desc>services</desc>
				<v:textBlock v:margins="rect(0,0,0,0)"/>
				<v:textRect cx="38.7918" cy="357.75" width="77.59" height="4.5"/>
				<rect x="0" y="355.5" width="77.5836" height="4.5" class="st4"/>
				<text x="-0" y="360.45" class="st9" v:langID="1033"><v:paragraph/><v:tabList/>services</text>			</g>
		</g>
		<g id="shape27-72" v:mID="27" v:groupContext="shape" transform="translate(386.25,-108)">
			<title>Tabelle.27</title>
			<rect x="0" y="327" width="39" height="33" class="st10"/>
		</g>
		<g id="shape28-74" v:mID="28" v:groupContext="shape" transform="translate(387,-129)">
			<title>Tabelle.28</title>
			<desc>Security</desc>
			<v:textBlock v:margins="rect(0,0,0,0)"/>
			<v:textRect cx="36" cy="357.75" width="72" height="4.5"/>
			<rect x="0" y="355.5" width="72" height="4.5" class="st4"/>
			<text x="0" y="360.45" class="st5" v:langID="1033"><v:paragraph/><v:tabList/>Security</text>		</g>
		<g id="shape29-77" v:mID="29" v:groupContext="shape" transform="translate(389.25,-117.75)">
			<title>Tabelle.29</title>
			<desc>library</desc>
			<v:textBlock v:margins="rect(0,0,0,0)"/>
			<v:textRect cx="31.5" cy="357.75" width="63" height="4.5"/>
			<rect x="0" y="355.5" width="63" height="4.5" class="st4"/>
			<text x="0" y="360.45" class="st5" v:langID="1033"><v:paragraph/><v:tabList/>library</text>		</g>
		<g id="shape30-80" v:mID="30" v:groupContext="shape" transform="translate(189,-200.25)">
			<title>Tabelle.30</title>
			<rect x="0" y="333.75" width="42" height="26.25" class="st11"/>
		</g>
		<g id="shape31-82" v:mID="31" v:groupContext="shape" transform="translate(197.25,-216)">
			<title>Tabelle.31</title>
			<desc>WEB</desc>
			<v:textBlock v:margins="rect(0,0,0,0)"/>
			<v:textRect cx="13.5" cy="357.75" width="27" height="4.5"/>
			<rect x="0" y="355.5" width="27" height="4.5" class="st4"/>
			<text x="0" y="360.45" class="st5" v:langID="1033"><v:paragraph/><v:tabList/>WEB</text>		</g>
		<g id="shape32-85" v:mID="32" v:groupContext="shape" transform="translate(191.25,-204.75)">
			<title>Tabelle.32</title>
			<desc>browser</desc>
			<v:textBlock v:margins="rect(0,0,0,0)"/>
			<v:textRect cx="31.5" cy="357.75" width="63" height="4.5"/>
			<rect x="0" y="355.5" width="63" height="4.5" class="st4"/>
			<text x="0" y="360.45" class="st5" v:langID="1033"><v:paragraph/><v:tabList/>browser</text>		</g>
		<g id="shape33-88" v:mID="33" v:groupContext="shape" transform="translate(18,-34.5)">
			<title>Tabelle.33</title>
			<desc>Legend:</desc>
			<v:textBlock v:margins="rect(0,0,0,0)"/>
			<v:textRect cx="36.75" cy="357.375" width="73.5" height="5.25"/>
			<rect x="0" y="354.75" width="73.5" height="5.25" class="st4"/>
			<text x="0" y="360.52" class="st12" v:langID="1033"><v:paragraph/><v:tabList/>Legend:</text>		</g>
		<g id="shape34-91" v:mID="34" v:groupContext="shape" transform="translate(114.75,-31.5)">
			<title>Tabelle.34</title>
			<desc>optional</desc>
			<v:textBlock v:margins="rect(0,0,0,0)"/>
			<v:textRect cx="36" cy="357.75" width="72" height="4.5"/>
			<rect x="0" y="355.5" width="72" height="4.5" class="st4"/>
			<text x="0" y="360.45" class="st5" v:langID="1033"><v:paragraph/><v:tabList/>optional</text>		</g>
		<g id="shape35-94" v:mID="35" v:groupContext="shape" transform="translate(63.75,-15)">
			<title>Tabelle.35</title>
			<rect x="0" y="322.5" width="41.25" height="37.5" class="st13"/>
		</g>
		<g id="shape36-96" v:mID="36" v:groupContext="shape" transform="translate(65.25,-32.25)">
			<title>Tabelle.36</title>
			<desc>required</desc>
			<v:textBlock v:margins="rect(0,0,0,0)"/>
			<v:textRect cx="36" cy="357.75" width="72" height="4.5"/>
			<rect x="0" y="355.5" width="72" height="4.5" class="st4"/>
			<text x="0" y="360.45" class="st5" v:langID="1033"><v:paragraph/><v:tabList/>required</text>		</g>
		<g id="shape37-99" v:mID="37" v:groupContext="shape" transform="translate(218.25,-14.25)">
			<title>Tabelle.37</title>
			<rect x="0" y="322.5" width="60" height="37.5" class="st14"/>
		</g>
		<g id="shape38-101" v:mID="38" v:groupContext="shape" transform="translate(228.75,-36.75)">
			<title>Tabelle.38</title>
			<desc>network</desc>
			<v:textBlock v:margins="rect(0,0,0,0)"/>
			<v:textRect cx="31.5" cy="357.75" width="63" height="4.5"/>
			<rect x="0" y="355.5" width="63" height="4.5" class="st4"/>
			<text x="0" y="360.45" class="st5" v:langID="1033"><v:paragraph/><v:tabList/>network</text>		</g>
		<g id="shape39-104" v:mID="39" v:groupContext="shape" transform="translate(221.25,-26.25)">
			<title>Tabelle.39</title>
			<desc>components</desc>
			<v:textBlock v:margins="rect(0,0,0,0)"/>
			<v:textRect cx="45" cy="357.75" width="90" height="4.5"/>
			<rect x="0" y="355.5" width="90" height="4.5" class="st4"/>
			<text x="0" y="360.45" class="st5" v:langID="1033"><v:paragraph/><v:tabList/>components</text>		</g>
		<g id="shape40-107" v:mID="40" v:groupContext="shape" transform="translate(129.75,-67.5)">
			<title>Tabelle.40</title>
			<rect x="0" y="328.5" width="51" height="31.5" class="st15"/>
		</g>
		<g id="shape41-109" v:mID="41" v:groupContext="shape" transform="translate(132,-86.25)">
			<title>Tabelle.41</title>
			<desc>IP address</desc>
			<v:textBlock v:margins="rect(0,0,0,0)"/>
			<v:textRect cx="45" cy="357.75" width="90" height="4.5"/>
			<rect x="0" y="355.5" width="90" height="4.5" class="st4"/>
			<text x="0" y="360.45" class="st5" v:langID="1033"><v:paragraph/><v:tabList/>IP address</text>		</g>
		<g id="shape42-112" v:mID="42" v:groupContext="shape" transform="translate(135,-75)">
			<title>Tabelle.42</title>
			<desc>allocation</desc>
			<v:textBlock v:margins="rect(0,0,0,0)"/>
			<v:textRect cx="45" cy="357.75" width="90" height="4.5"/>
			<rect x="0" y="355.5" width="90" height="4.5" class="st4"/>
			<text x="0" y="360.45" class="st5" v:langID="1033"><v:paragraph/><v:tabList/>allocation</text>		</g>
		<g id="shape43-115" v:mID="43" v:groupContext="shape" transform="translate(157.5,-14.25)">
			<title>Tabelle.43</title>
			<rect x="0" y="322.5" width="58.5" height="37.5" class="st16"/>
		</g>
		<g id="shape44-117" v:mID="44" v:groupContext="shape" transform="translate(302.25,-148.5)">
			<title>Tabelle.44</title>
			<rect x="0" y="318.75" width="78" height="41.25" class="st17"/>
		</g>
		<g id="shape45-119" v:mID="45" v:groupContext="shape" transform="translate(79.5,-58.5)">
			<title>Tabelle.45</title>
			<path d="M0 360 L365.25 360 L365.25 135.75 L0 135.75 L0 360 Z" class="st18"/>
		</g>
		<g id="shape46-121" v:mID="46" v:groupContext="shape" transform="translate(110.25,-15)">
			<title>Tabelle.46</title>
			<path d="M0 360 L42.75 360 L42.75 322.5 L0 322.5 L0 360 Z" class="st19"/>
		</g>
		<g id="shape47-123" v:mID="47" v:groupContext="shape" transform="translate(170.25,-36.75)">
			<title>Tabelle.47</title>
			<desc>mission</desc>
			<v:textBlock v:margins="rect(0,0,0,0)"/>
			<v:textRect cx="31.5" cy="357.75" width="63" height="4.5"/>
			<rect x="0" y="355.5" width="63" height="4.5" class="st4"/>
			<text x="0" y="360.45" class="st5" v:langID="1033"><v:paragraph/><v:tabList/>mission</text>		</g>
		<g id="shape48-126" v:mID="48" v:groupContext="shape" transform="translate(159.75,-26.25)">
			<title>Tabelle.48</title>
			<desc>components</desc>
			<v:textBlock v:margins="rect(0,0,0,0)"/>
			<v:textRect cx="45" cy="357.75" width="90" height="4.5"/>
			<rect x="0" y="355.5" width="90" height="4.5" class="st4"/>
			<text x="0" y="360.45" class="st5" v:langID="1033"><v:paragraph/><v:tabList/>components</text>		</g>
		<g id="shape49-129" v:mID="49" v:groupContext="shape" transform="translate(308.25,-177.75)">
			<title>Tabelle.49</title>
			<desc>Remote Display</desc>
			<v:textBlock v:margins="rect(0,0,0,0)"/>
			<v:textRect cx="57.75" cy="357.938" width="115.5" height="4.125"/>
			<rect x="0" y="355.875" width="115.5" height="4.125" class="st4"/>
			<text x="0" y="360.41" class="st20" v:langID="1033"><v:paragraph/><v:tabList/>Remote Display</text>		</g>
		<g id="shape50-132" v:mID="50" v:groupContext="shape" transform="translate(321.75,-166.5)">
			<title>Tabelle.50</title>
			<desc>Services</desc>
			<v:textBlock v:margins="rect(0,0,0,0)"/>
			<v:textRect cx="33" cy="357.938" width="66.01" height="4.125"/>
			<rect x="0" y="355.875" width="66" height="4.125" class="st4"/>
			<text x="0" y="360.41" class="st20" v:langID="1033"><v:paragraph/><v:tabList/>Services</text>		</g>
		<g id="shape51-135" v:mID="51" v:groupContext="shape" transform="translate(306,-156)">
			<title>Tabelle.51</title>
			<desc>(terminal emulation)</desc>
			<v:textBlock v:margins="rect(0,0,0,0)"/>
			<v:textRect cx="67.5" cy="358.313" width="135" height="3.375"/>
			<rect x="0" y="356.625" width="135" height="3.375" class="st4"/>
			<text x="0" y="360.34" class="st21" v:langID="1033"><v:paragraph/><v:tabList/>(terminal emulation)</text>		</g>
		<g id="shape52-138" v:mID="52" v:groupContext="shape" transform="translate(281.25,-15)">
			<title>Tabelle.52</title>
			<rect x="0" y="322.5" width="60.75" height="37.5" class="st22"/>
		</g>
		<g id="shape53-140" v:mID="53" v:groupContext="shape" transform="translate(345,-15)">
			<title>Tabelle.53</title>
			<rect x="0" y="322.5" width="71.25" height="37.5" class="st23"/>
		</g>
		<g id="shape54-142" v:mID="54" v:groupContext="shape" transform="translate(418.5,-15)">
			<title>Tabelle.54</title>
			<rect x="0" y="322.5" width="54.75" height="37.5" class="st6"/>
		</g>
		<g id="shape55-144" v:mID="55" v:groupContext="shape" transform="translate(477,-15)">
			<title>Tabelle.55</title>
			<rect x="0" y="322.5" width="56.25" height="37.5" class="st10"/>
		</g>
		<g id="shape56-146" v:mID="56" v:groupContext="shape" transform="translate(483,-36.75)">
			<title>Tabelle.56</title>
			<desc>security</desc>
			<v:textBlock v:margins="rect(0,0,0,0)"/>
			<v:textRect cx="36" cy="357.75" width="72" height="4.5"/>
			<rect x="0" y="355.5" width="72" height="4.5" class="st4"/>
			<text x="0" y="360.45" class="st5" v:langID="1033"><v:paragraph/><v:tabList/>security</text>		</g>
		<g id="shape57-149" v:mID="57" v:groupContext="shape" transform="translate(477,-26.25)">
			<title>Tabelle.57</title>
			<desc>components</desc>
			<v:textBlock v:margins="rect(0,0,0,0)"/>
			<v:textRect cx="45" cy="357.75" width="90" height="4.5"/>
			<rect x="0" y="355.5" width="90" height="4.5" class="st4"/>
			<text x="0" y="360.45" class="st5" v:langID="1033"><v:paragraph/><v:tabList/>components</text>		</g>
		<g id="shape58-152" v:mID="58" v:groupContext="shape" transform="translate(346.5,-36.75)">
			<title>Tabelle.58</title>
			<desc>interoperability</desc>
			<v:textBlock v:margins="rect(0,0,0,0)"/>
			<v:textRect cx="72" cy="357.75" width="144" height="4.5"/>
			<rect x="0" y="355.5" width="144" height="4.5" class="st4"/>
			<text x="0" y="360.45" class="st5" v:langID="1033"><v:paragraph/><v:tabList/>interoperability</text>		</g>
		<g id="shape59-155" v:mID="59" v:groupContext="shape" transform="translate(348.75,-26.25)">
			<title>Tabelle.59</title>
			<desc>components</desc>
			<v:textBlock v:margins="rect(0,0,0,0)"/>
			<v:textRect cx="45" cy="357.75" width="90" height="4.5"/>
			<rect x="0" y="355.5" width="90" height="4.5" class="st4"/>
			<text x="0" y="360.45" class="st5" v:langID="1033"><v:paragraph/><v:tabList/>components</text>		</g>
		<g id="shape60-158" v:mID="60" v:groupContext="shape" transform="translate(426.75,-36.75)">
			<title>Tabelle.60</title>
			<desc>&#34;base&#34;</desc>
			<v:textBlock v:margins="rect(0,0,0,0)"/>
			<v:textRect cx="27" cy="357.75" width="54" height="4.5"/>
			<rect x="0" y="355.5" width="54" height="4.5" class="st4"/>
			<text x="0" y="360.45" class="st5" v:langID="1033"><v:paragraph/><v:tabList/>&#34;base&#34;</text>		</g>
		<g id="shape61-161" v:mID="61" v:groupContext="shape" transform="translate(417.75,-25.5)">
			<title>Tabelle.61</title>
			<desc>components</desc>
			<v:textBlock v:margins="rect(0,0,0,0)"/>
			<v:textRect cx="45" cy="357.75" width="90" height="4.5"/>
			<rect x="0" y="355.5" width="90" height="4.5" class="st4"/>
			<text x="0" y="360.45" class="st5" v:langID="1033"><v:paragraph/><v:tabList/>components</text>		</g>
		<g id="shape62-164" v:mID="62" v:groupContext="shape" transform="translate(234.75,-148.5)">
			<title>Tabelle.62</title>
			<rect x="0" y="318.75" width="61.5" height="41.25" class="st11"/>
		</g>
		<g id="shape63-166" v:mID="63" v:groupContext="shape" transform="translate(238.5,-177)">
			<title>Tabelle.63</title>
			<desc>Multimedia &#38;</desc>
			<v:textBlock v:margins="rect(0,0,0,0)"/>
			<v:textRect cx="49.5" cy="357.938" width="99" height="4.125"/>
			<rect x="0" y="355.875" width="99" height="4.125" class="st4"/>
			<text x="0" y="360.41" class="st20" v:langID="1033"><v:paragraph/><v:tabList/>Multimedia &#38;</text>		</g>
		<g id="shape64-169" v:mID="64" v:groupContext="shape" transform="translate(239.25,-167.25)">
			<title>Tabelle.64</title>
			<desc>presentation</desc>
			<v:textBlock v:margins="rect(0,0,0,0)"/>
			<v:textRect cx="49.5" cy="357.938" width="99" height="4.125"/>
			<rect x="0" y="355.875" width="99" height="4.125" class="st4"/>
			<text x="0" y="360.41" class="st20" v:langID="1033"><v:paragraph/><v:tabList/>presentation</text>		</g>
		<g id="shape65-172" v:mID="65" v:groupContext="shape" transform="translate(246.75,-158.25)">
			<title>Tabelle.65</title>
			<desc>services.</desc>
			<v:textBlock v:margins="rect(0,0,0,0)"/>
			<v:textRect cx="37.125" cy="357.938" width="74.25" height="4.125"/>
			<rect x="0" y="355.875" width="74.25" height="4.125" class="st4"/>
			<text x="0" y="360.41" class="st20" v:langID="1033"><v:paragraph/><v:tabList/>services.</text>		</g>
		<g id="shape66-175" v:mID="66" v:groupContext="shape" transform="translate(385.5,-199.5)">
			<title>Tabelle.66</title>
			<rect x="0" y="318" width="40.5" height="42" class="st10"/>
		</g>
		<g id="shape67-177" v:mID="67" v:groupContext="shape" transform="translate(393.75,-227.25)">
			<title>Tabelle.67</title>
			<desc>Distr.</desc>
			<v:textBlock v:margins="rect(0,0,0,0)"/>
			<v:textRect cx="27" cy="357.75" width="54" height="4.5"/>
			<rect x="0" y="355.5" width="54" height="4.5" class="st4"/>
			<text x="0" y="360.45" class="st5" v:langID="1033"><v:paragraph/><v:tabList/>Distr.</text>		</g>
		<g id="shape68-180" v:mID="68" v:groupContext="shape" transform="translate(387,-217.5)">
			<title>Tabelle.68</title>
			<desc>Authenti</desc>
			<v:textBlock v:margins="rect(0,0,0,0)"/>
			<v:textRect cx="36" cy="357.75" width="72" height="4.5"/>
			<rect x="0" y="355.5" width="72" height="4.5" class="st4"/>
			<text x="0" y="360.45" class="st5" v:langID="1033"><v:paragraph/><v:tabList/>Authenti</text>		</g>
		<g id="shape69-183" v:mID="69" v:groupContext="shape" transform="translate(390,-207.75)">
			<title>Tabelle.69</title>
			<desc>-cation</desc>
			<v:textBlock v:margins="rect(0,0,0,0)"/>
			<v:textRect cx="31.5" cy="357.75" width="63" height="4.5"/>
			<rect x="0" y="355.5" width="63" height="4.5" class="st4"/>
			<text x="0" y="360.45" class="st5" v:langID="1033"><v:paragraph/><v:tabList/>-cation</text>		</g>
		<g id="shape70-186" v:mID="70" v:groupContext="shape" transform="translate(165,-148.5)">
			<title>Tabelle.70</title>
			<path d="M0 360 L66 360 L66 318.75 L0 318.75 L0 360 Z" class="st7"/>
		</g>
		<g id="shape71-188" v:mID="71" v:groupContext="shape" transform="translate(166.5,-171.75)">
			<title>Tabelle.71</title>
			<desc>Virtual Machine</desc>
			<v:textBlock v:margins="rect(0,0,0,0)"/>
			<v:textRect cx="61.875" cy="357.938" width="123.75" height="4.125"/>
			<rect x="0" y="355.875" width="123.75" height="4.125" class="st4"/>
			<text x="0" y="360.41" class="st20" v:langID="1033"><v:paragraph/><v:tabList/>Virtual Machine</text>		</g>
		<g id="shape72-191" v:mID="72" v:groupContext="shape" transform="translate(178.5,-162.75)">
			<title>Tabelle.72</title>
			<desc>Services.</desc>
			<v:textBlock v:margins="rect(0,0,0,0)"/>
			<v:textRect cx="37.125" cy="357.938" width="74.25" height="4.125"/>
			<rect x="0" y="355.875" width="74.25" height="4.125" class="st4"/>
			<text x="0" y="360.41" class="st20" v:langID="1033"><v:paragraph/><v:tabList/>Services.</text>		</g>
		<g id="shape73-194" v:mID="73" v:groupContext="shape" transform="translate(282,-36.75)">
			<title>Tabelle.73</title>
			<desc>management</desc>
			<v:textBlock v:margins="rect(0,0,0,0)"/>
			<v:textRect cx="45" cy="357.75" width="90" height="4.5"/>
			<rect x="0" y="355.5" width="90" height="4.5" class="st4"/>
			<text x="0" y="360.45" class="st5" v:langID="1033"><v:paragraph/><v:tabList/>management</text>		</g>
		<g id="shape74-197" v:mID="74" v:groupContext="shape" transform="translate(282,-26.25)">
			<title>Tabelle.74</title>
			<desc>components</desc>
			<v:textBlock v:margins="rect(0,0,0,0)"/>
			<v:textRect cx="45" cy="357.75" width="90" height="4.5"/>
			<rect x="0" y="355.5" width="90" height="4.5" class="st4"/>
			<text x="0" y="360.45" class="st5" v:langID="1033"><v:paragraph/><v:tabList/>components</text>		</g>
	</g>
</svg>
