<?xml version="1.0" encoding="UTF-8" standalone="no"?>
<!DOCTYPE svg PUBLIC "-//W3C//DTD SVG 1.0//EN" "http://www.w3.org/TR/2001/REC-SVG-20010904/DTD/svg10.dtd">
<!-- Generiert durch Microsoft Visio 11.0, SVG Export, v1.0 v2-fc-ds2.svg Functional Components for Document Management Server -->
<svg xmlns="http://www.w3.org/2000/svg" xmlns:v="http://schemas.microsoft.com/visio/2003/SVGExtensions/" width="7.29167in"
		height="4.375in" viewBox="0 0 525 315" xml:space="preserve" color-interpolation-filters="sRGB" class="st14">
	<v:documentProperties v:langID="1033" v:metric="true"/>

	<style type="text/css">
	<![CDATA[
		.st1 {fill:#ffff99;stroke:#fafd00;stroke-linecap:butt;stroke-width:0.75}
		.st2 {fill:#b4dafe;stroke:#000000;stroke-linecap:butt;stroke-width:0.75}
		.st3 {fill:none;stroke:none;stroke-linecap:butt;stroke-width:0.75}
		.st4 {fill:#000000;font-family:Verdana;font-size:0.625008em}
		.st5 {fill:#000000;font-family:Verdana;font-size:0.874992em}
		.st6 {fill:none;stroke:#000000;stroke-linecap:butt;stroke-width:0.75}
		.st7 {fill:#fafd00;stroke:#000000;stroke-linecap:butt;stroke-width:0.75}
		.st8 {fill:none;stroke:#000000;stroke-dasharray:3,1.5;stroke-linecap:butt;stroke-width:0.75}
		.st9 {font-size:1em}
		.st10 {fill:#ffc0c0;stroke:#000000;stroke-linecap:butt;stroke-width:0.75}
		.st11 {fill:#ffffff;stroke:#000000;stroke-linecap:butt;stroke-width:0.75}
		.st12 {fill:#e7ffff;stroke:#000000;stroke-linecap:butt;stroke-width:0.75}
		.st13 {fill:#ffff00;stroke:#000000;stroke-dasharray:3,1.5;stroke-linecap:butt;stroke-width:0.75}
		.st14 {fill:none;fill-rule:evenodd;font-size:12;overflow:visible;stroke-linecap:square;stroke-miterlimit:3}
	]]>
	</style>

	<g v:mID="0" v:index="1" v:groupContext="foregroundPage">
		<v:userDefs/>
		<title>Functional Components for Document Management Server</title>
		<v:pageProperties v:drawingScale="1" v:pageScale="1" v:drawingUnits="19" v:shadowOffsetX="9" v:shadowOffsetY="-9"/>
		<g id="shape2-1" v:mID="2" v:groupContext="shape" transform="translate(69.7501,-96.75)">
			<title>Tabelle.2</title>
			<rect x="0" y="282.75" width="424.5" height="32.25" class="st1"/>
		</g>
		<g id="shape3-3" v:mID="3" v:groupContext="shape" transform="translate(138.75,-220.5)">
			<title>Tabelle.3</title>
			<rect x="0" y="281.25" width="34.5" height="33.75" class="st2"/>
		</g>
		<g id="shape4-5" v:mID="4" v:groupContext="shape" transform="translate(174.75,-220.5)">
			<title>Tabelle.4</title>
			<rect x="0" y="281.25" width="34.5" height="33.75" class="st2"/>
		</g>
		<g id="shape5-7" v:mID="5" v:groupContext="shape" transform="translate(211.5,-220.5)">
			<title>Tabelle.5</title>
			<rect x="0" y="281.25" width="31.5" height="33.75" class="st2"/>
		</g>
		<g id="shape6-9" v:mID="6" v:groupContext="shape" transform="translate(18.7501,-249.75)">
			<title>Tabelle.6</title>
			<desc>Common</desc>
			<v:userDefs/>
			<v:textBlock v:margins="rect(0,0,0,0)"/>
			<v:textRect cx="22.4999" cy="313.125" width="45" height="3.75"/>
			<rect x="0" y="311.25" width="45" height="3.75" class="st3"/>
			<text x="-0" y="315.37" class="st4" v:langID="1033"><v:paragraph/><v:tabList/>Common</text>		</g>
		<g id="shape7-12" v:mID="7" v:groupContext="shape" transform="translate(18.7501,-241.5)">
			<title>Tabelle.7</title>
			<desc>support</desc>
			<v:userDefs/>
			<v:textBlock v:margins="rect(0,0,0,0)"/>
			<v:textRect cx="26.2499" cy="313.125" width="52.5" height="3.75"/>
			<rect x="0" y="311.25" width="52.5" height="3.75" class="st3"/>
			<text x="-0" y="315.37" class="st4" v:langID="1033"><v:paragraph/><v:tabList/>support</text>		</g>
		<g id="shape8-15" v:mID="8" v:groupContext="shape" transform="translate(18.7501,-230.25)">
			<title>Tabelle.8</title>
			<desc>application</desc>
			<v:userDefs/>
			<v:textBlock v:margins="rect(0,0,0,0)"/>
			<v:textRect cx="41.2499" cy="313.125" width="82.51" height="3.75"/>
			<rect x="0" y="311.25" width="82.5" height="3.75" class="st3"/>
			<text x="-0.01" y="315.37" class="st4" v:langID="1033"><v:paragraph/><v:tabList/>application</text>		</g>
		<g id="shape9-18" v:mID="9" v:groupContext="shape" transform="translate(18.7501,-219.75)">
			<title>Tabelle.9</title>
			<desc>services</desc>
			<v:userDefs/>
			<v:textBlock v:margins="rect(0,0,0,0)"/>
			<v:textRect cx="29.9999" cy="313.125" width="60" height="3.75"/>
			<rect x="0" y="311.25" width="60" height="3.75" class="st3"/>
			<text x="-0" y="315.37" class="st4" v:langID="1033"><v:paragraph/><v:tabList/>services</text>		</g>
		<g id="shape10-21" v:mID="10" v:groupContext="shape" transform="translate(18.7501,-148.5)">
			<title>Tabelle.10</title>
			<desc>Kernel</desc>
			<v:userDefs/>
			<v:textBlock v:margins="rect(0,0,0,0)"/>
			<v:textRect cx="22.4999" cy="313.125" width="45" height="3.75"/>
			<rect x="0" y="311.25" width="45" height="3.75" class="st3"/>
			<text x="-0" y="315.37" class="st4" v:langID="1033"><v:paragraph/><v:tabList/>Kernel</text>		</g>
		<g id="shape11-24" v:mID="11" v:groupContext="shape" transform="translate(18.7501,-137.25)">
			<title>Tabelle.11</title>
			<desc>services</desc>
			<v:userDefs/>
			<v:textBlock v:margins="rect(0,0,0,0)"/>
			<v:textRect cx="29.9999" cy="313.125" width="60" height="3.75"/>
			<rect x="0" y="311.25" width="60" height="3.75" class="st3"/>
			<text x="-0" y="315.37" class="st4" v:langID="1033"><v:paragraph/><v:tabList/>services</text>		</g>
		<g id="shape12-27" v:mID="12" v:groupContext="shape" transform="translate(18.7501,-112.5)">
			<title>Tabelle.12</title>
			<desc>Network</desc>
			<v:userDefs/>
			<v:textBlock v:margins="rect(0,0,0,0)"/>
			<v:textRect cx="26.2499" cy="313.125" width="52.5" height="3.75"/>
			<rect x="0" y="311.25" width="52.5" height="3.75" class="st3"/>
			<text x="-0" y="315.37" class="st4" v:langID="1033"><v:paragraph/><v:tabList/>Network</text>		</g>
		<g id="shape13-30" v:mID="13" v:groupContext="shape" transform="translate(18.7501,-102)">
			<title>Tabelle.13</title>
			<desc>services</desc>
			<v:userDefs/>
			<v:textBlock v:margins="rect(0,0,0,0)"/>
			<v:textRect cx="29.9999" cy="313.125" width="60" height="3.75"/>
			<rect x="0" y="311.25" width="60" height="3.75" class="st3"/>
			<text x="-0" y="315.37" class="st4" v:langID="1033"><v:paragraph/><v:tabList/>services</text>		</g>
		<g id="shape16-33" v:mID="16" v:groupContext="shape" transform="translate(72,-189)">
			<title>Tabelle.16</title>
			<desc>Managt</desc>
			<v:userDefs/>
			<v:textBlock v:margins="rect(0,0,0,0)"/>
			<v:textRect cx="22.4999" cy="313.125" width="45" height="3.75"/>
			<rect x="0" y="311.25" width="45" height="3.75" class="st3"/>
			<text x="-0" y="315.37" class="st4" v:langID="1031"><v:paragraph/><v:tabList/>Agent</text>		</g>
		<g id="shape17-36" v:mID="17" v:groupContext="shape" transform="translate(494.25,-229.5)">
			<title>Tabelle.17</title>
			<desc>.</desc>
			<v:userDefs/>
			<v:textBlock v:margins="rect(0,0,0,0)"/>
			<v:textRect cx="3.74988" cy="313.125" width="7.51" height="3.75"/>
			<rect x="0" y="311.25" width="7.5" height="3.75" class="st3"/>
			<text x="-0.01" y="315.37" class="st4" v:langID="1033"><v:paragraph/><v:tabList/>.</text>		</g>
		<g id="shape18-39" v:mID="18" v:groupContext="shape" transform="translate(18.7501,-204)">
			<title>Tabelle.18</title>
			<desc>Infra-</desc>
			<v:userDefs/>
			<v:textBlock v:margins="rect(0,0,0,0)"/>
			<v:textRect cx="22.4999" cy="313.125" width="45" height="3.75"/>
			<rect x="0" y="311.25" width="45" height="3.75" class="st3"/>
			<text x="-0" y="315.37" class="st4" v:langID="1033"><v:paragraph/><v:tabList/>Infra-</text>		</g>
		<g id="shape19-42" v:mID="19" v:groupContext="shape" transform="translate(18.7501,-192.75)">
			<title>Tabelle.19</title>
			<desc>structure</desc>
			<v:userDefs/>
			<v:textBlock v:margins="rect(0,0,0,0)"/>
			<v:textRect cx="33.7499" cy="313.125" width="67.5" height="3.75"/>
			<rect x="0" y="311.25" width="67.5" height="3.75" class="st3"/>
			<text x="-0" y="315.37" class="st4" v:langID="1033"><v:paragraph/><v:tabList/>structure</text>		</g>
		<g id="shape20-45" v:mID="20" v:groupContext="shape" transform="translate(18.0001,-182.25)">
			<title>Tabelle.20</title>
			<desc>services</desc>
			<v:userDefs/>
			<v:textBlock v:margins="rect(0,0,0,0)"/>
			<v:textRect cx="29.9999" cy="313.125" width="60" height="3.75"/>
			<rect x="0" y="311.25" width="60" height="3.75" class="st3"/>
			<text x="-0" y="315.37" class="st4" v:langID="1033"><v:paragraph/><v:tabList/>services</text>		</g>
		<g id="shape21-48" v:mID="21" v:groupContext="shape" transform="translate(18.0001,-292.5)">
			<title>Tabelle.21</title>
			<desc>Specific</desc>
			<v:userDefs/>
			<v:textBlock v:margins="rect(0,0,0,0)"/>
			<v:textRect cx="29.9999" cy="313.125" width="60" height="3.75"/>
			<rect x="0" y="311.25" width="60" height="3.75" class="st3"/>
			<text x="-0" y="315.37" class="st4" v:langID="1033"><v:paragraph/><v:tabList/>Specific</text>		</g>
		<g id="shape22-51" v:mID="22" v:groupContext="shape" transform="translate(18.7501,-281.25)">
			<title>Tabelle.22</title>
			<desc>mission</desc>
			<v:userDefs/>
			<v:textBlock v:margins="rect(0,0,0,0)"/>
			<v:textRect cx="26.2499" cy="313.125" width="52.5" height="3.75"/>
			<rect x="0" y="311.25" width="52.5" height="3.75" class="st3"/>
			<text x="-0" y="315.37" class="st4" v:langID="1033"><v:paragraph/><v:tabList/>mission</text>		</g>
		<g id="shape23-54" v:mID="23" v:groupContext="shape" transform="translate(18.0001,-270.75)">
			<title>Tabelle.23</title>
			<desc>applications</desc>
			<v:userDefs/>
			<v:textBlock v:margins="rect(0,0,0,0)"/>
			<v:textRect cx="44.9999" cy="313.125" width="90" height="3.75"/>
			<rect x="0" y="311.25" width="90" height="3.75" class="st3"/>
			<text x="-0" y="315.37" class="st4" v:langID="1033"><v:paragraph/><v:tabList/>applications</text>		</g>
		<g id="shape24-57" v:mID="24" v:groupContext="shape" transform="translate(16.5001,-66)">
			<title>Tabelle.24</title>
			<desc>Legend:</desc>
			<v:userDefs/>
			<v:textBlock v:margins="rect(0,0,0,0)"/>
			<v:textRect cx="36.7499" cy="312.375" width="73.51" height="5.25"/>
			<rect x="0" y="309.75" width="73.5" height="5.25" class="st3"/>
			<text x="-0" y="315.52" class="st5" v:langID="1033"><v:paragraph/><v:tabList/>Legend:</text>		</g>
		<g id="shape25-60" v:mID="25" v:groupContext="shape" transform="translate(111.75,-63.75)">
			<title>Tabelle.25</title>
			<desc>optional</desc>
			<v:userDefs/>
			<v:textBlock v:margins="rect(0,0,0,0)"/>
			<v:textRect cx="29.9999" cy="313.125" width="60" height="3.75"/>
			<rect x="0" y="311.25" width="60" height="3.75" class="st3"/>
			<text x="-0" y="315.37" class="st4" v:langID="1033"><v:paragraph/><v:tabList/>optional</text>		</g>
		<g id="shape26-63" v:mID="26" v:groupContext="shape" transform="translate(59.2501,-46.5)">
			<title>Tabelle.26</title>
			<rect x="0" y="277.5" width="44.25" height="37.5" class="st6"/>
		</g>
		<g id="shape27-65" v:mID="27" v:groupContext="shape" transform="translate(64.5001,-64.5)">
			<title>Tabelle.27</title>
			<desc>required</desc>
			<v:userDefs/>
			<v:textBlock v:margins="rect(0,0,0,0)"/>
			<v:textRect cx="29.9999" cy="313.125" width="60" height="3.75"/>
			<rect x="0" y="311.25" width="60" height="3.75" class="st3"/>
			<text x="-0" y="315.37" class="st4" v:langID="1033"><v:paragraph/><v:tabList/>required</text>		</g>
		<g id="shape28-68" v:mID="28" v:groupContext="shape" transform="translate(213.75,-45.75)">
			<title>Tabelle.28</title>
			<rect x="0" y="278.25" width="53.25" height="36.75" class="st7"/>
		</g>
		<g id="shape29-70" v:mID="29" v:groupContext="shape" transform="translate(65.2501,-91.5)">
			<title>Tabelle.29</title>
			<path d="M0 315 L435 315 L435 107.25 L0 107.25 L0 315 Z" class="st8"/>
		</g>
		<g id="shape30-72" v:mID="30" v:groupContext="shape" transform="translate(106.5,-46.5)">
			<title>Tabelle.30</title>
			<path d="M0 315 L39 315 L39 277.5 L0 277.5 L0 315 Z" class="st8"/>
		</g>
		<g id="shape32-74" v:mID="32" v:groupContext="shape" transform="translate(144,-234.75)">
			<title>Tabelle.32</title>
			<desc>access</desc>
			<v:userDefs/>
			<v:textBlock v:margins="rect(0,0,0,0)"/>
			<v:textRect cx="22.4999" cy="313.125" width="45" height="3.75"/>
			<rect x="0" y="311.25" width="45" height="3.75" class="st3"/>
			<text x="-0" y="315.37" class="st4" v:langID="1031"><v:paragraph/><v:tabList/>DSA</text>		</g>
		<g id="shape35-77" v:mID="35" v:groupContext="shape" transform="translate(177,-239.25)">
			<title>Tabelle.35</title>
			<desc>borative</desc>
			<v:userDefs/>
			<v:textBlock v:margins="rect(0,0,0,0)"/>
			<v:textRect cx="29.9999" cy="313.125" width="60" height="3.75"/>
			<rect x="0" y="311.25" width="60" height="3.75" class="st3"/>
			<text x="-0" y="315.37" class="st4" v:langID="1031"><v:paragraph/><v:tabList/>Meta-</text>		</g>
		<g id="shape36-80" v:mID="36" v:groupContext="shape" transform="translate(177,-230.25)">
			<title>Tabelle.36</title>
			<desc>services</desc>
			<v:userDefs/>
			<v:textBlock v:margins="rect(0,0,0,0)"/>
			<v:textRect cx="29.9999" cy="313.125" width="60" height="3.75"/>
			<rect x="0" y="311.25" width="60" height="3.75" class="st3"/>
			<text x="-0" y="315.37" class="st4" v:langID="1031"><v:paragraph/><v:tabList/>directory</text>		</g>
		<g id="shape37-83" v:mID="37" v:groupContext="shape" transform="translate(216.75,-240)">
			<title>Tabelle.37</title>
			<desc>WEB</desc>
			<v:userDefs/>
			<v:textBlock v:margins="rect(0,0,0,0)"/>
			<v:textRect cx="11.2499" cy="313.125" width="22.5" height="3.75"/>
			<rect x="0" y="311.25" width="22.5" height="3.75" class="st3"/>
			<text x="-0" y="315.37" class="st4" v:langID="1033"><v:paragraph/><v:tabList/>W<tspan class="st9" v:langID="1031">eb</tspan></text>		</g>
		<g id="shape38-87" v:mID="38" v:groupContext="shape" transform="translate(211.5,-229.5)">
			<title>Tabelle.38</title>
			<desc>browser</desc>
			<v:userDefs/>
			<v:textBlock v:margins="rect(0,0,0,0)"/>
			<v:textRect cx="26.2499" cy="313.125" width="52.5" height="3.75"/>
			<rect x="0" y="311.25" width="52.5" height="3.75" class="st3"/>
			<text x="-0" y="315.37" class="st4" v:langID="1033"><v:paragraph/><v:tabList/>browser</text>		</g>
		<g id="shape42-90" v:mID="42" v:groupContext="shape" transform="translate(463.5,-220.5)">
			<title>Tabelle.42</title>
			<rect x="0" y="281.25" width="31.5" height="33.75" class="st10"/>
		</g>
		<g id="shape52-92" v:mID="52" v:groupContext="shape" transform="translate(469.5,-240)">
			<title>Tabelle.52</title>
			<desc>Distr.</desc>
			<v:userDefs/>
			<v:textBlock v:margins="rect(0,0,0,0)"/>
			<v:textRect cx="22.4999" cy="313.125" width="45" height="3.75"/>
			<rect x="0" y="311.25" width="45" height="3.75" class="st3"/>
			<text x="-0" y="315.37" class="st4" v:langID="1033"><v:paragraph/><v:tabList/>Distr.</text>		</g>
		<g id="shape53-95" v:mID="53" v:groupContext="shape" transform="translate(465.75,-229.5)">
			<title>Tabelle.53</title>
			<desc>authent</desc>
			<v:userDefs/>
			<v:textBlock v:margins="rect(0,0,0,0)"/>
			<v:textRect cx="26.2499" cy="313.125" width="52.52" height="3.75"/>
			<rect x="0" y="311.25" width="52.5" height="3.75" class="st3"/>
			<text x="-0.01" y="315.37" class="st4" v:langID="1033"><v:paragraph/><v:tabList/>authent</text>		</g>
		<g id="shape54-98" v:mID="54" v:groupContext="shape" transform="translate(69.0001,-178.5)">
			<title>Tabelle.54</title>
			<rect x="0" y="279" width="31.5" height="36" class="st6"/>
		</g>
		<g id="shape56-100" v:mID="56" v:groupContext="shape" transform="translate(186,-178.5)">
			<title>Tabelle.56</title>
			<rect x="0" y="279" width="49.5" height="36" class="st2"/>
		</g>
		<g id="shape57-102" v:mID="57" v:groupContext="shape" transform="translate(237,-178.5)">
			<title>Tabelle.57</title>
			<rect x="0" y="279" width="37.5" height="36" class="st2"/>
		</g>
		<g id="shape60-104" v:mID="60" v:groupContext="shape" transform="translate(391.5,-178.5)">
			<title>Tabelle.60</title>
			<rect x="0" y="279" width="37.5" height="36" class="st10"/>
		</g>
		<g id="shape61-106" v:mID="61" v:groupContext="shape" transform="translate(462,-178.5)">
			<title>Tabelle.61</title>
			<rect x="0" y="279" width="33" height="36" class="st10"/>
		</g>
		<g id="shape63-108" v:mID="63" v:groupContext="shape" transform="translate(189,-187.125)">
			<title>Tabelle.63</title>
			<desc>middleware</desc>
			<v:userDefs/>
			<v:textBlock v:margins="rect(0,0,0,0)"/>
			<v:textRect cx="37.4999" cy="313.125" width="75.01" height="3.75"/>
			<rect x="0" y="311.25" width="75" height="3.75" class="st3"/>
			<text x="-0.01" y="315.37" class="st4" v:langID="1033"><v:paragraph/><v:tabList/>middleware</text>		</g>
		<g id="shape65-111" v:mID="65" v:groupContext="shape" transform="translate(238.5,-198.75)">
			<title>Tabelle.65</title>
			<desc>COMMS</desc>
			<v:userDefs/>
			<v:textBlock v:margins="rect(0,0,0,0)"/>
			<v:textRect cx="18.7499" cy="313.125" width="37.5" height="3.75"/>
			<rect x="0" y="311.25" width="37.5" height="3.75" class="st3"/>
			<text x="-0" y="315.37" class="st4" v:langID="1033"><v:paragraph/><v:tabList/>COMMS</text>		</g>
		<g id="shape66-114" v:mID="66" v:groupContext="shape" transform="translate(241.5,-188.25)">
			<title>Tabelle.66</title>
			<desc>services</desc>
			<v:userDefs/>
			<v:textBlock v:margins="rect(0,0,0,0)"/>
			<v:textRect cx="29.9999" cy="313.125" width="60.02" height="3.75"/>
			<rect x="0" y="311.25" width="60" height="3.75" class="st3"/>
			<text x="-0.01" y="315.37" class="st4" v:langID="1033"><v:paragraph/><v:tabList/>services</text>		</g>
		<g id="shape70-117" v:mID="70" v:groupContext="shape" transform="translate(400.5,-198.75)">
			<title>Tabelle.70</title>
			<desc>SEC.</desc>
			<v:userDefs/>
			<v:textBlock v:margins="rect(0,0,0,0)"/>
			<v:textRect cx="14.9999" cy="313.125" width="30.01" height="3.75"/>
			<rect x="0" y="311.25" width="30" height="3.75" class="st3"/>
			<text x="-0.01" y="315.37" class="st4" v:langID="1033"><v:paragraph/><v:tabList/>SEC.</text>		</g>
		<g id="shape71-120" v:mID="71" v:groupContext="shape" transform="translate(393.75,-188.25)">
			<title>Tabelle.71</title>
			<desc>protocols</desc>
			<v:userDefs/>
			<v:textBlock v:margins="rect(0,0,0,0)"/>
			<v:textRect cx="33.7499" cy="313.125" width="67.5" height="3.75"/>
			<rect x="0" y="311.25" width="67.5" height="3.75" class="st3"/>
			<text x="-0" y="315.37" class="st4" v:langID="1033"><v:paragraph/><v:tabList/>protocols</text>		</g>
		<g id="shape72-123" v:mID="72" v:groupContext="shape" transform="translate(468.75,-198.75)">
			<title>Tabelle.72</title>
			<desc>Virus</desc>
			<v:userDefs/>
			<v:textBlock v:margins="rect(0,0,0,0)"/>
			<v:textRect cx="18.7499" cy="313.125" width="37.5" height="3.75"/>
			<rect x="0" y="311.25" width="37.5" height="3.75" class="st3"/>
			<text x="-0" y="315.37" class="st4" v:langID="1033"><v:paragraph/><v:tabList/>Virus</text>		</g>
		<g id="shape73-126" v:mID="73" v:groupContext="shape" transform="translate(464.25,-188.25)">
			<title>Tabelle.73</title>
			<desc>checker</desc>
			<v:userDefs/>
			<v:textBlock v:margins="rect(0,0,0,0)"/>
			<v:textRect cx="26.2499" cy="313.125" width="52.52" height="3.75"/>
			<rect x="0" y="311.25" width="52.5" height="3.75" class="st3"/>
			<text x="-0.01" y="315.37" class="st4" v:langID="1033"><v:paragraph/><v:tabList/>checker</text>		</g>
		<g id="shape76-129" v:mID="76" v:groupContext="shape" transform="translate(70.5001,-134.25)">
			<title>Tabelle.76</title>
			<rect x="0" y="280.5" width="67.5" height="34.5" class="st11"/>
		</g>
		<g id="shape77-131" v:mID="77" v:groupContext="shape" transform="translate(141,-134.25)">
			<title>Tabelle.77</title>
			<rect x="0" y="280.5" width="133.5" height="34.5" class="st12"/>
		</g>
		<g id="shape78-133" v:mID="78" v:groupContext="shape" transform="translate(277.5,-134.25)">
			<title>Tabelle.78</title>
			<rect x="0" y="280.5" width="67.5" height="34.5" class="st12"/>
		</g>
		<g id="shape79-135" v:mID="79" v:groupContext="shape" transform="translate(391.5,-134.25)">
			<title>Tabelle.79</title>
			<rect x="0" y="280.5" width="51" height="34.5" class="st10"/>
		</g>
		<g id="shape80-137" v:mID="80" v:groupContext="shape" transform="translate(445.5,-134.25)">
			<title>Tabelle.80</title>
			<rect x="0" y="280.5" width="46.5" height="34.5" class="st10"/>
		</g>
		<g id="shape81-139" v:mID="81" v:groupContext="shape" transform="translate(77.2501,-160.5)">
			<title>Tabelle.81</title>
			<desc>Configuration</desc>
			<v:userDefs/>
			<v:textBlock v:margins="rect(0,0,0,0)"/>
			<v:textRect cx="48.7499" cy="313.125" width="97.52" height="3.75"/>
			<rect x="0" y="311.25" width="97.5" height="3.75" class="st3"/>
			<text x="-0.01" y="315.37" class="st4" v:langID="1033"><v:paragraph/><v:tabList/>Configuration</text>		</g>
		<g id="shape82-142" v:mID="82" v:groupContext="shape" transform="translate(73.5001,-150)">
			<title>Tabelle.82</title>
			<desc>control/remote</desc>
			<v:userDefs/>
			<v:textBlock v:margins="rect(0,0,0,0)"/>
			<v:textRect cx="52.4999" cy="313.125" width="105" height="3.75"/>
			<rect x="0" y="311.25" width="105" height="3.75" class="st3"/>
			<text x="-0" y="315.37" class="st4" v:langID="1033"><v:paragraph/><v:tabList/>control/remote</text>		</g>
		<g id="shape83-145" v:mID="83" v:groupContext="shape" transform="translate(83.2501,-139.5)">
			<title>Tabelle.83</title>
			<desc>installation</desc>
			<v:userDefs/>
			<v:textBlock v:margins="rect(0,0,0,0)"/>
			<v:textRect cx="44.9999" cy="313.125" width="90" height="3.75"/>
			<rect x="0" y="311.25" width="90" height="3.75" class="st3"/>
			<text x="-0" y="315.37" class="st4" v:langID="1033"><v:paragraph/><v:tabList/>installation</text>		</g>
		<g id="shape84-148" v:mID="84" v:groupContext="shape" transform="translate(146.25,-150)">
			<title>Tabelle.84</title>
			<desc>Base operating system</desc>
			<v:userDefs/>
			<v:textBlock v:margins="rect(0,0,0,0)"/>
			<v:textRect cx="110.25" cy="312.375" width="220.5" height="5.25"/>
			<rect x="0" y="309.75" width="220.5" height="5.25" class="st3"/>
			<text x="-0" y="314.62" class="st4" v:langID="1033"><v:paragraph/><v:tabList/>Base operating system</text>		</g>
		<g id="shape85-151" v:mID="85" v:groupContext="shape" transform="translate(283.5,-156)">
			<title>Tabelle.85</title>
			<desc>Windowing</desc>
			<v:userDefs/>
			<v:textBlock v:margins="rect(0,0,0,0)"/>
			<v:textRect cx="47.2499" cy="312.375" width="94.5" height="5.25"/>
			<rect x="0" y="309.75" width="94.5" height="5.25" class="st3"/>
			<text x="-0" y="314.62" class="st4" v:langID="1033"><v:paragraph/><v:tabList/>Windowing</text>		</g>
		<g id="shape86-154" v:mID="86" v:groupContext="shape" transform="translate(292.5,-143.25)">
			<title>Tabelle.86</title>
			<desc>software</desc>
			<v:userDefs/>
			<v:textBlock v:margins="rect(0,0,0,0)"/>
			<v:textRect cx="41.9999" cy="312.375" width="84.01" height="5.25"/>
			<rect x="0" y="309.75" width="84" height="5.25" class="st3"/>
			<text x="-0" y="314.62" class="st4" v:langID="1033"><v:paragraph/><v:tabList/>software</text>		</g>
		<g id="shape87-157" v:mID="87" v:groupContext="shape" transform="translate(400.5,-159.75)">
			<title>Tabelle.87</title>
			<desc>file access</desc>
			<v:userDefs/>
			<v:textBlock v:margins="rect(0,0,0,0)"/>
			<v:textRect cx="41.2499" cy="313.125" width="82.5" height="3.75"/>
			<rect x="0" y="311.25" width="82.5" height="3.75" class="st3"/>
			<text x="-0" y="315.37" class="st4" v:langID="1033"><v:paragraph/><v:tabList/>file access</text>		</g>
		<g id="shape88-160" v:mID="88" v:groupContext="shape" transform="translate(401.25,-149.25)">
			<title>Tabelle.88</title>
			<desc>control &#38;</desc>
			<v:userDefs/>
			<v:textBlock v:margins="rect(0,0,0,0)"/>
			<v:textRect cx="33.7499" cy="313.125" width="67.5" height="3.75"/>
			<rect x="0" y="311.25" width="67.5" height="3.75" class="st3"/>
			<text x="-0" y="315.37" class="st4" v:langID="1033"><v:paragraph/><v:tabList/>control &#38;</text>		</g>
		<g id="shape89-163" v:mID="89" v:groupContext="shape" transform="translate(398.25,-139.5)">
			<title>Tabelle.89</title>
			<desc>accounting</desc>
			<v:userDefs/>
			<v:textBlock v:margins="rect(0,0,0,0)"/>
			<v:textRect cx="37.4999" cy="313.125" width="75.01" height="3.75"/>
			<rect x="0" y="311.25" width="75" height="3.75" class="st3"/>
			<text x="-0" y="315.37" class="st4" v:langID="1033"><v:paragraph/><v:tabList/>accounting</text>		</g>
		<g id="shape90-166" v:mID="90" v:groupContext="shape" transform="translate(453,-156.75)">
			<title>Tabelle.90</title>
			<desc>Security</desc>
			<v:userDefs/>
			<v:textBlock v:margins="rect(0,0,0,0)"/>
			<v:textRect cx="29.9999" cy="313.125" width="60" height="3.75"/>
			<rect x="0" y="311.25" width="60" height="3.75" class="st3"/>
			<text x="-0" y="315.37" class="st4" v:langID="1033"><v:paragraph/><v:tabList/>Security</text>		</g>
		<g id="shape91-169" v:mID="91" v:groupContext="shape" transform="translate(455.25,-145.5)">
			<title>Tabelle.91</title>
			<desc>library</desc>
			<v:userDefs/>
			<v:textBlock v:margins="rect(0,0,0,0)"/>
			<v:textRect cx="26.2499" cy="313.125" width="52.52" height="3.75"/>
			<rect x="0" y="311.25" width="52.5" height="3.75" class="st3"/>
			<text x="-0.01" y="315.37" class="st4" v:langID="1033"><v:paragraph/><v:tabList/>library</text>		</g>
		<g id="shape92-172" v:mID="92" v:groupContext="shape" transform="translate(273,-46.5)">
			<title>Tabelle.92</title>
			<rect x="0" y="277.5" width="54" height="37.5" class="st6"/>
		</g>
		<g id="shape93-174" v:mID="93" v:groupContext="shape" transform="translate(331.5,-46.5)">
			<title>Tabelle.93</title>
			<rect x="0" y="277.5" width="64.5" height="37.5" class="st2"/>
		</g>
		<g id="shape94-176" v:mID="94" v:groupContext="shape" transform="translate(399,-46.5)">
			<title>Tabelle.94</title>
			<rect x="0" y="277.5" width="54" height="37.5" class="st12"/>
		</g>
		<g id="shape95-178" v:mID="95" v:groupContext="shape" transform="translate(457.5,-46.5)">
			<title>Tabelle.95</title>
			<rect x="0" y="277.5" width="51" height="37.5" class="st10"/>
		</g>
		<g id="shape96-180" v:mID="96" v:groupContext="shape" transform="translate(223.5,-69)">
			<title>Tabelle.96</title>
			<desc>network</desc>
			<v:userDefs/>
			<v:textBlock v:margins="rect(0,0,0,0)"/>
			<v:textRect cx="26.2499" cy="313.125" width="52.5" height="3.75"/>
			<rect x="0" y="311.25" width="52.5" height="3.75" class="st3"/>
			<text x="-0" y="315.37" class="st4" v:langID="1033"><v:paragraph/><v:tabList/>network</text>		</g>
		<g id="shape97-183" v:mID="97" v:groupContext="shape" transform="translate(216.75,-58.5)">
			<title>Tabelle.97</title>
			<desc>components</desc>
			<v:userDefs/>
			<v:textBlock v:margins="rect(0,0,0,0)"/>
			<v:textRect cx="37.4999" cy="313.125" width="75.01" height="3.75"/>
			<rect x="0" y="311.25" width="75" height="3.75" class="st3"/>
			<text x="-0.01" y="315.37" class="st4" v:langID="1033"><v:paragraph/><v:tabList/>components</text>		</g>
		<g id="shape98-186" v:mID="98" v:groupContext="shape" transform="translate(276,-69)">
			<title>Tabelle.98</title>
			<desc>management</desc>
			<v:userDefs/>
			<v:textBlock v:margins="rect(0,0,0,0)"/>
			<v:textRect cx="37.4999" cy="313.125" width="75.01" height="3.75"/>
			<rect x="0" y="311.25" width="75" height="3.75" class="st3"/>
			<text x="-0.01" y="315.37" class="st4" v:langID="1033"><v:paragraph/><v:tabList/>management</text>		</g>
		<g id="shape99-189" v:mID="99" v:groupContext="shape" transform="translate(276.75,-58.5)">
			<title>Tabelle.99</title>
			<desc>components</desc>
			<v:userDefs/>
			<v:textBlock v:margins="rect(0,0,0,0)"/>
			<v:textRect cx="37.4999" cy="313.125" width="75.01" height="3.75"/>
			<rect x="0" y="311.25" width="75" height="3.75" class="st3"/>
			<text x="-0" y="315.37" class="st4" v:langID="1033"><v:paragraph/><v:tabList/>components</text>		</g>
		<g id="shape100-192" v:mID="100" v:groupContext="shape" transform="translate(335.25,-69)">
			<title>Tabelle.100</title>
			<desc>interoperability</desc>
			<v:userDefs/>
			<v:textBlock v:margins="rect(0,0,0,0)"/>
			<v:textRect cx="59.9999" cy="313.125" width="120.01" height="3.75"/>
			<rect x="0" y="311.25" width="120" height="3.75" class="st3"/>
			<text x="-0" y="315.37" class="st4" v:langID="1033"><v:paragraph/><v:tabList/>interoperability</text>		</g>
		<g id="shape101-195" v:mID="101" v:groupContext="shape" transform="translate(341.25,-58.5)">
			<title>Tabelle.101</title>
			<desc>components</desc>
			<v:userDefs/>
			<v:textBlock v:margins="rect(0,0,0,0)"/>
			<v:textRect cx="37.4999" cy="313.125" width="75.01" height="3.75"/>
			<rect x="0" y="311.25" width="75" height="3.75" class="st3"/>
			<text x="-0.01" y="315.37" class="st4" v:langID="1033"><v:paragraph/><v:tabList/>components</text>		</g>
		<g id="shape102-198" v:mID="102" v:groupContext="shape" transform="translate(414,-68.25)">
			<title>Tabelle.102</title>
			<desc>&#34;base&#34;</desc>
			<v:userDefs/>
			<v:textBlock v:margins="rect(0,0,0,0)"/>
			<v:textRect cx="22.4999" cy="313.125" width="45" height="3.75"/>
			<rect x="0" y="311.25" width="45" height="3.75" class="st3"/>
			<text x="-0" y="315.37" class="st4" v:langID="1033"><v:paragraph/><v:tabList/>&#34;base&#34;</text>		</g>
		<g id="shape103-201" v:mID="103" v:groupContext="shape" transform="translate(404.25,-57.75)">
			<title>Tabelle.103</title>
			<desc>components</desc>
			<v:userDefs/>
			<v:textBlock v:margins="rect(0,0,0,0)"/>
			<v:textRect cx="37.4999" cy="313.125" width="75.01" height="3.75"/>
			<rect x="0" y="311.25" width="75" height="3.75" class="st3"/>
			<text x="-0.01" y="315.37" class="st4" v:langID="1033"><v:paragraph/><v:tabList/>components</text>		</g>
		<g id="shape104-204" v:mID="104" v:groupContext="shape" transform="translate(470.25,-69)">
			<title>Tabelle.104</title>
			<desc>security</desc>
			<v:userDefs/>
			<v:textBlock v:margins="rect(0,0,0,0)"/>
			<v:textRect cx="29.9999" cy="313.125" width="60" height="3.75"/>
			<rect x="0" y="311.25" width="60" height="3.75" class="st3"/>
			<text x="-0" y="315.37" class="st4" v:langID="1033"><v:paragraph/><v:tabList/>security</text>		</g>
		<g id="shape105-207" v:mID="105" v:groupContext="shape" transform="translate(461.25,-58.5)">
			<title>Tabelle.105</title>
			<desc>components</desc>
			<v:userDefs/>
			<v:textBlock v:margins="rect(0,0,0,0)"/>
			<v:textRect cx="37.4999" cy="313.125" width="75.01" height="3.75"/>
			<rect x="0" y="311.25" width="75" height="3.75" class="st3"/>
			<text x="-0" y="315.37" class="st4" v:langID="1033"><v:paragraph/><v:tabList/>components</text>		</g>
		<g id="shape108-210" v:mID="108" v:groupContext="shape" transform="translate(432,-178.5)">
			<title>Tabelle.108</title>
			<rect x="0" y="279" width="27" height="36" class="st10"/>
		</g>
		<g id="shape112-212" v:mID="112" v:groupContext="shape" transform="translate(437.25,-198.75)">
			<title>Tabelle.112</title>
			<desc>PKI</desc>
			<v:userDefs/>
			<v:textBlock v:margins="rect(0,0,0,0)"/>
			<v:textRect cx="11.2499" cy="313.125" width="22.5" height="3.75"/>
			<rect x="0" y="311.25" width="22.5" height="3.75" class="st3"/>
			<text x="-0" y="315.37" class="st4" v:langID="1033"><v:paragraph/><v:tabList/>PKI</text>		</g>
		<g id="shape113-215" v:mID="113" v:groupContext="shape" transform="translate(435.75,-188.25)">
			<title>Tabelle.113</title>
			<desc>client</desc>
			<v:userDefs/>
			<v:textBlock v:margins="rect(0,0,0,0)"/>
			<v:textRect cx="22.4999" cy="313.125" width="45" height="3.75"/>
			<rect x="0" y="311.25" width="45" height="3.75" class="st3"/>
			<text x="-0" y="315.37" class="st4" v:langID="1033"><v:paragraph/><v:tabList/>client</text>		</g>
		<g id="shape114-218" v:mID="114" v:groupContext="shape" transform="translate(265.5,-99)">
			<title>Tabelle.114</title>
			<path d="M0 315 L45 315 L45 285 L0 285 L0 315 Z" class="st13"/>
		</g>
		<g id="shape115-220" v:mID="115" v:groupContext="shape" transform="translate(270.75,-118.5)">
			<title>Tabelle.115</title>
			<desc>bandwidth</desc>
			<v:userDefs/>
			<v:textBlock v:margins="rect(0,0,0,0)"/>
			<v:textRect cx="15.3749" cy="313.125" width="30.76" height="3.75"/>
			<rect x="0" y="311.25" width="30.75" height="3.75" class="st3"/>
			<text x="-0" y="315.37" class="st4" v:langID="1031"><v:paragraph/><v:tabList/>IP load</text>		</g>
		<g id="shape116-223" v:mID="116" v:groupContext="shape" transform="translate(270.75,-107.25)">
			<title>Tabelle.116</title>
			<desc>reservation</desc>
			<v:userDefs/>
			<v:textBlock v:margins="rect(0,0,0,0)"/>
			<v:textRect cx="19.8749" cy="313.125" width="39.76" height="3.75"/>
			<rect x="0" y="311.25" width="39.75" height="3.75" class="st3"/>
			<text x="-0" y="315.37" class="st4" v:langID="1031"><v:paragraph/><v:tabList/>balancing</text>		</g>
		<g id="shape128-226" v:mID="128" v:groupContext="shape" transform="translate(141,-178.5)">
			<title>Tabelle.128</title>
			<path d="M0 315 L43.5 315 L43.5 279 L0 279 L0 315 Z" class="st2"/>
		</g>
		<g id="shape129-228" v:mID="129" v:groupContext="shape" transform="translate(148.5,-204)">
			<title>Tabelle.129</title>
			<desc>Object</desc>
			<v:userDefs/>
			<v:textBlock v:margins="rect(0,0,0,0)"/>
			<v:textRect cx="22.4999" cy="313.125" width="45" height="3.75"/>
			<rect x="0" y="311.25" width="45" height="3.75" class="st3"/>
			<text x="-0" y="315.37" class="st4" v:langID="1033"><v:paragraph/><v:tabList/>Object</text>		</g>
		<g id="shape130-231" v:mID="130" v:groupContext="shape" transform="translate(144,-193.5)">
			<title>Tabelle.130</title>
			<desc>library &#38;</desc>
			<v:userDefs/>
			<v:textBlock v:margins="rect(0,0,0,0)"/>
			<v:textRect cx="33.7499" cy="313.125" width="67.5" height="3.75"/>
			<rect x="0" y="311.25" width="67.5" height="3.75" class="st3"/>
			<text x="-0" y="315.37" class="st4" v:langID="1033"><v:paragraph/><v:tabList/>library &#38;</text>		</g>
		<g id="shape131-234" v:mID="131" v:groupContext="shape" transform="translate(140.25,-183)">
			<title>Tabelle.131</title>
			<desc>middleware</desc>
			<v:userDefs/>
			<v:textBlock v:margins="rect(0,0,0,0)"/>
			<v:textRect cx="37.4999" cy="313.125" width="75.01" height="3.75"/>
			<rect x="0" y="311.25" width="75" height="3.75" class="st3"/>
			<text x="-0.01" y="315.37" class="st4" v:langID="1033"><v:paragraph/><v:tabList/>middleware</text>		</g>
		<g id="shape132-237" v:mID="132" v:groupContext="shape" transform="translate(72,-198)">
			<title>Tabelle.132</title>
			<desc>Manager</desc>
			<v:userDefs/>
			<v:textBlock v:margins="rect(0,0,0,0)"/>
			<v:textRect cx="26.2499" cy="313.125" width="52.52" height="3.75"/>
			<rect x="0" y="311.25" width="52.5" height="3.75" class="st3"/>
			<text x="-0.01" y="315.37" class="st4" v:langID="1033"><v:paragraph/><v:tabList/>M<tspan class="st9" v:langID="1031">gmt</tspan></text>		</g>
		<g id="shape31-241" v:mID="31" v:groupContext="shape" transform="translate(196.5,-198)">
			<title>Tabelle.31</title>
			<desc>COMMS</desc>
			<v:userDefs/>
			<v:textBlock v:margins="rect(0,0,0,0)"/>
			<v:textRect cx="18.7499" cy="313.125" width="37.5" height="3.75"/>
			<rect x="0" y="311.25" width="37.5" height="3.75" class="st3"/>
			<text x="-0" y="315.37" class="st4" v:langID="1031"><v:paragraph/><v:tabList/>Web</text>		</g>
		<g id="shape1-244" v:mID="1" v:groupContext="shape" transform="translate(456,-94.5)">
			<title>Tabelle.1</title>
			<rect x="0" y="279" width="37.5" height="36" class="st10"/>
		</g>
		<g id="shape14-246" v:mID="14" v:groupContext="shape" transform="translate(465,-113.25)">
			<title>Tabelle.14</title>
			<desc>SEC.</desc>
			<v:userDefs/>
			<v:textBlock v:margins="rect(0,0,0,0)"/>
			<v:textRect cx="14.9999" cy="313.125" width="30.01" height="3.75"/>
			<rect x="0" y="311.25" width="30" height="3.75" class="st3"/>
			<text x="-0.01" y="315.37" class="st4" v:langID="1031"><v:paragraph/><v:tabList/>VPN</text>		</g>
	</g>
</svg>
