<?xml version="1.0" standalone="no"?>
<!DOCTYPE svg PUBLIC "-//W3C//DTD SVG 1.0//EN"
	"http://www.w3.org/TR/2001/REC-SVG-20010904/DTD/svg10.dtd">
<svg width="816" height="816">
  <title>X.400 Functional Model</title>
  <rect x="318" y="127" width="150" height="100"
     style="fill:none;stroke:rgb(0,0,0);stroke-width:1"/>
  <rect x="513" y="127" width="150" height="100"
     style="fill:none;stroke:rgb(0,0,0);stroke-width:1"/>
  <rect x="113" y="337" width="150" height="100"
     style="fill:none;stroke:rgb(0,0,0);stroke-width:1"/>
  <rect x="318" y="337" width="150" height="100"
     style="fill:none;stroke:rgb(0,0,0);stroke-width:1"/>
  <rect x="113" y="550" width="150" height="100"
     style="fill:none;stroke:rgb(0,0,0);stroke-width:1"/>
  <rect x="318" y="550" width="150" height="100"
     style="fill:none;stroke:rgb(0,0,0);stroke-width:1"/>
  <rect x="513" y="550" width="150" height="100"
     style="fill:none;stroke:rgb(0,0,0);stroke-width:1"/>
  <rect x="125.5" y="558" width="125" height="46"
     style="fill:none;stroke:rgb(0,0,0);stroke-width:1"/>
  <rect x="125.5" y="617" width="125" height="25.0991"
     style="fill:none;stroke:rgb(0,0,0);stroke-width:1"/>
  <rect x="330.5" y="617" width="125" height="24.1982"
     style="fill:none;stroke:rgb(0,0,0);stroke-width:1"/>
  <rect x="330.5" y="558" width="125" height="46"
     style="fill:none;stroke:rgb(0,0,0);stroke-width:1"/>
  <text x="128" y="171" style="fill:rgb(0,0,0);font-family:Times New Roman;font-size:14">Message Store</text>
  <text x="128" y="187" style="fill:rgb(0,0,0);font-family:Times New Roman;font-size:14">(Optional)</text>
  <text x="333" y="172" style="fill:rgb(0,0,0);font-family:Times New Roman;font-size:14">Message Transfer</text>
  <text x="333" y="185" style="fill:rgb(0,0,0);font-family:Times New Roman;font-size:14">Agent (MTA)</text>
  <text x="538" y="172" style="fill:rgb(0,0,0);font-family:Times New Roman;font-size:14">Message Transfer</text>
  <text x="538" y="185" style="fill:rgb(0,0,0);font-family:Times New Roman;font-size:14">Agent (MTA)</text>
  <text x="128" y="382" style="fill:rgb(0,0,0);font-family:Times New Roman;font-size:14">User Agent (UA)</text>
  <text x="333" y="382" style="fill:rgb(0,0,0);font-size:14;font-family:Times New Roman">Message Store (MS)</text>
  <text x="133" y="575" style="fill:rgb(0,0,0);font-size:14;font-family:Times New Roman">Private Message</text>
  <text x="133" y="587" style="fill:rgb(0,0,0);font-size:14;font-family:Times New Roman">Store</text>
  <text x="133" y="632" style="fill:rgb(0,0,0);font-size:14;font-family:Times New Roman">User Agent</text>
  <text x="338" y="575" style="fill:rgb(0,0,0);font-size:14;font-family:Times New Roman">Message Transfer</text>
  <text x="338" y="587" style="fill:rgb(0,0,0);font-size:14;font-family:Times New Roman">Agent</text>
  <text x="338" y="632" style="fill:rgb(0,0,0);font-size:14;font-family:Times New Roman">Message Store</text>
  <text x="88" y="751" style="fill:rgb(0,0,0);font-size:14;font-family:Times New Roman">Protocol typically supported:</text>
  <text x="93" y="765" style="fill:rgb(0,0,0);font-size:14;font-family:Times New Roman">- POP3</text>
  <text x="93" y="777" style="fill:rgb(0,0,0);font-size:14;font-family:Times New Roman">- proprietary</text>
  <text x="583" y="749" style="fill:rgb(0,0,0);font-size:14;font-family:Times New Roman">Protocol typically supported</text>
  <text x="588" y="765" style="fill:rgb(0,0,0);font-size:14;font-family:Times New Roman">- SMTP</text>
  <text x="588" y="781" style="fill:rgb(0,0,0);font-size:14;font-family:Times New Roman">- X.400 P1</text>
  <text x="588" y="797" style="fill:rgb(0,0,0);font-size:14;font-family:Times New Roman">- proprietary</text>
  <text x="118" y="705" style="fill:rgb(0,0,0);font-family:Times New Roman;font-size:18">Client Component</text>
  <text x="325" y="705" style="fill:rgb(0,0,0);font-family:Times New Roman;font-size:18">Server Component</text>
  <text x="523" y="700" style="fill:rgb(0,0,0);font-family:Times New Roman;font-size:18">Server Component</text>
  <text x="508" y="717" style="fill:rgb(0,0,0);font-family:Times New Roman;font-size:18">(interconnected system)</text>
  <text x="83" y="512" style="fill:rgb(0,0,0);font-size:16;font-family:Times New Roman">Typical Client/Server</text>
  <text x="83" y="527" style="fill:rgb(0,0,0);font-size:16;font-family:Times New Roman">Implementation</text>
  <line x1="469.013" y1="177" x2="511.356" y2="177"
     style="fill:none;stroke:rgb(0,0,0);stroke-width:1"/>
  <line x1="393" y1="227.888" x2="393" y2="335.996"
     style="fill:none;stroke:rgb(0,0,0);stroke-width:1"/>
  <line x1="262.707" y1="385.545" x2="315.86" y2="385.545"
     style="fill:none;stroke:rgb(0,0,0);stroke-width:1"/>
  <line x1="263.608" y1="600" x2="317.662" y2="600"
     style="fill:none;stroke:rgb(0,0,0);stroke-width:1"/>
  <line x1="470" y1="600" x2="510.455" y2="600"
     style="fill:none;stroke:rgb(0,0,0);stroke-width:1"/>
  <line x1="309.612" y1="205.239" x2="268.055" y2="332.879"
     style="fill:none;stroke:rgb(0,0,0);stroke-width:1"/>
  <polygon points="500.5,253.969 504,260.031 497,260.031"
    transform="matrix(1 0 0 1.31966 -107.278 -107.592)"
     style="fill:rgb(0,0,0);stroke:rgb(0,0,0);stroke-width:1"/>
  <polygon points="500.5,253.969 504,260.031 497,260.031"
    transform="matrix(1 0 0 -1.31966 -107.721 671.683)"
     style="fill:rgb(0,0,0);stroke:rgb(0,0,0);stroke-width:1"/>
  <polygon points="500.5,253.969 504,260.031 497,260.031"
    transform="matrix(-1.83691e-016 -1 1.31966 -2.4241e-016 -70.644 1100.68)"
     style="fill:rgb(0,0,0);stroke:rgb(0,0,0);stroke-width:1"/>
  <polygon points="500.5,253.969 504,260.031 497,260.031"
    transform="matrix(-1.83691e-016 -1 1.31966 -2.4241e-016 133.958 1100.99)"
     style="fill:rgb(0,0,0);stroke:rgb(0,0,0);stroke-width:1"/>
  <polygon points="500.5,253.969 504,260.031 497,260.031"
    transform="matrix(6.12303e-017 1 -1.31966 8.08032e-017 652.242 99.5868)"
     style="fill:rgb(0,0,0);stroke:rgb(0,0,0);stroke-width:1"/>
  <polygon points="500.5,253.969 504,260.031 497,260.031"
    transform="matrix(6.12303e-017 1 -1.31966 8.08032e-017 847.933 99.4891)"
     style="fill:rgb(0,0,0);stroke:rgb(0,0,0);stroke-width:1"/>
  <polygon points="500.5,253.969 504,260.031 497,260.031"
    transform="matrix(6.12303e-017 1 -1.31966 8.08032e-017 651.536 -114.874)"
     style="fill:rgb(0,0,0);stroke:rgb(0,0,0);stroke-width:1"/>
  <polygon points="500.5,253.969 504,260.031 497,260.031"
    transform="matrix(6.12303e-017 1 -1.31966 8.08032e-017 846.837 -323.883)"
     style="fill:rgb(0,0,0);stroke:rgb(0,0,0);stroke-width:1"/>
  <polygon points="500.5,253.969 504,260.031 497,260.031"
    transform="matrix(-1.83691e-016 -1 1.31966 -2.4241e-016 133.42 677.32)"
     style="fill:rgb(0,0,0);stroke:rgb(0,0,0);stroke-width:1"/>
  <polygon points="500.5,253.969 504,260.031 497,260.031"
    transform="matrix(-1.83691e-016 -1 1.31966 -2.4241e-016 -71.486 886.122)"
     style="fill:rgb(0,0,0);stroke:rgb(0,0,0);stroke-width:1"/>
  <polygon points="500.5,253.969 504,260.031 497,260.031"
    transform="matrix(1.06578 0.938547 -0.438688 1.30932 -109.09 -602.922)"
     style="fill:rgb(0,0,0);stroke:rgb(0,0,0);stroke-width:1"/>
  <polygon points="500.5,253.969 504,260.031 497,260.031"
    transform="matrix(-1.06578 0.938547 0.438688 1.30932 689.83 -479.741)"
     style="fill:rgb(0,0,0);stroke:rgb(0,0,0);stroke-width:1"/>
  <text x="268" y="269" style="fill:rgb(0,0,0);font-size:14;font-family:Times New Roman">P3</text>
  <text x="374" y="290" style="fill:rgb(0,0,0);font-size:14;font-family:Times New Roman">P3</text>
  <text x="280" y="381" style="fill:rgb(0,0,0);font-size:14;font-family:Times New Roman">P7</text>
  <text x="473" y="166" style="fill:rgb(0,0,0);font-size:14;font-family:Times New Roman">P1</text>
  <path d="M548.157 338.016" style="fill:none;stroke:rgb(0,0,128);stroke-width:1"/>
  <path d="M213.157 770.016 A85.4225 170.179 173.251 0,0 291.157 618.016"
     style="fill:none;stroke:rgb(0,0,0);stroke-width:1"/>
  <polygon points="500.5,253.969 504,260.031 497,260.031"
    transform="matrix(1 0 0 1.31966 -210.278 275.408)"
     style="fill:rgb(0,0,0);stroke:rgb(0,0,0);stroke-width:1"/>
  <path d="M490.157 619.016 A145.986 86.5361 -80.5377 0,0 567.157 774.016"
     style="fill:none;stroke:rgb(0,0,0);stroke-width:1"/>
  <rect x="113" y="129" width="161" height="99"
     style="stroke:rgb(0,0,128);stroke-width:1;stroke-dasharray:5 4;fill:none"
    stroke-dash-array="5 4"/>
  <polygon points="500.5,253.969 504,260.031 497,260.031"
    transform="matrix(1 0 0 1.31966 -10.4233 277.117)"
     style="fill:rgb(0,0,0);stroke:rgb(0,0,0);stroke-width:1"/>
  <line x1="492" y1="71" x2="492" y2="668"
     style="fill:none;stroke:rgb(0,0,0);stroke-width:1" stroke-dasharray="5 4"/>
  <line x1="294" y1="74" x2="294" y2="671"
     style="fill:none;stroke:rgb(0,0,0);stroke-width:1" stroke-dasharray="5 4"/>
  <line x1="184" y1="227" x2="184" y2="336"
     style="fill:none;stroke:rgb(0,0,0);stroke-width:1" stroke-dasharray="5 4"/>
  <line x1="273" y1="175" x2="319" y2="175"
     style="fill:none;stroke:rgb(0,0,0);stroke-width:1" stroke-dasharray="5 4"/>
</svg>
