<?xml version="1.0" encoding="UTF-8" standalone="no"?>
<!DOCTYPE svg PUBLIC "-//W3C//DTD SVG 1.0//EN" "http://www.w3.org/TR/2001/REC-SVG-20010904/DTD/svg10.dtd">
<!-- Generiert durch Microsoft Visio 11.0, SVG Export, v1.0 v2-fc-das2.svg Functional Components for Database Application Server -->
<svg xmlns="http://www.w3.org/2000/svg" xmlns:v="http://schemas.microsoft.com/visio/2003/SVGExtensions/" width="7.29167in"
		height="4.375in" viewBox="0 0 525 315" xml:space="preserve" color-interpolation-filters="sRGB" class="st13">
	<v:documentProperties v:langID="1033" v:metric="true"/>

	<style type="text/css">
	<![CDATA[
		.st1 {fill:none;stroke:none;stroke-linecap:butt;stroke-width:0.75}
		.st2 {fill:#000000;font-family:Verdana;font-size:0.625008em}
		.st3 {fill:#ffff99;stroke:#fafd00;stroke-linecap:butt;stroke-width:0.75}
		.st4 {fill:#000000;font-family:Verdana;font-size:0.874992em}
		.st5 {fill:none;stroke:#000000;stroke-linecap:butt;stroke-width:0.75}
		.st6 {fill:none;stroke:#000000;stroke-dasharray:3,1.5;stroke-linecap:butt;stroke-width:0.75}
		.st7 {fill:#e6a4c6;stroke:#000000;stroke-linecap:butt;stroke-width:0.75}
		.st8 {fill:#ffc0c0;stroke:#000000;stroke-linecap:butt;stroke-width:0.75}
		.st9 {fill:#e7ffff;stroke:#000000;stroke-linecap:butt;stroke-width:0.75}
		.st10 {fill:#ffff00;stroke:#000000;stroke-linecap:butt;stroke-width:0.75}
		.st11 {fill:#b4dafe;stroke:#000000;stroke-linecap:butt;stroke-width:0.75}
		.st12 {fill:#fafd00;stroke:#000000;stroke-linecap:butt;stroke-width:0.75}
		.st13 {fill:none;fill-rule:evenodd;font-size:12;overflow:visible;stroke-linecap:square;stroke-miterlimit:3}
	]]>
	</style>

	<g v:mID="0" v:index="1" v:groupContext="foregroundPage">
		<v:userDefs/>
		<title>Functional Components for Database Application Server</title>
		<v:pageProperties v:drawingScale="1" v:pageScale="1" v:drawingUnits="19" v:shadowOffsetX="9" v:shadowOffsetY="-9"/>
		<g id="shape1-1" v:mID="1" v:groupContext="shape" transform="translate(19.5001,-247.5)">
			<title>Tabelle.1</title>
			<desc>Common</desc>
			<v:userDefs/>
			<v:textBlock v:margins="rect(0,0,0,0)"/>
			<v:textRect cx="22.4999" cy="313.125" width="45" height="3.75"/>
			<rect x="0" y="311.25" width="45" height="3.75" class="st1"/>
			<text x="-0" y="315.37" class="st2" v:langID="1033"><v:paragraph/><v:tabList/>Common</text>		</g>
		<g id="shape2-4" v:mID="2" v:groupContext="shape" transform="translate(19.5001,-236.25)">
			<title>Tabelle.2</title>
			<desc>support</desc>
			<v:userDefs/>
			<v:textBlock v:margins="rect(0,0,0,0)"/>
			<v:textRect cx="26.2499" cy="313.125" width="52.52" height="3.75"/>
			<rect x="0" y="311.25" width="52.5" height="3.75" class="st1"/>
			<text x="-0.01" y="315.37" class="st2" v:langID="1033"><v:paragraph/><v:tabList/>support</text>		</g>
		<g id="shape3-7" v:mID="3" v:groupContext="shape" transform="translate(19.5001,-225.75)">
			<title>Tabelle.3</title>
			<desc>application</desc>
			<v:userDefs/>
			<v:textBlock v:margins="rect(0,0,0,0)"/>
			<v:textRect cx="41.2499" cy="313.125" width="82.5" height="3.75"/>
			<rect x="0" y="311.25" width="82.5" height="3.75" class="st1"/>
			<text x="-0" y="315.37" class="st2" v:langID="1033"><v:paragraph/><v:tabList/>application</text>		</g>
		<g id="shape4-10" v:mID="4" v:groupContext="shape" transform="translate(19.5001,-214.5)">
			<title>Tabelle.4</title>
			<desc>services</desc>
			<v:userDefs/>
			<v:textBlock v:margins="rect(0,0,0,0)"/>
			<v:textRect cx="29.9999" cy="313.125" width="60" height="3.75"/>
			<rect x="0" y="311.25" width="60" height="3.75" class="st1"/>
			<text x="-0" y="315.37" class="st2" v:langID="1033"><v:paragraph/><v:tabList/>services</text>		</g>
		<g id="shape5-13" v:mID="5" v:groupContext="shape" transform="translate(19.5001,-198)">
			<title>Tabelle.5</title>
			<desc>Infra-</desc>
			<v:userDefs/>
			<v:textBlock v:margins="rect(0,0,0,0)"/>
			<v:textRect cx="22.4999" cy="313.125" width="45" height="3.75"/>
			<rect x="0" y="311.25" width="45" height="3.75" class="st1"/>
			<text x="-0" y="315.37" class="st2" v:langID="1033"><v:paragraph/><v:tabList/>Infra-</text>		</g>
		<g id="shape6-16" v:mID="6" v:groupContext="shape" transform="translate(19.5001,-187.5)">
			<title>Tabelle.6</title>
			<desc>structure</desc>
			<v:userDefs/>
			<v:textBlock v:margins="rect(0,0,0,0)"/>
			<v:textRect cx="33.7499" cy="313.125" width="67.5" height="3.75"/>
			<rect x="0" y="311.25" width="67.5" height="3.75" class="st1"/>
			<text x="-0" y="315.37" class="st2" v:langID="1033"><v:paragraph/><v:tabList/>structure</text>		</g>
		<g id="shape7-19" v:mID="7" v:groupContext="shape" transform="translate(19.5001,-176.25)">
			<title>Tabelle.7</title>
			<desc>services</desc>
			<v:userDefs/>
			<v:textBlock v:margins="rect(0,0,0,0)"/>
			<v:textRect cx="29.9999" cy="313.125" width="60" height="3.75"/>
			<rect x="0" y="311.25" width="60" height="3.75" class="st1"/>
			<text x="-0" y="315.37" class="st2" v:langID="1033"><v:paragraph/><v:tabList/>services</text>		</g>
		<g id="shape8-22" v:mID="8" v:groupContext="shape" transform="translate(19.5001,-151.5)">
			<title>Tabelle.8</title>
			<desc>Kernel</desc>
			<v:userDefs/>
			<v:textBlock v:margins="rect(0,0,0,0)"/>
			<v:textRect cx="22.4999" cy="313.125" width="45" height="3.75"/>
			<rect x="0" y="311.25" width="45" height="3.75" class="st1"/>
			<text x="-0" y="315.37" class="st2" v:langID="1033"><v:paragraph/><v:tabList/>Kernel</text>		</g>
		<g id="shape9-25" v:mID="9" v:groupContext="shape" transform="translate(19.5001,-140.25)">
			<title>Tabelle.9</title>
			<desc>services</desc>
			<v:userDefs/>
			<v:textBlock v:margins="rect(0,0,0,0)"/>
			<v:textRect cx="29.9999" cy="313.125" width="60" height="3.75"/>
			<rect x="0" y="311.25" width="60" height="3.75" class="st1"/>
			<text x="-0" y="315.37" class="st2" v:langID="1033"><v:paragraph/><v:tabList/>services</text>		</g>
		<g id="shape10-28" v:mID="10" v:groupContext="shape" transform="translate(18.7501,-108)">
			<title>Tabelle.10</title>
			<desc>Network</desc>
			<v:userDefs/>
			<v:textBlock v:margins="rect(0,0,0,0)"/>
			<v:textRect cx="26.2499" cy="313.125" width="52.5" height="3.75"/>
			<rect x="0" y="311.25" width="52.5" height="3.75" class="st1"/>
			<text x="-0" y="315.37" class="st2" v:langID="1033"><v:paragraph/><v:tabList/>Network</text>		</g>
		<g id="shape11-31" v:mID="11" v:groupContext="shape" transform="translate(18.7501,-97.5)">
			<title>Tabelle.11</title>
			<desc>services</desc>
			<v:userDefs/>
			<v:textBlock v:margins="rect(0,0,0,0)"/>
			<v:textRect cx="29.9999" cy="313.125" width="60" height="3.75"/>
			<rect x="0" y="311.25" width="60" height="3.75" class="st1"/>
			<text x="-0" y="315.37" class="st2" v:langID="1033"><v:paragraph/><v:tabList/>services</text>		</g>
		<g id="shape12-34" v:mID="12" v:groupContext="shape" transform="translate(21.7501,-287.25)">
			<title>Tabelle.12</title>
			<desc>Specific</desc>
			<v:userDefs/>
			<v:textBlock v:margins="rect(0,0,0,0)"/>
			<v:textRect cx="29.9999" cy="313.125" width="60" height="3.75"/>
			<rect x="0" y="311.25" width="60" height="3.75" class="st1"/>
			<text x="-0" y="315.37" class="st2" v:langID="1033"><v:paragraph/><v:tabList/>Specific</text>		</g>
		<g id="shape13-37" v:mID="13" v:groupContext="shape" transform="translate(21.0001,-276.75)">
			<title>Tabelle.13</title>
			<desc>mission</desc>
			<v:userDefs/>
			<v:textBlock v:margins="rect(0,0,0,0)"/>
			<v:textRect cx="26.2499" cy="313.125" width="52.5" height="3.75"/>
			<rect x="0" y="311.25" width="52.5" height="3.75" class="st1"/>
			<text x="-0" y="315.37" class="st2" v:langID="1033"><v:paragraph/><v:tabList/>mission</text>		</g>
		<g id="shape14-40" v:mID="14" v:groupContext="shape" transform="translate(21.7501,-265.5)">
			<title>Tabelle.14</title>
			<desc>applications</desc>
			<v:userDefs/>
			<v:textBlock v:margins="rect(0,0,0,0)"/>
			<v:textRect cx="44.9999" cy="313.125" width="90" height="3.75"/>
			<rect x="0" y="311.25" width="90" height="3.75" class="st1"/>
			<text x="-0" y="315.37" class="st2" v:langID="1033"><v:paragraph/><v:tabList/>applications</text>		</g>
		<g id="shape15-43" v:mID="15" v:groupContext="shape" transform="translate(70.5001,-89.25)">
			<title>Tabelle.15</title>
			<rect x="0" y="282" width="409.5" height="33" class="st3"/>
		</g>
		<g id="shape16-45" v:mID="16" v:groupContext="shape" transform="translate(85.5001,-154.5)">
			<title>Tabelle.16</title>
			<desc>Configuration</desc>
			<v:userDefs/>
			<v:textBlock v:margins="rect(0,0,0,0)"/>
			<v:textRect cx="48.7499" cy="313.125" width="97.52" height="3.75"/>
			<rect x="0" y="311.25" width="97.5" height="3.75" class="st1"/>
			<text x="-0.01" y="315.37" class="st2" v:langID="1033"><v:paragraph/><v:tabList/>Configuration</text>		</g>
		<g id="shape17-48" v:mID="17" v:groupContext="shape" transform="translate(81.7501,-144)">
			<title>Tabelle.17</title>
			<desc>control/remote</desc>
			<v:userDefs/>
			<v:textBlock v:margins="rect(0,0,0,0)"/>
			<v:textRect cx="52.4999" cy="313.125" width="105.01" height="3.75"/>
			<rect x="0" y="311.25" width="105" height="3.75" class="st1"/>
			<text x="-0.01" y="315.37" class="st2" v:langID="1033"><v:paragraph/><v:tabList/>control/remote</text>		</g>
		<g id="shape18-51" v:mID="18" v:groupContext="shape" transform="translate(90.7501,-132.75)">
			<title>Tabelle.18</title>
			<desc>installation</desc>
			<v:userDefs/>
			<v:textBlock v:margins="rect(0,0,0,0)"/>
			<v:textRect cx="44.9999" cy="313.125" width="90" height="3.75"/>
			<rect x="0" y="311.25" width="90" height="3.75" class="st1"/>
			<text x="-0" y="315.37" class="st2" v:langID="1033"><v:paragraph/><v:tabList/>installation</text>		</g>
		<g id="shape19-54" v:mID="19" v:groupContext="shape" transform="translate(15.7501,-59.25)">
			<title>Tabelle.19</title>
			<desc>Legend:</desc>
			<v:userDefs/>
			<v:textBlock v:margins="rect(0,0,0,0)"/>
			<v:textRect cx="36.7499" cy="312.375" width="73.5" height="5.25"/>
			<rect x="0" y="309.75" width="73.5" height="5.25" class="st1"/>
			<text x="-0" y="315.52" class="st4" v:langID="1033"><v:paragraph/><v:tabList/>Legend:</text>		</g>
		<g id="shape20-57" v:mID="20" v:groupContext="shape" transform="translate(112.5,-57)">
			<title>Tabelle.20</title>
			<desc>optional</desc>
			<v:userDefs/>
			<v:textBlock v:margins="rect(0,0,0,0)"/>
			<v:textRect cx="29.9999" cy="313.125" width="60" height="3.75"/>
			<rect x="0" y="311.25" width="60" height="3.75" class="st1"/>
			<text x="-0" y="315.37" class="st2" v:langID="1033"><v:paragraph/><v:tabList/>optional</text>		</g>
		<g id="shape21-60" v:mID="21" v:groupContext="shape" transform="translate(59.2501,-40.5)">
			<title>Tabelle.21</title>
			<rect x="0" y="279" width="45" height="36" class="st5"/>
		</g>
		<g id="shape22-62" v:mID="22" v:groupContext="shape" transform="translate(64.5001,-57)">
			<title>Tabelle.22</title>
			<desc>required</desc>
			<v:userDefs/>
			<v:textBlock v:margins="rect(0,0,0,0)"/>
			<v:textRect cx="29.9999" cy="313.125" width="60" height="3.75"/>
			<rect x="0" y="311.25" width="60" height="3.75" class="st1"/>
			<text x="-0" y="315.37" class="st2" v:langID="1033"><v:paragraph/><v:tabList/>required</text>		</g>
		<g id="shape23-65" v:mID="23" v:groupContext="shape" transform="translate(67.5001,-85.5)">
			<title>Tabelle.23</title>
			<path d="M0 315 L416.25 315 L416.25 101.25 L0 101.25 L0 315 Z" class="st6"/>
		</g>
		<g id="shape24-67" v:mID="24" v:groupContext="shape" transform="translate(342,-262.5)">
			<title>Tabelle.24</title>
			<rect x="0" y="283.5" width="136.5" height="31.5" class="st7"/>
		</g>
		<g id="shape25-69" v:mID="25" v:groupContext="shape" transform="translate(415.5,-172.5)">
			<title>Tabelle.25</title>
			<rect x="0" y="276" width="28.5" height="39" class="st8"/>
		</g>
		<g id="shape26-71" v:mID="26" v:groupContext="shape" transform="translate(289.5,-127.5)">
			<title>Tabelle.26</title>
			<rect x="0" y="277.5" width="75.75" height="37.5" class="st9"/>
		</g>
		<g id="shape27-73" v:mID="27" v:groupContext="shape" transform="translate(237,-93)">
			<title>Tabelle.27</title>
			<rect x="0" y="287.25" width="44.25" height="27.75" class="st10"/>
		</g>
		<g id="shape28-75" v:mID="28" v:groupContext="shape" transform="translate(215.25,-216.75)">
			<title>Tabelle.28</title>
			<rect x="0" y="279" width="90" height="36" class="st9"/>
		</g>
		<g id="shape29-77" v:mID="29" v:groupContext="shape" transform="translate(158.25,-172.5)">
			<title>Tabelle.29</title>
			<rect x="0" y="276" width="52.5" height="39" class="st11"/>
		</g>
		<g id="shape30-79" v:mID="30" v:groupContext="shape" transform="translate(107.25,-40.5)">
			<title>Tabelle.30</title>
			<path d="M0 315 L40.5 315 L40.5 279 L0 279 L0 315 Z" class="st6"/>
		</g>
		<g id="shape31-81" v:mID="31" v:groupContext="shape" transform="translate(420,-193.5)">
			<title>Tabelle.31</title>
			<desc>PKI</desc>
			<v:userDefs/>
			<v:textBlock v:margins="rect(0,0,0,0)"/>
			<v:textRect cx="11.2499" cy="313.125" width="22.5" height="3.75"/>
			<rect x="0" y="311.25" width="22.5" height="3.75" class="st1"/>
			<text x="-0" y="315.37" class="st2" v:langID="1033"><v:paragraph/><v:tabList/>PKI</text>		</g>
		<g id="shape32-84" v:mID="32" v:groupContext="shape" transform="translate(419.25,-182.25)">
			<title>Tabelle.32</title>
			<desc>client</desc>
			<v:userDefs/>
			<v:textBlock v:margins="rect(0,0,0,0)"/>
			<v:textRect cx="22.4999" cy="313.125" width="45" height="3.75"/>
			<rect x="0" y="311.25" width="45" height="3.75" class="st1"/>
			<text x="-0" y="315.37" class="st2" v:langID="1033"><v:paragraph/><v:tabList/>client</text>		</g>
		<g id="shape33-87" v:mID="33" v:groupContext="shape" transform="translate(359.25,-273)">
			<title>Tabelle.33</title>
			<desc>Stored procedures</desc>
			<v:userDefs/>
			<v:textBlock v:margins="rect(0,0,0,0)"/>
			<v:textRect cx="108.375" cy="311.813" width="216.77" height="6.375"/>
			<rect x="0" y="308.625" width="216.75" height="6.375" class="st1"/>
			<text x="-0.01" y="314.06" class="st2" v:langID="1033"><v:paragraph/><v:tabList/>Stored procedures</text>		</g>
		<g id="shape34-90" v:mID="34" v:groupContext="shape" transform="translate(240,-238.5)">
			<title>Tabelle.34</title>
			<desc>Spatial</desc>
			<v:userDefs/>
			<v:textBlock v:margins="rect(0,0,0,0)"/>
			<v:textRect cx="41.9999" cy="312" width="84.01" height="6"/>
			<rect x="0" y="309" width="84" height="6" class="st1"/>
			<text x="-0.01" y="314.25" class="st2" v:langID="1033"><v:paragraph/><v:tabList/>Spatial</text>		</g>
		<g id="shape35-93" v:mID="35" v:groupContext="shape" transform="translate(234,-224.25)">
			<title>Tabelle.35</title>
			<desc>Extension</desc>
			<v:userDefs/>
			<v:textBlock v:margins="rect(0,0,0,0)"/>
			<v:textRect cx="53.9999" cy="312" width="108" height="6"/>
			<rect x="0" y="309" width="108" height="6" class="st1"/>
			<text x="-0" y="314.25" class="st2" v:langID="1033"><v:paragraph/><v:tabList/>Extension</text>		</g>
		<g id="shape36-96" v:mID="36" v:groupContext="shape" transform="translate(172.5,-198.75)">
			<title>Tabelle.36</title>
			<desc>Object</desc>
			<v:userDefs/>
			<v:textBlock v:margins="rect(0,0,0,0)"/>
			<v:textRect cx="22.4999" cy="313.125" width="45" height="3.75"/>
			<rect x="0" y="311.25" width="45" height="3.75" class="st1"/>
			<text x="-0" y="315.37" class="st2" v:langID="1033"><v:paragraph/><v:tabList/>Object</text>		</g>
		<g id="shape37-99" v:mID="37" v:groupContext="shape" transform="translate(168.75,-187.5)">
			<title>Tabelle.37</title>
			<desc>library &#38;</desc>
			<v:userDefs/>
			<v:textBlock v:margins="rect(0,0,0,0)"/>
			<v:textRect cx="33.7499" cy="313.125" width="67.5" height="3.75"/>
			<rect x="0" y="311.25" width="67.5" height="3.75" class="st1"/>
			<text x="-0" y="315.37" class="st2" v:langID="1033"><v:paragraph/><v:tabList/>library &#38;</text>		</g>
		<g id="shape38-102" v:mID="38" v:groupContext="shape" transform="translate(163.5,-177)">
			<title>Tabelle.38</title>
			<desc>middleware</desc>
			<v:userDefs/>
			<v:textBlock v:margins="rect(0,0,0,0)"/>
			<v:textRect cx="37.4999" cy="313.125" width="75.01" height="3.75"/>
			<rect x="0" y="311.25" width="75" height="3.75" class="st1"/>
			<text x="-0.01" y="315.37" class="st2" v:langID="1033"><v:paragraph/><v:tabList/>middleware</text>		</g>
		<g id="shape39-105" v:mID="39" v:groupContext="shape" transform="translate(303,-150)">
			<title>Tabelle.39</title>
			<desc>Windowing</desc>
			<v:userDefs/>
			<v:textBlock v:margins="rect(0,0,0,0)"/>
			<v:textRect cx="47.2499" cy="312.375" width="94.5" height="5.25"/>
			<rect x="0" y="309.75" width="94.5" height="5.25" class="st1"/>
			<text x="-0" y="314.62" class="st2" v:langID="1033"><v:paragraph/><v:tabList/>Windowing</text>		</g>
		<g id="shape40-108" v:mID="40" v:groupContext="shape" transform="translate(309.75,-137.25)">
			<title>Tabelle.40</title>
			<desc>software</desc>
			<v:userDefs/>
			<v:textBlock v:margins="rect(0,0,0,0)"/>
			<v:textRect cx="41.9999" cy="312.375" width="84.01" height="5.25"/>
			<rect x="0" y="309.75" width="84" height="5.25" class="st1"/>
			<text x="-0.01" y="314.62" class="st2" v:langID="1033"><v:paragraph/><v:tabList/>software</text>		</g>
		<g id="shape41-111" v:mID="41" v:groupContext="shape" transform="translate(246.75,-111)">
			<title>Tabelle.41</title>
			<desc>IP load</desc>
			<v:userDefs/>
			<v:textBlock v:margins="rect(0,0,0,0)"/>
			<v:textRect cx="26.2499" cy="313.125" width="52.52" height="3.75"/>
			<rect x="0" y="311.25" width="52.5" height="3.75" class="st1"/>
			<text x="-0.01" y="315.37" class="st2" v:langID="1033"><v:paragraph/><v:tabList/>IP load</text>		</g>
		<g id="shape42-114" v:mID="42" v:groupContext="shape" transform="translate(242.25,-100.5)">
			<title>Tabelle.42</title>
			<desc>balancing</desc>
			<v:userDefs/>
			<v:textBlock v:margins="rect(0,0,0,0)"/>
			<v:textRect cx="33.7499" cy="313.125" width="67.5" height="3.75"/>
			<rect x="0" y="311.25" width="67.5" height="3.75" class="st1"/>
			<text x="-0" y="315.37" class="st2" v:langID="1033"><v:paragraph/><v:tabList/>balancing</text>		</g>
		<g id="shape43-117" v:mID="43" v:groupContext="shape" transform="translate(153,-40.5)">
			<title>Tabelle.43</title>
			<rect x="0" y="279" width="57" height="36" class="st7"/>
		</g>
		<g id="shape44-119" v:mID="44" v:groupContext="shape" transform="translate(75.0001,-262.5)">
			<title>Tabelle.44</title>
			<rect x="0" y="283.5" width="135" height="31.5" class="st7"/>
		</g>
		<g id="shape45-121" v:mID="45" v:groupContext="shape" transform="translate(215.25,-262.5)">
			<title>Tabelle.45</title>
			<rect x="0" y="283.5" width="122.25" height="31.5" class="st7"/>
		</g>
		<g id="shape46-123" v:mID="46" v:groupContext="shape" transform="translate(420.75,-216.75)">
			<title>Tabelle.46</title>
			<rect x="0" y="279" width="57.75" height="36" class="st8"/>
		</g>
		<g id="shape47-125" v:mID="47" v:groupContext="shape" transform="translate(446.25,-172.5)">
			<title>Tabelle.47</title>
			<rect x="0" y="276" width="32.25" height="39" class="st8"/>
		</g>
		<g id="shape48-127" v:mID="48" v:groupContext="shape" transform="translate(373.5,-172.5)">
			<title>Tabelle.48</title>
			<rect x="0" y="276" width="38.25" height="39" class="st8"/>
		</g>
		<g id="shape49-129" v:mID="49" v:groupContext="shape" transform="translate(372,-127.5)">
			<title>Tabelle.49</title>
			<rect x="0" y="277.5" width="54" height="37.5" class="st8"/>
		</g>
		<g id="shape50-131" v:mID="50" v:groupContext="shape" transform="translate(430.5,-127.5)">
			<title>Tabelle.50</title>
			<rect x="0" y="277.5" width="48" height="37.5" class="st8"/>
		</g>
		<g id="shape51-133" v:mID="51" v:groupContext="shape" transform="translate(70.5001,-172.5)">
			<title>Tabelle.51</title>
			<rect x="0" y="276" width="36.75" height="39" class="st5"/>
		</g>
		<g id="shape52-135" v:mID="52" v:groupContext="shape" transform="translate(110.25,-172.5)">
			<title>Tabelle.52</title>
			<rect x="0" y="276" width="43.5" height="39" class="st5"/>
		</g>
		<g id="shape53-137" v:mID="53" v:groupContext="shape" transform="translate(70.5001,-127.5)">
			<title>Tabelle.53</title>
			<rect x="0" y="277.5" width="83.25" height="37.5" class="st5"/>
		</g>
		<g id="shape54-139" v:mID="54" v:groupContext="shape" transform="translate(215.25,-172.5)">
			<title>Tabelle.54</title>
			<rect x="0" y="276" width="90.75" height="39" class="st11"/>
		</g>
		<g id="shape55-141" v:mID="55" v:groupContext="shape" transform="translate(311.25,-172.5)">
			<title>Tabelle.55</title>
			<rect x="0" y="276" width="56.25" height="39" class="st11"/>
		</g>
		<g id="shape56-143" v:mID="56" v:groupContext="shape" transform="translate(157.5,-127.5)">
			<title>Tabelle.56</title>
			<rect x="0" y="277.5" width="126.75" height="37.5" class="st9"/>
		</g>
		<g id="shape57-145" v:mID="57" v:groupContext="shape" transform="translate(272.25,-40.5)">
			<title>Tabelle.57</title>
			<rect x="0" y="279" width="59.25" height="36" class="st5"/>
		</g>
		<g id="shape58-147" v:mID="58" v:groupContext="shape" transform="translate(402.75,-40.5)">
			<title>Tabelle.58</title>
			<rect x="0" y="279" width="54.75" height="36" class="st9"/>
		</g>
		<g id="shape59-149" v:mID="59" v:groupContext="shape" transform="translate(335.25,-40.5)">
			<title>Tabelle.59</title>
			<rect x="0" y="279" width="63" height="36" class="st11"/>
		</g>
		<g id="shape60-151" v:mID="60" v:groupContext="shape" transform="translate(461.25,-40.5)">
			<title>Tabelle.60</title>
			<rect x="0" y="279" width="51.75" height="36" class="st8"/>
		</g>
		<g id="shape61-153" v:mID="61" v:groupContext="shape" transform="translate(164.25,-150)">
			<title>Tabelle.61</title>
			<desc>Base operating system</desc>
			<v:userDefs/>
			<v:textBlock v:margins="rect(0,0,0,0)"/>
			<v:textRect cx="110.25" cy="312.375" width="220.5" height="5.25"/>
			<rect x="0" y="309.75" width="220.5" height="5.25" class="st1"/>
			<text x="-0" y="314.62" class="st2" v:langID="1033"><v:paragraph/><v:tabList/>Base operating system</text>		</g>
		<g id="shape62-156" v:mID="62" v:groupContext="shape" transform="translate(168.75,-137.25)">
			<title>Tabelle.62</title>
			<desc>(&#38; server clustering)</desc>
			<v:userDefs/>
			<v:textBlock v:margins="rect(0,0,0,0)"/>
			<v:textRect cx="110.25" cy="312.375" width="220.5" height="5.25"/>
			<rect x="0" y="309.75" width="220.5" height="5.25" class="st1"/>
			<text x="-0" y="314.62" class="st2" v:langID="1033"><v:paragraph/><v:tabList/>(&#38; server clustering)</text>		</g>
		<g id="shape63-159" v:mID="63" v:groupContext="shape" transform="translate(116.25,-198.75)">
			<title>Tabelle.63</title>
			<desc>Network</desc>
			<v:userDefs/>
			<v:textBlock v:margins="rect(0,0,0,0)"/>
			<v:textRect cx="26.2499" cy="313.125" width="52.52" height="3.75"/>
			<rect x="0" y="311.25" width="52.5" height="3.75" class="st1"/>
			<text x="-0.01" y="315.37" class="st2" v:langID="1033"><v:paragraph/><v:tabList/>Network</text>		</g>
		<g id="shape64-162" v:mID="64" v:groupContext="shape" transform="translate(115.5,-187.5)">
			<title>Tabelle.64</title>
			<desc>directory</desc>
			<v:userDefs/>
			<v:textBlock v:margins="rect(0,0,0,0)"/>
			<v:textRect cx="33.7499" cy="313.125" width="67.5" height="3.75"/>
			<rect x="0" y="311.25" width="67.5" height="3.75" class="st1"/>
			<text x="-0" y="315.37" class="st2" v:langID="1033"><v:paragraph/><v:tabList/>directory</text>		</g>
		<g id="shape65-165" v:mID="65" v:groupContext="shape" transform="translate(116.25,-177)">
			<title>Tabelle.65</title>
			<desc>interface</desc>
			<v:userDefs/>
			<v:textBlock v:margins="rect(0,0,0,0)"/>
			<v:textRect cx="33.7499" cy="313.125" width="67.5" height="3.75"/>
			<rect x="0" y="311.25" width="67.5" height="3.75" class="st1"/>
			<text x="-0" y="315.37" class="st2" v:langID="1033"><v:paragraph/><v:tabList/>interface</text>		</g>
		<g id="shape66-168" v:mID="66" v:groupContext="shape" transform="translate(76.5001,-193.5)">
			<title>Tabelle.66</title>
			<desc>Managt</desc>
			<v:userDefs/>
			<v:textBlock v:margins="rect(0,0,0,0)"/>
			<v:textRect cx="22.4999" cy="313.125" width="45" height="3.75"/>
			<rect x="0" y="311.25" width="45" height="3.75" class="st1"/>
			<text x="-0" y="315.37" class="st2" v:langID="1033"><v:paragraph/><v:tabList/>Managt</text>		</g>
		<g id="shape67-171" v:mID="67" v:groupContext="shape" transform="translate(78.7501,-182.25)">
			<title>Tabelle.67</title>
			<desc>Agent</desc>
			<v:userDefs/>
			<v:textBlock v:margins="rect(0,0,0,0)"/>
			<v:textRect cx="18.7499" cy="313.125" width="37.5" height="3.75"/>
			<rect x="0" y="311.25" width="37.5" height="3.75" class="st1"/>
			<text x="-0" y="315.37" class="st2" v:langID="1033"><v:paragraph/><v:tabList/>Agent</text>		</g>
		<g id="shape68-174" v:mID="68" v:groupContext="shape" transform="translate(115.5,-273)">
			<title>Tabelle.68</title>
			<desc>DATA</desc>
			<v:userDefs/>
			<v:textBlock v:margins="rect(0,0,0,0)"/>
			<v:textRect cx="26.9999" cy="311.625" width="54" height="6.75"/>
			<rect x="0" y="308.25" width="54" height="6.75" class="st1"/>
			<text x="-0" y="313.88" class="st2" v:langID="1033"><v:paragraph/><v:tabList/>DATA</text>		</g>
		<g id="shape69-177" v:mID="69" v:groupContext="shape" transform="translate(231,-273)">
			<title>Tabelle.69</title>
			<desc>DATA model</desc>
			<v:userDefs/>
			<v:textBlock v:margins="rect(0,0,0,0)"/>
			<v:textRect cx="67.4999" cy="311.625" width="135" height="6.75"/>
			<rect x="0" y="308.25" width="135" height="6.75" class="st1"/>
			<text x="-0" y="313.88" class="st2" v:langID="1033"><v:paragraph/><v:tabList/>DATA model</text>		</g>
		<g id="shape70-180" v:mID="70" v:groupContext="shape" transform="translate(320.25,-193.5)">
			<title>Tabelle.70</title>
			<desc>COMMS</desc>
			<v:userDefs/>
			<v:textBlock v:margins="rect(0,0,0,0)"/>
			<v:textRect cx="18.7499" cy="313.125" width="37.5" height="3.75"/>
			<rect x="0" y="311.25" width="37.5" height="3.75" class="st1"/>
			<text x="-0" y="315.37" class="st2" v:langID="1033"><v:paragraph/><v:tabList/>COMMS</text>		</g>
		<g id="shape71-183" v:mID="71" v:groupContext="shape" transform="translate(322.5,-182.25)">
			<title>Tabelle.71</title>
			<desc>services</desc>
			<v:userDefs/>
			<v:textBlock v:margins="rect(0,0,0,0)"/>
			<v:textRect cx="29.9999" cy="313.125" width="60" height="3.75"/>
			<rect x="0" y="311.25" width="60" height="3.75" class="st1"/>
			<text x="-0" y="315.37" class="st2" v:langID="1033"><v:paragraph/><v:tabList/>services</text>		</g>
		<g id="shape72-186" v:mID="72" v:groupContext="shape" transform="translate(232.5,-187.5)">
			<title>Tabelle.72</title>
			<desc>D.B.M.S</desc>
			<v:userDefs/>
			<v:textBlock v:margins="rect(0,0,0,0)"/>
			<v:textRect cx="36.7499" cy="312.375" width="73.52" height="5.25"/>
			<rect x="0" y="309.75" width="73.5" height="5.25" class="st1"/>
			<text x="-0.01" y="314.62" class="st2" v:langID="1033"><v:paragraph/><v:tabList/>D.B.M.S</text>		</g>
		<g id="shape73-189" v:mID="73" v:groupContext="shape" transform="translate(452.25,-192.75)">
			<title>Tabelle.73</title>
			<desc>Virus</desc>
			<v:userDefs/>
			<v:textBlock v:margins="rect(0,0,0,0)"/>
			<v:textRect cx="18.7499" cy="313.125" width="37.5" height="3.75"/>
			<rect x="0" y="311.25" width="37.5" height="3.75" class="st1"/>
			<text x="-0" y="315.37" class="st2" v:langID="1033"><v:paragraph/><v:tabList/>Virus</text>		</g>
		<g id="shape74-192" v:mID="74" v:groupContext="shape" transform="translate(448.5,-182.25)">
			<title>Tabelle.74</title>
			<desc>checker</desc>
			<v:userDefs/>
			<v:textBlock v:margins="rect(0,0,0,0)"/>
			<v:textRect cx="26.2499" cy="313.125" width="52.52" height="3.75"/>
			<rect x="0" y="311.25" width="52.5" height="3.75" class="st1"/>
			<text x="-0.01" y="315.37" class="st2" v:langID="1033"><v:paragraph/><v:tabList/>checker</text>		</g>
		<g id="shape75-195" v:mID="75" v:groupContext="shape" transform="translate(384,-193.5)">
			<title>Tabelle.75</title>
			<desc>SEC.</desc>
			<v:userDefs/>
			<v:textBlock v:margins="rect(0,0,0,0)"/>
			<v:textRect cx="14.9999" cy="313.125" width="30.01" height="3.75"/>
			<rect x="0" y="311.25" width="30" height="3.75" class="st1"/>
			<text x="-0.01" y="315.37" class="st2" v:langID="1033"><v:paragraph/><v:tabList/>SEC.</text>		</g>
		<g id="shape76-198" v:mID="76" v:groupContext="shape" transform="translate(376.5,-182.25)">
			<title>Tabelle.76</title>
			<desc>protocols</desc>
			<v:userDefs/>
			<v:textBlock v:margins="rect(0,0,0,0)"/>
			<v:textRect cx="33.7499" cy="313.125" width="67.5" height="3.75"/>
			<rect x="0" y="311.25" width="67.5" height="3.75" class="st1"/>
			<text x="-0" y="315.37" class="st2" v:langID="1033"><v:paragraph/><v:tabList/>protocols</text>		</g>
		<g id="shape77-201" v:mID="77" v:groupContext="shape" transform="translate(381.75,-155.25)">
			<title>Tabelle.77</title>
			<desc>file access</desc>
			<v:userDefs/>
			<v:textBlock v:margins="rect(0,0,0,0)"/>
			<v:textRect cx="41.2499" cy="313.125" width="82.5" height="3.75"/>
			<rect x="0" y="311.25" width="82.5" height="3.75" class="st1"/>
			<text x="-0" y="315.37" class="st2" v:langID="1033"><v:paragraph/><v:tabList/>file access</text>		</g>
		<g id="shape78-204" v:mID="78" v:groupContext="shape" transform="translate(381.75,-144.75)">
			<title>Tabelle.78</title>
			<desc>control &#38;</desc>
			<v:userDefs/>
			<v:textBlock v:margins="rect(0,0,0,0)"/>
			<v:textRect cx="33.7499" cy="313.125" width="67.5" height="3.75"/>
			<rect x="0" y="311.25" width="67.5" height="3.75" class="st1"/>
			<text x="-0" y="315.37" class="st2" v:langID="1033"><v:paragraph/><v:tabList/>control &#38;</text>		</g>
		<g id="shape79-207" v:mID="79" v:groupContext="shape" transform="translate(379.5,-133.5)">
			<title>Tabelle.79</title>
			<desc>accounting</desc>
			<v:userDefs/>
			<v:textBlock v:margins="rect(0,0,0,0)"/>
			<v:textRect cx="37.4999" cy="313.125" width="75.01" height="3.75"/>
			<rect x="0" y="311.25" width="75" height="3.75" class="st1"/>
			<text x="-0.01" y="315.37" class="st2" v:langID="1033"><v:paragraph/><v:tabList/>accounting</text>		</g>
		<g id="shape80-210" v:mID="80" v:groupContext="shape" transform="translate(428.25,-236.25)">
			<title>Tabelle.80</title>
			<desc>Distributed</desc>
			<v:userDefs/>
			<v:textBlock v:margins="rect(0,0,0,0)"/>
			<v:textRect cx="41.2499" cy="313.125" width="82.5" height="3.75"/>
			<rect x="0" y="311.25" width="82.5" height="3.75" class="st1"/>
			<text x="-0" y="315.37" class="st2" v:langID="1033"><v:paragraph/><v:tabList/>Distributed</text>		</g>
		<g id="shape81-213" v:mID="81" v:groupContext="shape" transform="translate(423,-225)">
			<title>Tabelle.81</title>
			<desc>authentication</desc>
			<v:userDefs/>
			<v:textBlock v:margins="rect(0,0,0,0)"/>
			<v:textRect cx="52.4999" cy="313.125" width="105" height="3.75"/>
			<rect x="0" y="311.25" width="105" height="3.75" class="st1"/>
			<text x="-0" y="315.37" class="st2" v:langID="1033"><v:paragraph/><v:tabList/>authentication</text>		</g>
		<g id="shape82-216" v:mID="82" v:groupContext="shape" transform="translate(438.75,-150.75)">
			<title>Tabelle.82</title>
			<desc>Security</desc>
			<v:userDefs/>
			<v:textBlock v:margins="rect(0,0,0,0)"/>
			<v:textRect cx="29.9999" cy="313.125" width="60" height="3.75"/>
			<rect x="0" y="311.25" width="60" height="3.75" class="st1"/>
			<text x="-0" y="315.37" class="st2" v:langID="1033"><v:paragraph/><v:tabList/>Security</text>		</g>
		<g id="shape83-219" v:mID="83" v:groupContext="shape" transform="translate(441.75,-139.5)">
			<title>Tabelle.83</title>
			<desc>library</desc>
			<v:userDefs/>
			<v:textBlock v:margins="rect(0,0,0,0)"/>
			<v:textRect cx="26.2499" cy="313.125" width="52.52" height="3.75"/>
			<rect x="0" y="311.25" width="52.5" height="3.75" class="st1"/>
			<text x="-0.01" y="315.37" class="st2" v:langID="1033"><v:paragraph/><v:tabList/>library</text>		</g>
		<g id="shape84-222" v:mID="84" v:groupContext="shape" transform="translate(168,-61.5)">
			<title>Tabelle.84</title>
			<desc>mission</desc>
			<v:userDefs/>
			<v:textBlock v:margins="rect(0,0,0,0)"/>
			<v:textRect cx="26.2499" cy="313.125" width="52.5" height="3.75"/>
			<rect x="0" y="311.25" width="52.5" height="3.75" class="st1"/>
			<text x="-0" y="315.37" class="st2" v:langID="1033"><v:paragraph/><v:tabList/>mission</text>		</g>
		<g id="shape85-225" v:mID="85" v:groupContext="shape" transform="translate(158.25,-51)">
			<title>Tabelle.85</title>
			<desc>components</desc>
			<v:userDefs/>
			<v:textBlock v:margins="rect(0,0,0,0)"/>
			<v:textRect cx="37.4999" cy="313.125" width="75.01" height="3.75"/>
			<rect x="0" y="311.25" width="75" height="3.75" class="st1"/>
			<text x="-0.01" y="315.37" class="st2" v:langID="1033"><v:paragraph/><v:tabList/>components</text>		</g>
		<g id="shape86-228" v:mID="86" v:groupContext="shape" transform="translate(474,-62.25)">
			<title>Tabelle.86</title>
			<desc>security</desc>
			<v:userDefs/>
			<v:textBlock v:margins="rect(0,0,0,0)"/>
			<v:textRect cx="29.9999" cy="313.125" width="60" height="3.75"/>
			<rect x="0" y="311.25" width="60" height="3.75" class="st1"/>
			<text x="-0" y="315.37" class="st2" v:langID="1033"><v:paragraph/><v:tabList/>security</text>		</g>
		<g id="shape87-231" v:mID="87" v:groupContext="shape" transform="translate(465,-51)">
			<title>Tabelle.87</title>
			<desc>components</desc>
			<v:userDefs/>
			<v:textBlock v:margins="rect(0,0,0,0)"/>
			<v:textRect cx="37.4999" cy="313.125" width="75.01" height="3.75"/>
			<rect x="0" y="311.25" width="75" height="3.75" class="st1"/>
			<text x="-0.01" y="315.37" class="st2" v:langID="1033"><v:paragraph/><v:tabList/>components</text>		</g>
		<g id="shape88-234" v:mID="88" v:groupContext="shape" transform="translate(278.25,-61.5)">
			<title>Tabelle.88</title>
			<desc>management</desc>
			<v:userDefs/>
			<v:textBlock v:margins="rect(0,0,0,0)"/>
			<v:textRect cx="37.4999" cy="313.125" width="75.01" height="3.75"/>
			<rect x="0" y="311.25" width="75" height="3.75" class="st1"/>
			<text x="-0.01" y="315.37" class="st2" v:langID="1033"><v:paragraph/><v:tabList/>management</text>		</g>
		<g id="shape89-237" v:mID="89" v:groupContext="shape" transform="translate(279,-51)">
			<title>Tabelle.89</title>
			<desc>components</desc>
			<v:userDefs/>
			<v:textBlock v:margins="rect(0,0,0,0)"/>
			<v:textRect cx="37.4999" cy="313.125" width="75.01" height="3.75"/>
			<rect x="0" y="311.25" width="75" height="3.75" class="st1"/>
			<text x="-0" y="315.37" class="st2" v:langID="1033"><v:paragraph/><v:tabList/>components</text>		</g>
		<g id="shape90-240" v:mID="90" v:groupContext="shape" transform="translate(338.25,-61.5)">
			<title>Tabelle.90</title>
			<desc>interoperability</desc>
			<v:userDefs/>
			<v:textBlock v:margins="rect(0,0,0,0)"/>
			<v:textRect cx="59.9999" cy="313.125" width="120.01" height="3.75"/>
			<rect x="0" y="311.25" width="120" height="3.75" class="st1"/>
			<text x="-0" y="315.37" class="st2" v:langID="1033"><v:paragraph/><v:tabList/>interoperability</text>		</g>
		<g id="shape91-243" v:mID="91" v:groupContext="shape" transform="translate(344.25,-51)">
			<title>Tabelle.91</title>
			<desc>components</desc>
			<v:userDefs/>
			<v:textBlock v:margins="rect(0,0,0,0)"/>
			<v:textRect cx="37.4999" cy="313.125" width="75.01" height="3.75"/>
			<rect x="0" y="311.25" width="75" height="3.75" class="st1"/>
			<text x="-0" y="315.37" class="st2" v:langID="1033"><v:paragraph/><v:tabList/>components</text>		</g>
		<g id="shape92-246" v:mID="92" v:groupContext="shape" transform="translate(215.25,-39.75)">
			<title>Tabelle.92</title>
			<rect x="0" y="278.25" width="53.25" height="36.75" class="st12"/>
		</g>
		<g id="shape93-248" v:mID="93" v:groupContext="shape" transform="translate(225.75,-61.5)">
			<title>Tabelle.93</title>
			<desc>network</desc>
			<v:userDefs/>
			<v:textBlock v:margins="rect(0,0,0,0)"/>
			<v:textRect cx="26.2499" cy="313.125" width="52.5" height="3.75"/>
			<rect x="0" y="311.25" width="52.5" height="3.75" class="st1"/>
			<text x="-0" y="315.37" class="st2" v:langID="1033"><v:paragraph/><v:tabList/>network</text>		</g>
		<g id="shape94-251" v:mID="94" v:groupContext="shape" transform="translate(219,-51)">
			<title>Tabelle.94</title>
			<desc>components</desc>
			<v:userDefs/>
			<v:textBlock v:margins="rect(0,0,0,0)"/>
			<v:textRect cx="37.4999" cy="313.125" width="75.01" height="3.75"/>
			<rect x="0" y="311.25" width="75" height="3.75" class="st1"/>
			<text x="-0.01" y="315.37" class="st2" v:langID="1033"><v:paragraph/><v:tabList/>components</text>		</g>
		<g id="shape95-254" v:mID="95" v:groupContext="shape" transform="translate(417.75,-61.5)">
			<title>Tabelle.95</title>
			<desc>&#34;base&#34;</desc>
			<v:userDefs/>
			<v:textBlock v:margins="rect(0,0,0,0)"/>
			<v:textRect cx="22.4999" cy="313.125" width="45" height="3.75"/>
			<rect x="0" y="311.25" width="45" height="3.75" class="st1"/>
			<text x="-0" y="315.37" class="st2" v:langID="1033"><v:paragraph/><v:tabList/>&#34;base&#34;</text>		</g>
		<g id="shape96-257" v:mID="96" v:groupContext="shape" transform="translate(407.25,-50.25)">
			<title>Tabelle.96</title>
			<desc>components</desc>
			<v:userDefs/>
			<v:textBlock v:margins="rect(0,0,0,0)"/>
			<v:textRect cx="37.4999" cy="313.125" width="75.01" height="3.75"/>
			<rect x="0" y="311.25" width="75" height="3.75" class="st1"/>
			<text x="-0" y="315.37" class="st2" v:langID="1033"><v:paragraph/><v:tabList/>components</text>		</g>
	</g>
</svg>
