<?xml version="1.0" encoding="UTF-8" standalone="no"?>
<!DOCTYPE svg PUBLIC "-//W3C//DTD SVG 1.0//EN" "http://www.w3.org/TR/2001/REC-SVG-20010904/DTD/svg10.dtd">
<!-- Generiert durch Microsoft Visio 11.0, SVG Export, v1.0 v2-fc-ns2.svg Functional Components for Network Server -->
<svg xmlns="http://www.w3.org/2000/svg" xmlns:v="http://schemas.microsoft.com/visio/2003/SVGExtensions/" width="7.29167in"
		height="4.375in" viewBox="0 0 525 315" xml:space="preserve" color-interpolation-filters="sRGB" class="st12">
	<v:documentProperties v:langID="1033" v:metric="true" v:viewMarkup="false"/>

	<style type="text/css">
	<![CDATA[
		.st1 {fill:none;stroke:none;stroke-linecap:butt;stroke-width:0.75}
		.st2 {fill:#000000;font-family:Verdana;font-size:0.625008em}
		.st3 {fill:#ffff99;stroke:#fafd00;stroke-linecap:butt;stroke-width:0.75}
		.st4 {fill:none;stroke:#000000;stroke-linecap:butt;stroke-width:0.75}
		.st5 {fill:#e7ffff;stroke:#000000;stroke-linecap:butt;stroke-width:0.75}
		.st6 {fill:#ffc0c0;stroke:#000000;stroke-linecap:butt;stroke-width:0.75}
		.st7 {fill:#b4dafe;stroke:#000000;stroke-linecap:butt;stroke-width:0.75}
		.st8 {fill:none;stroke:#000000;stroke-dasharray:3,1.5;stroke-linecap:butt;stroke-width:0.75}
		.st9 {fill:#ffff00;stroke:#000000;stroke-linecap:butt;stroke-width:0.75}
		.st10 {fill:#000000;font-family:Verdana;font-size:0.874992em}
		.st11 {fill:#fafd00;stroke:#000000;stroke-linecap:butt;stroke-width:0.75}
		.st12 {fill:none;fill-rule:evenodd;font-size:12;overflow:visible;stroke-linecap:square;stroke-miterlimit:3}
	]]>
	</style>

	<g v:mID="0" v:index="1" v:groupContext="foregroundPage">
		<v:userDefs/>
		<title>Functional Components for Network Server</title>
		<v:pageProperties v:drawingScale="1" v:pageScale="1" v:drawingUnits="19" v:shadowOffsetX="9" v:shadowOffsetY="-9"/>
		<g id="shape1-1" v:mID="1" v:groupContext="shape" transform="translate(24.75,-239.25)">
			<title>Tabelle.1</title>
			<desc>Common</desc>
			<v:textBlock v:margins="rect(0,0,0,0)"/>
			<v:textRect cx="22.5" cy="313.125" width="45" height="3.75"/>
			<rect x="0" y="311.25" width="45" height="3.75" class="st1"/>
			<text x="0" y="315.37" class="st2" v:langID="1033"><v:paragraph/><v:tabList/>Common</text>		</g>
		<g id="shape2-4" v:mID="2" v:groupContext="shape" transform="translate(24,-228.75)">
			<title>Tabelle.2</title>
			<desc>support</desc>
			<v:textBlock v:margins="rect(0,0,0,0)"/>
			<v:textRect cx="26.25" cy="313.125" width="52.51" height="3.75"/>
			<rect x="0" y="311.25" width="52.5" height="3.75" class="st1"/>
			<text x="0" y="315.37" class="st2" v:langID="1033"><v:paragraph/><v:tabList/>support</text>		</g>
		<g id="shape3-7" v:mID="3" v:groupContext="shape" transform="translate(24.75,-218.25)">
			<title>Tabelle.3</title>
			<desc>application</desc>
			<v:textBlock v:margins="rect(0,0,0,0)"/>
			<v:textRect cx="41.25" cy="313.125" width="82.5" height="3.75"/>
			<rect x="0" y="311.25" width="82.5" height="3.75" class="st1"/>
			<text x="0" y="315.37" class="st2" v:langID="1033"><v:paragraph/><v:tabList/>application</text>		</g>
		<g id="shape4-10" v:mID="4" v:groupContext="shape" transform="translate(24,-207)">
			<title>Tabelle.4</title>
			<desc>services</desc>
			<v:textBlock v:margins="rect(0,0,0,0)"/>
			<v:textRect cx="30" cy="313.125" width="60" height="3.75"/>
			<rect x="0" y="311.25" width="60" height="3.75" class="st1"/>
			<text x="0" y="315.37" class="st2" v:langID="1033"><v:paragraph/><v:tabList/>services</text>		</g>
		<g id="shape5-13" v:mID="5" v:groupContext="shape" transform="translate(25.5,-191.25)">
			<title>Tabelle.5</title>
			<desc>Infra-</desc>
			<v:textBlock v:margins="rect(0,0,0,0)"/>
			<v:textRect cx="22.5" cy="313.125" width="45" height="3.75"/>
			<rect x="0" y="311.25" width="45" height="3.75" class="st1"/>
			<text x="0" y="315.37" class="st2" v:langID="1033"><v:paragraph/><v:tabList/>Infra-</text>		</g>
		<g id="shape6-16" v:mID="6" v:groupContext="shape" transform="translate(25.5,-180.75)">
			<title>Tabelle.6</title>
			<desc>structure</desc>
			<v:textBlock v:margins="rect(0,0,0,0)"/>
			<v:textRect cx="33.75" cy="313.125" width="67.5" height="3.75"/>
			<rect x="0" y="311.25" width="67.5" height="3.75" class="st1"/>
			<text x="0" y="315.37" class="st2" v:langID="1033"><v:paragraph/><v:tabList/>structure</text>		</g>
		<g id="shape7-19" v:mID="7" v:groupContext="shape" transform="translate(25.5,-169.5)">
			<title>Tabelle.7</title>
			<desc>services</desc>
			<v:textBlock v:margins="rect(0,0,0,0)"/>
			<v:textRect cx="30" cy="313.125" width="60" height="3.75"/>
			<rect x="0" y="311.25" width="60" height="3.75" class="st1"/>
			<text x="0" y="315.37" class="st2" v:langID="1033"><v:paragraph/><v:tabList/>services</text>		</g>
		<g id="shape8-22" v:mID="8" v:groupContext="shape" transform="translate(24,-144)">
			<title>Tabelle.8</title>
			<desc>Kernel</desc>
			<v:textBlock v:margins="rect(0,0,0,0)"/>
			<v:textRect cx="22.5" cy="313.125" width="45" height="3.75"/>
			<rect x="0" y="311.25" width="45" height="3.75" class="st1"/>
			<text x="0" y="315.37" class="st2" v:langID="1033"><v:paragraph/><v:tabList/>Kernel</text>		</g>
		<g id="shape9-25" v:mID="9" v:groupContext="shape" transform="translate(24,-132.75)">
			<title>Tabelle.9</title>
			<desc>services</desc>
			<v:textBlock v:margins="rect(0,0,0,0)"/>
			<v:textRect cx="30" cy="313.125" width="60" height="3.75"/>
			<rect x="0" y="311.25" width="60" height="3.75" class="st1"/>
			<text x="0" y="315.37" class="st2" v:langID="1033"><v:paragraph/><v:tabList/>services</text>		</g>
		<g id="shape10-28" v:mID="10" v:groupContext="shape" transform="translate(23.25,-101.25)">
			<title>Tabelle.10</title>
			<desc>Network</desc>
			<v:textBlock v:margins="rect(0,0,0,0)"/>
			<v:textRect cx="26.25" cy="313.125" width="52.5" height="3.75"/>
			<rect x="0" y="311.25" width="52.5" height="3.75" class="st1"/>
			<text x="0" y="315.37" class="st2" v:langID="1033"><v:paragraph/><v:tabList/>Network</text>		</g>
		<g id="shape11-31" v:mID="11" v:groupContext="shape" transform="translate(22.5,-90.75)">
			<title>Tabelle.11</title>
			<desc>services</desc>
			<v:textBlock v:margins="rect(0,0,0,0)"/>
			<v:textRect cx="30" cy="313.125" width="60" height="3.75"/>
			<rect x="0" y="311.25" width="60" height="3.75" class="st1"/>
			<text x="0" y="315.37" class="st2" v:langID="1033"><v:paragraph/><v:tabList/>services</text>		</g>
		<g id="shape12-34" v:mID="12" v:groupContext="shape" transform="translate(25.5,-279)">
			<title>Tabelle.12</title>
			<desc>Specific</desc>
			<v:textBlock v:margins="rect(0,0,0,0)"/>
			<v:textRect cx="30" cy="313.125" width="60" height="3.75"/>
			<rect x="0" y="311.25" width="60" height="3.75" class="st1"/>
			<text x="0" y="315.37" class="st2" v:langID="1033"><v:paragraph/><v:tabList/>Specific</text>		</g>
		<g id="shape13-37" v:mID="13" v:groupContext="shape" transform="translate(25.5,-267.75)">
			<title>Tabelle.13</title>
			<desc>mission</desc>
			<v:textBlock v:margins="rect(0,0,0,0)"/>
			<v:textRect cx="26.25" cy="313.125" width="52.5" height="3.75"/>
			<rect x="0" y="311.25" width="52.5" height="3.75" class="st1"/>
			<text x="0" y="315.37" class="st2" v:langID="1033"><v:paragraph/><v:tabList/>mission</text>		</g>
		<g id="shape14-40" v:mID="14" v:groupContext="shape" transform="translate(25.5,-257.25)">
			<title>Tabelle.14</title>
			<desc>applications</desc>
			<v:textBlock v:margins="rect(0,0,0,0)"/>
			<v:textRect cx="45" cy="313.125" width="90" height="3.75"/>
			<rect x="0" y="311.25" width="90" height="3.75" class="st1"/>
			<text x="0" y="315.37" class="st2" v:langID="1033"><v:paragraph/><v:tabList/>applications</text>		</g>
		<g id="shape15-43" v:mID="15" v:groupContext="shape" transform="translate(73.5,-83.25)">
			<title>Tabelle.15</title>
			<rect x="0" y="282.75" width="405.75" height="32.25" class="st3"/>
		</g>
		<g id="shape16-45" v:mID="16" v:groupContext="shape" transform="translate(75,-206.25)">
			<title>Tabelle.16</title>
			<rect x="0" y="281.25" width="37.5" height="33.75" class="st4"/>
		</g>
		<g id="shape17-47" v:mID="17" v:groupContext="shape" transform="translate(120,-206.25)">
			<title>Tabelle.17</title>
			<rect x="0" y="281.25" width="37.5" height="33.75" class="st5"/>
		</g>
		<g id="shape18-49" v:mID="18" v:groupContext="shape" transform="translate(376.5,-202.5)">
			<title>Tabelle.18</title>
			<rect x="0" y="277.5" width="38.25" height="37.5" class="st6"/>
		</g>
		<g id="shape19-51" v:mID="19" v:groupContext="shape" transform="translate(419.25,-202.5)">
			<title>Tabelle.19</title>
			<rect x="0" y="277.5" width="59.25" height="37.5" class="st6"/>
		</g>
		<g id="shape20-53" v:mID="20" v:groupContext="shape" transform="translate(447.75,-163.5)">
			<title>Tabelle.20</title>
			<rect x="0" y="279" width="30" height="36" class="st6"/>
		</g>
		<g id="shape21-55" v:mID="21" v:groupContext="shape" transform="translate(75,-163.5)">
			<title>Tabelle.21</title>
			<rect x="0" y="279" width="29.25" height="36" class="st4"/>
		</g>
		<g id="shape22-57" v:mID="22" v:groupContext="shape" transform="translate(106.5,-163.5)">
			<title>Tabelle.22</title>
			<rect x="0" y="279" width="34.5" height="36" class="st4"/>
		</g>
		<g id="shape23-59" v:mID="23" v:groupContext="shape" transform="translate(144,-163.5)">
			<title>Tabelle.23</title>
			<rect x="0" y="279" width="29.25" height="36" class="st4"/>
		</g>
		<g id="shape24-61" v:mID="24" v:groupContext="shape" transform="translate(175.5,-163.5)">
			<title>Tabelle.24</title>
			<rect x="0" y="279" width="33" height="36" class="st4"/>
		</g>
		<g id="shape25-63" v:mID="25" v:groupContext="shape" transform="translate(212.25,-163.5)">
			<title>Tabelle.25</title>
			<rect x="0" y="279" width="22.5" height="36" class="st7"/>
		</g>
		<g id="shape26-65" v:mID="26" v:groupContext="shape" transform="translate(237,-163.5)">
			<title>Tabelle.26</title>
			<rect x="0" y="279" width="36" height="36" class="st7"/>
		</g>
		<g id="shape27-67" v:mID="27" v:groupContext="shape" transform="translate(276,-163.5)">
			<title>Tabelle.27</title>
			<rect x="0" y="279" width="24.75" height="36" class="st7"/>
		</g>
		<g id="shape28-69" v:mID="28" v:groupContext="shape" transform="translate(341.25,-163.5)">
			<title>Tabelle.28</title>
			<rect x="0" y="279" width="33" height="36" class="st5"/>
		</g>
		<g id="shape29-71" v:mID="29" v:groupContext="shape" transform="translate(377.25,-163.5)">
			<title>Tabelle.29</title>
			<rect x="0" y="279" width="34.5" height="36" class="st6"/>
		</g>
		<g id="shape30-73" v:mID="30" v:groupContext="shape" transform="translate(435,-122.25)">
			<title>Tabelle.30</title>
			<rect x="0" y="279" width="42" height="36" class="st6"/>
		</g>
		<g id="shape31-75" v:mID="31" v:groupContext="shape" transform="translate(377.25,-122.25)">
			<title>Tabelle.31</title>
			<rect x="0" y="279" width="46.5" height="36" class="st6"/>
		</g>
		<g id="shape32-77" v:mID="32" v:groupContext="shape" transform="translate(74.25,-122.25)">
			<title>Tabelle.32</title>
			<rect x="0" y="279" width="66.75" height="36" class="st4"/>
		</g>
		<g id="shape33-79" v:mID="33" v:groupContext="shape" transform="translate(143.25,-122.25)">
			<title>Tabelle.33</title>
			<rect x="0" y="279" width="130.5" height="36" class="st5"/>
		</g>
		<g id="shape34-81" v:mID="34" v:groupContext="shape" transform="translate(278.25,-122.25)">
			<title>Tabelle.34</title>
			<rect x="0" y="279" width="95.25" height="36" class="st5"/>
		</g>
		<g id="shape35-83" v:mID="35" v:groupContext="shape" transform="translate(378,-84)">
			<title>Tabelle.35</title>
			<rect x="0" y="283.5" width="52.5" height="31.5" class="st6"/>
		</g>
		<g id="shape36-85" v:mID="36" v:groupContext="shape" transform="translate(463.5,-33)">
			<title>Tabelle.36</title>
			<rect x="0" y="278.25" width="50.25" height="36.75" class="st6"/>
		</g>
		<g id="shape37-87" v:mID="37" v:groupContext="shape" transform="translate(274.5,-33)">
			<title>Tabelle.37</title>
			<rect x="0" y="278.25" width="56.25" height="36.75" class="st4"/>
		</g>
		<g id="shape38-89" v:mID="38" v:groupContext="shape" transform="translate(336,-33)">
			<title>Tabelle.38</title>
			<rect x="0" y="278.25" width="64.5" height="36.75" class="st7"/>
		</g>
		<g id="shape39-91" v:mID="39" v:groupContext="shape" transform="translate(405.75,-33)">
			<title>Tabelle.39</title>
			<rect x="0" y="278.25" width="51.75" height="36.75" class="st5"/>
		</g>
		<g id="shape40-93" v:mID="40" v:groupContext="shape" transform="translate(69.75,-78)">
			<title>Tabelle.40</title>
			<path d="M0 315 L412.5 315 L412.5 106.5 L0 106.5 L0 315 Z" class="st8"/>
		</g>
		<g id="shape41-95" v:mID="41" v:groupContext="shape" transform="translate(111.75,-33)">
			<title>Tabelle.41</title>
			<path d="M0 315 L39 315 L39 278.25 L0 278.25 L0 315 Z" class="st8"/>
		</g>
		<g id="shape42-97" v:mID="42" v:groupContext="shape" transform="translate(437.25,-84)">
			<title>Tabelle.42</title>
			<rect x="0" y="284.25" width="39.75" height="30.75" class="st6"/>
		</g>
		<g id="shape43-99" v:mID="43" v:groupContext="shape" transform="translate(303,-163.5)">
			<title>Tabelle.43</title>
			<rect x="0" y="279" width="35.25" height="36" class="st5"/>
		</g>
		<g id="shape44-101" v:mID="44" v:groupContext="shape" transform="translate(414,-163.5)">
			<title>Tabelle.44</title>
			<rect x="0" y="279" width="30" height="36" class="st6"/>
		</g>
		<g id="shape45-103" v:mID="45" v:groupContext="shape" transform="translate(242.25,-86.25)">
			<title>Tabelle.45</title>
			<rect x="0" y="288" width="41.25" height="27" class="st9"/>
		</g>
		<g id="shape46-105" v:mID="46" v:groupContext="shape" transform="translate(81,-147)">
			<title>Tabelle.46</title>
			<desc>Configuration</desc>
			<v:textBlock v:margins="rect(0,0,0,0)"/>
			<v:textRect cx="48.75" cy="313.125" width="97.51" height="3.75"/>
			<rect x="0" y="311.25" width="97.5" height="3.75" class="st1"/>
			<text x="0" y="315.37" class="st2" v:langID="1033"><v:paragraph/><v:tabList/>Configuration</text>		</g>
		<g id="shape47-108" v:mID="47" v:groupContext="shape" transform="translate(76.5,-136.5)">
			<title>Tabelle.47</title>
			<desc>control/remote</desc>
			<v:textBlock v:margins="rect(0,0,0,0)"/>
			<v:textRect cx="52.5" cy="313.125" width="105" height="3.75"/>
			<rect x="0" y="311.25" width="105" height="3.75" class="st1"/>
			<text x="0" y="315.37" class="st2" v:langID="1033"><v:paragraph/><v:tabList/>control/remote</text>		</g>
		<g id="shape48-111" v:mID="48" v:groupContext="shape" transform="translate(86.25,-126)">
			<title>Tabelle.48</title>
			<desc>installation</desc>
			<v:textBlock v:margins="rect(0,0,0,0)"/>
			<v:textRect cx="45" cy="313.125" width="90" height="3.75"/>
			<rect x="0" y="311.25" width="90" height="3.75" class="st1"/>
			<text x="0" y="315.37" class="st2" v:langID="1033"><v:paragraph/><v:tabList/>installation</text>		</g>
		<g id="shape49-114" v:mID="49" v:groupContext="shape" transform="translate(148.5,-142.5)">
			<title>Tabelle.49</title>
			<desc>Base operating system</desc>
			<v:textBlock v:margins="rect(0,0,0,0)"/>
			<v:textRect cx="110.25" cy="312.375" width="220.5" height="5.25"/>
			<rect x="0" y="309.75" width="220.5" height="5.25" class="st1"/>
			<text x="0" y="314.62" class="st2" v:langID="1033"><v:paragraph/><v:tabList/>Base operating system</text>		</g>
		<g id="shape50-117" v:mID="50" v:groupContext="shape" transform="translate(157.5,-129.75)">
			<title>Tabelle.50</title>
			<desc>(&#38; server clustering)</desc>
			<v:textBlock v:margins="rect(0,0,0,0)"/>
			<v:textRect cx="110.25" cy="312.375" width="220.5" height="5.25"/>
			<rect x="0" y="309.75" width="220.5" height="5.25" class="st1"/>
			<text x="0" y="314.62" class="st2" v:langID="1033"><v:paragraph/><v:tabList/>(&#38; server clustering)</text>		</g>
		<g id="shape51-120" v:mID="51" v:groupContext="shape" transform="translate(304.5,-142.5)">
			<title>Tabelle.51</title>
			<desc>Windowing</desc>
			<v:textBlock v:margins="rect(0,0,0,0)"/>
			<v:textRect cx="47.25" cy="312.375" width="94.5" height="5.25"/>
			<rect x="0" y="309.75" width="94.5" height="5.25" class="st1"/>
			<text x="0" y="314.62" class="st2" v:langID="1033"><v:paragraph/><v:tabList/>Windowing</text>		</g>
		<g id="shape52-123" v:mID="52" v:groupContext="shape" transform="translate(310.5,-129.75)">
			<title>Tabelle.52</title>
			<desc>software</desc>
			<v:textBlock v:margins="rect(0,0,0,0)"/>
			<v:textRect cx="42" cy="312.375" width="84" height="5.25"/>
			<rect x="0" y="309.75" width="84" height="5.25" class="st1"/>
			<text x="0" y="314.62" class="st2" v:langID="1033"><v:paragraph/><v:tabList/>software</text>		</g>
		<g id="shape53-126" v:mID="53" v:groupContext="shape" transform="translate(420.75,-185.25)">
			<title>Tabelle.53</title>
			<desc>PKI</desc>
			<v:textBlock v:margins="rect(0,0,0,0)"/>
			<v:textRect cx="11.25" cy="313.125" width="22.5" height="3.75"/>
			<rect x="0" y="311.25" width="22.5" height="3.75" class="st1"/>
			<text x="0" y="315.37" class="st2" v:langID="1033"><v:paragraph/><v:tabList/>PKI</text>		</g>
		<g id="shape54-129" v:mID="54" v:groupContext="shape" transform="translate(417.75,-174.75)">
			<title>Tabelle.54</title>
			<desc>server</desc>
			<v:textBlock v:margins="rect(0,0,0,0)"/>
			<v:textRect cx="22.5" cy="313.125" width="45" height="3.75"/>
			<rect x="0" y="311.25" width="45" height="3.75" class="st1"/>
			<text x="0" y="315.37" class="st2" v:langID="1033"><v:paragraph/><v:tabList/>server</text>		</g>
		<g id="shape55-132" v:mID="55" v:groupContext="shape" transform="translate(453,-185.25)">
			<title>Tabelle.55</title>
			<desc>Virus</desc>
			<v:textBlock v:margins="rect(0,0,0,0)"/>
			<v:textRect cx="18.75" cy="313.125" width="37.5" height="3.75"/>
			<rect x="0" y="311.25" width="37.5" height="3.75" class="st1"/>
			<text x="0" y="315.37" class="st2" v:langID="1033"><v:paragraph/><v:tabList/>Virus</text>		</g>
		<g id="shape56-135" v:mID="56" v:groupContext="shape" transform="translate(448.5,-174.75)">
			<title>Tabelle.56</title>
			<desc>checker</desc>
			<v:textBlock v:margins="rect(0,0,0,0)"/>
			<v:textRect cx="26.25" cy="313.125" width="52.51" height="3.75"/>
			<rect x="0" y="311.25" width="52.5" height="3.75" class="st1"/>
			<text x="0" y="315.37" class="st2" v:langID="1033"><v:paragraph/><v:tabList/>checker</text>		</g>
		<g id="shape57-138" v:mID="57" v:groupContext="shape" transform="translate(384.75,-185.25)">
			<title>Tabelle.57</title>
			<desc>SEC.</desc>
			<v:textBlock v:margins="rect(0,0,0,0)"/>
			<v:textRect cx="15" cy="313.125" width="30.01" height="3.75"/>
			<rect x="0" y="311.25" width="30" height="3.75" class="st1"/>
			<text x="0" y="315.37" class="st2" v:langID="1033"><v:paragraph/><v:tabList/>SEC.</text>		</g>
		<g id="shape58-141" v:mID="58" v:groupContext="shape" transform="translate(377.25,-174.75)">
			<title>Tabelle.58</title>
			<desc>protocols</desc>
			<v:textBlock v:margins="rect(0,0,0,0)"/>
			<v:textRect cx="33.75" cy="313.125" width="67.5" height="3.75"/>
			<rect x="0" y="311.25" width="67.5" height="3.75" class="st1"/>
			<text x="0" y="315.37" class="st2" v:langID="1033"><v:paragraph/><v:tabList/>protocols</text>		</g>
		<g id="shape59-144" v:mID="59" v:groupContext="shape" transform="translate(382.5,-147.75)">
			<title>Tabelle.59</title>
			<desc>file access</desc>
			<v:textBlock v:margins="rect(0,0,0,0)"/>
			<v:textRect cx="41.25" cy="313.125" width="82.5" height="3.75"/>
			<rect x="0" y="311.25" width="82.5" height="3.75" class="st1"/>
			<text x="0" y="315.37" class="st2" v:langID="1033"><v:paragraph/><v:tabList/>file access</text>		</g>
		<g id="shape60-147" v:mID="60" v:groupContext="shape" transform="translate(383.25,-137.25)">
			<title>Tabelle.60</title>
			<desc>control &#38;</desc>
			<v:textBlock v:margins="rect(0,0,0,0)"/>
			<v:textRect cx="33.75" cy="313.125" width="67.5" height="3.75"/>
			<rect x="0" y="311.25" width="67.5" height="3.75" class="st1"/>
			<text x="0" y="315.37" class="st2" v:langID="1033"><v:paragraph/><v:tabList/>control &#38;</text>		</g>
		<g id="shape61-150" v:mID="61" v:groupContext="shape" transform="translate(380.25,-126)">
			<title>Tabelle.61</title>
			<desc>accounting</desc>
			<v:textBlock v:margins="rect(0,0,0,0)"/>
			<v:textRect cx="37.5" cy="313.125" width="75" height="3.75"/>
			<rect x="0" y="311.25" width="75" height="3.75" class="st1"/>
			<text x="0" y="315.37" class="st2" v:langID="1033"><v:paragraph/><v:tabList/>accounting</text>		</g>
		<g id="shape62-153" v:mID="62" v:groupContext="shape" transform="translate(217.5,-186)">
			<title>Tabelle.62</title>
			<desc>File</desc>
			<v:textBlock v:margins="rect(0,0,0,0)"/>
			<v:textRect cx="15" cy="313.125" width="30" height="3.75"/>
			<rect x="0" y="311.25" width="30" height="3.75" class="st1"/>
			<text x="0" y="315.37" class="st2" v:langID="1033"><v:paragraph/><v:tabList/>File</text>		</g>
		<g id="shape63-156" v:mID="63" v:groupContext="shape" transform="translate(214.5,-175.5)">
			<title>Tabelle.63</title>
			<desc>SRV</desc>
			<v:textBlock v:margins="rect(0,0,0,0)"/>
			<v:textRect cx="11.25" cy="313.125" width="22.5" height="3.75"/>
			<rect x="0" y="311.25" width="22.5" height="3.75" class="st1"/>
			<text x="0" y="315.37" class="st2" v:langID="1033"><v:paragraph/><v:tabList/>SRV</text>		</g>
		<g id="shape64-159" v:mID="64" v:groupContext="shape" transform="translate(238.5,-186)">
			<title>Tabelle.64</title>
			<desc>COMMS</desc>
			<v:textBlock v:margins="rect(0,0,0,0)"/>
			<v:textRect cx="18.75" cy="313.125" width="37.5" height="3.75"/>
			<rect x="0" y="311.25" width="37.5" height="3.75" class="st1"/>
			<text x="0" y="315.37" class="st2" v:langID="1033"><v:paragraph/><v:tabList/>COMMS</text>		</g>
		<g id="shape65-162" v:mID="65" v:groupContext="shape" transform="translate(240,-175.5)">
			<title>Tabelle.65</title>
			<desc>services</desc>
			<v:textBlock v:margins="rect(0,0,0,0)"/>
			<v:textRect cx="30" cy="313.125" width="60" height="3.75"/>
			<rect x="0" y="311.25" width="60" height="3.75" class="st1"/>
			<text x="0" y="315.37" class="st2" v:langID="1033"><v:paragraph/><v:tabList/>services</text>		</g>
		<g id="shape66-165" v:mID="66" v:groupContext="shape" transform="translate(108,-185.25)">
			<title>Tabelle.66</title>
			<desc>network</desc>
			<v:textBlock v:margins="rect(0,0,0,0)"/>
			<v:textRect cx="26.25" cy="313.125" width="52.5" height="3.75"/>
			<rect x="0" y="311.25" width="52.5" height="3.75" class="st1"/>
			<text x="0" y="315.37" class="st2" v:langID="1033"><v:paragraph/><v:tabList/>network</text>		</g>
		<g id="shape67-168" v:mID="67" v:groupContext="shape" transform="translate(107.25,-174.75)">
			<title>Tabelle.67</title>
			<desc>directory</desc>
			<v:textBlock v:margins="rect(0,0,0,0)"/>
			<v:textRect cx="33.75" cy="313.125" width="67.5" height="3.75"/>
			<rect x="0" y="311.25" width="67.5" height="3.75" class="st1"/>
			<text x="0" y="315.37" class="st2" v:langID="1033"><v:paragraph/><v:tabList/>directory</text>		</g>
		<g id="shape68-171" v:mID="68" v:groupContext="shape" transform="translate(75,-186)">
			<title>Tabelle.68</title>
			<desc>Managt</desc>
			<v:textBlock v:margins="rect(0,0,0,0)"/>
			<v:textRect cx="22.5" cy="313.125" width="45" height="3.75"/>
			<rect x="0" y="311.25" width="45" height="3.75" class="st1"/>
			<text x="0" y="315.37" class="st2" v:langID="1033"><v:paragraph/><v:tabList/>Managt</text>		</g>
		<g id="shape69-174" v:mID="69" v:groupContext="shape" transform="translate(78,-174.75)">
			<title>Tabelle.69</title>
			<desc>Agent</desc>
			<v:textBlock v:margins="rect(0,0,0,0)"/>
			<v:textRect cx="18.75" cy="313.125" width="37.5" height="3.75"/>
			<rect x="0" y="311.25" width="37.5" height="3.75" class="st1"/>
			<text x="0" y="315.37" class="st2" v:langID="1033"><v:paragraph/><v:tabList/>Agent</text>		</g>
		<g id="shape70-177" v:mID="70" v:groupContext="shape" transform="translate(312.75,-186)">
			<title>Tabelle.70</title>
			<desc>WIN</desc>
			<v:textBlock v:margins="rect(0,0,0,0)"/>
			<v:textRect cx="11.25" cy="313.125" width="22.5" height="3.75"/>
			<rect x="0" y="311.25" width="22.5" height="3.75" class="st1"/>
			<text x="0" y="315.37" class="st2" v:langID="1033"><v:paragraph/><v:tabList/>WIN</text>		</g>
		<g id="shape71-180" v:mID="71" v:groupContext="shape" transform="translate(303.75,-175.5)">
			<title>Tabelle.71</title>
			<desc>Terminal</desc>
			<v:textBlock v:margins="rect(0,0,0,0)"/>
			<v:textRect cx="30" cy="313.125" width="60" height="3.75"/>
			<rect x="0" y="311.25" width="60" height="3.75" class="st1"/>
			<text x="0" y="315.37" class="st2" v:langID="1033"><v:paragraph/><v:tabList/>Terminal</text>		</g>
		<g id="shape72-183" v:mID="72" v:groupContext="shape" transform="translate(429.75,-228)">
			<title>Tabelle.72</title>
			<desc>Distributed</desc>
			<v:textBlock v:margins="rect(0,0,0,0)"/>
			<v:textRect cx="41.25" cy="313.125" width="82.5" height="3.75"/>
			<rect x="0" y="311.25" width="82.5" height="3.75" class="st1"/>
			<text x="0" y="315.37" class="st2" v:langID="1033"><v:paragraph/><v:tabList/>Distributed</text>		</g>
		<g id="shape73-186" v:mID="73" v:groupContext="shape" transform="translate(423.75,-216.75)">
			<title>Tabelle.73</title>
			<desc>authentication</desc>
			<v:textBlock v:margins="rect(0,0,0,0)"/>
			<v:textRect cx="52.5" cy="313.125" width="105" height="3.75"/>
			<rect x="0" y="311.25" width="105" height="3.75" class="st1"/>
			<text x="0" y="315.37" class="st2" v:langID="1033"><v:paragraph/><v:tabList/>authentication</text>		</g>
		<g id="shape74-189" v:mID="74" v:groupContext="shape" transform="translate(75.75,-85.5)">
			<title>Tabelle.74</title>
			<rect x="0" y="288" width="46.5" height="27" class="st9"/>
		</g>
		<g id="shape75-191" v:mID="75" v:groupContext="shape" transform="translate(78,-103.5)">
			<title>Tabelle.75</title>
			<desc>bandwidth</desc>
			<v:textBlock v:margins="rect(0,0,0,0)"/>
			<v:textRect cx="33.75" cy="313.125" width="67.5" height="3.75"/>
			<rect x="0" y="311.25" width="67.5" height="3.75" class="st1"/>
			<text x="0" y="315.37" class="st2" v:langID="1033"><v:paragraph/><v:tabList/>bandwidth</text>		</g>
		<g id="shape76-194" v:mID="76" v:groupContext="shape" transform="translate(78,-93)">
			<title>Tabelle.76</title>
			<desc>reservation</desc>
			<v:textBlock v:margins="rect(0,0,0,0)"/>
			<v:textRect cx="41.25" cy="313.125" width="82.5" height="3.75"/>
			<rect x="0" y="311.25" width="82.5" height="3.75" class="st1"/>
			<text x="0" y="315.37" class="st2" v:langID="1033"><v:paragraph/><v:tabList/>reservation</text>		</g>
		<g id="shape77-197" v:mID="77" v:groupContext="shape" transform="translate(126,-85.5)">
			<title>Tabelle.77</title>
			<rect x="0" y="288" width="44.25" height="27" class="st9"/>
		</g>
		<g id="shape78-199" v:mID="78" v:groupContext="shape" transform="translate(126.75,-103.5)">
			<title>Tabelle.78</title>
			<desc>IPaddress</desc>
			<v:textBlock v:margins="rect(0,0,0,0)"/>
			<v:textRect cx="33.75" cy="313.125" width="67.5" height="3.75"/>
			<rect x="0" y="311.25" width="67.5" height="3.75" class="st1"/>
			<text x="0" y="315.37" class="st2" v:langID="1033"><v:paragraph/><v:tabList/>IPaddress</text>		</g>
		<g id="shape79-202" v:mID="79" v:groupContext="shape" transform="translate(129,-93)">
			<title>Tabelle.79</title>
			<desc>allocation</desc>
			<v:textBlock v:margins="rect(0,0,0,0)"/>
			<v:textRect cx="37.5" cy="313.125" width="75.01" height="3.75"/>
			<rect x="0" y="311.25" width="75" height="3.75" class="st1"/>
			<text x="0" y="315.37" class="st2" v:langID="1033"><v:paragraph/><v:tabList/>allocation</text>		</g>
		<g id="shape80-205" v:mID="80" v:groupContext="shape" transform="translate(390,-108)">
			<title>Tabelle.80</title>
			<desc>network</desc>
			<v:textBlock v:margins="rect(0,0,0,0)"/>
			<v:textRect cx="26.25" cy="313.125" width="52.51" height="3.75"/>
			<rect x="0" y="311.25" width="52.5" height="3.75" class="st1"/>
			<text x="0" y="315.37" class="st2" v:langID="1033"><v:paragraph/><v:tabList/>network</text>		</g>
		<g id="shape81-208" v:mID="81" v:groupContext="shape" transform="translate(379.5,-97.5)">
			<title>Tabelle.81</title>
			<desc>access control</desc>
			<v:textBlock v:margins="rect(0,0,0,0)"/>
			<v:textRect cx="52.5" cy="313.125" width="105" height="3.75"/>
			<rect x="0" y="311.25" width="105" height="3.75" class="st1"/>
			<text x="0" y="315.37" class="st2" v:langID="1033"><v:paragraph/><v:tabList/>access control</text>		</g>
		<g id="shape82-211" v:mID="82" v:groupContext="shape" transform="translate(380.25,-87)">
			<title>Tabelle.82</title>
			<desc>&#38; accounting</desc>
			<v:textBlock v:margins="rect(0,0,0,0)"/>
			<v:textRect cx="45" cy="313.125" width="90" height="3.75"/>
			<rect x="0" y="311.25" width="90" height="3.75" class="st1"/>
			<text x="0" y="315.37" class="st2" v:langID="1033"><v:paragraph/><v:tabList/>&#38; accounting</text>		</g>
		<g id="shape83-214" v:mID="83" v:groupContext="shape" transform="translate(343.5,-186)">
			<title>Tabelle.83</title>
			<desc>Printing</desc>
			<v:textBlock v:margins="rect(0,0,0,0)"/>
			<v:textRect cx="30" cy="313.125" width="60" height="3.75"/>
			<rect x="0" y="311.25" width="60" height="3.75" class="st1"/>
			<text x="0" y="315.37" class="st2" v:langID="1033"><v:paragraph/><v:tabList/>Printing</text>		</g>
		<g id="shape84-217" v:mID="84" v:groupContext="shape" transform="translate(349.5,-175.5)">
			<title>Tabelle.84</title>
			<desc>SRV</desc>
			<v:textBlock v:margins="rect(0,0,0,0)"/>
			<v:textRect cx="11.25" cy="313.125" width="22.5" height="3.75"/>
			<rect x="0" y="311.25" width="22.5" height="3.75" class="st1"/>
			<text x="0" y="315.37" class="st2" v:langID="1033"><v:paragraph/><v:tabList/>SRV</text>		</g>
		<g id="shape85-220" v:mID="85" v:groupContext="shape" transform="translate(279.75,-191.25)">
			<title>Tabelle.85</title>
			<desc>DNS</desc>
			<v:textBlock v:margins="rect(0,0,0,0)"/>
			<v:textRect cx="11.25" cy="313.125" width="22.5" height="3.75"/>
			<rect x="0" y="311.25" width="22.5" height="3.75" class="st1"/>
			<text x="0" y="315.37" class="st2" v:langID="1033"><v:paragraph/><v:tabList/>DNS</text>		</g>
		<g id="shape86-223" v:mID="86" v:groupContext="shape" transform="translate(285,-180.75)">
			<title>Tabelle.86</title>
			<desc>&#38;</desc>
			<v:textBlock v:margins="rect(0,0,0,0)"/>
			<v:textRect cx="3.75" cy="313.125" width="7.51" height="3.75"/>
			<rect x="0" y="311.25" width="7.5" height="3.75" class="st1"/>
			<text x="0" y="315.37" class="st2" v:langID="1033"><v:paragraph/><v:tabList/>&#38;</text>		</g>
		<g id="shape87-226" v:mID="87" v:groupContext="shape" transform="translate(276.75,-169.5)">
			<title>Tabelle.87</title>
			<desc>WINS</desc>
			<v:textBlock v:margins="rect(0,0,0,0)"/>
			<v:textRect cx="15" cy="313.125" width="30.01" height="3.75"/>
			<rect x="0" y="311.25" width="30" height="3.75" class="st1"/>
			<text x="0" y="315.37" class="st2" v:langID="1033"><v:paragraph/><v:tabList/>WINS</text>		</g>
		<g id="shape88-229" v:mID="88" v:groupContext="shape" transform="translate(145.5,-186)">
			<title>Tabelle.88</title>
			<desc>Instal.</desc>
			<v:textBlock v:margins="rect(0,0,0,0)"/>
			<v:textRect cx="26.25" cy="313.125" width="52.5" height="3.75"/>
			<rect x="0" y="311.25" width="52.5" height="3.75" class="st1"/>
			<text x="0" y="315.37" class="st2" v:langID="1033"><v:paragraph/><v:tabList/>Instal.</text>		</g>
		<g id="shape89-232" v:mID="89" v:groupContext="shape" transform="translate(149.25,-173.25)">
			<title>Tabelle.89</title>
			<desc>SRV</desc>
			<v:textBlock v:margins="rect(0,0,0,0)"/>
			<v:textRect cx="11.25" cy="313.125" width="22.5" height="3.75"/>
			<rect x="0" y="311.25" width="22.5" height="3.75" class="st1"/>
			<text x="0" y="315.37" class="st2" v:langID="1033"><v:paragraph/><v:tabList/>SRV</text>		</g>
		<g id="shape90-235" v:mID="90" v:groupContext="shape" transform="translate(126.75,-228.75)">
			<title>Tabelle.90</title>
			<desc>Instal.</desc>
			<v:textBlock v:margins="rect(0,0,0,0)"/>
			<v:textRect cx="26.25" cy="313.125" width="52.5" height="3.75"/>
			<rect x="0" y="311.25" width="52.5" height="3.75" class="st1"/>
			<text x="0" y="315.37" class="st2" v:langID="1033"><v:paragraph/><v:tabList/>Instal.</text>		</g>
		<g id="shape91-238" v:mID="91" v:groupContext="shape" transform="translate(131.25,-216)">
			<title>Tabelle.91</title>
			<desc>files</desc>
			<v:textBlock v:margins="rect(0,0,0,0)"/>
			<v:textRect cx="18.75" cy="313.125" width="37.51" height="3.75"/>
			<rect x="0" y="311.25" width="37.5" height="3.75" class="st1"/>
			<text x="0" y="315.37" class="st2" v:langID="1033"><v:paragraph/><v:tabList/>files</text>		</g>
		<g id="shape92-241" v:mID="92" v:groupContext="shape" transform="translate(78.75,-228)">
			<title>Tabelle.92</title>
			<desc>Group</desc>
			<v:textBlock v:margins="rect(0,0,0,0)"/>
			<v:textRect cx="18.75" cy="313.125" width="37.5" height="3.75"/>
			<rect x="0" y="311.25" width="37.5" height="3.75" class="st1"/>
			<text x="0" y="315.37" class="st2" v:langID="1033"><v:paragraph/><v:tabList/>Group</text>		</g>
		<g id="shape93-244" v:mID="93" v:groupContext="shape" transform="translate(81.75,-216)">
			<title>Tabelle.93</title>
			<desc>policy</desc>
			<v:textBlock v:margins="rect(0,0,0,0)"/>
			<v:textRect cx="22.5" cy="313.125" width="45" height="3.75"/>
			<rect x="0" y="311.25" width="45" height="3.75" class="st1"/>
			<text x="0" y="315.37" class="st2" v:langID="1033"><v:paragraph/><v:tabList/>policy</text>		</g>
		<g id="shape94-247" v:mID="94" v:groupContext="shape" transform="translate(183.75,-186)">
			<title>Tabelle.94</title>
			<desc>User</desc>
			<v:textBlock v:margins="rect(0,0,0,0)"/>
			<v:textRect cx="15" cy="313.125" width="30" height="3.75"/>
			<rect x="0" y="311.25" width="30" height="3.75" class="st1"/>
			<text x="0" y="315.37" class="st2" v:langID="1033"><v:paragraph/><v:tabList/>User</text>		</g>
		<g id="shape95-250" v:mID="95" v:groupContext="shape" transform="translate(177,-175.5)">
			<title>Tabelle.95</title>
			<desc>roaming</desc>
			<v:textBlock v:margins="rect(0,0,0,0)"/>
			<v:textRect cx="26.25" cy="313.125" width="52.5" height="3.75"/>
			<rect x="0" y="311.25" width="52.5" height="3.75" class="st1"/>
			<text x="0" y="315.37" class="st2" v:langID="1033"><v:paragraph/><v:tabList/>roaming</text>		</g>
		<g id="shape96-253" v:mID="96" v:groupContext="shape" transform="translate(383.25,-228)">
			<title>Tabelle.96</title>
			<desc>&#34;SEC.</desc>
			<v:textBlock v:margins="rect(0,0,0,0)"/>
			<v:textRect cx="18.75" cy="313.125" width="37.5" height="3.75"/>
			<rect x="0" y="311.25" width="37.5" height="3.75" class="st1"/>
			<text x="0" y="315.37" class="st2" v:langID="1033"><v:paragraph/><v:tabList/>&#34;SEC.</text>		</g>
		<g id="shape97-256" v:mID="97" v:groupContext="shape" transform="translate(382.5,-217.5)">
			<title>Tabelle.97</title>
			<desc>Policy&#34;</desc>
			<v:textBlock v:margins="rect(0,0,0,0)"/>
			<v:textRect cx="26.25" cy="313.125" width="52.51" height="3.75"/>
			<rect x="0" y="311.25" width="52.5" height="3.75" class="st1"/>
			<text x="0" y="315.37" class="st2" v:langID="1033"><v:paragraph/><v:tabList/>Policy&#34;</text>		</g>
		<g id="shape98-259" v:mID="98" v:groupContext="shape" transform="translate(439.5,-143.25)">
			<title>Tabelle.98</title>
			<desc>Security</desc>
			<v:textBlock v:margins="rect(0,0,0,0)"/>
			<v:textRect cx="30" cy="313.125" width="60" height="3.75"/>
			<rect x="0" y="311.25" width="60" height="3.75" class="st1"/>
			<text x="0" y="315.37" class="st2" v:langID="1033"><v:paragraph/><v:tabList/>Security</text>		</g>
		<g id="shape99-262" v:mID="99" v:groupContext="shape" transform="translate(441.75,-132)">
			<title>Tabelle.99</title>
			<desc>library</desc>
			<v:textBlock v:margins="rect(0,0,0,0)"/>
			<v:textRect cx="26.25" cy="313.125" width="52.51" height="3.75"/>
			<rect x="0" y="311.25" width="52.5" height="3.75" class="st1"/>
			<text x="0" y="315.37" class="st2" v:langID="1033"><v:paragraph/><v:tabList/>library</text>		</g>
		<g id="shape100-265" v:mID="100" v:groupContext="shape" transform="translate(250.5,-103.5)">
			<title>Tabelle.100</title>
			<desc>IP load</desc>
			<v:textBlock v:margins="rect(0,0,0,0)"/>
			<v:textRect cx="26.25" cy="313.125" width="52.5" height="3.75"/>
			<rect x="0" y="311.25" width="52.5" height="3.75" class="st1"/>
			<text x="0" y="315.37" class="st2" v:langID="1033"><v:paragraph/><v:tabList/>IP load</text>		</g>
		<g id="shape101-268" v:mID="101" v:groupContext="shape" transform="translate(245.25,-93)">
			<title>Tabelle.101</title>
			<desc>balancing</desc>
			<v:textBlock v:margins="rect(0,0,0,0)"/>
			<v:textRect cx="33.75" cy="313.125" width="67.5" height="3.75"/>
			<rect x="0" y="311.25" width="67.5" height="3.75" class="st1"/>
			<text x="0" y="315.37" class="st2" v:langID="1033"><v:paragraph/><v:tabList/>balancing</text>		</g>
		<g id="shape102-271" v:mID="102" v:groupContext="shape" transform="translate(198.75,-86.25)">
			<title>Tabelle.102</title>
			<rect x="0" y="288" width="40.5" height="27" class="st9"/>
		</g>
		<g id="shape103-273" v:mID="103" v:groupContext="shape" transform="translate(214.5,-104.25)">
			<title>Tabelle.103</title>
			<desc>IP</desc>
			<v:textBlock v:margins="rect(0,0,0,0)"/>
			<v:textRect cx="7.5" cy="313.125" width="15.01" height="3.75"/>
			<rect x="0" y="311.25" width="15" height="3.75" class="st1"/>
			<text x="0" y="315.37" class="st2" v:langID="1033"><v:paragraph/><v:tabList/>IP</text>		</g>
		<g id="shape104-276" v:mID="104" v:groupContext="shape" transform="translate(204.75,-93)">
			<title>Tabelle.104</title>
			<desc>routing</desc>
			<v:textBlock v:margins="rect(0,0,0,0)"/>
			<v:textRect cx="26.25" cy="313.125" width="52.5" height="3.75"/>
			<rect x="0" y="311.25" width="52.5" height="3.75" class="st1"/>
			<text x="0" y="315.37" class="st2" v:langID="1033"><v:paragraph/><v:tabList/>routing</text>		</g>
		<g id="shape105-279" v:mID="105" v:groupContext="shape" transform="translate(19.5,-53.25)">
			<title>Tabelle.105</title>
			<desc>Legend:</desc>
			<v:textBlock v:margins="rect(0,0,0,0)"/>
			<v:textRect cx="36.75" cy="312.375" width="73.5" height="5.25"/>
			<rect x="0" y="309.75" width="73.5" height="5.25" class="st1"/>
			<text x="0" y="315.52" class="st10" v:langID="1033"><v:paragraph/><v:tabList/>Legend:</text>		</g>
		<g id="shape106-282" v:mID="106" v:groupContext="shape" transform="translate(116.25,-51)">
			<title>Tabelle.106</title>
			<desc>optional</desc>
			<v:textBlock v:margins="rect(0,0,0,0)"/>
			<v:textRect cx="30" cy="313.125" width="60" height="3.75"/>
			<rect x="0" y="311.25" width="60" height="3.75" class="st1"/>
			<text x="0" y="315.37" class="st2" v:langID="1033"><v:paragraph/><v:tabList/>optional</text>		</g>
		<g id="shape107-285" v:mID="107" v:groupContext="shape" transform="translate(63.75,-33)">
			<title>Tabelle.107</title>
			<rect x="0" y="278.25" width="44.25" height="36.75" class="st4"/>
		</g>
		<g id="shape108-287" v:mID="108" v:groupContext="shape" transform="translate(69,-51)">
			<title>Tabelle.108</title>
			<desc>required</desc>
			<v:textBlock v:margins="rect(0,0,0,0)"/>
			<v:textRect cx="30" cy="313.125" width="60" height="3.75"/>
			<rect x="0" y="311.25" width="60" height="3.75" class="st1"/>
			<text x="0" y="315.37" class="st2" v:langID="1033"><v:paragraph/><v:tabList/>required</text>		</g>
		<g id="shape109-290" v:mID="109" v:groupContext="shape" transform="translate(474.75,-56.25)">
			<title>Tabelle.109</title>
			<desc>security</desc>
			<v:textBlock v:margins="rect(0,0,0,0)"/>
			<v:textRect cx="30" cy="313.125" width="60" height="3.75"/>
			<rect x="0" y="311.25" width="60" height="3.75" class="st1"/>
			<text x="0" y="315.37" class="st2" v:langID="1033"><v:paragraph/><v:tabList/>security</text>		</g>
		<g id="shape110-293" v:mID="110" v:groupContext="shape" transform="translate(465,-45)">
			<title>Tabelle.110</title>
			<desc>components</desc>
			<v:textBlock v:margins="rect(0,0,0,0)"/>
			<v:textRect cx="37.5" cy="313.125" width="75.01" height="3.75"/>
			<rect x="0" y="311.25" width="75" height="3.75" class="st1"/>
			<text x="0" y="315.37" class="st2" v:langID="1033"><v:paragraph/><v:tabList/>components</text>		</g>
		<g id="shape111-296" v:mID="111" v:groupContext="shape" transform="translate(276,-55.5)">
			<title>Tabelle.111</title>
			<desc>management</desc>
			<v:textBlock v:margins="rect(0,0,0,0)"/>
			<v:textRect cx="37.5" cy="313.125" width="75.01" height="3.75"/>
			<rect x="0" y="311.25" width="75" height="3.75" class="st1"/>
			<text x="0" y="315.37" class="st2" v:langID="1033"><v:paragraph/><v:tabList/>management</text>		</g>
		<g id="shape112-299" v:mID="112" v:groupContext="shape" transform="translate(279,-45)">
			<title>Tabelle.112</title>
			<desc>components</desc>
			<v:textBlock v:margins="rect(0,0,0,0)"/>
			<v:textRect cx="37.5" cy="313.125" width="75" height="3.75"/>
			<rect x="0" y="311.25" width="75" height="3.75" class="st1"/>
			<text x="0" y="315.37" class="st2" v:langID="1033"><v:paragraph/><v:tabList/>components</text>		</g>
		<g id="shape113-302" v:mID="113" v:groupContext="shape" transform="translate(338.25,-55.5)">
			<title>Tabelle.113</title>
			<desc>interoperability</desc>
			<v:textBlock v:margins="rect(0,0,0,0)"/>
			<v:textRect cx="60" cy="313.125" width="120" height="3.75"/>
			<rect x="0" y="311.25" width="120" height="3.75" class="st1"/>
			<text x="0" y="315.37" class="st2" v:langID="1033"><v:paragraph/><v:tabList/>interoperability</text>		</g>
		<g id="shape114-305" v:mID="114" v:groupContext="shape" transform="translate(345.75,-45)">
			<title>Tabelle.114</title>
			<desc>components</desc>
			<v:textBlock v:margins="rect(0,0,0,0)"/>
			<v:textRect cx="37.5" cy="313.125" width="75.01" height="3.75"/>
			<rect x="0" y="311.25" width="75" height="3.75" class="st1"/>
			<text x="0" y="315.37" class="st2" v:langID="1033"><v:paragraph/><v:tabList/>components</text>		</g>
		<g id="shape115-308" v:mID="115" v:groupContext="shape" transform="translate(218.25,-33)">
			<title>Tabelle.115</title>
			<rect x="0" y="278.25" width="53.25" height="36.75" class="st11"/>
		</g>
		<g id="shape116-310" v:mID="116" v:groupContext="shape" transform="translate(228,-55.5)">
			<title>Tabelle.116</title>
			<desc>network</desc>
			<v:textBlock v:margins="rect(0,0,0,0)"/>
			<v:textRect cx="26.25" cy="313.125" width="52.5" height="3.75"/>
			<rect x="0" y="311.25" width="52.5" height="3.75" class="st1"/>
			<text x="0" y="315.37" class="st2" v:langID="1033"><v:paragraph/><v:tabList/>network</text>		</g>
		<g id="shape117-313" v:mID="117" v:groupContext="shape" transform="translate(221.25,-45)">
			<title>Tabelle.117</title>
			<desc>components</desc>
			<v:textBlock v:margins="rect(0,0,0,0)"/>
			<v:textRect cx="37.5" cy="313.125" width="75.01" height="3.75"/>
			<rect x="0" y="311.25" width="75" height="3.75" class="st1"/>
			<text x="0" y="315.37" class="st2" v:langID="1033"><v:paragraph/><v:tabList/>components</text>		</g>
		<g id="shape118-316" v:mID="118" v:groupContext="shape" transform="translate(446.25,-96.75)">
			<title>Tabelle.118</title>
			<desc>VPN</desc>
			<v:textBlock v:margins="rect(0,0,0,0)"/>
			<v:textRect cx="11.25" cy="313.125" width="22.5" height="3.75"/>
			<rect x="0" y="311.25" width="22.5" height="3.75" class="st1"/>
			<text x="0" y="315.37" class="st2" v:langID="1033"><v:paragraph/><v:tabList/>VPN</text>		</g>
		<g id="shape119-319" v:mID="119" v:groupContext="shape" transform="translate(418.5,-55.5)">
			<title>Tabelle.119</title>
			<desc>&#34;base&#34;</desc>
			<v:textBlock v:margins="rect(0,0,0,0)"/>
			<v:textRect cx="22.5" cy="313.125" width="45" height="3.75"/>
			<rect x="0" y="311.25" width="45" height="3.75" class="st1"/>
			<text x="0" y="315.37" class="st2" v:langID="1033"><v:paragraph/><v:tabList/>&#34;base&#34;</text>		</g>
		<g id="shape120-322" v:mID="120" v:groupContext="shape" transform="translate(406.5,-44.25)">
			<title>Tabelle.120</title>
			<desc>components</desc>
			<v:textBlock v:margins="rect(0,0,0,0)"/>
			<v:textRect cx="37.5" cy="313.125" width="75.01" height="3.75"/>
			<rect x="0" y="311.25" width="75" height="3.75" class="st1"/>
			<text x="0" y="315.37" class="st2" v:langID="1033"><v:paragraph/><v:tabList/>components</text>		</g>
	</g>
</svg>
