<?xml version="1.0" standalone="no"?>
<!DOCTYPE svg PUBLIC "-//W3C//DTD SVG 1.0//EN"
	"http://www.w3.org/TR/2001/REC-SVG-20010904/DTD/svg10.dtd">
<svg width="450" height="450">
	<title>Target dependicies</title>
	<rect x="15" y="15" width="84" height="24" style="fill:none;stroke:rgb(0,0,0);stroke-width:1"/>
	<text x="20" y="30" style="fill:rgb(0,0,0);font-family:Arial;font-size:12">all</text>
<!-- HTML targets -->
	<rect x="125" y="15" width="84" height="24" style="fill:none;stroke:rgb(0,0,0);stroke-width:1"
		transform="translate(0 0)"/>
	<text x="130" y="30" style="fill:rgb(0,0,0);font-size:12;font-family:Arial">html</text>
	<rect x="235" y="15" width="84" height="24" style="fill:none;stroke:rgb(0,0,0);stroke-width:1"/>
	<text x="240" y="30" style="fill:rgb(0,0,0);font-size:12;font-family:Arial">vol1.html</text>
	<rect x="235" y="45" width="84" height="24" style="fill:none;stroke:rgb(0,0,0);stroke-width:1"/>
	<text x="240" y="60" style="fill:rgb(0,0,0);font-size:12;font-family:Arial">vol2.html</text>
	<rect x="235" y="75" width="84" height="24" style="fill:none;stroke:rgb(0,0,0);stroke-width:1"/>
	<text x="240" y="90" style="fill:rgb(0,0,0);font-size:12;font-family:Arial">vol3.html</text>
	<rect x="345" y="195" width="84" height="24" style="fill:none;stroke:rgb(0,0,0);stroke-width:1"/>
	<text x="350" y="210" style="fill:rgb(0,0,0);font-size:12;font-family:Arial">vol3.raw</text>
	<rect x="235" y="105" width="84" height="24" style="fill:none;stroke:rgb(0,0,0);stroke-width:1"/>
	<text x="240" y="120" style="fill:rgb(0,0,0);font-size:12;font-family:Arial">vol4.html</text>
	<rect x="235" y="135" width="84" height="24" style="fill:none;stroke:rgb(0,0,0);stroke-width:1"/>
	<text x="240" y="150" style="fill:rgb(0,0,0);font-size:12;font-family:Arial">vol5.html</text>
	<rect x="235" y="165" width="84" height="24" style="fill:none;stroke:rgb(0,0,0);stroke-width:1"/>
	<text x="240" y="180" style="fill:rgb(0,0,0);font-size:12;font-family:Arial">rationale.html</text>
	<rect x="235" y="195" width="84" height="24" style="fill:none;stroke:rgb(0,0,0);stroke-width:1"/>
	<text x="240" y="210" style="fill:rgb(0,0,0);font-size:12;font-family:Arial">acronyms</text>
	<rect x="235" y="225" width="84" height="24" style="fill:none;stroke:rgb(0,0,0);stroke-width:1"/>
	<text x="240" y="240" style="fill:rgb(0,0,0);font-size:12;font-family:Arial">master</text>
	<rect x="125" y="255" width="84" height="24" style="fill:none;stroke:rgb(0,0,0);stroke-width:1"/>
<!-- PDF targets -->
	<text x="130" y="270" style="fill:rgb(0,0,0);font-size:12;font-family:Arial">pdf</text>
	<rect x="235" y="255" width="84" height="24" style="fill:none;stroke:rgb(0,0,0);stroke-width:1"/>
	<text x="240" y="270" style="fill:rgb(0,0,0);font-size:12;font-family:Arial">vol1.pdf</text>
	<rect x="235" y="285" width="84" height="24" style="fill:none;stroke:rgb(0,0,0);stroke-width:1"/>
	<text x="240" y="300" style="fill:rgb(0,0,0);font-size:12;font-family:Arial">vol2.pdf</text>
	<rect x="235" y="315" width="84" height="24" style="fill:none;stroke:rgb(0,0,0);stroke-width:1"/>
	<text x="240" y="330" style="fill:rgb(0,0,0);font-size:12;font-family:Arial">vol3.pdf</text>
	<rect x="235" y="345" width="84" height="24" style="fill:none;stroke:rgb(0,0,0);stroke-width:1"/>
	<text x="240" y="360" style="fill:rgb(0,0,0);font-size:12;font-family:Arial">vol4.pdf</text>
	<rect x="235" y="375" width="84" height="24" style="fill:none;stroke:rgb(0,0,0);stroke-width:1"/>
	<text x="240" y="390" style="fill:rgb(0,0,0);font-size:12;font-family:Arial">vol5.pdf</text>
	<rect x="235" y="405" width="84" height="24" style="fill:none;stroke:rgb(0,0,0);stroke-width:1"/>
	<text x="240" y="420" style="fill:rgb(0,0,0);font-size:12;font-family:Arial">rationale.pdf</text>
<!--
	<rect x="194" y="28" width="84" height="24"
		 style="fill:none;stroke:rgb(0,0,0);stroke-width:1"/>
-->
	<line x1="99" y1="27" x2="125" y2="27" style="fill:none;stroke:rgb(0,0,0);stroke-width:2"/>
	<line x1="209" y1="27" x2="235" y2="27" style="fill:none;stroke:rgb(0,0,0);stroke-width:2"/>
	<line x1="222" y1="27" x2="222" y2="235" style="fill:none;stroke:rgb(0,0,0);stroke-width:2"/>
	<line x1="222" y1="234" x2="235" y2="234" style="fill:none;stroke:rgb(0,0,0);stroke-width:2"/>
	<line x1="235" y1="57" x2="222" y2="57" style="fill:none;stroke:rgb(0,0,0);stroke-width:2"/>
	<line x1="222" y1="86" x2="235" y2="86" style="fill:none;stroke:rgb(0,0,0);stroke-width:2"/>
	<line x1="222" y1="116" x2="235" y2="116" style="fill:none;stroke:rgb(0,0,0);stroke-width:2"/>
	<line x1="222" y1="147" x2="235" y2="147" style="fill:none;stroke:rgb(0,0,0);stroke-width:2"/>
	<line x1="222" y1="178" x2="235" y2="178" style="fill:none;stroke:rgb(0,0,0);stroke-width:2"/>
	<line x1="221" y1="207" x2="235" y2="207" style="fill:none;stroke:rgb(0,0,0);stroke-width:2"/>
	<line x1="209" y1="266" x2="235" y2="266" style="fill:none;stroke:rgb(0,0,0);stroke-width:2"/>
	<line x1="222" y1="266" x2="222" y2="416" style="fill:none;stroke:rgb(0,0,0);stroke-width:2"/>
	<line x1="222" y1="297" x2="235" y2="297" style="fill:none;stroke:rgb(0,0,0);stroke-width:2"/>
	<line x1="222" y1="328" x2="235" y2="328" style="fill:none;stroke:rgb(0,0,0);stroke-width:2"/>
	<line x1="222" y1="355" x2="235" y2="355" style="fill:none;stroke:rgb(0,0,0);stroke-width:2"/>
	<line x1="222" y1="386" x2="235" y2="386" style="fill:none;stroke:rgb(0,0,0);stroke-width:2"/>
	<line x1="221" y1="415" x2="235" y2="415" style="fill:none;stroke:rgb(0,0,0);stroke-width:2"/>
	<line x1="111" y1="28" x2="111" y2="265" style="fill:none;stroke:rgb(0,0,0);stroke-width:2"/>
	<line x1="110" y1="264" x2="125" y2="264" style="fill:none;stroke:rgb(0,0,0);stroke-width:2"/>
	<line x1="330" y1="85" x2="330" y2="329" style="fill:none;stroke:rgb(0,0,0);stroke-width:2"/>
	<line x1="319" y1="328" x2="330" y2="328" style="fill:none;stroke:rgb(0,0,0);stroke-width:2"/>
	<line x1="319" y1="86" x2="330" y2="86" style="fill:none;stroke:rgb(0,0,0);stroke-width:2"/>
	<line x1="329" y1="207" x2="345" y2="207" style="fill:none;stroke:rgb(0,0,0);stroke-width:2"/>
<!-- Volume Targets -->
	<rect x="15" y="135" width="84" height="24" style="fill:none;stroke:rgb(0,0,0);stroke-width:1"/>
	<text x="20" y="150" style="fill:rgb(0,0,0);font-family:Arial;font-size:12">vol1</text>
	<rect x="15" y="165" width="84" height="24" style="fill:none;stroke:rgb(0,0,0);stroke-width:1"/>
	<text x="20" y="180" style="fill:rgb(0,0,0);font-family:Arial;font-size:12">vol2</text>
	<rect x="15" y="195" width="84" height="24" style="fill:none;stroke:rgb(0,0,0);stroke-width:1"/>
	<text x="20" y="210" style="fill:rgb(0,0,0);font-family:Arial;font-size:12">vol3</text>
	<rect x="15" y="225" width="84" height="24" style="fill:none;stroke:rgb(0,0,0);stroke-width:1"/>
	<text x="20" y="240" style="fill:rgb(0,0,0);font-family:Arial;font-size:12">vol4</text>
	<rect x="15" y="255" width="84" height="24" style="fill:none;stroke:rgb(0,0,0);stroke-width:1"/>
	<text x="20" y="270" style="fill:rgb(0,0,0);font-family:Arial;font-size:12">vol5</text>
	<rect x="15" y="285" width="84" height="24" style="fill:none;stroke:rgb(0,0,0);stroke-width:1"/>
	<text x="20" y="300" style="fill:rgb(0,0,0);font-family:Arial;font-size:12">rationale</text>
<!--
	<ellipse cx="111" cy="206" rx="6" ry="6"
		 style="stroke:rgb(0,0,0);stroke-width:1"/>
-->
	<path d="M105 207 C105 202.686 107.686 200 111 200 C114.314 200 117 202.686 117 206 L117 206"
		 style="fill:none;stroke:rgb(0,0,0);stroke-width:2"/>
	<line x1="99" y1="206" x2="105" y2="206" style="fill:none;stroke:rgb(0,0,0);stroke-width:2"/>
	<line x1="116" y1="206" x2="217" y2="206" style="fill:none;stroke:rgb(0,0,0);stroke-width:2"/>
	<line x1="216" y1="206" x2="216" y2="80" style="fill:none;stroke:rgb(0,0,0);stroke-width:2"/>
	<line x1="105" y1="206" x2="105" y2="319" style="fill:none;stroke:rgb(0,0,0);stroke-width:2"/>
	<line x1="104" y1="320" x2="217" y2="320" style="fill:none;stroke:rgb(0,0,0);stroke-width:2"/>
<!--
	<path d="M 216 206 Q 216 201  222 201 Q 228 201  228 206" style="fill:none;stroke:rgb(0,0,0);stroke-width:2"/>
    <path d="M 216 82 Q 216 77  222 77 Q 228 77  228 82" style="fill:none;stroke:rgb(0,0,0);stroke-width:2"/>

-->
	<path d="M216 80 C216 76.6667 218 75 222 75 C226 75 228 76.6667 228 80"
		 style="fill:none;stroke:rgb(0,0,0);stroke-width:2"/>
	<line x1="227" y1="81" x2="235" y2="81" style="fill:none;stroke:rgb(0,0,0);stroke-width:2"/>
	<path d="M216 320 C216 316.667 218 315 222 315 C226 315 228 316.667 228 320"
		 style="fill:none;stroke:rgb(0,0,0);stroke-width:2"/>
	<line x1="227" y1="320" x2="235" y2="320" style="fill:none;stroke:rgb(0,0,0);stroke-width:2"/>
</svg>
