<?xml version="1.0" standalone="no"?>
<!DOCTYPE svg PUBLIC "-//W3C//DTD SVG 1.0//EN"
	"http://www.w3.org/TR/2001/REC-SVG-20010904/DTD/svg10.dtd">
<svg width="653pt" height="653pt">
  <title>System to System Interoperability Model</title>
  <circle cx="325" cy="325" r="90" style="fill:rgb(64,64,255);stroke:rgb(64,64,255);stroke-width:1"/>
  <circle cx="325" cy="70" r="50" style="fill:rgb(4,218,165);stroke:rgb(4,218,165);stroke-width:1"/>
  <circle cx="130" cy="150" r="50" style="fill:rgb(64,64,255);stroke:rgb(64,64,255);stroke-width:1"/>
  <circle cx="70" cy="325" r="50" style="fill:rgb(4,218,165);stroke:rgb(4,218,165);stroke-width:1"/>
  <circle cx="130" cy="500" r="50" style="fill:rgb(4,218,165);stroke:rgb(4,218,165);stroke-width:1"/>
  <circle cx="325" cy="580" r="50" style="fill:rgb(4,218,165);stroke:rgb(4,218,165);stroke-width:1"/>
  <circle cx="520" cy="500" r="50" style="fill:rgb(4,218,165);stroke:rgb(4,218,165);stroke-width:1"/>
  <circle cx="580" cy="325" r="50" style="fill:rgb(4,218,165);stroke:rgb(4,218,165);stroke-width:1"/>
  <circle cx="520" cy="150" r="50" style="fill:rgb(4,218,165);stroke:rgb(4,218,165);stroke-width:1"/>
  <line x1="164.305" y1="188.695" x2="248.451" y2="272.841"
     style="fill:none;stroke:rgb(0,0,0);stroke-width:2"/>
  <line x1="120" y1="325" x2="235" y2="325"
     style="fill:none;stroke:rgb(0,0,0);stroke-width:2"/>
  <line x1="415" y1="325" x2="530" y2="325"
     style="fill:none;stroke:rgb(0,0,0);stroke-width:2"/>
  <line x1="480.159" y1="183.817" x2="396.012" y2="267.963"
     style="fill:none;stroke:rgb(0,0,0);stroke-width:2"/>
  <line x1="169.183" y1="469.183" x2="255.768" y2="381.378"
     style="fill:none;stroke:rgb(0,0,0);stroke-width:2"/>
  <line x1="325" y1="415.524" x2="322.841" y2="528.939"
     style="fill:none;stroke:rgb(0,0,0);stroke-width:2"/>
  <line x1="389.915" y1="387.476" x2="475.28" y2="472.841"
     style="fill:none;stroke:rgb(0,0,0);stroke-width:2"/>
  <line x1="79.3644" y1="375.619" x2="111.44" y2="452.99"
     style="fill:none;stroke:rgb(0,0,0);stroke-width:2"/>
  <line x1="300" y1="180" x2="350" y2="180"
     style="fill:none;stroke:rgb(0,0,0);stroke-width:2"/>
  <line x1="531.378" y1="269.183" x2="531.378" y2="269.183"
     style="fill:none;stroke:rgb(0,0,0);stroke-width:2"/>
  <polygon points="253.5,184.871 260,196.129 247,196.129"
    transform="matrix(1 0 0 1.1547 71.3282 202.588)"
     style="fill:rgb(0,0,0);stroke:rgb(0,0,0);stroke-width:1"/>
  <polygon points="253.5,184.871 260,196.129 247,196.129"
    transform="matrix(1 0 0 1.1547 70.3637 258.395)"
     style="fill:rgb(0,0,0);stroke:rgb(0,0,0);stroke-width:1"/>
  <polygon points="253.5,184.871 260,196.129 247,196.129"
    transform="matrix(1 0 0 1.1547 71.6741 -31.5663)"
     style="fill:rgb(0,0,0);stroke:rgb(0,0,0);stroke-width:1"/>
  <polygon points="253.5,184.871 260,196.129 247,196.129"
    transform="matrix(1 0 0 1.1547 71.3545 -91.9173)"
     style="fill:rgb(0,0,0);stroke:rgb(0,0,0);stroke-width:1"/>
  <polygon points="253.5,184.871 260,196.129 247,196.129"
    transform="matrix(-1 3.67382e-016 -4.24216e-016 -1.1547 576.45 742.678)"
     style="fill:rgb(0,0,0);stroke:rgb(0,0,0);stroke-width:1"/>
  <polygon points="253.5,184.871 260,196.129 247,196.129"
    transform="matrix(-1.83691e-016 -1 1.1547 -2.12108e-016 -31.7561 578.281)"
     style="fill:rgb(0,0,0);stroke:rgb(0,0,0);stroke-width:1"/>
  <polygon points="253.5,184.871 260,196.129 247,196.129"
    transform="matrix(-1 3.67382e-016 -4.24216e-016 -1.1547 577.36 681.833)"
     style="fill:rgb(0,0,0);stroke:rgb(0,0,0);stroke-width:1"/>
  <polygon points="253.5,184.871 260,196.129 247,196.129"
    transform="matrix(-1 3.67382e-016 -4.24216e-016 -1.1547 578.468 391.845)"
     style="fill:rgb(0,0,0);stroke:rgb(0,0,0);stroke-width:1"/>
  <polygon points="253.5,184.871 260,196.129 247,196.129"
    transform="matrix(-1 3.67382e-016 -4.24216e-016 -1.1547 578.473 447.112)"
     style="fill:rgb(0,0,0);stroke:rgb(0,0,0);stroke-width:1"/>
  <line x1="325" y1="120" x2="325" y2="235"
     style="fill:none;stroke:rgb(0,0,0);stroke-width:2"/>
  <line x1="415" y1="210" x2="455" y2="250"
     style="fill:none;stroke:rgb(0,0,0);stroke-width:2"/>
  <line x1="480" y1="300" x2="480" y2="350"
     style="fill:none;stroke:rgb(0,0,0);stroke-width:2"/>
  <line x1="452.01" y1="422.859" x2="422.418" y2="451.431"
     style="fill:none;stroke:rgb(0,0,0);stroke-width:2"/>
  <line x1="350" y1="470" x2="300" y2="470"
     style="fill:none;stroke:rgb(0,0,0);stroke-width:2"/>
  <line x1="198.949" y1="413.675" x2="227.52" y2="441.226"
     style="fill:none;stroke:rgb(0,0,0);stroke-width:2"/>
  <line x1="180" y1="300" x2="180" y2="350"
     style="fill:none;stroke:rgb(0,0,0);stroke-width:2"/>
  <line x1="225" y1="210" x2="185" y2="250"
     style="fill:none;stroke:rgb(0,0,0);stroke-width:2"/>
  <line x1="70" y1="420" x2="115" y2="400"
     style="fill:none;stroke:rgb(0,0,0);stroke-width:2"/>
  <polygon points="253.5,184.871 260,196.129 247,196.129"
    transform="matrix(-1.83691e-016 -1 1.1547 -2.12108e-016 -92.811 578.48)"
     style="fill:rgb(0,0,0);stroke:rgb(0,0,0);stroke-width:1"/>
  <polygon points="253.5,184.871 260,196.129 247,196.129"
    transform="matrix(3.06152e-016 1 -1.1547 3.53513e-016 391.595 71.4861)"
     style="fill:rgb(0,0,0);stroke:rgb(0,0,0);stroke-width:1"/>
  <polygon points="253.5,184.871 260,196.129 247,196.129"
    transform="matrix(3.06152e-016 1 -1.1547 3.53513e-016 447.768 71.4861)"
     style="fill:rgb(0,0,0);stroke:rgb(0,0,0);stroke-width:1"/>
  <polygon points="253.5,184.871 260,196.129 247,196.129"
    transform="matrix(3.06152e-016 1 -1.1547 3.53513e-016 692.256 71.5684)"
     style="fill:rgb(0,0,0);stroke:rgb(0,0,0);stroke-width:1"/>
  <polygon points="253.5,184.871 260,196.129 247,196.129"
    transform="matrix(3.06152e-016 1 -1.1547 3.53513e-016 742.484 71.6446)"
     style="fill:rgb(0,0,0);stroke:rgb(0,0,0);stroke-width:1"/>
  <polygon points="253.5,184.871 260,196.129 247,196.129"
    transform="matrix(-4.28613e-016 -1 1.1547 -4.94918e-016 267.892 578.416)"
     style="fill:rgb(0,0,0);stroke:rgb(0,0,0);stroke-width:1"/>
  <polygon points="253.5,184.871 260,196.129 247,196.129"
    transform="matrix(-4.28613e-016 -1 1.1547 -4.94918e-016 202.268 578.416)"
     style="fill:rgb(0,0,0);stroke:rgb(0,0,0);stroke-width:1"/>
  <polygon points="253.5,184.871 260,196.129 247,196.129"
    transform="matrix(-0.687742 -0.725956 0.838261 -0.794135 454.679 559.161)"
     style="fill:rgb(0,0,0);stroke:rgb(0,0,0);stroke-width:1"/>
  <polygon points="253.5,184.871 260,196.129 247,196.129"
    transform="matrix(-0.687742 -0.725956 0.838261 -0.794135 414.855 599.164)"
     style="fill:rgb(0,0,0);stroke:rgb(0,0,0);stroke-width:1"/>
  <polygon points="253.5,184.871 260,196.129 247,196.129"
    transform="matrix(0.687742 0.725956 -0.838261 0.794135 414.472 -100.432)"
     style="fill:rgb(0,0,0);stroke:rgb(0,0,0);stroke-width:1"/>
  <polygon points="253.5,184.871 260,196.129 247,196.129"
    transform="matrix(0.687742 0.725956 -0.838261 0.794135 462.191 -148.612)"
     style="fill:rgb(0,0,0);stroke:rgb(0,0,0);stroke-width:1"/>
  <polygon points="253.5,184.871 260,196.129 247,196.129"
    transform="matrix(-0.725956 0.687742 -0.794135 -0.838261 535.178 209.455)"
     style="fill:rgb(0,0,0);stroke:rgb(0,0,0);stroke-width:1"/>
  <polygon points="253.5,184.871 260,196.129 247,196.129"
    transform="matrix(-0.725956 0.687742 -0.794135 -0.838261 580.834 255.568)"
     style="fill:rgb(0,0,0);stroke:rgb(0,0,0);stroke-width:1"/>
  <polygon points="253.5,184.871 260,196.129 247,196.129"
    transform="matrix(0.725956 -0.687742 0.794135 0.838261 -124.788 249.528)"
     style="fill:rgb(0,0,0);stroke:rgb(0,0,0);stroke-width:1"/>
  <polygon points="253.5,184.871 260,196.129 247,196.129"
    transform="matrix(0.725956 -0.687742 0.794135 0.838261 -167.09 207.226)"
     style="fill:rgb(0,0,0);stroke:rgb(0,0,0);stroke-width:1"/>
  <polygon points="253.5,184.871 260,196.129 247,196.129"
    transform="matrix(0.687742 0.725956 -0.838261 0.794135 191.776 95.7389)"
     style="fill:rgb(0,0,0);stroke:rgb(0,0,0);stroke-width:1"/>
  <polygon points="253.5,184.871 260,196.129 247,196.129"
    transform="matrix(0.687742 0.725956 -0.838261 0.794135 235.87 51.4462)"
     style="fill:rgb(0,0,0);stroke:rgb(0,0,0);stroke-width:1"/>
  <polygon points="253.5,184.871 260,196.129 247,196.129"
    transform="matrix(-0.687742 -0.725956 0.838261 -0.794135 231.586 756.247)"
     style="fill:rgb(0,0,0);stroke:rgb(0,0,0);stroke-width:1"/>
  <polygon points="253.5,184.871 260,196.129 247,196.129"
    transform="matrix(-0.687742 -0.725956 0.838261 -0.794135 188.824 799.549)"
     style="fill:rgb(0,0,0);stroke:rgb(0,0,0);stroke-width:1"/>
  <polygon points="253.5,184.871 260,196.129 247,196.129"
    transform="matrix(-0.725956 0.687742 -0.794135 -0.838261 768.748 415.973)"
     style="fill:rgb(0,0,0);stroke:rgb(0,0,0);stroke-width:1"/>
  <polygon points="253.5,184.871 260,196.129 247,196.129"
    transform="matrix(-0.725956 0.687742 -0.794135 -0.838261 806.857 454.388)"
     style="fill:rgb(0,0,0);stroke:rgb(0,0,0);stroke-width:1"/>
  <polygon points="253.5,184.871 260,196.129 247,196.129"
    transform="matrix(0.725956 -0.687742 0.794135 0.838261 108.239 455.952)"
     style="fill:rgb(0,0,0);stroke:rgb(0,0,0);stroke-width:1"/>
  <polygon points="253.5,184.871 260,196.129 247,196.129"
    transform="matrix(0.725956 -0.687742 0.794135 0.838261 59.678 407.26)"
     style="fill:rgb(0,0,0);stroke:rgb(0,0,0);stroke-width:1"/>
  <polygon points="253.5,184.871 260,196.129 247,196.129"
    transform="matrix(0.921902 -0.387425 0.447359 1.06452 -237.468 276.192)"
     style="fill:rgb(0,0,0);stroke:rgb(0,0,0);stroke-width:1"/>
  <polygon points="253.5,184.871 260,196.129 247,196.129"
    transform="matrix(0.921902 -0.387425 0.447359 1.06452 -222.591 312.02)"
     style="fill:rgb(0,0,0);stroke:rgb(0,0,0);stroke-width:1"/>
  <polygon points="253.5,184.871 260,196.129 247,196.129"
    transform="matrix(-0.921902 0.387425 -0.447359 -1.06452 409.327 507.094)"
     style="fill:rgb(0,0,0);stroke:rgb(0,0,0);stroke-width:1"/>
  <polygon points="253.5,184.871 260,196.129 247,196.129"
    transform="matrix(-0.921902 0.387425 -0.447359 -1.06452 427.337 550.639)"
     style="fill:rgb(0,0,0);stroke:rgb(0,0,0);stroke-width:1"/>
  <line x1="66.0269" y1="412.374" x2="72.8412" y2="428.643"
     style="fill:none;stroke:rgb(0,0,0);stroke-width:2"/>
  <line x1="112.541" y1="392.048" x2="119.355" y2="408.317"
     style="fill:none;stroke:rgb(0,0,0);stroke-width:2"/>
  <line x1="234.096" y1="434.647" x2="221.757" y2="447.25"
     style="fill:none;stroke:rgb(0,0,0);stroke-width:2"/>
  <line x1="204.288" y1="407.029" x2="191.949" y2="419.633"
     style="fill:none;stroke:rgb(0,0,0);stroke-width:2"/>
  <line x1="350" y1="460" x2="350" y2="480"
     style="fill:none;stroke:rgb(0,0,0);stroke-width:2"/>
  <line x1="300" y1="460" x2="300" y2="480"
     style="fill:none;stroke:rgb(0,0,0);stroke-width:2"/>
  <line x1="350" y1="170" x2="350" y2="190"
     style="fill:none;stroke:rgb(0,0,0);stroke-width:2"/>
  <line x1="300" y1="170" x2="300" y2="190"
     style="fill:none;stroke:rgb(0,0,0);stroke-width:2"/>
  <line x1="421.616" y1="202.197" x2="407.405" y2="216.271"
     style="fill:none;stroke:rgb(0,0,0);stroke-width:2"/>
  <line x1="461.492" y1="243.138" x2="447.53" y2="257.458"
     style="fill:none;stroke:rgb(0,0,0);stroke-width:2"/>
  <line x1="459.316" y1="430.016" x2="445.408" y2="415.643"
     style="fill:none;stroke:rgb(0,0,0);stroke-width:2"/>
  <line x1="428.624" y1="458.669" x2="415.249" y2="443.799"
     style="fill:none;stroke:rgb(0,0,0);stroke-width:2"/>
  <line x1="470" y1="350" x2="490" y2="350"
     style="fill:none;stroke:rgb(0,0,0);stroke-width:2"/>
  <line x1="479.299" y1="342.03" x2="479.299" y2="342.03"
     style="fill:none;stroke:rgb(0,0,0);stroke-width:2"/>
  <line x1="470" y1="300" x2="490" y2="300"
     style="fill:none;stroke:rgb(0,0,0);stroke-width:2"/>
  <line x1="170" y1="350" x2="190" y2="350"
     style="fill:none;stroke:rgb(0,0,0);stroke-width:2"/>
  <line x1="170" y1="300" x2="190" y2="300"
     style="fill:none;stroke:rgb(0,0,0);stroke-width:2"/>
  <line x1="440" y1="570" x2="460" y2="570"
     style="fill:none;stroke:rgb(0,0,0);stroke-width:2"/>
  <line x1="440" y1="620" x2="460" y2="620"
     style="fill:none;stroke:rgb(0,0,0);stroke-width:2"/>
  <line x1="450" y1="570" x2="450" y2="620"
     style="fill:none;stroke:rgb(0,0,0);stroke-width:2"/>
  <text x="480px" y="595px" style="fill:rgb(0,0,0);font-family:Times New Roman;font-size:18">System to System</text>
  <text x="480px" y="615px" style="fill:rgb(0,0,0);font-family:Times New Roman;font-size:18">Boundary</text>
  <text x="297px" y="295px" style="fill:rgb(0,0,0);font-size:20;font-family:Times New Roman">NATO</text>
  <text x="287px" y="315px" style="fill:rgb(0,0,0);font-size:20;font-family:Times New Roman">Common</text>
  <text x="292px" y="335px" style="fill:rgb(0,0,0);font-size:20;font-family:Times New Roman">Funded</text>
  <text x="292px" y="355px" style="fill:rgb(0,0,0);font-size:20;font-family:Times New Roman">System</text>
  <text x="295px" y="570px" style="fill:rgb(0,0,0);font-size:16;font-family:Times New Roman">Coalition </text>
  <text x="303px" y="585px" style="fill:rgb(0,0,0);font-size:16;font-family:Times New Roman">Nation</text>
  <text x="301px" y="600px" style="fill:rgb(0,0,0);font-size:16;font-family:Times New Roman">System</text>
  <text x="490px" y="490px" style="fill:rgb(0,0,0);font-size:16;font-family:Times New Roman">Coalition </text>
  <text x="40px" y="315px" style="fill:rgb(0,0,0);font-size:16;font-family:Times New Roman">Coalition </text>
  <text x="100px" y="490px" style="fill:rgb(0,0,0);font-size:16;font-family:Times New Roman">Coalition </text>
  <text x="490px" y="140px" style="fill:rgb(0,0,0);font-size:16;font-family:Times New Roman">Coalition </text>
  <text x="550px" y="315px" style="fill:rgb(0,0,0);font-size:16;font-family:Times New Roman">Coalition </text>
  <text x="295px" y="60px" style="fill:rgb(0,0,0);font-size:16;font-family:Times New Roman">Coalition </text>
  <text x="48px" y="330px" style="fill:rgb(0,0,0);font-size:16;font-family:Times New Roman">Nation</text>
  <text x="303px" y="75px" style="fill:rgb(0,0,0);font-size:16;font-family:Times New Roman">Nation</text>
  <text x="498px" y="155px" style="fill:rgb(0,0,0);font-size:16;font-family:Times New Roman">Nation</text>
  <text x="558px" y="330px" style="fill:rgb(0,0,0);font-size:16;font-family:Times New Roman">Nation</text>
  <text x="498px" y="505px" style="fill:rgb(0,0,0);font-size:16;font-family:Times New Roman">Nation</text>
  <text x="108px" y="505px" style="fill:rgb(0,0,0);font-size:16;font-family:Times New Roman">Nation</text>
  <text x="46px" y="345px" style="fill:rgb(0,0,0);font-size:16;font-family:Times New Roman">System</text>
  <text x="106px" y="165px" style="fill:rgb(0,0,0);font-size:16;font-family:Times New Roman">System</text>
  <text x="301px" y="90px" style="fill:rgb(0,0,0);font-size:16;font-family:Times New Roman">System</text>
  <text x="496px" y="170px" style="fill:rgb(0,0,0);font-size:16;font-family:Times New Roman">System</text>
  <text x="556px" y="345px" style="fill:rgb(0,0,0);font-size:16;font-family:Times New Roman">System</text>
  <text x="496px" y="520px" style="fill:rgb(0,0,0);font-size:16;font-family:Times New Roman">System</text>
  <text x="106px" y="520px" style="fill:rgb(0,0,0);font-size:16;font-family:Times New Roman">System</text>
  <text x="95px" y="150px" style="fill:rgb(0,0,0);font-size:16;font-family:Times New Roman">Other NCF</text>
  <line x1="218.955" y1="203.084" x2="232.615" y2="217.692"
     style="fill:none;stroke:rgb(0,0,0);stroke-width:2"/>
  <line x1="177.955" y1="242.655" x2="191.615" y2="257.263"
     style="fill:none;stroke:rgb(0,0,0);stroke-width:2"/>
</svg>
