<?xml version="1.0" encoding="UTF-8" standalone="no"?>
<svg
   xmlns:dc="http://purl.org/dc/elements/1.1/"
   xmlns:cc="http://web.resource.org/cc/"
   xmlns:rdf="http://www.w3.org/1999/02/22-rdf-syntax-ns#"
   xmlns:svg="http://www.w3.org/2000/svg"
   xmlns="http://www.w3.org/2000/svg"
   xmlns:sodipodi="http://sodipodi.sourceforge.net/DTD/sodipodi-0.dtd"
   xmlns:inkscape="http://www.inkscape.org/namespaces/inkscape"
   width="611"
   height="611"
   id="svg2"
   sodipodi:version="0.32"
   inkscape:version="0.44"
   sodipodi:docname="v5f1-iomodel.svg"
   sodipodi:docbase="C:\nisp\nisp-tools\src\volume5-rationale\figures"
   version="1.0">
  <metadata
     id="metadata239">
    <rdf:RDF>
      <cc:Work
         rdf:about="">
        <dc:format>image/svg+xml</dc:format>
        <dc:type
           rdf:resource="http://purl.org/dc/dcmitype/StillImage" />
      </cc:Work>
    </rdf:RDF>
  </metadata>
  <defs
     id="defs237" />
  <sodipodi:namedview
     inkscape:window-height="480"
     inkscape:window-width="640"
     inkscape:pageshadow="2"
     inkscape:pageopacity="0.0"
     guidetolerance="10.0"
     gridtolerance="10.0"
     objecttolerance="10.0"
     borderopacity="1.0"
     bordercolor="#666666"
     pagecolor="#ffffff"
     id="base" />
  <title
     id="title4">System to System Interoperability Model</title>
  <circle
     cx="325"
     cy="325"
     r="90"
     style="fill:#4040ff;stroke:#4040ff;stroke-width:1"
     id="circle6"
     sodipodi:cx="325"
     sodipodi:cy="325"
     sodipodi:rx="90"
     sodipodi:ry="90"
     transform="translate(-19.5,-19.5)" />
  <circle
     cx="325"
     cy="70"
     r="50"
     style="fill:#04daa5;stroke:#04daa5;stroke-width:1"
     id="circle8"
     sodipodi:cx="325"
     sodipodi:cy="70"
     sodipodi:rx="50"
     sodipodi:ry="50"
     transform="translate(-19.5,-19.5)" />
  <circle
     cx="130"
     cy="150"
     r="50"
     style="fill:#4040ff;stroke:#4040ff;stroke-width:1"
     id="circle10"
     sodipodi:cx="130"
     sodipodi:cy="150"
     sodipodi:rx="50"
     sodipodi:ry="50"
     transform="translate(-19.5,-19.5)" />
  <circle
     cx="70"
     cy="325"
     r="50"
     style="fill:#04daa5;stroke:#04daa5;stroke-width:1"
     id="circle12"
     sodipodi:cx="70"
     sodipodi:cy="325"
     sodipodi:rx="50"
     sodipodi:ry="50"
     transform="translate(-19.5,-19.5)" />
  <circle
     cx="130"
     cy="500"
     r="50"
     style="fill:#04daa5;stroke:#04daa5;stroke-width:1"
     id="circle14"
     sodipodi:cx="130"
     sodipodi:cy="500"
     sodipodi:rx="50"
     sodipodi:ry="50"
     transform="translate(-19.5,-19.5)" />
  <circle
     cx="325"
     cy="580"
     r="50"
     style="fill:#04daa5;stroke:#04daa5;stroke-width:1"
     id="circle16"
     sodipodi:cx="325"
     sodipodi:cy="580"
     sodipodi:rx="50"
     sodipodi:ry="50"
     transform="translate(-19.5,-19.5)" />
  <circle
     cx="520"
     cy="500"
     r="50"
     style="fill:#04daa5;stroke:#04daa5;stroke-width:1"
     id="circle18"
     sodipodi:cx="520"
     sodipodi:cy="500"
     sodipodi:rx="50"
     sodipodi:ry="50"
     transform="translate(-19.5,-19.5)" />
  <circle
     cx="580"
     cy="325"
     r="50"
     style="fill:#04daa5;stroke:#04daa5;stroke-width:1"
     id="circle20"
     sodipodi:cx="580"
     sodipodi:cy="325"
     sodipodi:rx="50"
     sodipodi:ry="50"
     transform="translate(-19.5,-19.5)" />
  <circle
     cx="520"
     cy="150"
     r="50"
     style="fill:#04daa5;stroke:#04daa5;stroke-width:1"
     id="circle22"
     sodipodi:cx="520"
     sodipodi:cy="150"
     sodipodi:rx="50"
     sodipodi:ry="50"
     transform="translate(-19.5,-19.5)" />
  <line
     x1="144.80499"
     y1="169.19501"
     x2="228.951"
     y2="253.341"
     style="fill:none;stroke:black;stroke-width:2"
     id="line24" />
  <line
     x1="100.5"
     y1="305.5"
     x2="215.5"
     y2="305.5"
     style="fill:none;stroke:black;stroke-width:2"
     id="line26" />
  <line
     x1="395.5"
     y1="305.5"
     x2="510.5"
     y2="305.5"
     style="fill:none;stroke:black;stroke-width:2"
     id="line28" />
  <line
     x1="460.659"
     y1="164.317"
     x2="376.51199"
     y2="248.46301"
     style="fill:none;stroke:black;stroke-width:2"
     id="line30" />
  <line
     x1="149.683"
     y1="449.68301"
     x2="236.26801"
     y2="361.87799"
     style="fill:none;stroke:black;stroke-width:2"
     id="line32" />
  <line
     x1="305.5"
     y1="396.02399"
     x2="303.341"
     y2="509.43903"
     style="fill:none;stroke:black;stroke-width:2"
     id="line34" />
  <line
     x1="370.41501"
     y1="367.97601"
     x2="455.78"
     y2="453.341"
     style="fill:none;stroke:black;stroke-width:2"
     id="line36" />
  <line
     x1="59.864403"
     y1="356.11899"
     x2="91.940002"
     y2="433.48999"
     style="fill:none;stroke:black;stroke-width:2"
     id="line38" />
  <line
     x1="280.5"
     y1="160.5"
     x2="330.5"
     y2="160.5"
     style="fill:none;stroke:black;stroke-width:2"
     id="line40" />
  <line
     x1="511.87799"
     y1="249.68301"
     x2="511.87799"
     y2="249.68301"
     style="fill:none;stroke:black;stroke-width:2"
     id="line42" />
  <polygon
     points="253.5,184.871 260,196.129 247,196.129 253.5,184.871 "
     transform="matrix(1,0,0,1.1547,51.8282,183.088)"
     style="fill:black;stroke:black;stroke-width:1"
     id="polygon44" />
  <polygon
     points="253.5,184.871 260,196.129 247,196.129 253.5,184.871 "
     transform="matrix(1,0,0,1.1547,50.8637,238.895)"
     style="fill:black;stroke:black;stroke-width:1"
     id="polygon46" />
  <polygon
     points="253.5,184.871 260,196.129 247,196.129 253.5,184.871 "
     transform="matrix(1,0,0,1.1547,52.1741,-51.0663)"
     style="fill:black;stroke:black;stroke-width:1"
     id="polygon48" />
  <polygon
     points="253.5,184.871 260,196.129 247,196.129 253.5,184.871 "
     transform="matrix(1,0,0,1.1547,51.8545,-111.4173)"
     style="fill:black;stroke:black;stroke-width:1"
     id="polygon50" />
  <polygon
     points="253.5,184.871 260,196.129 247,196.129 253.5,184.871 "
     transform="matrix(-1,0,0,-1.1547,556.95,723.178)"
     style="fill:black;stroke:black;stroke-width:1"
     id="polygon52" />
  <polygon
     points="253.5,184.871 260,196.129 247,196.129 253.5,184.871 "
     transform="matrix(0,-1,1.1547,0,-51.2561,558.781)"
     style="fill:black;stroke:black;stroke-width:1"
     id="polygon54" />
  <polygon
     points="253.5,184.871 260,196.129 247,196.129 253.5,184.871 "
     transform="matrix(-1,0,0,-1.1547,557.86,662.333)"
     style="fill:black;stroke:black;stroke-width:1"
     id="polygon56" />
  <polygon
     points="253.5,184.871 260,196.129 247,196.129 253.5,184.871 "
     transform="matrix(-1,0,0,-1.1547,558.968,372.345)"
     style="fill:black;stroke:black;stroke-width:1"
     id="polygon58" />
  <polygon
     points="253.5,184.871 260,196.129 247,196.129 253.5,184.871 "
     transform="matrix(-1,0,0,-1.1547,558.973,427.612)"
     style="fill:black;stroke:black;stroke-width:1"
     id="polygon60" />
  <line
     x1="305.5"
     y1="100.5"
     x2="305.5"
     y2="215.5"
     style="fill:none;stroke:black;stroke-width:2"
     id="line62" />
  <line
     x1="395.5"
     y1="190.5"
     x2="435.5"
     y2="230.5"
     style="fill:none;stroke:black;stroke-width:2"
     id="line64" />
  <line
     x1="460.5"
     y1="280.5"
     x2="460.5"
     y2="330.5"
     style="fill:none;stroke:black;stroke-width:2"
     id="line66" />
  <line
     x1="432.51001"
     y1="403.35901"
     x2="402.918"
     y2="431.931"
     style="fill:none;stroke:black;stroke-width:2"
     id="line68" />
  <line
     x1="330.5"
     y1="450.5"
     x2="280.5"
     y2="450.5"
     style="fill:none;stroke:black;stroke-width:2"
     id="line70" />
  <line
     x1="179.44901"
     y1="394.17499"
     x2="208.02"
     y2="421.72601"
     style="fill:none;stroke:black;stroke-width:2"
     id="line72" />
  <line
     x1="160.5"
     y1="280.5"
     x2="160.5"
     y2="330.5"
     style="fill:none;stroke:black;stroke-width:2"
     id="line74" />
  <line
     x1="205.5"
     y1="190.5"
     x2="165.5"
     y2="230.5"
     style="fill:none;stroke:black;stroke-width:2"
     id="line76" />
  <line
     x1="50.5"
     y1="400.5"
     x2="95.5"
     y2="380.5"
     style="fill:none;stroke:black;stroke-width:2"
     id="line78" />
  <polygon
     points="253.5,184.871 260,196.129 247,196.129 253.5,184.871 "
     transform="matrix(0,-1,1.1547,0,-112.311,558.98)"
     style="fill:black;stroke:black;stroke-width:1"
     id="polygon80" />
  <polygon
     points="253.5,184.871 260,196.129 247,196.129 253.5,184.871 "
     transform="matrix(0,1,-1.1547,0,372.095,51.9861)"
     style="fill:black;stroke:black;stroke-width:1"
     id="polygon82" />
  <polygon
     points="253.5,184.871 260,196.129 247,196.129 253.5,184.871 "
     transform="matrix(0,1,-1.1547,0,428.268,51.9861)"
     style="fill:black;stroke:black;stroke-width:1"
     id="polygon84" />
  <polygon
     points="253.5,184.871 260,196.129 247,196.129 253.5,184.871 "
     transform="matrix(0,1,-1.1547,0,672.756,52.0684)"
     style="fill:black;stroke:black;stroke-width:1"
     id="polygon86" />
  <polygon
     points="253.5,184.871 260,196.129 247,196.129 253.5,184.871 "
     transform="matrix(0,1,-1.1547,0,722.984,52.1446)"
     style="fill:black;stroke:black;stroke-width:1"
     id="polygon88" />
  <polygon
     points="253.5,184.871 260,196.129 247,196.129 253.5,184.871 "
     transform="matrix(0,-1,1.1547,0,248.392,558.916)"
     style="fill:black;stroke:black;stroke-width:1"
     id="polygon90" />
  <polygon
     points="253.5,184.871 260,196.129 247,196.129 253.5,184.871 "
     transform="matrix(0,-1,1.1547,0,182.768,558.916)"
     style="fill:black;stroke:black;stroke-width:1"
     id="polygon92" />
  <polygon
     points="253.5,184.871 260,196.129 247,196.129 253.5,184.871 "
     transform="matrix(-0.687742,-0.725956,0.838261,-0.794135,435.179,539.661)"
     style="fill:black;stroke:black;stroke-width:1"
     id="polygon94" />
  <polygon
     points="253.5,184.871 260,196.129 247,196.129 253.5,184.871 "
     transform="matrix(-0.687742,-0.725956,0.838261,-0.794135,395.355,579.664)"
     style="fill:black;stroke:black;stroke-width:1"
     id="polygon96" />
  <polygon
     points="253.5,184.871 260,196.129 247,196.129 253.5,184.871 "
     transform="matrix(0.687742,0.725956,-0.838261,0.794135,394.972,-119.932)"
     style="fill:black;stroke:black;stroke-width:1"
     id="polygon98" />
  <polygon
     points="253.5,184.871 260,196.129 247,196.129 253.5,184.871 "
     transform="matrix(0.687742,0.725956,-0.838261,0.794135,442.691,-168.112)"
     style="fill:black;stroke:black;stroke-width:1"
     id="polygon100" />
  <polygon
     points="253.5,184.871 260,196.129 247,196.129 253.5,184.871 "
     transform="matrix(-0.725956,0.687742,-0.794135,-0.838261,515.678,189.955)"
     style="fill:black;stroke:black;stroke-width:1"
     id="polygon102" />
  <polygon
     points="253.5,184.871 260,196.129 247,196.129 253.5,184.871 "
     transform="matrix(-0.725956,0.687742,-0.794135,-0.838261,561.334,236.068)"
     style="fill:black;stroke:black;stroke-width:1"
     id="polygon104" />
  <polygon
     points="253.5,184.871 260,196.129 247,196.129 253.5,184.871 "
     transform="matrix(0.725956,-0.687742,0.794135,0.838261,-144.288,230.028)"
     style="fill:black;stroke:black;stroke-width:1"
     id="polygon106" />
  <polygon
     points="253.5,184.871 260,196.129 247,196.129 253.5,184.871 "
     transform="matrix(0.725956,-0.687742,0.794135,0.838261,-186.59,187.726)"
     style="fill:black;stroke:black;stroke-width:1"
     id="polygon108" />
  <polygon
     points="253.5,184.871 260,196.129 247,196.129 253.5,184.871 "
     transform="matrix(0.687742,0.725956,-0.838261,0.794135,172.276,76.2389)"
     style="fill:black;stroke:black;stroke-width:1"
     id="polygon110" />
  <polygon
     points="253.5,184.871 260,196.129 247,196.129 253.5,184.871 "
     transform="matrix(0.687742,0.725956,-0.838261,0.794135,216.37,31.9462)"
     style="fill:black;stroke:black;stroke-width:1"
     id="polygon112" />
  <polygon
     points="253.5,184.871 260,196.129 247,196.129 253.5,184.871 "
     transform="matrix(-0.687742,-0.725956,0.838261,-0.794135,212.086,736.747)"
     style="fill:black;stroke:black;stroke-width:1"
     id="polygon114" />
  <polygon
     points="253.5,184.871 260,196.129 247,196.129 253.5,184.871 "
     transform="matrix(-0.687742,-0.725956,0.838261,-0.794135,169.324,780.049)"
     style="fill:black;stroke:black;stroke-width:1"
     id="polygon116" />
  <polygon
     points="253.5,184.871 260,196.129 247,196.129 253.5,184.871 "
     transform="matrix(-0.725956,0.687742,-0.794135,-0.838261,749.248,396.473)"
     style="fill:black;stroke:black;stroke-width:1"
     id="polygon118" />
  <polygon
     points="253.5,184.871 260,196.129 247,196.129 253.5,184.871 "
     transform="matrix(-0.725956,0.687742,-0.794135,-0.838261,787.357,434.888)"
     style="fill:black;stroke:black;stroke-width:1"
     id="polygon120" />
  <polygon
     points="253.5,184.871 260,196.129 247,196.129 253.5,184.871 "
     transform="matrix(0.725956,-0.687742,0.794135,0.838261,88.739,436.452)"
     style="fill:black;stroke:black;stroke-width:1"
     id="polygon122" />
  <polygon
     points="253.5,184.871 260,196.129 247,196.129 253.5,184.871 "
     transform="matrix(0.725956,-0.687742,0.794135,0.838261,40.178,387.76)"
     style="fill:black;stroke:black;stroke-width:1"
     id="polygon124" />
  <polygon
     points="253.5,184.871 260,196.129 247,196.129 253.5,184.871 "
     transform="matrix(0.921902,-0.387425,0.447359,1.06452,-256.968,256.692)"
     style="fill:black;stroke:black;stroke-width:1"
     id="polygon126" />
  <polygon
     points="253.5,184.871 260,196.129 247,196.129 253.5,184.871 "
     transform="matrix(0.921902,-0.387425,0.447359,1.06452,-242.091,292.52)"
     style="fill:black;stroke:black;stroke-width:1"
     id="polygon128" />
  <polygon
     points="253.5,184.871 260,196.129 247,196.129 253.5,184.871 "
     transform="matrix(-0.921902,0.387425,-0.447359,-1.06452,389.827,487.594)"
     style="fill:black;stroke:black;stroke-width:1"
     id="polygon130" />
  <polygon
     points="253.5,184.871 260,196.129 247,196.129 253.5,184.871 "
     transform="matrix(-0.921902,0.387425,-0.447359,-1.06452,407.837,531.139)"
     style="fill:black;stroke:black;stroke-width:1"
     id="polygon132" />
  <line
     x1="46.526901"
     y1="392.87399"
     x2="53.341202"
     y2="409.14301"
     style="fill:none;stroke:black;stroke-width:2"
     id="line134" />
  <line
     x1="93.041"
     y1="372.548"
     x2="99.855003"
     y2="388.81699"
     style="fill:none;stroke:black;stroke-width:2"
     id="line136" />
  <line
     x1="214.59599"
     y1="415.147"
     x2="202.257"
     y2="427.75"
     style="fill:none;stroke:black;stroke-width:2"
     id="line138" />
  <line
     x1="184.78799"
     y1="387.52899"
     x2="172.44901"
     y2="400.133"
     style="fill:none;stroke:black;stroke-width:2"
     id="line140" />
  <line
     x1="330.5"
     y1="440.5"
     x2="330.5"
     y2="460.5"
     style="fill:none;stroke:black;stroke-width:2"
     id="line142" />
  <line
     x1="280.5"
     y1="440.5"
     x2="280.5"
     y2="460.5"
     style="fill:none;stroke:black;stroke-width:2"
     id="line144" />
  <line
     x1="330.5"
     y1="150.5"
     x2="330.5"
     y2="170.5"
     style="fill:none;stroke:black;stroke-width:2"
     id="line146" />
  <line
     x1="280.5"
     y1="150.5"
     x2="280.5"
     y2="170.5"
     style="fill:none;stroke:black;stroke-width:2"
     id="line148" />
  <line
     x1="402.116"
     y1="182.69701"
     x2="387.905"
     y2="196.771"
     style="fill:none;stroke:black;stroke-width:2"
     id="line150" />
  <line
     x1="441.992"
     y1="223.638"
     x2="428.03"
     y2="237.95801"
     style="fill:none;stroke:black;stroke-width:2"
     id="line152" />
  <line
     x1="439.81601"
     y1="410.51599"
     x2="425.90799"
     y2="396.14301"
     style="fill:none;stroke:black;stroke-width:2"
     id="line154" />
  <line
     x1="409.12399"
     y1="439.16901"
     x2="395.74899"
     y2="424.29901"
     style="fill:none;stroke:black;stroke-width:2"
     id="line156" />
  <line
     x1="450.5"
     y1="330.5"
     x2="470.5"
     y2="330.5"
     style="fill:none;stroke:black;stroke-width:2"
     id="line158" />
  <line
     x1="459.79901"
     y1="322.53"
     x2="459.79901"
     y2="322.53"
     style="fill:none;stroke:black;stroke-width:2"
     id="line160" />
  <line
     x1="450.5"
     y1="280.5"
     x2="470.5"
     y2="280.5"
     style="fill:none;stroke:black;stroke-width:2"
     id="line162" />
  <line
     x1="150.5"
     y1="330.5"
     x2="170.5"
     y2="330.5"
     style="fill:none;stroke:black;stroke-width:2"
     id="line164" />
  <line
     x1="150.5"
     y1="280.5"
     x2="170.5"
     y2="280.5"
     style="fill:none;stroke:black;stroke-width:2"
     id="line166" />
  <line
     x1="420.5"
     y1="550.5"
     x2="440.5"
     y2="550.5"
     style="fill:none;stroke:black;stroke-width:2"
     id="line168" />
  <line
     x1="420.5"
     y1="600.5"
     x2="440.5"
     y2="600.5"
     style="fill:none;stroke:black;stroke-width:2"
     id="line170" />
  <line
     x1="430.5"
     y1="550.5"
     x2="430.5"
     y2="600.5"
     style="fill:none;stroke:black;stroke-width:2"
     id="line172" />
  <text
     x="460.5"
     y="575.5"
     style="font-size:18px;fill:black;font-family:Times New Roman"
     id="text174">System to System</text>
  <text
     x="460.5"
     y="595.5"
     style="font-size:18px;fill:black;font-family:Times New Roman"
     id="text176">Boundary</text>
  <text
     x="277.5"
     y="275.5"
     style="font-size:20px;fill:black;font-family:Times New Roman"
     id="text178">NATO</text>
  <text
     x="267.5"
     y="295.5"
     style="font-size:20px;fill:black;font-family:Times New Roman"
     id="text180">Common</text>
  <text
     x="272.5"
     y="315.5"
     style="font-size:20px;fill:black;font-family:Times New Roman"
     id="text182">Funded</text>
  <text
     x="272.5"
     y="335.5"
     style="font-size:20px;fill:black;font-family:Times New Roman"
     id="text184">System</text>
  <text
     x="275.5"
     y="550.5"
     style="font-size:16px;fill:black;font-family:Times New Roman"
     id="text186">Coalition</text>
  <text
     x="283.5"
     y="565.5"
     style="font-size:16px;fill:black;font-family:Times New Roman"
     id="text188">Nation</text>
  <text
     x="281.5"
     y="580.5"
     style="font-size:16px;fill:black;font-family:Times New Roman"
     id="text190">System</text>
  <text
     x="470.5"
     y="470.5"
     style="font-size:16px;fill:black;font-family:Times New Roman"
     id="text192">Coalition</text>
  <text
     x="20.5"
     y="295.5"
     style="font-size:16px;fill:black;font-family:Times New Roman"
     id="text194">Coalition</text>
  <text
     x="80.5"
     y="470.5"
     style="font-size:16px;fill:black;font-family:Times New Roman"
     id="text196">Coalition</text>
  <text
     x="470.5"
     y="120.5"
     style="font-size:16px;fill:black;font-family:Times New Roman"
     id="text198">Coalition</text>
  <text
     x="530.5"
     y="295.5"
     style="font-size:16px;fill:black;font-family:Times New Roman"
     id="text200">Coalition</text>
  <text
     x="275.5"
     y="40.5"
     style="font-size:16px;fill:black;font-family:Times New Roman"
     id="text202">Coalition</text>
  <text
     x="28.5"
     y="310.5"
     style="font-size:16px;fill:black;font-family:Times New Roman"
     id="text204">Nation</text>
  <text
     x="283.5"
     y="55.5"
     style="font-size:16px;fill:black;font-family:Times New Roman"
     id="text206">Nation</text>
  <text
     x="478.5"
     y="135.5"
     style="font-size:16px;fill:black;font-family:Times New Roman"
     id="text208">Nation</text>
  <text
     x="538.5"
     y="310.5"
     style="font-size:16px;fill:black;font-family:Times New Roman"
     id="text210">Nation</text>
  <text
     x="478.5"
     y="485.5"
     style="font-size:16px;fill:black;font-family:Times New Roman"
     id="text212">Nation</text>
  <text
     x="88.5"
     y="485.5"
     style="font-size:16px;fill:black;font-family:Times New Roman"
     id="text214">Nation</text>
  <text
     x="26.5"
     y="325.5"
     style="font-size:16px;fill:black;font-family:Times New Roman"
     id="text216">System</text>
  <text
     x="86.5"
     y="145.5"
     style="font-size:16px;fill:black;font-family:Times New Roman"
     id="text218">System</text>
  <text
     x="281.5"
     y="70.5"
     style="font-size:16px;fill:black;font-family:Times New Roman"
     id="text220">System</text>
  <text
     x="476.5"
     y="150.5"
     style="font-size:16px;fill:black;font-family:Times New Roman"
     id="text222">System</text>
  <text
     x="536.5"
     y="325.5"
     style="font-size:16px;fill:black;font-family:Times New Roman"
     id="text224">System</text>
  <text
     x="476.5"
     y="500.5"
     style="font-size:16px;fill:black;font-family:Times New Roman"
     id="text226">System</text>
  <text
     x="86.5"
     y="500.5"
     style="font-size:16px;fill:black;font-family:Times New Roman"
     id="text228">System</text>
  <text
     x="75.5"
     y="130.5"
     style="font-size:16px;fill:black;font-family:Times New Roman"
     id="text230">Other NCF</text>
  <line
     x1="199.455"
     y1="183.584"
     x2="213.11501"
     y2="198.192"
     style="fill:none;stroke:black;stroke-width:2"
     id="line232" />
  <line
     x1="158.455"
     y1="223.155"
     x2="172.11501"
     y2="237.763"
     style="fill:none;stroke:black;stroke-width:2"
     id="line234" />
</svg>
