<?xml version="1.0" encoding="UTF-8" standalone="no"?>
<svg
   xmlns:dc="http://purl.org/dc/elements/1.1/"
   xmlns:cc="http://web.resource.org/cc/"
   xmlns:rdf="http://www.w3.org/1999/02/22-rdf-syntax-ns#"
   xmlns:svg="http://www.w3.org/2000/svg"
   xmlns="http://www.w3.org/2000/svg"
   xmlns:sodipodi="http://sodipodi.sourceforge.net/DTD/sodipodi-0.dtd"
   xmlns:inkscape="http://www.inkscape.org/namespaces/inkscape"
   width="675"
   height="675"
   id="svg2"
   sodipodi:version="0.32"
   inkscape:version="0.44"
   sodipodi:docname="v5f2-scopingflow.svg"
   sodipodi:docbase="C:\Documents and Settings\All Users\Documents\NATO\NATO SCs\SC5\NOSWG\NISP\nisp-src-1.0\volume5\figures">
  <metadata
     id="metadata175">
    <rdf:RDF>
      <cc:Work
         rdf:about="">
        <dc:format>image/svg+xml</dc:format>
        <dc:type
           rdf:resource="http://purl.org/dc/dcmitype/StillImage" />
      </cc:Work>
    </rdf:RDF>
  </metadata>
  <defs
     id="defs173" />
  <sodipodi:namedview
     inkscape:window-height="480"
     inkscape:window-width="640"
     inkscape:pageshadow="2"
     inkscape:pageopacity="0.0"
     guidetolerance="10.0"
     gridtolerance="10.0"
     objecttolerance="10.0"
     borderopacity="1.0"
     bordercolor="#666666"
     pagecolor="#ffffff"
     id="base" />
  <title
     id="title4">Process for Selecting Services that are within the scope of the NCSP</title>
  <rect
     x="280"
     y="140"
     width="100"
     height="100"
     transform="matrix(0.705489 -0.468173 0.708721 0.466037 40.5317 255.95)"
     style="fill:rgb(4,218,165);stroke:rgb(0,0,0);stroke-width:1"
     id="rect6" />
  <rect
     x="280"
     y="140"
     width="100"
     height="100"
     transform="matrix(0.705489 -0.468173 0.708721 0.466037 -161.468 255.95)"
     style="fill:rgb(4,218,165);stroke:rgb(0,0,0);stroke-width:1"
     id="rect8" />
  <rect
     x="150"
     y="275"
     width="120"
     height="50"
     style="fill:rgb(4,218,165);stroke:rgb(0,0,0);stroke-width:1"
     id="rect10" />
  <rect
     x="340"
     y="275"
     width="120"
     height="50"
     style="fill:rgb(4,218,165);stroke:rgb(0,0,0);stroke-width:1"
     id="rect12" />
  <rect
     x="280"
     y="140"
     width="100"
     height="100"
     transform="matrix(0.705489 -0.468173 0.708721 0.466037 -162.468 488.95)"
     style="fill:rgb(4,218,165);stroke:rgb(0,0,0);stroke-width:1"
     id="rect14" />
  <rect
     x="280"
     y="140"
     width="100"
     height="100"
     transform="matrix(0.705489 -0.468173 0.708721 0.466037 39.532 489.95)"
     style="fill:rgb(4,218,165);stroke:rgb(0,0,0);stroke-width:1"
     id="rect16" />
  <rect
     x="150"
     y="520"
     width="130"
     height="60"
     style="fill:rgb(4,218,165);stroke:rgb(0,0,0);stroke-width:1"
     id="rect18" />
  <rect
     x="340"
     y="520"
     width="130"
     height="60"
     style="fill:rgb(4,218,165);stroke:rgb(0,0,0);stroke-width:1"
     id="rect20" />
  <rect
     x="530"
     y="518"
     width="120"
     height="50"
     style="fill:rgb(4,218,165);stroke:rgb(0,0,0);stroke-width:1"
     id="rect22" />
  <rect
     x="5"
     y="461"
     width="94"
     height="151"
     style="fill:rgb(4,218,165);stroke:rgb(0,0,0);stroke-width:1"
     id="rect24" />
  <line
     x1="206.536"
     y1="86.03"
     x2="206.536"
     y2="144.03"
     style="fill:none;stroke:rgb(0,0,0);stroke-width:1"
     id="line26" />
  <line
     x1="326.536"
     y1="117.03"
     x2="326.536"
     y2="117.03"
     style="fill:none;stroke:rgb(0,0,0);stroke-width:1"
     id="line28" />
  <line
     x1="206.036"
     y1="237.53"
     x2="206.036"
     y2="274.53"
     style="fill:none;stroke:rgb(0,0,0);stroke-width:1"
     id="line30" />
  <line
     x1="205.084"
     y1="376.189"
     x2="205.084"
     y2="325.189"
     style="fill:none;stroke:rgb(0,0,0);stroke-width:1"
     id="line32" />
  <line
     x1="407.536"
     y1="237.03"
     x2="407.536"
     y2="273.03"
     style="fill:none;stroke:rgb(0,0,0);stroke-width:1"
     id="line34" />
  <line
     x1="405.536"
     y1="377.03"
     x2="405.536"
     y2="323.03"
     style="fill:none;stroke:rgb(0,0,0);stroke-width:1"
     id="line36" />
  <line
     x1="203.536"
     y1="469.03"
     x2="203.536"
     y2="521.03"
     style="fill:none;stroke:rgb(0,0,0);stroke-width:1"
     id="line38" />
  <line
     x1="405.536"
     y1="470.03"
     x2="405.536"
     y2="520.03"
     style="fill:none;stroke:rgb(0,0,0);stroke-width:1"
     id="line40" />
  <line
     x1="277.036"
     y1="190.53"
     x2="337.036"
     y2="190.53"
     style="fill:none;stroke:rgb(0,0,0);stroke-width:1"
     id="line42" />
  <line
     x1="478.5"
     y1="190.03"
     x2="590.5"
     y2="190.03"
     style="fill:none;stroke:rgb(0,0,0);stroke-width:1"
     id="line44" />
  <line
     x1="590"
     y1="190.53"
     x2="590.5"
     y2="516.53"
     style="fill:none;stroke:rgb(0,0,0);stroke-width:1"
     id="line46" />
  <line
     x1="477"
     y1="423.53"
     x2="589"
     y2="423.53"
     style="fill:none;stroke:rgb(0,0,0);stroke-width:1"
     id="line48" />
  <line
     x1="99.5"
     y1="543.03"
     x2="149.5"
     y2="543.03"
     style="fill:none;stroke:rgb(0,0,0);stroke-width:1"
     id="line50" />
  <line
     x1="99.5"
     y1="594.03"
     x2="305"
     y2="594.03"
     style="fill:none;stroke:rgb(0,0,0);stroke-width:1"
     id="line52" />
  <line
     x1="303.5"
     y1="542.03"
     x2="339.5"
     y2="542.03"
     style="fill:none;stroke:rgb(0,0,0);stroke-width:1"
     id="line54" />
  <line
     x1="304"
     y1="542.53"
     x2="304"
     y2="593.53"
     style="fill:none;stroke:rgb(0,0,0);stroke-width:1"
     id="line56" />
  <line
     x1="275.5"
     y1="423.03"
     x2="306.5"
     y2="423.03"
     style="fill:none;stroke:rgb(0,0,0);stroke-width:1"
     id="line58" />
  <line
     x1="306"
     y1="423.03"
     x2="306"
     y2="190.53"
     style="fill:none;stroke:rgb(0,0,0);stroke-width:1"
     id="line60" />
  <text
     x="190"
     y="173"
     style="fill:rgb(0,0,0);font-size:10;font-family:Arial"
     id="text62">Is the</text>
  <text
     x="160"
     y="197"
     style="fill:rgb(0,0,0);font-size:10;font-family:Arial"
     id="text64">for System to System</text>
  <text
     x="170"
     y="209"
     style="fill:rgb(0,0,0);font-size:10;font-family:Arial"
     id="text66">Interoperability?</text>
  <text
     x="172"
     y="185"
     style="fill:rgb(0,0,0);font-size:10;font-family:Arial"
     id="text68">service relevant</text>
  <text
     x="393"
     y="174"
     style="fill:rgb(0,0,0);font-size:10;font-family:Arial"
     id="text70">Is the</text>
  <text
     x="371"
     y="186"
     style="fill:rgb(0,0,0);font-size:10;font-family:Arial"
     id="text72">service relevant</text>
  <text
     x="348"
     y="198"
     style="fill:rgb(0,0,0);font-size:10;font-family:Arial"
     id="text74">for NATO Common funded</text>
  <text
     x="388"
     y="210"
     style="fill:rgb(0,0,0);font-size:10;font-family:Arial"
     id="text76">systems?</text>
  <text
     x="155"
     y="287"
     style="fill:rgb(0,0,0);font-family:Arial;font-size:10"
     id="text78">Apply General Scoping </text>
  <text
     x="156"
     y="299"
     style="fill:rgb(0,0,0);font-family:Arial;font-size:10"
     id="text80">rules and Interoperability</text>
  <text
     x="156"
     y="312"
     style="fill:rgb(0,0,0);font-family:Arial;font-size:10"
     id="text82">Scoping rules</text>
  <text
     x="350"
     y="287"
     style="fill:rgb(0,0,0);font-size:10;font-family:Arial"
     id="text84">Apply General scoping</text>
  <text
     x="350"
     y="299"
     style="fill:rgb(0,0,0);font-size:10;font-family:Arial"
     id="text86">rules and NCF scoping </text>
  <text
     x="350"
     y="312"
     style="fill:rgb(0,0,0);font-size:10;font-family:Arial"
     id="text88">rules</text>
  <text
     x="187.5"
     y="412"
     style="fill:rgb(0,0,0);font-size:10;font-family:Arial"
     id="text90">Are the</text>
  <text
     x="159"
     y="425"
     style="fill:rgb(0,0,0);font-size:10;font-family:Arial"
     id="text92">relevant scoping rules</text>
  <text
     x="183"
     y="438"
     style="fill:rgb(0,0,0);font-size:10;font-family:Arial"
     id="text94">satisfied?</text>
  <text
     x="386"
     y="412"
     style="fill:rgb(0,0,0);font-size:10;font-family:Arial"
     id="text96">Are the </text>
  <text
     x="355"
     y="425"
     style="fill:rgb(0,0,0);font-size:10;font-family:Arial"
     id="text98">relevant scoping rules</text>
  <text
     x="383"
     y="438"
     style="fill:rgb(0,0,0);font-size:10;font-family:Arial"
     id="text100">satisfied?</text>
  <text
     x="23"
     y="525.542"
     style="fill:rgb(0,0,0);font-size:10;font-family:Arial"
     id="text102">Appropriate</text>
  <text
     x="23"
     y="543"
     style="fill:rgb(0,0,0);font-size:10;font-family:Arial"
     id="text104">Standards</text>
  <text
     x="540"
     y="534"
     style="fill:rgb(0,0,0);font-size:10;font-family:Arial"
     id="text106">Service not currently in</text>
  <text
     x="540"
     y="548"
     style="font-size:10px;fill:black;font-family:Arial"
     id="text108">scope of NISP</text>
  <text
     x="153"
     y="532"
     style="font-size:10px;fill:black;font-family:Arial"
     id="text110">Service is in scope of NISP</text>
  <text
     x="153"
     y="544"
     style="fill:rgb(0,0,0);font-size:10;font-family:Arial"
     id="text112">for both System to System</text>
  <text
     x="153"
     y="556"
     style="fill:rgb(0,0,0);font-size:10;font-family:Arial"
     id="text114">Interoperability and NCF</text>
  <text
     x="153"
     y="568"
     style="fill:rgb(0,0,0);font-size:10;font-family:Arial"
     id="text116">Systems</text>
  <text
     x="345"
     y="534"
     style="fill:rgb(0,0,0);font-size:10;font-family:Arial"
     id="text118">Service is in scope of</text>
  <text
     x="345"
     y="546"
     style="font-size:10px;fill:black;font-family:Arial"
     id="text120">NISP for NCF Systems</text>
  <text
     x="345"
     y="558"
     style="fill:rgb(0,0,0);font-size:10;font-family:Arial"
     id="text122">only</text>
  <text
     x="213"
     y="246"
     style="fill:rgb(0,0,0);font-size:10;font-family:Arial"
     id="text124">Yes</text>
  <text
     x="273"
     y="182"
     style="fill:rgb(0,0,0);font-size:10;font-family:Arial"
     id="text126">No</text>
  <text
     x="478"
     y="182"
     style="fill:rgb(0,0,0);font-size:10;font-family:Arial"
     id="text128">No</text>
  <text
     x="273"
     y="417"
     style="fill:rgb(0,0,0);font-size:10;font-family:Arial"
     id="text130">No</text>
  <text
     x="213"
     y="478"
     style="fill:rgb(0,0,0);font-size:10;font-family:Arial"
     id="text132">Yes</text>
  <text
     x="415"
     y="478"
     style="fill:rgb(0,0,0);font-size:10;font-family:Arial"
     id="text134">Yes</text>
  <text
     x="478"
     y="417"
     style="fill:rgb(0,0,0);font-size:10;font-family:Arial"
     id="text136">No</text>
  <text
     x="415"
     y="246"
     style="fill:rgb(0,0,0);font-size:10;font-family:Arial"
     id="text138">Yes</text>
  <polygon
     points="329,21.4019 332,26.5981 326,26.5981"
     transform="matrix(1 0 0 -1.5396 78.4841 307.808)"
     style="fill:rgb(0,0,0);stroke-width:1"
     id="polygon140" />
  <polygon
     points="329,21.4019 332,26.5981 326,26.5981"
     transform="matrix(1 0 0 -1.5396 76.9167 411.242)"
     style="fill:rgb(0,0,0);stroke-width:1"
     id="polygon142" />
  <polygon
     points="329,21.4019 332,26.5981 326,26.5981"
     transform="matrix(1 0 0 -1.5396 -123.752 409.159)"
     style="fill:rgb(0,0,0);stroke-width:1"
     id="polygon144" />
  <polygon
     points="329,21.4019 332,26.5981 326,26.5981"
     transform="matrix(1 0 0 -1.5396 -123.442 307.794)"
     style="fill:rgb(0,0,0);stroke-width:1"
     id="polygon146" />
  <polygon
     points="329,21.4019 332,26.5981 326,26.5981"
     transform="matrix(1 0 0 -1.5396 -123.083 176.867)"
     style="fill:rgb(0,0,0);stroke-width:1"
     id="polygon148" />
  <polygon
     points="329,21.4019 332,26.5981 326,26.5981"
     transform="matrix(1 0 0 -1.5396 -125.945 552.256)"
     style="fill:rgb(0,0,0);stroke-width:1"
     id="polygon150" />
  <polygon
     points="329,21.4019 332,26.5981 326,26.5981"
     transform="matrix(1 0 0 -1.5396 76.3467 552.909)"
     style="fill:rgb(0,0,0);stroke-width:1"
     id="polygon152" />
  <polygon
     points="329,21.4019 332,26.5981 326,26.5981"
     transform="matrix(1 0 0 -1.5396 261.292 551.867)"
     style="fill:rgb(0,0,0);stroke-width:1"
     id="polygon154" />
  <polygon
     points="329,21.4019 332,26.5981 326,26.5981"
     transform="matrix(-1.83691e-016 -1 -1.5396 2.82811e-016 182.187 871.389)"
     style="fill:rgb(0,0,0);stroke-width:1"
     id="polygon156" />
  <polygon
     points="329,21.4019 332,26.5981 326,26.5981"
     transform="matrix(-1.83691e-016 -1 -1.5396 2.82811e-016 373.23 871.723)"
     style="fill:rgb(0,0,0);stroke-width:1"
     id="polygon158" />
  <polygon
     points="329,21.4019 332,26.5981 326,26.5981"
     transform="matrix(-1.83691e-016 -1 -1.5396 2.82811e-016 369.201 519.125)"
     style="fill:rgb(0,0,0);stroke-width:1"
     id="polygon160" />
  <polyline
     points="268.5,67.0676 268.5,23.5 156.5,23.5 156.5,85.5 266.708,68.7432"
     style="fill:rgb(4,218,165);stroke:rgb(0,0,0);stroke-width:1"
     id="polyline162" />
  <polyline
     points="263.5,71.0676 263.5,27.5 151.5,27.5 151.5,89.5 261.708,72.7432"
     style="fill:rgb(4,218,165);stroke:rgb(0,0,0);stroke-width:1"
     id="polyline164" />
  <polyline
     points="258.5,74.0676 258.5,30.5 146.5,30.5 146.5,92.5 256.708,75.7432"
     style="fill:rgb(4,218,165);stroke:rgb(0,0,0);stroke-width:1"
     id="polyline166" />
  <text
     x="156"
     y="48"
     style="fill:rgb(0,0,0);font-size:10;font-family:Arial"
     id="text168">Candidate Services</text>
  <text
     x="156"
     y="62"
     style="fill:rgb(0,0,0);font-size:10;font-family:Arial"
     id="text170">from TRM</text>
</svg>
