<?xml version="1.0" encoding="UTF-8" standalone="no"?>
<svg
   xmlns:dc="http://purl.org/dc/elements/1.1/"
   xmlns:cc="http://web.resource.org/cc/"
   xmlns:rdf="http://www.w3.org/1999/02/22-rdf-syntax-ns#"
   xmlns:svg="http://www.w3.org/2000/svg"
   xmlns="http://www.w3.org/2000/svg"
   xmlns:sodipodi="http://sodipodi.sourceforge.net/DTD/sodipodi-0.dtd"
   xmlns:inkscape="http://www.inkscape.org/namespaces/inkscape"
   width="646"
   height="589.5"
   id="svg2"
   sodipodi:version="0.32"
   inkscape:version="0.44"
   sodipodi:docname="v5f2-scopingflow.svg"
   sodipodi:docbase="C:\nisp\nisp-tools\src\volume5-rationale\figures"
   version="1.0">
  <metadata
     id="metadata175">
    <rdf:RDF>
      <cc:Work
         rdf:about="">
        <dc:format>image/svg+xml</dc:format>
        <dc:type
           rdf:resource="http://purl.org/dc/dcmitype/StillImage" />
      </cc:Work>
    </rdf:RDF>
  </metadata>
  <defs
     id="defs173" />
  <sodipodi:namedview
     inkscape:window-height="480"
     inkscape:window-width="640"
     inkscape:pageshadow="2"
     inkscape:pageopacity="0.0"
     guidetolerance="10.0"
     gridtolerance="10.0"
     objecttolerance="10.0"
     borderopacity="1.0"
     bordercolor="#666666"
     pagecolor="#ffffff"
     id="base"
     width="7.5in"
     height="7.5in"
     units="in" />
  <title
     id="title4">Process for Selecting Services that are within the scope of the NCSP</title>
  <rect
     x="46.988712"
     y="351.43451"
     width="84.669991"
     height="84.82193"
     transform="matrix(0.833222,-0.552939,0.83554,0.54943,0,0)"
     style="fill:#04daa5;stroke:black;stroke-width:0.84745926"
     id="rect6" />
  <rect
     x="-73.673126"
     y="230.00212"
     width="84.669991"
     height="84.82193"
     transform="matrix(0.833222,-0.552939,0.83554,0.54943,0,0)"
     style="fill:#04daa5;stroke:black;stroke-width:0.84745926"
     id="rect8" />
  <rect
     x="145.5"
     y="252"
     width="120"
     height="50"
     style="fill:#04daa5;stroke:black;stroke-width:1"
     id="rect10" />
  <rect
     x="335.5"
     y="252"
     width="120"
     height="50"
     style="fill:#04daa5;stroke:black;stroke-width:1"
     id="rect12" />
  <rect
     x="-285.92618"
     y="440.46954"
     width="84.669991"
     height="84.82193"
     transform="matrix(0.833222,-0.552939,0.83554,0.54943,0,0)"
     style="fill:#04daa5;stroke:black;stroke-width:0.84745926"
     id="rect14" />
  <rect
     x="-166.17256"
     y="562.80798"
     width="84.669991"
     height="84.82193"
     transform="matrix(0.833222,-0.552939,0.83554,0.54943,0,0)"
     style="fill:#04daa5;stroke:black;stroke-width:0.84745926"
     id="rect16" />
  <rect
     x="145.5"
     y="497"
     width="130"
     height="60"
     style="fill:#04daa5;stroke:black;stroke-width:1"
     id="rect18" />
  <rect
     x="335.5"
     y="497"
     width="130"
     height="60"
     style="fill:#04daa5;stroke:black;stroke-width:1"
     id="rect20" />
  <rect
     x="525.5"
     y="495"
     width="120"
     height="50"
     style="fill:#04daa5;stroke:black;stroke-width:1"
     id="rect22" />
  <rect
     x="0.5"
     y="438"
     width="94"
     height="151"
     style="fill:#04daa5;stroke:black;stroke-width:1"
     id="rect24" />
  <line
     x1="202.036"
     y1="63.029999"
     x2="202.036"
     y2="121.03"
     style="fill:none;stroke:black;stroke-width:1"
     id="line26" />
  <line
     x1="322.03601"
     y1="94.029999"
     x2="322.03601"
     y2="94.029999"
     style="fill:none;stroke:black;stroke-width:1"
     id="line28" />
  <line
     x1="201.536"
     y1="214.53"
     x2="201.536"
     y2="251.53"
     style="fill:none;stroke:black;stroke-width:1"
     id="line30" />
  <line
     x1="200.584"
     y1="353.189"
     x2="200.584"
     y2="302.189"
     style="fill:none;stroke:black;stroke-width:1"
     id="line32" />
  <line
     x1="403.03601"
     y1="214.03"
     x2="403.03601"
     y2="250.03"
     style="fill:none;stroke:black;stroke-width:1"
     id="line34" />
  <line
     x1="401.03601"
     y1="354.03"
     x2="401.03601"
     y2="300.03"
     style="fill:none;stroke:black;stroke-width:1"
     id="line36" />
  <line
     x1="199.036"
     y1="446.03"
     x2="199.036"
     y2="498.03003"
     style="fill:none;stroke:black;stroke-width:1"
     id="line38" />
  <line
     x1="401.03601"
     y1="447.03"
     x2="401.03601"
     y2="497.03003"
     style="fill:none;stroke:black;stroke-width:1"
     id="line40" />
  <line
     x1="272.53601"
     y1="167.53"
     x2="332.53601"
     y2="167.53"
     style="fill:none;stroke:black;stroke-width:1"
     id="line42" />
  <line
     x1="474"
     y1="167.03"
     x2="586"
     y2="167.03"
     style="fill:none;stroke:black;stroke-width:1"
     id="line44" />
  <line
     x1="585.5"
     y1="167.53"
     x2="586"
     y2="493.53003"
     style="fill:none;stroke:black;stroke-width:1"
     id="line46" />
  <line
     x1="472.5"
     y1="400.53"
     x2="584.5"
     y2="400.53"
     style="fill:none;stroke:black;stroke-width:1"
     id="line48" />
  <line
     x1="95"
     y1="520.03003"
     x2="145"
     y2="520.03003"
     style="fill:none;stroke:black;stroke-width:1"
     id="line50" />
  <line
     x1="95"
     y1="571.03003"
     x2="300.5"
     y2="571.03003"
     style="fill:none;stroke:black;stroke-width:1"
     id="line52" />
  <line
     x1="299"
     y1="519.03003"
     x2="335"
     y2="519.03003"
     style="fill:none;stroke:black;stroke-width:1"
     id="line54" />
  <line
     x1="299.5"
     y1="519.53003"
     x2="299.5"
     y2="570.53003"
     style="fill:none;stroke:black;stroke-width:1"
     id="line56" />
  <line
     x1="271"
     y1="400.03"
     x2="302"
     y2="400.03"
     style="fill:none;stroke:black;stroke-width:1"
     id="line58" />
  <line
     x1="301.5"
     y1="400.03"
     x2="301.5"
     y2="167.53"
     style="fill:none;stroke:black;stroke-width:1"
     id="line60" />
  <text
     x="185.5"
     y="150"
     style="font-size:10px;fill:black;font-family:Arial"
     id="text62">Is the</text>
  <text
     x="155.5"
     y="174"
     style="font-size:10px;fill:black;font-family:Arial"
     id="text64">for System to System</text>
  <text
     x="165.5"
     y="186"
     style="font-size:10px;fill:black;font-family:Arial"
     id="text66">Interoperability?</text>
  <text
     x="167.5"
     y="162"
     style="font-size:10px;fill:black;font-family:Arial"
     id="text68">service relevant</text>
  <text
     x="388.5"
     y="151"
     style="font-size:10px;fill:black;font-family:Arial"
     id="text70">Is the</text>
  <text
     x="366.5"
     y="163"
     style="font-size:10px;fill:black;font-family:Arial"
     id="text72">service relevant</text>
  <text
     x="343.5"
     y="175"
     style="font-size:10px;fill:black;font-family:Arial"
     id="text74">for NATO Common funded</text>
  <text
     x="383.5"
     y="187"
     style="font-size:10px;fill:black;font-family:Arial"
     id="text76">systems?</text>
  <text
     x="150.5"
     y="264"
     style="font-size:10px;fill:black;font-family:Arial"
     id="text78">Apply General Scoping</text>
  <text
     x="151.5"
     y="276"
     style="font-size:10px;fill:black;font-family:Arial"
     id="text80">rules and Interoperability</text>
  <text
     x="151.5"
     y="289"
     style="font-size:10px;fill:black;font-family:Arial"
     id="text82">Scoping rules</text>
  <text
     x="345.5"
     y="264"
     style="font-size:10px;fill:black;font-family:Arial"
     id="text84">Apply General scoping</text>
  <text
     x="345.5"
     y="276"
     style="font-size:10px;fill:black;font-family:Arial"
     id="text86">rules and NCF scoping</text>
  <text
     x="345.5"
     y="289"
     style="font-size:10px;fill:black;font-family:Arial"
     id="text88">rules</text>
  <text
     x="183"
     y="389"
     style="font-size:10px;fill:black;font-family:Arial"
     id="text90">Are the</text>
  <text
     x="154.5"
     y="402"
     style="font-size:10px;fill:black;font-family:Arial"
     id="text92">relevant scoping rules</text>
  <text
     x="178.5"
     y="415"
     style="font-size:10px;fill:black;font-family:Arial"
     id="text94">satisfied?</text>
  <text
     x="381.5"
     y="389"
     style="font-size:10px;fill:black;font-family:Arial"
     id="text96">Are the</text>
  <text
     x="350.5"
     y="402"
     style="font-size:10px;fill:black;font-family:Arial"
     id="text98">relevant scoping rules</text>
  <text
     x="378.5"
     y="415"
     style="font-size:10px;fill:black;font-family:Arial"
     id="text100">satisfied?</text>
  <text
     x="18.5"
     y="502.54199"
     style="font-size:10px;fill:black;font-family:Arial"
     id="text102">Appropriate</text>
  <text
     x="18.5"
     y="520"
     style="font-size:10px;fill:black;font-family:Arial"
     id="text104">Standards</text>
  <text
     x="535.5"
     y="511"
     style="font-size:10px;fill:black;font-family:Arial"
     id="text106">Service not currently in</text>
  <text
     x="535.5"
     y="525"
     style="font-size:10px;fill:black;font-family:Arial"
     id="text108">scope of NISP</text>
  <text
     x="148.5"
     y="509"
     style="font-size:10px;fill:black;font-family:Arial"
     id="text110">Service is in scope of NISP</text>
  <text
     x="148.5"
     y="521"
     style="font-size:10px;fill:black;font-family:Arial"
     id="text112">for both System to System</text>
  <text
     x="148.5"
     y="533"
     style="font-size:10px;fill:black;font-family:Arial"
     id="text114">Interoperability and NCF</text>
  <text
     x="148.5"
     y="545"
     style="font-size:10px;fill:black;font-family:Arial"
     id="text116">Systems</text>
  <text
     x="340.5"
     y="511"
     style="font-size:10px;fill:black;font-family:Arial"
     id="text118">Service is in scope of</text>
  <text
     x="340.5"
     y="523"
     style="font-size:10px;fill:black;font-family:Arial"
     id="text120">NISP for NCF Systems</text>
  <text
     x="340.5"
     y="535"
     style="font-size:10px;fill:black;font-family:Arial"
     id="text122">only</text>
  <text
     x="208.5"
     y="223"
     style="font-size:10px;fill:black;font-family:Arial"
     id="text124">Yes</text>
  <text
     x="268.5"
     y="159"
     style="font-size:10px;fill:black;font-family:Arial"
     id="text126">No</text>
  <text
     x="473.5"
     y="159"
     style="font-size:10px;fill:black;font-family:Arial"
     id="text128">No</text>
  <text
     x="268.5"
     y="394"
     style="font-size:10px;fill:black;font-family:Arial"
     id="text130">No</text>
  <text
     x="208.5"
     y="455"
     style="font-size:10px;fill:black;font-family:Arial"
     id="text132">Yes</text>
  <text
     x="410.5"
     y="455"
     style="font-size:10px;fill:black;font-family:Arial"
     id="text134">Yes</text>
  <text
     x="473.5"
     y="394"
     style="font-size:10px;fill:black;font-family:Arial"
     id="text136">No</text>
  <text
     x="410.5"
     y="223"
     style="font-size:10px;fill:black;font-family:Arial"
     id="text138">Yes</text>
  <polygon
     points="329,21.4019 332,26.5981 326,26.5981 329,21.4019 "
     transform="matrix(1,0,0,-1.5396,73.9841,284.808)"
     style="fill:black;stroke-width:1"
     id="polygon140" />
  <polygon
     points="329,21.4019 332,26.5981 326,26.5981 329,21.4019 "
     transform="matrix(1,0,0,-1.5396,72.4167,388.242)"
     style="fill:black;stroke-width:1"
     id="polygon142" />
  <polygon
     points="329,21.4019 332,26.5981 326,26.5981 329,21.4019 "
     transform="matrix(1,0,0,-1.5396,-128.252,386.159)"
     style="fill:black;stroke-width:1"
     id="polygon144" />
  <polygon
     points="329,21.4019 332,26.5981 326,26.5981 329,21.4019 "
     transform="matrix(1,0,0,-1.5396,-127.942,284.794)"
     style="fill:black;stroke-width:1"
     id="polygon146" />
  <polygon
     points="329,21.4019 332,26.5981 326,26.5981 329,21.4019 "
     transform="matrix(1,0,0,-1.5396,-127.583,153.867)"
     style="fill:black;stroke-width:1"
     id="polygon148" />
  <polygon
     points="329,21.4019 332,26.5981 326,26.5981 329,21.4019 "
     transform="matrix(1,0,0,-1.5396,-130.445,529.256)"
     style="fill:black;stroke-width:1"
     id="polygon150" />
  <polygon
     points="329,21.4019 332,26.5981 326,26.5981 329,21.4019 "
     transform="matrix(1,0,0,-1.5396,71.8467,529.909)"
     style="fill:black;stroke-width:1"
     id="polygon152" />
  <polygon
     points="329,21.4019 332,26.5981 326,26.5981 329,21.4019 "
     transform="matrix(1,0,0,-1.5396,256.792,528.867)"
     style="fill:black;stroke-width:1"
     id="polygon154" />
  <polygon
     points="329,21.4019 332,26.5981 326,26.5981 329,21.4019 "
     transform="matrix(0,-1,-1.5396,0,177.687,848.389)"
     style="fill:black;stroke-width:1"
     id="polygon156" />
  <polygon
     points="329,21.4019 332,26.5981 326,26.5981 329,21.4019 "
     transform="matrix(0,-1,-1.5396,0,368.73,848.723)"
     style="fill:black;stroke-width:1"
     id="polygon158" />
  <polygon
     points="329,21.4019 332,26.5981 326,26.5981 329,21.4019 "
     transform="matrix(0,-1,-1.5396,0,364.701,496.125)"
     style="fill:black;stroke-width:1"
     id="polygon160" />
  <polyline
     points="268.5,67.0676 268.5,23.5 156.5,23.5 156.5,85.5 266.708,68.7432"
     style="fill:#04daa5;stroke:black;stroke-width:1"
     id="polyline162"
     transform="translate(-4.5,-23)" />
  <polyline
     points="263.5,71.0676 263.5,27.5 151.5,27.5 151.5,89.5 261.708,72.7432"
     style="fill:#04daa5;stroke:black;stroke-width:1"
     id="polyline164"
     transform="translate(-4.5,-23)" />
  <polyline
     points="258.5,74.0676 258.5,30.5 146.5,30.5 146.5,92.5 256.708,75.7432"
     style="fill:#04daa5;stroke:black;stroke-width:1"
     id="polyline166"
     transform="translate(-4.5,-23)" />
  <text
     x="151.5"
     y="25"
     style="font-size:10px;fill:black;font-family:Arial"
     id="text168">Candidate Services</text>
  <text
     x="151.5"
     y="39"
     style="font-size:10px;fill:black;font-family:Arial"
     id="text170">from TRM</text>
</svg>
